<?xml version="1.0" encoding="utf-8" standalone="no"?>
<!DOCTYPE svg PUBLIC "-//W3C//DTD SVG 1.1//EN"
  "http://www.w3.org/Graphics/SVG/1.1/DTD/svg11.dtd">
<svg xmlns:xlink="http://www.w3.org/1999/xlink" width="891.165625pt" height="503.394375pt" viewBox="0 0 891.165625 503.394375" xmlns="http://www.w3.org/2000/svg" version="1.1">
 <metadata>
  <rdf:RDF xmlns:dc="http://purl.org/dc/elements/1.1/" xmlns:cc="http://creativecommons.org/ns#" xmlns:rdf="http://www.w3.org/1999/02/22-rdf-syntax-ns#">
   <cc:Work>
    <dc:type rdf:resource="http://purl.org/dc/dcmitype/StillImage"/>
    <dc:date>2024-08-06T21:05:04.622749</dc:date>
    <dc:format>image/svg+xml</dc:format>
    <dc:creator>
     <cc:Agent>
      <dc:title>Matplotlib v3.8.0, https://matplotlib.org/</dc:title>
     </cc:Agent>
    </dc:creator>
   </cc:Work>
  </rdf:RDF>
 </metadata>
 <defs>
  <style type="text/css">*{stroke-linejoin: round; stroke-linecap: butt}</style>
 </defs>
 <g id="figure_1">
  <g id="patch_1">
   <path d="M 0 503.394375 
L 891.165625 503.394375 
L 891.165625 0 
L 0 0 
z
" style="fill: #ffffff"/>
  </g>
  <g id="axes_1">
   <g id="patch_2">
    <path d="M 46.965625 465.838125 
L 883.965625 465.838125 
L 883.965625 22.318125 
L 46.965625 22.318125 
z
" style="fill: #ffffff"/>
   </g>
   <g id="matplotlib.axis_1">
    <g id="xtick_1">
     <g id="line2d_1">
      <path d="M 85.01108 465.838125 
L 85.01108 22.318125 
" clip-path="url(#pc97ac10e4b)" style="fill: none; stroke: #b0b0b0; stroke-width: 0.8; stroke-linecap: square"/>
     </g>
     <g id="line2d_2">
      <defs>
       <path id="m847fb7aa00" d="M 0 0 
L 0 3.5 
" style="stroke: #000000; stroke-width: 0.8"/>
      </defs>
      <g>
       <use xlink:href="#m847fb7aa00" x="85.01108" y="465.838125" style="stroke: #000000; stroke-width: 0.8"/>
      </g>
     </g>
     <g id="text_1">
      <!-- 0 -->
      <g transform="translate(81.82983 480.436562) scale(0.1 -0.1)">
       <defs>
        <path id="DejaVuSans-30" d="M 2034 4250 
Q 1547 4250 1301 3770 
Q 1056 3291 1056 2328 
Q 1056 1369 1301 889 
Q 1547 409 2034 409 
Q 2525 409 2770 889 
Q 3016 1369 3016 2328 
Q 3016 3291 2770 3770 
Q 2525 4250 2034 4250 
z
M 2034 4750 
Q 2819 4750 3233 4129 
Q 3647 3509 3647 2328 
Q 3647 1150 3233 529 
Q 2819 -91 2034 -91 
Q 1250 -91 836 529 
Q 422 1150 422 2328 
Q 422 3509 836 4129 
Q 1250 4750 2034 4750 
z
" transform="scale(0.015625)"/>
       </defs>
       <use xlink:href="#DejaVuSans-30"/>
      </g>
     </g>
    </g>
    <g id="xtick_2">
     <g id="line2d_3">
      <path d="M 161.870584 465.838125 
L 161.870584 22.318125 
" clip-path="url(#pc97ac10e4b)" style="fill: none; stroke: #b0b0b0; stroke-width: 0.8; stroke-linecap: square"/>
     </g>
     <g id="line2d_4">
      <g>
       <use xlink:href="#m847fb7aa00" x="161.870584" y="465.838125" style="stroke: #000000; stroke-width: 0.8"/>
      </g>
     </g>
     <g id="text_2">
      <!-- 10 -->
      <g transform="translate(155.508084 480.436562) scale(0.1 -0.1)">
       <defs>
        <path id="DejaVuSans-31" d="M 794 531 
L 1825 531 
L 1825 4091 
L 703 3866 
L 703 4441 
L 1819 4666 
L 2450 4666 
L 2450 531 
L 3481 531 
L 3481 0 
L 794 0 
L 794 531 
z
" transform="scale(0.015625)"/>
       </defs>
       <use xlink:href="#DejaVuSans-31"/>
       <use xlink:href="#DejaVuSans-30" x="63.623047"/>
      </g>
     </g>
    </g>
    <g id="xtick_3">
     <g id="line2d_5">
      <path d="M 238.730088 465.838125 
L 238.730088 22.318125 
" clip-path="url(#pc97ac10e4b)" style="fill: none; stroke: #b0b0b0; stroke-width: 0.8; stroke-linecap: square"/>
     </g>
     <g id="line2d_6">
      <g>
       <use xlink:href="#m847fb7aa00" x="238.730088" y="465.838125" style="stroke: #000000; stroke-width: 0.8"/>
      </g>
     </g>
     <g id="text_3">
      <!-- 20 -->
      <g transform="translate(232.367588 480.436562) scale(0.1 -0.1)">
       <defs>
        <path id="DejaVuSans-32" d="M 1228 531 
L 3431 531 
L 3431 0 
L 469 0 
L 469 531 
Q 828 903 1448 1529 
Q 2069 2156 2228 2338 
Q 2531 2678 2651 2914 
Q 2772 3150 2772 3378 
Q 2772 3750 2511 3984 
Q 2250 4219 1831 4219 
Q 1534 4219 1204 4116 
Q 875 4013 500 3803 
L 500 4441 
Q 881 4594 1212 4672 
Q 1544 4750 1819 4750 
Q 2544 4750 2975 4387 
Q 3406 4025 3406 3419 
Q 3406 3131 3298 2873 
Q 3191 2616 2906 2266 
Q 2828 2175 2409 1742 
Q 1991 1309 1228 531 
z
" transform="scale(0.015625)"/>
       </defs>
       <use xlink:href="#DejaVuSans-32"/>
       <use xlink:href="#DejaVuSans-30" x="63.623047"/>
      </g>
     </g>
    </g>
    <g id="xtick_4">
     <g id="line2d_7">
      <path d="M 315.589592 465.838125 
L 315.589592 22.318125 
" clip-path="url(#pc97ac10e4b)" style="fill: none; stroke: #b0b0b0; stroke-width: 0.8; stroke-linecap: square"/>
     </g>
     <g id="line2d_8">
      <g>
       <use xlink:href="#m847fb7aa00" x="315.589592" y="465.838125" style="stroke: #000000; stroke-width: 0.8"/>
      </g>
     </g>
     <g id="text_4">
      <!-- 30 -->
      <g transform="translate(309.227092 480.436562) scale(0.1 -0.1)">
       <defs>
        <path id="DejaVuSans-33" d="M 2597 2516 
Q 3050 2419 3304 2112 
Q 3559 1806 3559 1356 
Q 3559 666 3084 287 
Q 2609 -91 1734 -91 
Q 1441 -91 1130 -33 
Q 819 25 488 141 
L 488 750 
Q 750 597 1062 519 
Q 1375 441 1716 441 
Q 2309 441 2620 675 
Q 2931 909 2931 1356 
Q 2931 1769 2642 2001 
Q 2353 2234 1838 2234 
L 1294 2234 
L 1294 2753 
L 1863 2753 
Q 2328 2753 2575 2939 
Q 2822 3125 2822 3475 
Q 2822 3834 2567 4026 
Q 2313 4219 1838 4219 
Q 1578 4219 1281 4162 
Q 984 4106 628 3988 
L 628 4550 
Q 988 4650 1302 4700 
Q 1616 4750 1894 4750 
Q 2613 4750 3031 4423 
Q 3450 4097 3450 3541 
Q 3450 3153 3228 2886 
Q 3006 2619 2597 2516 
z
" transform="scale(0.015625)"/>
       </defs>
       <use xlink:href="#DejaVuSans-33"/>
       <use xlink:href="#DejaVuSans-30" x="63.623047"/>
      </g>
     </g>
    </g>
    <g id="xtick_5">
     <g id="line2d_9">
      <path d="M 392.449096 465.838125 
L 392.449096 22.318125 
" clip-path="url(#pc97ac10e4b)" style="fill: none; stroke: #b0b0b0; stroke-width: 0.8; stroke-linecap: square"/>
     </g>
     <g id="line2d_10">
      <g>
       <use xlink:href="#m847fb7aa00" x="392.449096" y="465.838125" style="stroke: #000000; stroke-width: 0.8"/>
      </g>
     </g>
     <g id="text_5">
      <!-- 40 -->
      <g transform="translate(386.086596 480.436562) scale(0.1 -0.1)">
       <defs>
        <path id="DejaVuSans-34" d="M 2419 4116 
L 825 1625 
L 2419 1625 
L 2419 4116 
z
M 2253 4666 
L 3047 4666 
L 3047 1625 
L 3713 1625 
L 3713 1100 
L 3047 1100 
L 3047 0 
L 2419 0 
L 2419 1100 
L 313 1100 
L 313 1709 
L 2253 4666 
z
" transform="scale(0.015625)"/>
       </defs>
       <use xlink:href="#DejaVuSans-34"/>
       <use xlink:href="#DejaVuSans-30" x="63.623047"/>
      </g>
     </g>
    </g>
    <g id="xtick_6">
     <g id="line2d_11">
      <path d="M 469.3086 465.838125 
L 469.3086 22.318125 
" clip-path="url(#pc97ac10e4b)" style="fill: none; stroke: #b0b0b0; stroke-width: 0.8; stroke-linecap: square"/>
     </g>
     <g id="line2d_12">
      <g>
       <use xlink:href="#m847fb7aa00" x="469.3086" y="465.838125" style="stroke: #000000; stroke-width: 0.8"/>
      </g>
     </g>
     <g id="text_6">
      <!-- 50 -->
      <g transform="translate(462.9461 480.436562) scale(0.1 -0.1)">
       <defs>
        <path id="DejaVuSans-35" d="M 691 4666 
L 3169 4666 
L 3169 4134 
L 1269 4134 
L 1269 2991 
Q 1406 3038 1543 3061 
Q 1681 3084 1819 3084 
Q 2600 3084 3056 2656 
Q 3513 2228 3513 1497 
Q 3513 744 3044 326 
Q 2575 -91 1722 -91 
Q 1428 -91 1123 -41 
Q 819 9 494 109 
L 494 744 
Q 775 591 1075 516 
Q 1375 441 1709 441 
Q 2250 441 2565 725 
Q 2881 1009 2881 1497 
Q 2881 1984 2565 2268 
Q 2250 2553 1709 2553 
Q 1456 2553 1204 2497 
Q 953 2441 691 2322 
L 691 4666 
z
" transform="scale(0.015625)"/>
       </defs>
       <use xlink:href="#DejaVuSans-35"/>
       <use xlink:href="#DejaVuSans-30" x="63.623047"/>
      </g>
     </g>
    </g>
    <g id="xtick_7">
     <g id="line2d_13">
      <path d="M 546.168104 465.838125 
L 546.168104 22.318125 
" clip-path="url(#pc97ac10e4b)" style="fill: none; stroke: #b0b0b0; stroke-width: 0.8; stroke-linecap: square"/>
     </g>
     <g id="line2d_14">
      <g>
       <use xlink:href="#m847fb7aa00" x="546.168104" y="465.838125" style="stroke: #000000; stroke-width: 0.8"/>
      </g>
     </g>
     <g id="text_7">
      <!-- 60 -->
      <g transform="translate(539.805604 480.436562) scale(0.1 -0.1)">
       <defs>
        <path id="DejaVuSans-36" d="M 2113 2584 
Q 1688 2584 1439 2293 
Q 1191 2003 1191 1497 
Q 1191 994 1439 701 
Q 1688 409 2113 409 
Q 2538 409 2786 701 
Q 3034 994 3034 1497 
Q 3034 2003 2786 2293 
Q 2538 2584 2113 2584 
z
M 3366 4563 
L 3366 3988 
Q 3128 4100 2886 4159 
Q 2644 4219 2406 4219 
Q 1781 4219 1451 3797 
Q 1122 3375 1075 2522 
Q 1259 2794 1537 2939 
Q 1816 3084 2150 3084 
Q 2853 3084 3261 2657 
Q 3669 2231 3669 1497 
Q 3669 778 3244 343 
Q 2819 -91 2113 -91 
Q 1303 -91 875 529 
Q 447 1150 447 2328 
Q 447 3434 972 4092 
Q 1497 4750 2381 4750 
Q 2619 4750 2861 4703 
Q 3103 4656 3366 4563 
z
" transform="scale(0.015625)"/>
       </defs>
       <use xlink:href="#DejaVuSans-36"/>
       <use xlink:href="#DejaVuSans-30" x="63.623047"/>
      </g>
     </g>
    </g>
    <g id="xtick_8">
     <g id="line2d_15">
      <path d="M 623.027608 465.838125 
L 623.027608 22.318125 
" clip-path="url(#pc97ac10e4b)" style="fill: none; stroke: #b0b0b0; stroke-width: 0.8; stroke-linecap: square"/>
     </g>
     <g id="line2d_16">
      <g>
       <use xlink:href="#m847fb7aa00" x="623.027608" y="465.838125" style="stroke: #000000; stroke-width: 0.8"/>
      </g>
     </g>
     <g id="text_8">
      <!-- 70 -->
      <g transform="translate(616.665108 480.436562) scale(0.1 -0.1)">
       <defs>
        <path id="DejaVuSans-37" d="M 525 4666 
L 3525 4666 
L 3525 4397 
L 1831 0 
L 1172 0 
L 2766 4134 
L 525 4134 
L 525 4666 
z
" transform="scale(0.015625)"/>
       </defs>
       <use xlink:href="#DejaVuSans-37"/>
       <use xlink:href="#DejaVuSans-30" x="63.623047"/>
      </g>
     </g>
    </g>
    <g id="xtick_9">
     <g id="line2d_17">
      <path d="M 699.887113 465.838125 
L 699.887113 22.318125 
" clip-path="url(#pc97ac10e4b)" style="fill: none; stroke: #b0b0b0; stroke-width: 0.8; stroke-linecap: square"/>
     </g>
     <g id="line2d_18">
      <g>
       <use xlink:href="#m847fb7aa00" x="699.887113" y="465.838125" style="stroke: #000000; stroke-width: 0.8"/>
      </g>
     </g>
     <g id="text_9">
      <!-- 80 -->
      <g transform="translate(693.524613 480.436562) scale(0.1 -0.1)">
       <defs>
        <path id="DejaVuSans-38" d="M 2034 2216 
Q 1584 2216 1326 1975 
Q 1069 1734 1069 1313 
Q 1069 891 1326 650 
Q 1584 409 2034 409 
Q 2484 409 2743 651 
Q 3003 894 3003 1313 
Q 3003 1734 2745 1975 
Q 2488 2216 2034 2216 
z
M 1403 2484 
Q 997 2584 770 2862 
Q 544 3141 544 3541 
Q 544 4100 942 4425 
Q 1341 4750 2034 4750 
Q 2731 4750 3128 4425 
Q 3525 4100 3525 3541 
Q 3525 3141 3298 2862 
Q 3072 2584 2669 2484 
Q 3125 2378 3379 2068 
Q 3634 1759 3634 1313 
Q 3634 634 3220 271 
Q 2806 -91 2034 -91 
Q 1263 -91 848 271 
Q 434 634 434 1313 
Q 434 1759 690 2068 
Q 947 2378 1403 2484 
z
M 1172 3481 
Q 1172 3119 1398 2916 
Q 1625 2713 2034 2713 
Q 2441 2713 2670 2916 
Q 2900 3119 2900 3481 
Q 2900 3844 2670 4047 
Q 2441 4250 2034 4250 
Q 1625 4250 1398 4047 
Q 1172 3844 1172 3481 
z
" transform="scale(0.015625)"/>
       </defs>
       <use xlink:href="#DejaVuSans-38"/>
       <use xlink:href="#DejaVuSans-30" x="63.623047"/>
      </g>
     </g>
    </g>
    <g id="xtick_10">
     <g id="line2d_19">
      <path d="M 776.746617 465.838125 
L 776.746617 22.318125 
" clip-path="url(#pc97ac10e4b)" style="fill: none; stroke: #b0b0b0; stroke-width: 0.8; stroke-linecap: square"/>
     </g>
     <g id="line2d_20">
      <g>
       <use xlink:href="#m847fb7aa00" x="776.746617" y="465.838125" style="stroke: #000000; stroke-width: 0.8"/>
      </g>
     </g>
     <g id="text_10">
      <!-- 90 -->
      <g transform="translate(770.384117 480.436562) scale(0.1 -0.1)">
       <defs>
        <path id="DejaVuSans-39" d="M 703 97 
L 703 672 
Q 941 559 1184 500 
Q 1428 441 1663 441 
Q 2288 441 2617 861 
Q 2947 1281 2994 2138 
Q 2813 1869 2534 1725 
Q 2256 1581 1919 1581 
Q 1219 1581 811 2004 
Q 403 2428 403 3163 
Q 403 3881 828 4315 
Q 1253 4750 1959 4750 
Q 2769 4750 3195 4129 
Q 3622 3509 3622 2328 
Q 3622 1225 3098 567 
Q 2575 -91 1691 -91 
Q 1453 -91 1209 -44 
Q 966 3 703 97 
z
M 1959 2075 
Q 2384 2075 2632 2365 
Q 2881 2656 2881 3163 
Q 2881 3666 2632 3958 
Q 2384 4250 1959 4250 
Q 1534 4250 1286 3958 
Q 1038 3666 1038 3163 
Q 1038 2656 1286 2365 
Q 1534 2075 1959 2075 
z
" transform="scale(0.015625)"/>
       </defs>
       <use xlink:href="#DejaVuSans-39"/>
       <use xlink:href="#DejaVuSans-30" x="63.623047"/>
      </g>
     </g>
    </g>
    <g id="xtick_11">
     <g id="line2d_21">
      <path d="M 853.606121 465.838125 
L 853.606121 22.318125 
" clip-path="url(#pc97ac10e4b)" style="fill: none; stroke: #b0b0b0; stroke-width: 0.8; stroke-linecap: square"/>
     </g>
     <g id="line2d_22">
      <g>
       <use xlink:href="#m847fb7aa00" x="853.606121" y="465.838125" style="stroke: #000000; stroke-width: 0.8"/>
      </g>
     </g>
     <g id="text_11">
      <!-- 100 -->
      <g transform="translate(844.062371 480.436562) scale(0.1 -0.1)">
       <use xlink:href="#DejaVuSans-31"/>
       <use xlink:href="#DejaVuSans-30" x="63.623047"/>
       <use xlink:href="#DejaVuSans-30" x="127.246094"/>
      </g>
     </g>
    </g>
    <g id="text_12">
     <!-- Number of traces -->
     <g transform="translate(421.871875 494.114687) scale(0.1 -0.1)">
      <defs>
       <path id="DejaVuSans-4e" d="M 628 4666 
L 1478 4666 
L 3547 763 
L 3547 4666 
L 4159 4666 
L 4159 0 
L 3309 0 
L 1241 3903 
L 1241 0 
L 628 0 
L 628 4666 
z
" transform="scale(0.015625)"/>
       <path id="DejaVuSans-75" d="M 544 1381 
L 544 3500 
L 1119 3500 
L 1119 1403 
Q 1119 906 1312 657 
Q 1506 409 1894 409 
Q 2359 409 2629 706 
Q 2900 1003 2900 1516 
L 2900 3500 
L 3475 3500 
L 3475 0 
L 2900 0 
L 2900 538 
Q 2691 219 2414 64 
Q 2138 -91 1772 -91 
Q 1169 -91 856 284 
Q 544 659 544 1381 
z
M 1991 3584 
L 1991 3584 
z
" transform="scale(0.015625)"/>
       <path id="DejaVuSans-6d" d="M 3328 2828 
Q 3544 3216 3844 3400 
Q 4144 3584 4550 3584 
Q 5097 3584 5394 3201 
Q 5691 2819 5691 2113 
L 5691 0 
L 5113 0 
L 5113 2094 
Q 5113 2597 4934 2840 
Q 4756 3084 4391 3084 
Q 3944 3084 3684 2787 
Q 3425 2491 3425 1978 
L 3425 0 
L 2847 0 
L 2847 2094 
Q 2847 2600 2669 2842 
Q 2491 3084 2119 3084 
Q 1678 3084 1418 2786 
Q 1159 2488 1159 1978 
L 1159 0 
L 581 0 
L 581 3500 
L 1159 3500 
L 1159 2956 
Q 1356 3278 1631 3431 
Q 1906 3584 2284 3584 
Q 2666 3584 2933 3390 
Q 3200 3197 3328 2828 
z
" transform="scale(0.015625)"/>
       <path id="DejaVuSans-62" d="M 3116 1747 
Q 3116 2381 2855 2742 
Q 2594 3103 2138 3103 
Q 1681 3103 1420 2742 
Q 1159 2381 1159 1747 
Q 1159 1113 1420 752 
Q 1681 391 2138 391 
Q 2594 391 2855 752 
Q 3116 1113 3116 1747 
z
M 1159 2969 
Q 1341 3281 1617 3432 
Q 1894 3584 2278 3584 
Q 2916 3584 3314 3078 
Q 3713 2572 3713 1747 
Q 3713 922 3314 415 
Q 2916 -91 2278 -91 
Q 1894 -91 1617 61 
Q 1341 213 1159 525 
L 1159 0 
L 581 0 
L 581 4863 
L 1159 4863 
L 1159 2969 
z
" transform="scale(0.015625)"/>
       <path id="DejaVuSans-65" d="M 3597 1894 
L 3597 1613 
L 953 1613 
Q 991 1019 1311 708 
Q 1631 397 2203 397 
Q 2534 397 2845 478 
Q 3156 559 3463 722 
L 3463 178 
Q 3153 47 2828 -22 
Q 2503 -91 2169 -91 
Q 1331 -91 842 396 
Q 353 884 353 1716 
Q 353 2575 817 3079 
Q 1281 3584 2069 3584 
Q 2775 3584 3186 3129 
Q 3597 2675 3597 1894 
z
M 3022 2063 
Q 3016 2534 2758 2815 
Q 2500 3097 2075 3097 
Q 1594 3097 1305 2825 
Q 1016 2553 972 2059 
L 3022 2063 
z
" transform="scale(0.015625)"/>
       <path id="DejaVuSans-72" d="M 2631 2963 
Q 2534 3019 2420 3045 
Q 2306 3072 2169 3072 
Q 1681 3072 1420 2755 
Q 1159 2438 1159 1844 
L 1159 0 
L 581 0 
L 581 3500 
L 1159 3500 
L 1159 2956 
Q 1341 3275 1631 3429 
Q 1922 3584 2338 3584 
Q 2397 3584 2469 3576 
Q 2541 3569 2628 3553 
L 2631 2963 
z
" transform="scale(0.015625)"/>
       <path id="DejaVuSans-20" transform="scale(0.015625)"/>
       <path id="DejaVuSans-6f" d="M 1959 3097 
Q 1497 3097 1228 2736 
Q 959 2375 959 1747 
Q 959 1119 1226 758 
Q 1494 397 1959 397 
Q 2419 397 2687 759 
Q 2956 1122 2956 1747 
Q 2956 2369 2687 2733 
Q 2419 3097 1959 3097 
z
M 1959 3584 
Q 2709 3584 3137 3096 
Q 3566 2609 3566 1747 
Q 3566 888 3137 398 
Q 2709 -91 1959 -91 
Q 1206 -91 779 398 
Q 353 888 353 1747 
Q 353 2609 779 3096 
Q 1206 3584 1959 3584 
z
" transform="scale(0.015625)"/>
       <path id="DejaVuSans-66" d="M 2375 4863 
L 2375 4384 
L 1825 4384 
Q 1516 4384 1395 4259 
Q 1275 4134 1275 3809 
L 1275 3500 
L 2222 3500 
L 2222 3053 
L 1275 3053 
L 1275 0 
L 697 0 
L 697 3053 
L 147 3053 
L 147 3500 
L 697 3500 
L 697 3744 
Q 697 4328 969 4595 
Q 1241 4863 1831 4863 
L 2375 4863 
z
" transform="scale(0.015625)"/>
       <path id="DejaVuSans-74" d="M 1172 4494 
L 1172 3500 
L 2356 3500 
L 2356 3053 
L 1172 3053 
L 1172 1153 
Q 1172 725 1289 603 
Q 1406 481 1766 481 
L 2356 481 
L 2356 0 
L 1766 0 
Q 1100 0 847 248 
Q 594 497 594 1153 
L 594 3053 
L 172 3053 
L 172 3500 
L 594 3500 
L 594 4494 
L 1172 4494 
z
" transform="scale(0.015625)"/>
       <path id="DejaVuSans-61" d="M 2194 1759 
Q 1497 1759 1228 1600 
Q 959 1441 959 1056 
Q 959 750 1161 570 
Q 1363 391 1709 391 
Q 2188 391 2477 730 
Q 2766 1069 2766 1631 
L 2766 1759 
L 2194 1759 
z
M 3341 1997 
L 3341 0 
L 2766 0 
L 2766 531 
Q 2569 213 2275 61 
Q 1981 -91 1556 -91 
Q 1019 -91 701 211 
Q 384 513 384 1019 
Q 384 1609 779 1909 
Q 1175 2209 1959 2209 
L 2766 2209 
L 2766 2266 
Q 2766 2663 2505 2880 
Q 2244 3097 1772 3097 
Q 1472 3097 1187 3025 
Q 903 2953 641 2809 
L 641 3341 
Q 956 3463 1253 3523 
Q 1550 3584 1831 3584 
Q 2591 3584 2966 3190 
Q 3341 2797 3341 1997 
z
" transform="scale(0.015625)"/>
       <path id="DejaVuSans-63" d="M 3122 3366 
L 3122 2828 
Q 2878 2963 2633 3030 
Q 2388 3097 2138 3097 
Q 1578 3097 1268 2742 
Q 959 2388 959 1747 
Q 959 1106 1268 751 
Q 1578 397 2138 397 
Q 2388 397 2633 464 
Q 2878 531 3122 666 
L 3122 134 
Q 2881 22 2623 -34 
Q 2366 -91 2075 -91 
Q 1284 -91 818 406 
Q 353 903 353 1747 
Q 353 2603 823 3093 
Q 1294 3584 2113 3584 
Q 2378 3584 2631 3529 
Q 2884 3475 3122 3366 
z
" transform="scale(0.015625)"/>
       <path id="DejaVuSans-73" d="M 2834 3397 
L 2834 2853 
Q 2591 2978 2328 3040 
Q 2066 3103 1784 3103 
Q 1356 3103 1142 2972 
Q 928 2841 928 2578 
Q 928 2378 1081 2264 
Q 1234 2150 1697 2047 
L 1894 2003 
Q 2506 1872 2764 1633 
Q 3022 1394 3022 966 
Q 3022 478 2636 193 
Q 2250 -91 1575 -91 
Q 1294 -91 989 -36 
Q 684 19 347 128 
L 347 722 
Q 666 556 975 473 
Q 1284 391 1588 391 
Q 1994 391 2212 530 
Q 2431 669 2431 922 
Q 2431 1156 2273 1281 
Q 2116 1406 1581 1522 
L 1381 1569 
Q 847 1681 609 1914 
Q 372 2147 372 2553 
Q 372 3047 722 3315 
Q 1072 3584 1716 3584 
Q 2034 3584 2315 3537 
Q 2597 3491 2834 3397 
z
" transform="scale(0.015625)"/>
      </defs>
      <use xlink:href="#DejaVuSans-4e"/>
      <use xlink:href="#DejaVuSans-75" x="74.804688"/>
      <use xlink:href="#DejaVuSans-6d" x="138.183594"/>
      <use xlink:href="#DejaVuSans-62" x="235.595703"/>
      <use xlink:href="#DejaVuSans-65" x="299.072266"/>
      <use xlink:href="#DejaVuSans-72" x="360.595703"/>
      <use xlink:href="#DejaVuSans-20" x="401.708984"/>
      <use xlink:href="#DejaVuSans-6f" x="433.496094"/>
      <use xlink:href="#DejaVuSans-66" x="494.677734"/>
      <use xlink:href="#DejaVuSans-20" x="529.882812"/>
      <use xlink:href="#DejaVuSans-74" x="561.669922"/>
      <use xlink:href="#DejaVuSans-72" x="600.878906"/>
      <use xlink:href="#DejaVuSans-61" x="641.992188"/>
      <use xlink:href="#DejaVuSans-63" x="703.271484"/>
      <use xlink:href="#DejaVuSans-65" x="758.251953"/>
      <use xlink:href="#DejaVuSans-73" x="819.775391"/>
     </g>
    </g>
   </g>
   <g id="matplotlib.axis_2">
    <g id="ytick_1">
     <g id="line2d_23">
      <path d="M 46.965625 445.678125 
L 883.965625 445.678125 
" clip-path="url(#pc97ac10e4b)" style="fill: none; stroke: #b0b0b0; stroke-width: 0.8; stroke-linecap: square"/>
     </g>
     <g id="line2d_24">
      <defs>
       <path id="m5be1cd73b1" d="M 0 0 
L -3.5 0 
" style="stroke: #000000; stroke-width: 0.8"/>
      </defs>
      <g>
       <use xlink:href="#m5be1cd73b1" x="46.965625" y="445.678125" style="stroke: #000000; stroke-width: 0.8"/>
      </g>
     </g>
     <g id="text_13">
      <!-- 0 -->
      <g transform="translate(33.603125 449.477344) scale(0.1 -0.1)">
       <use xlink:href="#DejaVuSans-30"/>
      </g>
     </g>
    </g>
    <g id="ytick_2">
     <g id="line2d_25">
      <path d="M 46.965625 405.895195 
L 883.965625 405.895195 
" clip-path="url(#pc97ac10e4b)" style="fill: none; stroke: #b0b0b0; stroke-width: 0.8; stroke-linecap: square"/>
     </g>
     <g id="line2d_26">
      <g>
       <use xlink:href="#m5be1cd73b1" x="46.965625" y="405.895195" style="stroke: #000000; stroke-width: 0.8"/>
      </g>
     </g>
     <g id="text_14">
      <!-- 10 -->
      <g transform="translate(27.240625 409.694413) scale(0.1 -0.1)">
       <use xlink:href="#DejaVuSans-31"/>
       <use xlink:href="#DejaVuSans-30" x="63.623047"/>
      </g>
     </g>
    </g>
    <g id="ytick_3">
     <g id="line2d_27">
      <path d="M 46.965625 366.112264 
L 883.965625 366.112264 
" clip-path="url(#pc97ac10e4b)" style="fill: none; stroke: #b0b0b0; stroke-width: 0.8; stroke-linecap: square"/>
     </g>
     <g id="line2d_28">
      <g>
       <use xlink:href="#m5be1cd73b1" x="46.965625" y="366.112264" style="stroke: #000000; stroke-width: 0.8"/>
      </g>
     </g>
     <g id="text_15">
      <!-- 20 -->
      <g transform="translate(27.240625 369.911483) scale(0.1 -0.1)">
       <use xlink:href="#DejaVuSans-32"/>
       <use xlink:href="#DejaVuSans-30" x="63.623047"/>
      </g>
     </g>
    </g>
    <g id="ytick_4">
     <g id="line2d_29">
      <path d="M 46.965625 326.329334 
L 883.965625 326.329334 
" clip-path="url(#pc97ac10e4b)" style="fill: none; stroke: #b0b0b0; stroke-width: 0.8; stroke-linecap: square"/>
     </g>
     <g id="line2d_30">
      <g>
       <use xlink:href="#m5be1cd73b1" x="46.965625" y="326.329334" style="stroke: #000000; stroke-width: 0.8"/>
      </g>
     </g>
     <g id="text_16">
      <!-- 30 -->
      <g transform="translate(27.240625 330.128552) scale(0.1 -0.1)">
       <use xlink:href="#DejaVuSans-33"/>
       <use xlink:href="#DejaVuSans-30" x="63.623047"/>
      </g>
     </g>
    </g>
    <g id="ytick_5">
     <g id="line2d_31">
      <path d="M 46.965625 286.546403 
L 883.965625 286.546403 
" clip-path="url(#pc97ac10e4b)" style="fill: none; stroke: #b0b0b0; stroke-width: 0.8; stroke-linecap: square"/>
     </g>
     <g id="line2d_32">
      <g>
       <use xlink:href="#m5be1cd73b1" x="46.965625" y="286.546403" style="stroke: #000000; stroke-width: 0.8"/>
      </g>
     </g>
     <g id="text_17">
      <!-- 40 -->
      <g transform="translate(27.240625 290.345622) scale(0.1 -0.1)">
       <use xlink:href="#DejaVuSans-34"/>
       <use xlink:href="#DejaVuSans-30" x="63.623047"/>
      </g>
     </g>
    </g>
    <g id="ytick_6">
     <g id="line2d_33">
      <path d="M 46.965625 246.763473 
L 883.965625 246.763473 
" clip-path="url(#pc97ac10e4b)" style="fill: none; stroke: #b0b0b0; stroke-width: 0.8; stroke-linecap: square"/>
     </g>
     <g id="line2d_34">
      <g>
       <use xlink:href="#m5be1cd73b1" x="46.965625" y="246.763473" style="stroke: #000000; stroke-width: 0.8"/>
      </g>
     </g>
     <g id="text_18">
      <!-- 50 -->
      <g transform="translate(27.240625 250.562692) scale(0.1 -0.1)">
       <use xlink:href="#DejaVuSans-35"/>
       <use xlink:href="#DejaVuSans-30" x="63.623047"/>
      </g>
     </g>
    </g>
    <g id="ytick_7">
     <g id="line2d_35">
      <path d="M 46.965625 206.980542 
L 883.965625 206.980542 
" clip-path="url(#pc97ac10e4b)" style="fill: none; stroke: #b0b0b0; stroke-width: 0.8; stroke-linecap: square"/>
     </g>
     <g id="line2d_36">
      <g>
       <use xlink:href="#m5be1cd73b1" x="46.965625" y="206.980542" style="stroke: #000000; stroke-width: 0.8"/>
      </g>
     </g>
     <g id="text_19">
      <!-- 60 -->
      <g transform="translate(27.240625 210.779761) scale(0.1 -0.1)">
       <use xlink:href="#DejaVuSans-36"/>
       <use xlink:href="#DejaVuSans-30" x="63.623047"/>
      </g>
     </g>
    </g>
    <g id="ytick_8">
     <g id="line2d_37">
      <path d="M 46.965625 167.197612 
L 883.965625 167.197612 
" clip-path="url(#pc97ac10e4b)" style="fill: none; stroke: #b0b0b0; stroke-width: 0.8; stroke-linecap: square"/>
     </g>
     <g id="line2d_38">
      <g>
       <use xlink:href="#m5be1cd73b1" x="46.965625" y="167.197612" style="stroke: #000000; stroke-width: 0.8"/>
      </g>
     </g>
     <g id="text_20">
      <!-- 70 -->
      <g transform="translate(27.240625 170.996831) scale(0.1 -0.1)">
       <use xlink:href="#DejaVuSans-37"/>
       <use xlink:href="#DejaVuSans-30" x="63.623047"/>
      </g>
     </g>
    </g>
    <g id="ytick_9">
     <g id="line2d_39">
      <path d="M 46.965625 127.414681 
L 883.965625 127.414681 
" clip-path="url(#pc97ac10e4b)" style="fill: none; stroke: #b0b0b0; stroke-width: 0.8; stroke-linecap: square"/>
     </g>
     <g id="line2d_40">
      <g>
       <use xlink:href="#m5be1cd73b1" x="46.965625" y="127.414681" style="stroke: #000000; stroke-width: 0.8"/>
      </g>
     </g>
     <g id="text_21">
      <!-- 80 -->
      <g transform="translate(27.240625 131.2139) scale(0.1 -0.1)">
       <use xlink:href="#DejaVuSans-38"/>
       <use xlink:href="#DejaVuSans-30" x="63.623047"/>
      </g>
     </g>
    </g>
    <g id="ytick_10">
     <g id="line2d_41">
      <path d="M 46.965625 87.631751 
L 883.965625 87.631751 
" clip-path="url(#pc97ac10e4b)" style="fill: none; stroke: #b0b0b0; stroke-width: 0.8; stroke-linecap: square"/>
     </g>
     <g id="line2d_42">
      <g>
       <use xlink:href="#m5be1cd73b1" x="46.965625" y="87.631751" style="stroke: #000000; stroke-width: 0.8"/>
      </g>
     </g>
     <g id="text_22">
      <!-- 90 -->
      <g transform="translate(27.240625 91.43097) scale(0.1 -0.1)">
       <use xlink:href="#DejaVuSans-39"/>
       <use xlink:href="#DejaVuSans-30" x="63.623047"/>
      </g>
     </g>
    </g>
    <g id="ytick_11">
     <g id="line2d_43">
      <path d="M 46.965625 47.848821 
L 883.965625 47.848821 
" clip-path="url(#pc97ac10e4b)" style="fill: none; stroke: #b0b0b0; stroke-width: 0.8; stroke-linecap: square"/>
     </g>
     <g id="line2d_44">
      <g>
       <use xlink:href="#m5be1cd73b1" x="46.965625" y="47.848821" style="stroke: #000000; stroke-width: 0.8"/>
      </g>
     </g>
     <g id="text_23">
      <!-- 100 -->
      <g transform="translate(20.878125 51.648039) scale(0.1 -0.1)">
       <use xlink:href="#DejaVuSans-31"/>
       <use xlink:href="#DejaVuSans-30" x="63.623047"/>
       <use xlink:href="#DejaVuSans-30" x="127.246094"/>
      </g>
     </g>
    </g>
    <g id="text_24">
     <!-- GE -->
     <g transform="translate(14.798438 251.111719) rotate(-90) scale(0.1 -0.1)">
      <defs>
       <path id="DejaVuSans-47" d="M 3809 666 
L 3809 1919 
L 2778 1919 
L 2778 2438 
L 4434 2438 
L 4434 434 
Q 4069 175 3628 42 
Q 3188 -91 2688 -91 
Q 1594 -91 976 548 
Q 359 1188 359 2328 
Q 359 3472 976 4111 
Q 1594 4750 2688 4750 
Q 3144 4750 3555 4637 
Q 3966 4525 4313 4306 
L 4313 3634 
Q 3963 3931 3569 4081 
Q 3175 4231 2741 4231 
Q 1884 4231 1454 3753 
Q 1025 3275 1025 2328 
Q 1025 1384 1454 906 
Q 1884 428 2741 428 
Q 3075 428 3337 486 
Q 3600 544 3809 666 
z
" transform="scale(0.015625)"/>
       <path id="DejaVuSans-45" d="M 628 4666 
L 3578 4666 
L 3578 4134 
L 1259 4134 
L 1259 2753 
L 3481 2753 
L 3481 2222 
L 1259 2222 
L 1259 531 
L 3634 531 
L 3634 0 
L 628 0 
L 628 4666 
z
" transform="scale(0.015625)"/>
      </defs>
      <use xlink:href="#DejaVuSans-47"/>
      <use xlink:href="#DejaVuSans-45" x="77.490234"/>
     </g>
    </g>
   </g>
   <g id="line2d_45">
    <path d="M 845.92017 465.838125 
L 845.92017 22.318125 
" clip-path="url(#pc97ac10e4b)" style="fill: none; stroke-dasharray: 5.55,2.4; stroke-dashoffset: 0; stroke: #ff0000; stroke-width: 1.5"/>
   </g>
   <g id="line2d_46">
    <path d="M 85.01108 75.816221 
L 92.69703 42.478125 
L 100.38298 63.960907 
L 108.068931 115.241105 
L 115.754881 141.617188 
L 123.440832 164.611721 
L 131.126782 189.953448 
L 138.812732 219.353034 
L 146.498683 229.378332 
L 154.184633 243.381924 
L 161.870584 254.60071 
L 169.556534 258.579003 
L 177.242485 272.065417 
L 184.928435 274.293261 
L 192.614385 280.738095 
L 200.300336 290.84296 
L 207.986286 289.927952 
L 215.672237 293.786897 
L 223.358187 301.067173 
L 231.044137 312.405308 
L 238.730088 313.51923 
L 246.416038 318.531879 
L 254.101989 323.02735 
L 261.787939 328.915224 
L 269.473889 332.455905 
L 277.15984 333.490261 
L 284.84579 341.725328 
L 292.531741 342.322072 
L 300.217691 346.141233 
L 307.903642 347.573419 
L 315.589592 347.374504 
L 323.275542 352.228021 
L 330.961493 360.582437 
L 338.647443 361.895273 
L 346.333394 369.85186 
L 354.019344 371.562526 
L 361.705294 374.307548 
L 369.391245 375.222555 
L 377.077195 375.42147 
L 384.763146 383.656536 
L 392.449096 384.969373 
L 400.135046 385.32742 
L 407.820997 386.878954 
L 415.506947 387.634829 
L 423.192898 389.26593 
L 430.878848 389.226147 
L 438.564799 390.658332 
L 446.250749 393.124874 
L 453.936699 395.591416 
L 461.62265 395.273152 
L 469.3086 395.153803 
L 476.994551 396.864469 
L 484.680501 398.217089 
L 492.366451 398.09774 
L 500.052402 400.086887 
L 507.738352 403.906048 
L 515.424303 404.502792 
L 523.110253 404.224311 
L 530.796204 405.736063 
L 538.482154 407.128465 
L 546.168104 406.849985 
L 553.854055 406.412373 
L 561.540005 409.754139 
L 569.225956 411.743285 
L 576.911906 411.26589 
L 584.597856 410.788495 
L 592.283807 411.425022 
L 599.969757 411.783068 
L 607.655708 412.578727 
L 615.341658 412.61851 
L 623.027608 414.806571 
L 630.713559 416.875283 
L 638.399509 417.670942 
L 646.08546 418.546166 
L 653.77141 418.028988 
L 661.457361 419.660088 
L 669.143311 419.063345 
L 676.829261 419.302042 
L 684.515212 419.699871 
L 692.201162 420.296615 
L 699.887113 420.694445 
L 707.573063 421.410537 
L 715.259013 421.529886 
L 722.944964 421.330972 
L 730.630914 421.768584 
L 738.316865 421.84815 
L 746.002815 421.092274 
L 753.688765 421.370755 
L 761.374716 422.723374 
L 769.060666 422.564242 
L 776.746617 423.439467 
L 784.432567 424.075994 
L 792.118518 424.195343 
L 799.804468 424.274908 
L 807.490418 424.354474 
L 815.176369 424.792087 
L 822.862319 424.513606 
L 830.54827 425.428613 
L 838.23422 425.11035 
L 845.92017 425.707094 
" clip-path="url(#pc97ac10e4b)" style="fill: none; stroke: #ff0000; stroke-width: 1.5; stroke-linecap: square"/>
    <defs>
     <path id="m8c9f1d6dc2" d="M 0 3 
C 0.795609 3 1.55874 2.683901 2.12132 2.12132 
C 2.683901 1.55874 3 0.795609 3 0 
C 3 -0.795609 2.683901 -1.55874 2.12132 -2.12132 
C 1.55874 -2.683901 0.795609 -3 0 -3 
C -0.795609 -3 -1.55874 -2.683901 -2.12132 -2.12132 
C -2.683901 -1.55874 -3 -0.795609 -3 0 
C -3 0.795609 -2.683901 1.55874 -2.12132 2.12132 
C -1.55874 2.683901 -0.795609 3 0 3 
z
" style="stroke: #ff0000"/>
    </defs>
    <g clip-path="url(#pc97ac10e4b)">
     <use xlink:href="#m8c9f1d6dc2" x="85.01108" y="75.816221" style="fill: #ff0000; stroke: #ff0000"/>
     <use xlink:href="#m8c9f1d6dc2" x="92.69703" y="42.478125" style="fill: #ff0000; stroke: #ff0000"/>
     <use xlink:href="#m8c9f1d6dc2" x="100.38298" y="63.960907" style="fill: #ff0000; stroke: #ff0000"/>
     <use xlink:href="#m8c9f1d6dc2" x="108.068931" y="115.241105" style="fill: #ff0000; stroke: #ff0000"/>
     <use xlink:href="#m8c9f1d6dc2" x="115.754881" y="141.617188" style="fill: #ff0000; stroke: #ff0000"/>
     <use xlink:href="#m8c9f1d6dc2" x="123.440832" y="164.611721" style="fill: #ff0000; stroke: #ff0000"/>
     <use xlink:href="#m8c9f1d6dc2" x="131.126782" y="189.953448" style="fill: #ff0000; stroke: #ff0000"/>
     <use xlink:href="#m8c9f1d6dc2" x="138.812732" y="219.353034" style="fill: #ff0000; stroke: #ff0000"/>
     <use xlink:href="#m8c9f1d6dc2" x="146.498683" y="229.378332" style="fill: #ff0000; stroke: #ff0000"/>
     <use xlink:href="#m8c9f1d6dc2" x="154.184633" y="243.381924" style="fill: #ff0000; stroke: #ff0000"/>
     <use xlink:href="#m8c9f1d6dc2" x="161.870584" y="254.60071" style="fill: #ff0000; stroke: #ff0000"/>
     <use xlink:href="#m8c9f1d6dc2" x="169.556534" y="258.579003" style="fill: #ff0000; stroke: #ff0000"/>
     <use xlink:href="#m8c9f1d6dc2" x="177.242485" y="272.065417" style="fill: #ff0000; stroke: #ff0000"/>
     <use xlink:href="#m8c9f1d6dc2" x="184.928435" y="274.293261" style="fill: #ff0000; stroke: #ff0000"/>
     <use xlink:href="#m8c9f1d6dc2" x="192.614385" y="280.738095" style="fill: #ff0000; stroke: #ff0000"/>
     <use xlink:href="#m8c9f1d6dc2" x="200.300336" y="290.84296" style="fill: #ff0000; stroke: #ff0000"/>
     <use xlink:href="#m8c9f1d6dc2" x="207.986286" y="289.927952" style="fill: #ff0000; stroke: #ff0000"/>
     <use xlink:href="#m8c9f1d6dc2" x="215.672237" y="293.786897" style="fill: #ff0000; stroke: #ff0000"/>
     <use xlink:href="#m8c9f1d6dc2" x="223.358187" y="301.067173" style="fill: #ff0000; stroke: #ff0000"/>
     <use xlink:href="#m8c9f1d6dc2" x="231.044137" y="312.405308" style="fill: #ff0000; stroke: #ff0000"/>
     <use xlink:href="#m8c9f1d6dc2" x="238.730088" y="313.51923" style="fill: #ff0000; stroke: #ff0000"/>
     <use xlink:href="#m8c9f1d6dc2" x="246.416038" y="318.531879" style="fill: #ff0000; stroke: #ff0000"/>
     <use xlink:href="#m8c9f1d6dc2" x="254.101989" y="323.02735" style="fill: #ff0000; stroke: #ff0000"/>
     <use xlink:href="#m8c9f1d6dc2" x="261.787939" y="328.915224" style="fill: #ff0000; stroke: #ff0000"/>
     <use xlink:href="#m8c9f1d6dc2" x="269.473889" y="332.455905" style="fill: #ff0000; stroke: #ff0000"/>
     <use xlink:href="#m8c9f1d6dc2" x="277.15984" y="333.490261" style="fill: #ff0000; stroke: #ff0000"/>
     <use xlink:href="#m8c9f1d6dc2" x="284.84579" y="341.725328" style="fill: #ff0000; stroke: #ff0000"/>
     <use xlink:href="#m8c9f1d6dc2" x="292.531741" y="342.322072" style="fill: #ff0000; stroke: #ff0000"/>
     <use xlink:href="#m8c9f1d6dc2" x="300.217691" y="346.141233" style="fill: #ff0000; stroke: #ff0000"/>
     <use xlink:href="#m8c9f1d6dc2" x="307.903642" y="347.573419" style="fill: #ff0000; stroke: #ff0000"/>
     <use xlink:href="#m8c9f1d6dc2" x="315.589592" y="347.374504" style="fill: #ff0000; stroke: #ff0000"/>
     <use xlink:href="#m8c9f1d6dc2" x="323.275542" y="352.228021" style="fill: #ff0000; stroke: #ff0000"/>
     <use xlink:href="#m8c9f1d6dc2" x="330.961493" y="360.582437" style="fill: #ff0000; stroke: #ff0000"/>
     <use xlink:href="#m8c9f1d6dc2" x="338.647443" y="361.895273" style="fill: #ff0000; stroke: #ff0000"/>
     <use xlink:href="#m8c9f1d6dc2" x="346.333394" y="369.85186" style="fill: #ff0000; stroke: #ff0000"/>
     <use xlink:href="#m8c9f1d6dc2" x="354.019344" y="371.562526" style="fill: #ff0000; stroke: #ff0000"/>
     <use xlink:href="#m8c9f1d6dc2" x="361.705294" y="374.307548" style="fill: #ff0000; stroke: #ff0000"/>
     <use xlink:href="#m8c9f1d6dc2" x="369.391245" y="375.222555" style="fill: #ff0000; stroke: #ff0000"/>
     <use xlink:href="#m8c9f1d6dc2" x="377.077195" y="375.42147" style="fill: #ff0000; stroke: #ff0000"/>
     <use xlink:href="#m8c9f1d6dc2" x="384.763146" y="383.656536" style="fill: #ff0000; stroke: #ff0000"/>
     <use xlink:href="#m8c9f1d6dc2" x="392.449096" y="384.969373" style="fill: #ff0000; stroke: #ff0000"/>
     <use xlink:href="#m8c9f1d6dc2" x="400.135046" y="385.32742" style="fill: #ff0000; stroke: #ff0000"/>
     <use xlink:href="#m8c9f1d6dc2" x="407.820997" y="386.878954" style="fill: #ff0000; stroke: #ff0000"/>
     <use xlink:href="#m8c9f1d6dc2" x="415.506947" y="387.634829" style="fill: #ff0000; stroke: #ff0000"/>
     <use xlink:href="#m8c9f1d6dc2" x="423.192898" y="389.26593" style="fill: #ff0000; stroke: #ff0000"/>
     <use xlink:href="#m8c9f1d6dc2" x="430.878848" y="389.226147" style="fill: #ff0000; stroke: #ff0000"/>
     <use xlink:href="#m8c9f1d6dc2" x="438.564799" y="390.658332" style="fill: #ff0000; stroke: #ff0000"/>
     <use xlink:href="#m8c9f1d6dc2" x="446.250749" y="393.124874" style="fill: #ff0000; stroke: #ff0000"/>
     <use xlink:href="#m8c9f1d6dc2" x="453.936699" y="395.591416" style="fill: #ff0000; stroke: #ff0000"/>
     <use xlink:href="#m8c9f1d6dc2" x="461.62265" y="395.273152" style="fill: #ff0000; stroke: #ff0000"/>
     <use xlink:href="#m8c9f1d6dc2" x="469.3086" y="395.153803" style="fill: #ff0000; stroke: #ff0000"/>
     <use xlink:href="#m8c9f1d6dc2" x="476.994551" y="396.864469" style="fill: #ff0000; stroke: #ff0000"/>
     <use xlink:href="#m8c9f1d6dc2" x="484.680501" y="398.217089" style="fill: #ff0000; stroke: #ff0000"/>
     <use xlink:href="#m8c9f1d6dc2" x="492.366451" y="398.09774" style="fill: #ff0000; stroke: #ff0000"/>
     <use xlink:href="#m8c9f1d6dc2" x="500.052402" y="400.086887" style="fill: #ff0000; stroke: #ff0000"/>
     <use xlink:href="#m8c9f1d6dc2" x="507.738352" y="403.906048" style="fill: #ff0000; stroke: #ff0000"/>
     <use xlink:href="#m8c9f1d6dc2" x="515.424303" y="404.502792" style="fill: #ff0000; stroke: #ff0000"/>
     <use xlink:href="#m8c9f1d6dc2" x="523.110253" y="404.224311" style="fill: #ff0000; stroke: #ff0000"/>
     <use xlink:href="#m8c9f1d6dc2" x="530.796204" y="405.736063" style="fill: #ff0000; stroke: #ff0000"/>
     <use xlink:href="#m8c9f1d6dc2" x="538.482154" y="407.128465" style="fill: #ff0000; stroke: #ff0000"/>
     <use xlink:href="#m8c9f1d6dc2" x="546.168104" y="406.849985" style="fill: #ff0000; stroke: #ff0000"/>
     <use xlink:href="#m8c9f1d6dc2" x="553.854055" y="406.412373" style="fill: #ff0000; stroke: #ff0000"/>
     <use xlink:href="#m8c9f1d6dc2" x="561.540005" y="409.754139" style="fill: #ff0000; stroke: #ff0000"/>
     <use xlink:href="#m8c9f1d6dc2" x="569.225956" y="411.743285" style="fill: #ff0000; stroke: #ff0000"/>
     <use xlink:href="#m8c9f1d6dc2" x="576.911906" y="411.26589" style="fill: #ff0000; stroke: #ff0000"/>
     <use xlink:href="#m8c9f1d6dc2" x="584.597856" y="410.788495" style="fill: #ff0000; stroke: #ff0000"/>
     <use xlink:href="#m8c9f1d6dc2" x="592.283807" y="411.425022" style="fill: #ff0000; stroke: #ff0000"/>
     <use xlink:href="#m8c9f1d6dc2" x="599.969757" y="411.783068" style="fill: #ff0000; stroke: #ff0000"/>
     <use xlink:href="#m8c9f1d6dc2" x="607.655708" y="412.578727" style="fill: #ff0000; stroke: #ff0000"/>
     <use xlink:href="#m8c9f1d6dc2" x="615.341658" y="412.61851" style="fill: #ff0000; stroke: #ff0000"/>
     <use xlink:href="#m8c9f1d6dc2" x="623.027608" y="414.806571" style="fill: #ff0000; stroke: #ff0000"/>
     <use xlink:href="#m8c9f1d6dc2" x="630.713559" y="416.875283" style="fill: #ff0000; stroke: #ff0000"/>
     <use xlink:href="#m8c9f1d6dc2" x="638.399509" y="417.670942" style="fill: #ff0000; stroke: #ff0000"/>
     <use xlink:href="#m8c9f1d6dc2" x="646.08546" y="418.546166" style="fill: #ff0000; stroke: #ff0000"/>
     <use xlink:href="#m8c9f1d6dc2" x="653.77141" y="418.028988" style="fill: #ff0000; stroke: #ff0000"/>
     <use xlink:href="#m8c9f1d6dc2" x="661.457361" y="419.660088" style="fill: #ff0000; stroke: #ff0000"/>
     <use xlink:href="#m8c9f1d6dc2" x="669.143311" y="419.063345" style="fill: #ff0000; stroke: #ff0000"/>
     <use xlink:href="#m8c9f1d6dc2" x="676.829261" y="419.302042" style="fill: #ff0000; stroke: #ff0000"/>
     <use xlink:href="#m8c9f1d6dc2" x="684.515212" y="419.699871" style="fill: #ff0000; stroke: #ff0000"/>
     <use xlink:href="#m8c9f1d6dc2" x="692.201162" y="420.296615" style="fill: #ff0000; stroke: #ff0000"/>
     <use xlink:href="#m8c9f1d6dc2" x="699.887113" y="420.694445" style="fill: #ff0000; stroke: #ff0000"/>
     <use xlink:href="#m8c9f1d6dc2" x="707.573063" y="421.410537" style="fill: #ff0000; stroke: #ff0000"/>
     <use xlink:href="#m8c9f1d6dc2" x="715.259013" y="421.529886" style="fill: #ff0000; stroke: #ff0000"/>
     <use xlink:href="#m8c9f1d6dc2" x="722.944964" y="421.330972" style="fill: #ff0000; stroke: #ff0000"/>
     <use xlink:href="#m8c9f1d6dc2" x="730.630914" y="421.768584" style="fill: #ff0000; stroke: #ff0000"/>
     <use xlink:href="#m8c9f1d6dc2" x="738.316865" y="421.84815" style="fill: #ff0000; stroke: #ff0000"/>
     <use xlink:href="#m8c9f1d6dc2" x="746.002815" y="421.092274" style="fill: #ff0000; stroke: #ff0000"/>
     <use xlink:href="#m8c9f1d6dc2" x="753.688765" y="421.370755" style="fill: #ff0000; stroke: #ff0000"/>
     <use xlink:href="#m8c9f1d6dc2" x="761.374716" y="422.723374" style="fill: #ff0000; stroke: #ff0000"/>
     <use xlink:href="#m8c9f1d6dc2" x="769.060666" y="422.564242" style="fill: #ff0000; stroke: #ff0000"/>
     <use xlink:href="#m8c9f1d6dc2" x="776.746617" y="423.439467" style="fill: #ff0000; stroke: #ff0000"/>
     <use xlink:href="#m8c9f1d6dc2" x="784.432567" y="424.075994" style="fill: #ff0000; stroke: #ff0000"/>
     <use xlink:href="#m8c9f1d6dc2" x="792.118518" y="424.195343" style="fill: #ff0000; stroke: #ff0000"/>
     <use xlink:href="#m8c9f1d6dc2" x="799.804468" y="424.274908" style="fill: #ff0000; stroke: #ff0000"/>
     <use xlink:href="#m8c9f1d6dc2" x="807.490418" y="424.354474" style="fill: #ff0000; stroke: #ff0000"/>
     <use xlink:href="#m8c9f1d6dc2" x="815.176369" y="424.792087" style="fill: #ff0000; stroke: #ff0000"/>
     <use xlink:href="#m8c9f1d6dc2" x="822.862319" y="424.513606" style="fill: #ff0000; stroke: #ff0000"/>
     <use xlink:href="#m8c9f1d6dc2" x="830.54827" y="425.428613" style="fill: #ff0000; stroke: #ff0000"/>
     <use xlink:href="#m8c9f1d6dc2" x="838.23422" y="425.11035" style="fill: #ff0000; stroke: #ff0000"/>
     <use xlink:href="#m8c9f1d6dc2" x="845.92017" y="425.707094" style="fill: #ff0000; stroke: #ff0000"/>
    </g>
   </g>
   <g id="line2d_47">
    <path d="M 845.92017 465.838125 
L 845.92017 22.318125 
" clip-path="url(#pc97ac10e4b)" style="fill: none; stroke-dasharray: 5.55,2.4; stroke-dashoffset: 0; stroke: #008000; stroke-width: 1.5"/>
   </g>
   <g id="line2d_48">
    <path d="M 85.01108 251.219161 
L 92.69703 190.589975 
L 100.38298 203.042032 
L 108.068931 233.55554 
L 115.754881 248.991317 
L 123.440832 271.229975 
L 131.126782 297.208229 
L 138.812732 308.466798 
L 146.498683 314.792284 
L 154.184633 336.59333 
L 161.870584 346.578845 
L 169.556534 353.898904 
L 177.242485 360.860917 
L 184.928435 361.616793 
L 192.614385 374.586028 
L 200.300336 384.412412 
L 207.986286 388.231573 
L 215.672237 395.233369 
L 223.358187 402.394297 
L 231.044137 405.97476 
L 238.730088 405.815629 
L 246.416038 409.316527 
L 254.101989 411.663719 
L 261.787939 414.368959 
L 269.473889 418.18812 
L 277.15984 421.529886 
L 284.84579 422.842723 
L 292.531741 424.314691 
L 300.217691 423.001855 
L 307.903642 424.473823 
L 315.589592 423.956645 
L 323.275542 425.587745 
L 330.961493 426.06514 
L 338.647443 428.412333 
L 346.333394 428.651031 
L 354.019344 430.560611 
L 361.705294 431.157355 
L 369.391245 431.594968 
L 377.077195 431.833665 
L 384.763146 432.231495 
L 392.449096 432.828238 
L 400.135046 433.226068 
L 407.820997 432.828238 
L 415.506947 433.146502 
L 423.192898 433.305634 
L 430.878848 433.822812 
L 438.564799 433.385199 
L 446.250749 433.027153 
L 453.936699 432.947587 
L 461.62265 433.385199 
L 469.3086 433.743246 
L 476.994551 434.538904 
L 484.680501 434.379773 
L 492.366451 434.698036 
L 500.052402 434.300207 
L 507.738352 434.61847 
L 515.424303 435.334563 
L 523.110253 435.493695 
L 530.796204 435.931307 
L 538.482154 435.811958 
L 546.168104 435.772175 
L 553.854055 435.811958 
L 561.540005 435.891524 
L 569.225956 435.772175 
L 576.911906 435.732392 
L 584.597856 435.931307 
L 592.283807 436.050656 
L 599.969757 435.97109 
L 607.655708 435.772175 
L 615.341658 435.97109 
L 623.027608 436.209788 
L 630.713559 436.289353 
L 638.399509 436.488268 
L 646.08546 436.806532 
L 653.77141 436.766749 
L 661.457361 436.806532 
L 669.143311 436.766749 
L 676.829261 436.726966 
L 684.515212 436.766749 
L 692.201162 436.92588 
L 699.887113 436.806532 
L 707.573063 436.92588 
L 715.259013 436.726966 
L 722.944964 436.806532 
L 730.630914 436.567834 
L 738.316865 436.607617 
L 746.002815 436.687183 
L 753.688765 436.806532 
L 761.374716 436.846314 
L 769.060666 436.766749 
L 776.746617 436.766749 
L 784.432567 436.766749 
L 792.118518 436.886097 
L 799.804468 436.965663 
L 807.490418 437.085012 
L 815.176369 437.085012 
L 822.862319 437.085012 
L 830.54827 437.085012 
L 838.23422 437.045229 
L 845.92017 437.164578 
" clip-path="url(#pc97ac10e4b)" style="fill: none; stroke: #008000; stroke-width: 1.5; stroke-linecap: square"/>
    <defs>
     <path id="m31fa0c70cf" d="M 0 3 
C 0.795609 3 1.55874 2.683901 2.12132 2.12132 
C 2.683901 1.55874 3 0.795609 3 0 
C 3 -0.795609 2.683901 -1.55874 2.12132 -2.12132 
C 1.55874 -2.683901 0.795609 -3 0 -3 
C -0.795609 -3 -1.55874 -2.683901 -2.12132 -2.12132 
C -2.683901 -1.55874 -3 -0.795609 -3 0 
C -3 0.795609 -2.683901 1.55874 -2.12132 2.12132 
C -1.55874 2.683901 -0.795609 3 0 3 
z
" style="stroke: #008000"/>
    </defs>
    <g clip-path="url(#pc97ac10e4b)">
     <use xlink:href="#m31fa0c70cf" x="85.01108" y="251.219161" style="fill: #008000; stroke: #008000"/>
     <use xlink:href="#m31fa0c70cf" x="92.69703" y="190.589975" style="fill: #008000; stroke: #008000"/>
     <use xlink:href="#m31fa0c70cf" x="100.38298" y="203.042032" style="fill: #008000; stroke: #008000"/>
     <use xlink:href="#m31fa0c70cf" x="108.068931" y="233.55554" style="fill: #008000; stroke: #008000"/>
     <use xlink:href="#m31fa0c70cf" x="115.754881" y="248.991317" style="fill: #008000; stroke: #008000"/>
     <use xlink:href="#m31fa0c70cf" x="123.440832" y="271.229975" style="fill: #008000; stroke: #008000"/>
     <use xlink:href="#m31fa0c70cf" x="131.126782" y="297.208229" style="fill: #008000; stroke: #008000"/>
     <use xlink:href="#m31fa0c70cf" x="138.812732" y="308.466798" style="fill: #008000; stroke: #008000"/>
     <use xlink:href="#m31fa0c70cf" x="146.498683" y="314.792284" style="fill: #008000; stroke: #008000"/>
     <use xlink:href="#m31fa0c70cf" x="154.184633" y="336.59333" style="fill: #008000; stroke: #008000"/>
     <use xlink:href="#m31fa0c70cf" x="161.870584" y="346.578845" style="fill: #008000; stroke: #008000"/>
     <use xlink:href="#m31fa0c70cf" x="169.556534" y="353.898904" style="fill: #008000; stroke: #008000"/>
     <use xlink:href="#m31fa0c70cf" x="177.242485" y="360.860917" style="fill: #008000; stroke: #008000"/>
     <use xlink:href="#m31fa0c70cf" x="184.928435" y="361.616793" style="fill: #008000; stroke: #008000"/>
     <use xlink:href="#m31fa0c70cf" x="192.614385" y="374.586028" style="fill: #008000; stroke: #008000"/>
     <use xlink:href="#m31fa0c70cf" x="200.300336" y="384.412412" style="fill: #008000; stroke: #008000"/>
     <use xlink:href="#m31fa0c70cf" x="207.986286" y="388.231573" style="fill: #008000; stroke: #008000"/>
     <use xlink:href="#m31fa0c70cf" x="215.672237" y="395.233369" style="fill: #008000; stroke: #008000"/>
     <use xlink:href="#m31fa0c70cf" x="223.358187" y="402.394297" style="fill: #008000; stroke: #008000"/>
     <use xlink:href="#m31fa0c70cf" x="231.044137" y="405.97476" style="fill: #008000; stroke: #008000"/>
     <use xlink:href="#m31fa0c70cf" x="238.730088" y="405.815629" style="fill: #008000; stroke: #008000"/>
     <use xlink:href="#m31fa0c70cf" x="246.416038" y="409.316527" style="fill: #008000; stroke: #008000"/>
     <use xlink:href="#m31fa0c70cf" x="254.101989" y="411.663719" style="fill: #008000; stroke: #008000"/>
     <use xlink:href="#m31fa0c70cf" x="261.787939" y="414.368959" style="fill: #008000; stroke: #008000"/>
     <use xlink:href="#m31fa0c70cf" x="269.473889" y="418.18812" style="fill: #008000; stroke: #008000"/>
     <use xlink:href="#m31fa0c70cf" x="277.15984" y="421.529886" style="fill: #008000; stroke: #008000"/>
     <use xlink:href="#m31fa0c70cf" x="284.84579" y="422.842723" style="fill: #008000; stroke: #008000"/>
     <use xlink:href="#m31fa0c70cf" x="292.531741" y="424.314691" style="fill: #008000; stroke: #008000"/>
     <use xlink:href="#m31fa0c70cf" x="300.217691" y="423.001855" style="fill: #008000; stroke: #008000"/>
     <use xlink:href="#m31fa0c70cf" x="307.903642" y="424.473823" style="fill: #008000; stroke: #008000"/>
     <use xlink:href="#m31fa0c70cf" x="315.589592" y="423.956645" style="fill: #008000; stroke: #008000"/>
     <use xlink:href="#m31fa0c70cf" x="323.275542" y="425.587745" style="fill: #008000; stroke: #008000"/>
     <use xlink:href="#m31fa0c70cf" x="330.961493" y="426.06514" style="fill: #008000; stroke: #008000"/>
     <use xlink:href="#m31fa0c70cf" x="338.647443" y="428.412333" style="fill: #008000; stroke: #008000"/>
     <use xlink:href="#m31fa0c70cf" x="346.333394" y="428.651031" style="fill: #008000; stroke: #008000"/>
     <use xlink:href="#m31fa0c70cf" x="354.019344" y="430.560611" style="fill: #008000; stroke: #008000"/>
     <use xlink:href="#m31fa0c70cf" x="361.705294" y="431.157355" style="fill: #008000; stroke: #008000"/>
     <use xlink:href="#m31fa0c70cf" x="369.391245" y="431.594968" style="fill: #008000; stroke: #008000"/>
     <use xlink:href="#m31fa0c70cf" x="377.077195" y="431.833665" style="fill: #008000; stroke: #008000"/>
     <use xlink:href="#m31fa0c70cf" x="384.763146" y="432.231495" style="fill: #008000; stroke: #008000"/>
     <use xlink:href="#m31fa0c70cf" x="392.449096" y="432.828238" style="fill: #008000; stroke: #008000"/>
     <use xlink:href="#m31fa0c70cf" x="400.135046" y="433.226068" style="fill: #008000; stroke: #008000"/>
     <use xlink:href="#m31fa0c70cf" x="407.820997" y="432.828238" style="fill: #008000; stroke: #008000"/>
     <use xlink:href="#m31fa0c70cf" x="415.506947" y="433.146502" style="fill: #008000; stroke: #008000"/>
     <use xlink:href="#m31fa0c70cf" x="423.192898" y="433.305634" style="fill: #008000; stroke: #008000"/>
     <use xlink:href="#m31fa0c70cf" x="430.878848" y="433.822812" style="fill: #008000; stroke: #008000"/>
     <use xlink:href="#m31fa0c70cf" x="438.564799" y="433.385199" style="fill: #008000; stroke: #008000"/>
     <use xlink:href="#m31fa0c70cf" x="446.250749" y="433.027153" style="fill: #008000; stroke: #008000"/>
     <use xlink:href="#m31fa0c70cf" x="453.936699" y="432.947587" style="fill: #008000; stroke: #008000"/>
     <use xlink:href="#m31fa0c70cf" x="461.62265" y="433.385199" style="fill: #008000; stroke: #008000"/>
     <use xlink:href="#m31fa0c70cf" x="469.3086" y="433.743246" style="fill: #008000; stroke: #008000"/>
     <use xlink:href="#m31fa0c70cf" x="476.994551" y="434.538904" style="fill: #008000; stroke: #008000"/>
     <use xlink:href="#m31fa0c70cf" x="484.680501" y="434.379773" style="fill: #008000; stroke: #008000"/>
     <use xlink:href="#m31fa0c70cf" x="492.366451" y="434.698036" style="fill: #008000; stroke: #008000"/>
     <use xlink:href="#m31fa0c70cf" x="500.052402" y="434.300207" style="fill: #008000; stroke: #008000"/>
     <use xlink:href="#m31fa0c70cf" x="507.738352" y="434.61847" style="fill: #008000; stroke: #008000"/>
     <use xlink:href="#m31fa0c70cf" x="515.424303" y="435.334563" style="fill: #008000; stroke: #008000"/>
     <use xlink:href="#m31fa0c70cf" x="523.110253" y="435.493695" style="fill: #008000; stroke: #008000"/>
     <use xlink:href="#m31fa0c70cf" x="530.796204" y="435.931307" style="fill: #008000; stroke: #008000"/>
     <use xlink:href="#m31fa0c70cf" x="538.482154" y="435.811958" style="fill: #008000; stroke: #008000"/>
     <use xlink:href="#m31fa0c70cf" x="546.168104" y="435.772175" style="fill: #008000; stroke: #008000"/>
     <use xlink:href="#m31fa0c70cf" x="553.854055" y="435.811958" style="fill: #008000; stroke: #008000"/>
     <use xlink:href="#m31fa0c70cf" x="561.540005" y="435.891524" style="fill: #008000; stroke: #008000"/>
     <use xlink:href="#m31fa0c70cf" x="569.225956" y="435.772175" style="fill: #008000; stroke: #008000"/>
     <use xlink:href="#m31fa0c70cf" x="576.911906" y="435.732392" style="fill: #008000; stroke: #008000"/>
     <use xlink:href="#m31fa0c70cf" x="584.597856" y="435.931307" style="fill: #008000; stroke: #008000"/>
     <use xlink:href="#m31fa0c70cf" x="592.283807" y="436.050656" style="fill: #008000; stroke: #008000"/>
     <use xlink:href="#m31fa0c70cf" x="599.969757" y="435.97109" style="fill: #008000; stroke: #008000"/>
     <use xlink:href="#m31fa0c70cf" x="607.655708" y="435.772175" style="fill: #008000; stroke: #008000"/>
     <use xlink:href="#m31fa0c70cf" x="615.341658" y="435.97109" style="fill: #008000; stroke: #008000"/>
     <use xlink:href="#m31fa0c70cf" x="623.027608" y="436.209788" style="fill: #008000; stroke: #008000"/>
     <use xlink:href="#m31fa0c70cf" x="630.713559" y="436.289353" style="fill: #008000; stroke: #008000"/>
     <use xlink:href="#m31fa0c70cf" x="638.399509" y="436.488268" style="fill: #008000; stroke: #008000"/>
     <use xlink:href="#m31fa0c70cf" x="646.08546" y="436.806532" style="fill: #008000; stroke: #008000"/>
     <use xlink:href="#m31fa0c70cf" x="653.77141" y="436.766749" style="fill: #008000; stroke: #008000"/>
     <use xlink:href="#m31fa0c70cf" x="661.457361" y="436.806532" style="fill: #008000; stroke: #008000"/>
     <use xlink:href="#m31fa0c70cf" x="669.143311" y="436.766749" style="fill: #008000; stroke: #008000"/>
     <use xlink:href="#m31fa0c70cf" x="676.829261" y="436.726966" style="fill: #008000; stroke: #008000"/>
     <use xlink:href="#m31fa0c70cf" x="684.515212" y="436.766749" style="fill: #008000; stroke: #008000"/>
     <use xlink:href="#m31fa0c70cf" x="692.201162" y="436.92588" style="fill: #008000; stroke: #008000"/>
     <use xlink:href="#m31fa0c70cf" x="699.887113" y="436.806532" style="fill: #008000; stroke: #008000"/>
     <use xlink:href="#m31fa0c70cf" x="707.573063" y="436.92588" style="fill: #008000; stroke: #008000"/>
     <use xlink:href="#m31fa0c70cf" x="715.259013" y="436.726966" style="fill: #008000; stroke: #008000"/>
     <use xlink:href="#m31fa0c70cf" x="722.944964" y="436.806532" style="fill: #008000; stroke: #008000"/>
     <use xlink:href="#m31fa0c70cf" x="730.630914" y="436.567834" style="fill: #008000; stroke: #008000"/>
     <use xlink:href="#m31fa0c70cf" x="738.316865" y="436.607617" style="fill: #008000; stroke: #008000"/>
     <use xlink:href="#m31fa0c70cf" x="746.002815" y="436.687183" style="fill: #008000; stroke: #008000"/>
     <use xlink:href="#m31fa0c70cf" x="753.688765" y="436.806532" style="fill: #008000; stroke: #008000"/>
     <use xlink:href="#m31fa0c70cf" x="761.374716" y="436.846314" style="fill: #008000; stroke: #008000"/>
     <use xlink:href="#m31fa0c70cf" x="769.060666" y="436.766749" style="fill: #008000; stroke: #008000"/>
     <use xlink:href="#m31fa0c70cf" x="776.746617" y="436.766749" style="fill: #008000; stroke: #008000"/>
     <use xlink:href="#m31fa0c70cf" x="784.432567" y="436.766749" style="fill: #008000; stroke: #008000"/>
     <use xlink:href="#m31fa0c70cf" x="792.118518" y="436.886097" style="fill: #008000; stroke: #008000"/>
     <use xlink:href="#m31fa0c70cf" x="799.804468" y="436.965663" style="fill: #008000; stroke: #008000"/>
     <use xlink:href="#m31fa0c70cf" x="807.490418" y="437.085012" style="fill: #008000; stroke: #008000"/>
     <use xlink:href="#m31fa0c70cf" x="815.176369" y="437.085012" style="fill: #008000; stroke: #008000"/>
     <use xlink:href="#m31fa0c70cf" x="822.862319" y="437.085012" style="fill: #008000; stroke: #008000"/>
     <use xlink:href="#m31fa0c70cf" x="830.54827" y="437.085012" style="fill: #008000; stroke: #008000"/>
     <use xlink:href="#m31fa0c70cf" x="838.23422" y="437.045229" style="fill: #008000; stroke: #008000"/>
     <use xlink:href="#m31fa0c70cf" x="845.92017" y="437.164578" style="fill: #008000; stroke: #008000"/>
    </g>
   </g>
   <g id="line2d_49">
    <path d="M 123.440832 465.838125 
L 123.440832 22.318125 
" clip-path="url(#pc97ac10e4b)" style="fill: none; stroke-dasharray: 5.55,2.4; stroke-dashoffset: 0; stroke: #0000ff; stroke-width: 1.5"/>
   </g>
   <g id="line2d_50">
    <path d="M 85.01108 342.680118 
L 92.69703 408.600434 
L 100.38298 428.969294 
L 108.068931 437.761322 
L 115.754881 441.222437 
L 123.440832 443.728761 
L 131.126782 444.962032 
L 138.812732 445.518993 
L 146.498683 445.558776 
L 154.184633 445.678125 
L 161.870584 445.678125 
L 169.556534 445.678125 
L 177.242485 445.678125 
L 184.928435 445.678125 
L 192.614385 445.678125 
L 200.300336 445.678125 
L 207.986286 445.678125 
L 215.672237 445.678125 
L 223.358187 445.678125 
L 231.044137 445.678125 
L 238.730088 445.678125 
L 246.416038 445.678125 
L 254.101989 445.678125 
L 261.787939 445.678125 
L 269.473889 445.678125 
L 277.15984 445.678125 
L 284.84579 445.678125 
L 292.531741 445.678125 
L 300.217691 445.678125 
L 307.903642 445.678125 
L 315.589592 445.678125 
L 323.275542 445.678125 
L 330.961493 445.678125 
L 338.647443 445.678125 
L 346.333394 445.678125 
L 354.019344 445.678125 
L 361.705294 445.678125 
L 369.391245 445.678125 
L 377.077195 445.678125 
L 384.763146 445.678125 
L 392.449096 445.678125 
L 400.135046 445.678125 
L 407.820997 445.678125 
L 415.506947 445.678125 
L 423.192898 445.678125 
L 430.878848 445.678125 
L 438.564799 445.678125 
L 446.250749 445.678125 
L 453.936699 445.678125 
L 461.62265 445.678125 
L 469.3086 445.678125 
L 476.994551 445.678125 
L 484.680501 445.678125 
L 492.366451 445.678125 
L 500.052402 445.678125 
L 507.738352 445.678125 
L 515.424303 445.678125 
L 523.110253 445.678125 
L 530.796204 445.678125 
L 538.482154 445.678125 
L 546.168104 445.678125 
L 553.854055 445.678125 
L 561.540005 445.678125 
L 569.225956 445.678125 
L 576.911906 445.678125 
L 584.597856 445.678125 
L 592.283807 445.678125 
L 599.969757 445.678125 
L 607.655708 445.678125 
L 615.341658 445.678125 
L 623.027608 445.678125 
L 630.713559 445.678125 
L 638.399509 445.678125 
L 646.08546 445.678125 
L 653.77141 445.678125 
L 661.457361 445.678125 
L 669.143311 445.678125 
L 676.829261 445.678125 
L 684.515212 445.678125 
L 692.201162 445.678125 
L 699.887113 445.678125 
L 707.573063 445.678125 
L 715.259013 445.678125 
L 722.944964 445.678125 
L 730.630914 445.678125 
L 738.316865 445.678125 
L 746.002815 445.678125 
L 753.688765 445.678125 
L 761.374716 445.678125 
L 769.060666 445.678125 
L 776.746617 445.678125 
L 784.432567 445.678125 
L 792.118518 445.678125 
L 799.804468 445.678125 
L 807.490418 445.678125 
L 815.176369 445.678125 
L 822.862319 445.678125 
L 830.54827 445.678125 
L 838.23422 445.678125 
L 845.92017 445.678125 
" clip-path="url(#pc97ac10e4b)" style="fill: none; stroke: #0000ff; stroke-width: 1.5; stroke-linecap: square"/>
    <defs>
     <path id="mec7541af3f" d="M 0 3 
C 0.795609 3 1.55874 2.683901 2.12132 2.12132 
C 2.683901 1.55874 3 0.795609 3 0 
C 3 -0.795609 2.683901 -1.55874 2.12132 -2.12132 
C 1.55874 -2.683901 0.795609 -3 0 -3 
C -0.795609 -3 -1.55874 -2.683901 -2.12132 -2.12132 
C -2.683901 -1.55874 -3 -0.795609 -3 0 
C -3 0.795609 -2.683901 1.55874 -2.12132 2.12132 
C -1.55874 2.683901 -0.795609 3 0 3 
z
" style="stroke: #0000ff"/>
    </defs>
    <g clip-path="url(#pc97ac10e4b)">
     <use xlink:href="#mec7541af3f" x="85.01108" y="342.680118" style="fill: #0000ff; stroke: #0000ff"/>
     <use xlink:href="#mec7541af3f" x="92.69703" y="408.600434" style="fill: #0000ff; stroke: #0000ff"/>
     <use xlink:href="#mec7541af3f" x="100.38298" y="428.969294" style="fill: #0000ff; stroke: #0000ff"/>
     <use xlink:href="#mec7541af3f" x="108.068931" y="437.761322" style="fill: #0000ff; stroke: #0000ff"/>
     <use xlink:href="#mec7541af3f" x="115.754881" y="441.222437" style="fill: #0000ff; stroke: #0000ff"/>
     <use xlink:href="#mec7541af3f" x="123.440832" y="443.728761" style="fill: #0000ff; stroke: #0000ff"/>
     <use xlink:href="#mec7541af3f" x="131.126782" y="444.962032" style="fill: #0000ff; stroke: #0000ff"/>
     <use xlink:href="#mec7541af3f" x="138.812732" y="445.518993" style="fill: #0000ff; stroke: #0000ff"/>
     <use xlink:href="#mec7541af3f" x="146.498683" y="445.558776" style="fill: #0000ff; stroke: #0000ff"/>
     <use xlink:href="#mec7541af3f" x="154.184633" y="445.678125" style="fill: #0000ff; stroke: #0000ff"/>
     <use xlink:href="#mec7541af3f" x="161.870584" y="445.678125" style="fill: #0000ff; stroke: #0000ff"/>
     <use xlink:href="#mec7541af3f" x="169.556534" y="445.678125" style="fill: #0000ff; stroke: #0000ff"/>
     <use xlink:href="#mec7541af3f" x="177.242485" y="445.678125" style="fill: #0000ff; stroke: #0000ff"/>
     <use xlink:href="#mec7541af3f" x="184.928435" y="445.678125" style="fill: #0000ff; stroke: #0000ff"/>
     <use xlink:href="#mec7541af3f" x="192.614385" y="445.678125" style="fill: #0000ff; stroke: #0000ff"/>
     <use xlink:href="#mec7541af3f" x="200.300336" y="445.678125" style="fill: #0000ff; stroke: #0000ff"/>
     <use xlink:href="#mec7541af3f" x="207.986286" y="445.678125" style="fill: #0000ff; stroke: #0000ff"/>
     <use xlink:href="#mec7541af3f" x="215.672237" y="445.678125" style="fill: #0000ff; stroke: #0000ff"/>
     <use xlink:href="#mec7541af3f" x="223.358187" y="445.678125" style="fill: #0000ff; stroke: #0000ff"/>
     <use xlink:href="#mec7541af3f" x="231.044137" y="445.678125" style="fill: #0000ff; stroke: #0000ff"/>
     <use xlink:href="#mec7541af3f" x="238.730088" y="445.678125" style="fill: #0000ff; stroke: #0000ff"/>
     <use xlink:href="#mec7541af3f" x="246.416038" y="445.678125" style="fill: #0000ff; stroke: #0000ff"/>
     <use xlink:href="#mec7541af3f" x="254.101989" y="445.678125" style="fill: #0000ff; stroke: #0000ff"/>
     <use xlink:href="#mec7541af3f" x="261.787939" y="445.678125" style="fill: #0000ff; stroke: #0000ff"/>
     <use xlink:href="#mec7541af3f" x="269.473889" y="445.678125" style="fill: #0000ff; stroke: #0000ff"/>
     <use xlink:href="#mec7541af3f" x="277.15984" y="445.678125" style="fill: #0000ff; stroke: #0000ff"/>
     <use xlink:href="#mec7541af3f" x="284.84579" y="445.678125" style="fill: #0000ff; stroke: #0000ff"/>
     <use xlink:href="#mec7541af3f" x="292.531741" y="445.678125" style="fill: #0000ff; stroke: #0000ff"/>
     <use xlink:href="#mec7541af3f" x="300.217691" y="445.678125" style="fill: #0000ff; stroke: #0000ff"/>
     <use xlink:href="#mec7541af3f" x="307.903642" y="445.678125" style="fill: #0000ff; stroke: #0000ff"/>
     <use xlink:href="#mec7541af3f" x="315.589592" y="445.678125" style="fill: #0000ff; stroke: #0000ff"/>
     <use xlink:href="#mec7541af3f" x="323.275542" y="445.678125" style="fill: #0000ff; stroke: #0000ff"/>
     <use xlink:href="#mec7541af3f" x="330.961493" y="445.678125" style="fill: #0000ff; stroke: #0000ff"/>
     <use xlink:href="#mec7541af3f" x="338.647443" y="445.678125" style="fill: #0000ff; stroke: #0000ff"/>
     <use xlink:href="#mec7541af3f" x="346.333394" y="445.678125" style="fill: #0000ff; stroke: #0000ff"/>
     <use xlink:href="#mec7541af3f" x="354.019344" y="445.678125" style="fill: #0000ff; stroke: #0000ff"/>
     <use xlink:href="#mec7541af3f" x="361.705294" y="445.678125" style="fill: #0000ff; stroke: #0000ff"/>
     <use xlink:href="#mec7541af3f" x="369.391245" y="445.678125" style="fill: #0000ff; stroke: #0000ff"/>
     <use xlink:href="#mec7541af3f" x="377.077195" y="445.678125" style="fill: #0000ff; stroke: #0000ff"/>
     <use xlink:href="#mec7541af3f" x="384.763146" y="445.678125" style="fill: #0000ff; stroke: #0000ff"/>
     <use xlink:href="#mec7541af3f" x="392.449096" y="445.678125" style="fill: #0000ff; stroke: #0000ff"/>
     <use xlink:href="#mec7541af3f" x="400.135046" y="445.678125" style="fill: #0000ff; stroke: #0000ff"/>
     <use xlink:href="#mec7541af3f" x="407.820997" y="445.678125" style="fill: #0000ff; stroke: #0000ff"/>
     <use xlink:href="#mec7541af3f" x="415.506947" y="445.678125" style="fill: #0000ff; stroke: #0000ff"/>
     <use xlink:href="#mec7541af3f" x="423.192898" y="445.678125" style="fill: #0000ff; stroke: #0000ff"/>
     <use xlink:href="#mec7541af3f" x="430.878848" y="445.678125" style="fill: #0000ff; stroke: #0000ff"/>
     <use xlink:href="#mec7541af3f" x="438.564799" y="445.678125" style="fill: #0000ff; stroke: #0000ff"/>
     <use xlink:href="#mec7541af3f" x="446.250749" y="445.678125" style="fill: #0000ff; stroke: #0000ff"/>
     <use xlink:href="#mec7541af3f" x="453.936699" y="445.678125" style="fill: #0000ff; stroke: #0000ff"/>
     <use xlink:href="#mec7541af3f" x="461.62265" y="445.678125" style="fill: #0000ff; stroke: #0000ff"/>
     <use xlink:href="#mec7541af3f" x="469.3086" y="445.678125" style="fill: #0000ff; stroke: #0000ff"/>
     <use xlink:href="#mec7541af3f" x="476.994551" y="445.678125" style="fill: #0000ff; stroke: #0000ff"/>
     <use xlink:href="#mec7541af3f" x="484.680501" y="445.678125" style="fill: #0000ff; stroke: #0000ff"/>
     <use xlink:href="#mec7541af3f" x="492.366451" y="445.678125" style="fill: #0000ff; stroke: #0000ff"/>
     <use xlink:href="#mec7541af3f" x="500.052402" y="445.678125" style="fill: #0000ff; stroke: #0000ff"/>
     <use xlink:href="#mec7541af3f" x="507.738352" y="445.678125" style="fill: #0000ff; stroke: #0000ff"/>
     <use xlink:href="#mec7541af3f" x="515.424303" y="445.678125" style="fill: #0000ff; stroke: #0000ff"/>
     <use xlink:href="#mec7541af3f" x="523.110253" y="445.678125" style="fill: #0000ff; stroke: #0000ff"/>
     <use xlink:href="#mec7541af3f" x="530.796204" y="445.678125" style="fill: #0000ff; stroke: #0000ff"/>
     <use xlink:href="#mec7541af3f" x="538.482154" y="445.678125" style="fill: #0000ff; stroke: #0000ff"/>
     <use xlink:href="#mec7541af3f" x="546.168104" y="445.678125" style="fill: #0000ff; stroke: #0000ff"/>
     <use xlink:href="#mec7541af3f" x="553.854055" y="445.678125" style="fill: #0000ff; stroke: #0000ff"/>
     <use xlink:href="#mec7541af3f" x="561.540005" y="445.678125" style="fill: #0000ff; stroke: #0000ff"/>
     <use xlink:href="#mec7541af3f" x="569.225956" y="445.678125" style="fill: #0000ff; stroke: #0000ff"/>
     <use xlink:href="#mec7541af3f" x="576.911906" y="445.678125" style="fill: #0000ff; stroke: #0000ff"/>
     <use xlink:href="#mec7541af3f" x="584.597856" y="445.678125" style="fill: #0000ff; stroke: #0000ff"/>
     <use xlink:href="#mec7541af3f" x="592.283807" y="445.678125" style="fill: #0000ff; stroke: #0000ff"/>
     <use xlink:href="#mec7541af3f" x="599.969757" y="445.678125" style="fill: #0000ff; stroke: #0000ff"/>
     <use xlink:href="#mec7541af3f" x="607.655708" y="445.678125" style="fill: #0000ff; stroke: #0000ff"/>
     <use xlink:href="#mec7541af3f" x="615.341658" y="445.678125" style="fill: #0000ff; stroke: #0000ff"/>
     <use xlink:href="#mec7541af3f" x="623.027608" y="445.678125" style="fill: #0000ff; stroke: #0000ff"/>
     <use xlink:href="#mec7541af3f" x="630.713559" y="445.678125" style="fill: #0000ff; stroke: #0000ff"/>
     <use xlink:href="#mec7541af3f" x="638.399509" y="445.678125" style="fill: #0000ff; stroke: #0000ff"/>
     <use xlink:href="#mec7541af3f" x="646.08546" y="445.678125" style="fill: #0000ff; stroke: #0000ff"/>
     <use xlink:href="#mec7541af3f" x="653.77141" y="445.678125" style="fill: #0000ff; stroke: #0000ff"/>
     <use xlink:href="#mec7541af3f" x="661.457361" y="445.678125" style="fill: #0000ff; stroke: #0000ff"/>
     <use xlink:href="#mec7541af3f" x="669.143311" y="445.678125" style="fill: #0000ff; stroke: #0000ff"/>
     <use xlink:href="#mec7541af3f" x="676.829261" y="445.678125" style="fill: #0000ff; stroke: #0000ff"/>
     <use xlink:href="#mec7541af3f" x="684.515212" y="445.678125" style="fill: #0000ff; stroke: #0000ff"/>
     <use xlink:href="#mec7541af3f" x="692.201162" y="445.678125" style="fill: #0000ff; stroke: #0000ff"/>
     <use xlink:href="#mec7541af3f" x="699.887113" y="445.678125" style="fill: #0000ff; stroke: #0000ff"/>
     <use xlink:href="#mec7541af3f" x="707.573063" y="445.678125" style="fill: #0000ff; stroke: #0000ff"/>
     <use xlink:href="#mec7541af3f" x="715.259013" y="445.678125" style="fill: #0000ff; stroke: #0000ff"/>
     <use xlink:href="#mec7541af3f" x="722.944964" y="445.678125" style="fill: #0000ff; stroke: #0000ff"/>
     <use xlink:href="#mec7541af3f" x="730.630914" y="445.678125" style="fill: #0000ff; stroke: #0000ff"/>
     <use xlink:href="#mec7541af3f" x="738.316865" y="445.678125" style="fill: #0000ff; stroke: #0000ff"/>
     <use xlink:href="#mec7541af3f" x="746.002815" y="445.678125" style="fill: #0000ff; stroke: #0000ff"/>
     <use xlink:href="#mec7541af3f" x="753.688765" y="445.678125" style="fill: #0000ff; stroke: #0000ff"/>
     <use xlink:href="#mec7541af3f" x="761.374716" y="445.678125" style="fill: #0000ff; stroke: #0000ff"/>
     <use xlink:href="#mec7541af3f" x="769.060666" y="445.678125" style="fill: #0000ff; stroke: #0000ff"/>
     <use xlink:href="#mec7541af3f" x="776.746617" y="445.678125" style="fill: #0000ff; stroke: #0000ff"/>
     <use xlink:href="#mec7541af3f" x="784.432567" y="445.678125" style="fill: #0000ff; stroke: #0000ff"/>
     <use xlink:href="#mec7541af3f" x="792.118518" y="445.678125" style="fill: #0000ff; stroke: #0000ff"/>
     <use xlink:href="#mec7541af3f" x="799.804468" y="445.678125" style="fill: #0000ff; stroke: #0000ff"/>
     <use xlink:href="#mec7541af3f" x="807.490418" y="445.678125" style="fill: #0000ff; stroke: #0000ff"/>
     <use xlink:href="#mec7541af3f" x="815.176369" y="445.678125" style="fill: #0000ff; stroke: #0000ff"/>
     <use xlink:href="#mec7541af3f" x="822.862319" y="445.678125" style="fill: #0000ff; stroke: #0000ff"/>
     <use xlink:href="#mec7541af3f" x="830.54827" y="445.678125" style="fill: #0000ff; stroke: #0000ff"/>
     <use xlink:href="#mec7541af3f" x="838.23422" y="445.678125" style="fill: #0000ff; stroke: #0000ff"/>
     <use xlink:href="#mec7541af3f" x="845.92017" y="445.678125" style="fill: #0000ff; stroke: #0000ff"/>
    </g>
   </g>
   <g id="patch_3">
    <path d="M 46.965625 465.838125 
L 46.965625 22.318125 
" style="fill: none; stroke: #000000; stroke-width: 0.8; stroke-linejoin: miter; stroke-linecap: square"/>
   </g>
   <g id="patch_4">
    <path d="M 883.965625 465.838125 
L 883.965625 22.318125 
" style="fill: none; stroke: #000000; stroke-width: 0.8; stroke-linejoin: miter; stroke-linecap: square"/>
   </g>
   <g id="patch_5">
    <path d="M 46.965625 465.838125 
L 883.965625 465.838125 
" style="fill: none; stroke: #000000; stroke-width: 0.8; stroke-linejoin: miter; stroke-linecap: square"/>
   </g>
   <g id="patch_6">
    <path d="M 46.965625 22.318125 
L 883.965625 22.318125 
" style="fill: none; stroke: #000000; stroke-width: 0.8; stroke-linejoin: miter; stroke-linecap: square"/>
   </g>
   <g id="text_25">
    <!-- Guessing Entropy -->
    <g transform="translate(412.576563 16.318125) scale(0.12 -0.12)">
     <defs>
      <path id="DejaVuSans-69" d="M 603 3500 
L 1178 3500 
L 1178 0 
L 603 0 
L 603 3500 
z
M 603 4863 
L 1178 4863 
L 1178 4134 
L 603 4134 
L 603 4863 
z
" transform="scale(0.015625)"/>
      <path id="DejaVuSans-6e" d="M 3513 2113 
L 3513 0 
L 2938 0 
L 2938 2094 
Q 2938 2591 2744 2837 
Q 2550 3084 2163 3084 
Q 1697 3084 1428 2787 
Q 1159 2491 1159 1978 
L 1159 0 
L 581 0 
L 581 3500 
L 1159 3500 
L 1159 2956 
Q 1366 3272 1645 3428 
Q 1925 3584 2291 3584 
Q 2894 3584 3203 3211 
Q 3513 2838 3513 2113 
z
" transform="scale(0.015625)"/>
      <path id="DejaVuSans-67" d="M 2906 1791 
Q 2906 2416 2648 2759 
Q 2391 3103 1925 3103 
Q 1463 3103 1205 2759 
Q 947 2416 947 1791 
Q 947 1169 1205 825 
Q 1463 481 1925 481 
Q 2391 481 2648 825 
Q 2906 1169 2906 1791 
z
M 3481 434 
Q 3481 -459 3084 -895 
Q 2688 -1331 1869 -1331 
Q 1566 -1331 1297 -1286 
Q 1028 -1241 775 -1147 
L 775 -588 
Q 1028 -725 1275 -790 
Q 1522 -856 1778 -856 
Q 2344 -856 2625 -561 
Q 2906 -266 2906 331 
L 2906 616 
Q 2728 306 2450 153 
Q 2172 0 1784 0 
Q 1141 0 747 490 
Q 353 981 353 1791 
Q 353 2603 747 3093 
Q 1141 3584 1784 3584 
Q 2172 3584 2450 3431 
Q 2728 3278 2906 2969 
L 2906 3500 
L 3481 3500 
L 3481 434 
z
" transform="scale(0.015625)"/>
      <path id="DejaVuSans-70" d="M 1159 525 
L 1159 -1331 
L 581 -1331 
L 581 3500 
L 1159 3500 
L 1159 2969 
Q 1341 3281 1617 3432 
Q 1894 3584 2278 3584 
Q 2916 3584 3314 3078 
Q 3713 2572 3713 1747 
Q 3713 922 3314 415 
Q 2916 -91 2278 -91 
Q 1894 -91 1617 61 
Q 1341 213 1159 525 
z
M 3116 1747 
Q 3116 2381 2855 2742 
Q 2594 3103 2138 3103 
Q 1681 3103 1420 2742 
Q 1159 2381 1159 1747 
Q 1159 1113 1420 752 
Q 1681 391 2138 391 
Q 2594 391 2855 752 
Q 3116 1113 3116 1747 
z
" transform="scale(0.015625)"/>
      <path id="DejaVuSans-79" d="M 2059 -325 
Q 1816 -950 1584 -1140 
Q 1353 -1331 966 -1331 
L 506 -1331 
L 506 -850 
L 844 -850 
Q 1081 -850 1212 -737 
Q 1344 -625 1503 -206 
L 1606 56 
L 191 3500 
L 800 3500 
L 1894 763 
L 2988 3500 
L 3597 3500 
L 2059 -325 
z
" transform="scale(0.015625)"/>
     </defs>
     <use xlink:href="#DejaVuSans-47"/>
     <use xlink:href="#DejaVuSans-75" x="77.490234"/>
     <use xlink:href="#DejaVuSans-65" x="140.869141"/>
     <use xlink:href="#DejaVuSans-73" x="202.392578"/>
     <use xlink:href="#DejaVuSans-73" x="254.492188"/>
     <use xlink:href="#DejaVuSans-69" x="306.591797"/>
     <use xlink:href="#DejaVuSans-6e" x="334.375"/>
     <use xlink:href="#DejaVuSans-67" x="397.753906"/>
     <use xlink:href="#DejaVuSans-20" x="461.230469"/>
     <use xlink:href="#DejaVuSans-45" x="493.017578"/>
     <use xlink:href="#DejaVuSans-6e" x="556.201172"/>
     <use xlink:href="#DejaVuSans-74" x="619.580078"/>
     <use xlink:href="#DejaVuSans-72" x="658.789062"/>
     <use xlink:href="#DejaVuSans-6f" x="697.652344"/>
     <use xlink:href="#DejaVuSans-70" x="758.833984"/>
     <use xlink:href="#DejaVuSans-79" x="822.310547"/>
    </g>
   </g>
   <g id="legend_1">
    <g id="patch_7">
     <path d="M 374.167188 75.186875 
L 556.764063 75.186875 
Q 558.764063 75.186875 558.764063 73.186875 
L 558.764063 29.318125 
Q 558.764063 27.318125 556.764063 27.318125 
L 374.167188 27.318125 
Q 372.167188 27.318125 372.167188 29.318125 
L 372.167188 73.186875 
Q 372.167188 75.186875 374.167188 75.186875 
z
" style="fill: #ffffff; opacity: 0.8; stroke: #cccccc; stroke-linejoin: miter"/>
    </g>
    <g id="line2d_51">
     <path d="M 376.167188 35.416562 
L 386.167188 35.416562 
L 396.167188 35.416562 
" style="fill: none; stroke-dasharray: 5.55,2.4; stroke-dashoffset: 0; stroke: #ff0000; stroke-width: 1.5"/>
    </g>
    <g id="text_26">
     <!-- diff_devs_diff_key GE = 100 -->
     <g transform="translate(404.167188 38.916562) scale(0.1 -0.1)">
      <defs>
       <path id="DejaVuSans-64" d="M 2906 2969 
L 2906 4863 
L 3481 4863 
L 3481 0 
L 2906 0 
L 2906 525 
Q 2725 213 2448 61 
Q 2172 -91 1784 -91 
Q 1150 -91 751 415 
Q 353 922 353 1747 
Q 353 2572 751 3078 
Q 1150 3584 1784 3584 
Q 2172 3584 2448 3432 
Q 2725 3281 2906 2969 
z
M 947 1747 
Q 947 1113 1208 752 
Q 1469 391 1925 391 
Q 2381 391 2643 752 
Q 2906 1113 2906 1747 
Q 2906 2381 2643 2742 
Q 2381 3103 1925 3103 
Q 1469 3103 1208 2742 
Q 947 2381 947 1747 
z
" transform="scale(0.015625)"/>
       <path id="DejaVuSans-5f" d="M 3263 -1063 
L 3263 -1509 
L -63 -1509 
L -63 -1063 
L 3263 -1063 
z
" transform="scale(0.015625)"/>
       <path id="DejaVuSans-76" d="M 191 3500 
L 800 3500 
L 1894 563 
L 2988 3500 
L 3597 3500 
L 2284 0 
L 1503 0 
L 191 3500 
z
" transform="scale(0.015625)"/>
       <path id="DejaVuSans-6b" d="M 581 4863 
L 1159 4863 
L 1159 1991 
L 2875 3500 
L 3609 3500 
L 1753 1863 
L 3688 0 
L 2938 0 
L 1159 1709 
L 1159 0 
L 581 0 
L 581 4863 
z
" transform="scale(0.015625)"/>
       <path id="DejaVuSans-3d" d="M 678 2906 
L 4684 2906 
L 4684 2381 
L 678 2381 
L 678 2906 
z
M 678 1631 
L 4684 1631 
L 4684 1100 
L 678 1100 
L 678 1631 
z
" transform="scale(0.015625)"/>
      </defs>
      <use xlink:href="#DejaVuSans-64"/>
      <use xlink:href="#DejaVuSans-69" x="63.476562"/>
      <use xlink:href="#DejaVuSans-66" x="91.259766"/>
      <use xlink:href="#DejaVuSans-66" x="126.464844"/>
      <use xlink:href="#DejaVuSans-5f" x="161.669922"/>
      <use xlink:href="#DejaVuSans-64" x="211.669922"/>
      <use xlink:href="#DejaVuSans-65" x="275.146484"/>
      <use xlink:href="#DejaVuSans-76" x="336.669922"/>
      <use xlink:href="#DejaVuSans-73" x="395.849609"/>
      <use xlink:href="#DejaVuSans-5f" x="447.949219"/>
      <use xlink:href="#DejaVuSans-64" x="497.949219"/>
      <use xlink:href="#DejaVuSans-69" x="561.425781"/>
      <use xlink:href="#DejaVuSans-66" x="589.208984"/>
      <use xlink:href="#DejaVuSans-66" x="624.414062"/>
      <use xlink:href="#DejaVuSans-5f" x="659.619141"/>
      <use xlink:href="#DejaVuSans-6b" x="709.619141"/>
      <use xlink:href="#DejaVuSans-65" x="763.904297"/>
      <use xlink:href="#DejaVuSans-79" x="825.427734"/>
      <use xlink:href="#DejaVuSans-20" x="884.607422"/>
      <use xlink:href="#DejaVuSans-47" x="916.394531"/>
      <use xlink:href="#DejaVuSans-45" x="993.884766"/>
      <use xlink:href="#DejaVuSans-20" x="1057.068359"/>
      <use xlink:href="#DejaVuSans-3d" x="1088.855469"/>
      <use xlink:href="#DejaVuSans-20" x="1172.644531"/>
      <use xlink:href="#DejaVuSans-31" x="1204.431641"/>
      <use xlink:href="#DejaVuSans-30" x="1268.054688"/>
      <use xlink:href="#DejaVuSans-30" x="1331.677734"/>
     </g>
    </g>
    <g id="line2d_52">
     <path d="M 376.167188 50.372812 
L 386.167188 50.372812 
L 396.167188 50.372812 
" style="fill: none; stroke-dasharray: 5.55,2.4; stroke-dashoffset: 0; stroke: #008000; stroke-width: 1.5"/>
    </g>
    <g id="text_27">
     <!-- same_devs_diff_key GE = 100 -->
     <g transform="translate(404.167188 53.872812) scale(0.1 -0.1)">
      <use xlink:href="#DejaVuSans-73"/>
      <use xlink:href="#DejaVuSans-61" x="52.099609"/>
      <use xlink:href="#DejaVuSans-6d" x="113.378906"/>
      <use xlink:href="#DejaVuSans-65" x="210.791016"/>
      <use xlink:href="#DejaVuSans-5f" x="272.314453"/>
      <use xlink:href="#DejaVuSans-64" x="322.314453"/>
      <use xlink:href="#DejaVuSans-65" x="385.791016"/>
      <use xlink:href="#DejaVuSans-76" x="447.314453"/>
      <use xlink:href="#DejaVuSans-73" x="506.494141"/>
      <use xlink:href="#DejaVuSans-5f" x="558.59375"/>
      <use xlink:href="#DejaVuSans-64" x="608.59375"/>
      <use xlink:href="#DejaVuSans-69" x="672.070312"/>
      <use xlink:href="#DejaVuSans-66" x="699.853516"/>
      <use xlink:href="#DejaVuSans-66" x="735.058594"/>
      <use xlink:href="#DejaVuSans-5f" x="770.263672"/>
      <use xlink:href="#DejaVuSans-6b" x="820.263672"/>
      <use xlink:href="#DejaVuSans-65" x="874.548828"/>
      <use xlink:href="#DejaVuSans-79" x="936.072266"/>
      <use xlink:href="#DejaVuSans-20" x="995.251953"/>
      <use xlink:href="#DejaVuSans-47" x="1027.039062"/>
      <use xlink:href="#DejaVuSans-45" x="1104.529297"/>
      <use xlink:href="#DejaVuSans-20" x="1167.712891"/>
      <use xlink:href="#DejaVuSans-3d" x="1199.5"/>
      <use xlink:href="#DejaVuSans-20" x="1283.289062"/>
      <use xlink:href="#DejaVuSans-31" x="1315.076172"/>
      <use xlink:href="#DejaVuSans-30" x="1378.699219"/>
      <use xlink:href="#DejaVuSans-30" x="1442.322266"/>
     </g>
    </g>
    <g id="line2d_53">
     <path d="M 376.167188 65.329062 
L 386.167188 65.329062 
L 396.167188 65.329062 
" style="fill: none; stroke-dasharray: 5.55,2.4; stroke-dashoffset: 0; stroke: #0000ff; stroke-width: 1.5"/>
    </g>
    <g id="text_28">
     <!-- diff_devs_same_key GE = 6 -->
     <g transform="translate(404.167188 68.829062) scale(0.1 -0.1)">
      <use xlink:href="#DejaVuSans-64"/>
      <use xlink:href="#DejaVuSans-69" x="63.476562"/>
      <use xlink:href="#DejaVuSans-66" x="91.259766"/>
      <use xlink:href="#DejaVuSans-66" x="126.464844"/>
      <use xlink:href="#DejaVuSans-5f" x="161.669922"/>
      <use xlink:href="#DejaVuSans-64" x="211.669922"/>
      <use xlink:href="#DejaVuSans-65" x="275.146484"/>
      <use xlink:href="#DejaVuSans-76" x="336.669922"/>
      <use xlink:href="#DejaVuSans-73" x="395.849609"/>
      <use xlink:href="#DejaVuSans-5f" x="447.949219"/>
      <use xlink:href="#DejaVuSans-73" x="497.949219"/>
      <use xlink:href="#DejaVuSans-61" x="550.048828"/>
      <use xlink:href="#DejaVuSans-6d" x="611.328125"/>
      <use xlink:href="#DejaVuSans-65" x="708.740234"/>
      <use xlink:href="#DejaVuSans-5f" x="770.263672"/>
      <use xlink:href="#DejaVuSans-6b" x="820.263672"/>
      <use xlink:href="#DejaVuSans-65" x="874.548828"/>
      <use xlink:href="#DejaVuSans-79" x="936.072266"/>
      <use xlink:href="#DejaVuSans-20" x="995.251953"/>
      <use xlink:href="#DejaVuSans-47" x="1027.039062"/>
      <use xlink:href="#DejaVuSans-45" x="1104.529297"/>
      <use xlink:href="#DejaVuSans-20" x="1167.712891"/>
      <use xlink:href="#DejaVuSans-3d" x="1199.5"/>
      <use xlink:href="#DejaVuSans-20" x="1283.289062"/>
      <use xlink:href="#DejaVuSans-36" x="1315.076172"/>
     </g>
    </g>
   </g>
  </g>
 </g>
 <defs>
  <clipPath id="pc97ac10e4b">
   <rect x="46.965625" y="22.318125" width="837" height="443.52"/>
  </clipPath>
 </defs>
</svg>
