<?xml version="1.0" encoding="utf-8" standalone="no"?>
<!DOCTYPE svg PUBLIC "-//W3C//DTD SVG 1.1//EN"
  "http://www.w3.org/Graphics/SVG/1.1/DTD/svg11.dtd">
<svg xmlns:xlink="http://www.w3.org/1999/xlink" width="617.461854pt" height="614.274375pt" viewBox="0 0 617.461854 614.274375" xmlns="http://www.w3.org/2000/svg" version="1.1">
 <metadata>
  <rdf:RDF xmlns:dc="http://purl.org/dc/elements/1.1/" xmlns:cc="http://creativecommons.org/ns#" xmlns:rdf="http://www.w3.org/1999/02/22-rdf-syntax-ns#">
   <cc:Work>
    <dc:type rdf:resource="http://purl.org/dc/dcmitype/StillImage"/>
    <dc:date>2024-08-06T13:56:23.165771</dc:date>
    <dc:format>image/svg+xml</dc:format>
    <dc:creator>
     <cc:Agent>
      <dc:title>Matplotlib v3.8.0, https://matplotlib.org/</dc:title>
     </cc:Agent>
    </dc:creator>
   </cc:Work>
  </rdf:RDF>
 </metadata>
 <defs>
  <style type="text/css">*{stroke-linejoin: round; stroke-linecap: butt}</style>
 </defs>
 <g id="figure_1">
  <g id="patch_1">
   <path d="M 0 614.274375 
L 617.461854 614.274375 
L 617.461854 0 
L 0 0 
z
" style="fill: #ffffff"/>
  </g>
  <g id="axes_1">
   <g id="patch_2">
    <path d="M 43.78125 576.718125 
L 601.78125 576.718125 
L 601.78125 22.318125 
L 43.78125 22.318125 
z
" style="fill: #ffffff"/>
   </g>
   <g id="matplotlib.axis_1">
    <g id="xtick_1">
     <g id="line2d_1">
      <path d="M 69.144886 576.718125 
L 69.144886 22.318125 
" clip-path="url(#p477edf41d8)" style="fill: none; stroke: #b0b0b0; stroke-width: 0.8; stroke-linecap: square"/>
     </g>
     <g id="line2d_2">
      <defs>
       <path id="mea610b944a" d="M 0 0 
L 0 3.5 
" style="stroke: #000000; stroke-width: 0.8"/>
      </defs>
      <g>
       <use xlink:href="#mea610b944a" x="69.144886" y="576.718125" style="stroke: #000000; stroke-width: 0.8"/>
      </g>
     </g>
     <g id="text_1">
      <!-- 0 -->
      <g transform="translate(65.963636 591.316563) scale(0.1 -0.1)">
       <defs>
        <path id="DejaVuSans-30" d="M 2034 4250 
Q 1547 4250 1301 3770 
Q 1056 3291 1056 2328 
Q 1056 1369 1301 889 
Q 1547 409 2034 409 
Q 2525 409 2770 889 
Q 3016 1369 3016 2328 
Q 3016 3291 2770 3770 
Q 2525 4250 2034 4250 
z
M 2034 4750 
Q 2819 4750 3233 4129 
Q 3647 3509 3647 2328 
Q 3647 1150 3233 529 
Q 2819 -91 2034 -91 
Q 1250 -91 836 529 
Q 422 1150 422 2328 
Q 422 3509 836 4129 
Q 1250 4750 2034 4750 
z
" transform="scale(0.015625)"/>
       </defs>
       <use xlink:href="#DejaVuSans-30"/>
      </g>
     </g>
    </g>
    <g id="xtick_2">
     <g id="line2d_3">
      <path d="M 145.083917 576.718125 
L 145.083917 22.318125 
" clip-path="url(#p477edf41d8)" style="fill: none; stroke: #b0b0b0; stroke-width: 0.8; stroke-linecap: square"/>
     </g>
     <g id="line2d_4">
      <g>
       <use xlink:href="#mea610b944a" x="145.083917" y="576.718125" style="stroke: #000000; stroke-width: 0.8"/>
      </g>
     </g>
     <g id="text_2">
      <!-- 25 -->
      <g transform="translate(138.721417 591.316563) scale(0.1 -0.1)">
       <defs>
        <path id="DejaVuSans-32" d="M 1228 531 
L 3431 531 
L 3431 0 
L 469 0 
L 469 531 
Q 828 903 1448 1529 
Q 2069 2156 2228 2338 
Q 2531 2678 2651 2914 
Q 2772 3150 2772 3378 
Q 2772 3750 2511 3984 
Q 2250 4219 1831 4219 
Q 1534 4219 1204 4116 
Q 875 4013 500 3803 
L 500 4441 
Q 881 4594 1212 4672 
Q 1544 4750 1819 4750 
Q 2544 4750 2975 4387 
Q 3406 4025 3406 3419 
Q 3406 3131 3298 2873 
Q 3191 2616 2906 2266 
Q 2828 2175 2409 1742 
Q 1991 1309 1228 531 
z
" transform="scale(0.015625)"/>
        <path id="DejaVuSans-35" d="M 691 4666 
L 3169 4666 
L 3169 4134 
L 1269 4134 
L 1269 2991 
Q 1406 3038 1543 3061 
Q 1681 3084 1819 3084 
Q 2600 3084 3056 2656 
Q 3513 2228 3513 1497 
Q 3513 744 3044 326 
Q 2575 -91 1722 -91 
Q 1428 -91 1123 -41 
Q 819 9 494 109 
L 494 744 
Q 775 591 1075 516 
Q 1375 441 1709 441 
Q 2250 441 2565 725 
Q 2881 1009 2881 1497 
Q 2881 1984 2565 2268 
Q 2250 2553 1709 2553 
Q 1456 2553 1204 2497 
Q 953 2441 691 2322 
L 691 4666 
z
" transform="scale(0.015625)"/>
       </defs>
       <use xlink:href="#DejaVuSans-32"/>
       <use xlink:href="#DejaVuSans-35" x="63.623047"/>
      </g>
     </g>
    </g>
    <g id="xtick_3">
     <g id="line2d_5">
      <path d="M 221.022948 576.718125 
L 221.022948 22.318125 
" clip-path="url(#p477edf41d8)" style="fill: none; stroke: #b0b0b0; stroke-width: 0.8; stroke-linecap: square"/>
     </g>
     <g id="line2d_6">
      <g>
       <use xlink:href="#mea610b944a" x="221.022948" y="576.718125" style="stroke: #000000; stroke-width: 0.8"/>
      </g>
     </g>
     <g id="text_3">
      <!-- 50 -->
      <g transform="translate(214.660448 591.316563) scale(0.1 -0.1)">
       <use xlink:href="#DejaVuSans-35"/>
       <use xlink:href="#DejaVuSans-30" x="63.623047"/>
      </g>
     </g>
    </g>
    <g id="xtick_4">
     <g id="line2d_7">
      <path d="M 296.961979 576.718125 
L 296.961979 22.318125 
" clip-path="url(#p477edf41d8)" style="fill: none; stroke: #b0b0b0; stroke-width: 0.8; stroke-linecap: square"/>
     </g>
     <g id="line2d_8">
      <g>
       <use xlink:href="#mea610b944a" x="296.961979" y="576.718125" style="stroke: #000000; stroke-width: 0.8"/>
      </g>
     </g>
     <g id="text_4">
      <!-- 75 -->
      <g transform="translate(290.599479 591.316563) scale(0.1 -0.1)">
       <defs>
        <path id="DejaVuSans-37" d="M 525 4666 
L 3525 4666 
L 3525 4397 
L 1831 0 
L 1172 0 
L 2766 4134 
L 525 4134 
L 525 4666 
z
" transform="scale(0.015625)"/>
       </defs>
       <use xlink:href="#DejaVuSans-37"/>
       <use xlink:href="#DejaVuSans-35" x="63.623047"/>
      </g>
     </g>
    </g>
    <g id="xtick_5">
     <g id="line2d_9">
      <path d="M 372.90101 576.718125 
L 372.90101 22.318125 
" clip-path="url(#p477edf41d8)" style="fill: none; stroke: #b0b0b0; stroke-width: 0.8; stroke-linecap: square"/>
     </g>
     <g id="line2d_10">
      <g>
       <use xlink:href="#mea610b944a" x="372.90101" y="576.718125" style="stroke: #000000; stroke-width: 0.8"/>
      </g>
     </g>
     <g id="text_5">
      <!-- 100 -->
      <g transform="translate(363.35726 591.316563) scale(0.1 -0.1)">
       <defs>
        <path id="DejaVuSans-31" d="M 794 531 
L 1825 531 
L 1825 4091 
L 703 3866 
L 703 4441 
L 1819 4666 
L 2450 4666 
L 2450 531 
L 3481 531 
L 3481 0 
L 794 0 
L 794 531 
z
" transform="scale(0.015625)"/>
       </defs>
       <use xlink:href="#DejaVuSans-31"/>
       <use xlink:href="#DejaVuSans-30" x="63.623047"/>
       <use xlink:href="#DejaVuSans-30" x="127.246094"/>
      </g>
     </g>
    </g>
    <g id="xtick_6">
     <g id="line2d_11">
      <path d="M 448.840042 576.718125 
L 448.840042 22.318125 
" clip-path="url(#p477edf41d8)" style="fill: none; stroke: #b0b0b0; stroke-width: 0.8; stroke-linecap: square"/>
     </g>
     <g id="line2d_12">
      <g>
       <use xlink:href="#mea610b944a" x="448.840042" y="576.718125" style="stroke: #000000; stroke-width: 0.8"/>
      </g>
     </g>
     <g id="text_6">
      <!-- 125 -->
      <g transform="translate(439.296292 591.316563) scale(0.1 -0.1)">
       <use xlink:href="#DejaVuSans-31"/>
       <use xlink:href="#DejaVuSans-32" x="63.623047"/>
       <use xlink:href="#DejaVuSans-35" x="127.246094"/>
      </g>
     </g>
    </g>
    <g id="xtick_7">
     <g id="line2d_13">
      <path d="M 524.779073 576.718125 
L 524.779073 22.318125 
" clip-path="url(#p477edf41d8)" style="fill: none; stroke: #b0b0b0; stroke-width: 0.8; stroke-linecap: square"/>
     </g>
     <g id="line2d_14">
      <g>
       <use xlink:href="#mea610b944a" x="524.779073" y="576.718125" style="stroke: #000000; stroke-width: 0.8"/>
      </g>
     </g>
     <g id="text_7">
      <!-- 150 -->
      <g transform="translate(515.235323 591.316563) scale(0.1 -0.1)">
       <use xlink:href="#DejaVuSans-31"/>
       <use xlink:href="#DejaVuSans-35" x="63.623047"/>
       <use xlink:href="#DejaVuSans-30" x="127.246094"/>
      </g>
     </g>
    </g>
    <g id="xtick_8">
     <g id="line2d_15">
      <path d="M 600.718104 576.718125 
L 600.718104 22.318125 
" clip-path="url(#p477edf41d8)" style="fill: none; stroke: #b0b0b0; stroke-width: 0.8; stroke-linecap: square"/>
     </g>
     <g id="line2d_16">
      <g>
       <use xlink:href="#mea610b944a" x="600.718104" y="576.718125" style="stroke: #000000; stroke-width: 0.8"/>
      </g>
     </g>
     <g id="text_8">
      <!-- 175 -->
      <g transform="translate(591.174354 591.316563) scale(0.1 -0.1)">
       <use xlink:href="#DejaVuSans-31"/>
       <use xlink:href="#DejaVuSans-37" x="63.623047"/>
       <use xlink:href="#DejaVuSans-35" x="127.246094"/>
      </g>
     </g>
    </g>
    <g id="text_9">
     <!-- Epochs -->
     <g transform="translate(304.865625 604.994688) scale(0.1 -0.1)">
      <defs>
       <path id="DejaVuSans-45" d="M 628 4666 
L 3578 4666 
L 3578 4134 
L 1259 4134 
L 1259 2753 
L 3481 2753 
L 3481 2222 
L 1259 2222 
L 1259 531 
L 3634 531 
L 3634 0 
L 628 0 
L 628 4666 
z
" transform="scale(0.015625)"/>
       <path id="DejaVuSans-70" d="M 1159 525 
L 1159 -1331 
L 581 -1331 
L 581 3500 
L 1159 3500 
L 1159 2969 
Q 1341 3281 1617 3432 
Q 1894 3584 2278 3584 
Q 2916 3584 3314 3078 
Q 3713 2572 3713 1747 
Q 3713 922 3314 415 
Q 2916 -91 2278 -91 
Q 1894 -91 1617 61 
Q 1341 213 1159 525 
z
M 3116 1747 
Q 3116 2381 2855 2742 
Q 2594 3103 2138 3103 
Q 1681 3103 1420 2742 
Q 1159 2381 1159 1747 
Q 1159 1113 1420 752 
Q 1681 391 2138 391 
Q 2594 391 2855 752 
Q 3116 1113 3116 1747 
z
" transform="scale(0.015625)"/>
       <path id="DejaVuSans-6f" d="M 1959 3097 
Q 1497 3097 1228 2736 
Q 959 2375 959 1747 
Q 959 1119 1226 758 
Q 1494 397 1959 397 
Q 2419 397 2687 759 
Q 2956 1122 2956 1747 
Q 2956 2369 2687 2733 
Q 2419 3097 1959 3097 
z
M 1959 3584 
Q 2709 3584 3137 3096 
Q 3566 2609 3566 1747 
Q 3566 888 3137 398 
Q 2709 -91 1959 -91 
Q 1206 -91 779 398 
Q 353 888 353 1747 
Q 353 2609 779 3096 
Q 1206 3584 1959 3584 
z
" transform="scale(0.015625)"/>
       <path id="DejaVuSans-63" d="M 3122 3366 
L 3122 2828 
Q 2878 2963 2633 3030 
Q 2388 3097 2138 3097 
Q 1578 3097 1268 2742 
Q 959 2388 959 1747 
Q 959 1106 1268 751 
Q 1578 397 2138 397 
Q 2388 397 2633 464 
Q 2878 531 3122 666 
L 3122 134 
Q 2881 22 2623 -34 
Q 2366 -91 2075 -91 
Q 1284 -91 818 406 
Q 353 903 353 1747 
Q 353 2603 823 3093 
Q 1294 3584 2113 3584 
Q 2378 3584 2631 3529 
Q 2884 3475 3122 3366 
z
" transform="scale(0.015625)"/>
       <path id="DejaVuSans-68" d="M 3513 2113 
L 3513 0 
L 2938 0 
L 2938 2094 
Q 2938 2591 2744 2837 
Q 2550 3084 2163 3084 
Q 1697 3084 1428 2787 
Q 1159 2491 1159 1978 
L 1159 0 
L 581 0 
L 581 4863 
L 1159 4863 
L 1159 2956 
Q 1366 3272 1645 3428 
Q 1925 3584 2291 3584 
Q 2894 3584 3203 3211 
Q 3513 2838 3513 2113 
z
" transform="scale(0.015625)"/>
       <path id="DejaVuSans-73" d="M 2834 3397 
L 2834 2853 
Q 2591 2978 2328 3040 
Q 2066 3103 1784 3103 
Q 1356 3103 1142 2972 
Q 928 2841 928 2578 
Q 928 2378 1081 2264 
Q 1234 2150 1697 2047 
L 1894 2003 
Q 2506 1872 2764 1633 
Q 3022 1394 3022 966 
Q 3022 478 2636 193 
Q 2250 -91 1575 -91 
Q 1294 -91 989 -36 
Q 684 19 347 128 
L 347 722 
Q 666 556 975 473 
Q 1284 391 1588 391 
Q 1994 391 2212 530 
Q 2431 669 2431 922 
Q 2431 1156 2273 1281 
Q 2116 1406 1581 1522 
L 1381 1569 
Q 847 1681 609 1914 
Q 372 2147 372 2553 
Q 372 3047 722 3315 
Q 1072 3584 1716 3584 
Q 2034 3584 2315 3537 
Q 2597 3491 2834 3397 
z
" transform="scale(0.015625)"/>
      </defs>
      <use xlink:href="#DejaVuSans-45"/>
      <use xlink:href="#DejaVuSans-70" x="63.183594"/>
      <use xlink:href="#DejaVuSans-6f" x="126.660156"/>
      <use xlink:href="#DejaVuSans-63" x="187.841797"/>
      <use xlink:href="#DejaVuSans-68" x="242.822266"/>
      <use xlink:href="#DejaVuSans-73" x="306.201172"/>
     </g>
    </g>
   </g>
   <g id="matplotlib.axis_2">
    <g id="ytick_1">
     <g id="line2d_17">
      <path d="M 43.78125 571.351557 
L 601.78125 571.351557 
" clip-path="url(#p477edf41d8)" style="fill: none; stroke: #b0b0b0; stroke-width: 0.8; stroke-linecap: square"/>
     </g>
     <g id="line2d_18">
      <defs>
       <path id="m2a933f6e9f" d="M 0 0 
L -3.5 0 
" style="stroke: #000000; stroke-width: 0.8"/>
      </defs>
      <g>
       <use xlink:href="#m2a933f6e9f" x="43.78125" y="571.351557" style="stroke: #000000; stroke-width: 0.8"/>
      </g>
     </g>
     <g id="text_10">
      <!-- 3.5 -->
      <g transform="translate(20.878125 575.150776) scale(0.1 -0.1)">
       <defs>
        <path id="DejaVuSans-33" d="M 2597 2516 
Q 3050 2419 3304 2112 
Q 3559 1806 3559 1356 
Q 3559 666 3084 287 
Q 2609 -91 1734 -91 
Q 1441 -91 1130 -33 
Q 819 25 488 141 
L 488 750 
Q 750 597 1062 519 
Q 1375 441 1716 441 
Q 2309 441 2620 675 
Q 2931 909 2931 1356 
Q 2931 1769 2642 2001 
Q 2353 2234 1838 2234 
L 1294 2234 
L 1294 2753 
L 1863 2753 
Q 2328 2753 2575 2939 
Q 2822 3125 2822 3475 
Q 2822 3834 2567 4026 
Q 2313 4219 1838 4219 
Q 1578 4219 1281 4162 
Q 984 4106 628 3988 
L 628 4550 
Q 988 4650 1302 4700 
Q 1616 4750 1894 4750 
Q 2613 4750 3031 4423 
Q 3450 4097 3450 3541 
Q 3450 3153 3228 2886 
Q 3006 2619 2597 2516 
z
" transform="scale(0.015625)"/>
        <path id="DejaVuSans-2e" d="M 684 794 
L 1344 794 
L 1344 0 
L 684 0 
L 684 794 
z
" transform="scale(0.015625)"/>
       </defs>
       <use xlink:href="#DejaVuSans-33"/>
       <use xlink:href="#DejaVuSans-2e" x="63.623047"/>
       <use xlink:href="#DejaVuSans-35" x="95.410156"/>
      </g>
     </g>
    </g>
    <g id="ytick_2">
     <g id="line2d_19">
      <path d="M 43.78125 503.172393 
L 601.78125 503.172393 
" clip-path="url(#p477edf41d8)" style="fill: none; stroke: #b0b0b0; stroke-width: 0.8; stroke-linecap: square"/>
     </g>
     <g id="line2d_20">
      <g>
       <use xlink:href="#m2a933f6e9f" x="43.78125" y="503.172393" style="stroke: #000000; stroke-width: 0.8"/>
      </g>
     </g>
     <g id="text_11">
      <!-- 4.0 -->
      <g transform="translate(20.878125 506.971612) scale(0.1 -0.1)">
       <defs>
        <path id="DejaVuSans-34" d="M 2419 4116 
L 825 1625 
L 2419 1625 
L 2419 4116 
z
M 2253 4666 
L 3047 4666 
L 3047 1625 
L 3713 1625 
L 3713 1100 
L 3047 1100 
L 3047 0 
L 2419 0 
L 2419 1100 
L 313 1100 
L 313 1709 
L 2253 4666 
z
" transform="scale(0.015625)"/>
       </defs>
       <use xlink:href="#DejaVuSans-34"/>
       <use xlink:href="#DejaVuSans-2e" x="63.623047"/>
       <use xlink:href="#DejaVuSans-30" x="95.410156"/>
      </g>
     </g>
    </g>
    <g id="ytick_3">
     <g id="line2d_21">
      <path d="M 43.78125 434.993228 
L 601.78125 434.993228 
" clip-path="url(#p477edf41d8)" style="fill: none; stroke: #b0b0b0; stroke-width: 0.8; stroke-linecap: square"/>
     </g>
     <g id="line2d_22">
      <g>
       <use xlink:href="#m2a933f6e9f" x="43.78125" y="434.993228" style="stroke: #000000; stroke-width: 0.8"/>
      </g>
     </g>
     <g id="text_12">
      <!-- 4.5 -->
      <g transform="translate(20.878125 438.792447) scale(0.1 -0.1)">
       <use xlink:href="#DejaVuSans-34"/>
       <use xlink:href="#DejaVuSans-2e" x="63.623047"/>
       <use xlink:href="#DejaVuSans-35" x="95.410156"/>
      </g>
     </g>
    </g>
    <g id="ytick_4">
     <g id="line2d_23">
      <path d="M 43.78125 366.814064 
L 601.78125 366.814064 
" clip-path="url(#p477edf41d8)" style="fill: none; stroke: #b0b0b0; stroke-width: 0.8; stroke-linecap: square"/>
     </g>
     <g id="line2d_24">
      <g>
       <use xlink:href="#m2a933f6e9f" x="43.78125" y="366.814064" style="stroke: #000000; stroke-width: 0.8"/>
      </g>
     </g>
     <g id="text_13">
      <!-- 5.0 -->
      <g transform="translate(20.878125 370.613283) scale(0.1 -0.1)">
       <use xlink:href="#DejaVuSans-35"/>
       <use xlink:href="#DejaVuSans-2e" x="63.623047"/>
       <use xlink:href="#DejaVuSans-30" x="95.410156"/>
      </g>
     </g>
    </g>
    <g id="ytick_5">
     <g id="line2d_25">
      <path d="M 43.78125 298.6349 
L 601.78125 298.6349 
" clip-path="url(#p477edf41d8)" style="fill: none; stroke: #b0b0b0; stroke-width: 0.8; stroke-linecap: square"/>
     </g>
     <g id="line2d_26">
      <g>
       <use xlink:href="#m2a933f6e9f" x="43.78125" y="298.6349" style="stroke: #000000; stroke-width: 0.8"/>
      </g>
     </g>
     <g id="text_14">
      <!-- 5.5 -->
      <g transform="translate(20.878125 302.434119) scale(0.1 -0.1)">
       <use xlink:href="#DejaVuSans-35"/>
       <use xlink:href="#DejaVuSans-2e" x="63.623047"/>
       <use xlink:href="#DejaVuSans-35" x="95.410156"/>
      </g>
     </g>
    </g>
    <g id="ytick_6">
     <g id="line2d_27">
      <path d="M 43.78125 230.455735 
L 601.78125 230.455735 
" clip-path="url(#p477edf41d8)" style="fill: none; stroke: #b0b0b0; stroke-width: 0.8; stroke-linecap: square"/>
     </g>
     <g id="line2d_28">
      <g>
       <use xlink:href="#m2a933f6e9f" x="43.78125" y="230.455735" style="stroke: #000000; stroke-width: 0.8"/>
      </g>
     </g>
     <g id="text_15">
      <!-- 6.0 -->
      <g transform="translate(20.878125 234.254954) scale(0.1 -0.1)">
       <defs>
        <path id="DejaVuSans-36" d="M 2113 2584 
Q 1688 2584 1439 2293 
Q 1191 2003 1191 1497 
Q 1191 994 1439 701 
Q 1688 409 2113 409 
Q 2538 409 2786 701 
Q 3034 994 3034 1497 
Q 3034 2003 2786 2293 
Q 2538 2584 2113 2584 
z
M 3366 4563 
L 3366 3988 
Q 3128 4100 2886 4159 
Q 2644 4219 2406 4219 
Q 1781 4219 1451 3797 
Q 1122 3375 1075 2522 
Q 1259 2794 1537 2939 
Q 1816 3084 2150 3084 
Q 2853 3084 3261 2657 
Q 3669 2231 3669 1497 
Q 3669 778 3244 343 
Q 2819 -91 2113 -91 
Q 1303 -91 875 529 
Q 447 1150 447 2328 
Q 447 3434 972 4092 
Q 1497 4750 2381 4750 
Q 2619 4750 2861 4703 
Q 3103 4656 3366 4563 
z
" transform="scale(0.015625)"/>
       </defs>
       <use xlink:href="#DejaVuSans-36"/>
       <use xlink:href="#DejaVuSans-2e" x="63.623047"/>
       <use xlink:href="#DejaVuSans-30" x="95.410156"/>
      </g>
     </g>
    </g>
    <g id="ytick_7">
     <g id="line2d_29">
      <path d="M 43.78125 162.276571 
L 601.78125 162.276571 
" clip-path="url(#p477edf41d8)" style="fill: none; stroke: #b0b0b0; stroke-width: 0.8; stroke-linecap: square"/>
     </g>
     <g id="line2d_30">
      <g>
       <use xlink:href="#m2a933f6e9f" x="43.78125" y="162.276571" style="stroke: #000000; stroke-width: 0.8"/>
      </g>
     </g>
     <g id="text_16">
      <!-- 6.5 -->
      <g transform="translate(20.878125 166.07579) scale(0.1 -0.1)">
       <use xlink:href="#DejaVuSans-36"/>
       <use xlink:href="#DejaVuSans-2e" x="63.623047"/>
       <use xlink:href="#DejaVuSans-35" x="95.410156"/>
      </g>
     </g>
    </g>
    <g id="ytick_8">
     <g id="line2d_31">
      <path d="M 43.78125 94.097407 
L 601.78125 94.097407 
" clip-path="url(#p477edf41d8)" style="fill: none; stroke: #b0b0b0; stroke-width: 0.8; stroke-linecap: square"/>
     </g>
     <g id="line2d_32">
      <g>
       <use xlink:href="#m2a933f6e9f" x="43.78125" y="94.097407" style="stroke: #000000; stroke-width: 0.8"/>
      </g>
     </g>
     <g id="text_17">
      <!-- 7.0 -->
      <g transform="translate(20.878125 97.896626) scale(0.1 -0.1)">
       <use xlink:href="#DejaVuSans-37"/>
       <use xlink:href="#DejaVuSans-2e" x="63.623047"/>
       <use xlink:href="#DejaVuSans-30" x="95.410156"/>
      </g>
     </g>
    </g>
    <g id="ytick_9">
     <g id="line2d_33">
      <path d="M 43.78125 25.918243 
L 601.78125 25.918243 
" clip-path="url(#p477edf41d8)" style="fill: none; stroke: #b0b0b0; stroke-width: 0.8; stroke-linecap: square"/>
     </g>
     <g id="line2d_34">
      <g>
       <use xlink:href="#m2a933f6e9f" x="43.78125" y="25.918243" style="stroke: #000000; stroke-width: 0.8"/>
      </g>
     </g>
     <g id="text_18">
      <!-- 7.5 -->
      <g transform="translate(20.878125 29.717461) scale(0.1 -0.1)">
       <use xlink:href="#DejaVuSans-37"/>
       <use xlink:href="#DejaVuSans-2e" x="63.623047"/>
       <use xlink:href="#DejaVuSans-35" x="95.410156"/>
      </g>
     </g>
    </g>
    <g id="text_19">
     <!-- Loss -->
     <g transform="translate(14.798438 310.485313) rotate(-90) scale(0.1 -0.1)">
      <defs>
       <path id="DejaVuSans-4c" d="M 628 4666 
L 1259 4666 
L 1259 531 
L 3531 531 
L 3531 0 
L 628 0 
L 628 4666 
z
" transform="scale(0.015625)"/>
      </defs>
      <use xlink:href="#DejaVuSans-4c"/>
      <use xlink:href="#DejaVuSans-6f" x="53.962891"/>
      <use xlink:href="#DejaVuSans-73" x="115.144531"/>
      <use xlink:href="#DejaVuSans-73" x="167.244141"/>
     </g>
    </g>
   </g>
   <g id="line2d_35">
    <path d="M 69.144886 371.43034 
L 72.182448 401.327321 
L 75.220009 414.356563 
L 78.25757 424.81261 
L 81.295131 433.350025 
L 84.332693 439.680052 
L 87.370254 444.970658 
L 90.407815 449.798121 
L 93.445376 454.171024 
L 96.482938 457.116008 
L 99.520499 460.478099 
L 102.55806 463.410728 
L 105.595621 465.352572 
L 108.633182 468.448404 
L 117.745866 474.149095 
L 123.820989 477.434072 
L 126.85855 478.643262 
L 129.896111 479.713438 
L 132.933672 481.180565 
L 135.971234 482.338844 
L 139.008795 483.666633 
L 142.046356 484.700722 
L 148.121479 485.884749 
L 151.15904 487.354998 
L 154.196601 488.128874 
L 157.234162 488.570495 
L 160.271724 490.000431 
L 163.309285 490.729768 
L 166.346846 490.839263 
L 169.384407 491.730177 
L 175.45953 493.166224 
L 178.497091 493.709603 
L 181.534652 494.777568 
L 187.609775 495.431286 
L 190.647336 496.418756 
L 193.684897 496.684691 
L 205.835142 499.315754 
L 208.872703 499.283244 
L 211.910265 499.734292 
L 214.947826 500.478129 
L 217.985387 501.422815 
L 221.022948 500.570459 
L 224.06051 502.020616 
L 227.098071 502.099681 
L 230.135632 502.752749 
L 233.173193 502.62934 
L 236.210755 503.35094 
L 239.248316 503.340764 
L 242.285877 510.604879 
L 248.361 513.623595 
L 251.398561 513.782766 
L 254.436122 514.337198 
L 257.473683 515.061464 
L 260.511245 514.740684 
L 263.548806 514.819749 
L 266.586367 515.452466 
L 269.623928 515.394727 
L 278.736612 516.247962 
L 281.774173 515.890315 
L 284.811734 516.736267 
L 287.849296 516.292143 
L 290.886857 516.741339 
L 293.924418 517.063224 
L 299.999541 516.887961 
L 303.037102 517.276915 
L 306.074663 518.429699 
L 309.112224 518.824343 
L 312.149786 519.335698 
L 318.224908 519.471299 
L 321.262469 519.370257 
L 324.300031 519.630925 
L 327.337592 519.722929 
L 330.375153 519.214759 
L 333.412714 520.042668 
L 336.450276 519.744093 
L 339.487837 519.615937 
L 345.562959 519.67075 
L 348.600521 519.804172 
L 351.638082 519.700854 
L 354.675643 520.364066 
L 357.713204 519.850662 
L 360.750766 519.839544 
L 363.788327 519.635639 
L 366.825888 519.970365 
L 369.863449 519.833757 
L 372.90101 519.873647 
L 375.938572 520.212697 
L 378.976133 520.001705 
L 382.013694 520.913133 
L 385.051255 519.895559 
L 388.088817 520.366862 
L 391.126378 520.449048 
L 394.163939 521.036575 
L 397.2015 520.431135 
L 400.239062 520.648759 
L 403.276623 520.999838 
L 406.314184 520.774932 
L 409.351745 520.406134 
L 412.389307 520.278466 
L 415.426868 520.743071 
L 418.464429 520.213023 
L 421.50199 520.910922 
L 424.539552 520.232139 
L 427.577113 520.537736 
L 433.652235 521.382843 
L 436.689797 520.877339 
L 439.727358 521.229784 
L 445.80248 520.708838 
L 448.840042 521.441036 
L 451.877603 520.810433 
L 454.915164 520.993726 
L 457.952725 521.447311 
L 460.990286 521.08378 
L 467.065409 521.4359 
L 470.10297 520.403533 
L 473.140531 521.426602 
L 476.178093 521.629596 
L 479.215654 521.202898 
L 482.253215 521.76523 
L 485.290776 521.522247 
L 488.328338 521.943484 
L 491.365899 521.355762 
L 494.40346 521.633465 
L 500.478583 521.764287 
L 503.516144 522.020891 
L 506.553705 521.658336 
L 512.628828 522.035066 
L 515.666389 520.946196 
L 518.70395 521.590714 
L 521.741511 521.856324 
L 527.816634 521.863346 
L 533.891756 522.361047 
L 536.929318 521.514087 
L 543.00444 521.739709 
L 546.042001 521.420067 
L 549.079562 521.502221 
L 552.117124 521.954798 
L 555.154685 521.787239 
L 558.192246 521.463013 
L 561.229807 521.644161 
L 564.267369 522.283445 
L 567.30493 521.528879 
L 573.380052 522.118 
L 576.417614 521.640943 
L 576.417614 521.640943 
" clip-path="url(#p477edf41d8)" style="fill: none; stroke: #1f77b4; stroke-width: 1.5; stroke-linecap: square"/>
   </g>
   <g id="line2d_36">
    <path d="M 69.144886 47.518125 
L 72.182448 352.528167 
L 75.220009 251.204757 
L 78.25757 363.926234 
L 81.295131 350.990622 
L 84.332693 350.970856 
L 87.370254 343.871699 
L 90.407815 388.167713 
L 93.445376 419.554449 
L 96.482938 401.305929 
L 99.520499 376.914513 
L 102.55806 438.390366 
L 105.595621 415.08551 
L 108.633182 404.817373 
L 111.670744 434.424752 
L 114.708305 434.156542 
L 117.745866 424.038993 
L 120.783427 445.394203 
L 123.820989 437.423833 
L 126.85855 381.25315 
L 129.896111 409.491648 
L 132.933672 415.709449 
L 135.971234 471.547226 
L 139.008795 462.737374 
L 142.046356 439.270161 
L 145.083917 476.303166 
L 148.121479 470.293236 
L 151.15904 320.081333 
L 154.196601 445.972497 
L 157.234162 440.815119 
L 160.271724 430.32253 
L 163.309285 480.979651 
L 166.346846 433.560887 
L 169.384407 428.160656 
L 172.421969 445.948374 
L 175.45953 451.530468 
L 178.497091 483.018961 
L 181.534652 448.302254 
L 184.572214 458.905963 
L 187.609775 474.487918 
L 190.647336 396.839201 
L 193.684897 467.375172 
L 196.722458 477.918671 
L 199.76002 458.133777 
L 202.797581 495.529988 
L 205.835142 401.315032 
L 208.872703 513.035678 
L 211.910265 490.839393 
L 214.947826 437.678259 
L 217.985387 474.655996 
L 221.022948 481.05514 
L 224.06051 460.970501 
L 227.098071 473.346219 
L 230.135632 507.063038 
L 233.173193 476.634772 
L 236.210755 479.951024 
L 239.248316 490.628466 
L 242.285877 538.831217 
L 245.323438 539.437471 
L 248.361 540.995432 
L 251.398561 536.371646 
L 254.436122 538.009161 
L 257.473683 541.368066 
L 260.511245 536.730171 
L 263.548806 541.79717 
L 266.586367 544.741698 
L 269.623928 540.402996 
L 272.66149 545.135139 
L 275.699051 542.820434 
L 278.736612 543.299669 
L 281.774173 544.033298 
L 284.811734 543.153925 
L 287.849296 543.446258 
L 290.886857 544.530511 
L 293.924418 544.120945 
L 296.961979 541.495051 
L 299.999541 541.04358 
L 303.037102 543.515278 
L 306.074663 548.95982 
L 309.112224 548.535397 
L 312.149786 549.08466 
L 315.187347 548.889305 
L 321.262469 549.110408 
L 324.300031 549.318702 
L 327.337592 549.256119 
L 330.375153 549.472541 
L 333.412714 549.476865 
L 336.450276 549.66562 
L 342.525398 549.486553 
L 345.562959 549.253876 
L 348.600521 549.560481 
L 351.638082 549.387949 
L 354.675643 549.48691 
L 357.713204 549.853432 
L 360.750766 549.415973 
L 363.788327 549.311517 
L 366.825888 549.978922 
L 372.90101 549.919916 
L 375.938572 549.644325 
L 378.976133 549.847385 
L 394.163939 550.117839 
L 397.2015 549.972973 
L 400.239062 549.939942 
L 406.314184 550.237965 
L 409.351745 550.355555 
L 412.389307 550.313129 
L 415.426868 550.130583 
L 418.464429 550.530818 
L 421.50199 550.332992 
L 424.539552 550.300872 
L 427.577113 549.962894 
L 430.614674 550.168457 
L 433.652235 550.583387 
L 439.727358 550.474087 
L 442.764919 550.742915 
L 445.80248 550.898673 
L 448.840042 550.415959 
L 451.877603 550.686673 
L 454.915164 550.370119 
L 457.952725 550.663818 
L 460.990286 550.766258 
L 464.027848 550.562938 
L 467.065409 550.531436 
L 470.10297 550.748117 
L 473.140531 550.667719 
L 476.178093 550.778384 
L 479.215654 551.226865 
L 482.253215 551.131804 
L 488.328338 551.410223 
L 494.40346 551.178619 
L 497.441021 551.297087 
L 500.478583 551.304207 
L 503.516144 551.439775 
L 509.591266 551.176864 
L 512.628828 551.178944 
L 515.666389 551.518125 
L 518.70395 551.315781 
L 527.816634 551.260285 
L 530.854195 551.132585 
L 533.891756 551.481746 
L 543.00444 551.177091 
L 546.042001 551.484932 
L 552.117124 551.263829 
L 555.154685 551.408923 
L 558.192246 551.390619 
L 561.229807 551.158105 
L 564.267369 551.416335 
L 573.380052 551.255539 
L 576.417614 551.417148 
L 576.417614 551.417148 
" clip-path="url(#p477edf41d8)" style="fill: none; stroke: #ff7f0e; stroke-width: 1.5; stroke-linecap: square"/>
   </g>
   <g id="patch_3">
    <path d="M 43.78125 576.718125 
L 43.78125 22.318125 
" style="fill: none; stroke: #000000; stroke-width: 0.8; stroke-linejoin: miter; stroke-linecap: square"/>
   </g>
   <g id="patch_4">
    <path d="M 601.78125 576.718125 
L 601.78125 22.318125 
" style="fill: none; stroke: #000000; stroke-width: 0.8; stroke-linejoin: miter; stroke-linecap: square"/>
   </g>
   <g id="patch_5">
    <path d="M 43.78125 576.718125 
L 601.78125 576.718125 
" style="fill: none; stroke: #000000; stroke-width: 0.8; stroke-linejoin: miter; stroke-linecap: square"/>
   </g>
   <g id="patch_6">
    <path d="M 43.78125 22.318125 
L 601.78125 22.318125 
" style="fill: none; stroke: #000000; stroke-width: 0.8; stroke-linejoin: miter; stroke-linecap: square"/>
   </g>
   <g id="text_20">
    <!-- Train and Val Loss -->
    <g transform="translate(269.235937 16.318125) scale(0.12 -0.12)">
     <defs>
      <path id="DejaVuSans-54" d="M -19 4666 
L 3928 4666 
L 3928 4134 
L 2272 4134 
L 2272 0 
L 1638 0 
L 1638 4134 
L -19 4134 
L -19 4666 
z
" transform="scale(0.015625)"/>
      <path id="DejaVuSans-72" d="M 2631 2963 
Q 2534 3019 2420 3045 
Q 2306 3072 2169 3072 
Q 1681 3072 1420 2755 
Q 1159 2438 1159 1844 
L 1159 0 
L 581 0 
L 581 3500 
L 1159 3500 
L 1159 2956 
Q 1341 3275 1631 3429 
Q 1922 3584 2338 3584 
Q 2397 3584 2469 3576 
Q 2541 3569 2628 3553 
L 2631 2963 
z
" transform="scale(0.015625)"/>
      <path id="DejaVuSans-61" d="M 2194 1759 
Q 1497 1759 1228 1600 
Q 959 1441 959 1056 
Q 959 750 1161 570 
Q 1363 391 1709 391 
Q 2188 391 2477 730 
Q 2766 1069 2766 1631 
L 2766 1759 
L 2194 1759 
z
M 3341 1997 
L 3341 0 
L 2766 0 
L 2766 531 
Q 2569 213 2275 61 
Q 1981 -91 1556 -91 
Q 1019 -91 701 211 
Q 384 513 384 1019 
Q 384 1609 779 1909 
Q 1175 2209 1959 2209 
L 2766 2209 
L 2766 2266 
Q 2766 2663 2505 2880 
Q 2244 3097 1772 3097 
Q 1472 3097 1187 3025 
Q 903 2953 641 2809 
L 641 3341 
Q 956 3463 1253 3523 
Q 1550 3584 1831 3584 
Q 2591 3584 2966 3190 
Q 3341 2797 3341 1997 
z
" transform="scale(0.015625)"/>
      <path id="DejaVuSans-69" d="M 603 3500 
L 1178 3500 
L 1178 0 
L 603 0 
L 603 3500 
z
M 603 4863 
L 1178 4863 
L 1178 4134 
L 603 4134 
L 603 4863 
z
" transform="scale(0.015625)"/>
      <path id="DejaVuSans-6e" d="M 3513 2113 
L 3513 0 
L 2938 0 
L 2938 2094 
Q 2938 2591 2744 2837 
Q 2550 3084 2163 3084 
Q 1697 3084 1428 2787 
Q 1159 2491 1159 1978 
L 1159 0 
L 581 0 
L 581 3500 
L 1159 3500 
L 1159 2956 
Q 1366 3272 1645 3428 
Q 1925 3584 2291 3584 
Q 2894 3584 3203 3211 
Q 3513 2838 3513 2113 
z
" transform="scale(0.015625)"/>
      <path id="DejaVuSans-20" transform="scale(0.015625)"/>
      <path id="DejaVuSans-64" d="M 2906 2969 
L 2906 4863 
L 3481 4863 
L 3481 0 
L 2906 0 
L 2906 525 
Q 2725 213 2448 61 
Q 2172 -91 1784 -91 
Q 1150 -91 751 415 
Q 353 922 353 1747 
Q 353 2572 751 3078 
Q 1150 3584 1784 3584 
Q 2172 3584 2448 3432 
Q 2725 3281 2906 2969 
z
M 947 1747 
Q 947 1113 1208 752 
Q 1469 391 1925 391 
Q 2381 391 2643 752 
Q 2906 1113 2906 1747 
Q 2906 2381 2643 2742 
Q 2381 3103 1925 3103 
Q 1469 3103 1208 2742 
Q 947 2381 947 1747 
z
" transform="scale(0.015625)"/>
      <path id="DejaVuSans-56" d="M 1831 0 
L 50 4666 
L 709 4666 
L 2188 738 
L 3669 4666 
L 4325 4666 
L 2547 0 
L 1831 0 
z
" transform="scale(0.015625)"/>
      <path id="DejaVuSans-6c" d="M 603 4863 
L 1178 4863 
L 1178 0 
L 603 0 
L 603 4863 
z
" transform="scale(0.015625)"/>
     </defs>
     <use xlink:href="#DejaVuSans-54"/>
     <use xlink:href="#DejaVuSans-72" x="46.333984"/>
     <use xlink:href="#DejaVuSans-61" x="87.447266"/>
     <use xlink:href="#DejaVuSans-69" x="148.726562"/>
     <use xlink:href="#DejaVuSans-6e" x="176.509766"/>
     <use xlink:href="#DejaVuSans-20" x="239.888672"/>
     <use xlink:href="#DejaVuSans-61" x="271.675781"/>
     <use xlink:href="#DejaVuSans-6e" x="332.955078"/>
     <use xlink:href="#DejaVuSans-64" x="396.333984"/>
     <use xlink:href="#DejaVuSans-20" x="459.810547"/>
     <use xlink:href="#DejaVuSans-56" x="491.597656"/>
     <use xlink:href="#DejaVuSans-61" x="552.255859"/>
     <use xlink:href="#DejaVuSans-6c" x="613.535156"/>
     <use xlink:href="#DejaVuSans-20" x="641.318359"/>
     <use xlink:href="#DejaVuSans-4c" x="673.105469"/>
     <use xlink:href="#DejaVuSans-6f" x="727.068359"/>
     <use xlink:href="#DejaVuSans-73" x="788.25"/>
     <use xlink:href="#DejaVuSans-73" x="840.349609"/>
    </g>
   </g>
   <g id="legend_1">
    <g id="patch_7">
     <path d="M 515.190625 60.230625 
L 594.78125 60.230625 
Q 596.78125 60.230625 596.78125 58.230625 
L 596.78125 29.318125 
Q 596.78125 27.318125 594.78125 27.318125 
L 515.190625 27.318125 
Q 513.190625 27.318125 513.190625 29.318125 
L 513.190625 58.230625 
Q 513.190625 60.230625 515.190625 60.230625 
z
" style="fill: #ffffff; opacity: 0.8; stroke: #cccccc; stroke-linejoin: miter"/>
    </g>
    <g id="line2d_37">
     <path d="M 517.190625 35.416563 
L 527.190625 35.416563 
L 537.190625 35.416563 
" style="fill: none; stroke: #1f77b4; stroke-width: 1.5; stroke-linecap: square"/>
    </g>
    <g id="text_21">
     <!-- train_loss -->
     <g transform="translate(545.190625 38.916563) scale(0.1 -0.1)">
      <defs>
       <path id="DejaVuSans-74" d="M 1172 4494 
L 1172 3500 
L 2356 3500 
L 2356 3053 
L 1172 3053 
L 1172 1153 
Q 1172 725 1289 603 
Q 1406 481 1766 481 
L 2356 481 
L 2356 0 
L 1766 0 
Q 1100 0 847 248 
Q 594 497 594 1153 
L 594 3053 
L 172 3053 
L 172 3500 
L 594 3500 
L 594 4494 
L 1172 4494 
z
" transform="scale(0.015625)"/>
       <path id="DejaVuSans-5f" d="M 3263 -1063 
L 3263 -1509 
L -63 -1509 
L -63 -1063 
L 3263 -1063 
z
" transform="scale(0.015625)"/>
      </defs>
      <use xlink:href="#DejaVuSans-74"/>
      <use xlink:href="#DejaVuSans-72" x="39.208984"/>
      <use xlink:href="#DejaVuSans-61" x="80.322266"/>
      <use xlink:href="#DejaVuSans-69" x="141.601562"/>
      <use xlink:href="#DejaVuSans-6e" x="169.384766"/>
      <use xlink:href="#DejaVuSans-5f" x="232.763672"/>
      <use xlink:href="#DejaVuSans-6c" x="282.763672"/>
      <use xlink:href="#DejaVuSans-6f" x="310.546875"/>
      <use xlink:href="#DejaVuSans-73" x="371.728516"/>
      <use xlink:href="#DejaVuSans-73" x="423.828125"/>
     </g>
    </g>
    <g id="line2d_38">
     <path d="M 517.190625 50.372813 
L 527.190625 50.372813 
L 537.190625 50.372813 
" style="fill: none; stroke: #ff7f0e; stroke-width: 1.5; stroke-linecap: square"/>
    </g>
    <g id="text_22">
     <!-- val_loss -->
     <g transform="translate(545.190625 53.872813) scale(0.1 -0.1)">
      <defs>
       <path id="DejaVuSans-76" d="M 191 3500 
L 800 3500 
L 1894 563 
L 2988 3500 
L 3597 3500 
L 2284 0 
L 1503 0 
L 191 3500 
z
" transform="scale(0.015625)"/>
      </defs>
      <use xlink:href="#DejaVuSans-76"/>
      <use xlink:href="#DejaVuSans-61" x="59.179688"/>
      <use xlink:href="#DejaVuSans-6c" x="120.458984"/>
      <use xlink:href="#DejaVuSans-5f" x="148.242188"/>
      <use xlink:href="#DejaVuSans-6c" x="198.242188"/>
      <use xlink:href="#DejaVuSans-6f" x="226.025391"/>
      <use xlink:href="#DejaVuSans-73" x="287.207031"/>
      <use xlink:href="#DejaVuSans-73" x="339.306641"/>
     </g>
    </g>
   </g>
  </g>
 </g>
 <defs>
  <clipPath id="p477edf41d8">
   <rect x="43.78125" y="22.318125" width="558" height="554.4"/>
  </clipPath>
 </defs>
</svg>
