<?xml version="1.0" encoding="utf-8" standalone="no"?>
<!DOCTYPE svg PUBLIC "-//W3C//DTD SVG 1.1//EN"
  "http://www.w3.org/Graphics/SVG/1.1/DTD/svg11.dtd">
<svg xmlns:xlink="http://www.w3.org/1999/xlink" width="615.34375pt" height="614.274375pt" viewBox="0 0 615.34375 614.274375" xmlns="http://www.w3.org/2000/svg" version="1.1">
 <metadata>
  <rdf:RDF xmlns:dc="http://purl.org/dc/elements/1.1/" xmlns:cc="http://creativecommons.org/ns#" xmlns:rdf="http://www.w3.org/1999/02/22-rdf-syntax-ns#">
   <cc:Work>
    <dc:type rdf:resource="http://purl.org/dc/dcmitype/StillImage"/>
    <dc:date>2024-08-06T14:47:34.765904</dc:date>
    <dc:format>image/svg+xml</dc:format>
    <dc:creator>
     <cc:Agent>
      <dc:title>Matplotlib v3.8.0, https://matplotlib.org/</dc:title>
     </cc:Agent>
    </dc:creator>
   </cc:Work>
  </rdf:RDF>
 </metadata>
 <defs>
  <style type="text/css">*{stroke-linejoin: round; stroke-linecap: butt}</style>
 </defs>
 <g id="figure_1">
  <g id="patch_1">
   <path d="M 0 614.274375 
L 615.34375 614.274375 
L 615.34375 0 
L 0 0 
z
" style="fill: #ffffff"/>
  </g>
  <g id="axes_1">
   <g id="patch_2">
    <path d="M 50.14375 576.718125 
L 608.14375 576.718125 
L 608.14375 22.318125 
L 50.14375 22.318125 
z
" style="fill: #ffffff"/>
   </g>
   <g id="matplotlib.axis_1">
    <g id="xtick_1">
     <g id="line2d_1">
      <path d="M 75.507386 576.718125 
L 75.507386 22.318125 
" clip-path="url(#p42d530a381)" style="fill: none; stroke: #b0b0b0; stroke-width: 0.8; stroke-linecap: square"/>
     </g>
     <g id="line2d_2">
      <defs>
       <path id="m95e931a2e8" d="M 0 0 
L 0 3.5 
" style="stroke: #000000; stroke-width: 0.8"/>
      </defs>
      <g>
       <use xlink:href="#m95e931a2e8" x="75.507386" y="576.718125" style="stroke: #000000; stroke-width: 0.8"/>
      </g>
     </g>
     <g id="text_1">
      <!-- 0 -->
      <g transform="translate(72.326136 591.316563) scale(0.1 -0.1)">
       <defs>
        <path id="DejaVuSans-30" d="M 2034 4250 
Q 1547 4250 1301 3770 
Q 1056 3291 1056 2328 
Q 1056 1369 1301 889 
Q 1547 409 2034 409 
Q 2525 409 2770 889 
Q 3016 1369 3016 2328 
Q 3016 3291 2770 3770 
Q 2525 4250 2034 4250 
z
M 2034 4750 
Q 2819 4750 3233 4129 
Q 3647 3509 3647 2328 
Q 3647 1150 3233 529 
Q 2819 -91 2034 -91 
Q 1250 -91 836 529 
Q 422 1150 422 2328 
Q 422 3509 836 4129 
Q 1250 4750 2034 4750 
z
" transform="scale(0.015625)"/>
       </defs>
       <use xlink:href="#DejaVuSans-30"/>
      </g>
     </g>
    </g>
    <g id="xtick_2">
     <g id="line2d_3">
      <path d="M 139.235116 576.718125 
L 139.235116 22.318125 
" clip-path="url(#p42d530a381)" style="fill: none; stroke: #b0b0b0; stroke-width: 0.8; stroke-linecap: square"/>
     </g>
     <g id="line2d_4">
      <g>
       <use xlink:href="#m95e931a2e8" x="139.235116" y="576.718125" style="stroke: #000000; stroke-width: 0.8"/>
      </g>
     </g>
     <g id="text_2">
      <!-- 25 -->
      <g transform="translate(132.872616 591.316563) scale(0.1 -0.1)">
       <defs>
        <path id="DejaVuSans-32" d="M 1228 531 
L 3431 531 
L 3431 0 
L 469 0 
L 469 531 
Q 828 903 1448 1529 
Q 2069 2156 2228 2338 
Q 2531 2678 2651 2914 
Q 2772 3150 2772 3378 
Q 2772 3750 2511 3984 
Q 2250 4219 1831 4219 
Q 1534 4219 1204 4116 
Q 875 4013 500 3803 
L 500 4441 
Q 881 4594 1212 4672 
Q 1544 4750 1819 4750 
Q 2544 4750 2975 4387 
Q 3406 4025 3406 3419 
Q 3406 3131 3298 2873 
Q 3191 2616 2906 2266 
Q 2828 2175 2409 1742 
Q 1991 1309 1228 531 
z
" transform="scale(0.015625)"/>
        <path id="DejaVuSans-35" d="M 691 4666 
L 3169 4666 
L 3169 4134 
L 1269 4134 
L 1269 2991 
Q 1406 3038 1543 3061 
Q 1681 3084 1819 3084 
Q 2600 3084 3056 2656 
Q 3513 2228 3513 1497 
Q 3513 744 3044 326 
Q 2575 -91 1722 -91 
Q 1428 -91 1123 -41 
Q 819 9 494 109 
L 494 744 
Q 775 591 1075 516 
Q 1375 441 1709 441 
Q 2250 441 2565 725 
Q 2881 1009 2881 1497 
Q 2881 1984 2565 2268 
Q 2250 2553 1709 2553 
Q 1456 2553 1204 2497 
Q 953 2441 691 2322 
L 691 4666 
z
" transform="scale(0.015625)"/>
       </defs>
       <use xlink:href="#DejaVuSans-32"/>
       <use xlink:href="#DejaVuSans-35" x="63.623047"/>
      </g>
     </g>
    </g>
    <g id="xtick_3">
     <g id="line2d_5">
      <path d="M 202.962845 576.718125 
L 202.962845 22.318125 
" clip-path="url(#p42d530a381)" style="fill: none; stroke: #b0b0b0; stroke-width: 0.8; stroke-linecap: square"/>
     </g>
     <g id="line2d_6">
      <g>
       <use xlink:href="#m95e931a2e8" x="202.962845" y="576.718125" style="stroke: #000000; stroke-width: 0.8"/>
      </g>
     </g>
     <g id="text_3">
      <!-- 50 -->
      <g transform="translate(196.600345 591.316563) scale(0.1 -0.1)">
       <use xlink:href="#DejaVuSans-35"/>
       <use xlink:href="#DejaVuSans-30" x="63.623047"/>
      </g>
     </g>
    </g>
    <g id="xtick_4">
     <g id="line2d_7">
      <path d="M 266.690575 576.718125 
L 266.690575 22.318125 
" clip-path="url(#p42d530a381)" style="fill: none; stroke: #b0b0b0; stroke-width: 0.8; stroke-linecap: square"/>
     </g>
     <g id="line2d_8">
      <g>
       <use xlink:href="#m95e931a2e8" x="266.690575" y="576.718125" style="stroke: #000000; stroke-width: 0.8"/>
      </g>
     </g>
     <g id="text_4">
      <!-- 75 -->
      <g transform="translate(260.328075 591.316563) scale(0.1 -0.1)">
       <defs>
        <path id="DejaVuSans-37" d="M 525 4666 
L 3525 4666 
L 3525 4397 
L 1831 0 
L 1172 0 
L 2766 4134 
L 525 4134 
L 525 4666 
z
" transform="scale(0.015625)"/>
       </defs>
       <use xlink:href="#DejaVuSans-37"/>
       <use xlink:href="#DejaVuSans-35" x="63.623047"/>
      </g>
     </g>
    </g>
    <g id="xtick_5">
     <g id="line2d_9">
      <path d="M 330.418305 576.718125 
L 330.418305 22.318125 
" clip-path="url(#p42d530a381)" style="fill: none; stroke: #b0b0b0; stroke-width: 0.8; stroke-linecap: square"/>
     </g>
     <g id="line2d_10">
      <g>
       <use xlink:href="#m95e931a2e8" x="330.418305" y="576.718125" style="stroke: #000000; stroke-width: 0.8"/>
      </g>
     </g>
     <g id="text_5">
      <!-- 100 -->
      <g transform="translate(320.874555 591.316563) scale(0.1 -0.1)">
       <defs>
        <path id="DejaVuSans-31" d="M 794 531 
L 1825 531 
L 1825 4091 
L 703 3866 
L 703 4441 
L 1819 4666 
L 2450 4666 
L 2450 531 
L 3481 531 
L 3481 0 
L 794 0 
L 794 531 
z
" transform="scale(0.015625)"/>
       </defs>
       <use xlink:href="#DejaVuSans-31"/>
       <use xlink:href="#DejaVuSans-30" x="63.623047"/>
       <use xlink:href="#DejaVuSans-30" x="127.246094"/>
      </g>
     </g>
    </g>
    <g id="xtick_6">
     <g id="line2d_11">
      <path d="M 394.146034 576.718125 
L 394.146034 22.318125 
" clip-path="url(#p42d530a381)" style="fill: none; stroke: #b0b0b0; stroke-width: 0.8; stroke-linecap: square"/>
     </g>
     <g id="line2d_12">
      <g>
       <use xlink:href="#m95e931a2e8" x="394.146034" y="576.718125" style="stroke: #000000; stroke-width: 0.8"/>
      </g>
     </g>
     <g id="text_6">
      <!-- 125 -->
      <g transform="translate(384.602284 591.316563) scale(0.1 -0.1)">
       <use xlink:href="#DejaVuSans-31"/>
       <use xlink:href="#DejaVuSans-32" x="63.623047"/>
       <use xlink:href="#DejaVuSans-35" x="127.246094"/>
      </g>
     </g>
    </g>
    <g id="xtick_7">
     <g id="line2d_13">
      <path d="M 457.873764 576.718125 
L 457.873764 22.318125 
" clip-path="url(#p42d530a381)" style="fill: none; stroke: #b0b0b0; stroke-width: 0.8; stroke-linecap: square"/>
     </g>
     <g id="line2d_14">
      <g>
       <use xlink:href="#m95e931a2e8" x="457.873764" y="576.718125" style="stroke: #000000; stroke-width: 0.8"/>
      </g>
     </g>
     <g id="text_7">
      <!-- 150 -->
      <g transform="translate(448.330014 591.316563) scale(0.1 -0.1)">
       <use xlink:href="#DejaVuSans-31"/>
       <use xlink:href="#DejaVuSans-35" x="63.623047"/>
       <use xlink:href="#DejaVuSans-30" x="127.246094"/>
      </g>
     </g>
    </g>
    <g id="xtick_8">
     <g id="line2d_15">
      <path d="M 521.601493 576.718125 
L 521.601493 22.318125 
" clip-path="url(#p42d530a381)" style="fill: none; stroke: #b0b0b0; stroke-width: 0.8; stroke-linecap: square"/>
     </g>
     <g id="line2d_16">
      <g>
       <use xlink:href="#m95e931a2e8" x="521.601493" y="576.718125" style="stroke: #000000; stroke-width: 0.8"/>
      </g>
     </g>
     <g id="text_8">
      <!-- 175 -->
      <g transform="translate(512.057743 591.316563) scale(0.1 -0.1)">
       <use xlink:href="#DejaVuSans-31"/>
       <use xlink:href="#DejaVuSans-37" x="63.623047"/>
       <use xlink:href="#DejaVuSans-35" x="127.246094"/>
      </g>
     </g>
    </g>
    <g id="xtick_9">
     <g id="line2d_17">
      <path d="M 585.329223 576.718125 
L 585.329223 22.318125 
" clip-path="url(#p42d530a381)" style="fill: none; stroke: #b0b0b0; stroke-width: 0.8; stroke-linecap: square"/>
     </g>
     <g id="line2d_18">
      <g>
       <use xlink:href="#m95e931a2e8" x="585.329223" y="576.718125" style="stroke: #000000; stroke-width: 0.8"/>
      </g>
     </g>
     <g id="text_9">
      <!-- 200 -->
      <g transform="translate(575.785473 591.316563) scale(0.1 -0.1)">
       <use xlink:href="#DejaVuSans-32"/>
       <use xlink:href="#DejaVuSans-30" x="63.623047"/>
       <use xlink:href="#DejaVuSans-30" x="127.246094"/>
      </g>
     </g>
    </g>
    <g id="text_10">
     <!-- Epochs -->
     <g transform="translate(311.228125 604.994688) scale(0.1 -0.1)">
      <defs>
       <path id="DejaVuSans-45" d="M 628 4666 
L 3578 4666 
L 3578 4134 
L 1259 4134 
L 1259 2753 
L 3481 2753 
L 3481 2222 
L 1259 2222 
L 1259 531 
L 3634 531 
L 3634 0 
L 628 0 
L 628 4666 
z
" transform="scale(0.015625)"/>
       <path id="DejaVuSans-70" d="M 1159 525 
L 1159 -1331 
L 581 -1331 
L 581 3500 
L 1159 3500 
L 1159 2969 
Q 1341 3281 1617 3432 
Q 1894 3584 2278 3584 
Q 2916 3584 3314 3078 
Q 3713 2572 3713 1747 
Q 3713 922 3314 415 
Q 2916 -91 2278 -91 
Q 1894 -91 1617 61 
Q 1341 213 1159 525 
z
M 3116 1747 
Q 3116 2381 2855 2742 
Q 2594 3103 2138 3103 
Q 1681 3103 1420 2742 
Q 1159 2381 1159 1747 
Q 1159 1113 1420 752 
Q 1681 391 2138 391 
Q 2594 391 2855 752 
Q 3116 1113 3116 1747 
z
" transform="scale(0.015625)"/>
       <path id="DejaVuSans-6f" d="M 1959 3097 
Q 1497 3097 1228 2736 
Q 959 2375 959 1747 
Q 959 1119 1226 758 
Q 1494 397 1959 397 
Q 2419 397 2687 759 
Q 2956 1122 2956 1747 
Q 2956 2369 2687 2733 
Q 2419 3097 1959 3097 
z
M 1959 3584 
Q 2709 3584 3137 3096 
Q 3566 2609 3566 1747 
Q 3566 888 3137 398 
Q 2709 -91 1959 -91 
Q 1206 -91 779 398 
Q 353 888 353 1747 
Q 353 2609 779 3096 
Q 1206 3584 1959 3584 
z
" transform="scale(0.015625)"/>
       <path id="DejaVuSans-63" d="M 3122 3366 
L 3122 2828 
Q 2878 2963 2633 3030 
Q 2388 3097 2138 3097 
Q 1578 3097 1268 2742 
Q 959 2388 959 1747 
Q 959 1106 1268 751 
Q 1578 397 2138 397 
Q 2388 397 2633 464 
Q 2878 531 3122 666 
L 3122 134 
Q 2881 22 2623 -34 
Q 2366 -91 2075 -91 
Q 1284 -91 818 406 
Q 353 903 353 1747 
Q 353 2603 823 3093 
Q 1294 3584 2113 3584 
Q 2378 3584 2631 3529 
Q 2884 3475 3122 3366 
z
" transform="scale(0.015625)"/>
       <path id="DejaVuSans-68" d="M 3513 2113 
L 3513 0 
L 2938 0 
L 2938 2094 
Q 2938 2591 2744 2837 
Q 2550 3084 2163 3084 
Q 1697 3084 1428 2787 
Q 1159 2491 1159 1978 
L 1159 0 
L 581 0 
L 581 4863 
L 1159 4863 
L 1159 2956 
Q 1366 3272 1645 3428 
Q 1925 3584 2291 3584 
Q 2894 3584 3203 3211 
Q 3513 2838 3513 2113 
z
" transform="scale(0.015625)"/>
       <path id="DejaVuSans-73" d="M 2834 3397 
L 2834 2853 
Q 2591 2978 2328 3040 
Q 2066 3103 1784 3103 
Q 1356 3103 1142 2972 
Q 928 2841 928 2578 
Q 928 2378 1081 2264 
Q 1234 2150 1697 2047 
L 1894 2003 
Q 2506 1872 2764 1633 
Q 3022 1394 3022 966 
Q 3022 478 2636 193 
Q 2250 -91 1575 -91 
Q 1294 -91 989 -36 
Q 684 19 347 128 
L 347 722 
Q 666 556 975 473 
Q 1284 391 1588 391 
Q 1994 391 2212 530 
Q 2431 669 2431 922 
Q 2431 1156 2273 1281 
Q 2116 1406 1581 1522 
L 1381 1569 
Q 847 1681 609 1914 
Q 372 2147 372 2553 
Q 372 3047 722 3315 
Q 1072 3584 1716 3584 
Q 2034 3584 2315 3537 
Q 2597 3491 2834 3397 
z
" transform="scale(0.015625)"/>
      </defs>
      <use xlink:href="#DejaVuSans-45"/>
      <use xlink:href="#DejaVuSans-70" x="63.183594"/>
      <use xlink:href="#DejaVuSans-6f" x="126.660156"/>
      <use xlink:href="#DejaVuSans-63" x="187.841797"/>
      <use xlink:href="#DejaVuSans-68" x="242.822266"/>
      <use xlink:href="#DejaVuSans-73" x="306.201172"/>
     </g>
    </g>
   </g>
   <g id="matplotlib.axis_2">
    <g id="ytick_1">
     <g id="line2d_19">
      <path d="M 50.14375 576.37495 
L 608.14375 576.37495 
" clip-path="url(#p42d530a381)" style="fill: none; stroke: #b0b0b0; stroke-width: 0.8; stroke-linecap: square"/>
     </g>
     <g id="line2d_20">
      <defs>
       <path id="m836fdfed61" d="M 0 0 
L -3.5 0 
" style="stroke: #000000; stroke-width: 0.8"/>
      </defs>
      <g>
       <use xlink:href="#m836fdfed61" x="50.14375" y="576.37495" style="stroke: #000000; stroke-width: 0.8"/>
      </g>
     </g>
     <g id="text_11">
      <!-- 0.00 -->
      <g transform="translate(20.878125 580.174169) scale(0.1 -0.1)">
       <defs>
        <path id="DejaVuSans-2e" d="M 684 794 
L 1344 794 
L 1344 0 
L 684 0 
L 684 794 
z
" transform="scale(0.015625)"/>
       </defs>
       <use xlink:href="#DejaVuSans-30"/>
       <use xlink:href="#DejaVuSans-2e" x="63.623047"/>
       <use xlink:href="#DejaVuSans-30" x="95.410156"/>
       <use xlink:href="#DejaVuSans-30" x="159.033203"/>
      </g>
     </g>
    </g>
    <g id="ytick_2">
     <g id="line2d_21">
      <path d="M 50.14375 502.175469 
L 608.14375 502.175469 
" clip-path="url(#p42d530a381)" style="fill: none; stroke: #b0b0b0; stroke-width: 0.8; stroke-linecap: square"/>
     </g>
     <g id="line2d_22">
      <g>
       <use xlink:href="#m836fdfed61" x="50.14375" y="502.175469" style="stroke: #000000; stroke-width: 0.8"/>
      </g>
     </g>
     <g id="text_12">
      <!-- 0.02 -->
      <g transform="translate(20.878125 505.974688) scale(0.1 -0.1)">
       <use xlink:href="#DejaVuSans-30"/>
       <use xlink:href="#DejaVuSans-2e" x="63.623047"/>
       <use xlink:href="#DejaVuSans-30" x="95.410156"/>
       <use xlink:href="#DejaVuSans-32" x="159.033203"/>
      </g>
     </g>
    </g>
    <g id="ytick_3">
     <g id="line2d_23">
      <path d="M 50.14375 427.975988 
L 608.14375 427.975988 
" clip-path="url(#p42d530a381)" style="fill: none; stroke: #b0b0b0; stroke-width: 0.8; stroke-linecap: square"/>
     </g>
     <g id="line2d_24">
      <g>
       <use xlink:href="#m836fdfed61" x="50.14375" y="427.975988" style="stroke: #000000; stroke-width: 0.8"/>
      </g>
     </g>
     <g id="text_13">
      <!-- 0.04 -->
      <g transform="translate(20.878125 431.775207) scale(0.1 -0.1)">
       <defs>
        <path id="DejaVuSans-34" d="M 2419 4116 
L 825 1625 
L 2419 1625 
L 2419 4116 
z
M 2253 4666 
L 3047 4666 
L 3047 1625 
L 3713 1625 
L 3713 1100 
L 3047 1100 
L 3047 0 
L 2419 0 
L 2419 1100 
L 313 1100 
L 313 1709 
L 2253 4666 
z
" transform="scale(0.015625)"/>
       </defs>
       <use xlink:href="#DejaVuSans-30"/>
       <use xlink:href="#DejaVuSans-2e" x="63.623047"/>
       <use xlink:href="#DejaVuSans-30" x="95.410156"/>
       <use xlink:href="#DejaVuSans-34" x="159.033203"/>
      </g>
     </g>
    </g>
    <g id="ytick_4">
     <g id="line2d_25">
      <path d="M 50.14375 353.776507 
L 608.14375 353.776507 
" clip-path="url(#p42d530a381)" style="fill: none; stroke: #b0b0b0; stroke-width: 0.8; stroke-linecap: square"/>
     </g>
     <g id="line2d_26">
      <g>
       <use xlink:href="#m836fdfed61" x="50.14375" y="353.776507" style="stroke: #000000; stroke-width: 0.8"/>
      </g>
     </g>
     <g id="text_14">
      <!-- 0.06 -->
      <g transform="translate(20.878125 357.575726) scale(0.1 -0.1)">
       <defs>
        <path id="DejaVuSans-36" d="M 2113 2584 
Q 1688 2584 1439 2293 
Q 1191 2003 1191 1497 
Q 1191 994 1439 701 
Q 1688 409 2113 409 
Q 2538 409 2786 701 
Q 3034 994 3034 1497 
Q 3034 2003 2786 2293 
Q 2538 2584 2113 2584 
z
M 3366 4563 
L 3366 3988 
Q 3128 4100 2886 4159 
Q 2644 4219 2406 4219 
Q 1781 4219 1451 3797 
Q 1122 3375 1075 2522 
Q 1259 2794 1537 2939 
Q 1816 3084 2150 3084 
Q 2853 3084 3261 2657 
Q 3669 2231 3669 1497 
Q 3669 778 3244 343 
Q 2819 -91 2113 -91 
Q 1303 -91 875 529 
Q 447 1150 447 2328 
Q 447 3434 972 4092 
Q 1497 4750 2381 4750 
Q 2619 4750 2861 4703 
Q 3103 4656 3366 4563 
z
" transform="scale(0.015625)"/>
       </defs>
       <use xlink:href="#DejaVuSans-30"/>
       <use xlink:href="#DejaVuSans-2e" x="63.623047"/>
       <use xlink:href="#DejaVuSans-30" x="95.410156"/>
       <use xlink:href="#DejaVuSans-36" x="159.033203"/>
      </g>
     </g>
    </g>
    <g id="ytick_5">
     <g id="line2d_27">
      <path d="M 50.14375 279.577026 
L 608.14375 279.577026 
" clip-path="url(#p42d530a381)" style="fill: none; stroke: #b0b0b0; stroke-width: 0.8; stroke-linecap: square"/>
     </g>
     <g id="line2d_28">
      <g>
       <use xlink:href="#m836fdfed61" x="50.14375" y="279.577026" style="stroke: #000000; stroke-width: 0.8"/>
      </g>
     </g>
     <g id="text_15">
      <!-- 0.08 -->
      <g transform="translate(20.878125 283.376245) scale(0.1 -0.1)">
       <defs>
        <path id="DejaVuSans-38" d="M 2034 2216 
Q 1584 2216 1326 1975 
Q 1069 1734 1069 1313 
Q 1069 891 1326 650 
Q 1584 409 2034 409 
Q 2484 409 2743 651 
Q 3003 894 3003 1313 
Q 3003 1734 2745 1975 
Q 2488 2216 2034 2216 
z
M 1403 2484 
Q 997 2584 770 2862 
Q 544 3141 544 3541 
Q 544 4100 942 4425 
Q 1341 4750 2034 4750 
Q 2731 4750 3128 4425 
Q 3525 4100 3525 3541 
Q 3525 3141 3298 2862 
Q 3072 2584 2669 2484 
Q 3125 2378 3379 2068 
Q 3634 1759 3634 1313 
Q 3634 634 3220 271 
Q 2806 -91 2034 -91 
Q 1263 -91 848 271 
Q 434 634 434 1313 
Q 434 1759 690 2068 
Q 947 2378 1403 2484 
z
M 1172 3481 
Q 1172 3119 1398 2916 
Q 1625 2713 2034 2713 
Q 2441 2713 2670 2916 
Q 2900 3119 2900 3481 
Q 2900 3844 2670 4047 
Q 2441 4250 2034 4250 
Q 1625 4250 1398 4047 
Q 1172 3844 1172 3481 
z
" transform="scale(0.015625)"/>
       </defs>
       <use xlink:href="#DejaVuSans-30"/>
       <use xlink:href="#DejaVuSans-2e" x="63.623047"/>
       <use xlink:href="#DejaVuSans-30" x="95.410156"/>
       <use xlink:href="#DejaVuSans-38" x="159.033203"/>
      </g>
     </g>
    </g>
    <g id="ytick_6">
     <g id="line2d_29">
      <path d="M 50.14375 205.377545 
L 608.14375 205.377545 
" clip-path="url(#p42d530a381)" style="fill: none; stroke: #b0b0b0; stroke-width: 0.8; stroke-linecap: square"/>
     </g>
     <g id="line2d_30">
      <g>
       <use xlink:href="#m836fdfed61" x="50.14375" y="205.377545" style="stroke: #000000; stroke-width: 0.8"/>
      </g>
     </g>
     <g id="text_16">
      <!-- 0.10 -->
      <g transform="translate(20.878125 209.176764) scale(0.1 -0.1)">
       <use xlink:href="#DejaVuSans-30"/>
       <use xlink:href="#DejaVuSans-2e" x="63.623047"/>
       <use xlink:href="#DejaVuSans-31" x="95.410156"/>
       <use xlink:href="#DejaVuSans-30" x="159.033203"/>
      </g>
     </g>
    </g>
    <g id="ytick_7">
     <g id="line2d_31">
      <path d="M 50.14375 131.178064 
L 608.14375 131.178064 
" clip-path="url(#p42d530a381)" style="fill: none; stroke: #b0b0b0; stroke-width: 0.8; stroke-linecap: square"/>
     </g>
     <g id="line2d_32">
      <g>
       <use xlink:href="#m836fdfed61" x="50.14375" y="131.178064" style="stroke: #000000; stroke-width: 0.8"/>
      </g>
     </g>
     <g id="text_17">
      <!-- 0.12 -->
      <g transform="translate(20.878125 134.977283) scale(0.1 -0.1)">
       <use xlink:href="#DejaVuSans-30"/>
       <use xlink:href="#DejaVuSans-2e" x="63.623047"/>
       <use xlink:href="#DejaVuSans-31" x="95.410156"/>
       <use xlink:href="#DejaVuSans-32" x="159.033203"/>
      </g>
     </g>
    </g>
    <g id="ytick_8">
     <g id="line2d_33">
      <path d="M 50.14375 56.978583 
L 608.14375 56.978583 
" clip-path="url(#p42d530a381)" style="fill: none; stroke: #b0b0b0; stroke-width: 0.8; stroke-linecap: square"/>
     </g>
     <g id="line2d_34">
      <g>
       <use xlink:href="#m836fdfed61" x="50.14375" y="56.978583" style="stroke: #000000; stroke-width: 0.8"/>
      </g>
     </g>
     <g id="text_18">
      <!-- 0.14 -->
      <g transform="translate(20.878125 60.777802) scale(0.1 -0.1)">
       <use xlink:href="#DejaVuSans-30"/>
       <use xlink:href="#DejaVuSans-2e" x="63.623047"/>
       <use xlink:href="#DejaVuSans-31" x="95.410156"/>
       <use xlink:href="#DejaVuSans-34" x="159.033203"/>
      </g>
     </g>
    </g>
    <g id="text_19">
     <!-- Accuracy -->
     <g transform="translate(14.798437 322.34625) rotate(-90) scale(0.1 -0.1)">
      <defs>
       <path id="DejaVuSans-41" d="M 2188 4044 
L 1331 1722 
L 3047 1722 
L 2188 4044 
z
M 1831 4666 
L 2547 4666 
L 4325 0 
L 3669 0 
L 3244 1197 
L 1141 1197 
L 716 0 
L 50 0 
L 1831 4666 
z
" transform="scale(0.015625)"/>
       <path id="DejaVuSans-75" d="M 544 1381 
L 544 3500 
L 1119 3500 
L 1119 1403 
Q 1119 906 1312 657 
Q 1506 409 1894 409 
Q 2359 409 2629 706 
Q 2900 1003 2900 1516 
L 2900 3500 
L 3475 3500 
L 3475 0 
L 2900 0 
L 2900 538 
Q 2691 219 2414 64 
Q 2138 -91 1772 -91 
Q 1169 -91 856 284 
Q 544 659 544 1381 
z
M 1991 3584 
L 1991 3584 
z
" transform="scale(0.015625)"/>
       <path id="DejaVuSans-72" d="M 2631 2963 
Q 2534 3019 2420 3045 
Q 2306 3072 2169 3072 
Q 1681 3072 1420 2755 
Q 1159 2438 1159 1844 
L 1159 0 
L 581 0 
L 581 3500 
L 1159 3500 
L 1159 2956 
Q 1341 3275 1631 3429 
Q 1922 3584 2338 3584 
Q 2397 3584 2469 3576 
Q 2541 3569 2628 3553 
L 2631 2963 
z
" transform="scale(0.015625)"/>
       <path id="DejaVuSans-61" d="M 2194 1759 
Q 1497 1759 1228 1600 
Q 959 1441 959 1056 
Q 959 750 1161 570 
Q 1363 391 1709 391 
Q 2188 391 2477 730 
Q 2766 1069 2766 1631 
L 2766 1759 
L 2194 1759 
z
M 3341 1997 
L 3341 0 
L 2766 0 
L 2766 531 
Q 2569 213 2275 61 
Q 1981 -91 1556 -91 
Q 1019 -91 701 211 
Q 384 513 384 1019 
Q 384 1609 779 1909 
Q 1175 2209 1959 2209 
L 2766 2209 
L 2766 2266 
Q 2766 2663 2505 2880 
Q 2244 3097 1772 3097 
Q 1472 3097 1187 3025 
Q 903 2953 641 2809 
L 641 3341 
Q 956 3463 1253 3523 
Q 1550 3584 1831 3584 
Q 2591 3584 2966 3190 
Q 3341 2797 3341 1997 
z
" transform="scale(0.015625)"/>
       <path id="DejaVuSans-79" d="M 2059 -325 
Q 1816 -950 1584 -1140 
Q 1353 -1331 966 -1331 
L 506 -1331 
L 506 -850 
L 844 -850 
Q 1081 -850 1212 -737 
Q 1344 -625 1503 -206 
L 1606 56 
L 191 3500 
L 800 3500 
L 1894 763 
L 2988 3500 
L 3597 3500 
L 2059 -325 
z
" transform="scale(0.015625)"/>
      </defs>
      <use xlink:href="#DejaVuSans-41"/>
      <use xlink:href="#DejaVuSans-63" x="66.658203"/>
      <use xlink:href="#DejaVuSans-63" x="121.638672"/>
      <use xlink:href="#DejaVuSans-75" x="176.619141"/>
      <use xlink:href="#DejaVuSans-72" x="239.998047"/>
      <use xlink:href="#DejaVuSans-61" x="281.111328"/>
      <use xlink:href="#DejaVuSans-63" x="342.390625"/>
      <use xlink:href="#DejaVuSans-79" x="397.371094"/>
     </g>
    </g>
   </g>
   <g id="line2d_35">
    <path d="M 75.507386 535.173629 
L 78.056496 473.835393 
L 80.605605 456.213015 
L 83.154714 447.700689 
L 85.703823 440.218906 
L 88.252932 432.201238 
L 90.802041 419.133889 
L 93.351151 408.292521 
L 95.90026 401.552732 
L 98.449369 393.535063 
L 100.998478 384.796008 
L 103.547587 379.395945 
L 106.096697 374.387478 
L 108.645806 364.391151 
L 111.194915 361.505617 
L 116.293133 350.561202 
L 118.842242 350.808524 
L 121.391352 347.469546 
L 123.940461 337.535067 
L 129.038679 333.412868 
L 131.587788 332.485387 
L 134.136898 326.034146 
L 136.686007 326.38453 
L 139.235116 322.406619 
L 141.784225 320.056957 
L 144.333334 317.212651 
L 146.882443 311.936255 
L 149.431553 309.462925 
L 151.980662 306.721666 
L 154.529771 304.33079 
L 157.07888 300.80631 
L 159.627989 299.981876 
L 162.177099 298.126885 
L 164.726208 295.509294 
L 167.275317 295.426867 
L 169.824426 291.819933 
L 172.373535 291.057333 
L 174.922644 290.006184 
L 177.471754 285.719104 
L 180.020863 294.025307 
L 182.569972 283.060271 
L 185.119081 284.132041 
L 187.66819 283.20456 
L 192.766409 280.195345 
L 195.315518 278.051805 
L 197.864627 274.115108 
L 200.413736 274.774661 
L 202.962845 277.330418 
L 205.511955 272.960911 
L 208.061064 270.466988 
L 210.610173 273.393749 
L 213.159282 245.960539 
L 215.708391 241.879581 
L 218.257501 240.890238 
L 220.80661 237.365758 
L 223.355719 237.55126 
L 225.904828 236.706205 
L 228.453937 233.985567 
L 231.003046 235.325293 
L 233.552156 231.079427 
L 236.101265 237.695548 
L 238.650374 232.439746 
L 241.199483 232.357291 
L 243.748592 230.337419 
L 246.297702 229.554198 
L 248.846811 233.326014 
L 251.39592 229.080147 
L 253.945029 226.359509 
L 256.494138 226.52439 
L 259.043247 232.336698 
L 261.592357 228.606096 
L 264.141466 225.246526 
L 266.690575 224.710641 
L 269.239684 231.862647 
L 271.788793 224.504518 
L 274.337903 226.81294 
L 276.887012 226.07096 
L 281.98523 222.752602 
L 284.534339 221.680832 
L 287.083448 221.804473 
L 289.632558 220.629655 
L 292.181667 222.278551 
L 294.730776 224.751854 
L 297.279885 223.123578 
L 299.828994 219.537292 
L 302.378104 219.289957 
L 304.927213 217.723515 
L 307.476322 218.321234 
L 310.025431 219.599099 
L 312.57454 219.248716 
L 315.123649 219.578506 
L 317.672759 217.744136 
L 320.221868 219.186882 
L 322.770977 216.136481 
L 325.320086 214.240249 
L 327.869195 220.279272 
L 330.418305 211.416563 
L 332.967414 217.331918 
L 335.516523 215.971572 
L 338.065632 217.249464 
L 340.614741 217.249464 
L 343.163851 213.992941 
L 345.71296 216.260148 
L 348.262069 216.672366 
L 350.811178 213.333388 
L 353.360287 214.755541 
L 355.909396 213.374601 
L 358.458506 216.218907 
L 361.007615 215.229592 
L 363.556724 212.941763 
L 366.105833 212.797503 
L 368.654942 213.766198 
L 371.204052 208.242466 
L 373.753161 209.767695 
L 376.30227 213.353981 
L 378.851379 208.118799 
L 381.400488 214.260869 
L 383.949597 209.252402 
L 386.498707 200.843124 
L 389.047816 206.902768 
L 391.596925 207.685961 
L 394.146034 201.234748 
L 396.695143 205.542421 
L 399.244253 207.294364 
L 401.793362 199.606472 
L 404.342471 202.801162 
L 406.89158 207.191317 
L 409.440689 203.934766 
L 411.989798 202.966071 
L 414.538908 208.139419 
L 417.088017 203.501956 
L 419.637126 204.63556 
L 422.186235 205.150824 
L 424.735344 203.378288 
L 427.284454 205.130204 
L 429.833563 202.574447 
L 432.382672 206.305049 
L 434.931781 201.791226 
L 437.48089 203.687458 
L 440.029999 200.513361 
L 442.579109 199.214876 
L 445.128218 201.152294 
L 447.677327 196.638498 
L 450.226436 198.905706 
L 452.775545 200.34848 
L 455.324655 198.390414 
L 457.873764 203.666837 
L 460.422873 204.30577 
L 462.971982 203.460715 
L 465.521091 200.946199 
L 468.0702 201.646965 
L 470.61931 199.956856 
L 473.168419 200.410314 
L 475.717528 196.0614 
L 478.266637 201.564511 
L 480.815746 201.482084 
L 483.364856 199.895022 
L 485.913965 200.492741 
L 488.463074 200.637029 
L 491.012183 202.759949 
L 493.561292 197.56598 
L 496.110401 198.740825 
L 498.659511 193.691117 
L 501.20862 200.204191 
L 503.757729 196.432376 
L 506.306838 195.75223 
L 508.855947 198.472869 
L 511.405057 195.669776 
L 513.954166 198.060651 
L 516.503275 195.855277 
L 519.052384 194.144575 
L 521.601493 193.835405 
L 524.150602 195.401847 
L 526.699712 197.5866 
L 529.248821 197.524766 
L 531.79793 197.339265 
L 534.347039 197.359885 
L 536.896148 196.49421 
L 539.445258 192.763635 
L 541.994367 200.286646 
L 544.543476 196.432376 
L 547.092585 197.813316 
L 549.641694 195.463681 
L 552.190803 198.349201 
L 554.739913 198.534702 
L 557.289022 200.204191 
L 559.838131 193.196473 
L 562.38724 200.266025 
L 564.936349 200.34848 
L 567.485459 197.112549 
L 570.034568 195.855277 
L 572.583677 201.502677 
L 575.132786 202.553854 
L 577.681895 196.844593 
L 580.231004 194.98963 
L 582.780114 194.68046 
L 582.780114 194.68046 
" clip-path="url(#p42d530a381)" style="fill: none; stroke: #1f77b4; stroke-width: 1.5; stroke-linecap: square"/>
   </g>
   <g id="line2d_36">
    <path d="M 75.507386 551.518125 
L 78.056496 548.364646 
L 80.605605 541.501195 
L 83.154714 519.983344 
L 85.703823 466.930715 
L 88.252932 501.989969 
L 90.802041 436.879928 
L 93.351151 476.020153 
L 95.90026 442.259385 
L 98.449369 435.766931 
L 100.998478 463.406242 
L 103.547587 371.584385 
L 106.096697 408.313128 
L 108.645806 423.89502 
L 111.194915 415.547575 
L 113.744024 387.351779 
L 116.293133 335.783124 
L 118.842242 359.341471 
L 121.391352 313.708791 
L 123.940461 326.137194 
L 126.48957 320.757751 
L 129.038679 320.572249 
L 131.587788 313.894293 
L 134.136898 356.187995 
L 136.686007 262.51114 
L 139.235116 294.602433 
L 141.784225 293.118419 
L 144.333334 320.943225 
L 146.882443 368.059905 
L 149.431553 257.317171 
L 151.980662 326.137194 
L 154.529771 290.335946 
L 157.07888 394.400725 
L 159.627989 311.297295 
L 162.177099 221.144947 
L 164.726208 261.027153 
L 167.275317 368.987401 
L 169.824426 232.645868 
L 172.373535 275.310546 
L 174.922644 277.722042 
L 177.471754 223.92742 
L 180.020863 223.370914 
L 182.569972 263.067645 
L 185.119081 189.610159 
L 187.66819 331.331162 
L 190.2173 210.571508 
L 192.766409 275.310546 
L 195.315518 264.922636 
L 197.864627 273.455583 
L 200.413736 222.999911 
L 202.962845 295.344413 
L 205.511955 299.610872 
L 208.061064 246.001752 
L 210.610173 238.396315 
L 213.159282 102.79679 
L 215.708391 100.941771 
L 218.257501 127.839096 
L 220.80661 150.840938 
L 223.355719 103.353267 
L 225.904828 92.408852 
L 228.453937 105.764764 
L 231.003046 100.941771 
L 233.552156 122.274124 
L 236.101265 111.144179 
L 238.650374 101.127301 
L 241.199483 103.353267 
L 243.748592 126.169607 
L 246.297702 92.223323 
L 248.846811 115.410666 
L 251.39592 122.830629 
L 256.494138 92.96533 
L 259.043247 103.538742 
L 261.592357 98.530275 
L 264.141466 101.312775 
L 266.690575 98.530275 
L 269.239684 85.545367 
L 271.788793 97.23179 
L 274.337903 108.361734 
L 276.887012 84.988889 
L 279.436121 93.892812 
L 281.98523 86.843852 
L 284.534339 86.287374 
L 287.083448 96.118834 
L 289.632558 92.223323 
L 292.181667 87.956863 
L 294.730776 110.216697 
L 297.279885 97.23179 
L 299.828994 90.553834 
L 302.378104 88.884345 
L 304.927213 86.472904 
L 307.476322 86.472904 
L 310.025431 92.223323 
L 312.57454 80.72243 
L 315.123649 115.410666 
L 317.672759 82.206389 
L 320.221868 82.391919 
L 322.770977 93.150804 
L 325.320086 85.545367 
L 327.869195 84.803415 
L 330.418305 83.504874 
L 332.967414 108.361734 
L 335.516523 95.562301 
L 338.065632 79.238415 
L 340.614741 86.1019 
L 343.163851 91.295841 
L 345.71296 91.666845 
L 348.262069 85.174363 
L 350.811178 104.095275 
L 353.360287 91.666845 
L 355.909396 94.449345 
L 358.458506 85.359893 
L 361.007615 81.649911 
L 363.556724 108.361734 
L 366.105833 96.675312 
L 368.654942 107.990731 
L 371.204052 73.116992 
L 373.753161 71.261974 
L 376.30227 107.619727 
L 378.851379 84.432411 
L 381.400488 78.867411 
L 383.949597 65.326025 
L 386.498707 62.358051 
L 389.047816 56.793107 
L 391.596925 59.204548 
L 394.146034 61.059566 
L 396.695143 56.236573 
L 399.244253 53.268599 
L 401.793362 55.309092 
L 404.342471 65.5115 
L 406.89158 56.793107 
L 409.440689 54.938088 
L 411.989798 56.978581 
L 414.538908 60.688562 
L 417.088017 59.575551 
L 419.637126 55.309092 
L 422.186235 55.494566 
L 424.735344 58.091592 
L 427.284454 59.390077 
L 429.833563 59.204548 
L 432.382672 57.720588 
L 434.931781 59.761081 
L 437.48089 54.567084 
L 440.029999 55.680096 
L 442.579109 56.978581 
L 445.128218 58.091592 
L 447.677327 53.825132 
L 450.226436 59.204548 
L 452.775545 55.123618 
L 455.324655 60.132084 
L 457.873764 61.987048 
L 460.422873 50.857103 
L 462.971982 62.358051 
L 465.521091 57.720588 
L 468.0702 56.236573 
L 470.61931 51.228107 
L 473.168419 56.793107 
L 475.717528 56.793107 
L 478.266637 55.86557 
L 480.815746 49.558618 
L 483.364856 56.236573 
L 485.913965 56.422103 
L 488.463074 59.761081 
L 491.012183 55.86557 
L 493.561292 53.454129 
L 496.110401 58.462596 
L 498.659511 53.268599 
L 501.20862 59.019073 
L 503.757729 53.268599 
L 506.306838 54.938088 
L 508.855947 57.535059 
L 511.405057 51.042632 
L 513.954166 54.196081 
L 516.503275 52.341118 
L 519.052384 57.349584 
L 521.601493 53.454129 
L 524.150602 54.938088 
L 526.699712 52.712121 
L 529.248821 50.115151 
L 531.79793 49.373143 
L 534.347039 51.970114 
L 536.896148 53.268599 
L 539.445258 51.042632 
L 541.994367 57.349584 
L 544.543476 54.38161 
L 547.092585 53.825132 
L 549.641694 55.494566 
L 552.190803 54.196081 
L 557.289022 53.083125 
L 559.838131 53.083125 
L 562.38724 47.518125 
L 564.936349 53.083125 
L 567.485459 50.115151 
L 570.034568 51.413636 
L 572.583677 54.010607 
L 575.132786 54.752614 
L 577.681895 54.196081 
L 580.231004 54.010607 
L 582.780114 51.970114 
L 582.780114 51.970114 
" clip-path="url(#p42d530a381)" style="fill: none; stroke: #ff7f0e; stroke-width: 1.5; stroke-linecap: square"/>
   </g>
   <g id="line2d_37">
    <path d="M 50.14375 561.882864 
L 608.14375 561.882864 
" clip-path="url(#p42d530a381)" style="fill: none; stroke-dasharray: 11.1,4.8; stroke-dashoffset: 0; stroke: #ff0000; stroke-width: 3"/>
   </g>
   <g id="patch_3">
    <path d="M 50.14375 576.718125 
L 50.14375 22.318125 
" style="fill: none; stroke: #000000; stroke-width: 0.8; stroke-linejoin: miter; stroke-linecap: square"/>
   </g>
   <g id="patch_4">
    <path d="M 608.14375 576.718125 
L 608.14375 22.318125 
" style="fill: none; stroke: #000000; stroke-width: 0.8; stroke-linejoin: miter; stroke-linecap: square"/>
   </g>
   <g id="patch_5">
    <path d="M 50.14375 576.718125 
L 608.14375 576.718125 
" style="fill: none; stroke: #000000; stroke-width: 0.8; stroke-linejoin: miter; stroke-linecap: square"/>
   </g>
   <g id="patch_6">
    <path d="M 50.14375 22.318125 
L 608.14375 22.318125 
" style="fill: none; stroke: #000000; stroke-width: 0.8; stroke-linejoin: miter; stroke-linecap: square"/>
   </g>
   <g id="text_20">
    <!-- Train and Val Accuracy -->
    <g transform="translate(261.365313 16.318125) scale(0.12 -0.12)">
     <defs>
      <path id="DejaVuSans-54" d="M -19 4666 
L 3928 4666 
L 3928 4134 
L 2272 4134 
L 2272 0 
L 1638 0 
L 1638 4134 
L -19 4134 
L -19 4666 
z
" transform="scale(0.015625)"/>
      <path id="DejaVuSans-69" d="M 603 3500 
L 1178 3500 
L 1178 0 
L 603 0 
L 603 3500 
z
M 603 4863 
L 1178 4863 
L 1178 4134 
L 603 4134 
L 603 4863 
z
" transform="scale(0.015625)"/>
      <path id="DejaVuSans-6e" d="M 3513 2113 
L 3513 0 
L 2938 0 
L 2938 2094 
Q 2938 2591 2744 2837 
Q 2550 3084 2163 3084 
Q 1697 3084 1428 2787 
Q 1159 2491 1159 1978 
L 1159 0 
L 581 0 
L 581 3500 
L 1159 3500 
L 1159 2956 
Q 1366 3272 1645 3428 
Q 1925 3584 2291 3584 
Q 2894 3584 3203 3211 
Q 3513 2838 3513 2113 
z
" transform="scale(0.015625)"/>
      <path id="DejaVuSans-20" transform="scale(0.015625)"/>
      <path id="DejaVuSans-64" d="M 2906 2969 
L 2906 4863 
L 3481 4863 
L 3481 0 
L 2906 0 
L 2906 525 
Q 2725 213 2448 61 
Q 2172 -91 1784 -91 
Q 1150 -91 751 415 
Q 353 922 353 1747 
Q 353 2572 751 3078 
Q 1150 3584 1784 3584 
Q 2172 3584 2448 3432 
Q 2725 3281 2906 2969 
z
M 947 1747 
Q 947 1113 1208 752 
Q 1469 391 1925 391 
Q 2381 391 2643 752 
Q 2906 1113 2906 1747 
Q 2906 2381 2643 2742 
Q 2381 3103 1925 3103 
Q 1469 3103 1208 2742 
Q 947 2381 947 1747 
z
" transform="scale(0.015625)"/>
      <path id="DejaVuSans-56" d="M 1831 0 
L 50 4666 
L 709 4666 
L 2188 738 
L 3669 4666 
L 4325 4666 
L 2547 0 
L 1831 0 
z
" transform="scale(0.015625)"/>
      <path id="DejaVuSans-6c" d="M 603 4863 
L 1178 4863 
L 1178 0 
L 603 0 
L 603 4863 
z
" transform="scale(0.015625)"/>
     </defs>
     <use xlink:href="#DejaVuSans-54"/>
     <use xlink:href="#DejaVuSans-72" x="46.333984"/>
     <use xlink:href="#DejaVuSans-61" x="87.447266"/>
     <use xlink:href="#DejaVuSans-69" x="148.726562"/>
     <use xlink:href="#DejaVuSans-6e" x="176.509766"/>
     <use xlink:href="#DejaVuSans-20" x="239.888672"/>
     <use xlink:href="#DejaVuSans-61" x="271.675781"/>
     <use xlink:href="#DejaVuSans-6e" x="332.955078"/>
     <use xlink:href="#DejaVuSans-64" x="396.333984"/>
     <use xlink:href="#DejaVuSans-20" x="459.810547"/>
     <use xlink:href="#DejaVuSans-56" x="491.597656"/>
     <use xlink:href="#DejaVuSans-61" x="552.255859"/>
     <use xlink:href="#DejaVuSans-6c" x="613.535156"/>
     <use xlink:href="#DejaVuSans-20" x="641.318359"/>
     <use xlink:href="#DejaVuSans-41" x="673.105469"/>
     <use xlink:href="#DejaVuSans-63" x="739.763672"/>
     <use xlink:href="#DejaVuSans-63" x="794.744141"/>
     <use xlink:href="#DejaVuSans-75" x="849.724609"/>
     <use xlink:href="#DejaVuSans-72" x="913.103516"/>
     <use xlink:href="#DejaVuSans-61" x="954.216797"/>
     <use xlink:href="#DejaVuSans-63" x="1015.496094"/>
     <use xlink:href="#DejaVuSans-79" x="1070.476562"/>
    </g>
   </g>
   <g id="legend_1">
    <g id="patch_7">
     <path d="M 57.14375 74.90875 
L 224.267187 74.90875 
Q 226.267187 74.90875 226.267187 72.90875 
L 226.267187 29.318125 
Q 226.267187 27.318125 224.267187 27.318125 
L 57.14375 27.318125 
Q 55.14375 27.318125 55.14375 29.318125 
L 55.14375 72.90875 
Q 55.14375 74.90875 57.14375 74.90875 
z
" style="fill: #ffffff; opacity: 0.8; stroke: #cccccc; stroke-linejoin: miter"/>
    </g>
    <g id="line2d_38">
     <path d="M 59.14375 35.416562 
L 69.14375 35.416562 
L 79.14375 35.416562 
" style="fill: none; stroke: #1f77b4; stroke-width: 1.5; stroke-linecap: square"/>
    </g>
    <g id="text_21">
     <!-- train_accuracy -->
     <g transform="translate(87.14375 38.916562) scale(0.1 -0.1)">
      <defs>
       <path id="DejaVuSans-74" d="M 1172 4494 
L 1172 3500 
L 2356 3500 
L 2356 3053 
L 1172 3053 
L 1172 1153 
Q 1172 725 1289 603 
Q 1406 481 1766 481 
L 2356 481 
L 2356 0 
L 1766 0 
Q 1100 0 847 248 
Q 594 497 594 1153 
L 594 3053 
L 172 3053 
L 172 3500 
L 594 3500 
L 594 4494 
L 1172 4494 
z
" transform="scale(0.015625)"/>
       <path id="DejaVuSans-5f" d="M 3263 -1063 
L 3263 -1509 
L -63 -1509 
L -63 -1063 
L 3263 -1063 
z
" transform="scale(0.015625)"/>
      </defs>
      <use xlink:href="#DejaVuSans-74"/>
      <use xlink:href="#DejaVuSans-72" x="39.208984"/>
      <use xlink:href="#DejaVuSans-61" x="80.322266"/>
      <use xlink:href="#DejaVuSans-69" x="141.601562"/>
      <use xlink:href="#DejaVuSans-6e" x="169.384766"/>
      <use xlink:href="#DejaVuSans-5f" x="232.763672"/>
      <use xlink:href="#DejaVuSans-61" x="282.763672"/>
      <use xlink:href="#DejaVuSans-63" x="344.042969"/>
      <use xlink:href="#DejaVuSans-63" x="399.023438"/>
      <use xlink:href="#DejaVuSans-75" x="454.003906"/>
      <use xlink:href="#DejaVuSans-72" x="517.382812"/>
      <use xlink:href="#DejaVuSans-61" x="558.496094"/>
      <use xlink:href="#DejaVuSans-63" x="619.775391"/>
      <use xlink:href="#DejaVuSans-79" x="674.755859"/>
     </g>
    </g>
    <g id="line2d_39">
     <path d="M 59.14375 50.372812 
L 69.14375 50.372812 
L 79.14375 50.372812 
" style="fill: none; stroke: #ff7f0e; stroke-width: 1.5; stroke-linecap: square"/>
    </g>
    <g id="text_22">
     <!-- val_accuracy -->
     <g transform="translate(87.14375 53.872812) scale(0.1 -0.1)">
      <defs>
       <path id="DejaVuSans-76" d="M 191 3500 
L 800 3500 
L 1894 563 
L 2988 3500 
L 3597 3500 
L 2284 0 
L 1503 0 
L 191 3500 
z
" transform="scale(0.015625)"/>
      </defs>
      <use xlink:href="#DejaVuSans-76"/>
      <use xlink:href="#DejaVuSans-61" x="59.179688"/>
      <use xlink:href="#DejaVuSans-6c" x="120.458984"/>
      <use xlink:href="#DejaVuSans-5f" x="148.242188"/>
      <use xlink:href="#DejaVuSans-61" x="198.242188"/>
      <use xlink:href="#DejaVuSans-63" x="259.521484"/>
      <use xlink:href="#DejaVuSans-63" x="314.501953"/>
      <use xlink:href="#DejaVuSans-75" x="369.482422"/>
      <use xlink:href="#DejaVuSans-72" x="432.861328"/>
      <use xlink:href="#DejaVuSans-61" x="473.974609"/>
      <use xlink:href="#DejaVuSans-63" x="535.253906"/>
      <use xlink:href="#DejaVuSans-79" x="590.234375"/>
     </g>
    </g>
    <g id="line2d_40">
     <path d="M 59.14375 65.329062 
L 69.14375 65.329062 
L 79.14375 65.329062 
" style="fill: none; stroke-dasharray: 11.1,4.8; stroke-dashoffset: 0; stroke: #ff0000; stroke-width: 3"/>
    </g>
    <g id="text_23">
     <!-- Random-Guesser Accuracy -->
     <g transform="translate(87.14375 68.829062) scale(0.1 -0.1)">
      <defs>
       <path id="DejaVuSans-52" d="M 2841 2188 
Q 3044 2119 3236 1894 
Q 3428 1669 3622 1275 
L 4263 0 
L 3584 0 
L 2988 1197 
Q 2756 1666 2539 1819 
Q 2322 1972 1947 1972 
L 1259 1972 
L 1259 0 
L 628 0 
L 628 4666 
L 2053 4666 
Q 2853 4666 3247 4331 
Q 3641 3997 3641 3322 
Q 3641 2881 3436 2590 
Q 3231 2300 2841 2188 
z
M 1259 4147 
L 1259 2491 
L 2053 2491 
Q 2509 2491 2742 2702 
Q 2975 2913 2975 3322 
Q 2975 3731 2742 3939 
Q 2509 4147 2053 4147 
L 1259 4147 
z
" transform="scale(0.015625)"/>
       <path id="DejaVuSans-6d" d="M 3328 2828 
Q 3544 3216 3844 3400 
Q 4144 3584 4550 3584 
Q 5097 3584 5394 3201 
Q 5691 2819 5691 2113 
L 5691 0 
L 5113 0 
L 5113 2094 
Q 5113 2597 4934 2840 
Q 4756 3084 4391 3084 
Q 3944 3084 3684 2787 
Q 3425 2491 3425 1978 
L 3425 0 
L 2847 0 
L 2847 2094 
Q 2847 2600 2669 2842 
Q 2491 3084 2119 3084 
Q 1678 3084 1418 2786 
Q 1159 2488 1159 1978 
L 1159 0 
L 581 0 
L 581 3500 
L 1159 3500 
L 1159 2956 
Q 1356 3278 1631 3431 
Q 1906 3584 2284 3584 
Q 2666 3584 2933 3390 
Q 3200 3197 3328 2828 
z
" transform="scale(0.015625)"/>
       <path id="DejaVuSans-2d" d="M 313 2009 
L 1997 2009 
L 1997 1497 
L 313 1497 
L 313 2009 
z
" transform="scale(0.015625)"/>
       <path id="DejaVuSans-47" d="M 3809 666 
L 3809 1919 
L 2778 1919 
L 2778 2438 
L 4434 2438 
L 4434 434 
Q 4069 175 3628 42 
Q 3188 -91 2688 -91 
Q 1594 -91 976 548 
Q 359 1188 359 2328 
Q 359 3472 976 4111 
Q 1594 4750 2688 4750 
Q 3144 4750 3555 4637 
Q 3966 4525 4313 4306 
L 4313 3634 
Q 3963 3931 3569 4081 
Q 3175 4231 2741 4231 
Q 1884 4231 1454 3753 
Q 1025 3275 1025 2328 
Q 1025 1384 1454 906 
Q 1884 428 2741 428 
Q 3075 428 3337 486 
Q 3600 544 3809 666 
z
" transform="scale(0.015625)"/>
       <path id="DejaVuSans-65" d="M 3597 1894 
L 3597 1613 
L 953 1613 
Q 991 1019 1311 708 
Q 1631 397 2203 397 
Q 2534 397 2845 478 
Q 3156 559 3463 722 
L 3463 178 
Q 3153 47 2828 -22 
Q 2503 -91 2169 -91 
Q 1331 -91 842 396 
Q 353 884 353 1716 
Q 353 2575 817 3079 
Q 1281 3584 2069 3584 
Q 2775 3584 3186 3129 
Q 3597 2675 3597 1894 
z
M 3022 2063 
Q 3016 2534 2758 2815 
Q 2500 3097 2075 3097 
Q 1594 3097 1305 2825 
Q 1016 2553 972 2059 
L 3022 2063 
z
" transform="scale(0.015625)"/>
      </defs>
      <use xlink:href="#DejaVuSans-52"/>
      <use xlink:href="#DejaVuSans-61" x="67.232422"/>
      <use xlink:href="#DejaVuSans-6e" x="128.511719"/>
      <use xlink:href="#DejaVuSans-64" x="191.890625"/>
      <use xlink:href="#DejaVuSans-6f" x="255.367188"/>
      <use xlink:href="#DejaVuSans-6d" x="316.548828"/>
      <use xlink:href="#DejaVuSans-2d" x="413.960938"/>
      <use xlink:href="#DejaVuSans-47" x="453.669922"/>
      <use xlink:href="#DejaVuSans-75" x="531.160156"/>
      <use xlink:href="#DejaVuSans-65" x="594.539062"/>
      <use xlink:href="#DejaVuSans-73" x="656.0625"/>
      <use xlink:href="#DejaVuSans-73" x="708.162109"/>
      <use xlink:href="#DejaVuSans-65" x="760.261719"/>
      <use xlink:href="#DejaVuSans-72" x="821.785156"/>
      <use xlink:href="#DejaVuSans-20" x="862.898438"/>
      <use xlink:href="#DejaVuSans-41" x="894.685547"/>
      <use xlink:href="#DejaVuSans-63" x="961.34375"/>
      <use xlink:href="#DejaVuSans-63" x="1016.324219"/>
      <use xlink:href="#DejaVuSans-75" x="1071.304688"/>
      <use xlink:href="#DejaVuSans-72" x="1134.683594"/>
      <use xlink:href="#DejaVuSans-61" x="1175.796875"/>
      <use xlink:href="#DejaVuSans-63" x="1237.076172"/>
      <use xlink:href="#DejaVuSans-79" x="1292.056641"/>
     </g>
    </g>
   </g>
  </g>
 </g>
 <defs>
  <clipPath id="p42d530a381">
   <rect x="50.14375" y="22.318125" width="558" height="554.4"/>
  </clipPath>
 </defs>
</svg>
