<?xml version="1.0" encoding="utf-8" standalone="no"?>
<!DOCTYPE svg PUBLIC "-//W3C//DTD SVG 1.1//EN"
  "http://www.w3.org/Graphics/SVG/1.1/DTD/svg11.dtd">
<svg xmlns:xlink="http://www.w3.org/1999/xlink" width="891.165625pt" height="503.394375pt" viewBox="0 0 891.165625 503.394375" xmlns="http://www.w3.org/2000/svg" version="1.1">
 <metadata>
  <rdf:RDF xmlns:dc="http://purl.org/dc/elements/1.1/" xmlns:cc="http://creativecommons.org/ns#" xmlns:rdf="http://www.w3.org/1999/02/22-rdf-syntax-ns#">
   <cc:Work>
    <dc:type rdf:resource="http://purl.org/dc/dcmitype/StillImage"/>
    <dc:date>2024-08-07T02:59:05.478300</dc:date>
    <dc:format>image/svg+xml</dc:format>
    <dc:creator>
     <cc:Agent>
      <dc:title>Matplotlib v3.8.0, https://matplotlib.org/</dc:title>
     </cc:Agent>
    </dc:creator>
   </cc:Work>
  </rdf:RDF>
 </metadata>
 <defs>
  <style type="text/css">*{stroke-linejoin: round; stroke-linecap: butt}</style>
 </defs>
 <g id="figure_1">
  <g id="patch_1">
   <path d="M 0 503.394375 
L 891.165625 503.394375 
L 891.165625 0 
L 0 0 
z
" style="fill: #ffffff"/>
  </g>
  <g id="axes_1">
   <g id="patch_2">
    <path d="M 46.965625 465.838125 
L 883.965625 465.838125 
L 883.965625 22.318125 
L 46.965625 22.318125 
z
" style="fill: #ffffff"/>
   </g>
   <g id="matplotlib.axis_1">
    <g id="xtick_1">
     <g id="line2d_1">
      <path d="M 85.01108 465.838125 
L 85.01108 22.318125 
" clip-path="url(#pa7d62f3502)" style="fill: none; stroke: #b0b0b0; stroke-width: 0.8; stroke-linecap: square"/>
     </g>
     <g id="line2d_2">
      <defs>
       <path id="mb007433ff0" d="M 0 0 
L 0 3.5 
" style="stroke: #000000; stroke-width: 0.8"/>
      </defs>
      <g>
       <use xlink:href="#mb007433ff0" x="85.01108" y="465.838125" style="stroke: #000000; stroke-width: 0.8"/>
      </g>
     </g>
     <g id="text_1">
      <!-- 0 -->
      <g transform="translate(81.82983 480.436562) scale(0.1 -0.1)">
       <defs>
        <path id="DejaVuSans-30" d="M 2034 4250 
Q 1547 4250 1301 3770 
Q 1056 3291 1056 2328 
Q 1056 1369 1301 889 
Q 1547 409 2034 409 
Q 2525 409 2770 889 
Q 3016 1369 3016 2328 
Q 3016 3291 2770 3770 
Q 2525 4250 2034 4250 
z
M 2034 4750 
Q 2819 4750 3233 4129 
Q 3647 3509 3647 2328 
Q 3647 1150 3233 529 
Q 2819 -91 2034 -91 
Q 1250 -91 836 529 
Q 422 1150 422 2328 
Q 422 3509 836 4129 
Q 1250 4750 2034 4750 
z
" transform="scale(0.015625)"/>
       </defs>
       <use xlink:href="#DejaVuSans-30"/>
      </g>
     </g>
    </g>
    <g id="xtick_2">
     <g id="line2d_3">
      <path d="M 161.870584 465.838125 
L 161.870584 22.318125 
" clip-path="url(#pa7d62f3502)" style="fill: none; stroke: #b0b0b0; stroke-width: 0.8; stroke-linecap: square"/>
     </g>
     <g id="line2d_4">
      <g>
       <use xlink:href="#mb007433ff0" x="161.870584" y="465.838125" style="stroke: #000000; stroke-width: 0.8"/>
      </g>
     </g>
     <g id="text_2">
      <!-- 10 -->
      <g transform="translate(155.508084 480.436562) scale(0.1 -0.1)">
       <defs>
        <path id="DejaVuSans-31" d="M 794 531 
L 1825 531 
L 1825 4091 
L 703 3866 
L 703 4441 
L 1819 4666 
L 2450 4666 
L 2450 531 
L 3481 531 
L 3481 0 
L 794 0 
L 794 531 
z
" transform="scale(0.015625)"/>
       </defs>
       <use xlink:href="#DejaVuSans-31"/>
       <use xlink:href="#DejaVuSans-30" x="63.623047"/>
      </g>
     </g>
    </g>
    <g id="xtick_3">
     <g id="line2d_5">
      <path d="M 238.730088 465.838125 
L 238.730088 22.318125 
" clip-path="url(#pa7d62f3502)" style="fill: none; stroke: #b0b0b0; stroke-width: 0.8; stroke-linecap: square"/>
     </g>
     <g id="line2d_6">
      <g>
       <use xlink:href="#mb007433ff0" x="238.730088" y="465.838125" style="stroke: #000000; stroke-width: 0.8"/>
      </g>
     </g>
     <g id="text_3">
      <!-- 20 -->
      <g transform="translate(232.367588 480.436562) scale(0.1 -0.1)">
       <defs>
        <path id="DejaVuSans-32" d="M 1228 531 
L 3431 531 
L 3431 0 
L 469 0 
L 469 531 
Q 828 903 1448 1529 
Q 2069 2156 2228 2338 
Q 2531 2678 2651 2914 
Q 2772 3150 2772 3378 
Q 2772 3750 2511 3984 
Q 2250 4219 1831 4219 
Q 1534 4219 1204 4116 
Q 875 4013 500 3803 
L 500 4441 
Q 881 4594 1212 4672 
Q 1544 4750 1819 4750 
Q 2544 4750 2975 4387 
Q 3406 4025 3406 3419 
Q 3406 3131 3298 2873 
Q 3191 2616 2906 2266 
Q 2828 2175 2409 1742 
Q 1991 1309 1228 531 
z
" transform="scale(0.015625)"/>
       </defs>
       <use xlink:href="#DejaVuSans-32"/>
       <use xlink:href="#DejaVuSans-30" x="63.623047"/>
      </g>
     </g>
    </g>
    <g id="xtick_4">
     <g id="line2d_7">
      <path d="M 315.589592 465.838125 
L 315.589592 22.318125 
" clip-path="url(#pa7d62f3502)" style="fill: none; stroke: #b0b0b0; stroke-width: 0.8; stroke-linecap: square"/>
     </g>
     <g id="line2d_8">
      <g>
       <use xlink:href="#mb007433ff0" x="315.589592" y="465.838125" style="stroke: #000000; stroke-width: 0.8"/>
      </g>
     </g>
     <g id="text_4">
      <!-- 30 -->
      <g transform="translate(309.227092 480.436562) scale(0.1 -0.1)">
       <defs>
        <path id="DejaVuSans-33" d="M 2597 2516 
Q 3050 2419 3304 2112 
Q 3559 1806 3559 1356 
Q 3559 666 3084 287 
Q 2609 -91 1734 -91 
Q 1441 -91 1130 -33 
Q 819 25 488 141 
L 488 750 
Q 750 597 1062 519 
Q 1375 441 1716 441 
Q 2309 441 2620 675 
Q 2931 909 2931 1356 
Q 2931 1769 2642 2001 
Q 2353 2234 1838 2234 
L 1294 2234 
L 1294 2753 
L 1863 2753 
Q 2328 2753 2575 2939 
Q 2822 3125 2822 3475 
Q 2822 3834 2567 4026 
Q 2313 4219 1838 4219 
Q 1578 4219 1281 4162 
Q 984 4106 628 3988 
L 628 4550 
Q 988 4650 1302 4700 
Q 1616 4750 1894 4750 
Q 2613 4750 3031 4423 
Q 3450 4097 3450 3541 
Q 3450 3153 3228 2886 
Q 3006 2619 2597 2516 
z
" transform="scale(0.015625)"/>
       </defs>
       <use xlink:href="#DejaVuSans-33"/>
       <use xlink:href="#DejaVuSans-30" x="63.623047"/>
      </g>
     </g>
    </g>
    <g id="xtick_5">
     <g id="line2d_9">
      <path d="M 392.449096 465.838125 
L 392.449096 22.318125 
" clip-path="url(#pa7d62f3502)" style="fill: none; stroke: #b0b0b0; stroke-width: 0.8; stroke-linecap: square"/>
     </g>
     <g id="line2d_10">
      <g>
       <use xlink:href="#mb007433ff0" x="392.449096" y="465.838125" style="stroke: #000000; stroke-width: 0.8"/>
      </g>
     </g>
     <g id="text_5">
      <!-- 40 -->
      <g transform="translate(386.086596 480.436562) scale(0.1 -0.1)">
       <defs>
        <path id="DejaVuSans-34" d="M 2419 4116 
L 825 1625 
L 2419 1625 
L 2419 4116 
z
M 2253 4666 
L 3047 4666 
L 3047 1625 
L 3713 1625 
L 3713 1100 
L 3047 1100 
L 3047 0 
L 2419 0 
L 2419 1100 
L 313 1100 
L 313 1709 
L 2253 4666 
z
" transform="scale(0.015625)"/>
       </defs>
       <use xlink:href="#DejaVuSans-34"/>
       <use xlink:href="#DejaVuSans-30" x="63.623047"/>
      </g>
     </g>
    </g>
    <g id="xtick_6">
     <g id="line2d_11">
      <path d="M 469.3086 465.838125 
L 469.3086 22.318125 
" clip-path="url(#pa7d62f3502)" style="fill: none; stroke: #b0b0b0; stroke-width: 0.8; stroke-linecap: square"/>
     </g>
     <g id="line2d_12">
      <g>
       <use xlink:href="#mb007433ff0" x="469.3086" y="465.838125" style="stroke: #000000; stroke-width: 0.8"/>
      </g>
     </g>
     <g id="text_6">
      <!-- 50 -->
      <g transform="translate(462.9461 480.436562) scale(0.1 -0.1)">
       <defs>
        <path id="DejaVuSans-35" d="M 691 4666 
L 3169 4666 
L 3169 4134 
L 1269 4134 
L 1269 2991 
Q 1406 3038 1543 3061 
Q 1681 3084 1819 3084 
Q 2600 3084 3056 2656 
Q 3513 2228 3513 1497 
Q 3513 744 3044 326 
Q 2575 -91 1722 -91 
Q 1428 -91 1123 -41 
Q 819 9 494 109 
L 494 744 
Q 775 591 1075 516 
Q 1375 441 1709 441 
Q 2250 441 2565 725 
Q 2881 1009 2881 1497 
Q 2881 1984 2565 2268 
Q 2250 2553 1709 2553 
Q 1456 2553 1204 2497 
Q 953 2441 691 2322 
L 691 4666 
z
" transform="scale(0.015625)"/>
       </defs>
       <use xlink:href="#DejaVuSans-35"/>
       <use xlink:href="#DejaVuSans-30" x="63.623047"/>
      </g>
     </g>
    </g>
    <g id="xtick_7">
     <g id="line2d_13">
      <path d="M 546.168104 465.838125 
L 546.168104 22.318125 
" clip-path="url(#pa7d62f3502)" style="fill: none; stroke: #b0b0b0; stroke-width: 0.8; stroke-linecap: square"/>
     </g>
     <g id="line2d_14">
      <g>
       <use xlink:href="#mb007433ff0" x="546.168104" y="465.838125" style="stroke: #000000; stroke-width: 0.8"/>
      </g>
     </g>
     <g id="text_7">
      <!-- 60 -->
      <g transform="translate(539.805604 480.436562) scale(0.1 -0.1)">
       <defs>
        <path id="DejaVuSans-36" d="M 2113 2584 
Q 1688 2584 1439 2293 
Q 1191 2003 1191 1497 
Q 1191 994 1439 701 
Q 1688 409 2113 409 
Q 2538 409 2786 701 
Q 3034 994 3034 1497 
Q 3034 2003 2786 2293 
Q 2538 2584 2113 2584 
z
M 3366 4563 
L 3366 3988 
Q 3128 4100 2886 4159 
Q 2644 4219 2406 4219 
Q 1781 4219 1451 3797 
Q 1122 3375 1075 2522 
Q 1259 2794 1537 2939 
Q 1816 3084 2150 3084 
Q 2853 3084 3261 2657 
Q 3669 2231 3669 1497 
Q 3669 778 3244 343 
Q 2819 -91 2113 -91 
Q 1303 -91 875 529 
Q 447 1150 447 2328 
Q 447 3434 972 4092 
Q 1497 4750 2381 4750 
Q 2619 4750 2861 4703 
Q 3103 4656 3366 4563 
z
" transform="scale(0.015625)"/>
       </defs>
       <use xlink:href="#DejaVuSans-36"/>
       <use xlink:href="#DejaVuSans-30" x="63.623047"/>
      </g>
     </g>
    </g>
    <g id="xtick_8">
     <g id="line2d_15">
      <path d="M 623.027608 465.838125 
L 623.027608 22.318125 
" clip-path="url(#pa7d62f3502)" style="fill: none; stroke: #b0b0b0; stroke-width: 0.8; stroke-linecap: square"/>
     </g>
     <g id="line2d_16">
      <g>
       <use xlink:href="#mb007433ff0" x="623.027608" y="465.838125" style="stroke: #000000; stroke-width: 0.8"/>
      </g>
     </g>
     <g id="text_8">
      <!-- 70 -->
      <g transform="translate(616.665108 480.436562) scale(0.1 -0.1)">
       <defs>
        <path id="DejaVuSans-37" d="M 525 4666 
L 3525 4666 
L 3525 4397 
L 1831 0 
L 1172 0 
L 2766 4134 
L 525 4134 
L 525 4666 
z
" transform="scale(0.015625)"/>
       </defs>
       <use xlink:href="#DejaVuSans-37"/>
       <use xlink:href="#DejaVuSans-30" x="63.623047"/>
      </g>
     </g>
    </g>
    <g id="xtick_9">
     <g id="line2d_17">
      <path d="M 699.887113 465.838125 
L 699.887113 22.318125 
" clip-path="url(#pa7d62f3502)" style="fill: none; stroke: #b0b0b0; stroke-width: 0.8; stroke-linecap: square"/>
     </g>
     <g id="line2d_18">
      <g>
       <use xlink:href="#mb007433ff0" x="699.887113" y="465.838125" style="stroke: #000000; stroke-width: 0.8"/>
      </g>
     </g>
     <g id="text_9">
      <!-- 80 -->
      <g transform="translate(693.524613 480.436562) scale(0.1 -0.1)">
       <defs>
        <path id="DejaVuSans-38" d="M 2034 2216 
Q 1584 2216 1326 1975 
Q 1069 1734 1069 1313 
Q 1069 891 1326 650 
Q 1584 409 2034 409 
Q 2484 409 2743 651 
Q 3003 894 3003 1313 
Q 3003 1734 2745 1975 
Q 2488 2216 2034 2216 
z
M 1403 2484 
Q 997 2584 770 2862 
Q 544 3141 544 3541 
Q 544 4100 942 4425 
Q 1341 4750 2034 4750 
Q 2731 4750 3128 4425 
Q 3525 4100 3525 3541 
Q 3525 3141 3298 2862 
Q 3072 2584 2669 2484 
Q 3125 2378 3379 2068 
Q 3634 1759 3634 1313 
Q 3634 634 3220 271 
Q 2806 -91 2034 -91 
Q 1263 -91 848 271 
Q 434 634 434 1313 
Q 434 1759 690 2068 
Q 947 2378 1403 2484 
z
M 1172 3481 
Q 1172 3119 1398 2916 
Q 1625 2713 2034 2713 
Q 2441 2713 2670 2916 
Q 2900 3119 2900 3481 
Q 2900 3844 2670 4047 
Q 2441 4250 2034 4250 
Q 1625 4250 1398 4047 
Q 1172 3844 1172 3481 
z
" transform="scale(0.015625)"/>
       </defs>
       <use xlink:href="#DejaVuSans-38"/>
       <use xlink:href="#DejaVuSans-30" x="63.623047"/>
      </g>
     </g>
    </g>
    <g id="xtick_10">
     <g id="line2d_19">
      <path d="M 776.746617 465.838125 
L 776.746617 22.318125 
" clip-path="url(#pa7d62f3502)" style="fill: none; stroke: #b0b0b0; stroke-width: 0.8; stroke-linecap: square"/>
     </g>
     <g id="line2d_20">
      <g>
       <use xlink:href="#mb007433ff0" x="776.746617" y="465.838125" style="stroke: #000000; stroke-width: 0.8"/>
      </g>
     </g>
     <g id="text_10">
      <!-- 90 -->
      <g transform="translate(770.384117 480.436562) scale(0.1 -0.1)">
       <defs>
        <path id="DejaVuSans-39" d="M 703 97 
L 703 672 
Q 941 559 1184 500 
Q 1428 441 1663 441 
Q 2288 441 2617 861 
Q 2947 1281 2994 2138 
Q 2813 1869 2534 1725 
Q 2256 1581 1919 1581 
Q 1219 1581 811 2004 
Q 403 2428 403 3163 
Q 403 3881 828 4315 
Q 1253 4750 1959 4750 
Q 2769 4750 3195 4129 
Q 3622 3509 3622 2328 
Q 3622 1225 3098 567 
Q 2575 -91 1691 -91 
Q 1453 -91 1209 -44 
Q 966 3 703 97 
z
M 1959 2075 
Q 2384 2075 2632 2365 
Q 2881 2656 2881 3163 
Q 2881 3666 2632 3958 
Q 2384 4250 1959 4250 
Q 1534 4250 1286 3958 
Q 1038 3666 1038 3163 
Q 1038 2656 1286 2365 
Q 1534 2075 1959 2075 
z
" transform="scale(0.015625)"/>
       </defs>
       <use xlink:href="#DejaVuSans-39"/>
       <use xlink:href="#DejaVuSans-30" x="63.623047"/>
      </g>
     </g>
    </g>
    <g id="xtick_11">
     <g id="line2d_21">
      <path d="M 853.606121 465.838125 
L 853.606121 22.318125 
" clip-path="url(#pa7d62f3502)" style="fill: none; stroke: #b0b0b0; stroke-width: 0.8; stroke-linecap: square"/>
     </g>
     <g id="line2d_22">
      <g>
       <use xlink:href="#mb007433ff0" x="853.606121" y="465.838125" style="stroke: #000000; stroke-width: 0.8"/>
      </g>
     </g>
     <g id="text_11">
      <!-- 100 -->
      <g transform="translate(844.062371 480.436562) scale(0.1 -0.1)">
       <use xlink:href="#DejaVuSans-31"/>
       <use xlink:href="#DejaVuSans-30" x="63.623047"/>
       <use xlink:href="#DejaVuSans-30" x="127.246094"/>
      </g>
     </g>
    </g>
    <g id="text_12">
     <!-- Number of traces -->
     <g transform="translate(421.871875 494.114687) scale(0.1 -0.1)">
      <defs>
       <path id="DejaVuSans-4e" d="M 628 4666 
L 1478 4666 
L 3547 763 
L 3547 4666 
L 4159 4666 
L 4159 0 
L 3309 0 
L 1241 3903 
L 1241 0 
L 628 0 
L 628 4666 
z
" transform="scale(0.015625)"/>
       <path id="DejaVuSans-75" d="M 544 1381 
L 544 3500 
L 1119 3500 
L 1119 1403 
Q 1119 906 1312 657 
Q 1506 409 1894 409 
Q 2359 409 2629 706 
Q 2900 1003 2900 1516 
L 2900 3500 
L 3475 3500 
L 3475 0 
L 2900 0 
L 2900 538 
Q 2691 219 2414 64 
Q 2138 -91 1772 -91 
Q 1169 -91 856 284 
Q 544 659 544 1381 
z
M 1991 3584 
L 1991 3584 
z
" transform="scale(0.015625)"/>
       <path id="DejaVuSans-6d" d="M 3328 2828 
Q 3544 3216 3844 3400 
Q 4144 3584 4550 3584 
Q 5097 3584 5394 3201 
Q 5691 2819 5691 2113 
L 5691 0 
L 5113 0 
L 5113 2094 
Q 5113 2597 4934 2840 
Q 4756 3084 4391 3084 
Q 3944 3084 3684 2787 
Q 3425 2491 3425 1978 
L 3425 0 
L 2847 0 
L 2847 2094 
Q 2847 2600 2669 2842 
Q 2491 3084 2119 3084 
Q 1678 3084 1418 2786 
Q 1159 2488 1159 1978 
L 1159 0 
L 581 0 
L 581 3500 
L 1159 3500 
L 1159 2956 
Q 1356 3278 1631 3431 
Q 1906 3584 2284 3584 
Q 2666 3584 2933 3390 
Q 3200 3197 3328 2828 
z
" transform="scale(0.015625)"/>
       <path id="DejaVuSans-62" d="M 3116 1747 
Q 3116 2381 2855 2742 
Q 2594 3103 2138 3103 
Q 1681 3103 1420 2742 
Q 1159 2381 1159 1747 
Q 1159 1113 1420 752 
Q 1681 391 2138 391 
Q 2594 391 2855 752 
Q 3116 1113 3116 1747 
z
M 1159 2969 
Q 1341 3281 1617 3432 
Q 1894 3584 2278 3584 
Q 2916 3584 3314 3078 
Q 3713 2572 3713 1747 
Q 3713 922 3314 415 
Q 2916 -91 2278 -91 
Q 1894 -91 1617 61 
Q 1341 213 1159 525 
L 1159 0 
L 581 0 
L 581 4863 
L 1159 4863 
L 1159 2969 
z
" transform="scale(0.015625)"/>
       <path id="DejaVuSans-65" d="M 3597 1894 
L 3597 1613 
L 953 1613 
Q 991 1019 1311 708 
Q 1631 397 2203 397 
Q 2534 397 2845 478 
Q 3156 559 3463 722 
L 3463 178 
Q 3153 47 2828 -22 
Q 2503 -91 2169 -91 
Q 1331 -91 842 396 
Q 353 884 353 1716 
Q 353 2575 817 3079 
Q 1281 3584 2069 3584 
Q 2775 3584 3186 3129 
Q 3597 2675 3597 1894 
z
M 3022 2063 
Q 3016 2534 2758 2815 
Q 2500 3097 2075 3097 
Q 1594 3097 1305 2825 
Q 1016 2553 972 2059 
L 3022 2063 
z
" transform="scale(0.015625)"/>
       <path id="DejaVuSans-72" d="M 2631 2963 
Q 2534 3019 2420 3045 
Q 2306 3072 2169 3072 
Q 1681 3072 1420 2755 
Q 1159 2438 1159 1844 
L 1159 0 
L 581 0 
L 581 3500 
L 1159 3500 
L 1159 2956 
Q 1341 3275 1631 3429 
Q 1922 3584 2338 3584 
Q 2397 3584 2469 3576 
Q 2541 3569 2628 3553 
L 2631 2963 
z
" transform="scale(0.015625)"/>
       <path id="DejaVuSans-20" transform="scale(0.015625)"/>
       <path id="DejaVuSans-6f" d="M 1959 3097 
Q 1497 3097 1228 2736 
Q 959 2375 959 1747 
Q 959 1119 1226 758 
Q 1494 397 1959 397 
Q 2419 397 2687 759 
Q 2956 1122 2956 1747 
Q 2956 2369 2687 2733 
Q 2419 3097 1959 3097 
z
M 1959 3584 
Q 2709 3584 3137 3096 
Q 3566 2609 3566 1747 
Q 3566 888 3137 398 
Q 2709 -91 1959 -91 
Q 1206 -91 779 398 
Q 353 888 353 1747 
Q 353 2609 779 3096 
Q 1206 3584 1959 3584 
z
" transform="scale(0.015625)"/>
       <path id="DejaVuSans-66" d="M 2375 4863 
L 2375 4384 
L 1825 4384 
Q 1516 4384 1395 4259 
Q 1275 4134 1275 3809 
L 1275 3500 
L 2222 3500 
L 2222 3053 
L 1275 3053 
L 1275 0 
L 697 0 
L 697 3053 
L 147 3053 
L 147 3500 
L 697 3500 
L 697 3744 
Q 697 4328 969 4595 
Q 1241 4863 1831 4863 
L 2375 4863 
z
" transform="scale(0.015625)"/>
       <path id="DejaVuSans-74" d="M 1172 4494 
L 1172 3500 
L 2356 3500 
L 2356 3053 
L 1172 3053 
L 1172 1153 
Q 1172 725 1289 603 
Q 1406 481 1766 481 
L 2356 481 
L 2356 0 
L 1766 0 
Q 1100 0 847 248 
Q 594 497 594 1153 
L 594 3053 
L 172 3053 
L 172 3500 
L 594 3500 
L 594 4494 
L 1172 4494 
z
" transform="scale(0.015625)"/>
       <path id="DejaVuSans-61" d="M 2194 1759 
Q 1497 1759 1228 1600 
Q 959 1441 959 1056 
Q 959 750 1161 570 
Q 1363 391 1709 391 
Q 2188 391 2477 730 
Q 2766 1069 2766 1631 
L 2766 1759 
L 2194 1759 
z
M 3341 1997 
L 3341 0 
L 2766 0 
L 2766 531 
Q 2569 213 2275 61 
Q 1981 -91 1556 -91 
Q 1019 -91 701 211 
Q 384 513 384 1019 
Q 384 1609 779 1909 
Q 1175 2209 1959 2209 
L 2766 2209 
L 2766 2266 
Q 2766 2663 2505 2880 
Q 2244 3097 1772 3097 
Q 1472 3097 1187 3025 
Q 903 2953 641 2809 
L 641 3341 
Q 956 3463 1253 3523 
Q 1550 3584 1831 3584 
Q 2591 3584 2966 3190 
Q 3341 2797 3341 1997 
z
" transform="scale(0.015625)"/>
       <path id="DejaVuSans-63" d="M 3122 3366 
L 3122 2828 
Q 2878 2963 2633 3030 
Q 2388 3097 2138 3097 
Q 1578 3097 1268 2742 
Q 959 2388 959 1747 
Q 959 1106 1268 751 
Q 1578 397 2138 397 
Q 2388 397 2633 464 
Q 2878 531 3122 666 
L 3122 134 
Q 2881 22 2623 -34 
Q 2366 -91 2075 -91 
Q 1284 -91 818 406 
Q 353 903 353 1747 
Q 353 2603 823 3093 
Q 1294 3584 2113 3584 
Q 2378 3584 2631 3529 
Q 2884 3475 3122 3366 
z
" transform="scale(0.015625)"/>
       <path id="DejaVuSans-73" d="M 2834 3397 
L 2834 2853 
Q 2591 2978 2328 3040 
Q 2066 3103 1784 3103 
Q 1356 3103 1142 2972 
Q 928 2841 928 2578 
Q 928 2378 1081 2264 
Q 1234 2150 1697 2047 
L 1894 2003 
Q 2506 1872 2764 1633 
Q 3022 1394 3022 966 
Q 3022 478 2636 193 
Q 2250 -91 1575 -91 
Q 1294 -91 989 -36 
Q 684 19 347 128 
L 347 722 
Q 666 556 975 473 
Q 1284 391 1588 391 
Q 1994 391 2212 530 
Q 2431 669 2431 922 
Q 2431 1156 2273 1281 
Q 2116 1406 1581 1522 
L 1381 1569 
Q 847 1681 609 1914 
Q 372 2147 372 2553 
Q 372 3047 722 3315 
Q 1072 3584 1716 3584 
Q 2034 3584 2315 3537 
Q 2597 3491 2834 3397 
z
" transform="scale(0.015625)"/>
      </defs>
      <use xlink:href="#DejaVuSans-4e"/>
      <use xlink:href="#DejaVuSans-75" x="74.804688"/>
      <use xlink:href="#DejaVuSans-6d" x="138.183594"/>
      <use xlink:href="#DejaVuSans-62" x="235.595703"/>
      <use xlink:href="#DejaVuSans-65" x="299.072266"/>
      <use xlink:href="#DejaVuSans-72" x="360.595703"/>
      <use xlink:href="#DejaVuSans-20" x="401.708984"/>
      <use xlink:href="#DejaVuSans-6f" x="433.496094"/>
      <use xlink:href="#DejaVuSans-66" x="494.677734"/>
      <use xlink:href="#DejaVuSans-20" x="529.882812"/>
      <use xlink:href="#DejaVuSans-74" x="561.669922"/>
      <use xlink:href="#DejaVuSans-72" x="600.878906"/>
      <use xlink:href="#DejaVuSans-61" x="641.992188"/>
      <use xlink:href="#DejaVuSans-63" x="703.271484"/>
      <use xlink:href="#DejaVuSans-65" x="758.251953"/>
      <use xlink:href="#DejaVuSans-73" x="819.775391"/>
     </g>
    </g>
   </g>
   <g id="matplotlib.axis_2">
    <g id="ytick_1">
     <g id="line2d_23">
      <path d="M 46.965625 465.838125 
L 883.965625 465.838125 
" clip-path="url(#pa7d62f3502)" style="fill: none; stroke: #b0b0b0; stroke-width: 0.8; stroke-linecap: square"/>
     </g>
     <g id="line2d_24">
      <defs>
       <path id="m240cdb627c" d="M 0 0 
L -3.5 0 
" style="stroke: #000000; stroke-width: 0.8"/>
      </defs>
      <g>
       <use xlink:href="#m240cdb627c" x="46.965625" y="465.838125" style="stroke: #000000; stroke-width: 0.8"/>
      </g>
     </g>
     <g id="text_13">
      <!-- 0 -->
      <g transform="translate(33.603125 469.637344) scale(0.1 -0.1)">
       <use xlink:href="#DejaVuSans-30"/>
      </g>
     </g>
    </g>
    <g id="ytick_2">
     <g id="line2d_25">
      <path d="M 46.965625 433.47149 
L 883.965625 433.47149 
" clip-path="url(#pa7d62f3502)" style="fill: none; stroke: #b0b0b0; stroke-width: 0.8; stroke-linecap: square"/>
     </g>
     <g id="line2d_26">
      <g>
       <use xlink:href="#m240cdb627c" x="46.965625" y="433.47149" style="stroke: #000000; stroke-width: 0.8"/>
      </g>
     </g>
     <g id="text_14">
      <!-- 10 -->
      <g transform="translate(27.240625 437.270709) scale(0.1 -0.1)">
       <use xlink:href="#DejaVuSans-31"/>
       <use xlink:href="#DejaVuSans-30" x="63.623047"/>
      </g>
     </g>
    </g>
    <g id="ytick_3">
     <g id="line2d_27">
      <path d="M 46.965625 401.104855 
L 883.965625 401.104855 
" clip-path="url(#pa7d62f3502)" style="fill: none; stroke: #b0b0b0; stroke-width: 0.8; stroke-linecap: square"/>
     </g>
     <g id="line2d_28">
      <g>
       <use xlink:href="#m240cdb627c" x="46.965625" y="401.104855" style="stroke: #000000; stroke-width: 0.8"/>
      </g>
     </g>
     <g id="text_15">
      <!-- 20 -->
      <g transform="translate(27.240625 404.904074) scale(0.1 -0.1)">
       <use xlink:href="#DejaVuSans-32"/>
       <use xlink:href="#DejaVuSans-30" x="63.623047"/>
      </g>
     </g>
    </g>
    <g id="ytick_4">
     <g id="line2d_29">
      <path d="M 46.965625 368.73822 
L 883.965625 368.73822 
" clip-path="url(#pa7d62f3502)" style="fill: none; stroke: #b0b0b0; stroke-width: 0.8; stroke-linecap: square"/>
     </g>
     <g id="line2d_30">
      <g>
       <use xlink:href="#m240cdb627c" x="46.965625" y="368.73822" style="stroke: #000000; stroke-width: 0.8"/>
      </g>
     </g>
     <g id="text_16">
      <!-- 30 -->
      <g transform="translate(27.240625 372.537439) scale(0.1 -0.1)">
       <use xlink:href="#DejaVuSans-33"/>
       <use xlink:href="#DejaVuSans-30" x="63.623047"/>
      </g>
     </g>
    </g>
    <g id="ytick_5">
     <g id="line2d_31">
      <path d="M 46.965625 336.371585 
L 883.965625 336.371585 
" clip-path="url(#pa7d62f3502)" style="fill: none; stroke: #b0b0b0; stroke-width: 0.8; stroke-linecap: square"/>
     </g>
     <g id="line2d_32">
      <g>
       <use xlink:href="#m240cdb627c" x="46.965625" y="336.371585" style="stroke: #000000; stroke-width: 0.8"/>
      </g>
     </g>
     <g id="text_17">
      <!-- 40 -->
      <g transform="translate(27.240625 340.170804) scale(0.1 -0.1)">
       <use xlink:href="#DejaVuSans-34"/>
       <use xlink:href="#DejaVuSans-30" x="63.623047"/>
      </g>
     </g>
    </g>
    <g id="ytick_6">
     <g id="line2d_33">
      <path d="M 46.965625 304.00495 
L 883.965625 304.00495 
" clip-path="url(#pa7d62f3502)" style="fill: none; stroke: #b0b0b0; stroke-width: 0.8; stroke-linecap: square"/>
     </g>
     <g id="line2d_34">
      <g>
       <use xlink:href="#m240cdb627c" x="46.965625" y="304.00495" style="stroke: #000000; stroke-width: 0.8"/>
      </g>
     </g>
     <g id="text_18">
      <!-- 50 -->
      <g transform="translate(27.240625 307.804169) scale(0.1 -0.1)">
       <use xlink:href="#DejaVuSans-35"/>
       <use xlink:href="#DejaVuSans-30" x="63.623047"/>
      </g>
     </g>
    </g>
    <g id="ytick_7">
     <g id="line2d_35">
      <path d="M 46.965625 271.638315 
L 883.965625 271.638315 
" clip-path="url(#pa7d62f3502)" style="fill: none; stroke: #b0b0b0; stroke-width: 0.8; stroke-linecap: square"/>
     </g>
     <g id="line2d_36">
      <g>
       <use xlink:href="#m240cdb627c" x="46.965625" y="271.638315" style="stroke: #000000; stroke-width: 0.8"/>
      </g>
     </g>
     <g id="text_19">
      <!-- 60 -->
      <g transform="translate(27.240625 275.437533) scale(0.1 -0.1)">
       <use xlink:href="#DejaVuSans-36"/>
       <use xlink:href="#DejaVuSans-30" x="63.623047"/>
      </g>
     </g>
    </g>
    <g id="ytick_8">
     <g id="line2d_37">
      <path d="M 46.965625 239.27168 
L 883.965625 239.27168 
" clip-path="url(#pa7d62f3502)" style="fill: none; stroke: #b0b0b0; stroke-width: 0.8; stroke-linecap: square"/>
     </g>
     <g id="line2d_38">
      <g>
       <use xlink:href="#m240cdb627c" x="46.965625" y="239.27168" style="stroke: #000000; stroke-width: 0.8"/>
      </g>
     </g>
     <g id="text_20">
      <!-- 70 -->
      <g transform="translate(27.240625 243.070898) scale(0.1 -0.1)">
       <use xlink:href="#DejaVuSans-37"/>
       <use xlink:href="#DejaVuSans-30" x="63.623047"/>
      </g>
     </g>
    </g>
    <g id="ytick_9">
     <g id="line2d_39">
      <path d="M 46.965625 206.905045 
L 883.965625 206.905045 
" clip-path="url(#pa7d62f3502)" style="fill: none; stroke: #b0b0b0; stroke-width: 0.8; stroke-linecap: square"/>
     </g>
     <g id="line2d_40">
      <g>
       <use xlink:href="#m240cdb627c" x="46.965625" y="206.905045" style="stroke: #000000; stroke-width: 0.8"/>
      </g>
     </g>
     <g id="text_21">
      <!-- 80 -->
      <g transform="translate(27.240625 210.704263) scale(0.1 -0.1)">
       <use xlink:href="#DejaVuSans-38"/>
       <use xlink:href="#DejaVuSans-30" x="63.623047"/>
      </g>
     </g>
    </g>
    <g id="ytick_10">
     <g id="line2d_41">
      <path d="M 46.965625 174.53841 
L 883.965625 174.53841 
" clip-path="url(#pa7d62f3502)" style="fill: none; stroke: #b0b0b0; stroke-width: 0.8; stroke-linecap: square"/>
     </g>
     <g id="line2d_42">
      <g>
       <use xlink:href="#m240cdb627c" x="46.965625" y="174.53841" style="stroke: #000000; stroke-width: 0.8"/>
      </g>
     </g>
     <g id="text_22">
      <!-- 90 -->
      <g transform="translate(27.240625 178.337628) scale(0.1 -0.1)">
       <use xlink:href="#DejaVuSans-39"/>
       <use xlink:href="#DejaVuSans-30" x="63.623047"/>
      </g>
     </g>
    </g>
    <g id="ytick_11">
     <g id="line2d_43">
      <path d="M 46.965625 142.171775 
L 883.965625 142.171775 
" clip-path="url(#pa7d62f3502)" style="fill: none; stroke: #b0b0b0; stroke-width: 0.8; stroke-linecap: square"/>
     </g>
     <g id="line2d_44">
      <g>
       <use xlink:href="#m240cdb627c" x="46.965625" y="142.171775" style="stroke: #000000; stroke-width: 0.8"/>
      </g>
     </g>
     <g id="text_23">
      <!-- 100 -->
      <g transform="translate(20.878125 145.970993) scale(0.1 -0.1)">
       <use xlink:href="#DejaVuSans-31"/>
       <use xlink:href="#DejaVuSans-30" x="63.623047"/>
       <use xlink:href="#DejaVuSans-30" x="127.246094"/>
      </g>
     </g>
    </g>
    <g id="text_24">
     <!-- GE -->
     <g transform="translate(14.798438 251.111719) rotate(-90) scale(0.1 -0.1)">
      <defs>
       <path id="DejaVuSans-47" d="M 3809 666 
L 3809 1919 
L 2778 1919 
L 2778 2438 
L 4434 2438 
L 4434 434 
Q 4069 175 3628 42 
Q 3188 -91 2688 -91 
Q 1594 -91 976 548 
Q 359 1188 359 2328 
Q 359 3472 976 4111 
Q 1594 4750 2688 4750 
Q 3144 4750 3555 4637 
Q 3966 4525 4313 4306 
L 4313 3634 
Q 3963 3931 3569 4081 
Q 3175 4231 2741 4231 
Q 1884 4231 1454 3753 
Q 1025 3275 1025 2328 
Q 1025 1384 1454 906 
Q 1884 428 2741 428 
Q 3075 428 3337 486 
Q 3600 544 3809 666 
z
" transform="scale(0.015625)"/>
       <path id="DejaVuSans-45" d="M 628 4666 
L 3578 4666 
L 3578 4134 
L 1259 4134 
L 1259 2753 
L 3481 2753 
L 3481 2222 
L 1259 2222 
L 1259 531 
L 3634 531 
L 3634 0 
L 628 0 
L 628 4666 
z
" transform="scale(0.015625)"/>
      </defs>
      <use xlink:href="#DejaVuSans-47"/>
      <use xlink:href="#DejaVuSans-45" x="77.490234"/>
     </g>
    </g>
   </g>
   <g id="line2d_45">
    <path d="M 845.92017 465.838125 
L 845.92017 22.318125 
" clip-path="url(#pa7d62f3502)" style="fill: none; stroke-dasharray: 5.55,2.4; stroke-dashoffset: 0; stroke: #ff0000; stroke-width: 1.5"/>
   </g>
   <g id="line2d_46">
    <path d="M 85.01108 175.509409 
L 92.69703 124.952725 
L 100.38298 107.312909 
L 108.068931 104.691211 
L 115.754881 109.287273 
L 123.440832 102.39318 
L 131.126782 109.740406 
L 138.812732 108.93124 
L 146.498683 112.167904 
L 154.184633 112.912336 
L 161.870584 110.581939 
L 169.556534 107.992608 
L 177.242485 99.350716 
L 184.928435 98.606284 
L 192.614385 88.410794 
L 200.300336 82.261133 
L 207.986286 77.438504 
L 215.672237 82.228766 
L 223.358187 81.840367 
L 231.044137 79.963102 
L 238.730088 87.116128 
L 246.416038 90.611725 
L 254.101989 86.145129 
L 261.787939 92.262423 
L 269.473889 79.768902 
L 277.15984 85.594897 
L 284.84579 90.190959 
L 292.531741 91.841657 
L 300.217691 92.942123 
L 307.903642 92.359523 
L 315.589592 98.217884 
L 323.275542 100.289349 
L 330.961493 97.182152 
L 338.647443 93.168689 
L 346.333394 92.68319 
L 354.019344 100.159882 
L 361.705294 103.364179 
L 369.391245 98.573917 
L 377.077195 99.803849 
L 384.763146 100.321715 
L 392.449096 107.992608 
L 400.135046 112.556304 
L 407.820997 102.749213 
L 415.506947 101.227981 
L 423.192898 99.674383 
L 430.878848 103.008146 
L 438.564799 106.956876 
L 446.250749 107.183442 
L 453.936699 107.830775 
L 461.62265 108.445741 
L 469.3086 99.480183 
L 476.994551 100.127516 
L 484.680501 100.710115 
L 492.366451 100.710115 
L 500.052402 102.813946 
L 507.738352 100.386449 
L 515.424303 99.156517 
L 523.110253 111.650038 
L 530.796204 111.714771 
L 538.482154 110.614305 
L 546.168104 113.624402 
L 553.854055 119.12673 
L 561.540005 118.220465 
L 569.225956 110.937972 
L 576.911906 114.983801 
L 584.597856 113.850969 
L 592.283807 119.579863 
L 599.969757 115.566401 
L 607.655708 113.106536 
L 615.341658 118.867797 
L 623.027608 117.281832 
L 630.713559 114.142269 
L 638.399509 110.517205 
L 646.08546 110.581939 
L 653.77141 109.546206 
L 661.457361 107.895508 
L 669.143311 105.532744 
L 676.829261 109.157807 
L 684.515212 107.118709 
L 692.201162 116.149 
L 699.887113 112.87997 
L 707.573063 114.692501 
L 715.259013 113.300736 
L 722.944964 117.605499 
L 730.630914 116.278467 
L 738.316865 117.314199 
L 746.002815 114.142269 
L 753.688765 111.196905 
L 761.374716 109.157807 
L 769.060666 110.355372 
L 776.746617 114.012802 
L 784.432567 116.3432 
L 792.118518 118.932531 
L 799.804468 122.136827 
L 807.490418 124.985091 
L 815.176369 128.610154 
L 822.862319 131.361318 
L 830.54827 131.523152 
L 838.23422 126.182657 
L 845.92017 127.995188 
" clip-path="url(#pa7d62f3502)" style="fill: none; stroke: #ff0000; stroke-width: 1.5; stroke-linecap: square"/>
    <defs>
     <path id="m38b94f59d0" d="M 0 3 
C 0.795609 3 1.55874 2.683901 2.12132 2.12132 
C 2.683901 1.55874 3 0.795609 3 0 
C 3 -0.795609 2.683901 -1.55874 2.12132 -2.12132 
C 1.55874 -2.683901 0.795609 -3 0 -3 
C -0.795609 -3 -1.55874 -2.683901 -2.12132 -2.12132 
C -2.683901 -1.55874 -3 -0.795609 -3 0 
C -3 0.795609 -2.683901 1.55874 -2.12132 2.12132 
C -1.55874 2.683901 -0.795609 3 0 3 
z
" style="stroke: #ff0000"/>
    </defs>
    <g clip-path="url(#pa7d62f3502)">
     <use xlink:href="#m38b94f59d0" x="85.01108" y="175.509409" style="fill: #ff0000; stroke: #ff0000"/>
     <use xlink:href="#m38b94f59d0" x="92.69703" y="124.952725" style="fill: #ff0000; stroke: #ff0000"/>
     <use xlink:href="#m38b94f59d0" x="100.38298" y="107.312909" style="fill: #ff0000; stroke: #ff0000"/>
     <use xlink:href="#m38b94f59d0" x="108.068931" y="104.691211" style="fill: #ff0000; stroke: #ff0000"/>
     <use xlink:href="#m38b94f59d0" x="115.754881" y="109.287273" style="fill: #ff0000; stroke: #ff0000"/>
     <use xlink:href="#m38b94f59d0" x="123.440832" y="102.39318" style="fill: #ff0000; stroke: #ff0000"/>
     <use xlink:href="#m38b94f59d0" x="131.126782" y="109.740406" style="fill: #ff0000; stroke: #ff0000"/>
     <use xlink:href="#m38b94f59d0" x="138.812732" y="108.93124" style="fill: #ff0000; stroke: #ff0000"/>
     <use xlink:href="#m38b94f59d0" x="146.498683" y="112.167904" style="fill: #ff0000; stroke: #ff0000"/>
     <use xlink:href="#m38b94f59d0" x="154.184633" y="112.912336" style="fill: #ff0000; stroke: #ff0000"/>
     <use xlink:href="#m38b94f59d0" x="161.870584" y="110.581939" style="fill: #ff0000; stroke: #ff0000"/>
     <use xlink:href="#m38b94f59d0" x="169.556534" y="107.992608" style="fill: #ff0000; stroke: #ff0000"/>
     <use xlink:href="#m38b94f59d0" x="177.242485" y="99.350716" style="fill: #ff0000; stroke: #ff0000"/>
     <use xlink:href="#m38b94f59d0" x="184.928435" y="98.606284" style="fill: #ff0000; stroke: #ff0000"/>
     <use xlink:href="#m38b94f59d0" x="192.614385" y="88.410794" style="fill: #ff0000; stroke: #ff0000"/>
     <use xlink:href="#m38b94f59d0" x="200.300336" y="82.261133" style="fill: #ff0000; stroke: #ff0000"/>
     <use xlink:href="#m38b94f59d0" x="207.986286" y="77.438504" style="fill: #ff0000; stroke: #ff0000"/>
     <use xlink:href="#m38b94f59d0" x="215.672237" y="82.228766" style="fill: #ff0000; stroke: #ff0000"/>
     <use xlink:href="#m38b94f59d0" x="223.358187" y="81.840367" style="fill: #ff0000; stroke: #ff0000"/>
     <use xlink:href="#m38b94f59d0" x="231.044137" y="79.963102" style="fill: #ff0000; stroke: #ff0000"/>
     <use xlink:href="#m38b94f59d0" x="238.730088" y="87.116128" style="fill: #ff0000; stroke: #ff0000"/>
     <use xlink:href="#m38b94f59d0" x="246.416038" y="90.611725" style="fill: #ff0000; stroke: #ff0000"/>
     <use xlink:href="#m38b94f59d0" x="254.101989" y="86.145129" style="fill: #ff0000; stroke: #ff0000"/>
     <use xlink:href="#m38b94f59d0" x="261.787939" y="92.262423" style="fill: #ff0000; stroke: #ff0000"/>
     <use xlink:href="#m38b94f59d0" x="269.473889" y="79.768902" style="fill: #ff0000; stroke: #ff0000"/>
     <use xlink:href="#m38b94f59d0" x="277.15984" y="85.594897" style="fill: #ff0000; stroke: #ff0000"/>
     <use xlink:href="#m38b94f59d0" x="284.84579" y="90.190959" style="fill: #ff0000; stroke: #ff0000"/>
     <use xlink:href="#m38b94f59d0" x="292.531741" y="91.841657" style="fill: #ff0000; stroke: #ff0000"/>
     <use xlink:href="#m38b94f59d0" x="300.217691" y="92.942123" style="fill: #ff0000; stroke: #ff0000"/>
     <use xlink:href="#m38b94f59d0" x="307.903642" y="92.359523" style="fill: #ff0000; stroke: #ff0000"/>
     <use xlink:href="#m38b94f59d0" x="315.589592" y="98.217884" style="fill: #ff0000; stroke: #ff0000"/>
     <use xlink:href="#m38b94f59d0" x="323.275542" y="100.289349" style="fill: #ff0000; stroke: #ff0000"/>
     <use xlink:href="#m38b94f59d0" x="330.961493" y="97.182152" style="fill: #ff0000; stroke: #ff0000"/>
     <use xlink:href="#m38b94f59d0" x="338.647443" y="93.168689" style="fill: #ff0000; stroke: #ff0000"/>
     <use xlink:href="#m38b94f59d0" x="346.333394" y="92.68319" style="fill: #ff0000; stroke: #ff0000"/>
     <use xlink:href="#m38b94f59d0" x="354.019344" y="100.159882" style="fill: #ff0000; stroke: #ff0000"/>
     <use xlink:href="#m38b94f59d0" x="361.705294" y="103.364179" style="fill: #ff0000; stroke: #ff0000"/>
     <use xlink:href="#m38b94f59d0" x="369.391245" y="98.573917" style="fill: #ff0000; stroke: #ff0000"/>
     <use xlink:href="#m38b94f59d0" x="377.077195" y="99.803849" style="fill: #ff0000; stroke: #ff0000"/>
     <use xlink:href="#m38b94f59d0" x="384.763146" y="100.321715" style="fill: #ff0000; stroke: #ff0000"/>
     <use xlink:href="#m38b94f59d0" x="392.449096" y="107.992608" style="fill: #ff0000; stroke: #ff0000"/>
     <use xlink:href="#m38b94f59d0" x="400.135046" y="112.556304" style="fill: #ff0000; stroke: #ff0000"/>
     <use xlink:href="#m38b94f59d0" x="407.820997" y="102.749213" style="fill: #ff0000; stroke: #ff0000"/>
     <use xlink:href="#m38b94f59d0" x="415.506947" y="101.227981" style="fill: #ff0000; stroke: #ff0000"/>
     <use xlink:href="#m38b94f59d0" x="423.192898" y="99.674383" style="fill: #ff0000; stroke: #ff0000"/>
     <use xlink:href="#m38b94f59d0" x="430.878848" y="103.008146" style="fill: #ff0000; stroke: #ff0000"/>
     <use xlink:href="#m38b94f59d0" x="438.564799" y="106.956876" style="fill: #ff0000; stroke: #ff0000"/>
     <use xlink:href="#m38b94f59d0" x="446.250749" y="107.183442" style="fill: #ff0000; stroke: #ff0000"/>
     <use xlink:href="#m38b94f59d0" x="453.936699" y="107.830775" style="fill: #ff0000; stroke: #ff0000"/>
     <use xlink:href="#m38b94f59d0" x="461.62265" y="108.445741" style="fill: #ff0000; stroke: #ff0000"/>
     <use xlink:href="#m38b94f59d0" x="469.3086" y="99.480183" style="fill: #ff0000; stroke: #ff0000"/>
     <use xlink:href="#m38b94f59d0" x="476.994551" y="100.127516" style="fill: #ff0000; stroke: #ff0000"/>
     <use xlink:href="#m38b94f59d0" x="484.680501" y="100.710115" style="fill: #ff0000; stroke: #ff0000"/>
     <use xlink:href="#m38b94f59d0" x="492.366451" y="100.710115" style="fill: #ff0000; stroke: #ff0000"/>
     <use xlink:href="#m38b94f59d0" x="500.052402" y="102.813946" style="fill: #ff0000; stroke: #ff0000"/>
     <use xlink:href="#m38b94f59d0" x="507.738352" y="100.386449" style="fill: #ff0000; stroke: #ff0000"/>
     <use xlink:href="#m38b94f59d0" x="515.424303" y="99.156517" style="fill: #ff0000; stroke: #ff0000"/>
     <use xlink:href="#m38b94f59d0" x="523.110253" y="111.650038" style="fill: #ff0000; stroke: #ff0000"/>
     <use xlink:href="#m38b94f59d0" x="530.796204" y="111.714771" style="fill: #ff0000; stroke: #ff0000"/>
     <use xlink:href="#m38b94f59d0" x="538.482154" y="110.614305" style="fill: #ff0000; stroke: #ff0000"/>
     <use xlink:href="#m38b94f59d0" x="546.168104" y="113.624402" style="fill: #ff0000; stroke: #ff0000"/>
     <use xlink:href="#m38b94f59d0" x="553.854055" y="119.12673" style="fill: #ff0000; stroke: #ff0000"/>
     <use xlink:href="#m38b94f59d0" x="561.540005" y="118.220465" style="fill: #ff0000; stroke: #ff0000"/>
     <use xlink:href="#m38b94f59d0" x="569.225956" y="110.937972" style="fill: #ff0000; stroke: #ff0000"/>
     <use xlink:href="#m38b94f59d0" x="576.911906" y="114.983801" style="fill: #ff0000; stroke: #ff0000"/>
     <use xlink:href="#m38b94f59d0" x="584.597856" y="113.850969" style="fill: #ff0000; stroke: #ff0000"/>
     <use xlink:href="#m38b94f59d0" x="592.283807" y="119.579863" style="fill: #ff0000; stroke: #ff0000"/>
     <use xlink:href="#m38b94f59d0" x="599.969757" y="115.566401" style="fill: #ff0000; stroke: #ff0000"/>
     <use xlink:href="#m38b94f59d0" x="607.655708" y="113.106536" style="fill: #ff0000; stroke: #ff0000"/>
     <use xlink:href="#m38b94f59d0" x="615.341658" y="118.867797" style="fill: #ff0000; stroke: #ff0000"/>
     <use xlink:href="#m38b94f59d0" x="623.027608" y="117.281832" style="fill: #ff0000; stroke: #ff0000"/>
     <use xlink:href="#m38b94f59d0" x="630.713559" y="114.142269" style="fill: #ff0000; stroke: #ff0000"/>
     <use xlink:href="#m38b94f59d0" x="638.399509" y="110.517205" style="fill: #ff0000; stroke: #ff0000"/>
     <use xlink:href="#m38b94f59d0" x="646.08546" y="110.581939" style="fill: #ff0000; stroke: #ff0000"/>
     <use xlink:href="#m38b94f59d0" x="653.77141" y="109.546206" style="fill: #ff0000; stroke: #ff0000"/>
     <use xlink:href="#m38b94f59d0" x="661.457361" y="107.895508" style="fill: #ff0000; stroke: #ff0000"/>
     <use xlink:href="#m38b94f59d0" x="669.143311" y="105.532744" style="fill: #ff0000; stroke: #ff0000"/>
     <use xlink:href="#m38b94f59d0" x="676.829261" y="109.157807" style="fill: #ff0000; stroke: #ff0000"/>
     <use xlink:href="#m38b94f59d0" x="684.515212" y="107.118709" style="fill: #ff0000; stroke: #ff0000"/>
     <use xlink:href="#m38b94f59d0" x="692.201162" y="116.149" style="fill: #ff0000; stroke: #ff0000"/>
     <use xlink:href="#m38b94f59d0" x="699.887113" y="112.87997" style="fill: #ff0000; stroke: #ff0000"/>
     <use xlink:href="#m38b94f59d0" x="707.573063" y="114.692501" style="fill: #ff0000; stroke: #ff0000"/>
     <use xlink:href="#m38b94f59d0" x="715.259013" y="113.300736" style="fill: #ff0000; stroke: #ff0000"/>
     <use xlink:href="#m38b94f59d0" x="722.944964" y="117.605499" style="fill: #ff0000; stroke: #ff0000"/>
     <use xlink:href="#m38b94f59d0" x="730.630914" y="116.278467" style="fill: #ff0000; stroke: #ff0000"/>
     <use xlink:href="#m38b94f59d0" x="738.316865" y="117.314199" style="fill: #ff0000; stroke: #ff0000"/>
     <use xlink:href="#m38b94f59d0" x="746.002815" y="114.142269" style="fill: #ff0000; stroke: #ff0000"/>
     <use xlink:href="#m38b94f59d0" x="753.688765" y="111.196905" style="fill: #ff0000; stroke: #ff0000"/>
     <use xlink:href="#m38b94f59d0" x="761.374716" y="109.157807" style="fill: #ff0000; stroke: #ff0000"/>
     <use xlink:href="#m38b94f59d0" x="769.060666" y="110.355372" style="fill: #ff0000; stroke: #ff0000"/>
     <use xlink:href="#m38b94f59d0" x="776.746617" y="114.012802" style="fill: #ff0000; stroke: #ff0000"/>
     <use xlink:href="#m38b94f59d0" x="784.432567" y="116.3432" style="fill: #ff0000; stroke: #ff0000"/>
     <use xlink:href="#m38b94f59d0" x="792.118518" y="118.932531" style="fill: #ff0000; stroke: #ff0000"/>
     <use xlink:href="#m38b94f59d0" x="799.804468" y="122.136827" style="fill: #ff0000; stroke: #ff0000"/>
     <use xlink:href="#m38b94f59d0" x="807.490418" y="124.985091" style="fill: #ff0000; stroke: #ff0000"/>
     <use xlink:href="#m38b94f59d0" x="815.176369" y="128.610154" style="fill: #ff0000; stroke: #ff0000"/>
     <use xlink:href="#m38b94f59d0" x="822.862319" y="131.361318" style="fill: #ff0000; stroke: #ff0000"/>
     <use xlink:href="#m38b94f59d0" x="830.54827" y="131.523152" style="fill: #ff0000; stroke: #ff0000"/>
     <use xlink:href="#m38b94f59d0" x="838.23422" y="126.182657" style="fill: #ff0000; stroke: #ff0000"/>
     <use xlink:href="#m38b94f59d0" x="845.92017" y="127.995188" style="fill: #ff0000; stroke: #ff0000"/>
    </g>
   </g>
   <g id="line2d_47">
    <path d="M 845.92017 465.838125 
L 845.92017 22.318125 
" clip-path="url(#pa7d62f3502)" style="fill: none; stroke-dasharray: 5.55,2.4; stroke-dashoffset: 0; stroke: #008000; stroke-width: 1.5"/>
   </g>
   <g id="line2d_48">
    <path d="M 85.01108 138.902744 
L 92.69703 108.057341 
L 100.38298 127.347856 
L 108.068931 133.56225 
L 115.754881 112.653403 
L 123.440832 142.851474 
L 131.126782 145.020038 
L 138.812732 148.612735 
L 146.498683 145.926304 
L 154.184633 151.978865 
L 161.870584 158.290359 
L 169.556534 163.46902 
L 177.242485 158.096159 
L 184.928435 165.184452 
L 192.614385 162.789321 
L 200.300336 171.949079 
L 207.986286 165.475752 
L 215.672237 164.601853 
L 223.358187 179.069739 
L 231.044137 183.471601 
L 238.730088 181.400136 
L 246.416038 185.899099 
L 254.101989 188.456063 
L 261.787939 183.309768 
L 269.473889 184.960466 
L 277.15984 185.348866 
L 284.84579 191.757459 
L 292.531741 210.141708 
L 300.217691 212.601572 
L 307.903642 207.714211 
L 315.589592 203.053415 
L 323.275542 207.034511 
L 330.961493 208.944143 
L 338.647443 214.543571 
L 346.333394 217.747867 
L 354.019344 221.211097 
L 361.705294 225.677693 
L 369.391245 227.716791 
L 377.077195 233.769352 
L 384.763146 236.747082 
L 392.449096 238.559614 
L 400.135046 242.896743 
L 407.820997 246.974939 
L 415.506947 250.858935 
L 423.192898 251.214968 
L 430.878848 250.017403 
L 438.564799 250.308702 
L 446.250749 254.257432 
L 453.936699 255.260797 
L 461.62265 261.572291 
L 469.3086 262.64039 
L 476.994551 265.941787 
L 484.680501 262.090157 
L 492.366451 262.83459 
L 500.052402 264.970788 
L 507.738352 264.873688 
L 515.424303 266.427286 
L 523.110253 268.692951 
L 530.796204 271.800148 
L 538.482154 275.813611 
L 546.168104 277.593776 
L 553.854055 280.05364 
L 561.540005 286.3975 
L 569.225956 293.22686 
L 576.911906 298.049489 
L 584.597856 298.729188 
L 592.283807 298.146589 
L 599.969757 302.451351 
L 607.655708 305.688015 
L 615.341658 309.086511 
L 623.027608 313.941507 
L 630.713559 317.27527 
L 638.399509 319.023068 
L 646.08546 321.838966 
L 653.77141 327.729693 
L 661.457361 327.600227 
L 669.143311 327.826793 
L 676.829261 327.794427 
L 684.515212 328.927259 
L 692.201162 333.717521 
L 699.887113 334.00882 
L 707.573063 337.633884 
L 715.259013 337.892817 
L 722.944964 339.122749 
L 730.630914 341.80918 
L 738.316865 346.696541 
L 746.002815 347.117308 
L 753.688765 349.124039 
L 761.374716 350.127405 
L 769.060666 347.991207 
L 776.746617 349.609539 
L 784.432567 350.645271 
L 792.118518 351.972303 
L 799.804468 355.694466 
L 807.490418 353.979034 
L 815.176369 355.694466 
L 822.862319 355.208966 
L 830.54827 354.950033 
L 838.23422 357.895397 
L 845.92017 358.769296 
" clip-path="url(#pa7d62f3502)" style="fill: none; stroke: #008000; stroke-width: 1.5; stroke-linecap: square"/>
    <defs>
     <path id="mf70dfa9b2c" d="M 0 3 
C 0.795609 3 1.55874 2.683901 2.12132 2.12132 
C 2.683901 1.55874 3 0.795609 3 0 
C 3 -0.795609 2.683901 -1.55874 2.12132 -2.12132 
C 1.55874 -2.683901 0.795609 -3 0 -3 
C -0.795609 -3 -1.55874 -2.683901 -2.12132 -2.12132 
C -2.683901 -1.55874 -3 -0.795609 -3 0 
C -3 0.795609 -2.683901 1.55874 -2.12132 2.12132 
C -1.55874 2.683901 -0.795609 3 0 3 
z
" style="stroke: #008000"/>
    </defs>
    <g clip-path="url(#pa7d62f3502)">
     <use xlink:href="#mf70dfa9b2c" x="85.01108" y="138.902744" style="fill: #008000; stroke: #008000"/>
     <use xlink:href="#mf70dfa9b2c" x="92.69703" y="108.057341" style="fill: #008000; stroke: #008000"/>
     <use xlink:href="#mf70dfa9b2c" x="100.38298" y="127.347856" style="fill: #008000; stroke: #008000"/>
     <use xlink:href="#mf70dfa9b2c" x="108.068931" y="133.56225" style="fill: #008000; stroke: #008000"/>
     <use xlink:href="#mf70dfa9b2c" x="115.754881" y="112.653403" style="fill: #008000; stroke: #008000"/>
     <use xlink:href="#mf70dfa9b2c" x="123.440832" y="142.851474" style="fill: #008000; stroke: #008000"/>
     <use xlink:href="#mf70dfa9b2c" x="131.126782" y="145.020038" style="fill: #008000; stroke: #008000"/>
     <use xlink:href="#mf70dfa9b2c" x="138.812732" y="148.612735" style="fill: #008000; stroke: #008000"/>
     <use xlink:href="#mf70dfa9b2c" x="146.498683" y="145.926304" style="fill: #008000; stroke: #008000"/>
     <use xlink:href="#mf70dfa9b2c" x="154.184633" y="151.978865" style="fill: #008000; stroke: #008000"/>
     <use xlink:href="#mf70dfa9b2c" x="161.870584" y="158.290359" style="fill: #008000; stroke: #008000"/>
     <use xlink:href="#mf70dfa9b2c" x="169.556534" y="163.46902" style="fill: #008000; stroke: #008000"/>
     <use xlink:href="#mf70dfa9b2c" x="177.242485" y="158.096159" style="fill: #008000; stroke: #008000"/>
     <use xlink:href="#mf70dfa9b2c" x="184.928435" y="165.184452" style="fill: #008000; stroke: #008000"/>
     <use xlink:href="#mf70dfa9b2c" x="192.614385" y="162.789321" style="fill: #008000; stroke: #008000"/>
     <use xlink:href="#mf70dfa9b2c" x="200.300336" y="171.949079" style="fill: #008000; stroke: #008000"/>
     <use xlink:href="#mf70dfa9b2c" x="207.986286" y="165.475752" style="fill: #008000; stroke: #008000"/>
     <use xlink:href="#mf70dfa9b2c" x="215.672237" y="164.601853" style="fill: #008000; stroke: #008000"/>
     <use xlink:href="#mf70dfa9b2c" x="223.358187" y="179.069739" style="fill: #008000; stroke: #008000"/>
     <use xlink:href="#mf70dfa9b2c" x="231.044137" y="183.471601" style="fill: #008000; stroke: #008000"/>
     <use xlink:href="#mf70dfa9b2c" x="238.730088" y="181.400136" style="fill: #008000; stroke: #008000"/>
     <use xlink:href="#mf70dfa9b2c" x="246.416038" y="185.899099" style="fill: #008000; stroke: #008000"/>
     <use xlink:href="#mf70dfa9b2c" x="254.101989" y="188.456063" style="fill: #008000; stroke: #008000"/>
     <use xlink:href="#mf70dfa9b2c" x="261.787939" y="183.309768" style="fill: #008000; stroke: #008000"/>
     <use xlink:href="#mf70dfa9b2c" x="269.473889" y="184.960466" style="fill: #008000; stroke: #008000"/>
     <use xlink:href="#mf70dfa9b2c" x="277.15984" y="185.348866" style="fill: #008000; stroke: #008000"/>
     <use xlink:href="#mf70dfa9b2c" x="284.84579" y="191.757459" style="fill: #008000; stroke: #008000"/>
     <use xlink:href="#mf70dfa9b2c" x="292.531741" y="210.141708" style="fill: #008000; stroke: #008000"/>
     <use xlink:href="#mf70dfa9b2c" x="300.217691" y="212.601572" style="fill: #008000; stroke: #008000"/>
     <use xlink:href="#mf70dfa9b2c" x="307.903642" y="207.714211" style="fill: #008000; stroke: #008000"/>
     <use xlink:href="#mf70dfa9b2c" x="315.589592" y="203.053415" style="fill: #008000; stroke: #008000"/>
     <use xlink:href="#mf70dfa9b2c" x="323.275542" y="207.034511" style="fill: #008000; stroke: #008000"/>
     <use xlink:href="#mf70dfa9b2c" x="330.961493" y="208.944143" style="fill: #008000; stroke: #008000"/>
     <use xlink:href="#mf70dfa9b2c" x="338.647443" y="214.543571" style="fill: #008000; stroke: #008000"/>
     <use xlink:href="#mf70dfa9b2c" x="346.333394" y="217.747867" style="fill: #008000; stroke: #008000"/>
     <use xlink:href="#mf70dfa9b2c" x="354.019344" y="221.211097" style="fill: #008000; stroke: #008000"/>
     <use xlink:href="#mf70dfa9b2c" x="361.705294" y="225.677693" style="fill: #008000; stroke: #008000"/>
     <use xlink:href="#mf70dfa9b2c" x="369.391245" y="227.716791" style="fill: #008000; stroke: #008000"/>
     <use xlink:href="#mf70dfa9b2c" x="377.077195" y="233.769352" style="fill: #008000; stroke: #008000"/>
     <use xlink:href="#mf70dfa9b2c" x="384.763146" y="236.747082" style="fill: #008000; stroke: #008000"/>
     <use xlink:href="#mf70dfa9b2c" x="392.449096" y="238.559614" style="fill: #008000; stroke: #008000"/>
     <use xlink:href="#mf70dfa9b2c" x="400.135046" y="242.896743" style="fill: #008000; stroke: #008000"/>
     <use xlink:href="#mf70dfa9b2c" x="407.820997" y="246.974939" style="fill: #008000; stroke: #008000"/>
     <use xlink:href="#mf70dfa9b2c" x="415.506947" y="250.858935" style="fill: #008000; stroke: #008000"/>
     <use xlink:href="#mf70dfa9b2c" x="423.192898" y="251.214968" style="fill: #008000; stroke: #008000"/>
     <use xlink:href="#mf70dfa9b2c" x="430.878848" y="250.017403" style="fill: #008000; stroke: #008000"/>
     <use xlink:href="#mf70dfa9b2c" x="438.564799" y="250.308702" style="fill: #008000; stroke: #008000"/>
     <use xlink:href="#mf70dfa9b2c" x="446.250749" y="254.257432" style="fill: #008000; stroke: #008000"/>
     <use xlink:href="#mf70dfa9b2c" x="453.936699" y="255.260797" style="fill: #008000; stroke: #008000"/>
     <use xlink:href="#mf70dfa9b2c" x="461.62265" y="261.572291" style="fill: #008000; stroke: #008000"/>
     <use xlink:href="#mf70dfa9b2c" x="469.3086" y="262.64039" style="fill: #008000; stroke: #008000"/>
     <use xlink:href="#mf70dfa9b2c" x="476.994551" y="265.941787" style="fill: #008000; stroke: #008000"/>
     <use xlink:href="#mf70dfa9b2c" x="484.680501" y="262.090157" style="fill: #008000; stroke: #008000"/>
     <use xlink:href="#mf70dfa9b2c" x="492.366451" y="262.83459" style="fill: #008000; stroke: #008000"/>
     <use xlink:href="#mf70dfa9b2c" x="500.052402" y="264.970788" style="fill: #008000; stroke: #008000"/>
     <use xlink:href="#mf70dfa9b2c" x="507.738352" y="264.873688" style="fill: #008000; stroke: #008000"/>
     <use xlink:href="#mf70dfa9b2c" x="515.424303" y="266.427286" style="fill: #008000; stroke: #008000"/>
     <use xlink:href="#mf70dfa9b2c" x="523.110253" y="268.692951" style="fill: #008000; stroke: #008000"/>
     <use xlink:href="#mf70dfa9b2c" x="530.796204" y="271.800148" style="fill: #008000; stroke: #008000"/>
     <use xlink:href="#mf70dfa9b2c" x="538.482154" y="275.813611" style="fill: #008000; stroke: #008000"/>
     <use xlink:href="#mf70dfa9b2c" x="546.168104" y="277.593776" style="fill: #008000; stroke: #008000"/>
     <use xlink:href="#mf70dfa9b2c" x="553.854055" y="280.05364" style="fill: #008000; stroke: #008000"/>
     <use xlink:href="#mf70dfa9b2c" x="561.540005" y="286.3975" style="fill: #008000; stroke: #008000"/>
     <use xlink:href="#mf70dfa9b2c" x="569.225956" y="293.22686" style="fill: #008000; stroke: #008000"/>
     <use xlink:href="#mf70dfa9b2c" x="576.911906" y="298.049489" style="fill: #008000; stroke: #008000"/>
     <use xlink:href="#mf70dfa9b2c" x="584.597856" y="298.729188" style="fill: #008000; stroke: #008000"/>
     <use xlink:href="#mf70dfa9b2c" x="592.283807" y="298.146589" style="fill: #008000; stroke: #008000"/>
     <use xlink:href="#mf70dfa9b2c" x="599.969757" y="302.451351" style="fill: #008000; stroke: #008000"/>
     <use xlink:href="#mf70dfa9b2c" x="607.655708" y="305.688015" style="fill: #008000; stroke: #008000"/>
     <use xlink:href="#mf70dfa9b2c" x="615.341658" y="309.086511" style="fill: #008000; stroke: #008000"/>
     <use xlink:href="#mf70dfa9b2c" x="623.027608" y="313.941507" style="fill: #008000; stroke: #008000"/>
     <use xlink:href="#mf70dfa9b2c" x="630.713559" y="317.27527" style="fill: #008000; stroke: #008000"/>
     <use xlink:href="#mf70dfa9b2c" x="638.399509" y="319.023068" style="fill: #008000; stroke: #008000"/>
     <use xlink:href="#mf70dfa9b2c" x="646.08546" y="321.838966" style="fill: #008000; stroke: #008000"/>
     <use xlink:href="#mf70dfa9b2c" x="653.77141" y="327.729693" style="fill: #008000; stroke: #008000"/>
     <use xlink:href="#mf70dfa9b2c" x="661.457361" y="327.600227" style="fill: #008000; stroke: #008000"/>
     <use xlink:href="#mf70dfa9b2c" x="669.143311" y="327.826793" style="fill: #008000; stroke: #008000"/>
     <use xlink:href="#mf70dfa9b2c" x="676.829261" y="327.794427" style="fill: #008000; stroke: #008000"/>
     <use xlink:href="#mf70dfa9b2c" x="684.515212" y="328.927259" style="fill: #008000; stroke: #008000"/>
     <use xlink:href="#mf70dfa9b2c" x="692.201162" y="333.717521" style="fill: #008000; stroke: #008000"/>
     <use xlink:href="#mf70dfa9b2c" x="699.887113" y="334.00882" style="fill: #008000; stroke: #008000"/>
     <use xlink:href="#mf70dfa9b2c" x="707.573063" y="337.633884" style="fill: #008000; stroke: #008000"/>
     <use xlink:href="#mf70dfa9b2c" x="715.259013" y="337.892817" style="fill: #008000; stroke: #008000"/>
     <use xlink:href="#mf70dfa9b2c" x="722.944964" y="339.122749" style="fill: #008000; stroke: #008000"/>
     <use xlink:href="#mf70dfa9b2c" x="730.630914" y="341.80918" style="fill: #008000; stroke: #008000"/>
     <use xlink:href="#mf70dfa9b2c" x="738.316865" y="346.696541" style="fill: #008000; stroke: #008000"/>
     <use xlink:href="#mf70dfa9b2c" x="746.002815" y="347.117308" style="fill: #008000; stroke: #008000"/>
     <use xlink:href="#mf70dfa9b2c" x="753.688765" y="349.124039" style="fill: #008000; stroke: #008000"/>
     <use xlink:href="#mf70dfa9b2c" x="761.374716" y="350.127405" style="fill: #008000; stroke: #008000"/>
     <use xlink:href="#mf70dfa9b2c" x="769.060666" y="347.991207" style="fill: #008000; stroke: #008000"/>
     <use xlink:href="#mf70dfa9b2c" x="776.746617" y="349.609539" style="fill: #008000; stroke: #008000"/>
     <use xlink:href="#mf70dfa9b2c" x="784.432567" y="350.645271" style="fill: #008000; stroke: #008000"/>
     <use xlink:href="#mf70dfa9b2c" x="792.118518" y="351.972303" style="fill: #008000; stroke: #008000"/>
     <use xlink:href="#mf70dfa9b2c" x="799.804468" y="355.694466" style="fill: #008000; stroke: #008000"/>
     <use xlink:href="#mf70dfa9b2c" x="807.490418" y="353.979034" style="fill: #008000; stroke: #008000"/>
     <use xlink:href="#mf70dfa9b2c" x="815.176369" y="355.694466" style="fill: #008000; stroke: #008000"/>
     <use xlink:href="#mf70dfa9b2c" x="822.862319" y="355.208966" style="fill: #008000; stroke: #008000"/>
     <use xlink:href="#mf70dfa9b2c" x="830.54827" y="354.950033" style="fill: #008000; stroke: #008000"/>
     <use xlink:href="#mf70dfa9b2c" x="838.23422" y="357.895397" style="fill: #008000; stroke: #008000"/>
     <use xlink:href="#mf70dfa9b2c" x="845.92017" y="358.769296" style="fill: #008000; stroke: #008000"/>
    </g>
   </g>
   <g id="line2d_49">
    <path d="M 845.92017 465.838125 
L 845.92017 22.318125 
" clip-path="url(#pa7d62f3502)" style="fill: none; stroke-dasharray: 5.55,2.4; stroke-dashoffset: 0; stroke: #0000ff; stroke-width: 1.5"/>
   </g>
   <g id="line2d_50">
    <path d="M 85.01108 89.543626 
L 92.69703 60.963887 
L 100.38298 60.737321 
L 108.068931 58.018523 
L 115.754881 51.70703 
L 123.440832 72.09801 
L 131.126782 67.048815 
L 138.812732 79.477602 
L 146.498683 74.622607 
L 154.184633 80.286768 
L 161.870584 72.939542 
L 169.556534 70.706244 
L 177.242485 66.207282 
L 184.928435 60.187088 
L 192.614385 49.765032 
L 200.300336 55.914692 
L 207.986286 56.562025 
L 215.672237 45.395536 
L 223.358187 38.339609 
L 231.044137 48.891132 
L 238.730088 54.005061 
L 246.416038 52.645662 
L 254.101989 58.277457 
L 261.787939 58.43929 
L 269.473889 71.61251 
L 277.15984 74.913907 
L 284.84579 72.648242 
L 292.531741 71.450677 
L 300.217691 75.982006 
L 307.903642 78.797903 
L 315.589592 79.574702 
L 323.275542 78.765537 
L 330.961493 87.180862 
L 338.647443 93.071589 
L 346.333394 79.056836 
L 354.019344 78.085837 
L 361.705294 76.273306 
L 369.391245 72.615876 
L 377.077195 67.760881 
L 384.763146 69.573412 
L 392.449096 75.36704 
L 400.135046 83.426332 
L 407.820997 78.085837 
L 415.506947 76.758805 
L 423.192898 75.820173 
L 430.878848 75.334673 
L 438.564799 74.331308 
L 446.250749 78.53897 
L 453.936699 77.891637 
L 461.62265 81.290134 
L 469.3086 86.339329 
L 476.994551 84.267864 
L 484.680501 85.627263 
L 492.366451 85.56253 
L 500.052402 91.388524 
L 507.738352 85.918563 
L 515.424303 85.46543 
L 523.110253 90.870658 
L 530.796204 90.514625 
L 538.482154 91.938757 
L 546.168104 93.136322 
L 553.854055 99.51255 
L 561.540005 101.648747 
L 569.225956 104.140978 
L 576.911906 105.500377 
L 584.597856 108.478107 
L 592.283807 106.212443 
L 599.969757 106.309543 
L 607.655708 109.80514 
L 615.341658 113.138903 
L 623.027608 113.753869 
L 630.713559 108.639941 
L 638.399509 103.234713 
L 646.08546 107.766042 
L 653.77141 106.633209 
L 661.457361 105.014878 
L 669.143311 106.374276 
L 676.829261 109.481473 
L 684.515212 110.711405 
L 692.201162 103.979145 
L 699.887113 107.345275 
L 707.573063 105.370911 
L 715.259013 105.176711 
L 722.944964 101.875314 
L 730.630914 109.999339 
L 738.316865 108.186808 
L 746.002815 106.762676 
L 753.688765 110.549572 
L 761.374716 102.97578 
L 769.060666 104.432278 
L 776.746617 99.900949 
L 784.432567 97.117419 
L 792.118518 94.722288 
L 799.804468 95.143054 
L 807.490418 94.139688 
L 815.176369 90.967758 
L 822.862319 96.729019 
L 830.54827 102.328447 
L 838.23422 103.849679 
L 845.92017 103.849679 
" clip-path="url(#pa7d62f3502)" style="fill: none; stroke: #0000ff; stroke-width: 1.5; stroke-linecap: square"/>
    <defs>
     <path id="m8966657f6c" d="M 0 3 
C 0.795609 3 1.55874 2.683901 2.12132 2.12132 
C 2.683901 1.55874 3 0.795609 3 0 
C 3 -0.795609 2.683901 -1.55874 2.12132 -2.12132 
C 1.55874 -2.683901 0.795609 -3 0 -3 
C -0.795609 -3 -1.55874 -2.683901 -2.12132 -2.12132 
C -2.683901 -1.55874 -3 -0.795609 -3 0 
C -3 0.795609 -2.683901 1.55874 -2.12132 2.12132 
C -1.55874 2.683901 -0.795609 3 0 3 
z
" style="stroke: #0000ff"/>
    </defs>
    <g clip-path="url(#pa7d62f3502)">
     <use xlink:href="#m8966657f6c" x="85.01108" y="89.543626" style="fill: #0000ff; stroke: #0000ff"/>
     <use xlink:href="#m8966657f6c" x="92.69703" y="60.963887" style="fill: #0000ff; stroke: #0000ff"/>
     <use xlink:href="#m8966657f6c" x="100.38298" y="60.737321" style="fill: #0000ff; stroke: #0000ff"/>
     <use xlink:href="#m8966657f6c" x="108.068931" y="58.018523" style="fill: #0000ff; stroke: #0000ff"/>
     <use xlink:href="#m8966657f6c" x="115.754881" y="51.70703" style="fill: #0000ff; stroke: #0000ff"/>
     <use xlink:href="#m8966657f6c" x="123.440832" y="72.09801" style="fill: #0000ff; stroke: #0000ff"/>
     <use xlink:href="#m8966657f6c" x="131.126782" y="67.048815" style="fill: #0000ff; stroke: #0000ff"/>
     <use xlink:href="#m8966657f6c" x="138.812732" y="79.477602" style="fill: #0000ff; stroke: #0000ff"/>
     <use xlink:href="#m8966657f6c" x="146.498683" y="74.622607" style="fill: #0000ff; stroke: #0000ff"/>
     <use xlink:href="#m8966657f6c" x="154.184633" y="80.286768" style="fill: #0000ff; stroke: #0000ff"/>
     <use xlink:href="#m8966657f6c" x="161.870584" y="72.939542" style="fill: #0000ff; stroke: #0000ff"/>
     <use xlink:href="#m8966657f6c" x="169.556534" y="70.706244" style="fill: #0000ff; stroke: #0000ff"/>
     <use xlink:href="#m8966657f6c" x="177.242485" y="66.207282" style="fill: #0000ff; stroke: #0000ff"/>
     <use xlink:href="#m8966657f6c" x="184.928435" y="60.187088" style="fill: #0000ff; stroke: #0000ff"/>
     <use xlink:href="#m8966657f6c" x="192.614385" y="49.765032" style="fill: #0000ff; stroke: #0000ff"/>
     <use xlink:href="#m8966657f6c" x="200.300336" y="55.914692" style="fill: #0000ff; stroke: #0000ff"/>
     <use xlink:href="#m8966657f6c" x="207.986286" y="56.562025" style="fill: #0000ff; stroke: #0000ff"/>
     <use xlink:href="#m8966657f6c" x="215.672237" y="45.395536" style="fill: #0000ff; stroke: #0000ff"/>
     <use xlink:href="#m8966657f6c" x="223.358187" y="38.339609" style="fill: #0000ff; stroke: #0000ff"/>
     <use xlink:href="#m8966657f6c" x="231.044137" y="48.891132" style="fill: #0000ff; stroke: #0000ff"/>
     <use xlink:href="#m8966657f6c" x="238.730088" y="54.005061" style="fill: #0000ff; stroke: #0000ff"/>
     <use xlink:href="#m8966657f6c" x="246.416038" y="52.645662" style="fill: #0000ff; stroke: #0000ff"/>
     <use xlink:href="#m8966657f6c" x="254.101989" y="58.277457" style="fill: #0000ff; stroke: #0000ff"/>
     <use xlink:href="#m8966657f6c" x="261.787939" y="58.43929" style="fill: #0000ff; stroke: #0000ff"/>
     <use xlink:href="#m8966657f6c" x="269.473889" y="71.61251" style="fill: #0000ff; stroke: #0000ff"/>
     <use xlink:href="#m8966657f6c" x="277.15984" y="74.913907" style="fill: #0000ff; stroke: #0000ff"/>
     <use xlink:href="#m8966657f6c" x="284.84579" y="72.648242" style="fill: #0000ff; stroke: #0000ff"/>
     <use xlink:href="#m8966657f6c" x="292.531741" y="71.450677" style="fill: #0000ff; stroke: #0000ff"/>
     <use xlink:href="#m8966657f6c" x="300.217691" y="75.982006" style="fill: #0000ff; stroke: #0000ff"/>
     <use xlink:href="#m8966657f6c" x="307.903642" y="78.797903" style="fill: #0000ff; stroke: #0000ff"/>
     <use xlink:href="#m8966657f6c" x="315.589592" y="79.574702" style="fill: #0000ff; stroke: #0000ff"/>
     <use xlink:href="#m8966657f6c" x="323.275542" y="78.765537" style="fill: #0000ff; stroke: #0000ff"/>
     <use xlink:href="#m8966657f6c" x="330.961493" y="87.180862" style="fill: #0000ff; stroke: #0000ff"/>
     <use xlink:href="#m8966657f6c" x="338.647443" y="93.071589" style="fill: #0000ff; stroke: #0000ff"/>
     <use xlink:href="#m8966657f6c" x="346.333394" y="79.056836" style="fill: #0000ff; stroke: #0000ff"/>
     <use xlink:href="#m8966657f6c" x="354.019344" y="78.085837" style="fill: #0000ff; stroke: #0000ff"/>
     <use xlink:href="#m8966657f6c" x="361.705294" y="76.273306" style="fill: #0000ff; stroke: #0000ff"/>
     <use xlink:href="#m8966657f6c" x="369.391245" y="72.615876" style="fill: #0000ff; stroke: #0000ff"/>
     <use xlink:href="#m8966657f6c" x="377.077195" y="67.760881" style="fill: #0000ff; stroke: #0000ff"/>
     <use xlink:href="#m8966657f6c" x="384.763146" y="69.573412" style="fill: #0000ff; stroke: #0000ff"/>
     <use xlink:href="#m8966657f6c" x="392.449096" y="75.36704" style="fill: #0000ff; stroke: #0000ff"/>
     <use xlink:href="#m8966657f6c" x="400.135046" y="83.426332" style="fill: #0000ff; stroke: #0000ff"/>
     <use xlink:href="#m8966657f6c" x="407.820997" y="78.085837" style="fill: #0000ff; stroke: #0000ff"/>
     <use xlink:href="#m8966657f6c" x="415.506947" y="76.758805" style="fill: #0000ff; stroke: #0000ff"/>
     <use xlink:href="#m8966657f6c" x="423.192898" y="75.820173" style="fill: #0000ff; stroke: #0000ff"/>
     <use xlink:href="#m8966657f6c" x="430.878848" y="75.334673" style="fill: #0000ff; stroke: #0000ff"/>
     <use xlink:href="#m8966657f6c" x="438.564799" y="74.331308" style="fill: #0000ff; stroke: #0000ff"/>
     <use xlink:href="#m8966657f6c" x="446.250749" y="78.53897" style="fill: #0000ff; stroke: #0000ff"/>
     <use xlink:href="#m8966657f6c" x="453.936699" y="77.891637" style="fill: #0000ff; stroke: #0000ff"/>
     <use xlink:href="#m8966657f6c" x="461.62265" y="81.290134" style="fill: #0000ff; stroke: #0000ff"/>
     <use xlink:href="#m8966657f6c" x="469.3086" y="86.339329" style="fill: #0000ff; stroke: #0000ff"/>
     <use xlink:href="#m8966657f6c" x="476.994551" y="84.267864" style="fill: #0000ff; stroke: #0000ff"/>
     <use xlink:href="#m8966657f6c" x="484.680501" y="85.627263" style="fill: #0000ff; stroke: #0000ff"/>
     <use xlink:href="#m8966657f6c" x="492.366451" y="85.56253" style="fill: #0000ff; stroke: #0000ff"/>
     <use xlink:href="#m8966657f6c" x="500.052402" y="91.388524" style="fill: #0000ff; stroke: #0000ff"/>
     <use xlink:href="#m8966657f6c" x="507.738352" y="85.918563" style="fill: #0000ff; stroke: #0000ff"/>
     <use xlink:href="#m8966657f6c" x="515.424303" y="85.46543" style="fill: #0000ff; stroke: #0000ff"/>
     <use xlink:href="#m8966657f6c" x="523.110253" y="90.870658" style="fill: #0000ff; stroke: #0000ff"/>
     <use xlink:href="#m8966657f6c" x="530.796204" y="90.514625" style="fill: #0000ff; stroke: #0000ff"/>
     <use xlink:href="#m8966657f6c" x="538.482154" y="91.938757" style="fill: #0000ff; stroke: #0000ff"/>
     <use xlink:href="#m8966657f6c" x="546.168104" y="93.136322" style="fill: #0000ff; stroke: #0000ff"/>
     <use xlink:href="#m8966657f6c" x="553.854055" y="99.51255" style="fill: #0000ff; stroke: #0000ff"/>
     <use xlink:href="#m8966657f6c" x="561.540005" y="101.648747" style="fill: #0000ff; stroke: #0000ff"/>
     <use xlink:href="#m8966657f6c" x="569.225956" y="104.140978" style="fill: #0000ff; stroke: #0000ff"/>
     <use xlink:href="#m8966657f6c" x="576.911906" y="105.500377" style="fill: #0000ff; stroke: #0000ff"/>
     <use xlink:href="#m8966657f6c" x="584.597856" y="108.478107" style="fill: #0000ff; stroke: #0000ff"/>
     <use xlink:href="#m8966657f6c" x="592.283807" y="106.212443" style="fill: #0000ff; stroke: #0000ff"/>
     <use xlink:href="#m8966657f6c" x="599.969757" y="106.309543" style="fill: #0000ff; stroke: #0000ff"/>
     <use xlink:href="#m8966657f6c" x="607.655708" y="109.80514" style="fill: #0000ff; stroke: #0000ff"/>
     <use xlink:href="#m8966657f6c" x="615.341658" y="113.138903" style="fill: #0000ff; stroke: #0000ff"/>
     <use xlink:href="#m8966657f6c" x="623.027608" y="113.753869" style="fill: #0000ff; stroke: #0000ff"/>
     <use xlink:href="#m8966657f6c" x="630.713559" y="108.639941" style="fill: #0000ff; stroke: #0000ff"/>
     <use xlink:href="#m8966657f6c" x="638.399509" y="103.234713" style="fill: #0000ff; stroke: #0000ff"/>
     <use xlink:href="#m8966657f6c" x="646.08546" y="107.766042" style="fill: #0000ff; stroke: #0000ff"/>
     <use xlink:href="#m8966657f6c" x="653.77141" y="106.633209" style="fill: #0000ff; stroke: #0000ff"/>
     <use xlink:href="#m8966657f6c" x="661.457361" y="105.014878" style="fill: #0000ff; stroke: #0000ff"/>
     <use xlink:href="#m8966657f6c" x="669.143311" y="106.374276" style="fill: #0000ff; stroke: #0000ff"/>
     <use xlink:href="#m8966657f6c" x="676.829261" y="109.481473" style="fill: #0000ff; stroke: #0000ff"/>
     <use xlink:href="#m8966657f6c" x="684.515212" y="110.711405" style="fill: #0000ff; stroke: #0000ff"/>
     <use xlink:href="#m8966657f6c" x="692.201162" y="103.979145" style="fill: #0000ff; stroke: #0000ff"/>
     <use xlink:href="#m8966657f6c" x="699.887113" y="107.345275" style="fill: #0000ff; stroke: #0000ff"/>
     <use xlink:href="#m8966657f6c" x="707.573063" y="105.370911" style="fill: #0000ff; stroke: #0000ff"/>
     <use xlink:href="#m8966657f6c" x="715.259013" y="105.176711" style="fill: #0000ff; stroke: #0000ff"/>
     <use xlink:href="#m8966657f6c" x="722.944964" y="101.875314" style="fill: #0000ff; stroke: #0000ff"/>
     <use xlink:href="#m8966657f6c" x="730.630914" y="109.999339" style="fill: #0000ff; stroke: #0000ff"/>
     <use xlink:href="#m8966657f6c" x="738.316865" y="108.186808" style="fill: #0000ff; stroke: #0000ff"/>
     <use xlink:href="#m8966657f6c" x="746.002815" y="106.762676" style="fill: #0000ff; stroke: #0000ff"/>
     <use xlink:href="#m8966657f6c" x="753.688765" y="110.549572" style="fill: #0000ff; stroke: #0000ff"/>
     <use xlink:href="#m8966657f6c" x="761.374716" y="102.97578" style="fill: #0000ff; stroke: #0000ff"/>
     <use xlink:href="#m8966657f6c" x="769.060666" y="104.432278" style="fill: #0000ff; stroke: #0000ff"/>
     <use xlink:href="#m8966657f6c" x="776.746617" y="99.900949" style="fill: #0000ff; stroke: #0000ff"/>
     <use xlink:href="#m8966657f6c" x="784.432567" y="97.117419" style="fill: #0000ff; stroke: #0000ff"/>
     <use xlink:href="#m8966657f6c" x="792.118518" y="94.722288" style="fill: #0000ff; stroke: #0000ff"/>
     <use xlink:href="#m8966657f6c" x="799.804468" y="95.143054" style="fill: #0000ff; stroke: #0000ff"/>
     <use xlink:href="#m8966657f6c" x="807.490418" y="94.139688" style="fill: #0000ff; stroke: #0000ff"/>
     <use xlink:href="#m8966657f6c" x="815.176369" y="90.967758" style="fill: #0000ff; stroke: #0000ff"/>
     <use xlink:href="#m8966657f6c" x="822.862319" y="96.729019" style="fill: #0000ff; stroke: #0000ff"/>
     <use xlink:href="#m8966657f6c" x="830.54827" y="102.328447" style="fill: #0000ff; stroke: #0000ff"/>
     <use xlink:href="#m8966657f6c" x="838.23422" y="103.849679" style="fill: #0000ff; stroke: #0000ff"/>
     <use xlink:href="#m8966657f6c" x="845.92017" y="103.849679" style="fill: #0000ff; stroke: #0000ff"/>
    </g>
   </g>
   <g id="patch_3">
    <path d="M 46.965625 465.838125 
L 46.965625 22.318125 
" style="fill: none; stroke: #000000; stroke-width: 0.8; stroke-linejoin: miter; stroke-linecap: square"/>
   </g>
   <g id="patch_4">
    <path d="M 883.965625 465.838125 
L 883.965625 22.318125 
" style="fill: none; stroke: #000000; stroke-width: 0.8; stroke-linejoin: miter; stroke-linecap: square"/>
   </g>
   <g id="patch_5">
    <path d="M 46.965625 465.838125 
L 883.965625 465.838125 
" style="fill: none; stroke: #000000; stroke-width: 0.8; stroke-linejoin: miter; stroke-linecap: square"/>
   </g>
   <g id="patch_6">
    <path d="M 46.965625 22.318125 
L 883.965625 22.318125 
" style="fill: none; stroke: #000000; stroke-width: 0.8; stroke-linejoin: miter; stroke-linecap: square"/>
   </g>
   <g id="text_25">
    <!-- Guessing Entropy -->
    <g transform="translate(412.576563 16.318125) scale(0.12 -0.12)">
     <defs>
      <path id="DejaVuSans-69" d="M 603 3500 
L 1178 3500 
L 1178 0 
L 603 0 
L 603 3500 
z
M 603 4863 
L 1178 4863 
L 1178 4134 
L 603 4134 
L 603 4863 
z
" transform="scale(0.015625)"/>
      <path id="DejaVuSans-6e" d="M 3513 2113 
L 3513 0 
L 2938 0 
L 2938 2094 
Q 2938 2591 2744 2837 
Q 2550 3084 2163 3084 
Q 1697 3084 1428 2787 
Q 1159 2491 1159 1978 
L 1159 0 
L 581 0 
L 581 3500 
L 1159 3500 
L 1159 2956 
Q 1366 3272 1645 3428 
Q 1925 3584 2291 3584 
Q 2894 3584 3203 3211 
Q 3513 2838 3513 2113 
z
" transform="scale(0.015625)"/>
      <path id="DejaVuSans-67" d="M 2906 1791 
Q 2906 2416 2648 2759 
Q 2391 3103 1925 3103 
Q 1463 3103 1205 2759 
Q 947 2416 947 1791 
Q 947 1169 1205 825 
Q 1463 481 1925 481 
Q 2391 481 2648 825 
Q 2906 1169 2906 1791 
z
M 3481 434 
Q 3481 -459 3084 -895 
Q 2688 -1331 1869 -1331 
Q 1566 -1331 1297 -1286 
Q 1028 -1241 775 -1147 
L 775 -588 
Q 1028 -725 1275 -790 
Q 1522 -856 1778 -856 
Q 2344 -856 2625 -561 
Q 2906 -266 2906 331 
L 2906 616 
Q 2728 306 2450 153 
Q 2172 0 1784 0 
Q 1141 0 747 490 
Q 353 981 353 1791 
Q 353 2603 747 3093 
Q 1141 3584 1784 3584 
Q 2172 3584 2450 3431 
Q 2728 3278 2906 2969 
L 2906 3500 
L 3481 3500 
L 3481 434 
z
" transform="scale(0.015625)"/>
      <path id="DejaVuSans-70" d="M 1159 525 
L 1159 -1331 
L 581 -1331 
L 581 3500 
L 1159 3500 
L 1159 2969 
Q 1341 3281 1617 3432 
Q 1894 3584 2278 3584 
Q 2916 3584 3314 3078 
Q 3713 2572 3713 1747 
Q 3713 922 3314 415 
Q 2916 -91 2278 -91 
Q 1894 -91 1617 61 
Q 1341 213 1159 525 
z
M 3116 1747 
Q 3116 2381 2855 2742 
Q 2594 3103 2138 3103 
Q 1681 3103 1420 2742 
Q 1159 2381 1159 1747 
Q 1159 1113 1420 752 
Q 1681 391 2138 391 
Q 2594 391 2855 752 
Q 3116 1113 3116 1747 
z
" transform="scale(0.015625)"/>
      <path id="DejaVuSans-79" d="M 2059 -325 
Q 1816 -950 1584 -1140 
Q 1353 -1331 966 -1331 
L 506 -1331 
L 506 -850 
L 844 -850 
Q 1081 -850 1212 -737 
Q 1344 -625 1503 -206 
L 1606 56 
L 191 3500 
L 800 3500 
L 1894 763 
L 2988 3500 
L 3597 3500 
L 2059 -325 
z
" transform="scale(0.015625)"/>
     </defs>
     <use xlink:href="#DejaVuSans-47"/>
     <use xlink:href="#DejaVuSans-75" x="77.490234"/>
     <use xlink:href="#DejaVuSans-65" x="140.869141"/>
     <use xlink:href="#DejaVuSans-73" x="202.392578"/>
     <use xlink:href="#DejaVuSans-73" x="254.492188"/>
     <use xlink:href="#DejaVuSans-69" x="306.591797"/>
     <use xlink:href="#DejaVuSans-6e" x="334.375"/>
     <use xlink:href="#DejaVuSans-67" x="397.753906"/>
     <use xlink:href="#DejaVuSans-20" x="461.230469"/>
     <use xlink:href="#DejaVuSans-45" x="493.017578"/>
     <use xlink:href="#DejaVuSans-6e" x="556.201172"/>
     <use xlink:href="#DejaVuSans-74" x="619.580078"/>
     <use xlink:href="#DejaVuSans-72" x="658.789062"/>
     <use xlink:href="#DejaVuSans-6f" x="697.652344"/>
     <use xlink:href="#DejaVuSans-70" x="758.833984"/>
     <use xlink:href="#DejaVuSans-79" x="822.310547"/>
    </g>
   </g>
   <g id="legend_1">
    <g id="patch_7">
     <path d="M 53.965625 460.838125 
L 226.757813 460.838125 
Q 228.757813 460.838125 228.757813 458.838125 
L 228.757813 414.969375 
Q 228.757813 412.969375 226.757813 412.969375 
L 53.965625 412.969375 
Q 51.965625 412.969375 51.965625 414.969375 
L 51.965625 458.838125 
Q 51.965625 460.838125 53.965625 460.838125 
z
" style="fill: #ffffff; opacity: 0.8; stroke: #cccccc; stroke-linejoin: miter"/>
    </g>
    <g id="line2d_51">
     <path d="M 55.965625 421.067812 
L 65.965625 421.067812 
L 75.965625 421.067812 
" style="fill: none; stroke-dasharray: 5.55,2.4; stroke-dashoffset: 0; stroke: #ff0000; stroke-width: 1.5"/>
    </g>
    <g id="text_26">
     <!-- diff_devs_key_1 GE = 100 -->
     <g transform="translate(83.965625 424.567812) scale(0.1 -0.1)">
      <defs>
       <path id="DejaVuSans-64" d="M 2906 2969 
L 2906 4863 
L 3481 4863 
L 3481 0 
L 2906 0 
L 2906 525 
Q 2725 213 2448 61 
Q 2172 -91 1784 -91 
Q 1150 -91 751 415 
Q 353 922 353 1747 
Q 353 2572 751 3078 
Q 1150 3584 1784 3584 
Q 2172 3584 2448 3432 
Q 2725 3281 2906 2969 
z
M 947 1747 
Q 947 1113 1208 752 
Q 1469 391 1925 391 
Q 2381 391 2643 752 
Q 2906 1113 2906 1747 
Q 2906 2381 2643 2742 
Q 2381 3103 1925 3103 
Q 1469 3103 1208 2742 
Q 947 2381 947 1747 
z
" transform="scale(0.015625)"/>
       <path id="DejaVuSans-5f" d="M 3263 -1063 
L 3263 -1509 
L -63 -1509 
L -63 -1063 
L 3263 -1063 
z
" transform="scale(0.015625)"/>
       <path id="DejaVuSans-76" d="M 191 3500 
L 800 3500 
L 1894 563 
L 2988 3500 
L 3597 3500 
L 2284 0 
L 1503 0 
L 191 3500 
z
" transform="scale(0.015625)"/>
       <path id="DejaVuSans-6b" d="M 581 4863 
L 1159 4863 
L 1159 1991 
L 2875 3500 
L 3609 3500 
L 1753 1863 
L 3688 0 
L 2938 0 
L 1159 1709 
L 1159 0 
L 581 0 
L 581 4863 
z
" transform="scale(0.015625)"/>
       <path id="DejaVuSans-3d" d="M 678 2906 
L 4684 2906 
L 4684 2381 
L 678 2381 
L 678 2906 
z
M 678 1631 
L 4684 1631 
L 4684 1100 
L 678 1100 
L 678 1631 
z
" transform="scale(0.015625)"/>
      </defs>
      <use xlink:href="#DejaVuSans-64"/>
      <use xlink:href="#DejaVuSans-69" x="63.476562"/>
      <use xlink:href="#DejaVuSans-66" x="91.259766"/>
      <use xlink:href="#DejaVuSans-66" x="126.464844"/>
      <use xlink:href="#DejaVuSans-5f" x="161.669922"/>
      <use xlink:href="#DejaVuSans-64" x="211.669922"/>
      <use xlink:href="#DejaVuSans-65" x="275.146484"/>
      <use xlink:href="#DejaVuSans-76" x="336.669922"/>
      <use xlink:href="#DejaVuSans-73" x="395.849609"/>
      <use xlink:href="#DejaVuSans-5f" x="447.949219"/>
      <use xlink:href="#DejaVuSans-6b" x="497.949219"/>
      <use xlink:href="#DejaVuSans-65" x="552.234375"/>
      <use xlink:href="#DejaVuSans-79" x="613.757812"/>
      <use xlink:href="#DejaVuSans-5f" x="672.9375"/>
      <use xlink:href="#DejaVuSans-31" x="722.9375"/>
      <use xlink:href="#DejaVuSans-20" x="786.560547"/>
      <use xlink:href="#DejaVuSans-47" x="818.347656"/>
      <use xlink:href="#DejaVuSans-45" x="895.837891"/>
      <use xlink:href="#DejaVuSans-20" x="959.021484"/>
      <use xlink:href="#DejaVuSans-3d" x="990.808594"/>
      <use xlink:href="#DejaVuSans-20" x="1074.597656"/>
      <use xlink:href="#DejaVuSans-31" x="1106.384766"/>
      <use xlink:href="#DejaVuSans-30" x="1170.007812"/>
      <use xlink:href="#DejaVuSans-30" x="1233.630859"/>
     </g>
    </g>
    <g id="line2d_52">
     <path d="M 55.965625 436.024062 
L 65.965625 436.024062 
L 75.965625 436.024062 
" style="fill: none; stroke-dasharray: 5.55,2.4; stroke-dashoffset: 0; stroke: #008000; stroke-width: 1.5"/>
    </g>
    <g id="text_27">
     <!-- same_devs_key_1 GE = 100 -->
     <g transform="translate(83.965625 439.524062) scale(0.1 -0.1)">
      <use xlink:href="#DejaVuSans-73"/>
      <use xlink:href="#DejaVuSans-61" x="52.099609"/>
      <use xlink:href="#DejaVuSans-6d" x="113.378906"/>
      <use xlink:href="#DejaVuSans-65" x="210.791016"/>
      <use xlink:href="#DejaVuSans-5f" x="272.314453"/>
      <use xlink:href="#DejaVuSans-64" x="322.314453"/>
      <use xlink:href="#DejaVuSans-65" x="385.791016"/>
      <use xlink:href="#DejaVuSans-76" x="447.314453"/>
      <use xlink:href="#DejaVuSans-73" x="506.494141"/>
      <use xlink:href="#DejaVuSans-5f" x="558.59375"/>
      <use xlink:href="#DejaVuSans-6b" x="608.59375"/>
      <use xlink:href="#DejaVuSans-65" x="662.878906"/>
      <use xlink:href="#DejaVuSans-79" x="724.402344"/>
      <use xlink:href="#DejaVuSans-5f" x="783.582031"/>
      <use xlink:href="#DejaVuSans-31" x="833.582031"/>
      <use xlink:href="#DejaVuSans-20" x="897.205078"/>
      <use xlink:href="#DejaVuSans-47" x="928.992188"/>
      <use xlink:href="#DejaVuSans-45" x="1006.482422"/>
      <use xlink:href="#DejaVuSans-20" x="1069.666016"/>
      <use xlink:href="#DejaVuSans-3d" x="1101.453125"/>
      <use xlink:href="#DejaVuSans-20" x="1185.242188"/>
      <use xlink:href="#DejaVuSans-31" x="1217.029297"/>
      <use xlink:href="#DejaVuSans-30" x="1280.652344"/>
      <use xlink:href="#DejaVuSans-30" x="1344.275391"/>
     </g>
    </g>
    <g id="line2d_53">
     <path d="M 55.965625 450.980312 
L 65.965625 450.980312 
L 75.965625 450.980312 
" style="fill: none; stroke-dasharray: 5.55,2.4; stroke-dashoffset: 0; stroke: #0000ff; stroke-width: 1.5"/>
    </g>
    <g id="text_28">
     <!-- diff_devs_key_0 GE = 100 -->
     <g transform="translate(83.965625 454.480312) scale(0.1 -0.1)">
      <use xlink:href="#DejaVuSans-64"/>
      <use xlink:href="#DejaVuSans-69" x="63.476562"/>
      <use xlink:href="#DejaVuSans-66" x="91.259766"/>
      <use xlink:href="#DejaVuSans-66" x="126.464844"/>
      <use xlink:href="#DejaVuSans-5f" x="161.669922"/>
      <use xlink:href="#DejaVuSans-64" x="211.669922"/>
      <use xlink:href="#DejaVuSans-65" x="275.146484"/>
      <use xlink:href="#DejaVuSans-76" x="336.669922"/>
      <use xlink:href="#DejaVuSans-73" x="395.849609"/>
      <use xlink:href="#DejaVuSans-5f" x="447.949219"/>
      <use xlink:href="#DejaVuSans-6b" x="497.949219"/>
      <use xlink:href="#DejaVuSans-65" x="552.234375"/>
      <use xlink:href="#DejaVuSans-79" x="613.757812"/>
      <use xlink:href="#DejaVuSans-5f" x="672.9375"/>
      <use xlink:href="#DejaVuSans-30" x="722.9375"/>
      <use xlink:href="#DejaVuSans-20" x="786.560547"/>
      <use xlink:href="#DejaVuSans-47" x="818.347656"/>
      <use xlink:href="#DejaVuSans-45" x="895.837891"/>
      <use xlink:href="#DejaVuSans-20" x="959.021484"/>
      <use xlink:href="#DejaVuSans-3d" x="990.808594"/>
      <use xlink:href="#DejaVuSans-20" x="1074.597656"/>
      <use xlink:href="#DejaVuSans-31" x="1106.384766"/>
      <use xlink:href="#DejaVuSans-30" x="1170.007812"/>
      <use xlink:href="#DejaVuSans-30" x="1233.630859"/>
     </g>
    </g>
   </g>
  </g>
 </g>
 <defs>
  <clipPath id="pa7d62f3502">
   <rect x="46.965625" y="22.318125" width="837" height="443.52"/>
  </clipPath>
 </defs>
</svg>
