<?xml version="1.0" encoding="utf-8" standalone="no"?>
<!DOCTYPE svg PUBLIC "-//W3C//DTD SVG 1.1//EN"
  "http://www.w3.org/Graphics/SVG/1.1/DTD/svg11.dtd">
<svg xmlns:xlink="http://www.w3.org/1999/xlink" width="891.165625pt" height="503.394375pt" viewBox="0 0 891.165625 503.394375" xmlns="http://www.w3.org/2000/svg" version="1.1">
 <metadata>
  <rdf:RDF xmlns:dc="http://purl.org/dc/elements/1.1/" xmlns:cc="http://creativecommons.org/ns#" xmlns:rdf="http://www.w3.org/1999/02/22-rdf-syntax-ns#">
   <cc:Work>
    <dc:type rdf:resource="http://purl.org/dc/dcmitype/StillImage"/>
    <dc:date>2024-08-07T00:14:49.756140</dc:date>
    <dc:format>image/svg+xml</dc:format>
    <dc:creator>
     <cc:Agent>
      <dc:title>Matplotlib v3.8.0, https://matplotlib.org/</dc:title>
     </cc:Agent>
    </dc:creator>
   </cc:Work>
  </rdf:RDF>
 </metadata>
 <defs>
  <style type="text/css">*{stroke-linejoin: round; stroke-linecap: butt}</style>
 </defs>
 <g id="figure_1">
  <g id="patch_1">
   <path d="M 0 503.394375 
L 891.165625 503.394375 
L 891.165625 0 
L 0 0 
z
" style="fill: #ffffff"/>
  </g>
  <g id="axes_1">
   <g id="patch_2">
    <path d="M 46.965625 465.838125 
L 883.965625 465.838125 
L 883.965625 22.318125 
L 46.965625 22.318125 
z
" style="fill: #ffffff"/>
   </g>
   <g id="matplotlib.axis_1">
    <g id="xtick_1">
     <g id="line2d_1">
      <path d="M 85.01108 465.838125 
L 85.01108 22.318125 
" clip-path="url(#p8dcba2e887)" style="fill: none; stroke: #b0b0b0; stroke-width: 0.8; stroke-linecap: square"/>
     </g>
     <g id="line2d_2">
      <defs>
       <path id="mf174eee3cb" d="M 0 0 
L 0 3.5 
" style="stroke: #000000; stroke-width: 0.8"/>
      </defs>
      <g>
       <use xlink:href="#mf174eee3cb" x="85.01108" y="465.838125" style="stroke: #000000; stroke-width: 0.8"/>
      </g>
     </g>
     <g id="text_1">
      <!-- 0 -->
      <g transform="translate(81.82983 480.436562) scale(0.1 -0.1)">
       <defs>
        <path id="DejaVuSans-30" d="M 2034 4250 
Q 1547 4250 1301 3770 
Q 1056 3291 1056 2328 
Q 1056 1369 1301 889 
Q 1547 409 2034 409 
Q 2525 409 2770 889 
Q 3016 1369 3016 2328 
Q 3016 3291 2770 3770 
Q 2525 4250 2034 4250 
z
M 2034 4750 
Q 2819 4750 3233 4129 
Q 3647 3509 3647 2328 
Q 3647 1150 3233 529 
Q 2819 -91 2034 -91 
Q 1250 -91 836 529 
Q 422 1150 422 2328 
Q 422 3509 836 4129 
Q 1250 4750 2034 4750 
z
" transform="scale(0.015625)"/>
       </defs>
       <use xlink:href="#DejaVuSans-30"/>
      </g>
     </g>
    </g>
    <g id="xtick_2">
     <g id="line2d_3">
      <path d="M 161.870584 465.838125 
L 161.870584 22.318125 
" clip-path="url(#p8dcba2e887)" style="fill: none; stroke: #b0b0b0; stroke-width: 0.8; stroke-linecap: square"/>
     </g>
     <g id="line2d_4">
      <g>
       <use xlink:href="#mf174eee3cb" x="161.870584" y="465.838125" style="stroke: #000000; stroke-width: 0.8"/>
      </g>
     </g>
     <g id="text_2">
      <!-- 10 -->
      <g transform="translate(155.508084 480.436562) scale(0.1 -0.1)">
       <defs>
        <path id="DejaVuSans-31" d="M 794 531 
L 1825 531 
L 1825 4091 
L 703 3866 
L 703 4441 
L 1819 4666 
L 2450 4666 
L 2450 531 
L 3481 531 
L 3481 0 
L 794 0 
L 794 531 
z
" transform="scale(0.015625)"/>
       </defs>
       <use xlink:href="#DejaVuSans-31"/>
       <use xlink:href="#DejaVuSans-30" x="63.623047"/>
      </g>
     </g>
    </g>
    <g id="xtick_3">
     <g id="line2d_5">
      <path d="M 238.730088 465.838125 
L 238.730088 22.318125 
" clip-path="url(#p8dcba2e887)" style="fill: none; stroke: #b0b0b0; stroke-width: 0.8; stroke-linecap: square"/>
     </g>
     <g id="line2d_6">
      <g>
       <use xlink:href="#mf174eee3cb" x="238.730088" y="465.838125" style="stroke: #000000; stroke-width: 0.8"/>
      </g>
     </g>
     <g id="text_3">
      <!-- 20 -->
      <g transform="translate(232.367588 480.436562) scale(0.1 -0.1)">
       <defs>
        <path id="DejaVuSans-32" d="M 1228 531 
L 3431 531 
L 3431 0 
L 469 0 
L 469 531 
Q 828 903 1448 1529 
Q 2069 2156 2228 2338 
Q 2531 2678 2651 2914 
Q 2772 3150 2772 3378 
Q 2772 3750 2511 3984 
Q 2250 4219 1831 4219 
Q 1534 4219 1204 4116 
Q 875 4013 500 3803 
L 500 4441 
Q 881 4594 1212 4672 
Q 1544 4750 1819 4750 
Q 2544 4750 2975 4387 
Q 3406 4025 3406 3419 
Q 3406 3131 3298 2873 
Q 3191 2616 2906 2266 
Q 2828 2175 2409 1742 
Q 1991 1309 1228 531 
z
" transform="scale(0.015625)"/>
       </defs>
       <use xlink:href="#DejaVuSans-32"/>
       <use xlink:href="#DejaVuSans-30" x="63.623047"/>
      </g>
     </g>
    </g>
    <g id="xtick_4">
     <g id="line2d_7">
      <path d="M 315.589592 465.838125 
L 315.589592 22.318125 
" clip-path="url(#p8dcba2e887)" style="fill: none; stroke: #b0b0b0; stroke-width: 0.8; stroke-linecap: square"/>
     </g>
     <g id="line2d_8">
      <g>
       <use xlink:href="#mf174eee3cb" x="315.589592" y="465.838125" style="stroke: #000000; stroke-width: 0.8"/>
      </g>
     </g>
     <g id="text_4">
      <!-- 30 -->
      <g transform="translate(309.227092 480.436562) scale(0.1 -0.1)">
       <defs>
        <path id="DejaVuSans-33" d="M 2597 2516 
Q 3050 2419 3304 2112 
Q 3559 1806 3559 1356 
Q 3559 666 3084 287 
Q 2609 -91 1734 -91 
Q 1441 -91 1130 -33 
Q 819 25 488 141 
L 488 750 
Q 750 597 1062 519 
Q 1375 441 1716 441 
Q 2309 441 2620 675 
Q 2931 909 2931 1356 
Q 2931 1769 2642 2001 
Q 2353 2234 1838 2234 
L 1294 2234 
L 1294 2753 
L 1863 2753 
Q 2328 2753 2575 2939 
Q 2822 3125 2822 3475 
Q 2822 3834 2567 4026 
Q 2313 4219 1838 4219 
Q 1578 4219 1281 4162 
Q 984 4106 628 3988 
L 628 4550 
Q 988 4650 1302 4700 
Q 1616 4750 1894 4750 
Q 2613 4750 3031 4423 
Q 3450 4097 3450 3541 
Q 3450 3153 3228 2886 
Q 3006 2619 2597 2516 
z
" transform="scale(0.015625)"/>
       </defs>
       <use xlink:href="#DejaVuSans-33"/>
       <use xlink:href="#DejaVuSans-30" x="63.623047"/>
      </g>
     </g>
    </g>
    <g id="xtick_5">
     <g id="line2d_9">
      <path d="M 392.449096 465.838125 
L 392.449096 22.318125 
" clip-path="url(#p8dcba2e887)" style="fill: none; stroke: #b0b0b0; stroke-width: 0.8; stroke-linecap: square"/>
     </g>
     <g id="line2d_10">
      <g>
       <use xlink:href="#mf174eee3cb" x="392.449096" y="465.838125" style="stroke: #000000; stroke-width: 0.8"/>
      </g>
     </g>
     <g id="text_5">
      <!-- 40 -->
      <g transform="translate(386.086596 480.436562) scale(0.1 -0.1)">
       <defs>
        <path id="DejaVuSans-34" d="M 2419 4116 
L 825 1625 
L 2419 1625 
L 2419 4116 
z
M 2253 4666 
L 3047 4666 
L 3047 1625 
L 3713 1625 
L 3713 1100 
L 3047 1100 
L 3047 0 
L 2419 0 
L 2419 1100 
L 313 1100 
L 313 1709 
L 2253 4666 
z
" transform="scale(0.015625)"/>
       </defs>
       <use xlink:href="#DejaVuSans-34"/>
       <use xlink:href="#DejaVuSans-30" x="63.623047"/>
      </g>
     </g>
    </g>
    <g id="xtick_6">
     <g id="line2d_11">
      <path d="M 469.3086 465.838125 
L 469.3086 22.318125 
" clip-path="url(#p8dcba2e887)" style="fill: none; stroke: #b0b0b0; stroke-width: 0.8; stroke-linecap: square"/>
     </g>
     <g id="line2d_12">
      <g>
       <use xlink:href="#mf174eee3cb" x="469.3086" y="465.838125" style="stroke: #000000; stroke-width: 0.8"/>
      </g>
     </g>
     <g id="text_6">
      <!-- 50 -->
      <g transform="translate(462.9461 480.436562) scale(0.1 -0.1)">
       <defs>
        <path id="DejaVuSans-35" d="M 691 4666 
L 3169 4666 
L 3169 4134 
L 1269 4134 
L 1269 2991 
Q 1406 3038 1543 3061 
Q 1681 3084 1819 3084 
Q 2600 3084 3056 2656 
Q 3513 2228 3513 1497 
Q 3513 744 3044 326 
Q 2575 -91 1722 -91 
Q 1428 -91 1123 -41 
Q 819 9 494 109 
L 494 744 
Q 775 591 1075 516 
Q 1375 441 1709 441 
Q 2250 441 2565 725 
Q 2881 1009 2881 1497 
Q 2881 1984 2565 2268 
Q 2250 2553 1709 2553 
Q 1456 2553 1204 2497 
Q 953 2441 691 2322 
L 691 4666 
z
" transform="scale(0.015625)"/>
       </defs>
       <use xlink:href="#DejaVuSans-35"/>
       <use xlink:href="#DejaVuSans-30" x="63.623047"/>
      </g>
     </g>
    </g>
    <g id="xtick_7">
     <g id="line2d_13">
      <path d="M 546.168104 465.838125 
L 546.168104 22.318125 
" clip-path="url(#p8dcba2e887)" style="fill: none; stroke: #b0b0b0; stroke-width: 0.8; stroke-linecap: square"/>
     </g>
     <g id="line2d_14">
      <g>
       <use xlink:href="#mf174eee3cb" x="546.168104" y="465.838125" style="stroke: #000000; stroke-width: 0.8"/>
      </g>
     </g>
     <g id="text_7">
      <!-- 60 -->
      <g transform="translate(539.805604 480.436562) scale(0.1 -0.1)">
       <defs>
        <path id="DejaVuSans-36" d="M 2113 2584 
Q 1688 2584 1439 2293 
Q 1191 2003 1191 1497 
Q 1191 994 1439 701 
Q 1688 409 2113 409 
Q 2538 409 2786 701 
Q 3034 994 3034 1497 
Q 3034 2003 2786 2293 
Q 2538 2584 2113 2584 
z
M 3366 4563 
L 3366 3988 
Q 3128 4100 2886 4159 
Q 2644 4219 2406 4219 
Q 1781 4219 1451 3797 
Q 1122 3375 1075 2522 
Q 1259 2794 1537 2939 
Q 1816 3084 2150 3084 
Q 2853 3084 3261 2657 
Q 3669 2231 3669 1497 
Q 3669 778 3244 343 
Q 2819 -91 2113 -91 
Q 1303 -91 875 529 
Q 447 1150 447 2328 
Q 447 3434 972 4092 
Q 1497 4750 2381 4750 
Q 2619 4750 2861 4703 
Q 3103 4656 3366 4563 
z
" transform="scale(0.015625)"/>
       </defs>
       <use xlink:href="#DejaVuSans-36"/>
       <use xlink:href="#DejaVuSans-30" x="63.623047"/>
      </g>
     </g>
    </g>
    <g id="xtick_8">
     <g id="line2d_15">
      <path d="M 623.027608 465.838125 
L 623.027608 22.318125 
" clip-path="url(#p8dcba2e887)" style="fill: none; stroke: #b0b0b0; stroke-width: 0.8; stroke-linecap: square"/>
     </g>
     <g id="line2d_16">
      <g>
       <use xlink:href="#mf174eee3cb" x="623.027608" y="465.838125" style="stroke: #000000; stroke-width: 0.8"/>
      </g>
     </g>
     <g id="text_8">
      <!-- 70 -->
      <g transform="translate(616.665108 480.436562) scale(0.1 -0.1)">
       <defs>
        <path id="DejaVuSans-37" d="M 525 4666 
L 3525 4666 
L 3525 4397 
L 1831 0 
L 1172 0 
L 2766 4134 
L 525 4134 
L 525 4666 
z
" transform="scale(0.015625)"/>
       </defs>
       <use xlink:href="#DejaVuSans-37"/>
       <use xlink:href="#DejaVuSans-30" x="63.623047"/>
      </g>
     </g>
    </g>
    <g id="xtick_9">
     <g id="line2d_17">
      <path d="M 699.887113 465.838125 
L 699.887113 22.318125 
" clip-path="url(#p8dcba2e887)" style="fill: none; stroke: #b0b0b0; stroke-width: 0.8; stroke-linecap: square"/>
     </g>
     <g id="line2d_18">
      <g>
       <use xlink:href="#mf174eee3cb" x="699.887113" y="465.838125" style="stroke: #000000; stroke-width: 0.8"/>
      </g>
     </g>
     <g id="text_9">
      <!-- 80 -->
      <g transform="translate(693.524613 480.436562) scale(0.1 -0.1)">
       <defs>
        <path id="DejaVuSans-38" d="M 2034 2216 
Q 1584 2216 1326 1975 
Q 1069 1734 1069 1313 
Q 1069 891 1326 650 
Q 1584 409 2034 409 
Q 2484 409 2743 651 
Q 3003 894 3003 1313 
Q 3003 1734 2745 1975 
Q 2488 2216 2034 2216 
z
M 1403 2484 
Q 997 2584 770 2862 
Q 544 3141 544 3541 
Q 544 4100 942 4425 
Q 1341 4750 2034 4750 
Q 2731 4750 3128 4425 
Q 3525 4100 3525 3541 
Q 3525 3141 3298 2862 
Q 3072 2584 2669 2484 
Q 3125 2378 3379 2068 
Q 3634 1759 3634 1313 
Q 3634 634 3220 271 
Q 2806 -91 2034 -91 
Q 1263 -91 848 271 
Q 434 634 434 1313 
Q 434 1759 690 2068 
Q 947 2378 1403 2484 
z
M 1172 3481 
Q 1172 3119 1398 2916 
Q 1625 2713 2034 2713 
Q 2441 2713 2670 2916 
Q 2900 3119 2900 3481 
Q 2900 3844 2670 4047 
Q 2441 4250 2034 4250 
Q 1625 4250 1398 4047 
Q 1172 3844 1172 3481 
z
" transform="scale(0.015625)"/>
       </defs>
       <use xlink:href="#DejaVuSans-38"/>
       <use xlink:href="#DejaVuSans-30" x="63.623047"/>
      </g>
     </g>
    </g>
    <g id="xtick_10">
     <g id="line2d_19">
      <path d="M 776.746617 465.838125 
L 776.746617 22.318125 
" clip-path="url(#p8dcba2e887)" style="fill: none; stroke: #b0b0b0; stroke-width: 0.8; stroke-linecap: square"/>
     </g>
     <g id="line2d_20">
      <g>
       <use xlink:href="#mf174eee3cb" x="776.746617" y="465.838125" style="stroke: #000000; stroke-width: 0.8"/>
      </g>
     </g>
     <g id="text_10">
      <!-- 90 -->
      <g transform="translate(770.384117 480.436562) scale(0.1 -0.1)">
       <defs>
        <path id="DejaVuSans-39" d="M 703 97 
L 703 672 
Q 941 559 1184 500 
Q 1428 441 1663 441 
Q 2288 441 2617 861 
Q 2947 1281 2994 2138 
Q 2813 1869 2534 1725 
Q 2256 1581 1919 1581 
Q 1219 1581 811 2004 
Q 403 2428 403 3163 
Q 403 3881 828 4315 
Q 1253 4750 1959 4750 
Q 2769 4750 3195 4129 
Q 3622 3509 3622 2328 
Q 3622 1225 3098 567 
Q 2575 -91 1691 -91 
Q 1453 -91 1209 -44 
Q 966 3 703 97 
z
M 1959 2075 
Q 2384 2075 2632 2365 
Q 2881 2656 2881 3163 
Q 2881 3666 2632 3958 
Q 2384 4250 1959 4250 
Q 1534 4250 1286 3958 
Q 1038 3666 1038 3163 
Q 1038 2656 1286 2365 
Q 1534 2075 1959 2075 
z
" transform="scale(0.015625)"/>
       </defs>
       <use xlink:href="#DejaVuSans-39"/>
       <use xlink:href="#DejaVuSans-30" x="63.623047"/>
      </g>
     </g>
    </g>
    <g id="xtick_11">
     <g id="line2d_21">
      <path d="M 853.606121 465.838125 
L 853.606121 22.318125 
" clip-path="url(#p8dcba2e887)" style="fill: none; stroke: #b0b0b0; stroke-width: 0.8; stroke-linecap: square"/>
     </g>
     <g id="line2d_22">
      <g>
       <use xlink:href="#mf174eee3cb" x="853.606121" y="465.838125" style="stroke: #000000; stroke-width: 0.8"/>
      </g>
     </g>
     <g id="text_11">
      <!-- 100 -->
      <g transform="translate(844.062371 480.436562) scale(0.1 -0.1)">
       <use xlink:href="#DejaVuSans-31"/>
       <use xlink:href="#DejaVuSans-30" x="63.623047"/>
       <use xlink:href="#DejaVuSans-30" x="127.246094"/>
      </g>
     </g>
    </g>
    <g id="text_12">
     <!-- Number of traces -->
     <g transform="translate(421.871875 494.114687) scale(0.1 -0.1)">
      <defs>
       <path id="DejaVuSans-4e" d="M 628 4666 
L 1478 4666 
L 3547 763 
L 3547 4666 
L 4159 4666 
L 4159 0 
L 3309 0 
L 1241 3903 
L 1241 0 
L 628 0 
L 628 4666 
z
" transform="scale(0.015625)"/>
       <path id="DejaVuSans-75" d="M 544 1381 
L 544 3500 
L 1119 3500 
L 1119 1403 
Q 1119 906 1312 657 
Q 1506 409 1894 409 
Q 2359 409 2629 706 
Q 2900 1003 2900 1516 
L 2900 3500 
L 3475 3500 
L 3475 0 
L 2900 0 
L 2900 538 
Q 2691 219 2414 64 
Q 2138 -91 1772 -91 
Q 1169 -91 856 284 
Q 544 659 544 1381 
z
M 1991 3584 
L 1991 3584 
z
" transform="scale(0.015625)"/>
       <path id="DejaVuSans-6d" d="M 3328 2828 
Q 3544 3216 3844 3400 
Q 4144 3584 4550 3584 
Q 5097 3584 5394 3201 
Q 5691 2819 5691 2113 
L 5691 0 
L 5113 0 
L 5113 2094 
Q 5113 2597 4934 2840 
Q 4756 3084 4391 3084 
Q 3944 3084 3684 2787 
Q 3425 2491 3425 1978 
L 3425 0 
L 2847 0 
L 2847 2094 
Q 2847 2600 2669 2842 
Q 2491 3084 2119 3084 
Q 1678 3084 1418 2786 
Q 1159 2488 1159 1978 
L 1159 0 
L 581 0 
L 581 3500 
L 1159 3500 
L 1159 2956 
Q 1356 3278 1631 3431 
Q 1906 3584 2284 3584 
Q 2666 3584 2933 3390 
Q 3200 3197 3328 2828 
z
" transform="scale(0.015625)"/>
       <path id="DejaVuSans-62" d="M 3116 1747 
Q 3116 2381 2855 2742 
Q 2594 3103 2138 3103 
Q 1681 3103 1420 2742 
Q 1159 2381 1159 1747 
Q 1159 1113 1420 752 
Q 1681 391 2138 391 
Q 2594 391 2855 752 
Q 3116 1113 3116 1747 
z
M 1159 2969 
Q 1341 3281 1617 3432 
Q 1894 3584 2278 3584 
Q 2916 3584 3314 3078 
Q 3713 2572 3713 1747 
Q 3713 922 3314 415 
Q 2916 -91 2278 -91 
Q 1894 -91 1617 61 
Q 1341 213 1159 525 
L 1159 0 
L 581 0 
L 581 4863 
L 1159 4863 
L 1159 2969 
z
" transform="scale(0.015625)"/>
       <path id="DejaVuSans-65" d="M 3597 1894 
L 3597 1613 
L 953 1613 
Q 991 1019 1311 708 
Q 1631 397 2203 397 
Q 2534 397 2845 478 
Q 3156 559 3463 722 
L 3463 178 
Q 3153 47 2828 -22 
Q 2503 -91 2169 -91 
Q 1331 -91 842 396 
Q 353 884 353 1716 
Q 353 2575 817 3079 
Q 1281 3584 2069 3584 
Q 2775 3584 3186 3129 
Q 3597 2675 3597 1894 
z
M 3022 2063 
Q 3016 2534 2758 2815 
Q 2500 3097 2075 3097 
Q 1594 3097 1305 2825 
Q 1016 2553 972 2059 
L 3022 2063 
z
" transform="scale(0.015625)"/>
       <path id="DejaVuSans-72" d="M 2631 2963 
Q 2534 3019 2420 3045 
Q 2306 3072 2169 3072 
Q 1681 3072 1420 2755 
Q 1159 2438 1159 1844 
L 1159 0 
L 581 0 
L 581 3500 
L 1159 3500 
L 1159 2956 
Q 1341 3275 1631 3429 
Q 1922 3584 2338 3584 
Q 2397 3584 2469 3576 
Q 2541 3569 2628 3553 
L 2631 2963 
z
" transform="scale(0.015625)"/>
       <path id="DejaVuSans-20" transform="scale(0.015625)"/>
       <path id="DejaVuSans-6f" d="M 1959 3097 
Q 1497 3097 1228 2736 
Q 959 2375 959 1747 
Q 959 1119 1226 758 
Q 1494 397 1959 397 
Q 2419 397 2687 759 
Q 2956 1122 2956 1747 
Q 2956 2369 2687 2733 
Q 2419 3097 1959 3097 
z
M 1959 3584 
Q 2709 3584 3137 3096 
Q 3566 2609 3566 1747 
Q 3566 888 3137 398 
Q 2709 -91 1959 -91 
Q 1206 -91 779 398 
Q 353 888 353 1747 
Q 353 2609 779 3096 
Q 1206 3584 1959 3584 
z
" transform="scale(0.015625)"/>
       <path id="DejaVuSans-66" d="M 2375 4863 
L 2375 4384 
L 1825 4384 
Q 1516 4384 1395 4259 
Q 1275 4134 1275 3809 
L 1275 3500 
L 2222 3500 
L 2222 3053 
L 1275 3053 
L 1275 0 
L 697 0 
L 697 3053 
L 147 3053 
L 147 3500 
L 697 3500 
L 697 3744 
Q 697 4328 969 4595 
Q 1241 4863 1831 4863 
L 2375 4863 
z
" transform="scale(0.015625)"/>
       <path id="DejaVuSans-74" d="M 1172 4494 
L 1172 3500 
L 2356 3500 
L 2356 3053 
L 1172 3053 
L 1172 1153 
Q 1172 725 1289 603 
Q 1406 481 1766 481 
L 2356 481 
L 2356 0 
L 1766 0 
Q 1100 0 847 248 
Q 594 497 594 1153 
L 594 3053 
L 172 3053 
L 172 3500 
L 594 3500 
L 594 4494 
L 1172 4494 
z
" transform="scale(0.015625)"/>
       <path id="DejaVuSans-61" d="M 2194 1759 
Q 1497 1759 1228 1600 
Q 959 1441 959 1056 
Q 959 750 1161 570 
Q 1363 391 1709 391 
Q 2188 391 2477 730 
Q 2766 1069 2766 1631 
L 2766 1759 
L 2194 1759 
z
M 3341 1997 
L 3341 0 
L 2766 0 
L 2766 531 
Q 2569 213 2275 61 
Q 1981 -91 1556 -91 
Q 1019 -91 701 211 
Q 384 513 384 1019 
Q 384 1609 779 1909 
Q 1175 2209 1959 2209 
L 2766 2209 
L 2766 2266 
Q 2766 2663 2505 2880 
Q 2244 3097 1772 3097 
Q 1472 3097 1187 3025 
Q 903 2953 641 2809 
L 641 3341 
Q 956 3463 1253 3523 
Q 1550 3584 1831 3584 
Q 2591 3584 2966 3190 
Q 3341 2797 3341 1997 
z
" transform="scale(0.015625)"/>
       <path id="DejaVuSans-63" d="M 3122 3366 
L 3122 2828 
Q 2878 2963 2633 3030 
Q 2388 3097 2138 3097 
Q 1578 3097 1268 2742 
Q 959 2388 959 1747 
Q 959 1106 1268 751 
Q 1578 397 2138 397 
Q 2388 397 2633 464 
Q 2878 531 3122 666 
L 3122 134 
Q 2881 22 2623 -34 
Q 2366 -91 2075 -91 
Q 1284 -91 818 406 
Q 353 903 353 1747 
Q 353 2603 823 3093 
Q 1294 3584 2113 3584 
Q 2378 3584 2631 3529 
Q 2884 3475 3122 3366 
z
" transform="scale(0.015625)"/>
       <path id="DejaVuSans-73" d="M 2834 3397 
L 2834 2853 
Q 2591 2978 2328 3040 
Q 2066 3103 1784 3103 
Q 1356 3103 1142 2972 
Q 928 2841 928 2578 
Q 928 2378 1081 2264 
Q 1234 2150 1697 2047 
L 1894 2003 
Q 2506 1872 2764 1633 
Q 3022 1394 3022 966 
Q 3022 478 2636 193 
Q 2250 -91 1575 -91 
Q 1294 -91 989 -36 
Q 684 19 347 128 
L 347 722 
Q 666 556 975 473 
Q 1284 391 1588 391 
Q 1994 391 2212 530 
Q 2431 669 2431 922 
Q 2431 1156 2273 1281 
Q 2116 1406 1581 1522 
L 1381 1569 
Q 847 1681 609 1914 
Q 372 2147 372 2553 
Q 372 3047 722 3315 
Q 1072 3584 1716 3584 
Q 2034 3584 2315 3537 
Q 2597 3491 2834 3397 
z
" transform="scale(0.015625)"/>
      </defs>
      <use xlink:href="#DejaVuSans-4e"/>
      <use xlink:href="#DejaVuSans-75" x="74.804688"/>
      <use xlink:href="#DejaVuSans-6d" x="138.183594"/>
      <use xlink:href="#DejaVuSans-62" x="235.595703"/>
      <use xlink:href="#DejaVuSans-65" x="299.072266"/>
      <use xlink:href="#DejaVuSans-72" x="360.595703"/>
      <use xlink:href="#DejaVuSans-20" x="401.708984"/>
      <use xlink:href="#DejaVuSans-6f" x="433.496094"/>
      <use xlink:href="#DejaVuSans-66" x="494.677734"/>
      <use xlink:href="#DejaVuSans-20" x="529.882812"/>
      <use xlink:href="#DejaVuSans-74" x="561.669922"/>
      <use xlink:href="#DejaVuSans-72" x="600.878906"/>
      <use xlink:href="#DejaVuSans-61" x="641.992188"/>
      <use xlink:href="#DejaVuSans-63" x="703.271484"/>
      <use xlink:href="#DejaVuSans-65" x="758.251953"/>
      <use xlink:href="#DejaVuSans-73" x="819.775391"/>
     </g>
    </g>
   </g>
   <g id="matplotlib.axis_2">
    <g id="ytick_1">
     <g id="line2d_23">
      <path d="M 46.965625 448.161903 
L 883.965625 448.161903 
" clip-path="url(#p8dcba2e887)" style="fill: none; stroke: #b0b0b0; stroke-width: 0.8; stroke-linecap: square"/>
     </g>
     <g id="line2d_24">
      <defs>
       <path id="mba3ef253d7" d="M 0 0 
L -3.5 0 
" style="stroke: #000000; stroke-width: 0.8"/>
      </defs>
      <g>
       <use xlink:href="#mba3ef253d7" x="46.965625" y="448.161903" style="stroke: #000000; stroke-width: 0.8"/>
      </g>
     </g>
     <g id="text_13">
      <!-- 0 -->
      <g transform="translate(33.603125 451.961122) scale(0.1 -0.1)">
       <use xlink:href="#DejaVuSans-30"/>
      </g>
     </g>
    </g>
    <g id="ytick_2">
     <g id="line2d_25">
      <path d="M 46.965625 406.765599 
L 883.965625 406.765599 
" clip-path="url(#p8dcba2e887)" style="fill: none; stroke: #b0b0b0; stroke-width: 0.8; stroke-linecap: square"/>
     </g>
     <g id="line2d_26">
      <g>
       <use xlink:href="#mba3ef253d7" x="46.965625" y="406.765599" style="stroke: #000000; stroke-width: 0.8"/>
      </g>
     </g>
     <g id="text_14">
      <!-- 10 -->
      <g transform="translate(27.240625 410.564818) scale(0.1 -0.1)">
       <use xlink:href="#DejaVuSans-31"/>
       <use xlink:href="#DejaVuSans-30" x="63.623047"/>
      </g>
     </g>
    </g>
    <g id="ytick_3">
     <g id="line2d_27">
      <path d="M 46.965625 365.369295 
L 883.965625 365.369295 
" clip-path="url(#p8dcba2e887)" style="fill: none; stroke: #b0b0b0; stroke-width: 0.8; stroke-linecap: square"/>
     </g>
     <g id="line2d_28">
      <g>
       <use xlink:href="#mba3ef253d7" x="46.965625" y="365.369295" style="stroke: #000000; stroke-width: 0.8"/>
      </g>
     </g>
     <g id="text_15">
      <!-- 20 -->
      <g transform="translate(27.240625 369.168514) scale(0.1 -0.1)">
       <use xlink:href="#DejaVuSans-32"/>
       <use xlink:href="#DejaVuSans-30" x="63.623047"/>
      </g>
     </g>
    </g>
    <g id="ytick_4">
     <g id="line2d_29">
      <path d="M 46.965625 323.972992 
L 883.965625 323.972992 
" clip-path="url(#p8dcba2e887)" style="fill: none; stroke: #b0b0b0; stroke-width: 0.8; stroke-linecap: square"/>
     </g>
     <g id="line2d_30">
      <g>
       <use xlink:href="#mba3ef253d7" x="46.965625" y="323.972992" style="stroke: #000000; stroke-width: 0.8"/>
      </g>
     </g>
     <g id="text_16">
      <!-- 30 -->
      <g transform="translate(27.240625 327.77221) scale(0.1 -0.1)">
       <use xlink:href="#DejaVuSans-33"/>
       <use xlink:href="#DejaVuSans-30" x="63.623047"/>
      </g>
     </g>
    </g>
    <g id="ytick_5">
     <g id="line2d_31">
      <path d="M 46.965625 282.576688 
L 883.965625 282.576688 
" clip-path="url(#p8dcba2e887)" style="fill: none; stroke: #b0b0b0; stroke-width: 0.8; stroke-linecap: square"/>
     </g>
     <g id="line2d_32">
      <g>
       <use xlink:href="#mba3ef253d7" x="46.965625" y="282.576688" style="stroke: #000000; stroke-width: 0.8"/>
      </g>
     </g>
     <g id="text_17">
      <!-- 40 -->
      <g transform="translate(27.240625 286.375906) scale(0.1 -0.1)">
       <use xlink:href="#DejaVuSans-34"/>
       <use xlink:href="#DejaVuSans-30" x="63.623047"/>
      </g>
     </g>
    </g>
    <g id="ytick_6">
     <g id="line2d_33">
      <path d="M 46.965625 241.180384 
L 883.965625 241.180384 
" clip-path="url(#p8dcba2e887)" style="fill: none; stroke: #b0b0b0; stroke-width: 0.8; stroke-linecap: square"/>
     </g>
     <g id="line2d_34">
      <g>
       <use xlink:href="#mba3ef253d7" x="46.965625" y="241.180384" style="stroke: #000000; stroke-width: 0.8"/>
      </g>
     </g>
     <g id="text_18">
      <!-- 50 -->
      <g transform="translate(27.240625 244.979602) scale(0.1 -0.1)">
       <use xlink:href="#DejaVuSans-35"/>
       <use xlink:href="#DejaVuSans-30" x="63.623047"/>
      </g>
     </g>
    </g>
    <g id="ytick_7">
     <g id="line2d_35">
      <path d="M 46.965625 199.78408 
L 883.965625 199.78408 
" clip-path="url(#p8dcba2e887)" style="fill: none; stroke: #b0b0b0; stroke-width: 0.8; stroke-linecap: square"/>
     </g>
     <g id="line2d_36">
      <g>
       <use xlink:href="#mba3ef253d7" x="46.965625" y="199.78408" style="stroke: #000000; stroke-width: 0.8"/>
      </g>
     </g>
     <g id="text_19">
      <!-- 60 -->
      <g transform="translate(27.240625 203.583299) scale(0.1 -0.1)">
       <use xlink:href="#DejaVuSans-36"/>
       <use xlink:href="#DejaVuSans-30" x="63.623047"/>
      </g>
     </g>
    </g>
    <g id="ytick_8">
     <g id="line2d_37">
      <path d="M 46.965625 158.387776 
L 883.965625 158.387776 
" clip-path="url(#p8dcba2e887)" style="fill: none; stroke: #b0b0b0; stroke-width: 0.8; stroke-linecap: square"/>
     </g>
     <g id="line2d_38">
      <g>
       <use xlink:href="#mba3ef253d7" x="46.965625" y="158.387776" style="stroke: #000000; stroke-width: 0.8"/>
      </g>
     </g>
     <g id="text_20">
      <!-- 70 -->
      <g transform="translate(27.240625 162.186995) scale(0.1 -0.1)">
       <use xlink:href="#DejaVuSans-37"/>
       <use xlink:href="#DejaVuSans-30" x="63.623047"/>
      </g>
     </g>
    </g>
    <g id="ytick_9">
     <g id="line2d_39">
      <path d="M 46.965625 116.991472 
L 883.965625 116.991472 
" clip-path="url(#p8dcba2e887)" style="fill: none; stroke: #b0b0b0; stroke-width: 0.8; stroke-linecap: square"/>
     </g>
     <g id="line2d_40">
      <g>
       <use xlink:href="#mba3ef253d7" x="46.965625" y="116.991472" style="stroke: #000000; stroke-width: 0.8"/>
      </g>
     </g>
     <g id="text_21">
      <!-- 80 -->
      <g transform="translate(27.240625 120.790691) scale(0.1 -0.1)">
       <use xlink:href="#DejaVuSans-38"/>
       <use xlink:href="#DejaVuSans-30" x="63.623047"/>
      </g>
     </g>
    </g>
    <g id="ytick_10">
     <g id="line2d_41">
      <path d="M 46.965625 75.595168 
L 883.965625 75.595168 
" clip-path="url(#p8dcba2e887)" style="fill: none; stroke: #b0b0b0; stroke-width: 0.8; stroke-linecap: square"/>
     </g>
     <g id="line2d_42">
      <g>
       <use xlink:href="#mba3ef253d7" x="46.965625" y="75.595168" style="stroke: #000000; stroke-width: 0.8"/>
      </g>
     </g>
     <g id="text_22">
      <!-- 90 -->
      <g transform="translate(27.240625 79.394387) scale(0.1 -0.1)">
       <use xlink:href="#DejaVuSans-39"/>
       <use xlink:href="#DejaVuSans-30" x="63.623047"/>
      </g>
     </g>
    </g>
    <g id="ytick_11">
     <g id="line2d_43">
      <path d="M 46.965625 34.198864 
L 883.965625 34.198864 
" clip-path="url(#p8dcba2e887)" style="fill: none; stroke: #b0b0b0; stroke-width: 0.8; stroke-linecap: square"/>
     </g>
     <g id="line2d_44">
      <g>
       <use xlink:href="#mba3ef253d7" x="46.965625" y="34.198864" style="stroke: #000000; stroke-width: 0.8"/>
      </g>
     </g>
     <g id="text_23">
      <!-- 100 -->
      <g transform="translate(20.878125 37.998083) scale(0.1 -0.1)">
       <use xlink:href="#DejaVuSans-31"/>
       <use xlink:href="#DejaVuSans-30" x="63.623047"/>
       <use xlink:href="#DejaVuSans-30" x="127.246094"/>
      </g>
     </g>
    </g>
    <g id="text_24">
     <!-- GE -->
     <g transform="translate(14.798438 251.111719) rotate(-90) scale(0.1 -0.1)">
      <defs>
       <path id="DejaVuSans-47" d="M 3809 666 
L 3809 1919 
L 2778 1919 
L 2778 2438 
L 4434 2438 
L 4434 434 
Q 4069 175 3628 42 
Q 3188 -91 2688 -91 
Q 1594 -91 976 548 
Q 359 1188 359 2328 
Q 359 3472 976 4111 
Q 1594 4750 2688 4750 
Q 3144 4750 3555 4637 
Q 3966 4525 4313 4306 
L 4313 3634 
Q 3963 3931 3569 4081 
Q 3175 4231 2741 4231 
Q 1884 4231 1454 3753 
Q 1025 3275 1025 2328 
Q 1025 1384 1454 906 
Q 1884 428 2741 428 
Q 3075 428 3337 486 
Q 3600 544 3809 666 
z
" transform="scale(0.015625)"/>
       <path id="DejaVuSans-45" d="M 628 4666 
L 3578 4666 
L 3578 4134 
L 1259 4134 
L 1259 2753 
L 3481 2753 
L 3481 2222 
L 1259 2222 
L 1259 531 
L 3634 531 
L 3634 0 
L 628 0 
L 628 4666 
z
" transform="scale(0.015625)"/>
      </defs>
      <use xlink:href="#DejaVuSans-47"/>
      <use xlink:href="#DejaVuSans-45" x="77.490234"/>
     </g>
    </g>
   </g>
   <g id="line2d_45">
    <path d="M 845.92017 465.838125 
L 845.92017 22.318125 
" clip-path="url(#p8dcba2e887)" style="fill: none; stroke-dasharray: 5.55,2.4; stroke-dashoffset: 0; stroke: #ff0000; stroke-width: 1.5"/>
   </g>
   <g id="line2d_46">
    <path d="M 85.01108 87.88987 
L 92.69703 42.478125 
L 100.38298 51.254141 
L 108.068931 80.107365 
L 115.754881 112.603464 
L 123.440832 151.309008 
L 131.126782 162.072047 
L 138.812732 169.978741 
L 146.498683 183.805107 
L 154.184633 181.486914 
L 161.870584 205.331185 
L 169.556534 221.475743 
L 177.242485 208.642889 
L 184.928435 216.342601 
L 192.614385 218.495209 
L 200.300336 229.423833 
L 207.986286 229.672211 
L 215.672237 245.402807 
L 223.358187 250.328967 
L 231.044137 259.394757 
L 238.730088 246.851677 
L 246.416038 261.671554 
L 254.101989 268.129378 
L 261.787939 273.13833 
L 269.473889 281.293402 
L 277.15984 287.58564 
L 284.84579 298.017509 
L 292.531741 291.890856 
L 300.217691 295.699316 
L 307.903642 286.178166 
L 315.589592 296.444449 
L 323.275542 294.623012 
L 330.961493 304.599521 
L 338.647443 308.739152 
L 346.333394 315.072786 
L 354.019344 312.299234 
L 361.705294 318.425887 
L 369.391245 325.877222 
L 377.077195 330.306626 
L 384.763146 333.411349 
L 392.449096 331.093156 
L 400.135046 334.653238 
L 407.820997 339.248228 
L 415.506947 342.477139 
L 423.192898 345.83024 
L 430.878848 350.383833 
L 438.564799 354.357879 
L 446.250749 356.924449 
L 453.936699 359.15985 
L 461.62265 361.271061 
L 469.3086 362.885517 
L 476.994551 364.41718 
L 484.680501 359.077057 
L 492.366451 365.907447 
L 500.052402 370.088474 
L 507.738352 372.282478 
L 515.424303 374.642068 
L 523.110253 379.237057 
L 530.796204 381.265476 
L 538.482154 386.812581 
L 546.168104 388.675415 
L 553.854055 388.38564 
L 561.540005 391.86293 
L 569.225956 389.793115 
L 576.911906 392.276893 
L 584.597856 391.283382 
L 592.283807 394.222519 
L 599.969757 392.939234 
L 607.655708 394.181123 
L 615.341658 394.677879 
L 623.027608 397.244449 
L 630.713559 398.196564 
L 638.399509 398.983094 
L 646.08546 401.094306 
L 653.77141 403.495291 
L 661.457361 403.578084 
L 669.143311 403.826462 
L 676.829261 405.19254 
L 684.515212 407.759111 
L 692.201162 407.262355 
L 699.887113 408.794018 
L 707.573063 408.711226 
L 715.259013 410.988022 
L 722.944964 412.188515 
L 730.630914 412.726667 
L 738.316865 414.920671 
L 746.002815 417.363053 
L 753.688765 414.092745 
L 761.374716 416.079768 
L 769.060666 418.06679 
L 776.746617 418.273772 
L 784.432567 420.095209 
L 792.118518 420.75755 
L 799.804468 421.08872 
L 807.490418 424.89718 
L 815.176369 426.304655 
L 822.862319 427.505148 
L 830.54827 426.304655 
L 838.23422 426.966996 
L 845.92017 426.304655 
" clip-path="url(#p8dcba2e887)" style="fill: none; stroke: #ff0000; stroke-width: 1.5; stroke-linecap: square"/>
    <defs>
     <path id="maae96f0f09" d="M 0 3 
C 0.795609 3 1.55874 2.683901 2.12132 2.12132 
C 2.683901 1.55874 3 0.795609 3 0 
C 3 -0.795609 2.683901 -1.55874 2.12132 -2.12132 
C 1.55874 -2.683901 0.795609 -3 0 -3 
C -0.795609 -3 -1.55874 -2.683901 -2.12132 -2.12132 
C -2.683901 -1.55874 -3 -0.795609 -3 0 
C -3 0.795609 -2.683901 1.55874 -2.12132 2.12132 
C -1.55874 2.683901 -0.795609 3 0 3 
z
" style="stroke: #ff0000"/>
    </defs>
    <g clip-path="url(#p8dcba2e887)">
     <use xlink:href="#maae96f0f09" x="85.01108" y="87.88987" style="fill: #ff0000; stroke: #ff0000"/>
     <use xlink:href="#maae96f0f09" x="92.69703" y="42.478125" style="fill: #ff0000; stroke: #ff0000"/>
     <use xlink:href="#maae96f0f09" x="100.38298" y="51.254141" style="fill: #ff0000; stroke: #ff0000"/>
     <use xlink:href="#maae96f0f09" x="108.068931" y="80.107365" style="fill: #ff0000; stroke: #ff0000"/>
     <use xlink:href="#maae96f0f09" x="115.754881" y="112.603464" style="fill: #ff0000; stroke: #ff0000"/>
     <use xlink:href="#maae96f0f09" x="123.440832" y="151.309008" style="fill: #ff0000; stroke: #ff0000"/>
     <use xlink:href="#maae96f0f09" x="131.126782" y="162.072047" style="fill: #ff0000; stroke: #ff0000"/>
     <use xlink:href="#maae96f0f09" x="138.812732" y="169.978741" style="fill: #ff0000; stroke: #ff0000"/>
     <use xlink:href="#maae96f0f09" x="146.498683" y="183.805107" style="fill: #ff0000; stroke: #ff0000"/>
     <use xlink:href="#maae96f0f09" x="154.184633" y="181.486914" style="fill: #ff0000; stroke: #ff0000"/>
     <use xlink:href="#maae96f0f09" x="161.870584" y="205.331185" style="fill: #ff0000; stroke: #ff0000"/>
     <use xlink:href="#maae96f0f09" x="169.556534" y="221.475743" style="fill: #ff0000; stroke: #ff0000"/>
     <use xlink:href="#maae96f0f09" x="177.242485" y="208.642889" style="fill: #ff0000; stroke: #ff0000"/>
     <use xlink:href="#maae96f0f09" x="184.928435" y="216.342601" style="fill: #ff0000; stroke: #ff0000"/>
     <use xlink:href="#maae96f0f09" x="192.614385" y="218.495209" style="fill: #ff0000; stroke: #ff0000"/>
     <use xlink:href="#maae96f0f09" x="200.300336" y="229.423833" style="fill: #ff0000; stroke: #ff0000"/>
     <use xlink:href="#maae96f0f09" x="207.986286" y="229.672211" style="fill: #ff0000; stroke: #ff0000"/>
     <use xlink:href="#maae96f0f09" x="215.672237" y="245.402807" style="fill: #ff0000; stroke: #ff0000"/>
     <use xlink:href="#maae96f0f09" x="223.358187" y="250.328967" style="fill: #ff0000; stroke: #ff0000"/>
     <use xlink:href="#maae96f0f09" x="231.044137" y="259.394757" style="fill: #ff0000; stroke: #ff0000"/>
     <use xlink:href="#maae96f0f09" x="238.730088" y="246.851677" style="fill: #ff0000; stroke: #ff0000"/>
     <use xlink:href="#maae96f0f09" x="246.416038" y="261.671554" style="fill: #ff0000; stroke: #ff0000"/>
     <use xlink:href="#maae96f0f09" x="254.101989" y="268.129378" style="fill: #ff0000; stroke: #ff0000"/>
     <use xlink:href="#maae96f0f09" x="261.787939" y="273.13833" style="fill: #ff0000; stroke: #ff0000"/>
     <use xlink:href="#maae96f0f09" x="269.473889" y="281.293402" style="fill: #ff0000; stroke: #ff0000"/>
     <use xlink:href="#maae96f0f09" x="277.15984" y="287.58564" style="fill: #ff0000; stroke: #ff0000"/>
     <use xlink:href="#maae96f0f09" x="284.84579" y="298.017509" style="fill: #ff0000; stroke: #ff0000"/>
     <use xlink:href="#maae96f0f09" x="292.531741" y="291.890856" style="fill: #ff0000; stroke: #ff0000"/>
     <use xlink:href="#maae96f0f09" x="300.217691" y="295.699316" style="fill: #ff0000; stroke: #ff0000"/>
     <use xlink:href="#maae96f0f09" x="307.903642" y="286.178166" style="fill: #ff0000; stroke: #ff0000"/>
     <use xlink:href="#maae96f0f09" x="315.589592" y="296.444449" style="fill: #ff0000; stroke: #ff0000"/>
     <use xlink:href="#maae96f0f09" x="323.275542" y="294.623012" style="fill: #ff0000; stroke: #ff0000"/>
     <use xlink:href="#maae96f0f09" x="330.961493" y="304.599521" style="fill: #ff0000; stroke: #ff0000"/>
     <use xlink:href="#maae96f0f09" x="338.647443" y="308.739152" style="fill: #ff0000; stroke: #ff0000"/>
     <use xlink:href="#maae96f0f09" x="346.333394" y="315.072786" style="fill: #ff0000; stroke: #ff0000"/>
     <use xlink:href="#maae96f0f09" x="354.019344" y="312.299234" style="fill: #ff0000; stroke: #ff0000"/>
     <use xlink:href="#maae96f0f09" x="361.705294" y="318.425887" style="fill: #ff0000; stroke: #ff0000"/>
     <use xlink:href="#maae96f0f09" x="369.391245" y="325.877222" style="fill: #ff0000; stroke: #ff0000"/>
     <use xlink:href="#maae96f0f09" x="377.077195" y="330.306626" style="fill: #ff0000; stroke: #ff0000"/>
     <use xlink:href="#maae96f0f09" x="384.763146" y="333.411349" style="fill: #ff0000; stroke: #ff0000"/>
     <use xlink:href="#maae96f0f09" x="392.449096" y="331.093156" style="fill: #ff0000; stroke: #ff0000"/>
     <use xlink:href="#maae96f0f09" x="400.135046" y="334.653238" style="fill: #ff0000; stroke: #ff0000"/>
     <use xlink:href="#maae96f0f09" x="407.820997" y="339.248228" style="fill: #ff0000; stroke: #ff0000"/>
     <use xlink:href="#maae96f0f09" x="415.506947" y="342.477139" style="fill: #ff0000; stroke: #ff0000"/>
     <use xlink:href="#maae96f0f09" x="423.192898" y="345.83024" style="fill: #ff0000; stroke: #ff0000"/>
     <use xlink:href="#maae96f0f09" x="430.878848" y="350.383833" style="fill: #ff0000; stroke: #ff0000"/>
     <use xlink:href="#maae96f0f09" x="438.564799" y="354.357879" style="fill: #ff0000; stroke: #ff0000"/>
     <use xlink:href="#maae96f0f09" x="446.250749" y="356.924449" style="fill: #ff0000; stroke: #ff0000"/>
     <use xlink:href="#maae96f0f09" x="453.936699" y="359.15985" style="fill: #ff0000; stroke: #ff0000"/>
     <use xlink:href="#maae96f0f09" x="461.62265" y="361.271061" style="fill: #ff0000; stroke: #ff0000"/>
     <use xlink:href="#maae96f0f09" x="469.3086" y="362.885517" style="fill: #ff0000; stroke: #ff0000"/>
     <use xlink:href="#maae96f0f09" x="476.994551" y="364.41718" style="fill: #ff0000; stroke: #ff0000"/>
     <use xlink:href="#maae96f0f09" x="484.680501" y="359.077057" style="fill: #ff0000; stroke: #ff0000"/>
     <use xlink:href="#maae96f0f09" x="492.366451" y="365.907447" style="fill: #ff0000; stroke: #ff0000"/>
     <use xlink:href="#maae96f0f09" x="500.052402" y="370.088474" style="fill: #ff0000; stroke: #ff0000"/>
     <use xlink:href="#maae96f0f09" x="507.738352" y="372.282478" style="fill: #ff0000; stroke: #ff0000"/>
     <use xlink:href="#maae96f0f09" x="515.424303" y="374.642068" style="fill: #ff0000; stroke: #ff0000"/>
     <use xlink:href="#maae96f0f09" x="523.110253" y="379.237057" style="fill: #ff0000; stroke: #ff0000"/>
     <use xlink:href="#maae96f0f09" x="530.796204" y="381.265476" style="fill: #ff0000; stroke: #ff0000"/>
     <use xlink:href="#maae96f0f09" x="538.482154" y="386.812581" style="fill: #ff0000; stroke: #ff0000"/>
     <use xlink:href="#maae96f0f09" x="546.168104" y="388.675415" style="fill: #ff0000; stroke: #ff0000"/>
     <use xlink:href="#maae96f0f09" x="553.854055" y="388.38564" style="fill: #ff0000; stroke: #ff0000"/>
     <use xlink:href="#maae96f0f09" x="561.540005" y="391.86293" style="fill: #ff0000; stroke: #ff0000"/>
     <use xlink:href="#maae96f0f09" x="569.225956" y="389.793115" style="fill: #ff0000; stroke: #ff0000"/>
     <use xlink:href="#maae96f0f09" x="576.911906" y="392.276893" style="fill: #ff0000; stroke: #ff0000"/>
     <use xlink:href="#maae96f0f09" x="584.597856" y="391.283382" style="fill: #ff0000; stroke: #ff0000"/>
     <use xlink:href="#maae96f0f09" x="592.283807" y="394.222519" style="fill: #ff0000; stroke: #ff0000"/>
     <use xlink:href="#maae96f0f09" x="599.969757" y="392.939234" style="fill: #ff0000; stroke: #ff0000"/>
     <use xlink:href="#maae96f0f09" x="607.655708" y="394.181123" style="fill: #ff0000; stroke: #ff0000"/>
     <use xlink:href="#maae96f0f09" x="615.341658" y="394.677879" style="fill: #ff0000; stroke: #ff0000"/>
     <use xlink:href="#maae96f0f09" x="623.027608" y="397.244449" style="fill: #ff0000; stroke: #ff0000"/>
     <use xlink:href="#maae96f0f09" x="630.713559" y="398.196564" style="fill: #ff0000; stroke: #ff0000"/>
     <use xlink:href="#maae96f0f09" x="638.399509" y="398.983094" style="fill: #ff0000; stroke: #ff0000"/>
     <use xlink:href="#maae96f0f09" x="646.08546" y="401.094306" style="fill: #ff0000; stroke: #ff0000"/>
     <use xlink:href="#maae96f0f09" x="653.77141" y="403.495291" style="fill: #ff0000; stroke: #ff0000"/>
     <use xlink:href="#maae96f0f09" x="661.457361" y="403.578084" style="fill: #ff0000; stroke: #ff0000"/>
     <use xlink:href="#maae96f0f09" x="669.143311" y="403.826462" style="fill: #ff0000; stroke: #ff0000"/>
     <use xlink:href="#maae96f0f09" x="676.829261" y="405.19254" style="fill: #ff0000; stroke: #ff0000"/>
     <use xlink:href="#maae96f0f09" x="684.515212" y="407.759111" style="fill: #ff0000; stroke: #ff0000"/>
     <use xlink:href="#maae96f0f09" x="692.201162" y="407.262355" style="fill: #ff0000; stroke: #ff0000"/>
     <use xlink:href="#maae96f0f09" x="699.887113" y="408.794018" style="fill: #ff0000; stroke: #ff0000"/>
     <use xlink:href="#maae96f0f09" x="707.573063" y="408.711226" style="fill: #ff0000; stroke: #ff0000"/>
     <use xlink:href="#maae96f0f09" x="715.259013" y="410.988022" style="fill: #ff0000; stroke: #ff0000"/>
     <use xlink:href="#maae96f0f09" x="722.944964" y="412.188515" style="fill: #ff0000; stroke: #ff0000"/>
     <use xlink:href="#maae96f0f09" x="730.630914" y="412.726667" style="fill: #ff0000; stroke: #ff0000"/>
     <use xlink:href="#maae96f0f09" x="738.316865" y="414.920671" style="fill: #ff0000; stroke: #ff0000"/>
     <use xlink:href="#maae96f0f09" x="746.002815" y="417.363053" style="fill: #ff0000; stroke: #ff0000"/>
     <use xlink:href="#maae96f0f09" x="753.688765" y="414.092745" style="fill: #ff0000; stroke: #ff0000"/>
     <use xlink:href="#maae96f0f09" x="761.374716" y="416.079768" style="fill: #ff0000; stroke: #ff0000"/>
     <use xlink:href="#maae96f0f09" x="769.060666" y="418.06679" style="fill: #ff0000; stroke: #ff0000"/>
     <use xlink:href="#maae96f0f09" x="776.746617" y="418.273772" style="fill: #ff0000; stroke: #ff0000"/>
     <use xlink:href="#maae96f0f09" x="784.432567" y="420.095209" style="fill: #ff0000; stroke: #ff0000"/>
     <use xlink:href="#maae96f0f09" x="792.118518" y="420.75755" style="fill: #ff0000; stroke: #ff0000"/>
     <use xlink:href="#maae96f0f09" x="799.804468" y="421.08872" style="fill: #ff0000; stroke: #ff0000"/>
     <use xlink:href="#maae96f0f09" x="807.490418" y="424.89718" style="fill: #ff0000; stroke: #ff0000"/>
     <use xlink:href="#maae96f0f09" x="815.176369" y="426.304655" style="fill: #ff0000; stroke: #ff0000"/>
     <use xlink:href="#maae96f0f09" x="822.862319" y="427.505148" style="fill: #ff0000; stroke: #ff0000"/>
     <use xlink:href="#maae96f0f09" x="830.54827" y="426.304655" style="fill: #ff0000; stroke: #ff0000"/>
     <use xlink:href="#maae96f0f09" x="838.23422" y="426.966996" style="fill: #ff0000; stroke: #ff0000"/>
     <use xlink:href="#maae96f0f09" x="845.92017" y="426.304655" style="fill: #ff0000; stroke: #ff0000"/>
    </g>
   </g>
   <g id="line2d_47">
    <path d="M 845.92017 465.838125 
L 845.92017 22.318125 
" clip-path="url(#p8dcba2e887)" style="fill: none; stroke-dasharray: 5.55,2.4; stroke-dashoffset: 0; stroke: #008000; stroke-width: 1.5"/>
   </g>
   <g id="line2d_48">
    <path d="M 85.01108 98.52872 
L 92.69703 81.225065 
L 100.38298 108.422437 
L 108.068931 142.367406 
L 115.754881 155.324449 
L 123.440832 179.251513 
L 131.126782 192.622519 
L 138.812732 234.308597 
L 146.498683 247.017263 
L 154.184633 259.518946 
L 161.870584 269.619645 
L 169.556534 271.813649 
L 177.242485 287.834018 
L 184.928435 287.792622 
L 192.614385 297.272376 
L 200.300336 303.481821 
L 207.986286 311.595497 
L 215.672237 319.833361 
L 223.358187 328.774963 
L 231.044137 325.463258 
L 238.730088 336.060712 
L 246.416038 344.339973 
L 254.101989 352.495045 
L 261.787939 356.096523 
L 269.473889 361.436647 
L 277.15984 365.493484 
L 284.84579 372.075497 
L 292.531741 375.428597 
L 300.217691 383.086914 
L 307.903642 383.997632 
L 315.589592 388.758207 
L 323.275542 391.324778 
L 330.961493 394.429501 
L 338.647443 395.050445 
L 346.333394 399.190076 
L 354.019344 402.046421 
L 361.705294 400.514757 
L 369.391245 399.893813 
L 377.077195 402.129213 
L 384.763146 406.64141 
L 392.449096 410.822437 
L 400.135046 412.768063 
L 407.820997 411.815948 
L 415.506947 412.395497 
L 423.192898 414.134141 
L 430.878848 417.570035 
L 438.564799 420.550569 
L 446.250749 421.047324 
L 453.936699 423.365517 
L 461.62265 423.77948 
L 469.3086 424.855784 
L 476.994551 426.056277 
L 484.680501 427.712129 
L 492.366451 428.912622 
L 500.052402 430.775456 
L 507.738352 430.361493 
L 515.424303 430.651267 
L 523.110253 430.527078 
L 530.796204 430.320096 
L 538.482154 430.941041 
L 546.168104 431.893156 
L 553.854055 431.768967 
L 561.540005 433.342026 
L 569.225956 433.590404 
L 576.911906 433.342026 
L 584.597856 433.797386 
L 592.283807 435.494634 
L 599.969757 436.32256 
L 607.655708 438.102601 
L 615.341658 437.067694 
L 623.027608 438.102601 
L 630.713559 439.841246 
L 638.399509 440.089624 
L 646.08546 440.13102 
L 653.77141 440.793361 
L 661.457361 440.627776 
L 669.143311 441.662684 
L 676.829261 441.662684 
L 684.515212 441.621287 
L 692.201162 441.538495 
L 699.887113 441.455702 
L 707.573063 441.455702 
L 715.259013 442.159439 
L 722.944964 442.242232 
L 730.630914 442.82178 
L 738.316865 443.194347 
L 746.002815 443.898084 
L 753.688765 444.022273 
L 761.374716 444.270651 
L 769.060666 444.519028 
L 776.746617 444.767406 
L 784.432567 445.264162 
L 792.118518 444.850199 
L 799.804468 445.388351 
L 807.490418 445.429747 
L 815.176369 445.429747 
L 822.862319 445.678125 
L 830.54827 445.098577 
L 838.23422 445.264162 
L 845.92017 445.636729 
" clip-path="url(#p8dcba2e887)" style="fill: none; stroke: #008000; stroke-width: 1.5; stroke-linecap: square"/>
    <defs>
     <path id="m4df31f8b15" d="M 0 3 
C 0.795609 3 1.55874 2.683901 2.12132 2.12132 
C 2.683901 1.55874 3 0.795609 3 0 
C 3 -0.795609 2.683901 -1.55874 2.12132 -2.12132 
C 1.55874 -2.683901 0.795609 -3 0 -3 
C -0.795609 -3 -1.55874 -2.683901 -2.12132 -2.12132 
C -2.683901 -1.55874 -3 -0.795609 -3 0 
C -3 0.795609 -2.683901 1.55874 -2.12132 2.12132 
C -1.55874 2.683901 -0.795609 3 0 3 
z
" style="stroke: #008000"/>
    </defs>
    <g clip-path="url(#p8dcba2e887)">
     <use xlink:href="#m4df31f8b15" x="85.01108" y="98.52872" style="fill: #008000; stroke: #008000"/>
     <use xlink:href="#m4df31f8b15" x="92.69703" y="81.225065" style="fill: #008000; stroke: #008000"/>
     <use xlink:href="#m4df31f8b15" x="100.38298" y="108.422437" style="fill: #008000; stroke: #008000"/>
     <use xlink:href="#m4df31f8b15" x="108.068931" y="142.367406" style="fill: #008000; stroke: #008000"/>
     <use xlink:href="#m4df31f8b15" x="115.754881" y="155.324449" style="fill: #008000; stroke: #008000"/>
     <use xlink:href="#m4df31f8b15" x="123.440832" y="179.251513" style="fill: #008000; stroke: #008000"/>
     <use xlink:href="#m4df31f8b15" x="131.126782" y="192.622519" style="fill: #008000; stroke: #008000"/>
     <use xlink:href="#m4df31f8b15" x="138.812732" y="234.308597" style="fill: #008000; stroke: #008000"/>
     <use xlink:href="#m4df31f8b15" x="146.498683" y="247.017263" style="fill: #008000; stroke: #008000"/>
     <use xlink:href="#m4df31f8b15" x="154.184633" y="259.518946" style="fill: #008000; stroke: #008000"/>
     <use xlink:href="#m4df31f8b15" x="161.870584" y="269.619645" style="fill: #008000; stroke: #008000"/>
     <use xlink:href="#m4df31f8b15" x="169.556534" y="271.813649" style="fill: #008000; stroke: #008000"/>
     <use xlink:href="#m4df31f8b15" x="177.242485" y="287.834018" style="fill: #008000; stroke: #008000"/>
     <use xlink:href="#m4df31f8b15" x="184.928435" y="287.792622" style="fill: #008000; stroke: #008000"/>
     <use xlink:href="#m4df31f8b15" x="192.614385" y="297.272376" style="fill: #008000; stroke: #008000"/>
     <use xlink:href="#m4df31f8b15" x="200.300336" y="303.481821" style="fill: #008000; stroke: #008000"/>
     <use xlink:href="#m4df31f8b15" x="207.986286" y="311.595497" style="fill: #008000; stroke: #008000"/>
     <use xlink:href="#m4df31f8b15" x="215.672237" y="319.833361" style="fill: #008000; stroke: #008000"/>
     <use xlink:href="#m4df31f8b15" x="223.358187" y="328.774963" style="fill: #008000; stroke: #008000"/>
     <use xlink:href="#m4df31f8b15" x="231.044137" y="325.463258" style="fill: #008000; stroke: #008000"/>
     <use xlink:href="#m4df31f8b15" x="238.730088" y="336.060712" style="fill: #008000; stroke: #008000"/>
     <use xlink:href="#m4df31f8b15" x="246.416038" y="344.339973" style="fill: #008000; stroke: #008000"/>
     <use xlink:href="#m4df31f8b15" x="254.101989" y="352.495045" style="fill: #008000; stroke: #008000"/>
     <use xlink:href="#m4df31f8b15" x="261.787939" y="356.096523" style="fill: #008000; stroke: #008000"/>
     <use xlink:href="#m4df31f8b15" x="269.473889" y="361.436647" style="fill: #008000; stroke: #008000"/>
     <use xlink:href="#m4df31f8b15" x="277.15984" y="365.493484" style="fill: #008000; stroke: #008000"/>
     <use xlink:href="#m4df31f8b15" x="284.84579" y="372.075497" style="fill: #008000; stroke: #008000"/>
     <use xlink:href="#m4df31f8b15" x="292.531741" y="375.428597" style="fill: #008000; stroke: #008000"/>
     <use xlink:href="#m4df31f8b15" x="300.217691" y="383.086914" style="fill: #008000; stroke: #008000"/>
     <use xlink:href="#m4df31f8b15" x="307.903642" y="383.997632" style="fill: #008000; stroke: #008000"/>
     <use xlink:href="#m4df31f8b15" x="315.589592" y="388.758207" style="fill: #008000; stroke: #008000"/>
     <use xlink:href="#m4df31f8b15" x="323.275542" y="391.324778" style="fill: #008000; stroke: #008000"/>
     <use xlink:href="#m4df31f8b15" x="330.961493" y="394.429501" style="fill: #008000; stroke: #008000"/>
     <use xlink:href="#m4df31f8b15" x="338.647443" y="395.050445" style="fill: #008000; stroke: #008000"/>
     <use xlink:href="#m4df31f8b15" x="346.333394" y="399.190076" style="fill: #008000; stroke: #008000"/>
     <use xlink:href="#m4df31f8b15" x="354.019344" y="402.046421" style="fill: #008000; stroke: #008000"/>
     <use xlink:href="#m4df31f8b15" x="361.705294" y="400.514757" style="fill: #008000; stroke: #008000"/>
     <use xlink:href="#m4df31f8b15" x="369.391245" y="399.893813" style="fill: #008000; stroke: #008000"/>
     <use xlink:href="#m4df31f8b15" x="377.077195" y="402.129213" style="fill: #008000; stroke: #008000"/>
     <use xlink:href="#m4df31f8b15" x="384.763146" y="406.64141" style="fill: #008000; stroke: #008000"/>
     <use xlink:href="#m4df31f8b15" x="392.449096" y="410.822437" style="fill: #008000; stroke: #008000"/>
     <use xlink:href="#m4df31f8b15" x="400.135046" y="412.768063" style="fill: #008000; stroke: #008000"/>
     <use xlink:href="#m4df31f8b15" x="407.820997" y="411.815948" style="fill: #008000; stroke: #008000"/>
     <use xlink:href="#m4df31f8b15" x="415.506947" y="412.395497" style="fill: #008000; stroke: #008000"/>
     <use xlink:href="#m4df31f8b15" x="423.192898" y="414.134141" style="fill: #008000; stroke: #008000"/>
     <use xlink:href="#m4df31f8b15" x="430.878848" y="417.570035" style="fill: #008000; stroke: #008000"/>
     <use xlink:href="#m4df31f8b15" x="438.564799" y="420.550569" style="fill: #008000; stroke: #008000"/>
     <use xlink:href="#m4df31f8b15" x="446.250749" y="421.047324" style="fill: #008000; stroke: #008000"/>
     <use xlink:href="#m4df31f8b15" x="453.936699" y="423.365517" style="fill: #008000; stroke: #008000"/>
     <use xlink:href="#m4df31f8b15" x="461.62265" y="423.77948" style="fill: #008000; stroke: #008000"/>
     <use xlink:href="#m4df31f8b15" x="469.3086" y="424.855784" style="fill: #008000; stroke: #008000"/>
     <use xlink:href="#m4df31f8b15" x="476.994551" y="426.056277" style="fill: #008000; stroke: #008000"/>
     <use xlink:href="#m4df31f8b15" x="484.680501" y="427.712129" style="fill: #008000; stroke: #008000"/>
     <use xlink:href="#m4df31f8b15" x="492.366451" y="428.912622" style="fill: #008000; stroke: #008000"/>
     <use xlink:href="#m4df31f8b15" x="500.052402" y="430.775456" style="fill: #008000; stroke: #008000"/>
     <use xlink:href="#m4df31f8b15" x="507.738352" y="430.361493" style="fill: #008000; stroke: #008000"/>
     <use xlink:href="#m4df31f8b15" x="515.424303" y="430.651267" style="fill: #008000; stroke: #008000"/>
     <use xlink:href="#m4df31f8b15" x="523.110253" y="430.527078" style="fill: #008000; stroke: #008000"/>
     <use xlink:href="#m4df31f8b15" x="530.796204" y="430.320096" style="fill: #008000; stroke: #008000"/>
     <use xlink:href="#m4df31f8b15" x="538.482154" y="430.941041" style="fill: #008000; stroke: #008000"/>
     <use xlink:href="#m4df31f8b15" x="546.168104" y="431.893156" style="fill: #008000; stroke: #008000"/>
     <use xlink:href="#m4df31f8b15" x="553.854055" y="431.768967" style="fill: #008000; stroke: #008000"/>
     <use xlink:href="#m4df31f8b15" x="561.540005" y="433.342026" style="fill: #008000; stroke: #008000"/>
     <use xlink:href="#m4df31f8b15" x="569.225956" y="433.590404" style="fill: #008000; stroke: #008000"/>
     <use xlink:href="#m4df31f8b15" x="576.911906" y="433.342026" style="fill: #008000; stroke: #008000"/>
     <use xlink:href="#m4df31f8b15" x="584.597856" y="433.797386" style="fill: #008000; stroke: #008000"/>
     <use xlink:href="#m4df31f8b15" x="592.283807" y="435.494634" style="fill: #008000; stroke: #008000"/>
     <use xlink:href="#m4df31f8b15" x="599.969757" y="436.32256" style="fill: #008000; stroke: #008000"/>
     <use xlink:href="#m4df31f8b15" x="607.655708" y="438.102601" style="fill: #008000; stroke: #008000"/>
     <use xlink:href="#m4df31f8b15" x="615.341658" y="437.067694" style="fill: #008000; stroke: #008000"/>
     <use xlink:href="#m4df31f8b15" x="623.027608" y="438.102601" style="fill: #008000; stroke: #008000"/>
     <use xlink:href="#m4df31f8b15" x="630.713559" y="439.841246" style="fill: #008000; stroke: #008000"/>
     <use xlink:href="#m4df31f8b15" x="638.399509" y="440.089624" style="fill: #008000; stroke: #008000"/>
     <use xlink:href="#m4df31f8b15" x="646.08546" y="440.13102" style="fill: #008000; stroke: #008000"/>
     <use xlink:href="#m4df31f8b15" x="653.77141" y="440.793361" style="fill: #008000; stroke: #008000"/>
     <use xlink:href="#m4df31f8b15" x="661.457361" y="440.627776" style="fill: #008000; stroke: #008000"/>
     <use xlink:href="#m4df31f8b15" x="669.143311" y="441.662684" style="fill: #008000; stroke: #008000"/>
     <use xlink:href="#m4df31f8b15" x="676.829261" y="441.662684" style="fill: #008000; stroke: #008000"/>
     <use xlink:href="#m4df31f8b15" x="684.515212" y="441.621287" style="fill: #008000; stroke: #008000"/>
     <use xlink:href="#m4df31f8b15" x="692.201162" y="441.538495" style="fill: #008000; stroke: #008000"/>
     <use xlink:href="#m4df31f8b15" x="699.887113" y="441.455702" style="fill: #008000; stroke: #008000"/>
     <use xlink:href="#m4df31f8b15" x="707.573063" y="441.455702" style="fill: #008000; stroke: #008000"/>
     <use xlink:href="#m4df31f8b15" x="715.259013" y="442.159439" style="fill: #008000; stroke: #008000"/>
     <use xlink:href="#m4df31f8b15" x="722.944964" y="442.242232" style="fill: #008000; stroke: #008000"/>
     <use xlink:href="#m4df31f8b15" x="730.630914" y="442.82178" style="fill: #008000; stroke: #008000"/>
     <use xlink:href="#m4df31f8b15" x="738.316865" y="443.194347" style="fill: #008000; stroke: #008000"/>
     <use xlink:href="#m4df31f8b15" x="746.002815" y="443.898084" style="fill: #008000; stroke: #008000"/>
     <use xlink:href="#m4df31f8b15" x="753.688765" y="444.022273" style="fill: #008000; stroke: #008000"/>
     <use xlink:href="#m4df31f8b15" x="761.374716" y="444.270651" style="fill: #008000; stroke: #008000"/>
     <use xlink:href="#m4df31f8b15" x="769.060666" y="444.519028" style="fill: #008000; stroke: #008000"/>
     <use xlink:href="#m4df31f8b15" x="776.746617" y="444.767406" style="fill: #008000; stroke: #008000"/>
     <use xlink:href="#m4df31f8b15" x="784.432567" y="445.264162" style="fill: #008000; stroke: #008000"/>
     <use xlink:href="#m4df31f8b15" x="792.118518" y="444.850199" style="fill: #008000; stroke: #008000"/>
     <use xlink:href="#m4df31f8b15" x="799.804468" y="445.388351" style="fill: #008000; stroke: #008000"/>
     <use xlink:href="#m4df31f8b15" x="807.490418" y="445.429747" style="fill: #008000; stroke: #008000"/>
     <use xlink:href="#m4df31f8b15" x="815.176369" y="445.429747" style="fill: #008000; stroke: #008000"/>
     <use xlink:href="#m4df31f8b15" x="822.862319" y="445.678125" style="fill: #008000; stroke: #008000"/>
     <use xlink:href="#m4df31f8b15" x="830.54827" y="445.098577" style="fill: #008000; stroke: #008000"/>
     <use xlink:href="#m4df31f8b15" x="838.23422" y="445.264162" style="fill: #008000; stroke: #008000"/>
     <use xlink:href="#m4df31f8b15" x="845.92017" y="445.636729" style="fill: #008000; stroke: #008000"/>
    </g>
   </g>
   <g id="line2d_49">
    <path d="M 845.92017 465.838125 
L 845.92017 22.318125 
" clip-path="url(#p8dcba2e887)" style="fill: none; stroke-dasharray: 5.55,2.4; stroke-dashoffset: 0; stroke: #0000ff; stroke-width: 1.5"/>
   </g>
   <g id="line2d_50">
    <path d="M 85.01108 105.234922 
L 92.69703 79.61061 
L 100.38298 115.128638 
L 108.068931 112.023916 
L 115.754881 124.360014 
L 123.440832 152.799275 
L 131.126782 170.641082 
L 138.812732 193.367653 
L 146.498683 222.427858 
L 154.184633 211.747612 
L 161.870584 226.77447 
L 169.556534 238.282642 
L 177.242485 242.629254 
L 184.928435 253.185312 
L 192.614385 269.536852 
L 200.300336 283.818577 
L 207.986286 286.302355 
L 215.672237 292.222026 
L 223.358187 309.111718 
L 231.044137 309.732663 
L 238.730088 320.74408 
L 246.416038 325.628844 
L 254.101989 331.879686 
L 261.787939 336.971431 
L 269.473889 339.496605 
L 277.15984 346.740959 
L 284.84579 355.930938 
L 292.531741 361.478043 
L 300.217691 366.114429 
L 307.903642 370.709419 
L 315.589592 371.454552 
L 323.275542 376.587694 
L 330.961493 375.925353 
L 338.647443 374.849049 
L 346.333394 378.823094 
L 354.019344 383.832047 
L 361.705294 390.74523 
L 369.391245 390.28987 
L 377.077195 392.525271 
L 384.763146 399.935209 
L 392.449096 400.183587 
L 400.135046 404.902766 
L 407.820997 403.950651 
L 415.506947 405.19254 
L 423.192898 408.173074 
L 430.878848 410.491267 
L 438.564799 411.195004 
L 446.250749 413.554593 
L 453.936699 414.382519 
L 461.62265 415.996975 
L 469.3086 415.748597 
L 476.994551 418.811924 
L 484.680501 419.143094 
L 492.366451 420.095209 
L 500.052402 421.005928 
L 507.738352 424.152047 
L 515.424303 424.441821 
L 523.110253 425.725107 
L 530.796204 427.422355 
L 538.482154 427.380959 
L 546.168104 427.629336 
L 553.854055 428.333074 
L 561.540005 430.651267 
L 569.225956 431.686174 
L 576.911906 433.010856 
L 584.597856 434.501123 
L 592.283807 435.949994 
L 599.969757 436.653731 
L 607.655708 436.488146 
L 615.341658 435.453238 
L 623.027608 437.523053 
L 630.713559 437.564449 
L 638.399509 439.01332 
L 646.08546 439.510076 
L 653.77141 440.089624 
L 661.457361 439.510076 
L 669.143311 440.13102 
L 676.829261 440.58638 
L 684.515212 440.876154 
L 692.201162 442.242232 
L 699.887113 442.945969 
L 707.573063 443.60831 
L 715.259013 443.070158 
L 722.944964 442.03525 
L 730.630914 442.283628 
L 738.316865 442.283628 
L 746.002815 441.911061 
L 753.688765 441.993854 
L 761.374716 442.200835 
L 769.060666 442.200835 
L 776.746617 442.449213 
L 784.432567 441.828269 
L 792.118518 442.656195 
L 799.804468 442.780384 
L 807.490418 442.325024 
L 815.176369 442.449213 
L 822.862319 442.656195 
L 830.54827 443.15295 
L 838.23422 443.525517 
L 845.92017 443.691102 
" clip-path="url(#p8dcba2e887)" style="fill: none; stroke: #0000ff; stroke-width: 1.5; stroke-linecap: square"/>
    <defs>
     <path id="m3eb36ac3fc" d="M 0 3 
C 0.795609 3 1.55874 2.683901 2.12132 2.12132 
C 2.683901 1.55874 3 0.795609 3 0 
C 3 -0.795609 2.683901 -1.55874 2.12132 -2.12132 
C 1.55874 -2.683901 0.795609 -3 0 -3 
C -0.795609 -3 -1.55874 -2.683901 -2.12132 -2.12132 
C -2.683901 -1.55874 -3 -0.795609 -3 0 
C -3 0.795609 -2.683901 1.55874 -2.12132 2.12132 
C -1.55874 2.683901 -0.795609 3 0 3 
z
" style="stroke: #0000ff"/>
    </defs>
    <g clip-path="url(#p8dcba2e887)">
     <use xlink:href="#m3eb36ac3fc" x="85.01108" y="105.234922" style="fill: #0000ff; stroke: #0000ff"/>
     <use xlink:href="#m3eb36ac3fc" x="92.69703" y="79.61061" style="fill: #0000ff; stroke: #0000ff"/>
     <use xlink:href="#m3eb36ac3fc" x="100.38298" y="115.128638" style="fill: #0000ff; stroke: #0000ff"/>
     <use xlink:href="#m3eb36ac3fc" x="108.068931" y="112.023916" style="fill: #0000ff; stroke: #0000ff"/>
     <use xlink:href="#m3eb36ac3fc" x="115.754881" y="124.360014" style="fill: #0000ff; stroke: #0000ff"/>
     <use xlink:href="#m3eb36ac3fc" x="123.440832" y="152.799275" style="fill: #0000ff; stroke: #0000ff"/>
     <use xlink:href="#m3eb36ac3fc" x="131.126782" y="170.641082" style="fill: #0000ff; stroke: #0000ff"/>
     <use xlink:href="#m3eb36ac3fc" x="138.812732" y="193.367653" style="fill: #0000ff; stroke: #0000ff"/>
     <use xlink:href="#m3eb36ac3fc" x="146.498683" y="222.427858" style="fill: #0000ff; stroke: #0000ff"/>
     <use xlink:href="#m3eb36ac3fc" x="154.184633" y="211.747612" style="fill: #0000ff; stroke: #0000ff"/>
     <use xlink:href="#m3eb36ac3fc" x="161.870584" y="226.77447" style="fill: #0000ff; stroke: #0000ff"/>
     <use xlink:href="#m3eb36ac3fc" x="169.556534" y="238.282642" style="fill: #0000ff; stroke: #0000ff"/>
     <use xlink:href="#m3eb36ac3fc" x="177.242485" y="242.629254" style="fill: #0000ff; stroke: #0000ff"/>
     <use xlink:href="#m3eb36ac3fc" x="184.928435" y="253.185312" style="fill: #0000ff; stroke: #0000ff"/>
     <use xlink:href="#m3eb36ac3fc" x="192.614385" y="269.536852" style="fill: #0000ff; stroke: #0000ff"/>
     <use xlink:href="#m3eb36ac3fc" x="200.300336" y="283.818577" style="fill: #0000ff; stroke: #0000ff"/>
     <use xlink:href="#m3eb36ac3fc" x="207.986286" y="286.302355" style="fill: #0000ff; stroke: #0000ff"/>
     <use xlink:href="#m3eb36ac3fc" x="215.672237" y="292.222026" style="fill: #0000ff; stroke: #0000ff"/>
     <use xlink:href="#m3eb36ac3fc" x="223.358187" y="309.111718" style="fill: #0000ff; stroke: #0000ff"/>
     <use xlink:href="#m3eb36ac3fc" x="231.044137" y="309.732663" style="fill: #0000ff; stroke: #0000ff"/>
     <use xlink:href="#m3eb36ac3fc" x="238.730088" y="320.74408" style="fill: #0000ff; stroke: #0000ff"/>
     <use xlink:href="#m3eb36ac3fc" x="246.416038" y="325.628844" style="fill: #0000ff; stroke: #0000ff"/>
     <use xlink:href="#m3eb36ac3fc" x="254.101989" y="331.879686" style="fill: #0000ff; stroke: #0000ff"/>
     <use xlink:href="#m3eb36ac3fc" x="261.787939" y="336.971431" style="fill: #0000ff; stroke: #0000ff"/>
     <use xlink:href="#m3eb36ac3fc" x="269.473889" y="339.496605" style="fill: #0000ff; stroke: #0000ff"/>
     <use xlink:href="#m3eb36ac3fc" x="277.15984" y="346.740959" style="fill: #0000ff; stroke: #0000ff"/>
     <use xlink:href="#m3eb36ac3fc" x="284.84579" y="355.930938" style="fill: #0000ff; stroke: #0000ff"/>
     <use xlink:href="#m3eb36ac3fc" x="292.531741" y="361.478043" style="fill: #0000ff; stroke: #0000ff"/>
     <use xlink:href="#m3eb36ac3fc" x="300.217691" y="366.114429" style="fill: #0000ff; stroke: #0000ff"/>
     <use xlink:href="#m3eb36ac3fc" x="307.903642" y="370.709419" style="fill: #0000ff; stroke: #0000ff"/>
     <use xlink:href="#m3eb36ac3fc" x="315.589592" y="371.454552" style="fill: #0000ff; stroke: #0000ff"/>
     <use xlink:href="#m3eb36ac3fc" x="323.275542" y="376.587694" style="fill: #0000ff; stroke: #0000ff"/>
     <use xlink:href="#m3eb36ac3fc" x="330.961493" y="375.925353" style="fill: #0000ff; stroke: #0000ff"/>
     <use xlink:href="#m3eb36ac3fc" x="338.647443" y="374.849049" style="fill: #0000ff; stroke: #0000ff"/>
     <use xlink:href="#m3eb36ac3fc" x="346.333394" y="378.823094" style="fill: #0000ff; stroke: #0000ff"/>
     <use xlink:href="#m3eb36ac3fc" x="354.019344" y="383.832047" style="fill: #0000ff; stroke: #0000ff"/>
     <use xlink:href="#m3eb36ac3fc" x="361.705294" y="390.74523" style="fill: #0000ff; stroke: #0000ff"/>
     <use xlink:href="#m3eb36ac3fc" x="369.391245" y="390.28987" style="fill: #0000ff; stroke: #0000ff"/>
     <use xlink:href="#m3eb36ac3fc" x="377.077195" y="392.525271" style="fill: #0000ff; stroke: #0000ff"/>
     <use xlink:href="#m3eb36ac3fc" x="384.763146" y="399.935209" style="fill: #0000ff; stroke: #0000ff"/>
     <use xlink:href="#m3eb36ac3fc" x="392.449096" y="400.183587" style="fill: #0000ff; stroke: #0000ff"/>
     <use xlink:href="#m3eb36ac3fc" x="400.135046" y="404.902766" style="fill: #0000ff; stroke: #0000ff"/>
     <use xlink:href="#m3eb36ac3fc" x="407.820997" y="403.950651" style="fill: #0000ff; stroke: #0000ff"/>
     <use xlink:href="#m3eb36ac3fc" x="415.506947" y="405.19254" style="fill: #0000ff; stroke: #0000ff"/>
     <use xlink:href="#m3eb36ac3fc" x="423.192898" y="408.173074" style="fill: #0000ff; stroke: #0000ff"/>
     <use xlink:href="#m3eb36ac3fc" x="430.878848" y="410.491267" style="fill: #0000ff; stroke: #0000ff"/>
     <use xlink:href="#m3eb36ac3fc" x="438.564799" y="411.195004" style="fill: #0000ff; stroke: #0000ff"/>
     <use xlink:href="#m3eb36ac3fc" x="446.250749" y="413.554593" style="fill: #0000ff; stroke: #0000ff"/>
     <use xlink:href="#m3eb36ac3fc" x="453.936699" y="414.382519" style="fill: #0000ff; stroke: #0000ff"/>
     <use xlink:href="#m3eb36ac3fc" x="461.62265" y="415.996975" style="fill: #0000ff; stroke: #0000ff"/>
     <use xlink:href="#m3eb36ac3fc" x="469.3086" y="415.748597" style="fill: #0000ff; stroke: #0000ff"/>
     <use xlink:href="#m3eb36ac3fc" x="476.994551" y="418.811924" style="fill: #0000ff; stroke: #0000ff"/>
     <use xlink:href="#m3eb36ac3fc" x="484.680501" y="419.143094" style="fill: #0000ff; stroke: #0000ff"/>
     <use xlink:href="#m3eb36ac3fc" x="492.366451" y="420.095209" style="fill: #0000ff; stroke: #0000ff"/>
     <use xlink:href="#m3eb36ac3fc" x="500.052402" y="421.005928" style="fill: #0000ff; stroke: #0000ff"/>
     <use xlink:href="#m3eb36ac3fc" x="507.738352" y="424.152047" style="fill: #0000ff; stroke: #0000ff"/>
     <use xlink:href="#m3eb36ac3fc" x="515.424303" y="424.441821" style="fill: #0000ff; stroke: #0000ff"/>
     <use xlink:href="#m3eb36ac3fc" x="523.110253" y="425.725107" style="fill: #0000ff; stroke: #0000ff"/>
     <use xlink:href="#m3eb36ac3fc" x="530.796204" y="427.422355" style="fill: #0000ff; stroke: #0000ff"/>
     <use xlink:href="#m3eb36ac3fc" x="538.482154" y="427.380959" style="fill: #0000ff; stroke: #0000ff"/>
     <use xlink:href="#m3eb36ac3fc" x="546.168104" y="427.629336" style="fill: #0000ff; stroke: #0000ff"/>
     <use xlink:href="#m3eb36ac3fc" x="553.854055" y="428.333074" style="fill: #0000ff; stroke: #0000ff"/>
     <use xlink:href="#m3eb36ac3fc" x="561.540005" y="430.651267" style="fill: #0000ff; stroke: #0000ff"/>
     <use xlink:href="#m3eb36ac3fc" x="569.225956" y="431.686174" style="fill: #0000ff; stroke: #0000ff"/>
     <use xlink:href="#m3eb36ac3fc" x="576.911906" y="433.010856" style="fill: #0000ff; stroke: #0000ff"/>
     <use xlink:href="#m3eb36ac3fc" x="584.597856" y="434.501123" style="fill: #0000ff; stroke: #0000ff"/>
     <use xlink:href="#m3eb36ac3fc" x="592.283807" y="435.949994" style="fill: #0000ff; stroke: #0000ff"/>
     <use xlink:href="#m3eb36ac3fc" x="599.969757" y="436.653731" style="fill: #0000ff; stroke: #0000ff"/>
     <use xlink:href="#m3eb36ac3fc" x="607.655708" y="436.488146" style="fill: #0000ff; stroke: #0000ff"/>
     <use xlink:href="#m3eb36ac3fc" x="615.341658" y="435.453238" style="fill: #0000ff; stroke: #0000ff"/>
     <use xlink:href="#m3eb36ac3fc" x="623.027608" y="437.523053" style="fill: #0000ff; stroke: #0000ff"/>
     <use xlink:href="#m3eb36ac3fc" x="630.713559" y="437.564449" style="fill: #0000ff; stroke: #0000ff"/>
     <use xlink:href="#m3eb36ac3fc" x="638.399509" y="439.01332" style="fill: #0000ff; stroke: #0000ff"/>
     <use xlink:href="#m3eb36ac3fc" x="646.08546" y="439.510076" style="fill: #0000ff; stroke: #0000ff"/>
     <use xlink:href="#m3eb36ac3fc" x="653.77141" y="440.089624" style="fill: #0000ff; stroke: #0000ff"/>
     <use xlink:href="#m3eb36ac3fc" x="661.457361" y="439.510076" style="fill: #0000ff; stroke: #0000ff"/>
     <use xlink:href="#m3eb36ac3fc" x="669.143311" y="440.13102" style="fill: #0000ff; stroke: #0000ff"/>
     <use xlink:href="#m3eb36ac3fc" x="676.829261" y="440.58638" style="fill: #0000ff; stroke: #0000ff"/>
     <use xlink:href="#m3eb36ac3fc" x="684.515212" y="440.876154" style="fill: #0000ff; stroke: #0000ff"/>
     <use xlink:href="#m3eb36ac3fc" x="692.201162" y="442.242232" style="fill: #0000ff; stroke: #0000ff"/>
     <use xlink:href="#m3eb36ac3fc" x="699.887113" y="442.945969" style="fill: #0000ff; stroke: #0000ff"/>
     <use xlink:href="#m3eb36ac3fc" x="707.573063" y="443.60831" style="fill: #0000ff; stroke: #0000ff"/>
     <use xlink:href="#m3eb36ac3fc" x="715.259013" y="443.070158" style="fill: #0000ff; stroke: #0000ff"/>
     <use xlink:href="#m3eb36ac3fc" x="722.944964" y="442.03525" style="fill: #0000ff; stroke: #0000ff"/>
     <use xlink:href="#m3eb36ac3fc" x="730.630914" y="442.283628" style="fill: #0000ff; stroke: #0000ff"/>
     <use xlink:href="#m3eb36ac3fc" x="738.316865" y="442.283628" style="fill: #0000ff; stroke: #0000ff"/>
     <use xlink:href="#m3eb36ac3fc" x="746.002815" y="441.911061" style="fill: #0000ff; stroke: #0000ff"/>
     <use xlink:href="#m3eb36ac3fc" x="753.688765" y="441.993854" style="fill: #0000ff; stroke: #0000ff"/>
     <use xlink:href="#m3eb36ac3fc" x="761.374716" y="442.200835" style="fill: #0000ff; stroke: #0000ff"/>
     <use xlink:href="#m3eb36ac3fc" x="769.060666" y="442.200835" style="fill: #0000ff; stroke: #0000ff"/>
     <use xlink:href="#m3eb36ac3fc" x="776.746617" y="442.449213" style="fill: #0000ff; stroke: #0000ff"/>
     <use xlink:href="#m3eb36ac3fc" x="784.432567" y="441.828269" style="fill: #0000ff; stroke: #0000ff"/>
     <use xlink:href="#m3eb36ac3fc" x="792.118518" y="442.656195" style="fill: #0000ff; stroke: #0000ff"/>
     <use xlink:href="#m3eb36ac3fc" x="799.804468" y="442.780384" style="fill: #0000ff; stroke: #0000ff"/>
     <use xlink:href="#m3eb36ac3fc" x="807.490418" y="442.325024" style="fill: #0000ff; stroke: #0000ff"/>
     <use xlink:href="#m3eb36ac3fc" x="815.176369" y="442.449213" style="fill: #0000ff; stroke: #0000ff"/>
     <use xlink:href="#m3eb36ac3fc" x="822.862319" y="442.656195" style="fill: #0000ff; stroke: #0000ff"/>
     <use xlink:href="#m3eb36ac3fc" x="830.54827" y="443.15295" style="fill: #0000ff; stroke: #0000ff"/>
     <use xlink:href="#m3eb36ac3fc" x="838.23422" y="443.525517" style="fill: #0000ff; stroke: #0000ff"/>
     <use xlink:href="#m3eb36ac3fc" x="845.92017" y="443.691102" style="fill: #0000ff; stroke: #0000ff"/>
    </g>
   </g>
   <g id="patch_3">
    <path d="M 46.965625 465.838125 
L 46.965625 22.318125 
" style="fill: none; stroke: #000000; stroke-width: 0.8; stroke-linejoin: miter; stroke-linecap: square"/>
   </g>
   <g id="patch_4">
    <path d="M 883.965625 465.838125 
L 883.965625 22.318125 
" style="fill: none; stroke: #000000; stroke-width: 0.8; stroke-linejoin: miter; stroke-linecap: square"/>
   </g>
   <g id="patch_5">
    <path d="M 46.965625 465.838125 
L 883.965625 465.838125 
" style="fill: none; stroke: #000000; stroke-width: 0.8; stroke-linejoin: miter; stroke-linecap: square"/>
   </g>
   <g id="patch_6">
    <path d="M 46.965625 22.318125 
L 883.965625 22.318125 
" style="fill: none; stroke: #000000; stroke-width: 0.8; stroke-linejoin: miter; stroke-linecap: square"/>
   </g>
   <g id="text_25">
    <!-- Guessing Entropy -->
    <g transform="translate(412.576563 16.318125) scale(0.12 -0.12)">
     <defs>
      <path id="DejaVuSans-69" d="M 603 3500 
L 1178 3500 
L 1178 0 
L 603 0 
L 603 3500 
z
M 603 4863 
L 1178 4863 
L 1178 4134 
L 603 4134 
L 603 4863 
z
" transform="scale(0.015625)"/>
      <path id="DejaVuSans-6e" d="M 3513 2113 
L 3513 0 
L 2938 0 
L 2938 2094 
Q 2938 2591 2744 2837 
Q 2550 3084 2163 3084 
Q 1697 3084 1428 2787 
Q 1159 2491 1159 1978 
L 1159 0 
L 581 0 
L 581 3500 
L 1159 3500 
L 1159 2956 
Q 1366 3272 1645 3428 
Q 1925 3584 2291 3584 
Q 2894 3584 3203 3211 
Q 3513 2838 3513 2113 
z
" transform="scale(0.015625)"/>
      <path id="DejaVuSans-67" d="M 2906 1791 
Q 2906 2416 2648 2759 
Q 2391 3103 1925 3103 
Q 1463 3103 1205 2759 
Q 947 2416 947 1791 
Q 947 1169 1205 825 
Q 1463 481 1925 481 
Q 2391 481 2648 825 
Q 2906 1169 2906 1791 
z
M 3481 434 
Q 3481 -459 3084 -895 
Q 2688 -1331 1869 -1331 
Q 1566 -1331 1297 -1286 
Q 1028 -1241 775 -1147 
L 775 -588 
Q 1028 -725 1275 -790 
Q 1522 -856 1778 -856 
Q 2344 -856 2625 -561 
Q 2906 -266 2906 331 
L 2906 616 
Q 2728 306 2450 153 
Q 2172 0 1784 0 
Q 1141 0 747 490 
Q 353 981 353 1791 
Q 353 2603 747 3093 
Q 1141 3584 1784 3584 
Q 2172 3584 2450 3431 
Q 2728 3278 2906 2969 
L 2906 3500 
L 3481 3500 
L 3481 434 
z
" transform="scale(0.015625)"/>
      <path id="DejaVuSans-70" d="M 1159 525 
L 1159 -1331 
L 581 -1331 
L 581 3500 
L 1159 3500 
L 1159 2969 
Q 1341 3281 1617 3432 
Q 1894 3584 2278 3584 
Q 2916 3584 3314 3078 
Q 3713 2572 3713 1747 
Q 3713 922 3314 415 
Q 2916 -91 2278 -91 
Q 1894 -91 1617 61 
Q 1341 213 1159 525 
z
M 3116 1747 
Q 3116 2381 2855 2742 
Q 2594 3103 2138 3103 
Q 1681 3103 1420 2742 
Q 1159 2381 1159 1747 
Q 1159 1113 1420 752 
Q 1681 391 2138 391 
Q 2594 391 2855 752 
Q 3116 1113 3116 1747 
z
" transform="scale(0.015625)"/>
      <path id="DejaVuSans-79" d="M 2059 -325 
Q 1816 -950 1584 -1140 
Q 1353 -1331 966 -1331 
L 506 -1331 
L 506 -850 
L 844 -850 
Q 1081 -850 1212 -737 
Q 1344 -625 1503 -206 
L 1606 56 
L 191 3500 
L 800 3500 
L 1894 763 
L 2988 3500 
L 3597 3500 
L 2059 -325 
z
" transform="scale(0.015625)"/>
     </defs>
     <use xlink:href="#DejaVuSans-47"/>
     <use xlink:href="#DejaVuSans-75" x="77.490234"/>
     <use xlink:href="#DejaVuSans-65" x="140.869141"/>
     <use xlink:href="#DejaVuSans-73" x="202.392578"/>
     <use xlink:href="#DejaVuSans-73" x="254.492188"/>
     <use xlink:href="#DejaVuSans-69" x="306.591797"/>
     <use xlink:href="#DejaVuSans-6e" x="334.375"/>
     <use xlink:href="#DejaVuSans-67" x="397.753906"/>
     <use xlink:href="#DejaVuSans-20" x="461.230469"/>
     <use xlink:href="#DejaVuSans-45" x="493.017578"/>
     <use xlink:href="#DejaVuSans-6e" x="556.201172"/>
     <use xlink:href="#DejaVuSans-74" x="619.580078"/>
     <use xlink:href="#DejaVuSans-72" x="658.789062"/>
     <use xlink:href="#DejaVuSans-6f" x="697.652344"/>
     <use xlink:href="#DejaVuSans-70" x="758.833984"/>
     <use xlink:href="#DejaVuSans-79" x="822.310547"/>
    </g>
   </g>
   <g id="legend_1">
    <g id="patch_7">
     <path d="M 53.965625 460.838125 
L 226.757813 460.838125 
Q 228.757813 460.838125 228.757813 458.838125 
L 228.757813 414.969375 
Q 228.757813 412.969375 226.757813 412.969375 
L 53.965625 412.969375 
Q 51.965625 412.969375 51.965625 414.969375 
L 51.965625 458.838125 
Q 51.965625 460.838125 53.965625 460.838125 
z
" style="fill: #ffffff; opacity: 0.8; stroke: #cccccc; stroke-linejoin: miter"/>
    </g>
    <g id="line2d_51">
     <path d="M 55.965625 421.067812 
L 65.965625 421.067812 
L 75.965625 421.067812 
" style="fill: none; stroke-dasharray: 5.55,2.4; stroke-dashoffset: 0; stroke: #ff0000; stroke-width: 1.5"/>
    </g>
    <g id="text_26">
     <!-- diff_devs_key_1 GE = 100 -->
     <g transform="translate(83.965625 424.567812) scale(0.1 -0.1)">
      <defs>
       <path id="DejaVuSans-64" d="M 2906 2969 
L 2906 4863 
L 3481 4863 
L 3481 0 
L 2906 0 
L 2906 525 
Q 2725 213 2448 61 
Q 2172 -91 1784 -91 
Q 1150 -91 751 415 
Q 353 922 353 1747 
Q 353 2572 751 3078 
Q 1150 3584 1784 3584 
Q 2172 3584 2448 3432 
Q 2725 3281 2906 2969 
z
M 947 1747 
Q 947 1113 1208 752 
Q 1469 391 1925 391 
Q 2381 391 2643 752 
Q 2906 1113 2906 1747 
Q 2906 2381 2643 2742 
Q 2381 3103 1925 3103 
Q 1469 3103 1208 2742 
Q 947 2381 947 1747 
z
" transform="scale(0.015625)"/>
       <path id="DejaVuSans-5f" d="M 3263 -1063 
L 3263 -1509 
L -63 -1509 
L -63 -1063 
L 3263 -1063 
z
" transform="scale(0.015625)"/>
       <path id="DejaVuSans-76" d="M 191 3500 
L 800 3500 
L 1894 563 
L 2988 3500 
L 3597 3500 
L 2284 0 
L 1503 0 
L 191 3500 
z
" transform="scale(0.015625)"/>
       <path id="DejaVuSans-6b" d="M 581 4863 
L 1159 4863 
L 1159 1991 
L 2875 3500 
L 3609 3500 
L 1753 1863 
L 3688 0 
L 2938 0 
L 1159 1709 
L 1159 0 
L 581 0 
L 581 4863 
z
" transform="scale(0.015625)"/>
       <path id="DejaVuSans-3d" d="M 678 2906 
L 4684 2906 
L 4684 2381 
L 678 2381 
L 678 2906 
z
M 678 1631 
L 4684 1631 
L 4684 1100 
L 678 1100 
L 678 1631 
z
" transform="scale(0.015625)"/>
      </defs>
      <use xlink:href="#DejaVuSans-64"/>
      <use xlink:href="#DejaVuSans-69" x="63.476562"/>
      <use xlink:href="#DejaVuSans-66" x="91.259766"/>
      <use xlink:href="#DejaVuSans-66" x="126.464844"/>
      <use xlink:href="#DejaVuSans-5f" x="161.669922"/>
      <use xlink:href="#DejaVuSans-64" x="211.669922"/>
      <use xlink:href="#DejaVuSans-65" x="275.146484"/>
      <use xlink:href="#DejaVuSans-76" x="336.669922"/>
      <use xlink:href="#DejaVuSans-73" x="395.849609"/>
      <use xlink:href="#DejaVuSans-5f" x="447.949219"/>
      <use xlink:href="#DejaVuSans-6b" x="497.949219"/>
      <use xlink:href="#DejaVuSans-65" x="552.234375"/>
      <use xlink:href="#DejaVuSans-79" x="613.757812"/>
      <use xlink:href="#DejaVuSans-5f" x="672.9375"/>
      <use xlink:href="#DejaVuSans-31" x="722.9375"/>
      <use xlink:href="#DejaVuSans-20" x="786.560547"/>
      <use xlink:href="#DejaVuSans-47" x="818.347656"/>
      <use xlink:href="#DejaVuSans-45" x="895.837891"/>
      <use xlink:href="#DejaVuSans-20" x="959.021484"/>
      <use xlink:href="#DejaVuSans-3d" x="990.808594"/>
      <use xlink:href="#DejaVuSans-20" x="1074.597656"/>
      <use xlink:href="#DejaVuSans-31" x="1106.384766"/>
      <use xlink:href="#DejaVuSans-30" x="1170.007812"/>
      <use xlink:href="#DejaVuSans-30" x="1233.630859"/>
     </g>
    </g>
    <g id="line2d_52">
     <path d="M 55.965625 436.024062 
L 65.965625 436.024062 
L 75.965625 436.024062 
" style="fill: none; stroke-dasharray: 5.55,2.4; stroke-dashoffset: 0; stroke: #008000; stroke-width: 1.5"/>
    </g>
    <g id="text_27">
     <!-- same_devs_key_1 GE = 100 -->
     <g transform="translate(83.965625 439.524062) scale(0.1 -0.1)">
      <use xlink:href="#DejaVuSans-73"/>
      <use xlink:href="#DejaVuSans-61" x="52.099609"/>
      <use xlink:href="#DejaVuSans-6d" x="113.378906"/>
      <use xlink:href="#DejaVuSans-65" x="210.791016"/>
      <use xlink:href="#DejaVuSans-5f" x="272.314453"/>
      <use xlink:href="#DejaVuSans-64" x="322.314453"/>
      <use xlink:href="#DejaVuSans-65" x="385.791016"/>
      <use xlink:href="#DejaVuSans-76" x="447.314453"/>
      <use xlink:href="#DejaVuSans-73" x="506.494141"/>
      <use xlink:href="#DejaVuSans-5f" x="558.59375"/>
      <use xlink:href="#DejaVuSans-6b" x="608.59375"/>
      <use xlink:href="#DejaVuSans-65" x="662.878906"/>
      <use xlink:href="#DejaVuSans-79" x="724.402344"/>
      <use xlink:href="#DejaVuSans-5f" x="783.582031"/>
      <use xlink:href="#DejaVuSans-31" x="833.582031"/>
      <use xlink:href="#DejaVuSans-20" x="897.205078"/>
      <use xlink:href="#DejaVuSans-47" x="928.992188"/>
      <use xlink:href="#DejaVuSans-45" x="1006.482422"/>
      <use xlink:href="#DejaVuSans-20" x="1069.666016"/>
      <use xlink:href="#DejaVuSans-3d" x="1101.453125"/>
      <use xlink:href="#DejaVuSans-20" x="1185.242188"/>
      <use xlink:href="#DejaVuSans-31" x="1217.029297"/>
      <use xlink:href="#DejaVuSans-30" x="1280.652344"/>
      <use xlink:href="#DejaVuSans-30" x="1344.275391"/>
     </g>
    </g>
    <g id="line2d_53">
     <path d="M 55.965625 450.980312 
L 65.965625 450.980312 
L 75.965625 450.980312 
" style="fill: none; stroke-dasharray: 5.55,2.4; stroke-dashoffset: 0; stroke: #0000ff; stroke-width: 1.5"/>
    </g>
    <g id="text_28">
     <!-- diff_devs_key_0 GE = 100 -->
     <g transform="translate(83.965625 454.480312) scale(0.1 -0.1)">
      <use xlink:href="#DejaVuSans-64"/>
      <use xlink:href="#DejaVuSans-69" x="63.476562"/>
      <use xlink:href="#DejaVuSans-66" x="91.259766"/>
      <use xlink:href="#DejaVuSans-66" x="126.464844"/>
      <use xlink:href="#DejaVuSans-5f" x="161.669922"/>
      <use xlink:href="#DejaVuSans-64" x="211.669922"/>
      <use xlink:href="#DejaVuSans-65" x="275.146484"/>
      <use xlink:href="#DejaVuSans-76" x="336.669922"/>
      <use xlink:href="#DejaVuSans-73" x="395.849609"/>
      <use xlink:href="#DejaVuSans-5f" x="447.949219"/>
      <use xlink:href="#DejaVuSans-6b" x="497.949219"/>
      <use xlink:href="#DejaVuSans-65" x="552.234375"/>
      <use xlink:href="#DejaVuSans-79" x="613.757812"/>
      <use xlink:href="#DejaVuSans-5f" x="672.9375"/>
      <use xlink:href="#DejaVuSans-30" x="722.9375"/>
      <use xlink:href="#DejaVuSans-20" x="786.560547"/>
      <use xlink:href="#DejaVuSans-47" x="818.347656"/>
      <use xlink:href="#DejaVuSans-45" x="895.837891"/>
      <use xlink:href="#DejaVuSans-20" x="959.021484"/>
      <use xlink:href="#DejaVuSans-3d" x="990.808594"/>
      <use xlink:href="#DejaVuSans-20" x="1074.597656"/>
      <use xlink:href="#DejaVuSans-31" x="1106.384766"/>
      <use xlink:href="#DejaVuSans-30" x="1170.007812"/>
      <use xlink:href="#DejaVuSans-30" x="1233.630859"/>
     </g>
    </g>
   </g>
  </g>
 </g>
 <defs>
  <clipPath id="p8dcba2e887">
   <rect x="46.965625" y="22.318125" width="837" height="443.52"/>
  </clipPath>
 </defs>
</svg>
