<?xml version="1.0" encoding="utf-8" standalone="no"?>
<!DOCTYPE svg PUBLIC "-//W3C//DTD SVG 1.1//EN"
  "http://www.w3.org/Graphics/SVG/1.1/DTD/svg11.dtd">
<svg xmlns:xlink="http://www.w3.org/1999/xlink" width="617.064267pt" height="614.274375pt" viewBox="0 0 617.064267 614.274375" xmlns="http://www.w3.org/2000/svg" version="1.1">
 <metadata>
  <rdf:RDF xmlns:dc="http://purl.org/dc/elements/1.1/" xmlns:cc="http://creativecommons.org/ns#" xmlns:rdf="http://www.w3.org/1999/02/22-rdf-syntax-ns#">
   <cc:Work>
    <dc:type rdf:resource="http://purl.org/dc/dcmitype/StillImage"/>
    <dc:date>2024-08-06T21:43:24.388023</dc:date>
    <dc:format>image/svg+xml</dc:format>
    <dc:creator>
     <cc:Agent>
      <dc:title>Matplotlib v3.8.0, https://matplotlib.org/</dc:title>
     </cc:Agent>
    </dc:creator>
   </cc:Work>
  </rdf:RDF>
 </metadata>
 <defs>
  <style type="text/css">*{stroke-linejoin: round; stroke-linecap: butt}</style>
 </defs>
 <g id="figure_1">
  <g id="patch_1">
   <path d="M 0 614.274375 
L 617.064267 614.274375 
L 617.064267 0 
L 0 0 
z
" style="fill: #ffffff"/>
  </g>
  <g id="axes_1">
   <g id="patch_2">
    <path d="M 43.78125 576.718125 
L 601.78125 576.718125 
L 601.78125 22.318125 
L 43.78125 22.318125 
z
" style="fill: #ffffff"/>
   </g>
   <g id="matplotlib.axis_1">
    <g id="xtick_1">
     <g id="line2d_1">
      <path d="M 69.144886 576.718125 
L 69.144886 22.318125 
" clip-path="url(#pcfd4f3d02b)" style="fill: none; stroke: #b0b0b0; stroke-width: 0.8; stroke-linecap: square"/>
     </g>
     <g id="line2d_2">
      <defs>
       <path id="m312d7b6d98" d="M 0 0 
L 0 3.5 
" style="stroke: #000000; stroke-width: 0.8"/>
      </defs>
      <g>
       <use xlink:href="#m312d7b6d98" x="69.144886" y="576.718125" style="stroke: #000000; stroke-width: 0.8"/>
      </g>
     </g>
     <g id="text_1">
      <!-- 0 -->
      <g transform="translate(65.963636 591.316563) scale(0.1 -0.1)">
       <defs>
        <path id="DejaVuSans-30" d="M 2034 4250 
Q 1547 4250 1301 3770 
Q 1056 3291 1056 2328 
Q 1056 1369 1301 889 
Q 1547 409 2034 409 
Q 2525 409 2770 889 
Q 3016 1369 3016 2328 
Q 3016 3291 2770 3770 
Q 2525 4250 2034 4250 
z
M 2034 4750 
Q 2819 4750 3233 4129 
Q 3647 3509 3647 2328 
Q 3647 1150 3233 529 
Q 2819 -91 2034 -91 
Q 1250 -91 836 529 
Q 422 1150 422 2328 
Q 422 3509 836 4129 
Q 1250 4750 2034 4750 
z
" transform="scale(0.015625)"/>
       </defs>
       <use xlink:href="#DejaVuSans-30"/>
      </g>
     </g>
    </g>
    <g id="xtick_2">
     <g id="line2d_3">
      <path d="M 135.54184 576.718125 
L 135.54184 22.318125 
" clip-path="url(#pcfd4f3d02b)" style="fill: none; stroke: #b0b0b0; stroke-width: 0.8; stroke-linecap: square"/>
     </g>
     <g id="line2d_4">
      <g>
       <use xlink:href="#m312d7b6d98" x="135.54184" y="576.718125" style="stroke: #000000; stroke-width: 0.8"/>
      </g>
     </g>
     <g id="text_2">
      <!-- 25 -->
      <g transform="translate(129.17934 591.316563) scale(0.1 -0.1)">
       <defs>
        <path id="DejaVuSans-32" d="M 1228 531 
L 3431 531 
L 3431 0 
L 469 0 
L 469 531 
Q 828 903 1448 1529 
Q 2069 2156 2228 2338 
Q 2531 2678 2651 2914 
Q 2772 3150 2772 3378 
Q 2772 3750 2511 3984 
Q 2250 4219 1831 4219 
Q 1534 4219 1204 4116 
Q 875 4013 500 3803 
L 500 4441 
Q 881 4594 1212 4672 
Q 1544 4750 1819 4750 
Q 2544 4750 2975 4387 
Q 3406 4025 3406 3419 
Q 3406 3131 3298 2873 
Q 3191 2616 2906 2266 
Q 2828 2175 2409 1742 
Q 1991 1309 1228 531 
z
" transform="scale(0.015625)"/>
        <path id="DejaVuSans-35" d="M 691 4666 
L 3169 4666 
L 3169 4134 
L 1269 4134 
L 1269 2991 
Q 1406 3038 1543 3061 
Q 1681 3084 1819 3084 
Q 2600 3084 3056 2656 
Q 3513 2228 3513 1497 
Q 3513 744 3044 326 
Q 2575 -91 1722 -91 
Q 1428 -91 1123 -41 
Q 819 9 494 109 
L 494 744 
Q 775 591 1075 516 
Q 1375 441 1709 441 
Q 2250 441 2565 725 
Q 2881 1009 2881 1497 
Q 2881 1984 2565 2268 
Q 2250 2553 1709 2553 
Q 1456 2553 1204 2497 
Q 953 2441 691 2322 
L 691 4666 
z
" transform="scale(0.015625)"/>
       </defs>
       <use xlink:href="#DejaVuSans-32"/>
       <use xlink:href="#DejaVuSans-35" x="63.623047"/>
      </g>
     </g>
    </g>
    <g id="xtick_3">
     <g id="line2d_5">
      <path d="M 201.938794 576.718125 
L 201.938794 22.318125 
" clip-path="url(#pcfd4f3d02b)" style="fill: none; stroke: #b0b0b0; stroke-width: 0.8; stroke-linecap: square"/>
     </g>
     <g id="line2d_6">
      <g>
       <use xlink:href="#m312d7b6d98" x="201.938794" y="576.718125" style="stroke: #000000; stroke-width: 0.8"/>
      </g>
     </g>
     <g id="text_3">
      <!-- 50 -->
      <g transform="translate(195.576294 591.316563) scale(0.1 -0.1)">
       <use xlink:href="#DejaVuSans-35"/>
       <use xlink:href="#DejaVuSans-30" x="63.623047"/>
      </g>
     </g>
    </g>
    <g id="xtick_4">
     <g id="line2d_7">
      <path d="M 268.335748 576.718125 
L 268.335748 22.318125 
" clip-path="url(#pcfd4f3d02b)" style="fill: none; stroke: #b0b0b0; stroke-width: 0.8; stroke-linecap: square"/>
     </g>
     <g id="line2d_8">
      <g>
       <use xlink:href="#m312d7b6d98" x="268.335748" y="576.718125" style="stroke: #000000; stroke-width: 0.8"/>
      </g>
     </g>
     <g id="text_4">
      <!-- 75 -->
      <g transform="translate(261.973248 591.316563) scale(0.1 -0.1)">
       <defs>
        <path id="DejaVuSans-37" d="M 525 4666 
L 3525 4666 
L 3525 4397 
L 1831 0 
L 1172 0 
L 2766 4134 
L 525 4134 
L 525 4666 
z
" transform="scale(0.015625)"/>
       </defs>
       <use xlink:href="#DejaVuSans-37"/>
       <use xlink:href="#DejaVuSans-35" x="63.623047"/>
      </g>
     </g>
    </g>
    <g id="xtick_5">
     <g id="line2d_9">
      <path d="M 334.732702 576.718125 
L 334.732702 22.318125 
" clip-path="url(#pcfd4f3d02b)" style="fill: none; stroke: #b0b0b0; stroke-width: 0.8; stroke-linecap: square"/>
     </g>
     <g id="line2d_10">
      <g>
       <use xlink:href="#m312d7b6d98" x="334.732702" y="576.718125" style="stroke: #000000; stroke-width: 0.8"/>
      </g>
     </g>
     <g id="text_5">
      <!-- 100 -->
      <g transform="translate(325.188952 591.316563) scale(0.1 -0.1)">
       <defs>
        <path id="DejaVuSans-31" d="M 794 531 
L 1825 531 
L 1825 4091 
L 703 3866 
L 703 4441 
L 1819 4666 
L 2450 4666 
L 2450 531 
L 3481 531 
L 3481 0 
L 794 0 
L 794 531 
z
" transform="scale(0.015625)"/>
       </defs>
       <use xlink:href="#DejaVuSans-31"/>
       <use xlink:href="#DejaVuSans-30" x="63.623047"/>
       <use xlink:href="#DejaVuSans-30" x="127.246094"/>
      </g>
     </g>
    </g>
    <g id="xtick_6">
     <g id="line2d_11">
      <path d="M 401.129656 576.718125 
L 401.129656 22.318125 
" clip-path="url(#pcfd4f3d02b)" style="fill: none; stroke: #b0b0b0; stroke-width: 0.8; stroke-linecap: square"/>
     </g>
     <g id="line2d_12">
      <g>
       <use xlink:href="#m312d7b6d98" x="401.129656" y="576.718125" style="stroke: #000000; stroke-width: 0.8"/>
      </g>
     </g>
     <g id="text_6">
      <!-- 125 -->
      <g transform="translate(391.585906 591.316563) scale(0.1 -0.1)">
       <use xlink:href="#DejaVuSans-31"/>
       <use xlink:href="#DejaVuSans-32" x="63.623047"/>
       <use xlink:href="#DejaVuSans-35" x="127.246094"/>
      </g>
     </g>
    </g>
    <g id="xtick_7">
     <g id="line2d_13">
      <path d="M 467.526609 576.718125 
L 467.526609 22.318125 
" clip-path="url(#pcfd4f3d02b)" style="fill: none; stroke: #b0b0b0; stroke-width: 0.8; stroke-linecap: square"/>
     </g>
     <g id="line2d_14">
      <g>
       <use xlink:href="#m312d7b6d98" x="467.526609" y="576.718125" style="stroke: #000000; stroke-width: 0.8"/>
      </g>
     </g>
     <g id="text_7">
      <!-- 150 -->
      <g transform="translate(457.982859 591.316563) scale(0.1 -0.1)">
       <use xlink:href="#DejaVuSans-31"/>
       <use xlink:href="#DejaVuSans-35" x="63.623047"/>
       <use xlink:href="#DejaVuSans-30" x="127.246094"/>
      </g>
     </g>
    </g>
    <g id="xtick_8">
     <g id="line2d_15">
      <path d="M 533.923563 576.718125 
L 533.923563 22.318125 
" clip-path="url(#pcfd4f3d02b)" style="fill: none; stroke: #b0b0b0; stroke-width: 0.8; stroke-linecap: square"/>
     </g>
     <g id="line2d_16">
      <g>
       <use xlink:href="#m312d7b6d98" x="533.923563" y="576.718125" style="stroke: #000000; stroke-width: 0.8"/>
      </g>
     </g>
     <g id="text_8">
      <!-- 175 -->
      <g transform="translate(524.379813 591.316563) scale(0.1 -0.1)">
       <use xlink:href="#DejaVuSans-31"/>
       <use xlink:href="#DejaVuSans-37" x="63.623047"/>
       <use xlink:href="#DejaVuSans-35" x="127.246094"/>
      </g>
     </g>
    </g>
    <g id="xtick_9">
     <g id="line2d_17">
      <path d="M 600.320517 576.718125 
L 600.320517 22.318125 
" clip-path="url(#pcfd4f3d02b)" style="fill: none; stroke: #b0b0b0; stroke-width: 0.8; stroke-linecap: square"/>
     </g>
     <g id="line2d_18">
      <g>
       <use xlink:href="#m312d7b6d98" x="600.320517" y="576.718125" style="stroke: #000000; stroke-width: 0.8"/>
      </g>
     </g>
     <g id="text_9">
      <!-- 200 -->
      <g transform="translate(590.776767 591.316563) scale(0.1 -0.1)">
       <use xlink:href="#DejaVuSans-32"/>
       <use xlink:href="#DejaVuSans-30" x="63.623047"/>
       <use xlink:href="#DejaVuSans-30" x="127.246094"/>
      </g>
     </g>
    </g>
    <g id="text_10">
     <!-- Epochs -->
     <g transform="translate(304.865625 604.994688) scale(0.1 -0.1)">
      <defs>
       <path id="DejaVuSans-45" d="M 628 4666 
L 3578 4666 
L 3578 4134 
L 1259 4134 
L 1259 2753 
L 3481 2753 
L 3481 2222 
L 1259 2222 
L 1259 531 
L 3634 531 
L 3634 0 
L 628 0 
L 628 4666 
z
" transform="scale(0.015625)"/>
       <path id="DejaVuSans-70" d="M 1159 525 
L 1159 -1331 
L 581 -1331 
L 581 3500 
L 1159 3500 
L 1159 2969 
Q 1341 3281 1617 3432 
Q 1894 3584 2278 3584 
Q 2916 3584 3314 3078 
Q 3713 2572 3713 1747 
Q 3713 922 3314 415 
Q 2916 -91 2278 -91 
Q 1894 -91 1617 61 
Q 1341 213 1159 525 
z
M 3116 1747 
Q 3116 2381 2855 2742 
Q 2594 3103 2138 3103 
Q 1681 3103 1420 2742 
Q 1159 2381 1159 1747 
Q 1159 1113 1420 752 
Q 1681 391 2138 391 
Q 2594 391 2855 752 
Q 3116 1113 3116 1747 
z
" transform="scale(0.015625)"/>
       <path id="DejaVuSans-6f" d="M 1959 3097 
Q 1497 3097 1228 2736 
Q 959 2375 959 1747 
Q 959 1119 1226 758 
Q 1494 397 1959 397 
Q 2419 397 2687 759 
Q 2956 1122 2956 1747 
Q 2956 2369 2687 2733 
Q 2419 3097 1959 3097 
z
M 1959 3584 
Q 2709 3584 3137 3096 
Q 3566 2609 3566 1747 
Q 3566 888 3137 398 
Q 2709 -91 1959 -91 
Q 1206 -91 779 398 
Q 353 888 353 1747 
Q 353 2609 779 3096 
Q 1206 3584 1959 3584 
z
" transform="scale(0.015625)"/>
       <path id="DejaVuSans-63" d="M 3122 3366 
L 3122 2828 
Q 2878 2963 2633 3030 
Q 2388 3097 2138 3097 
Q 1578 3097 1268 2742 
Q 959 2388 959 1747 
Q 959 1106 1268 751 
Q 1578 397 2138 397 
Q 2388 397 2633 464 
Q 2878 531 3122 666 
L 3122 134 
Q 2881 22 2623 -34 
Q 2366 -91 2075 -91 
Q 1284 -91 818 406 
Q 353 903 353 1747 
Q 353 2603 823 3093 
Q 1294 3584 2113 3584 
Q 2378 3584 2631 3529 
Q 2884 3475 3122 3366 
z
" transform="scale(0.015625)"/>
       <path id="DejaVuSans-68" d="M 3513 2113 
L 3513 0 
L 2938 0 
L 2938 2094 
Q 2938 2591 2744 2837 
Q 2550 3084 2163 3084 
Q 1697 3084 1428 2787 
Q 1159 2491 1159 1978 
L 1159 0 
L 581 0 
L 581 4863 
L 1159 4863 
L 1159 2956 
Q 1366 3272 1645 3428 
Q 1925 3584 2291 3584 
Q 2894 3584 3203 3211 
Q 3513 2838 3513 2113 
z
" transform="scale(0.015625)"/>
       <path id="DejaVuSans-73" d="M 2834 3397 
L 2834 2853 
Q 2591 2978 2328 3040 
Q 2066 3103 1784 3103 
Q 1356 3103 1142 2972 
Q 928 2841 928 2578 
Q 928 2378 1081 2264 
Q 1234 2150 1697 2047 
L 1894 2003 
Q 2506 1872 2764 1633 
Q 3022 1394 3022 966 
Q 3022 478 2636 193 
Q 2250 -91 1575 -91 
Q 1294 -91 989 -36 
Q 684 19 347 128 
L 347 722 
Q 666 556 975 473 
Q 1284 391 1588 391 
Q 1994 391 2212 530 
Q 2431 669 2431 922 
Q 2431 1156 2273 1281 
Q 2116 1406 1581 1522 
L 1381 1569 
Q 847 1681 609 1914 
Q 372 2147 372 2553 
Q 372 3047 722 3315 
Q 1072 3584 1716 3584 
Q 2034 3584 2315 3537 
Q 2597 3491 2834 3397 
z
" transform="scale(0.015625)"/>
      </defs>
      <use xlink:href="#DejaVuSans-45"/>
      <use xlink:href="#DejaVuSans-70" x="63.183594"/>
      <use xlink:href="#DejaVuSans-6f" x="126.660156"/>
      <use xlink:href="#DejaVuSans-63" x="187.841797"/>
      <use xlink:href="#DejaVuSans-68" x="242.822266"/>
      <use xlink:href="#DejaVuSans-73" x="306.201172"/>
     </g>
    </g>
   </g>
   <g id="matplotlib.axis_2">
    <g id="ytick_1">
     <g id="line2d_19">
      <path d="M 43.78125 541.48884 
L 601.78125 541.48884 
" clip-path="url(#pcfd4f3d02b)" style="fill: none; stroke: #b0b0b0; stroke-width: 0.8; stroke-linecap: square"/>
     </g>
     <g id="line2d_20">
      <defs>
       <path id="m4b7f7fa9ff" d="M 0 0 
L -3.5 0 
" style="stroke: #000000; stroke-width: 0.8"/>
      </defs>
      <g>
       <use xlink:href="#m4b7f7fa9ff" x="43.78125" y="541.48884" style="stroke: #000000; stroke-width: 0.8"/>
      </g>
     </g>
     <g id="text_11">
      <!-- 0.8 -->
      <g transform="translate(20.878125 545.288059) scale(0.1 -0.1)">
       <defs>
        <path id="DejaVuSans-2e" d="M 684 794 
L 1344 794 
L 1344 0 
L 684 0 
L 684 794 
z
" transform="scale(0.015625)"/>
        <path id="DejaVuSans-38" d="M 2034 2216 
Q 1584 2216 1326 1975 
Q 1069 1734 1069 1313 
Q 1069 891 1326 650 
Q 1584 409 2034 409 
Q 2484 409 2743 651 
Q 3003 894 3003 1313 
Q 3003 1734 2745 1975 
Q 2488 2216 2034 2216 
z
M 1403 2484 
Q 997 2584 770 2862 
Q 544 3141 544 3541 
Q 544 4100 942 4425 
Q 1341 4750 2034 4750 
Q 2731 4750 3128 4425 
Q 3525 4100 3525 3541 
Q 3525 3141 3298 2862 
Q 3072 2584 2669 2484 
Q 3125 2378 3379 2068 
Q 3634 1759 3634 1313 
Q 3634 634 3220 271 
Q 2806 -91 2034 -91 
Q 1263 -91 848 271 
Q 434 634 434 1313 
Q 434 1759 690 2068 
Q 947 2378 1403 2484 
z
M 1172 3481 
Q 1172 3119 1398 2916 
Q 1625 2713 2034 2713 
Q 2441 2713 2670 2916 
Q 2900 3119 2900 3481 
Q 2900 3844 2670 4047 
Q 2441 4250 2034 4250 
Q 1625 4250 1398 4047 
Q 1172 3844 1172 3481 
z
" transform="scale(0.015625)"/>
       </defs>
       <use xlink:href="#DejaVuSans-30"/>
       <use xlink:href="#DejaVuSans-2e" x="63.623047"/>
       <use xlink:href="#DejaVuSans-38" x="95.410156"/>
      </g>
     </g>
    </g>
    <g id="ytick_2">
     <g id="line2d_21">
      <path d="M 43.78125 436.356624 
L 601.78125 436.356624 
" clip-path="url(#pcfd4f3d02b)" style="fill: none; stroke: #b0b0b0; stroke-width: 0.8; stroke-linecap: square"/>
     </g>
     <g id="line2d_22">
      <g>
       <use xlink:href="#m4b7f7fa9ff" x="43.78125" y="436.356624" style="stroke: #000000; stroke-width: 0.8"/>
      </g>
     </g>
     <g id="text_12">
      <!-- 1.0 -->
      <g transform="translate(20.878125 440.155843) scale(0.1 -0.1)">
       <use xlink:href="#DejaVuSans-31"/>
       <use xlink:href="#DejaVuSans-2e" x="63.623047"/>
       <use xlink:href="#DejaVuSans-30" x="95.410156"/>
      </g>
     </g>
    </g>
    <g id="ytick_3">
     <g id="line2d_23">
      <path d="M 43.78125 331.224408 
L 601.78125 331.224408 
" clip-path="url(#pcfd4f3d02b)" style="fill: none; stroke: #b0b0b0; stroke-width: 0.8; stroke-linecap: square"/>
     </g>
     <g id="line2d_24">
      <g>
       <use xlink:href="#m4b7f7fa9ff" x="43.78125" y="331.224408" style="stroke: #000000; stroke-width: 0.8"/>
      </g>
     </g>
     <g id="text_13">
      <!-- 1.2 -->
      <g transform="translate(20.878125 335.023626) scale(0.1 -0.1)">
       <use xlink:href="#DejaVuSans-31"/>
       <use xlink:href="#DejaVuSans-2e" x="63.623047"/>
       <use xlink:href="#DejaVuSans-32" x="95.410156"/>
      </g>
     </g>
    </g>
    <g id="ytick_4">
     <g id="line2d_25">
      <path d="M 43.78125 226.092191 
L 601.78125 226.092191 
" clip-path="url(#pcfd4f3d02b)" style="fill: none; stroke: #b0b0b0; stroke-width: 0.8; stroke-linecap: square"/>
     </g>
     <g id="line2d_26">
      <g>
       <use xlink:href="#m4b7f7fa9ff" x="43.78125" y="226.092191" style="stroke: #000000; stroke-width: 0.8"/>
      </g>
     </g>
     <g id="text_14">
      <!-- 1.4 -->
      <g transform="translate(20.878125 229.89141) scale(0.1 -0.1)">
       <defs>
        <path id="DejaVuSans-34" d="M 2419 4116 
L 825 1625 
L 2419 1625 
L 2419 4116 
z
M 2253 4666 
L 3047 4666 
L 3047 1625 
L 3713 1625 
L 3713 1100 
L 3047 1100 
L 3047 0 
L 2419 0 
L 2419 1100 
L 313 1100 
L 313 1709 
L 2253 4666 
z
" transform="scale(0.015625)"/>
       </defs>
       <use xlink:href="#DejaVuSans-31"/>
       <use xlink:href="#DejaVuSans-2e" x="63.623047"/>
       <use xlink:href="#DejaVuSans-34" x="95.410156"/>
      </g>
     </g>
    </g>
    <g id="ytick_5">
     <g id="line2d_27">
      <path d="M 43.78125 120.959975 
L 601.78125 120.959975 
" clip-path="url(#pcfd4f3d02b)" style="fill: none; stroke: #b0b0b0; stroke-width: 0.8; stroke-linecap: square"/>
     </g>
     <g id="line2d_28">
      <g>
       <use xlink:href="#m4b7f7fa9ff" x="43.78125" y="120.959975" style="stroke: #000000; stroke-width: 0.8"/>
      </g>
     </g>
     <g id="text_15">
      <!-- 1.6 -->
      <g transform="translate(20.878125 124.759194) scale(0.1 -0.1)">
       <defs>
        <path id="DejaVuSans-36" d="M 2113 2584 
Q 1688 2584 1439 2293 
Q 1191 2003 1191 1497 
Q 1191 994 1439 701 
Q 1688 409 2113 409 
Q 2538 409 2786 701 
Q 3034 994 3034 1497 
Q 3034 2003 2786 2293 
Q 2538 2584 2113 2584 
z
M 3366 4563 
L 3366 3988 
Q 3128 4100 2886 4159 
Q 2644 4219 2406 4219 
Q 1781 4219 1451 3797 
Q 1122 3375 1075 2522 
Q 1259 2794 1537 2939 
Q 1816 3084 2150 3084 
Q 2853 3084 3261 2657 
Q 3669 2231 3669 1497 
Q 3669 778 3244 343 
Q 2819 -91 2113 -91 
Q 1303 -91 875 529 
Q 447 1150 447 2328 
Q 447 3434 972 4092 
Q 1497 4750 2381 4750 
Q 2619 4750 2861 4703 
Q 3103 4656 3366 4563 
z
" transform="scale(0.015625)"/>
       </defs>
       <use xlink:href="#DejaVuSans-31"/>
       <use xlink:href="#DejaVuSans-2e" x="63.623047"/>
       <use xlink:href="#DejaVuSans-36" x="95.410156"/>
      </g>
     </g>
    </g>
    <g id="text_16">
     <!-- Loss -->
     <g transform="translate(14.798438 310.485313) rotate(-90) scale(0.1 -0.1)">
      <defs>
       <path id="DejaVuSans-4c" d="M 628 4666 
L 1259 4666 
L 1259 531 
L 3531 531 
L 3531 0 
L 628 0 
L 628 4666 
z
" transform="scale(0.015625)"/>
      </defs>
      <use xlink:href="#DejaVuSans-4c"/>
      <use xlink:href="#DejaVuSans-6f" x="53.962891"/>
      <use xlink:href="#DejaVuSans-73" x="115.144531"/>
      <use xlink:href="#DejaVuSans-73" x="167.244141"/>
     </g>
    </g>
   </g>
   <g id="line2d_29">
    <path d="M 69.144886 202.537489 
L 71.800765 270.16257 
L 74.456643 300.072385 
L 77.112521 320.299721 
L 79.768399 334.177722 
L 82.424277 345.168619 
L 87.736033 363.582405 
L 90.391912 370.553991 
L 93.04779 377.066189 
L 95.703668 381.741213 
L 98.359546 386.722976 
L 103.671302 393.750645 
L 106.327181 399.937117 
L 108.983059 403.435255 
L 111.638937 407.213812 
L 114.294815 409.082882 
L 116.950693 413.235479 
L 119.606571 416.247472 
L 122.262449 418.028186 
L 130.230084 426.218642 
L 132.885962 428.76354 
L 138.197718 432.320957 
L 140.853597 435.576962 
L 143.509475 434.958722 
L 146.165353 436.935448 
L 148.821231 439.536837 
L 151.477109 442.485602 
L 154.132987 443.417505 
L 156.788865 444.028539 
L 159.444744 445.138438 
L 162.100622 447.256157 
L 164.7565 449.019043 
L 167.412378 448.735427 
L 170.068256 450.843559 
L 172.724134 452.560262 
L 175.380012 452.496032 
L 178.035891 455.710522 
L 180.691769 455.090496 
L 183.347647 456.343331 
L 186.003525 458.607589 
L 188.659403 461.402672 
L 191.315281 460.052363 
L 193.97116 461.314128 
L 196.627038 477.659355 
L 199.282916 481.166046 
L 201.938794 483.731497 
L 204.594672 482.68141 
L 207.25055 486.059515 
L 209.906428 484.249538 
L 212.562307 485.87942 
L 215.218185 488.504903 
L 217.874063 487.030082 
L 220.529941 487.525532 
L 223.185819 489.583063 
L 225.841697 489.363333 
L 228.497576 489.504326 
L 231.153454 489.235029 
L 233.809332 488.560924 
L 236.46521 488.112064 
L 239.121088 491.692855 
L 241.776966 489.871629 
L 244.432844 494.051861 
L 247.088723 490.889068 
L 249.744601 492.055521 
L 252.400479 494.035506 
L 255.056357 495.216716 
L 257.712235 495.469251 
L 260.368113 492.300317 
L 263.023992 494.862478 
L 265.67987 494.677495 
L 268.335748 496.104128 
L 270.991626 498.928819 
L 273.647504 498.29319 
L 276.303382 499.875824 
L 278.95926 497.9982 
L 281.615139 499.599352 
L 284.271017 499.617649 
L 286.926895 501.316274 
L 292.238651 500.228777 
L 294.894529 499.480573 
L 297.550408 501.821374 
L 300.206286 501.610511 
L 302.862164 500.495348 
L 305.518042 500.572832 
L 308.17392 501.006308 
L 310.829798 501.907067 
L 313.485676 501.083102 
L 316.141555 501.886106 
L 318.797433 501.261944 
L 321.453311 501.094256 
L 324.109189 501.284629 
L 326.765067 502.096687 
L 329.420945 504.756134 
L 332.076824 501.206424 
L 334.732702 502.975138 
L 337.38858 502.009366 
L 342.700336 503.263422 
L 345.356214 502.549025 
L 348.012092 504.304298 
L 350.667971 503.814738 
L 353.323849 502.409034 
L 355.979727 502.97188 
L 358.635605 504.281707 
L 361.291483 503.263391 
L 363.947361 504.264193 
L 369.259118 502.653423 
L 374.570874 503.794936 
L 377.226752 502.779408 
L 379.88263 503.689191 
L 382.538508 502.952642 
L 385.194387 504.779069 
L 387.850265 504.147325 
L 390.506143 504.939331 
L 393.162021 505.0854 
L 395.817899 504.27071 
L 398.473777 505.1261 
L 401.129656 506.383729 
L 403.785534 504.981598 
L 406.441412 503.844534 
L 409.09729 505.55754 
L 411.753168 504.060317 
L 414.409046 506.124803 
L 417.064924 505.535482 
L 419.720803 507.217532 
L 422.376681 504.271337 
L 425.032559 503.677003 
L 427.688437 504.32883 
L 430.344315 506.244303 
L 433.000193 504.935697 
L 435.656072 505.335272 
L 438.31195 504.856208 
L 440.967828 504.168098 
L 443.623706 504.19401 
L 446.279584 507.543916 
L 448.935462 503.525764 
L 451.59134 505.755839 
L 454.247219 505.793751 
L 456.903097 505.294509 
L 459.558975 506.036886 
L 462.214853 505.768247 
L 464.870731 506.848318 
L 467.526609 506.503323 
L 470.182488 505.170717 
L 472.838366 504.345311 
L 475.494244 506.15767 
L 478.150122 505.234007 
L 480.806 507.874874 
L 483.461878 504.743883 
L 486.117756 506.611324 
L 488.773635 505.251898 
L 491.429513 505.327658 
L 494.085391 506.037606 
L 496.741269 503.971961 
L 499.397147 505.618167 
L 502.053025 504.243326 
L 504.708903 506.633914 
L 507.364782 505.211072 
L 510.02066 505.683275 
L 512.676538 505.751923 
L 515.332416 507.895585 
L 517.988294 505.484693 
L 520.644172 505.749949 
L 523.300051 507.766905 
L 525.955929 506.637925 
L 528.611807 506.341995 
L 531.267685 506.330747 
L 533.923563 504.500466 
L 536.579441 506.385139 
L 539.235319 505.783443 
L 541.891198 505.579065 
L 544.547076 505.052345 
L 547.202954 505.069547 
L 549.858832 505.293569 
L 552.51471 507.158597 
L 555.170588 504.566702 
L 557.826467 506.984298 
L 560.482345 506.430852 
L 563.138223 503.991105 
L 565.794101 506.526853 
L 568.449979 503.307726 
L 571.105857 506.673831 
L 573.761735 506.481422 
L 576.417614 506.574415 
L 576.417614 506.574415 
" clip-path="url(#pcfd4f3d02b)" style="fill: none; stroke: #1f77b4; stroke-width: 1.5; stroke-linecap: square"/>
   </g>
   <g id="line2d_30">
    <path d="M 69.144886 90.788777 
L 71.800765 84.954538 
L 74.456643 168.70192 
L 77.112521 274.350447 
L 79.768399 234.63364 
L 82.424277 253.792059 
L 85.080155 279.845676 
L 87.736033 115.101973 
L 90.391912 322.574538 
L 93.04779 270.053849 
L 95.703668 268.275641 
L 98.359546 47.518125 
L 101.015424 277.611966 
L 103.671302 321.647241 
L 106.327181 350.401976 
L 108.983059 273.529553 
L 111.638937 377.149907 
L 114.294815 384.63734 
L 116.950693 353.336454 
L 119.606571 339.15372 
L 122.262449 299.419618 
L 124.918328 400.706189 
L 127.574206 434.298623 
L 130.230084 426.388336 
L 132.885962 393.495416 
L 135.54184 407.241008 
L 138.197718 346.486436 
L 140.853597 311.031073 
L 143.509475 399.028807 
L 146.165353 429.95509 
L 148.821231 452.338056 
L 151.477109 426.155477 
L 154.132987 452.898176 
L 156.788865 261.656539 
L 159.444744 442.0181 
L 162.100622 369.442713 
L 164.7565 392.556401 
L 167.412378 462.232965 
L 170.068256 455.473089 
L 172.724134 347.34662 
L 175.380012 462.060264 
L 178.035891 357.784636 
L 180.691769 440.089186 
L 183.347647 427.51647 
L 186.003525 461.685066 
L 188.659403 455.926962 
L 191.315281 416.908009 
L 193.97116 457.668887 
L 196.627038 525.164505 
L 199.282916 527.505025 
L 201.938794 526.038194 
L 204.594672 532.452856 
L 207.25055 534.919204 
L 209.906428 521.636007 
L 212.562307 535.362237 
L 215.218185 536.939231 
L 217.874063 523.683575 
L 220.529941 534.133245 
L 223.185819 531.093179 
L 225.841697 534.623933 
L 228.497576 538.727308 
L 231.153454 535.191071 
L 233.809332 535.392159 
L 236.46521 531.61451 
L 239.121088 530.808122 
L 241.776966 539.958242 
L 244.432844 531.131216 
L 247.088723 533.210554 
L 249.744601 538.127742 
L 252.400479 536.767 
L 255.056357 534.299304 
L 257.712235 514.766971 
L 260.368113 537.278398 
L 263.023992 508.186814 
L 265.67987 534.618137 
L 268.335748 528.275287 
L 270.991626 546.629324 
L 273.647504 546.807727 
L 276.303382 547.490417 
L 278.95926 547.304807 
L 281.615139 547.246561 
L 284.271017 547.334541 
L 286.926895 547.730575 
L 289.582773 546.914475 
L 292.238651 548.46349 
L 294.894529 548.668901 
L 297.550408 547.221903 
L 300.206286 548.503031 
L 302.862164 547.738753 
L 305.518042 549.141605 
L 308.17392 547.769145 
L 310.829798 548.095372 
L 313.485676 548.568671 
L 316.141555 549.381607 
L 318.797433 549.240206 
L 321.453311 546.637031 
L 324.109189 548.426769 
L 326.765067 548.808077 
L 329.420945 549.690946 
L 332.076824 549.299047 
L 334.732702 547.297726 
L 337.38858 549.272133 
L 340.044458 549.50189 
L 345.356214 549.169647 
L 348.012092 549.338243 
L 350.667971 549.117605 
L 353.323849 549.852211 
L 355.979727 549.007442 
L 358.635605 549.59977 
L 361.291483 550.074291 
L 363.947361 549.901339 
L 366.60324 549.129793 
L 369.259118 550.101738 
L 371.914996 548.549558 
L 374.570874 550.018646 
L 377.226752 548.801717 
L 379.88263 549.044946 
L 382.538508 549.622423 
L 385.194387 549.351246 
L 387.850265 549.601901 
L 390.506143 550.28553 
L 393.162021 550.002228 
L 395.817899 549.949277 
L 398.473777 550.603987 
L 401.129656 550.045152 
L 403.785534 550.520676 
L 406.441412 549.324489 
L 409.09729 550.853859 
L 411.753168 550.152276 
L 414.409046 550.844929 
L 417.064924 549.497942 
L 419.720803 550.137205 
L 425.032559 550.178595 
L 427.688437 550.994977 
L 430.344315 550.521302 
L 433.000193 550.893619 
L 435.656072 550.417343 
L 438.31195 550.224872 
L 440.967828 550.83202 
L 443.623706 549.987941 
L 446.279584 550.455098 
L 448.935462 551.087939 
L 451.59134 550.500216 
L 454.247219 549.758403 
L 456.903097 549.415069 
L 459.558975 550.775623 
L 462.214853 551.166362 
L 464.870731 550.835843 
L 467.526609 549.009102 
L 470.182488 550.81438 
L 472.838366 549.982865 
L 475.494244 550.65064 
L 478.150122 549.79879 
L 480.806 551.053317 
L 483.461878 551.398093 
L 486.117756 549.985747 
L 488.773635 550.289415 
L 491.429513 550.980314 
L 494.085391 549.745213 
L 496.741269 550.4869 
L 499.397147 550.613637 
L 502.053025 550.244486 
L 504.708903 551.203804 
L 507.364782 550.924355 
L 510.02066 550.139743 
L 515.332416 550.667371 
L 517.988294 550.414868 
L 520.644172 551.0562 
L 523.300051 551.518125 
L 525.955929 550.709043 
L 528.611807 550.545428 
L 531.267685 550.963739 
L 536.579441 551.043197 
L 539.235319 550.957598 
L 541.891198 550.614922 
L 544.547076 551.059145 
L 547.202954 550.077456 
L 549.858832 550.78261 
L 552.51471 550.148485 
L 555.170588 551.035771 
L 557.826467 549.610768 
L 560.482345 550.541355 
L 563.138223 551.321894 
L 565.794101 550.811937 
L 571.105857 551.217997 
L 573.761735 550.726902 
L 576.417614 550.499652 
L 576.417614 550.499652 
" clip-path="url(#pcfd4f3d02b)" style="fill: none; stroke: #ff7f0e; stroke-width: 1.5; stroke-linecap: square"/>
   </g>
   <g id="patch_3">
    <path d="M 43.78125 576.718125 
L 43.78125 22.318125 
" style="fill: none; stroke: #000000; stroke-width: 0.8; stroke-linejoin: miter; stroke-linecap: square"/>
   </g>
   <g id="patch_4">
    <path d="M 601.78125 576.718125 
L 601.78125 22.318125 
" style="fill: none; stroke: #000000; stroke-width: 0.8; stroke-linejoin: miter; stroke-linecap: square"/>
   </g>
   <g id="patch_5">
    <path d="M 43.78125 576.718125 
L 601.78125 576.718125 
" style="fill: none; stroke: #000000; stroke-width: 0.8; stroke-linejoin: miter; stroke-linecap: square"/>
   </g>
   <g id="patch_6">
    <path d="M 43.78125 22.318125 
L 601.78125 22.318125 
" style="fill: none; stroke: #000000; stroke-width: 0.8; stroke-linejoin: miter; stroke-linecap: square"/>
   </g>
   <g id="text_17">
    <!-- Train and Val Loss -->
    <g transform="translate(269.235937 16.318125) scale(0.12 -0.12)">
     <defs>
      <path id="DejaVuSans-54" d="M -19 4666 
L 3928 4666 
L 3928 4134 
L 2272 4134 
L 2272 0 
L 1638 0 
L 1638 4134 
L -19 4134 
L -19 4666 
z
" transform="scale(0.015625)"/>
      <path id="DejaVuSans-72" d="M 2631 2963 
Q 2534 3019 2420 3045 
Q 2306 3072 2169 3072 
Q 1681 3072 1420 2755 
Q 1159 2438 1159 1844 
L 1159 0 
L 581 0 
L 581 3500 
L 1159 3500 
L 1159 2956 
Q 1341 3275 1631 3429 
Q 1922 3584 2338 3584 
Q 2397 3584 2469 3576 
Q 2541 3569 2628 3553 
L 2631 2963 
z
" transform="scale(0.015625)"/>
      <path id="DejaVuSans-61" d="M 2194 1759 
Q 1497 1759 1228 1600 
Q 959 1441 959 1056 
Q 959 750 1161 570 
Q 1363 391 1709 391 
Q 2188 391 2477 730 
Q 2766 1069 2766 1631 
L 2766 1759 
L 2194 1759 
z
M 3341 1997 
L 3341 0 
L 2766 0 
L 2766 531 
Q 2569 213 2275 61 
Q 1981 -91 1556 -91 
Q 1019 -91 701 211 
Q 384 513 384 1019 
Q 384 1609 779 1909 
Q 1175 2209 1959 2209 
L 2766 2209 
L 2766 2266 
Q 2766 2663 2505 2880 
Q 2244 3097 1772 3097 
Q 1472 3097 1187 3025 
Q 903 2953 641 2809 
L 641 3341 
Q 956 3463 1253 3523 
Q 1550 3584 1831 3584 
Q 2591 3584 2966 3190 
Q 3341 2797 3341 1997 
z
" transform="scale(0.015625)"/>
      <path id="DejaVuSans-69" d="M 603 3500 
L 1178 3500 
L 1178 0 
L 603 0 
L 603 3500 
z
M 603 4863 
L 1178 4863 
L 1178 4134 
L 603 4134 
L 603 4863 
z
" transform="scale(0.015625)"/>
      <path id="DejaVuSans-6e" d="M 3513 2113 
L 3513 0 
L 2938 0 
L 2938 2094 
Q 2938 2591 2744 2837 
Q 2550 3084 2163 3084 
Q 1697 3084 1428 2787 
Q 1159 2491 1159 1978 
L 1159 0 
L 581 0 
L 581 3500 
L 1159 3500 
L 1159 2956 
Q 1366 3272 1645 3428 
Q 1925 3584 2291 3584 
Q 2894 3584 3203 3211 
Q 3513 2838 3513 2113 
z
" transform="scale(0.015625)"/>
      <path id="DejaVuSans-20" transform="scale(0.015625)"/>
      <path id="DejaVuSans-64" d="M 2906 2969 
L 2906 4863 
L 3481 4863 
L 3481 0 
L 2906 0 
L 2906 525 
Q 2725 213 2448 61 
Q 2172 -91 1784 -91 
Q 1150 -91 751 415 
Q 353 922 353 1747 
Q 353 2572 751 3078 
Q 1150 3584 1784 3584 
Q 2172 3584 2448 3432 
Q 2725 3281 2906 2969 
z
M 947 1747 
Q 947 1113 1208 752 
Q 1469 391 1925 391 
Q 2381 391 2643 752 
Q 2906 1113 2906 1747 
Q 2906 2381 2643 2742 
Q 2381 3103 1925 3103 
Q 1469 3103 1208 2742 
Q 947 2381 947 1747 
z
" transform="scale(0.015625)"/>
      <path id="DejaVuSans-56" d="M 1831 0 
L 50 4666 
L 709 4666 
L 2188 738 
L 3669 4666 
L 4325 4666 
L 2547 0 
L 1831 0 
z
" transform="scale(0.015625)"/>
      <path id="DejaVuSans-6c" d="M 603 4863 
L 1178 4863 
L 1178 0 
L 603 0 
L 603 4863 
z
" transform="scale(0.015625)"/>
     </defs>
     <use xlink:href="#DejaVuSans-54"/>
     <use xlink:href="#DejaVuSans-72" x="46.333984"/>
     <use xlink:href="#DejaVuSans-61" x="87.447266"/>
     <use xlink:href="#DejaVuSans-69" x="148.726562"/>
     <use xlink:href="#DejaVuSans-6e" x="176.509766"/>
     <use xlink:href="#DejaVuSans-20" x="239.888672"/>
     <use xlink:href="#DejaVuSans-61" x="271.675781"/>
     <use xlink:href="#DejaVuSans-6e" x="332.955078"/>
     <use xlink:href="#DejaVuSans-64" x="396.333984"/>
     <use xlink:href="#DejaVuSans-20" x="459.810547"/>
     <use xlink:href="#DejaVuSans-56" x="491.597656"/>
     <use xlink:href="#DejaVuSans-61" x="552.255859"/>
     <use xlink:href="#DejaVuSans-6c" x="613.535156"/>
     <use xlink:href="#DejaVuSans-20" x="641.318359"/>
     <use xlink:href="#DejaVuSans-4c" x="673.105469"/>
     <use xlink:href="#DejaVuSans-6f" x="727.068359"/>
     <use xlink:href="#DejaVuSans-73" x="788.25"/>
     <use xlink:href="#DejaVuSans-73" x="840.349609"/>
    </g>
   </g>
   <g id="legend_1">
    <g id="patch_7">
     <path d="M 515.190625 60.230625 
L 594.78125 60.230625 
Q 596.78125 60.230625 596.78125 58.230625 
L 596.78125 29.318125 
Q 596.78125 27.318125 594.78125 27.318125 
L 515.190625 27.318125 
Q 513.190625 27.318125 513.190625 29.318125 
L 513.190625 58.230625 
Q 513.190625 60.230625 515.190625 60.230625 
z
" style="fill: #ffffff; opacity: 0.8; stroke: #cccccc; stroke-linejoin: miter"/>
    </g>
    <g id="line2d_31">
     <path d="M 517.190625 35.416563 
L 527.190625 35.416563 
L 537.190625 35.416563 
" style="fill: none; stroke: #1f77b4; stroke-width: 1.5; stroke-linecap: square"/>
    </g>
    <g id="text_18">
     <!-- train_loss -->
     <g transform="translate(545.190625 38.916563) scale(0.1 -0.1)">
      <defs>
       <path id="DejaVuSans-74" d="M 1172 4494 
L 1172 3500 
L 2356 3500 
L 2356 3053 
L 1172 3053 
L 1172 1153 
Q 1172 725 1289 603 
Q 1406 481 1766 481 
L 2356 481 
L 2356 0 
L 1766 0 
Q 1100 0 847 248 
Q 594 497 594 1153 
L 594 3053 
L 172 3053 
L 172 3500 
L 594 3500 
L 594 4494 
L 1172 4494 
z
" transform="scale(0.015625)"/>
       <path id="DejaVuSans-5f" d="M 3263 -1063 
L 3263 -1509 
L -63 -1509 
L -63 -1063 
L 3263 -1063 
z
" transform="scale(0.015625)"/>
      </defs>
      <use xlink:href="#DejaVuSans-74"/>
      <use xlink:href="#DejaVuSans-72" x="39.208984"/>
      <use xlink:href="#DejaVuSans-61" x="80.322266"/>
      <use xlink:href="#DejaVuSans-69" x="141.601562"/>
      <use xlink:href="#DejaVuSans-6e" x="169.384766"/>
      <use xlink:href="#DejaVuSans-5f" x="232.763672"/>
      <use xlink:href="#DejaVuSans-6c" x="282.763672"/>
      <use xlink:href="#DejaVuSans-6f" x="310.546875"/>
      <use xlink:href="#DejaVuSans-73" x="371.728516"/>
      <use xlink:href="#DejaVuSans-73" x="423.828125"/>
     </g>
    </g>
    <g id="line2d_32">
     <path d="M 517.190625 50.372813 
L 527.190625 50.372813 
L 537.190625 50.372813 
" style="fill: none; stroke: #ff7f0e; stroke-width: 1.5; stroke-linecap: square"/>
    </g>
    <g id="text_19">
     <!-- val_loss -->
     <g transform="translate(545.190625 53.872813) scale(0.1 -0.1)">
      <defs>
       <path id="DejaVuSans-76" d="M 191 3500 
L 800 3500 
L 1894 563 
L 2988 3500 
L 3597 3500 
L 2284 0 
L 1503 0 
L 191 3500 
z
" transform="scale(0.015625)"/>
      </defs>
      <use xlink:href="#DejaVuSans-76"/>
      <use xlink:href="#DejaVuSans-61" x="59.179688"/>
      <use xlink:href="#DejaVuSans-6c" x="120.458984"/>
      <use xlink:href="#DejaVuSans-5f" x="148.242188"/>
      <use xlink:href="#DejaVuSans-6c" x="198.242188"/>
      <use xlink:href="#DejaVuSans-6f" x="226.025391"/>
      <use xlink:href="#DejaVuSans-73" x="287.207031"/>
      <use xlink:href="#DejaVuSans-73" x="339.306641"/>
     </g>
    </g>
   </g>
  </g>
 </g>
 <defs>
  <clipPath id="pcfd4f3d02b">
   <rect x="43.78125" y="22.318125" width="558" height="554.4"/>
  </clipPath>
 </defs>
</svg>
