<?xml version="1.0" encoding="utf-8" standalone="no"?>
<!DOCTYPE svg PUBLIC "-//W3C//DTD SVG 1.1//EN"
  "http://www.w3.org/Graphics/SVG/1.1/DTD/svg11.dtd">
<svg xmlns:xlink="http://www.w3.org/1999/xlink" width="608.98125pt" height="614.274375pt" viewBox="0 0 608.98125 614.274375" xmlns="http://www.w3.org/2000/svg" version="1.1">
 <metadata>
  <rdf:RDF xmlns:dc="http://purl.org/dc/elements/1.1/" xmlns:cc="http://creativecommons.org/ns#" xmlns:rdf="http://www.w3.org/1999/02/22-rdf-syntax-ns#">
   <cc:Work>
    <dc:type rdf:resource="http://purl.org/dc/dcmitype/StillImage"/>
    <dc:date>2024-08-06T15:30:16.484135</dc:date>
    <dc:format>image/svg+xml</dc:format>
    <dc:creator>
     <cc:Agent>
      <dc:title>Matplotlib v3.8.0, https://matplotlib.org/</dc:title>
     </cc:Agent>
    </dc:creator>
   </cc:Work>
  </rdf:RDF>
 </metadata>
 <defs>
  <style type="text/css">*{stroke-linejoin: round; stroke-linecap: butt}</style>
 </defs>
 <g id="figure_1">
  <g id="patch_1">
   <path d="M 0 614.274375 
L 608.98125 614.274375 
L 608.98125 0 
L 0 0 
z
" style="fill: #ffffff"/>
  </g>
  <g id="axes_1">
   <g id="patch_2">
    <path d="M 43.78125 576.718125 
L 601.78125 576.718125 
L 601.78125 22.318125 
L 43.78125 22.318125 
z
" style="fill: #ffffff"/>
   </g>
   <g id="matplotlib.axis_1">
    <g id="xtick_1">
     <g id="line2d_1">
      <path d="M 69.144886 576.718125 
L 69.144886 22.318125 
" clip-path="url(#pc608c8dc1e)" style="fill: none; stroke: #b0b0b0; stroke-width: 0.8; stroke-linecap: square"/>
     </g>
     <g id="line2d_2">
      <defs>
       <path id="m0b1f191218" d="M 0 0 
L 0 3.5 
" style="stroke: #000000; stroke-width: 0.8"/>
      </defs>
      <g>
       <use xlink:href="#m0b1f191218" x="69.144886" y="576.718125" style="stroke: #000000; stroke-width: 0.8"/>
      </g>
     </g>
     <g id="text_1">
      <!-- 0 -->
      <g transform="translate(65.963636 591.316563) scale(0.1 -0.1)">
       <defs>
        <path id="DejaVuSans-30" d="M 2034 4250 
Q 1547 4250 1301 3770 
Q 1056 3291 1056 2328 
Q 1056 1369 1301 889 
Q 1547 409 2034 409 
Q 2525 409 2770 889 
Q 3016 1369 3016 2328 
Q 3016 3291 2770 3770 
Q 2525 4250 2034 4250 
z
M 2034 4750 
Q 2819 4750 3233 4129 
Q 3647 3509 3647 2328 
Q 3647 1150 3233 529 
Q 2819 -91 2034 -91 
Q 1250 -91 836 529 
Q 422 1150 422 2328 
Q 422 3509 836 4129 
Q 1250 4750 2034 4750 
z
" transform="scale(0.015625)"/>
       </defs>
       <use xlink:href="#DejaVuSans-30"/>
      </g>
     </g>
    </g>
    <g id="xtick_2">
     <g id="line2d_3">
      <path d="M 132.872616 576.718125 
L 132.872616 22.318125 
" clip-path="url(#pc608c8dc1e)" style="fill: none; stroke: #b0b0b0; stroke-width: 0.8; stroke-linecap: square"/>
     </g>
     <g id="line2d_4">
      <g>
       <use xlink:href="#m0b1f191218" x="132.872616" y="576.718125" style="stroke: #000000; stroke-width: 0.8"/>
      </g>
     </g>
     <g id="text_2">
      <!-- 25 -->
      <g transform="translate(126.510116 591.316563) scale(0.1 -0.1)">
       <defs>
        <path id="DejaVuSans-32" d="M 1228 531 
L 3431 531 
L 3431 0 
L 469 0 
L 469 531 
Q 828 903 1448 1529 
Q 2069 2156 2228 2338 
Q 2531 2678 2651 2914 
Q 2772 3150 2772 3378 
Q 2772 3750 2511 3984 
Q 2250 4219 1831 4219 
Q 1534 4219 1204 4116 
Q 875 4013 500 3803 
L 500 4441 
Q 881 4594 1212 4672 
Q 1544 4750 1819 4750 
Q 2544 4750 2975 4387 
Q 3406 4025 3406 3419 
Q 3406 3131 3298 2873 
Q 3191 2616 2906 2266 
Q 2828 2175 2409 1742 
Q 1991 1309 1228 531 
z
" transform="scale(0.015625)"/>
        <path id="DejaVuSans-35" d="M 691 4666 
L 3169 4666 
L 3169 4134 
L 1269 4134 
L 1269 2991 
Q 1406 3038 1543 3061 
Q 1681 3084 1819 3084 
Q 2600 3084 3056 2656 
Q 3513 2228 3513 1497 
Q 3513 744 3044 326 
Q 2575 -91 1722 -91 
Q 1428 -91 1123 -41 
Q 819 9 494 109 
L 494 744 
Q 775 591 1075 516 
Q 1375 441 1709 441 
Q 2250 441 2565 725 
Q 2881 1009 2881 1497 
Q 2881 1984 2565 2268 
Q 2250 2553 1709 2553 
Q 1456 2553 1204 2497 
Q 953 2441 691 2322 
L 691 4666 
z
" transform="scale(0.015625)"/>
       </defs>
       <use xlink:href="#DejaVuSans-32"/>
       <use xlink:href="#DejaVuSans-35" x="63.623047"/>
      </g>
     </g>
    </g>
    <g id="xtick_3">
     <g id="line2d_5">
      <path d="M 196.600345 576.718125 
L 196.600345 22.318125 
" clip-path="url(#pc608c8dc1e)" style="fill: none; stroke: #b0b0b0; stroke-width: 0.8; stroke-linecap: square"/>
     </g>
     <g id="line2d_6">
      <g>
       <use xlink:href="#m0b1f191218" x="196.600345" y="576.718125" style="stroke: #000000; stroke-width: 0.8"/>
      </g>
     </g>
     <g id="text_3">
      <!-- 50 -->
      <g transform="translate(190.237845 591.316563) scale(0.1 -0.1)">
       <use xlink:href="#DejaVuSans-35"/>
       <use xlink:href="#DejaVuSans-30" x="63.623047"/>
      </g>
     </g>
    </g>
    <g id="xtick_4">
     <g id="line2d_7">
      <path d="M 260.328075 576.718125 
L 260.328075 22.318125 
" clip-path="url(#pc608c8dc1e)" style="fill: none; stroke: #b0b0b0; stroke-width: 0.8; stroke-linecap: square"/>
     </g>
     <g id="line2d_8">
      <g>
       <use xlink:href="#m0b1f191218" x="260.328075" y="576.718125" style="stroke: #000000; stroke-width: 0.8"/>
      </g>
     </g>
     <g id="text_4">
      <!-- 75 -->
      <g transform="translate(253.965575 591.316563) scale(0.1 -0.1)">
       <defs>
        <path id="DejaVuSans-37" d="M 525 4666 
L 3525 4666 
L 3525 4397 
L 1831 0 
L 1172 0 
L 2766 4134 
L 525 4134 
L 525 4666 
z
" transform="scale(0.015625)"/>
       </defs>
       <use xlink:href="#DejaVuSans-37"/>
       <use xlink:href="#DejaVuSans-35" x="63.623047"/>
      </g>
     </g>
    </g>
    <g id="xtick_5">
     <g id="line2d_9">
      <path d="M 324.055805 576.718125 
L 324.055805 22.318125 
" clip-path="url(#pc608c8dc1e)" style="fill: none; stroke: #b0b0b0; stroke-width: 0.8; stroke-linecap: square"/>
     </g>
     <g id="line2d_10">
      <g>
       <use xlink:href="#m0b1f191218" x="324.055805" y="576.718125" style="stroke: #000000; stroke-width: 0.8"/>
      </g>
     </g>
     <g id="text_5">
      <!-- 100 -->
      <g transform="translate(314.512055 591.316563) scale(0.1 -0.1)">
       <defs>
        <path id="DejaVuSans-31" d="M 794 531 
L 1825 531 
L 1825 4091 
L 703 3866 
L 703 4441 
L 1819 4666 
L 2450 4666 
L 2450 531 
L 3481 531 
L 3481 0 
L 794 0 
L 794 531 
z
" transform="scale(0.015625)"/>
       </defs>
       <use xlink:href="#DejaVuSans-31"/>
       <use xlink:href="#DejaVuSans-30" x="63.623047"/>
       <use xlink:href="#DejaVuSans-30" x="127.246094"/>
      </g>
     </g>
    </g>
    <g id="xtick_6">
     <g id="line2d_11">
      <path d="M 387.783534 576.718125 
L 387.783534 22.318125 
" clip-path="url(#pc608c8dc1e)" style="fill: none; stroke: #b0b0b0; stroke-width: 0.8; stroke-linecap: square"/>
     </g>
     <g id="line2d_12">
      <g>
       <use xlink:href="#m0b1f191218" x="387.783534" y="576.718125" style="stroke: #000000; stroke-width: 0.8"/>
      </g>
     </g>
     <g id="text_6">
      <!-- 125 -->
      <g transform="translate(378.239784 591.316563) scale(0.1 -0.1)">
       <use xlink:href="#DejaVuSans-31"/>
       <use xlink:href="#DejaVuSans-32" x="63.623047"/>
       <use xlink:href="#DejaVuSans-35" x="127.246094"/>
      </g>
     </g>
    </g>
    <g id="xtick_7">
     <g id="line2d_13">
      <path d="M 451.511264 576.718125 
L 451.511264 22.318125 
" clip-path="url(#pc608c8dc1e)" style="fill: none; stroke: #b0b0b0; stroke-width: 0.8; stroke-linecap: square"/>
     </g>
     <g id="line2d_14">
      <g>
       <use xlink:href="#m0b1f191218" x="451.511264" y="576.718125" style="stroke: #000000; stroke-width: 0.8"/>
      </g>
     </g>
     <g id="text_7">
      <!-- 150 -->
      <g transform="translate(441.967514 591.316563) scale(0.1 -0.1)">
       <use xlink:href="#DejaVuSans-31"/>
       <use xlink:href="#DejaVuSans-35" x="63.623047"/>
       <use xlink:href="#DejaVuSans-30" x="127.246094"/>
      </g>
     </g>
    </g>
    <g id="xtick_8">
     <g id="line2d_15">
      <path d="M 515.238993 576.718125 
L 515.238993 22.318125 
" clip-path="url(#pc608c8dc1e)" style="fill: none; stroke: #b0b0b0; stroke-width: 0.8; stroke-linecap: square"/>
     </g>
     <g id="line2d_16">
      <g>
       <use xlink:href="#m0b1f191218" x="515.238993" y="576.718125" style="stroke: #000000; stroke-width: 0.8"/>
      </g>
     </g>
     <g id="text_8">
      <!-- 175 -->
      <g transform="translate(505.695243 591.316563) scale(0.1 -0.1)">
       <use xlink:href="#DejaVuSans-31"/>
       <use xlink:href="#DejaVuSans-37" x="63.623047"/>
       <use xlink:href="#DejaVuSans-35" x="127.246094"/>
      </g>
     </g>
    </g>
    <g id="xtick_9">
     <g id="line2d_17">
      <path d="M 578.966723 576.718125 
L 578.966723 22.318125 
" clip-path="url(#pc608c8dc1e)" style="fill: none; stroke: #b0b0b0; stroke-width: 0.8; stroke-linecap: square"/>
     </g>
     <g id="line2d_18">
      <g>
       <use xlink:href="#m0b1f191218" x="578.966723" y="576.718125" style="stroke: #000000; stroke-width: 0.8"/>
      </g>
     </g>
     <g id="text_9">
      <!-- 200 -->
      <g transform="translate(569.422973 591.316563) scale(0.1 -0.1)">
       <use xlink:href="#DejaVuSans-32"/>
       <use xlink:href="#DejaVuSans-30" x="63.623047"/>
       <use xlink:href="#DejaVuSans-30" x="127.246094"/>
      </g>
     </g>
    </g>
    <g id="text_10">
     <!-- Epochs -->
     <g transform="translate(304.865625 604.994688) scale(0.1 -0.1)">
      <defs>
       <path id="DejaVuSans-45" d="M 628 4666 
L 3578 4666 
L 3578 4134 
L 1259 4134 
L 1259 2753 
L 3481 2753 
L 3481 2222 
L 1259 2222 
L 1259 531 
L 3634 531 
L 3634 0 
L 628 0 
L 628 4666 
z
" transform="scale(0.015625)"/>
       <path id="DejaVuSans-70" d="M 1159 525 
L 1159 -1331 
L 581 -1331 
L 581 3500 
L 1159 3500 
L 1159 2969 
Q 1341 3281 1617 3432 
Q 1894 3584 2278 3584 
Q 2916 3584 3314 3078 
Q 3713 2572 3713 1747 
Q 3713 922 3314 415 
Q 2916 -91 2278 -91 
Q 1894 -91 1617 61 
Q 1341 213 1159 525 
z
M 3116 1747 
Q 3116 2381 2855 2742 
Q 2594 3103 2138 3103 
Q 1681 3103 1420 2742 
Q 1159 2381 1159 1747 
Q 1159 1113 1420 752 
Q 1681 391 2138 391 
Q 2594 391 2855 752 
Q 3116 1113 3116 1747 
z
" transform="scale(0.015625)"/>
       <path id="DejaVuSans-6f" d="M 1959 3097 
Q 1497 3097 1228 2736 
Q 959 2375 959 1747 
Q 959 1119 1226 758 
Q 1494 397 1959 397 
Q 2419 397 2687 759 
Q 2956 1122 2956 1747 
Q 2956 2369 2687 2733 
Q 2419 3097 1959 3097 
z
M 1959 3584 
Q 2709 3584 3137 3096 
Q 3566 2609 3566 1747 
Q 3566 888 3137 398 
Q 2709 -91 1959 -91 
Q 1206 -91 779 398 
Q 353 888 353 1747 
Q 353 2609 779 3096 
Q 1206 3584 1959 3584 
z
" transform="scale(0.015625)"/>
       <path id="DejaVuSans-63" d="M 3122 3366 
L 3122 2828 
Q 2878 2963 2633 3030 
Q 2388 3097 2138 3097 
Q 1578 3097 1268 2742 
Q 959 2388 959 1747 
Q 959 1106 1268 751 
Q 1578 397 2138 397 
Q 2388 397 2633 464 
Q 2878 531 3122 666 
L 3122 134 
Q 2881 22 2623 -34 
Q 2366 -91 2075 -91 
Q 1284 -91 818 406 
Q 353 903 353 1747 
Q 353 2603 823 3093 
Q 1294 3584 2113 3584 
Q 2378 3584 2631 3529 
Q 2884 3475 3122 3366 
z
" transform="scale(0.015625)"/>
       <path id="DejaVuSans-68" d="M 3513 2113 
L 3513 0 
L 2938 0 
L 2938 2094 
Q 2938 2591 2744 2837 
Q 2550 3084 2163 3084 
Q 1697 3084 1428 2787 
Q 1159 2491 1159 1978 
L 1159 0 
L 581 0 
L 581 4863 
L 1159 4863 
L 1159 2956 
Q 1366 3272 1645 3428 
Q 1925 3584 2291 3584 
Q 2894 3584 3203 3211 
Q 3513 2838 3513 2113 
z
" transform="scale(0.015625)"/>
       <path id="DejaVuSans-73" d="M 2834 3397 
L 2834 2853 
Q 2591 2978 2328 3040 
Q 2066 3103 1784 3103 
Q 1356 3103 1142 2972 
Q 928 2841 928 2578 
Q 928 2378 1081 2264 
Q 1234 2150 1697 2047 
L 1894 2003 
Q 2506 1872 2764 1633 
Q 3022 1394 3022 966 
Q 3022 478 2636 193 
Q 2250 -91 1575 -91 
Q 1294 -91 989 -36 
Q 684 19 347 128 
L 347 722 
Q 666 556 975 473 
Q 1284 391 1588 391 
Q 1994 391 2212 530 
Q 2431 669 2431 922 
Q 2431 1156 2273 1281 
Q 2116 1406 1581 1522 
L 1381 1569 
Q 847 1681 609 1914 
Q 372 2147 372 2553 
Q 372 3047 722 3315 
Q 1072 3584 1716 3584 
Q 2034 3584 2315 3537 
Q 2597 3491 2834 3397 
z
" transform="scale(0.015625)"/>
      </defs>
      <use xlink:href="#DejaVuSans-45"/>
      <use xlink:href="#DejaVuSans-70" x="63.183594"/>
      <use xlink:href="#DejaVuSans-6f" x="126.660156"/>
      <use xlink:href="#DejaVuSans-63" x="187.841797"/>
      <use xlink:href="#DejaVuSans-68" x="242.822266"/>
      <use xlink:href="#DejaVuSans-73" x="306.201172"/>
     </g>
    </g>
   </g>
   <g id="matplotlib.axis_2">
    <g id="ytick_1">
     <g id="line2d_19">
      <path d="M 43.78125 511.918924 
L 601.78125 511.918924 
" clip-path="url(#pc608c8dc1e)" style="fill: none; stroke: #b0b0b0; stroke-width: 0.8; stroke-linecap: square"/>
     </g>
     <g id="line2d_20">
      <defs>
       <path id="md1dfef76b3" d="M 0 0 
L -3.5 0 
" style="stroke: #000000; stroke-width: 0.8"/>
      </defs>
      <g>
       <use xlink:href="#md1dfef76b3" x="43.78125" y="511.918924" style="stroke: #000000; stroke-width: 0.8"/>
      </g>
     </g>
     <g id="text_11">
      <!-- 0.8 -->
      <g transform="translate(20.878125 515.718143) scale(0.1 -0.1)">
       <defs>
        <path id="DejaVuSans-2e" d="M 684 794 
L 1344 794 
L 1344 0 
L 684 0 
L 684 794 
z
" transform="scale(0.015625)"/>
        <path id="DejaVuSans-38" d="M 2034 2216 
Q 1584 2216 1326 1975 
Q 1069 1734 1069 1313 
Q 1069 891 1326 650 
Q 1584 409 2034 409 
Q 2484 409 2743 651 
Q 3003 894 3003 1313 
Q 3003 1734 2745 1975 
Q 2488 2216 2034 2216 
z
M 1403 2484 
Q 997 2584 770 2862 
Q 544 3141 544 3541 
Q 544 4100 942 4425 
Q 1341 4750 2034 4750 
Q 2731 4750 3128 4425 
Q 3525 4100 3525 3541 
Q 3525 3141 3298 2862 
Q 3072 2584 2669 2484 
Q 3125 2378 3379 2068 
Q 3634 1759 3634 1313 
Q 3634 634 3220 271 
Q 2806 -91 2034 -91 
Q 1263 -91 848 271 
Q 434 634 434 1313 
Q 434 1759 690 2068 
Q 947 2378 1403 2484 
z
M 1172 3481 
Q 1172 3119 1398 2916 
Q 1625 2713 2034 2713 
Q 2441 2713 2670 2916 
Q 2900 3119 2900 3481 
Q 2900 3844 2670 4047 
Q 2441 4250 2034 4250 
Q 1625 4250 1398 4047 
Q 1172 3844 1172 3481 
z
" transform="scale(0.015625)"/>
       </defs>
       <use xlink:href="#DejaVuSans-30"/>
       <use xlink:href="#DejaVuSans-2e" x="63.623047"/>
       <use xlink:href="#DejaVuSans-38" x="95.410156"/>
      </g>
     </g>
    </g>
    <g id="ytick_2">
     <g id="line2d_21">
      <path d="M 43.78125 443.382845 
L 601.78125 443.382845 
" clip-path="url(#pc608c8dc1e)" style="fill: none; stroke: #b0b0b0; stroke-width: 0.8; stroke-linecap: square"/>
     </g>
     <g id="line2d_22">
      <g>
       <use xlink:href="#md1dfef76b3" x="43.78125" y="443.382845" style="stroke: #000000; stroke-width: 0.8"/>
      </g>
     </g>
     <g id="text_12">
      <!-- 1.0 -->
      <g transform="translate(20.878125 447.182064) scale(0.1 -0.1)">
       <use xlink:href="#DejaVuSans-31"/>
       <use xlink:href="#DejaVuSans-2e" x="63.623047"/>
       <use xlink:href="#DejaVuSans-30" x="95.410156"/>
      </g>
     </g>
    </g>
    <g id="ytick_3">
     <g id="line2d_23">
      <path d="M 43.78125 374.846766 
L 601.78125 374.846766 
" clip-path="url(#pc608c8dc1e)" style="fill: none; stroke: #b0b0b0; stroke-width: 0.8; stroke-linecap: square"/>
     </g>
     <g id="line2d_24">
      <g>
       <use xlink:href="#md1dfef76b3" x="43.78125" y="374.846766" style="stroke: #000000; stroke-width: 0.8"/>
      </g>
     </g>
     <g id="text_13">
      <!-- 1.2 -->
      <g transform="translate(20.878125 378.645985) scale(0.1 -0.1)">
       <use xlink:href="#DejaVuSans-31"/>
       <use xlink:href="#DejaVuSans-2e" x="63.623047"/>
       <use xlink:href="#DejaVuSans-32" x="95.410156"/>
      </g>
     </g>
    </g>
    <g id="ytick_4">
     <g id="line2d_25">
      <path d="M 43.78125 306.310687 
L 601.78125 306.310687 
" clip-path="url(#pc608c8dc1e)" style="fill: none; stroke: #b0b0b0; stroke-width: 0.8; stroke-linecap: square"/>
     </g>
     <g id="line2d_26">
      <g>
       <use xlink:href="#md1dfef76b3" x="43.78125" y="306.310687" style="stroke: #000000; stroke-width: 0.8"/>
      </g>
     </g>
     <g id="text_14">
      <!-- 1.4 -->
      <g transform="translate(20.878125 310.109906) scale(0.1 -0.1)">
       <defs>
        <path id="DejaVuSans-34" d="M 2419 4116 
L 825 1625 
L 2419 1625 
L 2419 4116 
z
M 2253 4666 
L 3047 4666 
L 3047 1625 
L 3713 1625 
L 3713 1100 
L 3047 1100 
L 3047 0 
L 2419 0 
L 2419 1100 
L 313 1100 
L 313 1709 
L 2253 4666 
z
" transform="scale(0.015625)"/>
       </defs>
       <use xlink:href="#DejaVuSans-31"/>
       <use xlink:href="#DejaVuSans-2e" x="63.623047"/>
       <use xlink:href="#DejaVuSans-34" x="95.410156"/>
      </g>
     </g>
    </g>
    <g id="ytick_5">
     <g id="line2d_27">
      <path d="M 43.78125 237.774608 
L 601.78125 237.774608 
" clip-path="url(#pc608c8dc1e)" style="fill: none; stroke: #b0b0b0; stroke-width: 0.8; stroke-linecap: square"/>
     </g>
     <g id="line2d_28">
      <g>
       <use xlink:href="#md1dfef76b3" x="43.78125" y="237.774608" style="stroke: #000000; stroke-width: 0.8"/>
      </g>
     </g>
     <g id="text_15">
      <!-- 1.6 -->
      <g transform="translate(20.878125 241.573827) scale(0.1 -0.1)">
       <defs>
        <path id="DejaVuSans-36" d="M 2113 2584 
Q 1688 2584 1439 2293 
Q 1191 2003 1191 1497 
Q 1191 994 1439 701 
Q 1688 409 2113 409 
Q 2538 409 2786 701 
Q 3034 994 3034 1497 
Q 3034 2003 2786 2293 
Q 2538 2584 2113 2584 
z
M 3366 4563 
L 3366 3988 
Q 3128 4100 2886 4159 
Q 2644 4219 2406 4219 
Q 1781 4219 1451 3797 
Q 1122 3375 1075 2522 
Q 1259 2794 1537 2939 
Q 1816 3084 2150 3084 
Q 2853 3084 3261 2657 
Q 3669 2231 3669 1497 
Q 3669 778 3244 343 
Q 2819 -91 2113 -91 
Q 1303 -91 875 529 
Q 447 1150 447 2328 
Q 447 3434 972 4092 
Q 1497 4750 2381 4750 
Q 2619 4750 2861 4703 
Q 3103 4656 3366 4563 
z
" transform="scale(0.015625)"/>
       </defs>
       <use xlink:href="#DejaVuSans-31"/>
       <use xlink:href="#DejaVuSans-2e" x="63.623047"/>
       <use xlink:href="#DejaVuSans-36" x="95.410156"/>
      </g>
     </g>
    </g>
    <g id="ytick_6">
     <g id="line2d_29">
      <path d="M 43.78125 169.238529 
L 601.78125 169.238529 
" clip-path="url(#pc608c8dc1e)" style="fill: none; stroke: #b0b0b0; stroke-width: 0.8; stroke-linecap: square"/>
     </g>
     <g id="line2d_30">
      <g>
       <use xlink:href="#md1dfef76b3" x="43.78125" y="169.238529" style="stroke: #000000; stroke-width: 0.8"/>
      </g>
     </g>
     <g id="text_16">
      <!-- 1.8 -->
      <g transform="translate(20.878125 173.037748) scale(0.1 -0.1)">
       <use xlink:href="#DejaVuSans-31"/>
       <use xlink:href="#DejaVuSans-2e" x="63.623047"/>
       <use xlink:href="#DejaVuSans-38" x="95.410156"/>
      </g>
     </g>
    </g>
    <g id="ytick_7">
     <g id="line2d_31">
      <path d="M 43.78125 100.702451 
L 601.78125 100.702451 
" clip-path="url(#pc608c8dc1e)" style="fill: none; stroke: #b0b0b0; stroke-width: 0.8; stroke-linecap: square"/>
     </g>
     <g id="line2d_32">
      <g>
       <use xlink:href="#md1dfef76b3" x="43.78125" y="100.702451" style="stroke: #000000; stroke-width: 0.8"/>
      </g>
     </g>
     <g id="text_17">
      <!-- 2.0 -->
      <g transform="translate(20.878125 104.501669) scale(0.1 -0.1)">
       <use xlink:href="#DejaVuSans-32"/>
       <use xlink:href="#DejaVuSans-2e" x="63.623047"/>
       <use xlink:href="#DejaVuSans-30" x="95.410156"/>
      </g>
     </g>
    </g>
    <g id="ytick_8">
     <g id="line2d_33">
      <path d="M 43.78125 32.166372 
L 601.78125 32.166372 
" clip-path="url(#pc608c8dc1e)" style="fill: none; stroke: #b0b0b0; stroke-width: 0.8; stroke-linecap: square"/>
     </g>
     <g id="line2d_34">
      <g>
       <use xlink:href="#md1dfef76b3" x="43.78125" y="32.166372" style="stroke: #000000; stroke-width: 0.8"/>
      </g>
     </g>
     <g id="text_18">
      <!-- 2.2 -->
      <g transform="translate(20.878125 35.96559) scale(0.1 -0.1)">
       <use xlink:href="#DejaVuSans-32"/>
       <use xlink:href="#DejaVuSans-2e" x="63.623047"/>
       <use xlink:href="#DejaVuSans-32" x="95.410156"/>
      </g>
     </g>
    </g>
    <g id="text_19">
     <!-- Loss -->
     <g transform="translate(14.798438 310.485313) rotate(-90) scale(0.1 -0.1)">
      <defs>
       <path id="DejaVuSans-4c" d="M 628 4666 
L 1259 4666 
L 1259 531 
L 3531 531 
L 3531 0 
L 628 0 
L 628 4666 
z
" transform="scale(0.015625)"/>
      </defs>
      <use xlink:href="#DejaVuSans-4c"/>
      <use xlink:href="#DejaVuSans-6f" x="53.962891"/>
      <use xlink:href="#DejaVuSans-73" x="115.144531"/>
      <use xlink:href="#DejaVuSans-73" x="167.244141"/>
     </g>
    </g>
   </g>
   <g id="line2d_35">
    <path d="M 69.144886 108.669519 
L 71.693996 267.632122 
L 74.243105 321.900911 
L 76.792214 347.687784 
L 79.341323 367.924887 
L 81.890432 380.590152 
L 84.439541 389.492007 
L 86.988651 396.354922 
L 89.53776 400.815654 
L 92.086869 403.738479 
L 97.185087 411.158435 
L 99.734197 413.318456 
L 102.283306 415.90075 
L 104.832415 416.970139 
L 107.381524 419.255245 
L 109.930633 421.262035 
L 112.479742 422.579061 
L 115.028852 424.964088 
L 117.577961 425.902714 
L 120.12707 427.153317 
L 122.676179 428.8121 
L 127.774398 430.03856 
L 130.323507 431.386224 
L 132.872616 433.064574 
L 135.421725 432.878336 
L 137.970834 433.45715 
L 140.519943 434.95829 
L 143.069053 435.817584 
L 145.618162 457.223446 
L 148.167271 462.394816 
L 150.71638 464.672099 
L 153.265489 466.356352 
L 155.814599 468.268634 
L 158.363708 469.595791 
L 160.912817 469.426832 
L 163.461926 470.688404 
L 166.011035 471.739553 
L 168.560144 472.546681 
L 171.109254 473.170308 
L 173.658363 474.205873 
L 176.207472 474.860035 
L 178.756581 476.149834 
L 181.30569 475.507825 
L 183.8548 476.301125 
L 186.403909 476.309397 
L 188.953018 475.941639 
L 191.502127 477.200881 
L 194.051236 476.537446 
L 196.600345 478.330648 
L 199.149455 477.516698 
L 201.698564 478.557676 
L 204.247673 478.620177 
L 206.796782 478.472808 
L 209.345891 479.894964 
L 211.895001 479.7603 
L 214.44411 481.248817 
L 216.993219 481.744091 
L 219.542328 480.996543 
L 222.091437 482.027206 
L 224.640546 482.329093 
L 227.189656 483.044123 
L 229.738765 483.041917 
L 232.287874 482.449153 
L 234.836983 482.972981 
L 237.386092 483.825249 
L 239.935202 484.172705 
L 242.484311 483.019653 
L 245.03342 482.266305 
L 247.582529 484.395035 
L 250.131638 484.34009 
L 252.680747 484.461989 
L 255.229857 485.522003 
L 257.778966 485.785592 
L 260.328075 486.749525 
L 262.877184 485.477945 
L 265.426293 486.69023 
L 267.975403 485.493121 
L 270.524512 486.626217 
L 273.073621 487.01963 
L 275.62273 486.400027 
L 278.171839 487.034173 
L 280.720948 487.162342 
L 283.270058 488.021125 
L 285.819167 487.355606 
L 288.368276 487.49842 
L 290.917385 488.447811 
L 296.015604 487.946083 
L 298.564713 489.404616 
L 301.113822 488.50157 
L 303.662931 489.025501 
L 306.21204 489.870865 
L 308.761149 489.765981 
L 313.859368 489.204897 
L 316.408477 490.088456 
L 318.957586 489.383291 
L 321.506695 491.016584 
L 326.604914 490.42045 
L 329.154023 490.087864 
L 331.703132 491.710249 
L 334.252241 498.07115 
L 336.801351 500.014478 
L 339.35046 499.966091 
L 341.899569 500.427581 
L 344.448678 501.554202 
L 346.997787 502.060608 
L 349.546896 501.234076 
L 352.096006 501.75004 
L 354.645115 502.57216 
L 357.194224 501.649159 
L 359.743333 501.260588 
L 362.292442 502.549999 
L 364.841552 501.709455 
L 367.390661 502.743856 
L 369.93977 502.749963 
L 372.488879 503.397957 
L 375.037988 501.771037 
L 377.587097 503.397426 
L 380.136207 503.321158 
L 382.685316 503.491811 
L 385.234425 502.546915 
L 387.783534 503.739366 
L 390.332643 502.930972 
L 392.881753 503.863022 
L 395.430862 504.438138 
L 397.979971 502.679352 
L 400.52908 504.450781 
L 403.078189 503.915351 
L 405.627298 504.552193 
L 408.176408 506.055457 
L 410.725517 507.193823 
L 413.274626 505.862336 
L 415.823735 505.599809 
L 418.372844 506.668177 
L 420.921954 506.950496 
L 423.471063 506.584331 
L 426.020172 505.406299 
L 428.569281 506.911749 
L 431.11839 506.506755 
L 433.667499 506.925312 
L 436.216609 505.892565 
L 438.765718 507.288495 
L 441.314827 507.016899 
L 443.863936 507.198643 
L 446.413045 505.44858 
L 448.962155 507.019105 
L 451.511264 506.742423 
L 456.609482 507.363884 
L 459.158591 506.886463 
L 461.7077 507.185775 
L 464.25681 506.464209 
L 466.805919 507.04051 
L 469.355028 507.359779 
L 471.904137 508.137964 
L 474.453246 506.894796 
L 477.002356 507.719163 
L 479.551465 507.149745 
L 482.100574 506.209342 
L 484.649683 507.900193 
L 487.198792 507.793818 
L 489.747901 508.424409 
L 492.297011 507.441582 
L 494.84612 508.683545 
L 497.395229 507.86067 
L 499.944338 508.107326 
L 505.042557 507.814937 
L 507.591666 508.104753 
L 510.140775 507.485558 
L 512.689884 508.494448 
L 517.788102 508.248874 
L 520.337212 507.746962 
L 522.886321 508.148075 
L 525.43543 506.821408 
L 527.984539 507.778682 
L 530.533648 508.591999 
L 533.082758 508.318197 
L 535.631867 507.764303 
L 538.180976 507.405859 
L 540.730085 507.813058 
L 543.279194 507.860813 
L 545.828303 508.259168 
L 548.377413 507.263473 
L 550.926522 508.244155 
L 553.475631 508.647924 
L 556.02474 508.585729 
L 558.573849 507.506024 
L 561.122959 507.564563 
L 563.672068 508.392729 
L 566.221177 507.135407 
L 568.770286 508.26358 
L 573.868504 508.216336 
L 576.417614 508.775991 
L 576.417614 508.775991 
" clip-path="url(#pc608c8dc1e)" style="fill: none; stroke: #1f77b4; stroke-width: 1.5; stroke-linecap: square"/>
   </g>
   <g id="line2d_36">
    <path d="M 69.144886 47.518125 
L 71.693996 295.385874 
L 74.243105 327.139317 
L 76.792214 306.42279 
L 79.341323 349.105425 
L 81.890432 367.074253 
L 84.439541 396.787939 
L 86.988651 412.520887 
L 89.53776 386.481025 
L 92.086869 403.427034 
L 94.635978 401.578499 
L 97.185087 384.512553 
L 99.734197 423.903481 
L 102.283306 393.662739 
L 104.832415 422.043182 
L 107.381524 394.799655 
L 109.930633 404.247806 
L 112.479742 437.452387 
L 115.028852 437.466563 
L 117.577961 454.504832 
L 120.12707 420.258946 
L 122.676179 441.790322 
L 125.225288 402.393144 
L 127.774398 450.920675 
L 130.323507 440.025613 
L 132.872616 433.883508 
L 135.421725 392.1136 
L 137.970834 430.527543 
L 140.519943 450.801881 
L 143.069053 411.331437 
L 145.618162 500.957905 
L 148.167271 502.92031 
L 150.71638 503.42694 
L 153.265489 508.402084 
L 155.814599 510.128026 
L 158.363708 508.684424 
L 160.912817 511.967491 
L 163.461926 512.494751 
L 166.011035 511.051701 
L 168.560144 515.6732 
L 171.109254 513.802239 
L 173.658363 508.155693 
L 176.207472 513.711571 
L 178.756581 510.519069 
L 181.30569 518.152285 
L 183.8548 519.807473 
L 186.403909 518.318323 
L 188.953018 520.230952 
L 191.502127 519.057087 
L 194.051236 521.572182 
L 196.600345 517.608338 
L 199.149455 519.922856 
L 201.698564 513.242543 
L 204.247673 519.787497 
L 206.796782 518.046462 
L 209.345891 518.91509 
L 211.895001 521.345971 
L 214.44411 524.013787 
L 216.993219 521.101991 
L 219.542328 522.862614 
L 222.091437 523.559711 
L 224.640546 523.621396 
L 227.189656 523.406562 
L 229.738765 521.618486 
L 232.287874 519.417737 
L 234.836983 519.413509 
L 237.386092 527.668963 
L 239.935202 511.757539 
L 242.484311 519.340836 
L 245.03342 524.814644 
L 247.582529 522.812246 
L 250.131638 527.967704 
L 252.680747 521.281836 
L 255.229857 528.843257 
L 257.778966 523.307499 
L 260.328075 525.117348 
L 262.877184 522.224037 
L 265.426293 525.865262 
L 267.975403 515.482305 
L 270.524512 529.352992 
L 273.073621 527.92522 
L 275.62273 529.208605 
L 278.171839 520.299928 
L 280.720948 523.67922 
L 283.270058 527.912903 
L 285.819167 527.509421 
L 288.368276 530.106462 
L 290.917385 531.497898 
L 293.466494 524.349518 
L 296.015604 530.776393 
L 298.564713 529.204684 
L 301.113822 530.730477 
L 303.662931 523.584242 
L 306.21204 533.250168 
L 308.761149 531.009283 
L 311.310259 526.507762 
L 313.859368 531.030811 
L 316.408477 530.55872 
L 318.957586 531.213434 
L 321.506695 512.956813 
L 324.055805 532.762411 
L 326.604914 530.64369 
L 329.154023 531.815819 
L 331.703132 532.655096 
L 334.252241 542.385913 
L 336.801351 543.800858 
L 339.35046 544.564623 
L 341.899569 545.165557 
L 346.997787 544.688626 
L 349.546896 544.728761 
L 352.096006 546.071401 
L 354.645115 546.009941 
L 357.194224 545.740163 
L 359.743333 545.611626 
L 362.292442 546.614102 
L 364.841552 546.251818 
L 367.390661 546.986967 
L 369.93977 547.210665 
L 372.488879 546.163213 
L 375.037988 546.861535 
L 377.587097 547.705959 
L 380.136207 548.240286 
L 382.685316 547.012417 
L 385.234425 547.295104 
L 387.783534 547.269511 
L 390.332643 546.889987 
L 392.881753 547.573869 
L 395.430862 546.778894 
L 397.979971 548.179623 
L 400.52908 547.18687 
L 403.078189 548.065037 
L 405.627298 547.612779 
L 408.176408 549.221132 
L 418.372844 550.120603 
L 420.921954 549.787118 
L 423.471063 550.071561 
L 426.020172 549.948274 
L 428.569281 550.231206 
L 431.11839 550.179693 
L 433.667499 550.33562 
L 438.765718 550.044702 
L 441.314827 550.318606 
L 443.863936 550.41483 
L 446.413045 550.143152 
L 448.962155 550.19732 
L 451.511264 550.647148 
L 454.060373 550.632217 
L 456.609482 550.824746 
L 461.7077 550.995686 
L 464.25681 550.531601 
L 469.355028 550.856242 
L 471.904137 550.609994 
L 474.453246 550.811143 
L 477.002356 550.73418 
L 479.551465 550.313254 
L 482.100574 550.702745 
L 487.198792 550.847929 
L 489.747901 550.56085 
L 492.297011 551.161825 
L 494.84612 550.6583 
L 497.395229 550.842026 
L 499.944338 550.787837 
L 502.493447 551.00167 
L 505.042557 550.973769 
L 507.591666 551.071198 
L 510.140775 551.021258 
L 512.689884 551.319611 
L 522.886321 551.225307 
L 525.43543 551.424516 
L 527.984539 550.793475 
L 530.533648 550.667981 
L 533.082758 551.116767 
L 535.631867 551.428274 
L 538.180976 551.18221 
L 540.730085 551.226655 
L 543.279194 551.121056 
L 545.828303 551.323022 
L 548.377413 551.316997 
L 550.926522 551.518125 
L 553.475631 551.348656 
L 556.02474 551.394797 
L 558.573849 551.081778 
L 561.122959 551.116256 
L 563.672068 551.384564 
L 566.221177 551.250328 
L 571.319395 551.458238 
L 576.417614 551.0425 
L 576.417614 551.0425 
" clip-path="url(#pc608c8dc1e)" style="fill: none; stroke: #ff7f0e; stroke-width: 1.5; stroke-linecap: square"/>
   </g>
   <g id="patch_3">
    <path d="M 43.78125 576.718125 
L 43.78125 22.318125 
" style="fill: none; stroke: #000000; stroke-width: 0.8; stroke-linejoin: miter; stroke-linecap: square"/>
   </g>
   <g id="patch_4">
    <path d="M 601.78125 576.718125 
L 601.78125 22.318125 
" style="fill: none; stroke: #000000; stroke-width: 0.8; stroke-linejoin: miter; stroke-linecap: square"/>
   </g>
   <g id="patch_5">
    <path d="M 43.78125 576.718125 
L 601.78125 576.718125 
" style="fill: none; stroke: #000000; stroke-width: 0.8; stroke-linejoin: miter; stroke-linecap: square"/>
   </g>
   <g id="patch_6">
    <path d="M 43.78125 22.318125 
L 601.78125 22.318125 
" style="fill: none; stroke: #000000; stroke-width: 0.8; stroke-linejoin: miter; stroke-linecap: square"/>
   </g>
   <g id="text_20">
    <!-- Train and Val Loss -->
    <g transform="translate(269.235937 16.318125) scale(0.12 -0.12)">
     <defs>
      <path id="DejaVuSans-54" d="M -19 4666 
L 3928 4666 
L 3928 4134 
L 2272 4134 
L 2272 0 
L 1638 0 
L 1638 4134 
L -19 4134 
L -19 4666 
z
" transform="scale(0.015625)"/>
      <path id="DejaVuSans-72" d="M 2631 2963 
Q 2534 3019 2420 3045 
Q 2306 3072 2169 3072 
Q 1681 3072 1420 2755 
Q 1159 2438 1159 1844 
L 1159 0 
L 581 0 
L 581 3500 
L 1159 3500 
L 1159 2956 
Q 1341 3275 1631 3429 
Q 1922 3584 2338 3584 
Q 2397 3584 2469 3576 
Q 2541 3569 2628 3553 
L 2631 2963 
z
" transform="scale(0.015625)"/>
      <path id="DejaVuSans-61" d="M 2194 1759 
Q 1497 1759 1228 1600 
Q 959 1441 959 1056 
Q 959 750 1161 570 
Q 1363 391 1709 391 
Q 2188 391 2477 730 
Q 2766 1069 2766 1631 
L 2766 1759 
L 2194 1759 
z
M 3341 1997 
L 3341 0 
L 2766 0 
L 2766 531 
Q 2569 213 2275 61 
Q 1981 -91 1556 -91 
Q 1019 -91 701 211 
Q 384 513 384 1019 
Q 384 1609 779 1909 
Q 1175 2209 1959 2209 
L 2766 2209 
L 2766 2266 
Q 2766 2663 2505 2880 
Q 2244 3097 1772 3097 
Q 1472 3097 1187 3025 
Q 903 2953 641 2809 
L 641 3341 
Q 956 3463 1253 3523 
Q 1550 3584 1831 3584 
Q 2591 3584 2966 3190 
Q 3341 2797 3341 1997 
z
" transform="scale(0.015625)"/>
      <path id="DejaVuSans-69" d="M 603 3500 
L 1178 3500 
L 1178 0 
L 603 0 
L 603 3500 
z
M 603 4863 
L 1178 4863 
L 1178 4134 
L 603 4134 
L 603 4863 
z
" transform="scale(0.015625)"/>
      <path id="DejaVuSans-6e" d="M 3513 2113 
L 3513 0 
L 2938 0 
L 2938 2094 
Q 2938 2591 2744 2837 
Q 2550 3084 2163 3084 
Q 1697 3084 1428 2787 
Q 1159 2491 1159 1978 
L 1159 0 
L 581 0 
L 581 3500 
L 1159 3500 
L 1159 2956 
Q 1366 3272 1645 3428 
Q 1925 3584 2291 3584 
Q 2894 3584 3203 3211 
Q 3513 2838 3513 2113 
z
" transform="scale(0.015625)"/>
      <path id="DejaVuSans-20" transform="scale(0.015625)"/>
      <path id="DejaVuSans-64" d="M 2906 2969 
L 2906 4863 
L 3481 4863 
L 3481 0 
L 2906 0 
L 2906 525 
Q 2725 213 2448 61 
Q 2172 -91 1784 -91 
Q 1150 -91 751 415 
Q 353 922 353 1747 
Q 353 2572 751 3078 
Q 1150 3584 1784 3584 
Q 2172 3584 2448 3432 
Q 2725 3281 2906 2969 
z
M 947 1747 
Q 947 1113 1208 752 
Q 1469 391 1925 391 
Q 2381 391 2643 752 
Q 2906 1113 2906 1747 
Q 2906 2381 2643 2742 
Q 2381 3103 1925 3103 
Q 1469 3103 1208 2742 
Q 947 2381 947 1747 
z
" transform="scale(0.015625)"/>
      <path id="DejaVuSans-56" d="M 1831 0 
L 50 4666 
L 709 4666 
L 2188 738 
L 3669 4666 
L 4325 4666 
L 2547 0 
L 1831 0 
z
" transform="scale(0.015625)"/>
      <path id="DejaVuSans-6c" d="M 603 4863 
L 1178 4863 
L 1178 0 
L 603 0 
L 603 4863 
z
" transform="scale(0.015625)"/>
     </defs>
     <use xlink:href="#DejaVuSans-54"/>
     <use xlink:href="#DejaVuSans-72" x="46.333984"/>
     <use xlink:href="#DejaVuSans-61" x="87.447266"/>
     <use xlink:href="#DejaVuSans-69" x="148.726562"/>
     <use xlink:href="#DejaVuSans-6e" x="176.509766"/>
     <use xlink:href="#DejaVuSans-20" x="239.888672"/>
     <use xlink:href="#DejaVuSans-61" x="271.675781"/>
     <use xlink:href="#DejaVuSans-6e" x="332.955078"/>
     <use xlink:href="#DejaVuSans-64" x="396.333984"/>
     <use xlink:href="#DejaVuSans-20" x="459.810547"/>
     <use xlink:href="#DejaVuSans-56" x="491.597656"/>
     <use xlink:href="#DejaVuSans-61" x="552.255859"/>
     <use xlink:href="#DejaVuSans-6c" x="613.535156"/>
     <use xlink:href="#DejaVuSans-20" x="641.318359"/>
     <use xlink:href="#DejaVuSans-4c" x="673.105469"/>
     <use xlink:href="#DejaVuSans-6f" x="727.068359"/>
     <use xlink:href="#DejaVuSans-73" x="788.25"/>
     <use xlink:href="#DejaVuSans-73" x="840.349609"/>
    </g>
   </g>
   <g id="legend_1">
    <g id="patch_7">
     <path d="M 515.190625 60.230625 
L 594.78125 60.230625 
Q 596.78125 60.230625 596.78125 58.230625 
L 596.78125 29.318125 
Q 596.78125 27.318125 594.78125 27.318125 
L 515.190625 27.318125 
Q 513.190625 27.318125 513.190625 29.318125 
L 513.190625 58.230625 
Q 513.190625 60.230625 515.190625 60.230625 
z
" style="fill: #ffffff; opacity: 0.8; stroke: #cccccc; stroke-linejoin: miter"/>
    </g>
    <g id="line2d_37">
     <path d="M 517.190625 35.416563 
L 527.190625 35.416563 
L 537.190625 35.416563 
" style="fill: none; stroke: #1f77b4; stroke-width: 1.5; stroke-linecap: square"/>
    </g>
    <g id="text_21">
     <!-- train_loss -->
     <g transform="translate(545.190625 38.916563) scale(0.1 -0.1)">
      <defs>
       <path id="DejaVuSans-74" d="M 1172 4494 
L 1172 3500 
L 2356 3500 
L 2356 3053 
L 1172 3053 
L 1172 1153 
Q 1172 725 1289 603 
Q 1406 481 1766 481 
L 2356 481 
L 2356 0 
L 1766 0 
Q 1100 0 847 248 
Q 594 497 594 1153 
L 594 3053 
L 172 3053 
L 172 3500 
L 594 3500 
L 594 4494 
L 1172 4494 
z
" transform="scale(0.015625)"/>
       <path id="DejaVuSans-5f" d="M 3263 -1063 
L 3263 -1509 
L -63 -1509 
L -63 -1063 
L 3263 -1063 
z
" transform="scale(0.015625)"/>
      </defs>
      <use xlink:href="#DejaVuSans-74"/>
      <use xlink:href="#DejaVuSans-72" x="39.208984"/>
      <use xlink:href="#DejaVuSans-61" x="80.322266"/>
      <use xlink:href="#DejaVuSans-69" x="141.601562"/>
      <use xlink:href="#DejaVuSans-6e" x="169.384766"/>
      <use xlink:href="#DejaVuSans-5f" x="232.763672"/>
      <use xlink:href="#DejaVuSans-6c" x="282.763672"/>
      <use xlink:href="#DejaVuSans-6f" x="310.546875"/>
      <use xlink:href="#DejaVuSans-73" x="371.728516"/>
      <use xlink:href="#DejaVuSans-73" x="423.828125"/>
     </g>
    </g>
    <g id="line2d_38">
     <path d="M 517.190625 50.372813 
L 527.190625 50.372813 
L 537.190625 50.372813 
" style="fill: none; stroke: #ff7f0e; stroke-width: 1.5; stroke-linecap: square"/>
    </g>
    <g id="text_22">
     <!-- val_loss -->
     <g transform="translate(545.190625 53.872813) scale(0.1 -0.1)">
      <defs>
       <path id="DejaVuSans-76" d="M 191 3500 
L 800 3500 
L 1894 563 
L 2988 3500 
L 3597 3500 
L 2284 0 
L 1503 0 
L 191 3500 
z
" transform="scale(0.015625)"/>
      </defs>
      <use xlink:href="#DejaVuSans-76"/>
      <use xlink:href="#DejaVuSans-61" x="59.179688"/>
      <use xlink:href="#DejaVuSans-6c" x="120.458984"/>
      <use xlink:href="#DejaVuSans-5f" x="148.242188"/>
      <use xlink:href="#DejaVuSans-6c" x="198.242188"/>
      <use xlink:href="#DejaVuSans-6f" x="226.025391"/>
      <use xlink:href="#DejaVuSans-73" x="287.207031"/>
      <use xlink:href="#DejaVuSans-73" x="339.306641"/>
     </g>
    </g>
   </g>
  </g>
 </g>
 <defs>
  <clipPath id="pc608c8dc1e">
   <rect x="43.78125" y="22.318125" width="558" height="554.4"/>
  </clipPath>
 </defs>
</svg>
