<?xml version="1.0" encoding="utf-8" standalone="no"?>
<!DOCTYPE svg PUBLIC "-//W3C//DTD SVG 1.1//EN"
  "http://www.w3.org/Graphics/SVG/1.1/DTD/svg11.dtd">
<svg xmlns:xlink="http://www.w3.org/1999/xlink" width="608.98125pt" height="614.274375pt" viewBox="0 0 608.98125 614.274375" xmlns="http://www.w3.org/2000/svg" version="1.1">
 <metadata>
  <rdf:RDF xmlns:dc="http://purl.org/dc/elements/1.1/" xmlns:cc="http://creativecommons.org/ns#" xmlns:rdf="http://www.w3.org/1999/02/22-rdf-syntax-ns#">
   <cc:Work>
    <dc:type rdf:resource="http://purl.org/dc/dcmitype/StillImage"/>
    <dc:date>2024-08-06T18:40:54.580832</dc:date>
    <dc:format>image/svg+xml</dc:format>
    <dc:creator>
     <cc:Agent>
      <dc:title>Matplotlib v3.8.0, https://matplotlib.org/</dc:title>
     </cc:Agent>
    </dc:creator>
   </cc:Work>
  </rdf:RDF>
 </metadata>
 <defs>
  <style type="text/css">*{stroke-linejoin: round; stroke-linecap: butt}</style>
 </defs>
 <g id="figure_1">
  <g id="patch_1">
   <path d="M 0 614.274375 
L 608.98125 614.274375 
L 608.98125 0 
L 0 0 
z
" style="fill: #ffffff"/>
  </g>
  <g id="axes_1">
   <g id="patch_2">
    <path d="M 43.78125 576.718125 
L 601.78125 576.718125 
L 601.78125 22.318125 
L 43.78125 22.318125 
z
" style="fill: #ffffff"/>
   </g>
   <g id="matplotlib.axis_1">
    <g id="xtick_1">
     <g id="line2d_1">
      <path d="M 69.144886 576.718125 
L 69.144886 22.318125 
" clip-path="url(#p05b1307c48)" style="fill: none; stroke: #b0b0b0; stroke-width: 0.8; stroke-linecap: square"/>
     </g>
     <g id="line2d_2">
      <defs>
       <path id="m20dbb979d4" d="M 0 0 
L 0 3.5 
" style="stroke: #000000; stroke-width: 0.8"/>
      </defs>
      <g>
       <use xlink:href="#m20dbb979d4" x="69.144886" y="576.718125" style="stroke: #000000; stroke-width: 0.8"/>
      </g>
     </g>
     <g id="text_1">
      <!-- 0 -->
      <g transform="translate(65.963636 591.316563) scale(0.1 -0.1)">
       <defs>
        <path id="DejaVuSans-30" d="M 2034 4250 
Q 1547 4250 1301 3770 
Q 1056 3291 1056 2328 
Q 1056 1369 1301 889 
Q 1547 409 2034 409 
Q 2525 409 2770 889 
Q 3016 1369 3016 2328 
Q 3016 3291 2770 3770 
Q 2525 4250 2034 4250 
z
M 2034 4750 
Q 2819 4750 3233 4129 
Q 3647 3509 3647 2328 
Q 3647 1150 3233 529 
Q 2819 -91 2034 -91 
Q 1250 -91 836 529 
Q 422 1150 422 2328 
Q 422 3509 836 4129 
Q 1250 4750 2034 4750 
z
" transform="scale(0.015625)"/>
       </defs>
       <use xlink:href="#DejaVuSans-30"/>
      </g>
     </g>
    </g>
    <g id="xtick_2">
     <g id="line2d_3">
      <path d="M 136.601366 576.718125 
L 136.601366 22.318125 
" clip-path="url(#p05b1307c48)" style="fill: none; stroke: #b0b0b0; stroke-width: 0.8; stroke-linecap: square"/>
     </g>
     <g id="line2d_4">
      <g>
       <use xlink:href="#m20dbb979d4" x="136.601366" y="576.718125" style="stroke: #000000; stroke-width: 0.8"/>
      </g>
     </g>
     <g id="text_2">
      <!-- 25 -->
      <g transform="translate(130.238866 591.316563) scale(0.1 -0.1)">
       <defs>
        <path id="DejaVuSans-32" d="M 1228 531 
L 3431 531 
L 3431 0 
L 469 0 
L 469 531 
Q 828 903 1448 1529 
Q 2069 2156 2228 2338 
Q 2531 2678 2651 2914 
Q 2772 3150 2772 3378 
Q 2772 3750 2511 3984 
Q 2250 4219 1831 4219 
Q 1534 4219 1204 4116 
Q 875 4013 500 3803 
L 500 4441 
Q 881 4594 1212 4672 
Q 1544 4750 1819 4750 
Q 2544 4750 2975 4387 
Q 3406 4025 3406 3419 
Q 3406 3131 3298 2873 
Q 3191 2616 2906 2266 
Q 2828 2175 2409 1742 
Q 1991 1309 1228 531 
z
" transform="scale(0.015625)"/>
        <path id="DejaVuSans-35" d="M 691 4666 
L 3169 4666 
L 3169 4134 
L 1269 4134 
L 1269 2991 
Q 1406 3038 1543 3061 
Q 1681 3084 1819 3084 
Q 2600 3084 3056 2656 
Q 3513 2228 3513 1497 
Q 3513 744 3044 326 
Q 2575 -91 1722 -91 
Q 1428 -91 1123 -41 
Q 819 9 494 109 
L 494 744 
Q 775 591 1075 516 
Q 1375 441 1709 441 
Q 2250 441 2565 725 
Q 2881 1009 2881 1497 
Q 2881 1984 2565 2268 
Q 2250 2553 1709 2553 
Q 1456 2553 1204 2497 
Q 953 2441 691 2322 
L 691 4666 
z
" transform="scale(0.015625)"/>
       </defs>
       <use xlink:href="#DejaVuSans-32"/>
       <use xlink:href="#DejaVuSans-35" x="63.623047"/>
      </g>
     </g>
    </g>
    <g id="xtick_3">
     <g id="line2d_5">
      <path d="M 204.057846 576.718125 
L 204.057846 22.318125 
" clip-path="url(#p05b1307c48)" style="fill: none; stroke: #b0b0b0; stroke-width: 0.8; stroke-linecap: square"/>
     </g>
     <g id="line2d_6">
      <g>
       <use xlink:href="#m20dbb979d4" x="204.057846" y="576.718125" style="stroke: #000000; stroke-width: 0.8"/>
      </g>
     </g>
     <g id="text_3">
      <!-- 50 -->
      <g transform="translate(197.695346 591.316563) scale(0.1 -0.1)">
       <use xlink:href="#DejaVuSans-35"/>
       <use xlink:href="#DejaVuSans-30" x="63.623047"/>
      </g>
     </g>
    </g>
    <g id="xtick_4">
     <g id="line2d_7">
      <path d="M 271.514325 576.718125 
L 271.514325 22.318125 
" clip-path="url(#p05b1307c48)" style="fill: none; stroke: #b0b0b0; stroke-width: 0.8; stroke-linecap: square"/>
     </g>
     <g id="line2d_8">
      <g>
       <use xlink:href="#m20dbb979d4" x="271.514325" y="576.718125" style="stroke: #000000; stroke-width: 0.8"/>
      </g>
     </g>
     <g id="text_4">
      <!-- 75 -->
      <g transform="translate(265.151825 591.316563) scale(0.1 -0.1)">
       <defs>
        <path id="DejaVuSans-37" d="M 525 4666 
L 3525 4666 
L 3525 4397 
L 1831 0 
L 1172 0 
L 2766 4134 
L 525 4134 
L 525 4666 
z
" transform="scale(0.015625)"/>
       </defs>
       <use xlink:href="#DejaVuSans-37"/>
       <use xlink:href="#DejaVuSans-35" x="63.623047"/>
      </g>
     </g>
    </g>
    <g id="xtick_5">
     <g id="line2d_9">
      <path d="M 338.970805 576.718125 
L 338.970805 22.318125 
" clip-path="url(#p05b1307c48)" style="fill: none; stroke: #b0b0b0; stroke-width: 0.8; stroke-linecap: square"/>
     </g>
     <g id="line2d_10">
      <g>
       <use xlink:href="#m20dbb979d4" x="338.970805" y="576.718125" style="stroke: #000000; stroke-width: 0.8"/>
      </g>
     </g>
     <g id="text_5">
      <!-- 100 -->
      <g transform="translate(329.427055 591.316563) scale(0.1 -0.1)">
       <defs>
        <path id="DejaVuSans-31" d="M 794 531 
L 1825 531 
L 1825 4091 
L 703 3866 
L 703 4441 
L 1819 4666 
L 2450 4666 
L 2450 531 
L 3481 531 
L 3481 0 
L 794 0 
L 794 531 
z
" transform="scale(0.015625)"/>
       </defs>
       <use xlink:href="#DejaVuSans-31"/>
       <use xlink:href="#DejaVuSans-30" x="63.623047"/>
       <use xlink:href="#DejaVuSans-30" x="127.246094"/>
      </g>
     </g>
    </g>
    <g id="xtick_6">
     <g id="line2d_11">
      <path d="M 406.427285 576.718125 
L 406.427285 22.318125 
" clip-path="url(#p05b1307c48)" style="fill: none; stroke: #b0b0b0; stroke-width: 0.8; stroke-linecap: square"/>
     </g>
     <g id="line2d_12">
      <g>
       <use xlink:href="#m20dbb979d4" x="406.427285" y="576.718125" style="stroke: #000000; stroke-width: 0.8"/>
      </g>
     </g>
     <g id="text_6">
      <!-- 125 -->
      <g transform="translate(396.883535 591.316563) scale(0.1 -0.1)">
       <use xlink:href="#DejaVuSans-31"/>
       <use xlink:href="#DejaVuSans-32" x="63.623047"/>
       <use xlink:href="#DejaVuSans-35" x="127.246094"/>
      </g>
     </g>
    </g>
    <g id="xtick_7">
     <g id="line2d_13">
      <path d="M 473.883765 576.718125 
L 473.883765 22.318125 
" clip-path="url(#p05b1307c48)" style="fill: none; stroke: #b0b0b0; stroke-width: 0.8; stroke-linecap: square"/>
     </g>
     <g id="line2d_14">
      <g>
       <use xlink:href="#m20dbb979d4" x="473.883765" y="576.718125" style="stroke: #000000; stroke-width: 0.8"/>
      </g>
     </g>
     <g id="text_7">
      <!-- 150 -->
      <g transform="translate(464.340015 591.316563) scale(0.1 -0.1)">
       <use xlink:href="#DejaVuSans-31"/>
       <use xlink:href="#DejaVuSans-35" x="63.623047"/>
       <use xlink:href="#DejaVuSans-30" x="127.246094"/>
      </g>
     </g>
    </g>
    <g id="xtick_8">
     <g id="line2d_15">
      <path d="M 541.340244 576.718125 
L 541.340244 22.318125 
" clip-path="url(#p05b1307c48)" style="fill: none; stroke: #b0b0b0; stroke-width: 0.8; stroke-linecap: square"/>
     </g>
     <g id="line2d_16">
      <g>
       <use xlink:href="#m20dbb979d4" x="541.340244" y="576.718125" style="stroke: #000000; stroke-width: 0.8"/>
      </g>
     </g>
     <g id="text_8">
      <!-- 175 -->
      <g transform="translate(531.796494 591.316563) scale(0.1 -0.1)">
       <use xlink:href="#DejaVuSans-31"/>
       <use xlink:href="#DejaVuSans-37" x="63.623047"/>
       <use xlink:href="#DejaVuSans-35" x="127.246094"/>
      </g>
     </g>
    </g>
    <g id="text_9">
     <!-- Epochs -->
     <g transform="translate(304.865625 604.994688) scale(0.1 -0.1)">
      <defs>
       <path id="DejaVuSans-45" d="M 628 4666 
L 3578 4666 
L 3578 4134 
L 1259 4134 
L 1259 2753 
L 3481 2753 
L 3481 2222 
L 1259 2222 
L 1259 531 
L 3634 531 
L 3634 0 
L 628 0 
L 628 4666 
z
" transform="scale(0.015625)"/>
       <path id="DejaVuSans-70" d="M 1159 525 
L 1159 -1331 
L 581 -1331 
L 581 3500 
L 1159 3500 
L 1159 2969 
Q 1341 3281 1617 3432 
Q 1894 3584 2278 3584 
Q 2916 3584 3314 3078 
Q 3713 2572 3713 1747 
Q 3713 922 3314 415 
Q 2916 -91 2278 -91 
Q 1894 -91 1617 61 
Q 1341 213 1159 525 
z
M 3116 1747 
Q 3116 2381 2855 2742 
Q 2594 3103 2138 3103 
Q 1681 3103 1420 2742 
Q 1159 2381 1159 1747 
Q 1159 1113 1420 752 
Q 1681 391 2138 391 
Q 2594 391 2855 752 
Q 3116 1113 3116 1747 
z
" transform="scale(0.015625)"/>
       <path id="DejaVuSans-6f" d="M 1959 3097 
Q 1497 3097 1228 2736 
Q 959 2375 959 1747 
Q 959 1119 1226 758 
Q 1494 397 1959 397 
Q 2419 397 2687 759 
Q 2956 1122 2956 1747 
Q 2956 2369 2687 2733 
Q 2419 3097 1959 3097 
z
M 1959 3584 
Q 2709 3584 3137 3096 
Q 3566 2609 3566 1747 
Q 3566 888 3137 398 
Q 2709 -91 1959 -91 
Q 1206 -91 779 398 
Q 353 888 353 1747 
Q 353 2609 779 3096 
Q 1206 3584 1959 3584 
z
" transform="scale(0.015625)"/>
       <path id="DejaVuSans-63" d="M 3122 3366 
L 3122 2828 
Q 2878 2963 2633 3030 
Q 2388 3097 2138 3097 
Q 1578 3097 1268 2742 
Q 959 2388 959 1747 
Q 959 1106 1268 751 
Q 1578 397 2138 397 
Q 2388 397 2633 464 
Q 2878 531 3122 666 
L 3122 134 
Q 2881 22 2623 -34 
Q 2366 -91 2075 -91 
Q 1284 -91 818 406 
Q 353 903 353 1747 
Q 353 2603 823 3093 
Q 1294 3584 2113 3584 
Q 2378 3584 2631 3529 
Q 2884 3475 3122 3366 
z
" transform="scale(0.015625)"/>
       <path id="DejaVuSans-68" d="M 3513 2113 
L 3513 0 
L 2938 0 
L 2938 2094 
Q 2938 2591 2744 2837 
Q 2550 3084 2163 3084 
Q 1697 3084 1428 2787 
Q 1159 2491 1159 1978 
L 1159 0 
L 581 0 
L 581 4863 
L 1159 4863 
L 1159 2956 
Q 1366 3272 1645 3428 
Q 1925 3584 2291 3584 
Q 2894 3584 3203 3211 
Q 3513 2838 3513 2113 
z
" transform="scale(0.015625)"/>
       <path id="DejaVuSans-73" d="M 2834 3397 
L 2834 2853 
Q 2591 2978 2328 3040 
Q 2066 3103 1784 3103 
Q 1356 3103 1142 2972 
Q 928 2841 928 2578 
Q 928 2378 1081 2264 
Q 1234 2150 1697 2047 
L 1894 2003 
Q 2506 1872 2764 1633 
Q 3022 1394 3022 966 
Q 3022 478 2636 193 
Q 2250 -91 1575 -91 
Q 1294 -91 989 -36 
Q 684 19 347 128 
L 347 722 
Q 666 556 975 473 
Q 1284 391 1588 391 
Q 1994 391 2212 530 
Q 2431 669 2431 922 
Q 2431 1156 2273 1281 
Q 2116 1406 1581 1522 
L 1381 1569 
Q 847 1681 609 1914 
Q 372 2147 372 2553 
Q 372 3047 722 3315 
Q 1072 3584 1716 3584 
Q 2034 3584 2315 3537 
Q 2597 3491 2834 3397 
z
" transform="scale(0.015625)"/>
      </defs>
      <use xlink:href="#DejaVuSans-45"/>
      <use xlink:href="#DejaVuSans-70" x="63.183594"/>
      <use xlink:href="#DejaVuSans-6f" x="126.660156"/>
      <use xlink:href="#DejaVuSans-63" x="187.841797"/>
      <use xlink:href="#DejaVuSans-68" x="242.822266"/>
      <use xlink:href="#DejaVuSans-73" x="306.201172"/>
     </g>
    </g>
   </g>
   <g id="matplotlib.axis_2">
    <g id="ytick_1">
     <g id="line2d_17">
      <path d="M 43.78125 551.315709 
L 601.78125 551.315709 
" clip-path="url(#p05b1307c48)" style="fill: none; stroke: #b0b0b0; stroke-width: 0.8; stroke-linecap: square"/>
     </g>
     <g id="line2d_18">
      <defs>
       <path id="m9a4c04852d" d="M 0 0 
L -3.5 0 
" style="stroke: #000000; stroke-width: 0.8"/>
      </defs>
      <g>
       <use xlink:href="#m9a4c04852d" x="43.78125" y="551.315709" style="stroke: #000000; stroke-width: 0.8"/>
      </g>
     </g>
     <g id="text_10">
      <!-- 0.4 -->
      <g transform="translate(20.878125 555.114928) scale(0.1 -0.1)">
       <defs>
        <path id="DejaVuSans-2e" d="M 684 794 
L 1344 794 
L 1344 0 
L 684 0 
L 684 794 
z
" transform="scale(0.015625)"/>
        <path id="DejaVuSans-34" d="M 2419 4116 
L 825 1625 
L 2419 1625 
L 2419 4116 
z
M 2253 4666 
L 3047 4666 
L 3047 1625 
L 3713 1625 
L 3713 1100 
L 3047 1100 
L 3047 0 
L 2419 0 
L 2419 1100 
L 313 1100 
L 313 1709 
L 2253 4666 
z
" transform="scale(0.015625)"/>
       </defs>
       <use xlink:href="#DejaVuSans-30"/>
       <use xlink:href="#DejaVuSans-2e" x="63.623047"/>
       <use xlink:href="#DejaVuSans-34" x="95.410156"/>
      </g>
     </g>
    </g>
    <g id="ytick_2">
     <g id="line2d_19">
      <path d="M 43.78125 456.778408 
L 601.78125 456.778408 
" clip-path="url(#p05b1307c48)" style="fill: none; stroke: #b0b0b0; stroke-width: 0.8; stroke-linecap: square"/>
     </g>
     <g id="line2d_20">
      <g>
       <use xlink:href="#m9a4c04852d" x="43.78125" y="456.778408" style="stroke: #000000; stroke-width: 0.8"/>
      </g>
     </g>
     <g id="text_11">
      <!-- 0.6 -->
      <g transform="translate(20.878125 460.577627) scale(0.1 -0.1)">
       <defs>
        <path id="DejaVuSans-36" d="M 2113 2584 
Q 1688 2584 1439 2293 
Q 1191 2003 1191 1497 
Q 1191 994 1439 701 
Q 1688 409 2113 409 
Q 2538 409 2786 701 
Q 3034 994 3034 1497 
Q 3034 2003 2786 2293 
Q 2538 2584 2113 2584 
z
M 3366 4563 
L 3366 3988 
Q 3128 4100 2886 4159 
Q 2644 4219 2406 4219 
Q 1781 4219 1451 3797 
Q 1122 3375 1075 2522 
Q 1259 2794 1537 2939 
Q 1816 3084 2150 3084 
Q 2853 3084 3261 2657 
Q 3669 2231 3669 1497 
Q 3669 778 3244 343 
Q 2819 -91 2113 -91 
Q 1303 -91 875 529 
Q 447 1150 447 2328 
Q 447 3434 972 4092 
Q 1497 4750 2381 4750 
Q 2619 4750 2861 4703 
Q 3103 4656 3366 4563 
z
" transform="scale(0.015625)"/>
       </defs>
       <use xlink:href="#DejaVuSans-30"/>
       <use xlink:href="#DejaVuSans-2e" x="63.623047"/>
       <use xlink:href="#DejaVuSans-36" x="95.410156"/>
      </g>
     </g>
    </g>
    <g id="ytick_3">
     <g id="line2d_21">
      <path d="M 43.78125 362.241107 
L 601.78125 362.241107 
" clip-path="url(#p05b1307c48)" style="fill: none; stroke: #b0b0b0; stroke-width: 0.8; stroke-linecap: square"/>
     </g>
     <g id="line2d_22">
      <g>
       <use xlink:href="#m9a4c04852d" x="43.78125" y="362.241107" style="stroke: #000000; stroke-width: 0.8"/>
      </g>
     </g>
     <g id="text_12">
      <!-- 0.8 -->
      <g transform="translate(20.878125 366.040325) scale(0.1 -0.1)">
       <defs>
        <path id="DejaVuSans-38" d="M 2034 2216 
Q 1584 2216 1326 1975 
Q 1069 1734 1069 1313 
Q 1069 891 1326 650 
Q 1584 409 2034 409 
Q 2484 409 2743 651 
Q 3003 894 3003 1313 
Q 3003 1734 2745 1975 
Q 2488 2216 2034 2216 
z
M 1403 2484 
Q 997 2584 770 2862 
Q 544 3141 544 3541 
Q 544 4100 942 4425 
Q 1341 4750 2034 4750 
Q 2731 4750 3128 4425 
Q 3525 4100 3525 3541 
Q 3525 3141 3298 2862 
Q 3072 2584 2669 2484 
Q 3125 2378 3379 2068 
Q 3634 1759 3634 1313 
Q 3634 634 3220 271 
Q 2806 -91 2034 -91 
Q 1263 -91 848 271 
Q 434 634 434 1313 
Q 434 1759 690 2068 
Q 947 2378 1403 2484 
z
M 1172 3481 
Q 1172 3119 1398 2916 
Q 1625 2713 2034 2713 
Q 2441 2713 2670 2916 
Q 2900 3119 2900 3481 
Q 2900 3844 2670 4047 
Q 2441 4250 2034 4250 
Q 1625 4250 1398 4047 
Q 1172 3844 1172 3481 
z
" transform="scale(0.015625)"/>
       </defs>
       <use xlink:href="#DejaVuSans-30"/>
       <use xlink:href="#DejaVuSans-2e" x="63.623047"/>
       <use xlink:href="#DejaVuSans-38" x="95.410156"/>
      </g>
     </g>
    </g>
    <g id="ytick_4">
     <g id="line2d_23">
      <path d="M 43.78125 267.703805 
L 601.78125 267.703805 
" clip-path="url(#p05b1307c48)" style="fill: none; stroke: #b0b0b0; stroke-width: 0.8; stroke-linecap: square"/>
     </g>
     <g id="line2d_24">
      <g>
       <use xlink:href="#m9a4c04852d" x="43.78125" y="267.703805" style="stroke: #000000; stroke-width: 0.8"/>
      </g>
     </g>
     <g id="text_13">
      <!-- 1.0 -->
      <g transform="translate(20.878125 271.503024) scale(0.1 -0.1)">
       <use xlink:href="#DejaVuSans-31"/>
       <use xlink:href="#DejaVuSans-2e" x="63.623047"/>
       <use xlink:href="#DejaVuSans-30" x="95.410156"/>
      </g>
     </g>
    </g>
    <g id="ytick_5">
     <g id="line2d_25">
      <path d="M 43.78125 173.166504 
L 601.78125 173.166504 
" clip-path="url(#p05b1307c48)" style="fill: none; stroke: #b0b0b0; stroke-width: 0.8; stroke-linecap: square"/>
     </g>
     <g id="line2d_26">
      <g>
       <use xlink:href="#m9a4c04852d" x="43.78125" y="173.166504" style="stroke: #000000; stroke-width: 0.8"/>
      </g>
     </g>
     <g id="text_14">
      <!-- 1.2 -->
      <g transform="translate(20.878125 176.965723) scale(0.1 -0.1)">
       <use xlink:href="#DejaVuSans-31"/>
       <use xlink:href="#DejaVuSans-2e" x="63.623047"/>
       <use xlink:href="#DejaVuSans-32" x="95.410156"/>
      </g>
     </g>
    </g>
    <g id="ytick_6">
     <g id="line2d_27">
      <path d="M 43.78125 78.629203 
L 601.78125 78.629203 
" clip-path="url(#p05b1307c48)" style="fill: none; stroke: #b0b0b0; stroke-width: 0.8; stroke-linecap: square"/>
     </g>
     <g id="line2d_28">
      <g>
       <use xlink:href="#m9a4c04852d" x="43.78125" y="78.629203" style="stroke: #000000; stroke-width: 0.8"/>
      </g>
     </g>
     <g id="text_15">
      <!-- 1.4 -->
      <g transform="translate(20.878125 82.428421) scale(0.1 -0.1)">
       <use xlink:href="#DejaVuSans-31"/>
       <use xlink:href="#DejaVuSans-2e" x="63.623047"/>
       <use xlink:href="#DejaVuSans-34" x="95.410156"/>
      </g>
     </g>
    </g>
    <g id="text_16">
     <!-- Loss -->
     <g transform="translate(14.798438 310.485313) rotate(-90) scale(0.1 -0.1)">
      <defs>
       <path id="DejaVuSans-4c" d="M 628 4666 
L 1259 4666 
L 1259 531 
L 3531 531 
L 3531 0 
L 628 0 
L 628 4666 
z
" transform="scale(0.015625)"/>
      </defs>
      <use xlink:href="#DejaVuSans-4c"/>
      <use xlink:href="#DejaVuSans-6f" x="53.962891"/>
      <use xlink:href="#DejaVuSans-73" x="115.144531"/>
      <use xlink:href="#DejaVuSans-73" x="167.244141"/>
     </g>
    </g>
   </g>
   <g id="line2d_29">
    <path d="M 69.144886 47.518125 
L 71.843146 162.804308 
L 74.541405 195.796934 
L 77.239664 216.701258 
L 79.937923 229.032816 
L 82.636182 239.663829 
L 85.334441 247.858947 
L 88.032701 257.47653 
L 90.73096 263.671442 
L 93.429219 263.700968 
L 98.825737 277.782489 
L 101.523997 283.337618 
L 104.222256 288.210281 
L 106.920515 293.489104 
L 109.618774 299.039472 
L 112.317033 303.18287 
L 115.015293 307.759393 
L 120.411811 316.1428 
L 123.11007 320.664664 
L 125.808329 326.780378 
L 128.506588 330.859116 
L 131.204848 334.526735 
L 133.903107 339.287912 
L 136.601366 342.662378 
L 139.299625 346.341689 
L 141.997884 349.759036 
L 144.696144 352.897513 
L 147.394403 356.405384 
L 150.092662 358.475464 
L 152.790921 361.564326 
L 155.48918 365.651207 
L 158.18744 366.624235 
L 160.885699 368.837299 
L 163.583958 372.526133 
L 168.980476 378.134456 
L 171.678735 379.75152 
L 174.376995 380.890241 
L 177.075254 384.932776 
L 179.773513 386.658903 
L 182.471772 388.2494 
L 185.170031 389.592835 
L 187.868291 390.556622 
L 190.56655 391.290112 
L 193.264809 393.507966 
L 195.963068 395.312333 
L 201.359587 397.597721 
L 204.057846 399.520533 
L 206.756105 399.080929 
L 209.454364 402.590631 
L 212.152623 404.510598 
L 214.850882 405.877784 
L 217.549142 406.587946 
L 222.94566 407.497779 
L 225.643919 411.753847 
L 228.342178 410.440389 
L 231.040438 413.093141 
L 233.738697 413.329214 
L 236.436956 414.683722 
L 239.135215 416.950148 
L 241.833474 417.028529 
L 244.531734 417.931797 
L 247.229993 420.238344 
L 249.928252 418.631985 
L 252.626511 421.610094 
L 255.32477 422.008282 
L 258.023029 422.040908 
L 260.721289 424.131498 
L 263.419548 425.073788 
L 266.117807 425.117205 
L 268.816066 425.584616 
L 271.514325 426.664481 
L 276.910844 429.540825 
L 279.609103 430.613703 
L 282.307362 431.45789 
L 285.005621 431.99061 
L 287.703881 432.828091 
L 290.40214 432.327039 
L 293.100399 432.729903 
L 295.798658 433.911365 
L 298.496917 435.590075 
L 301.195176 435.912981 
L 303.893436 437.269349 
L 306.591695 436.499063 
L 309.289954 436.409553 
L 314.686472 439.869246 
L 317.384732 439.861442 
L 320.082991 441.884442 
L 322.78125 441.923773 
L 325.479509 442.80005 
L 328.177768 442.769509 
L 330.876028 442.093326 
L 333.574287 445.33571 
L 336.272546 445.7621 
L 338.970805 447.516599 
L 341.669064 446.278873 
L 344.367324 445.465228 
L 347.065583 449.696107 
L 349.763842 446.535541 
L 352.462101 448.184809 
L 355.16036 466.004836 
L 357.858619 469.701982 
L 360.556879 471.542328 
L 363.255138 473.178833 
L 365.953397 473.905673 
L 368.651656 474.091427 
L 371.349915 472.152724 
L 374.048175 474.743577 
L 376.746434 474.781979 
L 382.142952 474.299438 
L 384.841211 477.121687 
L 387.539471 474.940431 
L 390.23773 476.669883 
L 392.935989 475.763487 
L 395.634248 476.04709 
L 398.332507 476.960445 
L 401.030766 476.0423 
L 403.729026 478.378543 
L 411.823803 479.13691 
L 417.220322 478.242573 
L 419.918581 483.329783 
L 422.61684 483.703825 
L 425.315099 483.428027 
L 428.013358 483.93153 
L 430.711618 484.286442 
L 433.409877 483.13338 
L 436.108136 483.209507 
L 438.806395 484.518007 
L 441.504654 482.945317 
L 444.202913 484.56024 
L 446.901173 483.989062 
L 449.599432 484.693166 
L 452.297691 483.545035 
L 454.99595 484.209273 
L 457.694209 485.122346 
L 460.392469 484.303037 
L 463.090728 485.347853 
L 465.788987 484.64327 
L 468.487246 484.7536 
L 471.185505 485.669378 
L 476.582024 484.222796 
L 479.280283 486.610569 
L 481.978542 486.39157 
L 484.676801 486.340406 
L 487.37506 484.911489 
L 490.07332 484.919124 
L 492.771579 486.999459 
L 495.469838 486.240105 
L 498.168097 486.53895 
L 500.866356 487.000586 
L 503.564616 485.828225 
L 506.262875 486.341843 
L 508.961134 486.058437 
L 511.659393 487.13833 
L 517.055912 486.725098 
L 519.754171 484.91194 
L 525.150689 486.911386 
L 527.848948 485.375379 
L 530.547207 485.876769 
L 533.245467 484.715762 
L 535.943726 485.43756 
L 541.340244 486.617697 
L 544.038503 485.684226 
L 546.736763 485.804136 
L 549.435022 487.133203 
L 552.133281 486.852389 
L 554.83154 486.136762 
L 557.529799 485.023595 
L 560.228059 485.403723 
L 562.926318 485.065687 
L 565.624577 486.894397 
L 571.021095 486.758146 
L 573.719354 488.128263 
L 576.417614 486.412194 
L 576.417614 486.412194 
" clip-path="url(#p05b1307c48)" style="fill: none; stroke: #1f77b4; stroke-width: 1.5; stroke-linecap: square"/>
   </g>
   <g id="line2d_30">
    <path d="M 69.144886 47.733433 
L 71.843146 177.094544 
L 74.541405 199.182359 
L 77.239664 215.380334 
L 79.937923 251.751003 
L 82.636182 240.801001 
L 85.334441 246.189169 
L 88.032701 271.561883 
L 90.73096 170.70461 
L 93.429219 280.354212 
L 96.127478 262.134702 
L 98.825737 299.145125 
L 101.523997 293.905492 
L 104.222256 325.821803 
L 106.920515 301.131781 
L 109.618774 293.563484 
L 112.317033 333.171157 
L 115.015293 319.929991 
L 117.713552 313.182103 
L 120.411811 351.95976 
L 123.11007 357.739241 
L 125.808329 329.240192 
L 128.506588 378.665288 
L 131.204848 351.31747 
L 133.903107 371.923738 
L 136.601366 322.931964 
L 139.299625 363.254531 
L 141.997884 372.19748 
L 144.696144 388.243286 
L 147.394403 388.563177 
L 150.092662 371.262656 
L 152.790921 403.405855 
L 155.48918 394.698161 
L 158.18744 409.938182 
L 160.885699 411.305791 
L 163.583958 416.140108 
L 166.282217 409.796014 
L 168.980476 397.949477 
L 171.678735 394.071198 
L 174.376995 400.473247 
L 177.075254 373.184962 
L 179.773513 406.086669 
L 182.471772 427.77207 
L 185.170031 381.569045 
L 187.868291 414.930275 
L 190.56655 428.990778 
L 193.264809 429.321826 
L 195.963068 439.214052 
L 198.661327 391.029331 
L 201.359587 435.864606 
L 204.057846 446.112673 
L 206.756105 447.65147 
L 209.454364 384.98997 
L 212.152623 444.642115 
L 214.850882 438.149063 
L 217.549142 449.699178 
L 220.247401 463.946083 
L 222.94566 409.314149 
L 225.643919 428.369281 
L 228.342178 443.473078 
L 231.040438 411.659407 
L 233.738697 439.995805 
L 236.436956 432.825555 
L 239.135215 444.42985 
L 241.833474 466.113955 
L 244.531734 460.702008 
L 247.229993 422.899576 
L 249.928252 458.189423 
L 252.626511 464.768012 
L 255.32477 440.020514 
L 258.023029 454.933571 
L 260.721289 406.362214 
L 263.419548 467.376981 
L 266.117807 463.565898 
L 268.816066 442.870289 
L 271.514325 477.030176 
L 274.212585 459.934821 
L 276.910844 473.906659 
L 279.609103 477.168991 
L 282.307362 455.938042 
L 285.005621 479.347513 
L 287.703881 484.884921 
L 290.40214 476.979096 
L 293.100399 437.04201 
L 295.798658 475.320446 
L 298.496917 460.110375 
L 301.195176 471.802658 
L 303.893436 425.321327 
L 306.591695 465.280953 
L 309.289954 462.34905 
L 311.988213 475.012163 
L 314.686472 498.86152 
L 317.384732 492.40394 
L 320.082991 494.814844 
L 322.78125 488.156296 
L 325.479509 502.420105 
L 328.177768 501.714282 
L 330.876028 491.668055 
L 333.574287 480.620232 
L 336.272546 472.54122 
L 338.970805 489.494125 
L 341.669064 501.03469 
L 344.367324 491.470807 
L 347.065583 464.600036 
L 349.763842 496.165323 
L 352.462101 471.062294 
L 355.16036 531.205743 
L 357.858619 527.199144 
L 360.556879 534.39561 
L 363.255138 536.724372 
L 365.953397 531.945699 
L 371.349915 538.93876 
L 374.048175 540.075114 
L 376.746434 536.454476 
L 379.444693 539.513826 
L 382.142952 538.267718 
L 384.841211 538.148344 
L 387.539471 536.290783 
L 390.23773 542.051289 
L 392.935989 540.632769 
L 395.634248 538.994052 
L 398.332507 538.092601 
L 403.729026 540.978805 
L 406.427285 540.415488 
L 409.125544 534.378255 
L 411.823803 539.74408 
L 414.522062 541.534544 
L 417.220322 539.749729 
L 419.918581 545.797134 
L 425.315099 548.678633 
L 428.013358 547.658935 
L 430.711618 547.801525 
L 433.409877 547.793044 
L 436.108136 548.917876 
L 438.806395 549.422816 
L 441.504654 547.875201 
L 444.202913 549.557263 
L 446.901173 548.126163 
L 449.599432 548.596266 
L 452.297691 548.262738 
L 454.99595 547.615025 
L 460.392469 548.132883 
L 463.090728 547.435569 
L 465.788987 549.448623 
L 468.487246 547.448811 
L 471.185505 549.490265 
L 473.883765 549.022881 
L 476.582024 548.794782 
L 479.280283 549.754441 
L 481.978542 548.869331 
L 484.676801 550.663471 
L 487.37506 551.099849 
L 490.07332 550.710861 
L 492.771579 550.746543 
L 495.469838 548.741504 
L 498.168097 548.784738 
L 500.866356 550.415157 
L 503.564616 549.185771 
L 506.262875 550.532714 
L 508.961134 550.06071 
L 511.659393 550.674868 
L 514.357652 550.510358 
L 517.055912 550.636114 
L 519.754171 549.794646 
L 522.45243 551.518125 
L 525.150689 550.781508 
L 527.848948 550.578343 
L 530.547207 550.833827 
L 533.245467 550.05578 
L 535.943726 551.1895 
L 538.641985 550.019815 
L 541.340244 549.686851 
L 544.038503 550.551859 
L 546.736763 550.01218 
L 549.435022 551.2858 
L 552.133281 551.082621 
L 554.83154 550.239659 
L 557.529799 549.942279 
L 560.228059 550.54952 
L 565.624577 550.098788 
L 568.322836 550.116594 
L 571.021095 550.962344 
L 573.719354 550.440852 
L 576.417614 549.094176 
L 576.417614 549.094176 
" clip-path="url(#p05b1307c48)" style="fill: none; stroke: #ff7f0e; stroke-width: 1.5; stroke-linecap: square"/>
   </g>
   <g id="patch_3">
    <path d="M 43.78125 576.718125 
L 43.78125 22.318125 
" style="fill: none; stroke: #000000; stroke-width: 0.8; stroke-linejoin: miter; stroke-linecap: square"/>
   </g>
   <g id="patch_4">
    <path d="M 601.78125 576.718125 
L 601.78125 22.318125 
" style="fill: none; stroke: #000000; stroke-width: 0.8; stroke-linejoin: miter; stroke-linecap: square"/>
   </g>
   <g id="patch_5">
    <path d="M 43.78125 576.718125 
L 601.78125 576.718125 
" style="fill: none; stroke: #000000; stroke-width: 0.8; stroke-linejoin: miter; stroke-linecap: square"/>
   </g>
   <g id="patch_6">
    <path d="M 43.78125 22.318125 
L 601.78125 22.318125 
" style="fill: none; stroke: #000000; stroke-width: 0.8; stroke-linejoin: miter; stroke-linecap: square"/>
   </g>
   <g id="text_17">
    <!-- Train and Val Loss -->
    <g transform="translate(269.235937 16.318125) scale(0.12 -0.12)">
     <defs>
      <path id="DejaVuSans-54" d="M -19 4666 
L 3928 4666 
L 3928 4134 
L 2272 4134 
L 2272 0 
L 1638 0 
L 1638 4134 
L -19 4134 
L -19 4666 
z
" transform="scale(0.015625)"/>
      <path id="DejaVuSans-72" d="M 2631 2963 
Q 2534 3019 2420 3045 
Q 2306 3072 2169 3072 
Q 1681 3072 1420 2755 
Q 1159 2438 1159 1844 
L 1159 0 
L 581 0 
L 581 3500 
L 1159 3500 
L 1159 2956 
Q 1341 3275 1631 3429 
Q 1922 3584 2338 3584 
Q 2397 3584 2469 3576 
Q 2541 3569 2628 3553 
L 2631 2963 
z
" transform="scale(0.015625)"/>
      <path id="DejaVuSans-61" d="M 2194 1759 
Q 1497 1759 1228 1600 
Q 959 1441 959 1056 
Q 959 750 1161 570 
Q 1363 391 1709 391 
Q 2188 391 2477 730 
Q 2766 1069 2766 1631 
L 2766 1759 
L 2194 1759 
z
M 3341 1997 
L 3341 0 
L 2766 0 
L 2766 531 
Q 2569 213 2275 61 
Q 1981 -91 1556 -91 
Q 1019 -91 701 211 
Q 384 513 384 1019 
Q 384 1609 779 1909 
Q 1175 2209 1959 2209 
L 2766 2209 
L 2766 2266 
Q 2766 2663 2505 2880 
Q 2244 3097 1772 3097 
Q 1472 3097 1187 3025 
Q 903 2953 641 2809 
L 641 3341 
Q 956 3463 1253 3523 
Q 1550 3584 1831 3584 
Q 2591 3584 2966 3190 
Q 3341 2797 3341 1997 
z
" transform="scale(0.015625)"/>
      <path id="DejaVuSans-69" d="M 603 3500 
L 1178 3500 
L 1178 0 
L 603 0 
L 603 3500 
z
M 603 4863 
L 1178 4863 
L 1178 4134 
L 603 4134 
L 603 4863 
z
" transform="scale(0.015625)"/>
      <path id="DejaVuSans-6e" d="M 3513 2113 
L 3513 0 
L 2938 0 
L 2938 2094 
Q 2938 2591 2744 2837 
Q 2550 3084 2163 3084 
Q 1697 3084 1428 2787 
Q 1159 2491 1159 1978 
L 1159 0 
L 581 0 
L 581 3500 
L 1159 3500 
L 1159 2956 
Q 1366 3272 1645 3428 
Q 1925 3584 2291 3584 
Q 2894 3584 3203 3211 
Q 3513 2838 3513 2113 
z
" transform="scale(0.015625)"/>
      <path id="DejaVuSans-20" transform="scale(0.015625)"/>
      <path id="DejaVuSans-64" d="M 2906 2969 
L 2906 4863 
L 3481 4863 
L 3481 0 
L 2906 0 
L 2906 525 
Q 2725 213 2448 61 
Q 2172 -91 1784 -91 
Q 1150 -91 751 415 
Q 353 922 353 1747 
Q 353 2572 751 3078 
Q 1150 3584 1784 3584 
Q 2172 3584 2448 3432 
Q 2725 3281 2906 2969 
z
M 947 1747 
Q 947 1113 1208 752 
Q 1469 391 1925 391 
Q 2381 391 2643 752 
Q 2906 1113 2906 1747 
Q 2906 2381 2643 2742 
Q 2381 3103 1925 3103 
Q 1469 3103 1208 2742 
Q 947 2381 947 1747 
z
" transform="scale(0.015625)"/>
      <path id="DejaVuSans-56" d="M 1831 0 
L 50 4666 
L 709 4666 
L 2188 738 
L 3669 4666 
L 4325 4666 
L 2547 0 
L 1831 0 
z
" transform="scale(0.015625)"/>
      <path id="DejaVuSans-6c" d="M 603 4863 
L 1178 4863 
L 1178 0 
L 603 0 
L 603 4863 
z
" transform="scale(0.015625)"/>
     </defs>
     <use xlink:href="#DejaVuSans-54"/>
     <use xlink:href="#DejaVuSans-72" x="46.333984"/>
     <use xlink:href="#DejaVuSans-61" x="87.447266"/>
     <use xlink:href="#DejaVuSans-69" x="148.726562"/>
     <use xlink:href="#DejaVuSans-6e" x="176.509766"/>
     <use xlink:href="#DejaVuSans-20" x="239.888672"/>
     <use xlink:href="#DejaVuSans-61" x="271.675781"/>
     <use xlink:href="#DejaVuSans-6e" x="332.955078"/>
     <use xlink:href="#DejaVuSans-64" x="396.333984"/>
     <use xlink:href="#DejaVuSans-20" x="459.810547"/>
     <use xlink:href="#DejaVuSans-56" x="491.597656"/>
     <use xlink:href="#DejaVuSans-61" x="552.255859"/>
     <use xlink:href="#DejaVuSans-6c" x="613.535156"/>
     <use xlink:href="#DejaVuSans-20" x="641.318359"/>
     <use xlink:href="#DejaVuSans-4c" x="673.105469"/>
     <use xlink:href="#DejaVuSans-6f" x="727.068359"/>
     <use xlink:href="#DejaVuSans-73" x="788.25"/>
     <use xlink:href="#DejaVuSans-73" x="840.349609"/>
    </g>
   </g>
   <g id="legend_1">
    <g id="patch_7">
     <path d="M 515.190625 60.230625 
L 594.78125 60.230625 
Q 596.78125 60.230625 596.78125 58.230625 
L 596.78125 29.318125 
Q 596.78125 27.318125 594.78125 27.318125 
L 515.190625 27.318125 
Q 513.190625 27.318125 513.190625 29.318125 
L 513.190625 58.230625 
Q 513.190625 60.230625 515.190625 60.230625 
z
" style="fill: #ffffff; opacity: 0.8; stroke: #cccccc; stroke-linejoin: miter"/>
    </g>
    <g id="line2d_31">
     <path d="M 517.190625 35.416563 
L 527.190625 35.416563 
L 537.190625 35.416563 
" style="fill: none; stroke: #1f77b4; stroke-width: 1.5; stroke-linecap: square"/>
    </g>
    <g id="text_18">
     <!-- train_loss -->
     <g transform="translate(545.190625 38.916563) scale(0.1 -0.1)">
      <defs>
       <path id="DejaVuSans-74" d="M 1172 4494 
L 1172 3500 
L 2356 3500 
L 2356 3053 
L 1172 3053 
L 1172 1153 
Q 1172 725 1289 603 
Q 1406 481 1766 481 
L 2356 481 
L 2356 0 
L 1766 0 
Q 1100 0 847 248 
Q 594 497 594 1153 
L 594 3053 
L 172 3053 
L 172 3500 
L 594 3500 
L 594 4494 
L 1172 4494 
z
" transform="scale(0.015625)"/>
       <path id="DejaVuSans-5f" d="M 3263 -1063 
L 3263 -1509 
L -63 -1509 
L -63 -1063 
L 3263 -1063 
z
" transform="scale(0.015625)"/>
      </defs>
      <use xlink:href="#DejaVuSans-74"/>
      <use xlink:href="#DejaVuSans-72" x="39.208984"/>
      <use xlink:href="#DejaVuSans-61" x="80.322266"/>
      <use xlink:href="#DejaVuSans-69" x="141.601562"/>
      <use xlink:href="#DejaVuSans-6e" x="169.384766"/>
      <use xlink:href="#DejaVuSans-5f" x="232.763672"/>
      <use xlink:href="#DejaVuSans-6c" x="282.763672"/>
      <use xlink:href="#DejaVuSans-6f" x="310.546875"/>
      <use xlink:href="#DejaVuSans-73" x="371.728516"/>
      <use xlink:href="#DejaVuSans-73" x="423.828125"/>
     </g>
    </g>
    <g id="line2d_32">
     <path d="M 517.190625 50.372813 
L 527.190625 50.372813 
L 537.190625 50.372813 
" style="fill: none; stroke: #ff7f0e; stroke-width: 1.5; stroke-linecap: square"/>
    </g>
    <g id="text_19">
     <!-- val_loss -->
     <g transform="translate(545.190625 53.872813) scale(0.1 -0.1)">
      <defs>
       <path id="DejaVuSans-76" d="M 191 3500 
L 800 3500 
L 1894 563 
L 2988 3500 
L 3597 3500 
L 2284 0 
L 1503 0 
L 191 3500 
z
" transform="scale(0.015625)"/>
      </defs>
      <use xlink:href="#DejaVuSans-76"/>
      <use xlink:href="#DejaVuSans-61" x="59.179688"/>
      <use xlink:href="#DejaVuSans-6c" x="120.458984"/>
      <use xlink:href="#DejaVuSans-5f" x="148.242188"/>
      <use xlink:href="#DejaVuSans-6c" x="198.242188"/>
      <use xlink:href="#DejaVuSans-6f" x="226.025391"/>
      <use xlink:href="#DejaVuSans-73" x="287.207031"/>
      <use xlink:href="#DejaVuSans-73" x="339.306641"/>
     </g>
    </g>
   </g>
  </g>
 </g>
 <defs>
  <clipPath id="p05b1307c48">
   <rect x="43.78125" y="22.318125" width="558" height="554.4"/>
  </clipPath>
 </defs>
</svg>
