<?xml version="1.0" encoding="utf-8" standalone="no"?>
<!DOCTYPE svg PUBLIC "-//W3C//DTD SVG 1.1//EN"
  "http://www.w3.org/Graphics/SVG/1.1/DTD/svg11.dtd">
<svg xmlns:xlink="http://www.w3.org/1999/xlink" width="615.34375pt" height="614.274375pt" viewBox="0 0 615.34375 614.274375" xmlns="http://www.w3.org/2000/svg" version="1.1">
 <metadata>
  <rdf:RDF xmlns:dc="http://purl.org/dc/elements/1.1/" xmlns:cc="http://creativecommons.org/ns#" xmlns:rdf="http://www.w3.org/1999/02/22-rdf-syntax-ns#">
   <cc:Work>
    <dc:type rdf:resource="http://purl.org/dc/dcmitype/StillImage"/>
    <dc:date>2024-08-07T12:02:07.441607</dc:date>
    <dc:format>image/svg+xml</dc:format>
    <dc:creator>
     <cc:Agent>
      <dc:title>Matplotlib v3.8.0, https://matplotlib.org/</dc:title>
     </cc:Agent>
    </dc:creator>
   </cc:Work>
  </rdf:RDF>
 </metadata>
 <defs>
  <style type="text/css">*{stroke-linejoin: round; stroke-linecap: butt}</style>
 </defs>
 <g id="figure_1">
  <g id="patch_1">
   <path d="M 0 614.274375 
L 615.34375 614.274375 
L 615.34375 0 
L 0 0 
z
" style="fill: #ffffff"/>
  </g>
  <g id="axes_1">
   <g id="patch_2">
    <path d="M 50.14375 576.718125 
L 608.14375 576.718125 
L 608.14375 22.318125 
L 50.14375 22.318125 
z
" style="fill: #ffffff"/>
   </g>
   <g id="matplotlib.axis_1">
    <g id="xtick_1">
     <g id="line2d_1">
      <path d="M 75.507386 576.718125 
L 75.507386 22.318125 
" clip-path="url(#p19d4a84c67)" style="fill: none; stroke: #b0b0b0; stroke-width: 0.8; stroke-linecap: square"/>
     </g>
     <g id="line2d_2">
      <defs>
       <path id="m6464b13494" d="M 0 0 
L 0 3.5 
" style="stroke: #000000; stroke-width: 0.8"/>
      </defs>
      <g>
       <use xlink:href="#m6464b13494" x="75.507386" y="576.718125" style="stroke: #000000; stroke-width: 0.8"/>
      </g>
     </g>
     <g id="text_1">
      <!-- 0 -->
      <g transform="translate(72.326136 591.316563) scale(0.1 -0.1)">
       <defs>
        <path id="DejaVuSans-30" d="M 2034 4250 
Q 1547 4250 1301 3770 
Q 1056 3291 1056 2328 
Q 1056 1369 1301 889 
Q 1547 409 2034 409 
Q 2525 409 2770 889 
Q 3016 1369 3016 2328 
Q 3016 3291 2770 3770 
Q 2525 4250 2034 4250 
z
M 2034 4750 
Q 2819 4750 3233 4129 
Q 3647 3509 3647 2328 
Q 3647 1150 3233 529 
Q 2819 -91 2034 -91 
Q 1250 -91 836 529 
Q 422 1150 422 2328 
Q 422 3509 836 4129 
Q 1250 4750 2034 4750 
z
" transform="scale(0.015625)"/>
       </defs>
       <use xlink:href="#DejaVuSans-30"/>
      </g>
     </g>
    </g>
    <g id="xtick_2">
     <g id="line2d_3">
      <path d="M 139.235116 576.718125 
L 139.235116 22.318125 
" clip-path="url(#p19d4a84c67)" style="fill: none; stroke: #b0b0b0; stroke-width: 0.8; stroke-linecap: square"/>
     </g>
     <g id="line2d_4">
      <g>
       <use xlink:href="#m6464b13494" x="139.235116" y="576.718125" style="stroke: #000000; stroke-width: 0.8"/>
      </g>
     </g>
     <g id="text_2">
      <!-- 25 -->
      <g transform="translate(132.872616 591.316563) scale(0.1 -0.1)">
       <defs>
        <path id="DejaVuSans-32" d="M 1228 531 
L 3431 531 
L 3431 0 
L 469 0 
L 469 531 
Q 828 903 1448 1529 
Q 2069 2156 2228 2338 
Q 2531 2678 2651 2914 
Q 2772 3150 2772 3378 
Q 2772 3750 2511 3984 
Q 2250 4219 1831 4219 
Q 1534 4219 1204 4116 
Q 875 4013 500 3803 
L 500 4441 
Q 881 4594 1212 4672 
Q 1544 4750 1819 4750 
Q 2544 4750 2975 4387 
Q 3406 4025 3406 3419 
Q 3406 3131 3298 2873 
Q 3191 2616 2906 2266 
Q 2828 2175 2409 1742 
Q 1991 1309 1228 531 
z
" transform="scale(0.015625)"/>
        <path id="DejaVuSans-35" d="M 691 4666 
L 3169 4666 
L 3169 4134 
L 1269 4134 
L 1269 2991 
Q 1406 3038 1543 3061 
Q 1681 3084 1819 3084 
Q 2600 3084 3056 2656 
Q 3513 2228 3513 1497 
Q 3513 744 3044 326 
Q 2575 -91 1722 -91 
Q 1428 -91 1123 -41 
Q 819 9 494 109 
L 494 744 
Q 775 591 1075 516 
Q 1375 441 1709 441 
Q 2250 441 2565 725 
Q 2881 1009 2881 1497 
Q 2881 1984 2565 2268 
Q 2250 2553 1709 2553 
Q 1456 2553 1204 2497 
Q 953 2441 691 2322 
L 691 4666 
z
" transform="scale(0.015625)"/>
       </defs>
       <use xlink:href="#DejaVuSans-32"/>
       <use xlink:href="#DejaVuSans-35" x="63.623047"/>
      </g>
     </g>
    </g>
    <g id="xtick_3">
     <g id="line2d_5">
      <path d="M 202.962845 576.718125 
L 202.962845 22.318125 
" clip-path="url(#p19d4a84c67)" style="fill: none; stroke: #b0b0b0; stroke-width: 0.8; stroke-linecap: square"/>
     </g>
     <g id="line2d_6">
      <g>
       <use xlink:href="#m6464b13494" x="202.962845" y="576.718125" style="stroke: #000000; stroke-width: 0.8"/>
      </g>
     </g>
     <g id="text_3">
      <!-- 50 -->
      <g transform="translate(196.600345 591.316563) scale(0.1 -0.1)">
       <use xlink:href="#DejaVuSans-35"/>
       <use xlink:href="#DejaVuSans-30" x="63.623047"/>
      </g>
     </g>
    </g>
    <g id="xtick_4">
     <g id="line2d_7">
      <path d="M 266.690575 576.718125 
L 266.690575 22.318125 
" clip-path="url(#p19d4a84c67)" style="fill: none; stroke: #b0b0b0; stroke-width: 0.8; stroke-linecap: square"/>
     </g>
     <g id="line2d_8">
      <g>
       <use xlink:href="#m6464b13494" x="266.690575" y="576.718125" style="stroke: #000000; stroke-width: 0.8"/>
      </g>
     </g>
     <g id="text_4">
      <!-- 75 -->
      <g transform="translate(260.328075 591.316563) scale(0.1 -0.1)">
       <defs>
        <path id="DejaVuSans-37" d="M 525 4666 
L 3525 4666 
L 3525 4397 
L 1831 0 
L 1172 0 
L 2766 4134 
L 525 4134 
L 525 4666 
z
" transform="scale(0.015625)"/>
       </defs>
       <use xlink:href="#DejaVuSans-37"/>
       <use xlink:href="#DejaVuSans-35" x="63.623047"/>
      </g>
     </g>
    </g>
    <g id="xtick_5">
     <g id="line2d_9">
      <path d="M 330.418305 576.718125 
L 330.418305 22.318125 
" clip-path="url(#p19d4a84c67)" style="fill: none; stroke: #b0b0b0; stroke-width: 0.8; stroke-linecap: square"/>
     </g>
     <g id="line2d_10">
      <g>
       <use xlink:href="#m6464b13494" x="330.418305" y="576.718125" style="stroke: #000000; stroke-width: 0.8"/>
      </g>
     </g>
     <g id="text_5">
      <!-- 100 -->
      <g transform="translate(320.874555 591.316563) scale(0.1 -0.1)">
       <defs>
        <path id="DejaVuSans-31" d="M 794 531 
L 1825 531 
L 1825 4091 
L 703 3866 
L 703 4441 
L 1819 4666 
L 2450 4666 
L 2450 531 
L 3481 531 
L 3481 0 
L 794 0 
L 794 531 
z
" transform="scale(0.015625)"/>
       </defs>
       <use xlink:href="#DejaVuSans-31"/>
       <use xlink:href="#DejaVuSans-30" x="63.623047"/>
       <use xlink:href="#DejaVuSans-30" x="127.246094"/>
      </g>
     </g>
    </g>
    <g id="xtick_6">
     <g id="line2d_11">
      <path d="M 394.146034 576.718125 
L 394.146034 22.318125 
" clip-path="url(#p19d4a84c67)" style="fill: none; stroke: #b0b0b0; stroke-width: 0.8; stroke-linecap: square"/>
     </g>
     <g id="line2d_12">
      <g>
       <use xlink:href="#m6464b13494" x="394.146034" y="576.718125" style="stroke: #000000; stroke-width: 0.8"/>
      </g>
     </g>
     <g id="text_6">
      <!-- 125 -->
      <g transform="translate(384.602284 591.316563) scale(0.1 -0.1)">
       <use xlink:href="#DejaVuSans-31"/>
       <use xlink:href="#DejaVuSans-32" x="63.623047"/>
       <use xlink:href="#DejaVuSans-35" x="127.246094"/>
      </g>
     </g>
    </g>
    <g id="xtick_7">
     <g id="line2d_13">
      <path d="M 457.873764 576.718125 
L 457.873764 22.318125 
" clip-path="url(#p19d4a84c67)" style="fill: none; stroke: #b0b0b0; stroke-width: 0.8; stroke-linecap: square"/>
     </g>
     <g id="line2d_14">
      <g>
       <use xlink:href="#m6464b13494" x="457.873764" y="576.718125" style="stroke: #000000; stroke-width: 0.8"/>
      </g>
     </g>
     <g id="text_7">
      <!-- 150 -->
      <g transform="translate(448.330014 591.316563) scale(0.1 -0.1)">
       <use xlink:href="#DejaVuSans-31"/>
       <use xlink:href="#DejaVuSans-35" x="63.623047"/>
       <use xlink:href="#DejaVuSans-30" x="127.246094"/>
      </g>
     </g>
    </g>
    <g id="xtick_8">
     <g id="line2d_15">
      <path d="M 521.601493 576.718125 
L 521.601493 22.318125 
" clip-path="url(#p19d4a84c67)" style="fill: none; stroke: #b0b0b0; stroke-width: 0.8; stroke-linecap: square"/>
     </g>
     <g id="line2d_16">
      <g>
       <use xlink:href="#m6464b13494" x="521.601493" y="576.718125" style="stroke: #000000; stroke-width: 0.8"/>
      </g>
     </g>
     <g id="text_8">
      <!-- 175 -->
      <g transform="translate(512.057743 591.316563) scale(0.1 -0.1)">
       <use xlink:href="#DejaVuSans-31"/>
       <use xlink:href="#DejaVuSans-37" x="63.623047"/>
       <use xlink:href="#DejaVuSans-35" x="127.246094"/>
      </g>
     </g>
    </g>
    <g id="xtick_9">
     <g id="line2d_17">
      <path d="M 585.329223 576.718125 
L 585.329223 22.318125 
" clip-path="url(#p19d4a84c67)" style="fill: none; stroke: #b0b0b0; stroke-width: 0.8; stroke-linecap: square"/>
     </g>
     <g id="line2d_18">
      <g>
       <use xlink:href="#m6464b13494" x="585.329223" y="576.718125" style="stroke: #000000; stroke-width: 0.8"/>
      </g>
     </g>
     <g id="text_9">
      <!-- 200 -->
      <g transform="translate(575.785473 591.316563) scale(0.1 -0.1)">
       <use xlink:href="#DejaVuSans-32"/>
       <use xlink:href="#DejaVuSans-30" x="63.623047"/>
       <use xlink:href="#DejaVuSans-30" x="127.246094"/>
      </g>
     </g>
    </g>
    <g id="text_10">
     <!-- Epochs -->
     <g transform="translate(311.228125 604.994688) scale(0.1 -0.1)">
      <defs>
       <path id="DejaVuSans-45" d="M 628 4666 
L 3578 4666 
L 3578 4134 
L 1259 4134 
L 1259 2753 
L 3481 2753 
L 3481 2222 
L 1259 2222 
L 1259 531 
L 3634 531 
L 3634 0 
L 628 0 
L 628 4666 
z
" transform="scale(0.015625)"/>
       <path id="DejaVuSans-70" d="M 1159 525 
L 1159 -1331 
L 581 -1331 
L 581 3500 
L 1159 3500 
L 1159 2969 
Q 1341 3281 1617 3432 
Q 1894 3584 2278 3584 
Q 2916 3584 3314 3078 
Q 3713 2572 3713 1747 
Q 3713 922 3314 415 
Q 2916 -91 2278 -91 
Q 1894 -91 1617 61 
Q 1341 213 1159 525 
z
M 3116 1747 
Q 3116 2381 2855 2742 
Q 2594 3103 2138 3103 
Q 1681 3103 1420 2742 
Q 1159 2381 1159 1747 
Q 1159 1113 1420 752 
Q 1681 391 2138 391 
Q 2594 391 2855 752 
Q 3116 1113 3116 1747 
z
" transform="scale(0.015625)"/>
       <path id="DejaVuSans-6f" d="M 1959 3097 
Q 1497 3097 1228 2736 
Q 959 2375 959 1747 
Q 959 1119 1226 758 
Q 1494 397 1959 397 
Q 2419 397 2687 759 
Q 2956 1122 2956 1747 
Q 2956 2369 2687 2733 
Q 2419 3097 1959 3097 
z
M 1959 3584 
Q 2709 3584 3137 3096 
Q 3566 2609 3566 1747 
Q 3566 888 3137 398 
Q 2709 -91 1959 -91 
Q 1206 -91 779 398 
Q 353 888 353 1747 
Q 353 2609 779 3096 
Q 1206 3584 1959 3584 
z
" transform="scale(0.015625)"/>
       <path id="DejaVuSans-63" d="M 3122 3366 
L 3122 2828 
Q 2878 2963 2633 3030 
Q 2388 3097 2138 3097 
Q 1578 3097 1268 2742 
Q 959 2388 959 1747 
Q 959 1106 1268 751 
Q 1578 397 2138 397 
Q 2388 397 2633 464 
Q 2878 531 3122 666 
L 3122 134 
Q 2881 22 2623 -34 
Q 2366 -91 2075 -91 
Q 1284 -91 818 406 
Q 353 903 353 1747 
Q 353 2603 823 3093 
Q 1294 3584 2113 3584 
Q 2378 3584 2631 3529 
Q 2884 3475 3122 3366 
z
" transform="scale(0.015625)"/>
       <path id="DejaVuSans-68" d="M 3513 2113 
L 3513 0 
L 2938 0 
L 2938 2094 
Q 2938 2591 2744 2837 
Q 2550 3084 2163 3084 
Q 1697 3084 1428 2787 
Q 1159 2491 1159 1978 
L 1159 0 
L 581 0 
L 581 4863 
L 1159 4863 
L 1159 2956 
Q 1366 3272 1645 3428 
Q 1925 3584 2291 3584 
Q 2894 3584 3203 3211 
Q 3513 2838 3513 2113 
z
" transform="scale(0.015625)"/>
       <path id="DejaVuSans-73" d="M 2834 3397 
L 2834 2853 
Q 2591 2978 2328 3040 
Q 2066 3103 1784 3103 
Q 1356 3103 1142 2972 
Q 928 2841 928 2578 
Q 928 2378 1081 2264 
Q 1234 2150 1697 2047 
L 1894 2003 
Q 2506 1872 2764 1633 
Q 3022 1394 3022 966 
Q 3022 478 2636 193 
Q 2250 -91 1575 -91 
Q 1294 -91 989 -36 
Q 684 19 347 128 
L 347 722 
Q 666 556 975 473 
Q 1284 391 1588 391 
Q 1994 391 2212 530 
Q 2431 669 2431 922 
Q 2431 1156 2273 1281 
Q 2116 1406 1581 1522 
L 1381 1569 
Q 847 1681 609 1914 
Q 372 2147 372 2553 
Q 372 3047 722 3315 
Q 1072 3584 1716 3584 
Q 2034 3584 2315 3537 
Q 2597 3491 2834 3397 
z
" transform="scale(0.015625)"/>
      </defs>
      <use xlink:href="#DejaVuSans-45"/>
      <use xlink:href="#DejaVuSans-70" x="63.183594"/>
      <use xlink:href="#DejaVuSans-6f" x="126.660156"/>
      <use xlink:href="#DejaVuSans-63" x="187.841797"/>
      <use xlink:href="#DejaVuSans-68" x="242.822266"/>
      <use xlink:href="#DejaVuSans-73" x="306.201172"/>
     </g>
    </g>
   </g>
   <g id="matplotlib.axis_2">
    <g id="ytick_1">
     <g id="line2d_19">
      <path d="M 50.14375 544.615602 
L 608.14375 544.615602 
" clip-path="url(#p19d4a84c67)" style="fill: none; stroke: #b0b0b0; stroke-width: 0.8; stroke-linecap: square"/>
     </g>
     <g id="line2d_20">
      <defs>
       <path id="m78ac6297e9" d="M 0 0 
L -3.5 0 
" style="stroke: #000000; stroke-width: 0.8"/>
      </defs>
      <g>
       <use xlink:href="#m78ac6297e9" x="50.14375" y="544.615602" style="stroke: #000000; stroke-width: 0.8"/>
      </g>
     </g>
     <g id="text_11">
      <!-- 0.50 -->
      <g transform="translate(20.878125 548.414821) scale(0.1 -0.1)">
       <defs>
        <path id="DejaVuSans-2e" d="M 684 794 
L 1344 794 
L 1344 0 
L 684 0 
L 684 794 
z
" transform="scale(0.015625)"/>
       </defs>
       <use xlink:href="#DejaVuSans-30"/>
       <use xlink:href="#DejaVuSans-2e" x="63.623047"/>
       <use xlink:href="#DejaVuSans-35" x="95.410156"/>
       <use xlink:href="#DejaVuSans-30" x="159.033203"/>
      </g>
     </g>
    </g>
    <g id="ytick_2">
     <g id="line2d_21">
      <path d="M 50.14375 471.450513 
L 608.14375 471.450513 
" clip-path="url(#p19d4a84c67)" style="fill: none; stroke: #b0b0b0; stroke-width: 0.8; stroke-linecap: square"/>
     </g>
     <g id="line2d_22">
      <g>
       <use xlink:href="#m78ac6297e9" x="50.14375" y="471.450513" style="stroke: #000000; stroke-width: 0.8"/>
      </g>
     </g>
     <g id="text_12">
      <!-- 0.75 -->
      <g transform="translate(20.878125 475.249732) scale(0.1 -0.1)">
       <use xlink:href="#DejaVuSans-30"/>
       <use xlink:href="#DejaVuSans-2e" x="63.623047"/>
       <use xlink:href="#DejaVuSans-37" x="95.410156"/>
       <use xlink:href="#DejaVuSans-35" x="159.033203"/>
      </g>
     </g>
    </g>
    <g id="ytick_3">
     <g id="line2d_23">
      <path d="M 50.14375 398.285424 
L 608.14375 398.285424 
" clip-path="url(#p19d4a84c67)" style="fill: none; stroke: #b0b0b0; stroke-width: 0.8; stroke-linecap: square"/>
     </g>
     <g id="line2d_24">
      <g>
       <use xlink:href="#m78ac6297e9" x="50.14375" y="398.285424" style="stroke: #000000; stroke-width: 0.8"/>
      </g>
     </g>
     <g id="text_13">
      <!-- 1.00 -->
      <g transform="translate(20.878125 402.084643) scale(0.1 -0.1)">
       <use xlink:href="#DejaVuSans-31"/>
       <use xlink:href="#DejaVuSans-2e" x="63.623047"/>
       <use xlink:href="#DejaVuSans-30" x="95.410156"/>
       <use xlink:href="#DejaVuSans-30" x="159.033203"/>
      </g>
     </g>
    </g>
    <g id="ytick_4">
     <g id="line2d_25">
      <path d="M 50.14375 325.120335 
L 608.14375 325.120335 
" clip-path="url(#p19d4a84c67)" style="fill: none; stroke: #b0b0b0; stroke-width: 0.8; stroke-linecap: square"/>
     </g>
     <g id="line2d_26">
      <g>
       <use xlink:href="#m78ac6297e9" x="50.14375" y="325.120335" style="stroke: #000000; stroke-width: 0.8"/>
      </g>
     </g>
     <g id="text_14">
      <!-- 1.25 -->
      <g transform="translate(20.878125 328.919553) scale(0.1 -0.1)">
       <use xlink:href="#DejaVuSans-31"/>
       <use xlink:href="#DejaVuSans-2e" x="63.623047"/>
       <use xlink:href="#DejaVuSans-32" x="95.410156"/>
       <use xlink:href="#DejaVuSans-35" x="159.033203"/>
      </g>
     </g>
    </g>
    <g id="ytick_5">
     <g id="line2d_27">
      <path d="M 50.14375 251.955245 
L 608.14375 251.955245 
" clip-path="url(#p19d4a84c67)" style="fill: none; stroke: #b0b0b0; stroke-width: 0.8; stroke-linecap: square"/>
     </g>
     <g id="line2d_28">
      <g>
       <use xlink:href="#m78ac6297e9" x="50.14375" y="251.955245" style="stroke: #000000; stroke-width: 0.8"/>
      </g>
     </g>
     <g id="text_15">
      <!-- 1.50 -->
      <g transform="translate(20.878125 255.754464) scale(0.1 -0.1)">
       <use xlink:href="#DejaVuSans-31"/>
       <use xlink:href="#DejaVuSans-2e" x="63.623047"/>
       <use xlink:href="#DejaVuSans-35" x="95.410156"/>
       <use xlink:href="#DejaVuSans-30" x="159.033203"/>
      </g>
     </g>
    </g>
    <g id="ytick_6">
     <g id="line2d_29">
      <path d="M 50.14375 178.790156 
L 608.14375 178.790156 
" clip-path="url(#p19d4a84c67)" style="fill: none; stroke: #b0b0b0; stroke-width: 0.8; stroke-linecap: square"/>
     </g>
     <g id="line2d_30">
      <g>
       <use xlink:href="#m78ac6297e9" x="50.14375" y="178.790156" style="stroke: #000000; stroke-width: 0.8"/>
      </g>
     </g>
     <g id="text_16">
      <!-- 1.75 -->
      <g transform="translate(20.878125 182.589375) scale(0.1 -0.1)">
       <use xlink:href="#DejaVuSans-31"/>
       <use xlink:href="#DejaVuSans-2e" x="63.623047"/>
       <use xlink:href="#DejaVuSans-37" x="95.410156"/>
       <use xlink:href="#DejaVuSans-35" x="159.033203"/>
      </g>
     </g>
    </g>
    <g id="ytick_7">
     <g id="line2d_31">
      <path d="M 50.14375 105.625067 
L 608.14375 105.625067 
" clip-path="url(#p19d4a84c67)" style="fill: none; stroke: #b0b0b0; stroke-width: 0.8; stroke-linecap: square"/>
     </g>
     <g id="line2d_32">
      <g>
       <use xlink:href="#m78ac6297e9" x="50.14375" y="105.625067" style="stroke: #000000; stroke-width: 0.8"/>
      </g>
     </g>
     <g id="text_17">
      <!-- 2.00 -->
      <g transform="translate(20.878125 109.424286) scale(0.1 -0.1)">
       <use xlink:href="#DejaVuSans-32"/>
       <use xlink:href="#DejaVuSans-2e" x="63.623047"/>
       <use xlink:href="#DejaVuSans-30" x="95.410156"/>
       <use xlink:href="#DejaVuSans-30" x="159.033203"/>
      </g>
     </g>
    </g>
    <g id="ytick_8">
     <g id="line2d_33">
      <path d="M 50.14375 32.459978 
L 608.14375 32.459978 
" clip-path="url(#p19d4a84c67)" style="fill: none; stroke: #b0b0b0; stroke-width: 0.8; stroke-linecap: square"/>
     </g>
     <g id="line2d_34">
      <g>
       <use xlink:href="#m78ac6297e9" x="50.14375" y="32.459978" style="stroke: #000000; stroke-width: 0.8"/>
      </g>
     </g>
     <g id="text_18">
      <!-- 2.25 -->
      <g transform="translate(20.878125 36.259197) scale(0.1 -0.1)">
       <use xlink:href="#DejaVuSans-32"/>
       <use xlink:href="#DejaVuSans-2e" x="63.623047"/>
       <use xlink:href="#DejaVuSans-32" x="95.410156"/>
       <use xlink:href="#DejaVuSans-35" x="159.033203"/>
      </g>
     </g>
    </g>
    <g id="text_19">
     <!-- Loss -->
     <g transform="translate(14.798437 310.485313) rotate(-90) scale(0.1 -0.1)">
      <defs>
       <path id="DejaVuSans-4c" d="M 628 4666 
L 1259 4666 
L 1259 531 
L 3531 531 
L 3531 0 
L 628 0 
L 628 4666 
z
" transform="scale(0.015625)"/>
      </defs>
      <use xlink:href="#DejaVuSans-4c"/>
      <use xlink:href="#DejaVuSans-6f" x="53.962891"/>
      <use xlink:href="#DejaVuSans-73" x="115.144531"/>
      <use xlink:href="#DejaVuSans-73" x="167.244141"/>
     </g>
    </g>
   </g>
   <g id="line2d_35">
    <path d="M 75.507386 246.258167 
L 78.056496 320.474985 
L 80.605605 347.191006 
L 83.154714 367.290096 
L 85.703823 383.943175 
L 88.252932 396.556976 
L 90.802041 404.625415 
L 93.351151 411.785655 
L 95.90026 417.996247 
L 98.449369 422.119937 
L 100.998478 427.636104 
L 103.547587 430.814299 
L 106.096697 433.776991 
L 108.645806 437.337469 
L 111.194915 440.307104 
L 113.744024 442.570277 
L 116.293133 445.030951 
L 118.842242 447.071192 
L 121.391352 449.611235 
L 123.940461 451.387689 
L 126.48957 452.548878 
L 129.038679 454.883275 
L 131.587788 456.547721 
L 134.136898 458.841928 
L 136.686007 458.688892 
L 139.235116 460.875714 
L 141.784225 461.78606 
L 144.333334 463.045894 
L 146.882443 465.811034 
L 149.431553 466.607192 
L 151.980662 466.507988 
L 154.529771 467.649135 
L 157.07888 467.985924 
L 159.627989 469.82706 
L 162.177099 471.07123 
L 164.726208 471.336046 
L 167.275317 472.378669 
L 169.824426 474.069159 
L 172.373535 473.892086 
L 174.922644 475.257491 
L 177.471754 475.331715 
L 180.020863 476.707551 
L 182.569972 477.806535 
L 185.119081 477.40686 
L 187.66819 478.488872 
L 190.2173 479.880669 
L 192.766409 481.030869 
L 195.315518 480.584305 
L 197.864627 481.107116 
L 200.413736 482.848403 
L 202.962845 481.428381 
L 205.511955 483.215876 
L 208.061064 483.702562 
L 210.610173 484.975409 
L 213.159282 484.552953 
L 215.708391 485.118153 
L 218.257501 484.937399 
L 220.80661 485.80567 
L 223.355719 485.681243 
L 225.904828 487.453667 
L 228.453937 488.202412 
L 233.552156 488.095795 
L 236.101265 489.082126 
L 238.650374 488.370536 
L 241.199483 501.353381 
L 243.748592 502.378333 
L 246.297702 503.826003 
L 248.846811 504.920906 
L 251.39592 505.352835 
L 253.945029 505.53167 
L 256.494138 504.849054 
L 259.043247 505.906766 
L 261.592357 505.833798 
L 264.141466 506.205668 
L 266.690575 506.708611 
L 269.239684 506.85903 
L 271.788793 506.810623 
L 274.337903 507.00814 
L 276.887012 506.814024 
L 279.436121 506.760663 
L 281.98523 507.715997 
L 284.534339 507.75945 
L 287.083448 508.555328 
L 289.632558 507.863834 
L 292.181667 507.669055 
L 294.730776 508.532058 
L 297.279885 509.59919 
L 299.828994 511.39778 
L 302.378104 511.431743 
L 304.927213 512.181587 
L 307.476322 510.777125 
L 310.025431 512.109195 
L 312.57454 512.944026 
L 315.123649 512.969128 
L 317.672759 512.082331 
L 320.221868 512.394019 
L 325.320086 511.483115 
L 327.869195 511.734011 
L 330.418305 513.618251 
L 332.967414 511.438721 
L 335.516523 513.2135 
L 338.065632 511.786448 
L 340.614741 512.305491 
L 343.163851 512.004566 
L 345.71296 511.388901 
L 348.262069 512.693444 
L 350.811178 512.731193 
L 353.360287 512.592339 
L 355.909396 513.058231 
L 361.007615 512.449421 
L 363.556724 512.446648 
L 366.105833 512.65123 
L 368.654942 513.25444 
L 371.204052 513.049126 
L 373.753161 511.751612 
L 376.30227 512.933176 
L 378.851379 513.21814 
L 381.400488 513.311656 
L 383.949597 513.635346 
L 386.498707 512.200235 
L 389.047816 513.051236 
L 391.596925 513.223303 
L 394.146034 513.930026 
L 396.695143 513.681816 
L 399.244253 512.726605 
L 401.793362 512.386292 
L 404.342471 513.871903 
L 406.89158 514.368252 
L 409.440689 513.262046 
L 411.989798 513.455691 
L 414.538908 513.767344 
L 417.088017 512.748724 
L 419.637126 514.098691 
L 422.186235 512.435885 
L 424.735344 514.612798 
L 427.284454 513.781718 
L 429.833563 513.545736 
L 432.382672 513.913384 
L 437.48089 513.956575 
L 440.029999 513.88837 
L 442.579109 514.098586 
L 445.128218 513.404755 
L 447.677327 513.974525 
L 452.775545 512.690531 
L 455.324655 514.995901 
L 457.873764 514.212268 
L 460.422873 514.94985 
L 462.971982 514.705286 
L 465.521091 513.873298 
L 468.0702 514.857205 
L 470.61931 513.147666 
L 473.168419 514.259489 
L 475.717528 513.775595 
L 478.266637 515.184418 
L 480.815746 514.981807 
L 483.364856 515.183075 
L 485.913965 513.794731 
L 488.463074 515.065572 
L 491.012183 515.813411 
L 493.561292 514.965636 
L 496.110401 514.547663 
L 498.659511 513.622402 
L 501.20862 513.7226 
L 503.757729 514.341912 
L 506.306838 514.040498 
L 508.855947 515.337942 
L 511.405057 514.576323 
L 513.954166 514.124857 
L 516.503275 515.058717 
L 519.052384 514.98165 
L 521.601493 513.699313 
L 524.150602 514.550244 
L 526.699712 514.081491 
L 529.248821 515.276906 
L 531.79793 514.996495 
L 534.347039 515.344309 
L 536.896148 514.994175 
L 539.445258 515.060496 
L 541.994367 515.965748 
L 544.543476 514.840563 
L 549.641694 515.432453 
L 552.190803 514.788895 
L 554.739913 516.724262 
L 557.289022 516.217726 
L 559.838131 515.358909 
L 564.936349 515.171788 
L 567.485459 515.356345 
L 570.034568 515.248455 
L 572.583677 515.738262 
L 575.132786 514.778236 
L 577.681895 515.30806 
L 580.231004 514.994105 
L 582.780114 514.917421 
L 582.780114 514.917421 
" clip-path="url(#p19d4a84c67)" style="fill: none; stroke: #1f77b4; stroke-width: 1.5; stroke-linecap: square"/>
   </g>
   <g id="line2d_36">
    <path d="M 75.507386 47.518125 
L 78.056496 325.606462 
L 80.605605 351.256939 
L 83.154714 336.442902 
L 85.703823 395.389489 
L 88.252932 361.709752 
L 90.802041 422.659547 
L 93.351151 405.688988 
L 95.90026 413.592426 
L 98.449369 438.386808 
L 100.998478 430.76652 
L 103.547587 437.918212 
L 106.096697 446.882571 
L 108.645806 424.802968 
L 111.194915 448.298162 
L 113.744024 455.041474 
L 116.293133 433.651395 
L 118.842242 466.965542 
L 121.391352 470.609594 
L 123.940461 481.413868 
L 126.48957 464.258386 
L 129.038679 427.88304 
L 131.587788 465.266889 
L 134.136898 448.48694 
L 136.686007 453.898863 
L 139.235116 419.526741 
L 141.784225 465.607848 
L 144.333334 444.772834 
L 146.882443 473.906843 
L 149.431553 485.89186 
L 151.980662 457.849997 
L 154.529771 473.300353 
L 157.07888 496.993047 
L 159.627989 498.542782 
L 162.177099 487.927426 
L 164.726208 438.242075 
L 167.275317 476.384333 
L 169.824426 495.238991 
L 172.373535 494.213795 
L 174.922644 466.90967 
L 177.471754 496.933424 
L 180.020863 487.058265 
L 182.569972 507.568823 
L 185.119081 468.430448 
L 187.66819 505.914267 
L 190.2173 474.409542 
L 192.766409 480.182257 
L 195.315518 502.997801 
L 197.864627 510.378008 
L 200.413736 495.670222 
L 202.962845 502.232554 
L 205.511955 503.31713 
L 208.061064 515.148745 
L 210.610173 469.447079 
L 213.159282 518.895349 
L 215.708391 510.119228 
L 218.257501 494.915947 
L 220.80661 507.863433 
L 223.355719 508.669848 
L 225.904828 510.515466 
L 228.453937 507.492959 
L 231.003046 503.347273 
L 233.552156 458.076227 
L 236.101265 491.701627 
L 238.650374 488.815914 
L 241.199483 540.127806 
L 243.748592 541.743479 
L 246.297702 542.594794 
L 251.39592 542.772408 
L 253.945029 540.772114 
L 256.494138 542.639451 
L 259.043247 538.442619 
L 261.592357 543.53694 
L 264.141466 543.312803 
L 266.690575 539.946232 
L 269.239684 544.682909 
L 271.788793 542.455347 
L 276.887012 542.052881 
L 279.436121 542.84037 
L 281.98523 542.225297 
L 284.534339 543.68012 
L 287.083448 543.758792 
L 289.632558 544.285441 
L 294.730776 543.431509 
L 297.279885 547.742241 
L 299.828994 548.195007 
L 304.927213 548.756919 
L 307.476322 548.195975 
L 310.025431 548.465361 
L 312.57454 549.084515 
L 315.123649 549.155599 
L 317.672759 549.034818 
L 320.221868 549.153593 
L 322.770977 549.066601 
L 325.320086 549.140476 
L 327.869195 549.04019 
L 330.418305 549.396151 
L 332.967414 549.18685 
L 335.516523 549.449303 
L 338.065632 549.138408 
L 340.614741 549.100075 
L 343.163851 549.429033 
L 345.71296 549.299538 
L 348.262069 549.289848 
L 350.811178 549.421166 
L 353.360287 549.694032 
L 355.909396 549.571323 
L 358.458506 549.247695 
L 361.007615 549.549902 
L 363.556724 549.27639 
L 366.105833 549.685624 
L 368.654942 549.837657 
L 371.204052 549.630501 
L 373.753161 549.214516 
L 376.30227 549.749931 
L 378.851379 549.762421 
L 381.400488 549.113315 
L 383.949597 549.695401 
L 386.498707 549.962311 
L 389.047816 549.7309 
L 391.596925 549.96423 
L 394.146034 549.75369 
L 396.695143 550.033473 
L 399.244253 549.645198 
L 401.793362 549.691075 
L 404.342471 549.86145 
L 406.89158 550.188541 
L 409.440689 549.8738 
L 411.989798 550.307674 
L 417.088017 549.948949 
L 419.637126 550.338838 
L 424.735344 550.207127 
L 429.833563 550.030778 
L 432.382672 549.867599 
L 434.931781 550.271574 
L 437.48089 549.677225 
L 440.029999 550.438687 
L 442.579109 550.005127 
L 445.128218 550.250371 
L 447.677327 550.115128 
L 450.226436 550.321603 
L 452.775545 550.018829 
L 455.324655 550.15613 
L 457.873764 550.092722 
L 462.971982 550.551837 
L 465.521091 550.319806 
L 468.0702 550.58669 
L 470.61931 550.278621 
L 473.168419 550.820046 
L 475.717528 550.560777 
L 478.266637 550.773313 
L 480.815746 550.505889 
L 485.913965 550.915647 
L 488.463074 550.324795 
L 491.012183 550.924386 
L 506.306838 550.83919 
L 508.855947 550.605451 
L 513.954166 550.973221 
L 516.503275 550.85434 
L 519.052384 551.281088 
L 524.150602 550.779489 
L 529.248821 551.136156 
L 531.79793 551.008876 
L 536.896148 551.342465 
L 547.092585 551.292575 
L 549.641694 551.083492 
L 557.289022 551.38433 
L 559.838131 551.081678 
L 562.38724 551.518125 
L 564.936349 551.140054 
L 567.485459 551.419244 
L 572.583677 551.440133 
L 575.132786 551.041226 
L 577.681895 551.219119 
L 580.231004 551.182286 
L 582.780114 551.327254 
L 582.780114 551.327254 
" clip-path="url(#p19d4a84c67)" style="fill: none; stroke: #ff7f0e; stroke-width: 1.5; stroke-linecap: square"/>
   </g>
   <g id="patch_3">
    <path d="M 50.14375 576.718125 
L 50.14375 22.318125 
" style="fill: none; stroke: #000000; stroke-width: 0.8; stroke-linejoin: miter; stroke-linecap: square"/>
   </g>
   <g id="patch_4">
    <path d="M 608.14375 576.718125 
L 608.14375 22.318125 
" style="fill: none; stroke: #000000; stroke-width: 0.8; stroke-linejoin: miter; stroke-linecap: square"/>
   </g>
   <g id="patch_5">
    <path d="M 50.14375 576.718125 
L 608.14375 576.718125 
" style="fill: none; stroke: #000000; stroke-width: 0.8; stroke-linejoin: miter; stroke-linecap: square"/>
   </g>
   <g id="patch_6">
    <path d="M 50.14375 22.318125 
L 608.14375 22.318125 
" style="fill: none; stroke: #000000; stroke-width: 0.8; stroke-linejoin: miter; stroke-linecap: square"/>
   </g>
   <g id="text_20">
    <!-- Train and Val Loss -->
    <g transform="translate(275.598437 16.318125) scale(0.12 -0.12)">
     <defs>
      <path id="DejaVuSans-54" d="M -19 4666 
L 3928 4666 
L 3928 4134 
L 2272 4134 
L 2272 0 
L 1638 0 
L 1638 4134 
L -19 4134 
L -19 4666 
z
" transform="scale(0.015625)"/>
      <path id="DejaVuSans-72" d="M 2631 2963 
Q 2534 3019 2420 3045 
Q 2306 3072 2169 3072 
Q 1681 3072 1420 2755 
Q 1159 2438 1159 1844 
L 1159 0 
L 581 0 
L 581 3500 
L 1159 3500 
L 1159 2956 
Q 1341 3275 1631 3429 
Q 1922 3584 2338 3584 
Q 2397 3584 2469 3576 
Q 2541 3569 2628 3553 
L 2631 2963 
z
" transform="scale(0.015625)"/>
      <path id="DejaVuSans-61" d="M 2194 1759 
Q 1497 1759 1228 1600 
Q 959 1441 959 1056 
Q 959 750 1161 570 
Q 1363 391 1709 391 
Q 2188 391 2477 730 
Q 2766 1069 2766 1631 
L 2766 1759 
L 2194 1759 
z
M 3341 1997 
L 3341 0 
L 2766 0 
L 2766 531 
Q 2569 213 2275 61 
Q 1981 -91 1556 -91 
Q 1019 -91 701 211 
Q 384 513 384 1019 
Q 384 1609 779 1909 
Q 1175 2209 1959 2209 
L 2766 2209 
L 2766 2266 
Q 2766 2663 2505 2880 
Q 2244 3097 1772 3097 
Q 1472 3097 1187 3025 
Q 903 2953 641 2809 
L 641 3341 
Q 956 3463 1253 3523 
Q 1550 3584 1831 3584 
Q 2591 3584 2966 3190 
Q 3341 2797 3341 1997 
z
" transform="scale(0.015625)"/>
      <path id="DejaVuSans-69" d="M 603 3500 
L 1178 3500 
L 1178 0 
L 603 0 
L 603 3500 
z
M 603 4863 
L 1178 4863 
L 1178 4134 
L 603 4134 
L 603 4863 
z
" transform="scale(0.015625)"/>
      <path id="DejaVuSans-6e" d="M 3513 2113 
L 3513 0 
L 2938 0 
L 2938 2094 
Q 2938 2591 2744 2837 
Q 2550 3084 2163 3084 
Q 1697 3084 1428 2787 
Q 1159 2491 1159 1978 
L 1159 0 
L 581 0 
L 581 3500 
L 1159 3500 
L 1159 2956 
Q 1366 3272 1645 3428 
Q 1925 3584 2291 3584 
Q 2894 3584 3203 3211 
Q 3513 2838 3513 2113 
z
" transform="scale(0.015625)"/>
      <path id="DejaVuSans-20" transform="scale(0.015625)"/>
      <path id="DejaVuSans-64" d="M 2906 2969 
L 2906 4863 
L 3481 4863 
L 3481 0 
L 2906 0 
L 2906 525 
Q 2725 213 2448 61 
Q 2172 -91 1784 -91 
Q 1150 -91 751 415 
Q 353 922 353 1747 
Q 353 2572 751 3078 
Q 1150 3584 1784 3584 
Q 2172 3584 2448 3432 
Q 2725 3281 2906 2969 
z
M 947 1747 
Q 947 1113 1208 752 
Q 1469 391 1925 391 
Q 2381 391 2643 752 
Q 2906 1113 2906 1747 
Q 2906 2381 2643 2742 
Q 2381 3103 1925 3103 
Q 1469 3103 1208 2742 
Q 947 2381 947 1747 
z
" transform="scale(0.015625)"/>
      <path id="DejaVuSans-56" d="M 1831 0 
L 50 4666 
L 709 4666 
L 2188 738 
L 3669 4666 
L 4325 4666 
L 2547 0 
L 1831 0 
z
" transform="scale(0.015625)"/>
      <path id="DejaVuSans-6c" d="M 603 4863 
L 1178 4863 
L 1178 0 
L 603 0 
L 603 4863 
z
" transform="scale(0.015625)"/>
     </defs>
     <use xlink:href="#DejaVuSans-54"/>
     <use xlink:href="#DejaVuSans-72" x="46.333984"/>
     <use xlink:href="#DejaVuSans-61" x="87.447266"/>
     <use xlink:href="#DejaVuSans-69" x="148.726562"/>
     <use xlink:href="#DejaVuSans-6e" x="176.509766"/>
     <use xlink:href="#DejaVuSans-20" x="239.888672"/>
     <use xlink:href="#DejaVuSans-61" x="271.675781"/>
     <use xlink:href="#DejaVuSans-6e" x="332.955078"/>
     <use xlink:href="#DejaVuSans-64" x="396.333984"/>
     <use xlink:href="#DejaVuSans-20" x="459.810547"/>
     <use xlink:href="#DejaVuSans-56" x="491.597656"/>
     <use xlink:href="#DejaVuSans-61" x="552.255859"/>
     <use xlink:href="#DejaVuSans-6c" x="613.535156"/>
     <use xlink:href="#DejaVuSans-20" x="641.318359"/>
     <use xlink:href="#DejaVuSans-4c" x="673.105469"/>
     <use xlink:href="#DejaVuSans-6f" x="727.068359"/>
     <use xlink:href="#DejaVuSans-73" x="788.25"/>
     <use xlink:href="#DejaVuSans-73" x="840.349609"/>
    </g>
   </g>
   <g id="legend_1">
    <g id="patch_7">
     <path d="M 521.553125 60.230625 
L 601.14375 60.230625 
Q 603.14375 60.230625 603.14375 58.230625 
L 603.14375 29.318125 
Q 603.14375 27.318125 601.14375 27.318125 
L 521.553125 27.318125 
Q 519.553125 27.318125 519.553125 29.318125 
L 519.553125 58.230625 
Q 519.553125 60.230625 521.553125 60.230625 
z
" style="fill: #ffffff; opacity: 0.8; stroke: #cccccc; stroke-linejoin: miter"/>
    </g>
    <g id="line2d_37">
     <path d="M 523.553125 35.416563 
L 533.553125 35.416563 
L 543.553125 35.416563 
" style="fill: none; stroke: #1f77b4; stroke-width: 1.5; stroke-linecap: square"/>
    </g>
    <g id="text_21">
     <!-- train_loss -->
     <g transform="translate(551.553125 38.916563) scale(0.1 -0.1)">
      <defs>
       <path id="DejaVuSans-74" d="M 1172 4494 
L 1172 3500 
L 2356 3500 
L 2356 3053 
L 1172 3053 
L 1172 1153 
Q 1172 725 1289 603 
Q 1406 481 1766 481 
L 2356 481 
L 2356 0 
L 1766 0 
Q 1100 0 847 248 
Q 594 497 594 1153 
L 594 3053 
L 172 3053 
L 172 3500 
L 594 3500 
L 594 4494 
L 1172 4494 
z
" transform="scale(0.015625)"/>
       <path id="DejaVuSans-5f" d="M 3263 -1063 
L 3263 -1509 
L -63 -1509 
L -63 -1063 
L 3263 -1063 
z
" transform="scale(0.015625)"/>
      </defs>
      <use xlink:href="#DejaVuSans-74"/>
      <use xlink:href="#DejaVuSans-72" x="39.208984"/>
      <use xlink:href="#DejaVuSans-61" x="80.322266"/>
      <use xlink:href="#DejaVuSans-69" x="141.601562"/>
      <use xlink:href="#DejaVuSans-6e" x="169.384766"/>
      <use xlink:href="#DejaVuSans-5f" x="232.763672"/>
      <use xlink:href="#DejaVuSans-6c" x="282.763672"/>
      <use xlink:href="#DejaVuSans-6f" x="310.546875"/>
      <use xlink:href="#DejaVuSans-73" x="371.728516"/>
      <use xlink:href="#DejaVuSans-73" x="423.828125"/>
     </g>
    </g>
    <g id="line2d_38">
     <path d="M 523.553125 50.372813 
L 533.553125 50.372813 
L 543.553125 50.372813 
" style="fill: none; stroke: #ff7f0e; stroke-width: 1.5; stroke-linecap: square"/>
    </g>
    <g id="text_22">
     <!-- val_loss -->
     <g transform="translate(551.553125 53.872813) scale(0.1 -0.1)">
      <defs>
       <path id="DejaVuSans-76" d="M 191 3500 
L 800 3500 
L 1894 563 
L 2988 3500 
L 3597 3500 
L 2284 0 
L 1503 0 
L 191 3500 
z
" transform="scale(0.015625)"/>
      </defs>
      <use xlink:href="#DejaVuSans-76"/>
      <use xlink:href="#DejaVuSans-61" x="59.179688"/>
      <use xlink:href="#DejaVuSans-6c" x="120.458984"/>
      <use xlink:href="#DejaVuSans-5f" x="148.242188"/>
      <use xlink:href="#DejaVuSans-6c" x="198.242188"/>
      <use xlink:href="#DejaVuSans-6f" x="226.025391"/>
      <use xlink:href="#DejaVuSans-73" x="287.207031"/>
      <use xlink:href="#DejaVuSans-73" x="339.306641"/>
     </g>
    </g>
   </g>
  </g>
 </g>
 <defs>
  <clipPath id="p19d4a84c67">
   <rect x="50.14375" y="22.318125" width="558" height="554.4"/>
  </clipPath>
 </defs>
</svg>
