<?xml version="1.0" encoding="utf-8" standalone="no"?>
<!DOCTYPE svg PUBLIC "-//W3C//DTD SVG 1.1//EN"
  "http://www.w3.org/Graphics/SVG/1.1/DTD/svg11.dtd">
<svg xmlns:xlink="http://www.w3.org/1999/xlink" width="891.165625pt" height="503.394375pt" viewBox="0 0 891.165625 503.394375" xmlns="http://www.w3.org/2000/svg" version="1.1">
 <metadata>
  <rdf:RDF xmlns:dc="http://purl.org/dc/elements/1.1/" xmlns:cc="http://creativecommons.org/ns#" xmlns:rdf="http://www.w3.org/1999/02/22-rdf-syntax-ns#">
   <cc:Work>
    <dc:type rdf:resource="http://purl.org/dc/dcmitype/StillImage"/>
    <dc:date>2024-08-07T16:16:03.043170</dc:date>
    <dc:format>image/svg+xml</dc:format>
    <dc:creator>
     <cc:Agent>
      <dc:title>Matplotlib v3.8.0, https://matplotlib.org/</dc:title>
     </cc:Agent>
    </dc:creator>
   </cc:Work>
  </rdf:RDF>
 </metadata>
 <defs>
  <style type="text/css">*{stroke-linejoin: round; stroke-linecap: butt}</style>
 </defs>
 <g id="figure_1">
  <g id="patch_1">
   <path d="M 0 503.394375 
L 891.165625 503.394375 
L 891.165625 0 
L 0 0 
z
" style="fill: #ffffff"/>
  </g>
  <g id="axes_1">
   <g id="patch_2">
    <path d="M 46.965625 465.838125 
L 883.965625 465.838125 
L 883.965625 22.318125 
L 46.965625 22.318125 
z
" style="fill: #ffffff"/>
   </g>
   <g id="matplotlib.axis_1">
    <g id="xtick_1">
     <g id="line2d_1">
      <path d="M 85.01108 465.838125 
L 85.01108 22.318125 
" clip-path="url(#p63846e6c61)" style="fill: none; stroke: #b0b0b0; stroke-width: 0.8; stroke-linecap: square"/>
     </g>
     <g id="line2d_2">
      <defs>
       <path id="mffdb7f26be" d="M 0 0 
L 0 3.5 
" style="stroke: #000000; stroke-width: 0.8"/>
      </defs>
      <g>
       <use xlink:href="#mffdb7f26be" x="85.01108" y="465.838125" style="stroke: #000000; stroke-width: 0.8"/>
      </g>
     </g>
     <g id="text_1">
      <!-- 0 -->
      <g transform="translate(81.82983 480.436562) scale(0.1 -0.1)">
       <defs>
        <path id="DejaVuSans-30" d="M 2034 4250 
Q 1547 4250 1301 3770 
Q 1056 3291 1056 2328 
Q 1056 1369 1301 889 
Q 1547 409 2034 409 
Q 2525 409 2770 889 
Q 3016 1369 3016 2328 
Q 3016 3291 2770 3770 
Q 2525 4250 2034 4250 
z
M 2034 4750 
Q 2819 4750 3233 4129 
Q 3647 3509 3647 2328 
Q 3647 1150 3233 529 
Q 2819 -91 2034 -91 
Q 1250 -91 836 529 
Q 422 1150 422 2328 
Q 422 3509 836 4129 
Q 1250 4750 2034 4750 
z
" transform="scale(0.015625)"/>
       </defs>
       <use xlink:href="#DejaVuSans-30"/>
      </g>
     </g>
    </g>
    <g id="xtick_2">
     <g id="line2d_3">
      <path d="M 161.870584 465.838125 
L 161.870584 22.318125 
" clip-path="url(#p63846e6c61)" style="fill: none; stroke: #b0b0b0; stroke-width: 0.8; stroke-linecap: square"/>
     </g>
     <g id="line2d_4">
      <g>
       <use xlink:href="#mffdb7f26be" x="161.870584" y="465.838125" style="stroke: #000000; stroke-width: 0.8"/>
      </g>
     </g>
     <g id="text_2">
      <!-- 10 -->
      <g transform="translate(155.508084 480.436562) scale(0.1 -0.1)">
       <defs>
        <path id="DejaVuSans-31" d="M 794 531 
L 1825 531 
L 1825 4091 
L 703 3866 
L 703 4441 
L 1819 4666 
L 2450 4666 
L 2450 531 
L 3481 531 
L 3481 0 
L 794 0 
L 794 531 
z
" transform="scale(0.015625)"/>
       </defs>
       <use xlink:href="#DejaVuSans-31"/>
       <use xlink:href="#DejaVuSans-30" x="63.623047"/>
      </g>
     </g>
    </g>
    <g id="xtick_3">
     <g id="line2d_5">
      <path d="M 238.730088 465.838125 
L 238.730088 22.318125 
" clip-path="url(#p63846e6c61)" style="fill: none; stroke: #b0b0b0; stroke-width: 0.8; stroke-linecap: square"/>
     </g>
     <g id="line2d_6">
      <g>
       <use xlink:href="#mffdb7f26be" x="238.730088" y="465.838125" style="stroke: #000000; stroke-width: 0.8"/>
      </g>
     </g>
     <g id="text_3">
      <!-- 20 -->
      <g transform="translate(232.367588 480.436562) scale(0.1 -0.1)">
       <defs>
        <path id="DejaVuSans-32" d="M 1228 531 
L 3431 531 
L 3431 0 
L 469 0 
L 469 531 
Q 828 903 1448 1529 
Q 2069 2156 2228 2338 
Q 2531 2678 2651 2914 
Q 2772 3150 2772 3378 
Q 2772 3750 2511 3984 
Q 2250 4219 1831 4219 
Q 1534 4219 1204 4116 
Q 875 4013 500 3803 
L 500 4441 
Q 881 4594 1212 4672 
Q 1544 4750 1819 4750 
Q 2544 4750 2975 4387 
Q 3406 4025 3406 3419 
Q 3406 3131 3298 2873 
Q 3191 2616 2906 2266 
Q 2828 2175 2409 1742 
Q 1991 1309 1228 531 
z
" transform="scale(0.015625)"/>
       </defs>
       <use xlink:href="#DejaVuSans-32"/>
       <use xlink:href="#DejaVuSans-30" x="63.623047"/>
      </g>
     </g>
    </g>
    <g id="xtick_4">
     <g id="line2d_7">
      <path d="M 315.589592 465.838125 
L 315.589592 22.318125 
" clip-path="url(#p63846e6c61)" style="fill: none; stroke: #b0b0b0; stroke-width: 0.8; stroke-linecap: square"/>
     </g>
     <g id="line2d_8">
      <g>
       <use xlink:href="#mffdb7f26be" x="315.589592" y="465.838125" style="stroke: #000000; stroke-width: 0.8"/>
      </g>
     </g>
     <g id="text_4">
      <!-- 30 -->
      <g transform="translate(309.227092 480.436562) scale(0.1 -0.1)">
       <defs>
        <path id="DejaVuSans-33" d="M 2597 2516 
Q 3050 2419 3304 2112 
Q 3559 1806 3559 1356 
Q 3559 666 3084 287 
Q 2609 -91 1734 -91 
Q 1441 -91 1130 -33 
Q 819 25 488 141 
L 488 750 
Q 750 597 1062 519 
Q 1375 441 1716 441 
Q 2309 441 2620 675 
Q 2931 909 2931 1356 
Q 2931 1769 2642 2001 
Q 2353 2234 1838 2234 
L 1294 2234 
L 1294 2753 
L 1863 2753 
Q 2328 2753 2575 2939 
Q 2822 3125 2822 3475 
Q 2822 3834 2567 4026 
Q 2313 4219 1838 4219 
Q 1578 4219 1281 4162 
Q 984 4106 628 3988 
L 628 4550 
Q 988 4650 1302 4700 
Q 1616 4750 1894 4750 
Q 2613 4750 3031 4423 
Q 3450 4097 3450 3541 
Q 3450 3153 3228 2886 
Q 3006 2619 2597 2516 
z
" transform="scale(0.015625)"/>
       </defs>
       <use xlink:href="#DejaVuSans-33"/>
       <use xlink:href="#DejaVuSans-30" x="63.623047"/>
      </g>
     </g>
    </g>
    <g id="xtick_5">
     <g id="line2d_9">
      <path d="M 392.449096 465.838125 
L 392.449096 22.318125 
" clip-path="url(#p63846e6c61)" style="fill: none; stroke: #b0b0b0; stroke-width: 0.8; stroke-linecap: square"/>
     </g>
     <g id="line2d_10">
      <g>
       <use xlink:href="#mffdb7f26be" x="392.449096" y="465.838125" style="stroke: #000000; stroke-width: 0.8"/>
      </g>
     </g>
     <g id="text_5">
      <!-- 40 -->
      <g transform="translate(386.086596 480.436562) scale(0.1 -0.1)">
       <defs>
        <path id="DejaVuSans-34" d="M 2419 4116 
L 825 1625 
L 2419 1625 
L 2419 4116 
z
M 2253 4666 
L 3047 4666 
L 3047 1625 
L 3713 1625 
L 3713 1100 
L 3047 1100 
L 3047 0 
L 2419 0 
L 2419 1100 
L 313 1100 
L 313 1709 
L 2253 4666 
z
" transform="scale(0.015625)"/>
       </defs>
       <use xlink:href="#DejaVuSans-34"/>
       <use xlink:href="#DejaVuSans-30" x="63.623047"/>
      </g>
     </g>
    </g>
    <g id="xtick_6">
     <g id="line2d_11">
      <path d="M 469.3086 465.838125 
L 469.3086 22.318125 
" clip-path="url(#p63846e6c61)" style="fill: none; stroke: #b0b0b0; stroke-width: 0.8; stroke-linecap: square"/>
     </g>
     <g id="line2d_12">
      <g>
       <use xlink:href="#mffdb7f26be" x="469.3086" y="465.838125" style="stroke: #000000; stroke-width: 0.8"/>
      </g>
     </g>
     <g id="text_6">
      <!-- 50 -->
      <g transform="translate(462.9461 480.436562) scale(0.1 -0.1)">
       <defs>
        <path id="DejaVuSans-35" d="M 691 4666 
L 3169 4666 
L 3169 4134 
L 1269 4134 
L 1269 2991 
Q 1406 3038 1543 3061 
Q 1681 3084 1819 3084 
Q 2600 3084 3056 2656 
Q 3513 2228 3513 1497 
Q 3513 744 3044 326 
Q 2575 -91 1722 -91 
Q 1428 -91 1123 -41 
Q 819 9 494 109 
L 494 744 
Q 775 591 1075 516 
Q 1375 441 1709 441 
Q 2250 441 2565 725 
Q 2881 1009 2881 1497 
Q 2881 1984 2565 2268 
Q 2250 2553 1709 2553 
Q 1456 2553 1204 2497 
Q 953 2441 691 2322 
L 691 4666 
z
" transform="scale(0.015625)"/>
       </defs>
       <use xlink:href="#DejaVuSans-35"/>
       <use xlink:href="#DejaVuSans-30" x="63.623047"/>
      </g>
     </g>
    </g>
    <g id="xtick_7">
     <g id="line2d_13">
      <path d="M 546.168104 465.838125 
L 546.168104 22.318125 
" clip-path="url(#p63846e6c61)" style="fill: none; stroke: #b0b0b0; stroke-width: 0.8; stroke-linecap: square"/>
     </g>
     <g id="line2d_14">
      <g>
       <use xlink:href="#mffdb7f26be" x="546.168104" y="465.838125" style="stroke: #000000; stroke-width: 0.8"/>
      </g>
     </g>
     <g id="text_7">
      <!-- 60 -->
      <g transform="translate(539.805604 480.436562) scale(0.1 -0.1)">
       <defs>
        <path id="DejaVuSans-36" d="M 2113 2584 
Q 1688 2584 1439 2293 
Q 1191 2003 1191 1497 
Q 1191 994 1439 701 
Q 1688 409 2113 409 
Q 2538 409 2786 701 
Q 3034 994 3034 1497 
Q 3034 2003 2786 2293 
Q 2538 2584 2113 2584 
z
M 3366 4563 
L 3366 3988 
Q 3128 4100 2886 4159 
Q 2644 4219 2406 4219 
Q 1781 4219 1451 3797 
Q 1122 3375 1075 2522 
Q 1259 2794 1537 2939 
Q 1816 3084 2150 3084 
Q 2853 3084 3261 2657 
Q 3669 2231 3669 1497 
Q 3669 778 3244 343 
Q 2819 -91 2113 -91 
Q 1303 -91 875 529 
Q 447 1150 447 2328 
Q 447 3434 972 4092 
Q 1497 4750 2381 4750 
Q 2619 4750 2861 4703 
Q 3103 4656 3366 4563 
z
" transform="scale(0.015625)"/>
       </defs>
       <use xlink:href="#DejaVuSans-36"/>
       <use xlink:href="#DejaVuSans-30" x="63.623047"/>
      </g>
     </g>
    </g>
    <g id="xtick_8">
     <g id="line2d_15">
      <path d="M 623.027608 465.838125 
L 623.027608 22.318125 
" clip-path="url(#p63846e6c61)" style="fill: none; stroke: #b0b0b0; stroke-width: 0.8; stroke-linecap: square"/>
     </g>
     <g id="line2d_16">
      <g>
       <use xlink:href="#mffdb7f26be" x="623.027608" y="465.838125" style="stroke: #000000; stroke-width: 0.8"/>
      </g>
     </g>
     <g id="text_8">
      <!-- 70 -->
      <g transform="translate(616.665108 480.436562) scale(0.1 -0.1)">
       <defs>
        <path id="DejaVuSans-37" d="M 525 4666 
L 3525 4666 
L 3525 4397 
L 1831 0 
L 1172 0 
L 2766 4134 
L 525 4134 
L 525 4666 
z
" transform="scale(0.015625)"/>
       </defs>
       <use xlink:href="#DejaVuSans-37"/>
       <use xlink:href="#DejaVuSans-30" x="63.623047"/>
      </g>
     </g>
    </g>
    <g id="xtick_9">
     <g id="line2d_17">
      <path d="M 699.887113 465.838125 
L 699.887113 22.318125 
" clip-path="url(#p63846e6c61)" style="fill: none; stroke: #b0b0b0; stroke-width: 0.8; stroke-linecap: square"/>
     </g>
     <g id="line2d_18">
      <g>
       <use xlink:href="#mffdb7f26be" x="699.887113" y="465.838125" style="stroke: #000000; stroke-width: 0.8"/>
      </g>
     </g>
     <g id="text_9">
      <!-- 80 -->
      <g transform="translate(693.524613 480.436562) scale(0.1 -0.1)">
       <defs>
        <path id="DejaVuSans-38" d="M 2034 2216 
Q 1584 2216 1326 1975 
Q 1069 1734 1069 1313 
Q 1069 891 1326 650 
Q 1584 409 2034 409 
Q 2484 409 2743 651 
Q 3003 894 3003 1313 
Q 3003 1734 2745 1975 
Q 2488 2216 2034 2216 
z
M 1403 2484 
Q 997 2584 770 2862 
Q 544 3141 544 3541 
Q 544 4100 942 4425 
Q 1341 4750 2034 4750 
Q 2731 4750 3128 4425 
Q 3525 4100 3525 3541 
Q 3525 3141 3298 2862 
Q 3072 2584 2669 2484 
Q 3125 2378 3379 2068 
Q 3634 1759 3634 1313 
Q 3634 634 3220 271 
Q 2806 -91 2034 -91 
Q 1263 -91 848 271 
Q 434 634 434 1313 
Q 434 1759 690 2068 
Q 947 2378 1403 2484 
z
M 1172 3481 
Q 1172 3119 1398 2916 
Q 1625 2713 2034 2713 
Q 2441 2713 2670 2916 
Q 2900 3119 2900 3481 
Q 2900 3844 2670 4047 
Q 2441 4250 2034 4250 
Q 1625 4250 1398 4047 
Q 1172 3844 1172 3481 
z
" transform="scale(0.015625)"/>
       </defs>
       <use xlink:href="#DejaVuSans-38"/>
       <use xlink:href="#DejaVuSans-30" x="63.623047"/>
      </g>
     </g>
    </g>
    <g id="xtick_10">
     <g id="line2d_19">
      <path d="M 776.746617 465.838125 
L 776.746617 22.318125 
" clip-path="url(#p63846e6c61)" style="fill: none; stroke: #b0b0b0; stroke-width: 0.8; stroke-linecap: square"/>
     </g>
     <g id="line2d_20">
      <g>
       <use xlink:href="#mffdb7f26be" x="776.746617" y="465.838125" style="stroke: #000000; stroke-width: 0.8"/>
      </g>
     </g>
     <g id="text_10">
      <!-- 90 -->
      <g transform="translate(770.384117 480.436562) scale(0.1 -0.1)">
       <defs>
        <path id="DejaVuSans-39" d="M 703 97 
L 703 672 
Q 941 559 1184 500 
Q 1428 441 1663 441 
Q 2288 441 2617 861 
Q 2947 1281 2994 2138 
Q 2813 1869 2534 1725 
Q 2256 1581 1919 1581 
Q 1219 1581 811 2004 
Q 403 2428 403 3163 
Q 403 3881 828 4315 
Q 1253 4750 1959 4750 
Q 2769 4750 3195 4129 
Q 3622 3509 3622 2328 
Q 3622 1225 3098 567 
Q 2575 -91 1691 -91 
Q 1453 -91 1209 -44 
Q 966 3 703 97 
z
M 1959 2075 
Q 2384 2075 2632 2365 
Q 2881 2656 2881 3163 
Q 2881 3666 2632 3958 
Q 2384 4250 1959 4250 
Q 1534 4250 1286 3958 
Q 1038 3666 1038 3163 
Q 1038 2656 1286 2365 
Q 1534 2075 1959 2075 
z
" transform="scale(0.015625)"/>
       </defs>
       <use xlink:href="#DejaVuSans-39"/>
       <use xlink:href="#DejaVuSans-30" x="63.623047"/>
      </g>
     </g>
    </g>
    <g id="xtick_11">
     <g id="line2d_21">
      <path d="M 853.606121 465.838125 
L 853.606121 22.318125 
" clip-path="url(#p63846e6c61)" style="fill: none; stroke: #b0b0b0; stroke-width: 0.8; stroke-linecap: square"/>
     </g>
     <g id="line2d_22">
      <g>
       <use xlink:href="#mffdb7f26be" x="853.606121" y="465.838125" style="stroke: #000000; stroke-width: 0.8"/>
      </g>
     </g>
     <g id="text_11">
      <!-- 100 -->
      <g transform="translate(844.062371 480.436562) scale(0.1 -0.1)">
       <use xlink:href="#DejaVuSans-31"/>
       <use xlink:href="#DejaVuSans-30" x="63.623047"/>
       <use xlink:href="#DejaVuSans-30" x="127.246094"/>
      </g>
     </g>
    </g>
    <g id="text_12">
     <!-- Number of traces -->
     <g transform="translate(421.871875 494.114687) scale(0.1 -0.1)">
      <defs>
       <path id="DejaVuSans-4e" d="M 628 4666 
L 1478 4666 
L 3547 763 
L 3547 4666 
L 4159 4666 
L 4159 0 
L 3309 0 
L 1241 3903 
L 1241 0 
L 628 0 
L 628 4666 
z
" transform="scale(0.015625)"/>
       <path id="DejaVuSans-75" d="M 544 1381 
L 544 3500 
L 1119 3500 
L 1119 1403 
Q 1119 906 1312 657 
Q 1506 409 1894 409 
Q 2359 409 2629 706 
Q 2900 1003 2900 1516 
L 2900 3500 
L 3475 3500 
L 3475 0 
L 2900 0 
L 2900 538 
Q 2691 219 2414 64 
Q 2138 -91 1772 -91 
Q 1169 -91 856 284 
Q 544 659 544 1381 
z
M 1991 3584 
L 1991 3584 
z
" transform="scale(0.015625)"/>
       <path id="DejaVuSans-6d" d="M 3328 2828 
Q 3544 3216 3844 3400 
Q 4144 3584 4550 3584 
Q 5097 3584 5394 3201 
Q 5691 2819 5691 2113 
L 5691 0 
L 5113 0 
L 5113 2094 
Q 5113 2597 4934 2840 
Q 4756 3084 4391 3084 
Q 3944 3084 3684 2787 
Q 3425 2491 3425 1978 
L 3425 0 
L 2847 0 
L 2847 2094 
Q 2847 2600 2669 2842 
Q 2491 3084 2119 3084 
Q 1678 3084 1418 2786 
Q 1159 2488 1159 1978 
L 1159 0 
L 581 0 
L 581 3500 
L 1159 3500 
L 1159 2956 
Q 1356 3278 1631 3431 
Q 1906 3584 2284 3584 
Q 2666 3584 2933 3390 
Q 3200 3197 3328 2828 
z
" transform="scale(0.015625)"/>
       <path id="DejaVuSans-62" d="M 3116 1747 
Q 3116 2381 2855 2742 
Q 2594 3103 2138 3103 
Q 1681 3103 1420 2742 
Q 1159 2381 1159 1747 
Q 1159 1113 1420 752 
Q 1681 391 2138 391 
Q 2594 391 2855 752 
Q 3116 1113 3116 1747 
z
M 1159 2969 
Q 1341 3281 1617 3432 
Q 1894 3584 2278 3584 
Q 2916 3584 3314 3078 
Q 3713 2572 3713 1747 
Q 3713 922 3314 415 
Q 2916 -91 2278 -91 
Q 1894 -91 1617 61 
Q 1341 213 1159 525 
L 1159 0 
L 581 0 
L 581 4863 
L 1159 4863 
L 1159 2969 
z
" transform="scale(0.015625)"/>
       <path id="DejaVuSans-65" d="M 3597 1894 
L 3597 1613 
L 953 1613 
Q 991 1019 1311 708 
Q 1631 397 2203 397 
Q 2534 397 2845 478 
Q 3156 559 3463 722 
L 3463 178 
Q 3153 47 2828 -22 
Q 2503 -91 2169 -91 
Q 1331 -91 842 396 
Q 353 884 353 1716 
Q 353 2575 817 3079 
Q 1281 3584 2069 3584 
Q 2775 3584 3186 3129 
Q 3597 2675 3597 1894 
z
M 3022 2063 
Q 3016 2534 2758 2815 
Q 2500 3097 2075 3097 
Q 1594 3097 1305 2825 
Q 1016 2553 972 2059 
L 3022 2063 
z
" transform="scale(0.015625)"/>
       <path id="DejaVuSans-72" d="M 2631 2963 
Q 2534 3019 2420 3045 
Q 2306 3072 2169 3072 
Q 1681 3072 1420 2755 
Q 1159 2438 1159 1844 
L 1159 0 
L 581 0 
L 581 3500 
L 1159 3500 
L 1159 2956 
Q 1341 3275 1631 3429 
Q 1922 3584 2338 3584 
Q 2397 3584 2469 3576 
Q 2541 3569 2628 3553 
L 2631 2963 
z
" transform="scale(0.015625)"/>
       <path id="DejaVuSans-20" transform="scale(0.015625)"/>
       <path id="DejaVuSans-6f" d="M 1959 3097 
Q 1497 3097 1228 2736 
Q 959 2375 959 1747 
Q 959 1119 1226 758 
Q 1494 397 1959 397 
Q 2419 397 2687 759 
Q 2956 1122 2956 1747 
Q 2956 2369 2687 2733 
Q 2419 3097 1959 3097 
z
M 1959 3584 
Q 2709 3584 3137 3096 
Q 3566 2609 3566 1747 
Q 3566 888 3137 398 
Q 2709 -91 1959 -91 
Q 1206 -91 779 398 
Q 353 888 353 1747 
Q 353 2609 779 3096 
Q 1206 3584 1959 3584 
z
" transform="scale(0.015625)"/>
       <path id="DejaVuSans-66" d="M 2375 4863 
L 2375 4384 
L 1825 4384 
Q 1516 4384 1395 4259 
Q 1275 4134 1275 3809 
L 1275 3500 
L 2222 3500 
L 2222 3053 
L 1275 3053 
L 1275 0 
L 697 0 
L 697 3053 
L 147 3053 
L 147 3500 
L 697 3500 
L 697 3744 
Q 697 4328 969 4595 
Q 1241 4863 1831 4863 
L 2375 4863 
z
" transform="scale(0.015625)"/>
       <path id="DejaVuSans-74" d="M 1172 4494 
L 1172 3500 
L 2356 3500 
L 2356 3053 
L 1172 3053 
L 1172 1153 
Q 1172 725 1289 603 
Q 1406 481 1766 481 
L 2356 481 
L 2356 0 
L 1766 0 
Q 1100 0 847 248 
Q 594 497 594 1153 
L 594 3053 
L 172 3053 
L 172 3500 
L 594 3500 
L 594 4494 
L 1172 4494 
z
" transform="scale(0.015625)"/>
       <path id="DejaVuSans-61" d="M 2194 1759 
Q 1497 1759 1228 1600 
Q 959 1441 959 1056 
Q 959 750 1161 570 
Q 1363 391 1709 391 
Q 2188 391 2477 730 
Q 2766 1069 2766 1631 
L 2766 1759 
L 2194 1759 
z
M 3341 1997 
L 3341 0 
L 2766 0 
L 2766 531 
Q 2569 213 2275 61 
Q 1981 -91 1556 -91 
Q 1019 -91 701 211 
Q 384 513 384 1019 
Q 384 1609 779 1909 
Q 1175 2209 1959 2209 
L 2766 2209 
L 2766 2266 
Q 2766 2663 2505 2880 
Q 2244 3097 1772 3097 
Q 1472 3097 1187 3025 
Q 903 2953 641 2809 
L 641 3341 
Q 956 3463 1253 3523 
Q 1550 3584 1831 3584 
Q 2591 3584 2966 3190 
Q 3341 2797 3341 1997 
z
" transform="scale(0.015625)"/>
       <path id="DejaVuSans-63" d="M 3122 3366 
L 3122 2828 
Q 2878 2963 2633 3030 
Q 2388 3097 2138 3097 
Q 1578 3097 1268 2742 
Q 959 2388 959 1747 
Q 959 1106 1268 751 
Q 1578 397 2138 397 
Q 2388 397 2633 464 
Q 2878 531 3122 666 
L 3122 134 
Q 2881 22 2623 -34 
Q 2366 -91 2075 -91 
Q 1284 -91 818 406 
Q 353 903 353 1747 
Q 353 2603 823 3093 
Q 1294 3584 2113 3584 
Q 2378 3584 2631 3529 
Q 2884 3475 3122 3366 
z
" transform="scale(0.015625)"/>
       <path id="DejaVuSans-73" d="M 2834 3397 
L 2834 2853 
Q 2591 2978 2328 3040 
Q 2066 3103 1784 3103 
Q 1356 3103 1142 2972 
Q 928 2841 928 2578 
Q 928 2378 1081 2264 
Q 1234 2150 1697 2047 
L 1894 2003 
Q 2506 1872 2764 1633 
Q 3022 1394 3022 966 
Q 3022 478 2636 193 
Q 2250 -91 1575 -91 
Q 1294 -91 989 -36 
Q 684 19 347 128 
L 347 722 
Q 666 556 975 473 
Q 1284 391 1588 391 
Q 1994 391 2212 530 
Q 2431 669 2431 922 
Q 2431 1156 2273 1281 
Q 2116 1406 1581 1522 
L 1381 1569 
Q 847 1681 609 1914 
Q 372 2147 372 2553 
Q 372 3047 722 3315 
Q 1072 3584 1716 3584 
Q 2034 3584 2315 3537 
Q 2597 3491 2834 3397 
z
" transform="scale(0.015625)"/>
      </defs>
      <use xlink:href="#DejaVuSans-4e"/>
      <use xlink:href="#DejaVuSans-75" x="74.804688"/>
      <use xlink:href="#DejaVuSans-6d" x="138.183594"/>
      <use xlink:href="#DejaVuSans-62" x="235.595703"/>
      <use xlink:href="#DejaVuSans-65" x="299.072266"/>
      <use xlink:href="#DejaVuSans-72" x="360.595703"/>
      <use xlink:href="#DejaVuSans-20" x="401.708984"/>
      <use xlink:href="#DejaVuSans-6f" x="433.496094"/>
      <use xlink:href="#DejaVuSans-66" x="494.677734"/>
      <use xlink:href="#DejaVuSans-20" x="529.882812"/>
      <use xlink:href="#DejaVuSans-74" x="561.669922"/>
      <use xlink:href="#DejaVuSans-72" x="600.878906"/>
      <use xlink:href="#DejaVuSans-61" x="641.992188"/>
      <use xlink:href="#DejaVuSans-63" x="703.271484"/>
      <use xlink:href="#DejaVuSans-65" x="758.251953"/>
      <use xlink:href="#DejaVuSans-73" x="819.775391"/>
     </g>
    </g>
   </g>
   <g id="matplotlib.axis_2">
    <g id="ytick_1">
     <g id="line2d_23">
      <path d="M 46.965625 465.838125 
L 883.965625 465.838125 
" clip-path="url(#p63846e6c61)" style="fill: none; stroke: #b0b0b0; stroke-width: 0.8; stroke-linecap: square"/>
     </g>
     <g id="line2d_24">
      <defs>
       <path id="m1b8afae27d" d="M 0 0 
L -3.5 0 
" style="stroke: #000000; stroke-width: 0.8"/>
      </defs>
      <g>
       <use xlink:href="#m1b8afae27d" x="46.965625" y="465.838125" style="stroke: #000000; stroke-width: 0.8"/>
      </g>
     </g>
     <g id="text_13">
      <!-- 0 -->
      <g transform="translate(33.603125 469.637344) scale(0.1 -0.1)">
       <use xlink:href="#DejaVuSans-30"/>
      </g>
     </g>
    </g>
    <g id="ytick_2">
     <g id="line2d_25">
      <path d="M 46.965625 422.881985 
L 883.965625 422.881985 
" clip-path="url(#p63846e6c61)" style="fill: none; stroke: #b0b0b0; stroke-width: 0.8; stroke-linecap: square"/>
     </g>
     <g id="line2d_26">
      <g>
       <use xlink:href="#m1b8afae27d" x="46.965625" y="422.881985" style="stroke: #000000; stroke-width: 0.8"/>
      </g>
     </g>
     <g id="text_14">
      <!-- 10 -->
      <g transform="translate(27.240625 426.681204) scale(0.1 -0.1)">
       <use xlink:href="#DejaVuSans-31"/>
       <use xlink:href="#DejaVuSans-30" x="63.623047"/>
      </g>
     </g>
    </g>
    <g id="ytick_3">
     <g id="line2d_27">
      <path d="M 46.965625 379.925845 
L 883.965625 379.925845 
" clip-path="url(#p63846e6c61)" style="fill: none; stroke: #b0b0b0; stroke-width: 0.8; stroke-linecap: square"/>
     </g>
     <g id="line2d_28">
      <g>
       <use xlink:href="#m1b8afae27d" x="46.965625" y="379.925845" style="stroke: #000000; stroke-width: 0.8"/>
      </g>
     </g>
     <g id="text_15">
      <!-- 20 -->
      <g transform="translate(27.240625 383.725063) scale(0.1 -0.1)">
       <use xlink:href="#DejaVuSans-32"/>
       <use xlink:href="#DejaVuSans-30" x="63.623047"/>
      </g>
     </g>
    </g>
    <g id="ytick_4">
     <g id="line2d_29">
      <path d="M 46.965625 336.969704 
L 883.965625 336.969704 
" clip-path="url(#p63846e6c61)" style="fill: none; stroke: #b0b0b0; stroke-width: 0.8; stroke-linecap: square"/>
     </g>
     <g id="line2d_30">
      <g>
       <use xlink:href="#m1b8afae27d" x="46.965625" y="336.969704" style="stroke: #000000; stroke-width: 0.8"/>
      </g>
     </g>
     <g id="text_16">
      <!-- 30 -->
      <g transform="translate(27.240625 340.768923) scale(0.1 -0.1)">
       <use xlink:href="#DejaVuSans-33"/>
       <use xlink:href="#DejaVuSans-30" x="63.623047"/>
      </g>
     </g>
    </g>
    <g id="ytick_5">
     <g id="line2d_31">
      <path d="M 46.965625 294.013564 
L 883.965625 294.013564 
" clip-path="url(#p63846e6c61)" style="fill: none; stroke: #b0b0b0; stroke-width: 0.8; stroke-linecap: square"/>
     </g>
     <g id="line2d_32">
      <g>
       <use xlink:href="#m1b8afae27d" x="46.965625" y="294.013564" style="stroke: #000000; stroke-width: 0.8"/>
      </g>
     </g>
     <g id="text_17">
      <!-- 40 -->
      <g transform="translate(27.240625 297.812783) scale(0.1 -0.1)">
       <use xlink:href="#DejaVuSans-34"/>
       <use xlink:href="#DejaVuSans-30" x="63.623047"/>
      </g>
     </g>
    </g>
    <g id="ytick_6">
     <g id="line2d_33">
      <path d="M 46.965625 251.057424 
L 883.965625 251.057424 
" clip-path="url(#p63846e6c61)" style="fill: none; stroke: #b0b0b0; stroke-width: 0.8; stroke-linecap: square"/>
     </g>
     <g id="line2d_34">
      <g>
       <use xlink:href="#m1b8afae27d" x="46.965625" y="251.057424" style="stroke: #000000; stroke-width: 0.8"/>
      </g>
     </g>
     <g id="text_18">
      <!-- 50 -->
      <g transform="translate(27.240625 254.856643) scale(0.1 -0.1)">
       <use xlink:href="#DejaVuSans-35"/>
       <use xlink:href="#DejaVuSans-30" x="63.623047"/>
      </g>
     </g>
    </g>
    <g id="ytick_7">
     <g id="line2d_35">
      <path d="M 46.965625 208.101284 
L 883.965625 208.101284 
" clip-path="url(#p63846e6c61)" style="fill: none; stroke: #b0b0b0; stroke-width: 0.8; stroke-linecap: square"/>
     </g>
     <g id="line2d_36">
      <g>
       <use xlink:href="#m1b8afae27d" x="46.965625" y="208.101284" style="stroke: #000000; stroke-width: 0.8"/>
      </g>
     </g>
     <g id="text_19">
      <!-- 60 -->
      <g transform="translate(27.240625 211.900502) scale(0.1 -0.1)">
       <use xlink:href="#DejaVuSans-36"/>
       <use xlink:href="#DejaVuSans-30" x="63.623047"/>
      </g>
     </g>
    </g>
    <g id="ytick_8">
     <g id="line2d_37">
      <path d="M 46.965625 165.145143 
L 883.965625 165.145143 
" clip-path="url(#p63846e6c61)" style="fill: none; stroke: #b0b0b0; stroke-width: 0.8; stroke-linecap: square"/>
     </g>
     <g id="line2d_38">
      <g>
       <use xlink:href="#m1b8afae27d" x="46.965625" y="165.145143" style="stroke: #000000; stroke-width: 0.8"/>
      </g>
     </g>
     <g id="text_20">
      <!-- 70 -->
      <g transform="translate(27.240625 168.944362) scale(0.1 -0.1)">
       <use xlink:href="#DejaVuSans-37"/>
       <use xlink:href="#DejaVuSans-30" x="63.623047"/>
      </g>
     </g>
    </g>
    <g id="ytick_9">
     <g id="line2d_39">
      <path d="M 46.965625 122.189003 
L 883.965625 122.189003 
" clip-path="url(#p63846e6c61)" style="fill: none; stroke: #b0b0b0; stroke-width: 0.8; stroke-linecap: square"/>
     </g>
     <g id="line2d_40">
      <g>
       <use xlink:href="#m1b8afae27d" x="46.965625" y="122.189003" style="stroke: #000000; stroke-width: 0.8"/>
      </g>
     </g>
     <g id="text_21">
      <!-- 80 -->
      <g transform="translate(27.240625 125.988222) scale(0.1 -0.1)">
       <use xlink:href="#DejaVuSans-38"/>
       <use xlink:href="#DejaVuSans-30" x="63.623047"/>
      </g>
     </g>
    </g>
    <g id="ytick_10">
     <g id="line2d_41">
      <path d="M 46.965625 79.232863 
L 883.965625 79.232863 
" clip-path="url(#p63846e6c61)" style="fill: none; stroke: #b0b0b0; stroke-width: 0.8; stroke-linecap: square"/>
     </g>
     <g id="line2d_42">
      <g>
       <use xlink:href="#m1b8afae27d" x="46.965625" y="79.232863" style="stroke: #000000; stroke-width: 0.8"/>
      </g>
     </g>
     <g id="text_22">
      <!-- 90 -->
      <g transform="translate(27.240625 83.032082) scale(0.1 -0.1)">
       <use xlink:href="#DejaVuSans-39"/>
       <use xlink:href="#DejaVuSans-30" x="63.623047"/>
      </g>
     </g>
    </g>
    <g id="ytick_11">
     <g id="line2d_43">
      <path d="M 46.965625 36.276723 
L 883.965625 36.276723 
" clip-path="url(#p63846e6c61)" style="fill: none; stroke: #b0b0b0; stroke-width: 0.8; stroke-linecap: square"/>
     </g>
     <g id="line2d_44">
      <g>
       <use xlink:href="#m1b8afae27d" x="46.965625" y="36.276723" style="stroke: #000000; stroke-width: 0.8"/>
      </g>
     </g>
     <g id="text_23">
      <!-- 100 -->
      <g transform="translate(20.878125 40.075942) scale(0.1 -0.1)">
       <use xlink:href="#DejaVuSans-31"/>
       <use xlink:href="#DejaVuSans-30" x="63.623047"/>
       <use xlink:href="#DejaVuSans-30" x="127.246094"/>
      </g>
     </g>
    </g>
    <g id="text_24">
     <!-- GE -->
     <g transform="translate(14.798438 251.111719) rotate(-90) scale(0.1 -0.1)">
      <defs>
       <path id="DejaVuSans-47" d="M 3809 666 
L 3809 1919 
L 2778 1919 
L 2778 2438 
L 4434 2438 
L 4434 434 
Q 4069 175 3628 42 
Q 3188 -91 2688 -91 
Q 1594 -91 976 548 
Q 359 1188 359 2328 
Q 359 3472 976 4111 
Q 1594 4750 2688 4750 
Q 3144 4750 3555 4637 
Q 3966 4525 4313 4306 
L 4313 3634 
Q 3963 3931 3569 4081 
Q 3175 4231 2741 4231 
Q 1884 4231 1454 3753 
Q 1025 3275 1025 2328 
Q 1025 1384 1454 906 
Q 1884 428 2741 428 
Q 3075 428 3337 486 
Q 3600 544 3809 666 
z
" transform="scale(0.015625)"/>
       <path id="DejaVuSans-45" d="M 628 4666 
L 3578 4666 
L 3578 4134 
L 1259 4134 
L 1259 2753 
L 3481 2753 
L 3481 2222 
L 1259 2222 
L 1259 531 
L 3634 531 
L 3634 0 
L 628 0 
L 628 4666 
z
" transform="scale(0.015625)"/>
      </defs>
      <use xlink:href="#DejaVuSans-47"/>
      <use xlink:href="#DejaVuSans-45" x="77.490234"/>
     </g>
    </g>
   </g>
   <g id="line2d_45">
    <path d="M 845.92017 465.838125 
L 845.92017 22.318125 
" clip-path="url(#p63846e6c61)" style="fill: none; stroke-dasharray: 5.55,2.4; stroke-dashoffset: 0; stroke: #ff0000; stroke-width: 1.5"/>
   </g>
   <g id="line2d_46">
    <path d="M 85.01108 134.345591 
L 92.69703 55.0056 
L 100.38298 42.290582 
L 108.068931 54.232389 
L 115.754881 67.763574 
L 123.440832 91.17467 
L 131.126782 115.745582 
L 138.812732 127.90217 
L 146.498683 152.516038 
L 154.184633 148.0486 
L 161.870584 154.406108 
L 169.556534 166.562696 
L 177.242485 178.934064 
L 184.928435 185.076792 
L 192.614385 197.147468 
L 200.300336 204.793661 
L 207.986286 212.439854 
L 215.672237 218.410757 
L 223.358187 224.338705 
L 231.044137 229.192749 
L 238.730088 228.462494 
L 246.416038 235.335477 
L 254.101989 237.139634 
L 261.787939 225.84217 
L 269.473889 225.799213 
L 277.15984 232.156722 
L 284.84579 238.471275 
L 292.531741 250.54195 
L 300.217691 263.944266 
L 307.903642 270.344731 
L 315.589592 272.707319 
L 323.275542 282.329494 
L 330.961493 277.217713 
L 338.647443 289.417257 
L 346.333394 292.467143 
L 354.019344 289.846819 
L 361.705294 292.209406 
L 369.391245 307.158143 
L 377.077195 316.565538 
L 384.763146 322.708266 
L 392.449096 325.199722 
L 400.135046 331.814968 
L 407.820997 337.528134 
L 415.506947 337.01266 
L 423.192898 345.002503 
L 430.878848 348.224213 
L 438.564799 354.882415 
L 446.250749 356.085187 
L 453.936699 361.068099 
L 461.62265 361.755397 
L 469.3086 363.430687 
L 476.994551 367.984038 
L 484.680501 372.107827 
L 492.366451 373.911985 
L 500.052402 377.992818 
L 507.738352 378.851941 
L 515.424303 380.183581 
L 523.110253 382.803906 
L 530.796204 382.846862 
L 538.482154 384.135546 
L 546.168104 384.865801 
L 553.854055 388.774809 
L 561.540005 392.211301 
L 569.225956 392.898599 
L 576.911906 393.11338 
L 584.597856 391.481046 
L 592.283807 390.192362 
L 599.969757 390.020538 
L 607.655708 389.505064 
L 615.341658 391.008529 
L 623.027608 391.867652 
L 630.713559 395.00345 
L 638.399509 396.33509 
L 646.08546 397.967423 
L 653.77141 397.323081 
L 661.457361 398.354029 
L 669.143311 397.580818 
L 676.829261 400.630704 
L 684.515212 398.611766 
L 692.201162 402.305994 
L 699.887113 400.974353 
L 707.573063 404.926318 
L 715.259013 406.429783 
L 722.944964 411.197915 
L 730.630914 411.756344 
L 738.316865 411.197915 
L 746.002815 413.087985 
L 753.688765 414.376669 
L 761.374716 415.063967 
L 769.060666 414.376669 
L 776.746617 417.125862 
L 784.432567 417.25473 
L 792.118518 418.027941 
L 799.804468 417.59838 
L 807.490418 419.058888 
L 815.176369 417.383599 
L 822.862319 417.727248 
L 830.54827 419.660274 
L 838.23422 419.875055 
L 845.92017 420.991915 
" clip-path="url(#p63846e6c61)" style="fill: none; stroke: #ff0000; stroke-width: 1.5; stroke-linecap: square"/>
    <defs>
     <path id="mcbe3c1b4e3" d="M 0 3 
C 0.795609 3 1.55874 2.683901 2.12132 2.12132 
C 2.683901 1.55874 3 0.795609 3 0 
C 3 -0.795609 2.683901 -1.55874 2.12132 -2.12132 
C 1.55874 -2.683901 0.795609 -3 0 -3 
C -0.795609 -3 -1.55874 -2.683901 -2.12132 -2.12132 
C -2.683901 -1.55874 -3 -0.795609 -3 0 
C -3 0.795609 -2.683901 1.55874 -2.12132 2.12132 
C -1.55874 2.683901 -0.795609 3 0 3 
z
" style="stroke: #ff0000"/>
    </defs>
    <g clip-path="url(#p63846e6c61)">
     <use xlink:href="#mcbe3c1b4e3" x="85.01108" y="134.345591" style="fill: #ff0000; stroke: #ff0000"/>
     <use xlink:href="#mcbe3c1b4e3" x="92.69703" y="55.0056" style="fill: #ff0000; stroke: #ff0000"/>
     <use xlink:href="#mcbe3c1b4e3" x="100.38298" y="42.290582" style="fill: #ff0000; stroke: #ff0000"/>
     <use xlink:href="#mcbe3c1b4e3" x="108.068931" y="54.232389" style="fill: #ff0000; stroke: #ff0000"/>
     <use xlink:href="#mcbe3c1b4e3" x="115.754881" y="67.763574" style="fill: #ff0000; stroke: #ff0000"/>
     <use xlink:href="#mcbe3c1b4e3" x="123.440832" y="91.17467" style="fill: #ff0000; stroke: #ff0000"/>
     <use xlink:href="#mcbe3c1b4e3" x="131.126782" y="115.745582" style="fill: #ff0000; stroke: #ff0000"/>
     <use xlink:href="#mcbe3c1b4e3" x="138.812732" y="127.90217" style="fill: #ff0000; stroke: #ff0000"/>
     <use xlink:href="#mcbe3c1b4e3" x="146.498683" y="152.516038" style="fill: #ff0000; stroke: #ff0000"/>
     <use xlink:href="#mcbe3c1b4e3" x="154.184633" y="148.0486" style="fill: #ff0000; stroke: #ff0000"/>
     <use xlink:href="#mcbe3c1b4e3" x="161.870584" y="154.406108" style="fill: #ff0000; stroke: #ff0000"/>
     <use xlink:href="#mcbe3c1b4e3" x="169.556534" y="166.562696" style="fill: #ff0000; stroke: #ff0000"/>
     <use xlink:href="#mcbe3c1b4e3" x="177.242485" y="178.934064" style="fill: #ff0000; stroke: #ff0000"/>
     <use xlink:href="#mcbe3c1b4e3" x="184.928435" y="185.076792" style="fill: #ff0000; stroke: #ff0000"/>
     <use xlink:href="#mcbe3c1b4e3" x="192.614385" y="197.147468" style="fill: #ff0000; stroke: #ff0000"/>
     <use xlink:href="#mcbe3c1b4e3" x="200.300336" y="204.793661" style="fill: #ff0000; stroke: #ff0000"/>
     <use xlink:href="#mcbe3c1b4e3" x="207.986286" y="212.439854" style="fill: #ff0000; stroke: #ff0000"/>
     <use xlink:href="#mcbe3c1b4e3" x="215.672237" y="218.410757" style="fill: #ff0000; stroke: #ff0000"/>
     <use xlink:href="#mcbe3c1b4e3" x="223.358187" y="224.338705" style="fill: #ff0000; stroke: #ff0000"/>
     <use xlink:href="#mcbe3c1b4e3" x="231.044137" y="229.192749" style="fill: #ff0000; stroke: #ff0000"/>
     <use xlink:href="#mcbe3c1b4e3" x="238.730088" y="228.462494" style="fill: #ff0000; stroke: #ff0000"/>
     <use xlink:href="#mcbe3c1b4e3" x="246.416038" y="235.335477" style="fill: #ff0000; stroke: #ff0000"/>
     <use xlink:href="#mcbe3c1b4e3" x="254.101989" y="237.139634" style="fill: #ff0000; stroke: #ff0000"/>
     <use xlink:href="#mcbe3c1b4e3" x="261.787939" y="225.84217" style="fill: #ff0000; stroke: #ff0000"/>
     <use xlink:href="#mcbe3c1b4e3" x="269.473889" y="225.799213" style="fill: #ff0000; stroke: #ff0000"/>
     <use xlink:href="#mcbe3c1b4e3" x="277.15984" y="232.156722" style="fill: #ff0000; stroke: #ff0000"/>
     <use xlink:href="#mcbe3c1b4e3" x="284.84579" y="238.471275" style="fill: #ff0000; stroke: #ff0000"/>
     <use xlink:href="#mcbe3c1b4e3" x="292.531741" y="250.54195" style="fill: #ff0000; stroke: #ff0000"/>
     <use xlink:href="#mcbe3c1b4e3" x="300.217691" y="263.944266" style="fill: #ff0000; stroke: #ff0000"/>
     <use xlink:href="#mcbe3c1b4e3" x="307.903642" y="270.344731" style="fill: #ff0000; stroke: #ff0000"/>
     <use xlink:href="#mcbe3c1b4e3" x="315.589592" y="272.707319" style="fill: #ff0000; stroke: #ff0000"/>
     <use xlink:href="#mcbe3c1b4e3" x="323.275542" y="282.329494" style="fill: #ff0000; stroke: #ff0000"/>
     <use xlink:href="#mcbe3c1b4e3" x="330.961493" y="277.217713" style="fill: #ff0000; stroke: #ff0000"/>
     <use xlink:href="#mcbe3c1b4e3" x="338.647443" y="289.417257" style="fill: #ff0000; stroke: #ff0000"/>
     <use xlink:href="#mcbe3c1b4e3" x="346.333394" y="292.467143" style="fill: #ff0000; stroke: #ff0000"/>
     <use xlink:href="#mcbe3c1b4e3" x="354.019344" y="289.846819" style="fill: #ff0000; stroke: #ff0000"/>
     <use xlink:href="#mcbe3c1b4e3" x="361.705294" y="292.209406" style="fill: #ff0000; stroke: #ff0000"/>
     <use xlink:href="#mcbe3c1b4e3" x="369.391245" y="307.158143" style="fill: #ff0000; stroke: #ff0000"/>
     <use xlink:href="#mcbe3c1b4e3" x="377.077195" y="316.565538" style="fill: #ff0000; stroke: #ff0000"/>
     <use xlink:href="#mcbe3c1b4e3" x="384.763146" y="322.708266" style="fill: #ff0000; stroke: #ff0000"/>
     <use xlink:href="#mcbe3c1b4e3" x="392.449096" y="325.199722" style="fill: #ff0000; stroke: #ff0000"/>
     <use xlink:href="#mcbe3c1b4e3" x="400.135046" y="331.814968" style="fill: #ff0000; stroke: #ff0000"/>
     <use xlink:href="#mcbe3c1b4e3" x="407.820997" y="337.528134" style="fill: #ff0000; stroke: #ff0000"/>
     <use xlink:href="#mcbe3c1b4e3" x="415.506947" y="337.01266" style="fill: #ff0000; stroke: #ff0000"/>
     <use xlink:href="#mcbe3c1b4e3" x="423.192898" y="345.002503" style="fill: #ff0000; stroke: #ff0000"/>
     <use xlink:href="#mcbe3c1b4e3" x="430.878848" y="348.224213" style="fill: #ff0000; stroke: #ff0000"/>
     <use xlink:href="#mcbe3c1b4e3" x="438.564799" y="354.882415" style="fill: #ff0000; stroke: #ff0000"/>
     <use xlink:href="#mcbe3c1b4e3" x="446.250749" y="356.085187" style="fill: #ff0000; stroke: #ff0000"/>
     <use xlink:href="#mcbe3c1b4e3" x="453.936699" y="361.068099" style="fill: #ff0000; stroke: #ff0000"/>
     <use xlink:href="#mcbe3c1b4e3" x="461.62265" y="361.755397" style="fill: #ff0000; stroke: #ff0000"/>
     <use xlink:href="#mcbe3c1b4e3" x="469.3086" y="363.430687" style="fill: #ff0000; stroke: #ff0000"/>
     <use xlink:href="#mcbe3c1b4e3" x="476.994551" y="367.984038" style="fill: #ff0000; stroke: #ff0000"/>
     <use xlink:href="#mcbe3c1b4e3" x="484.680501" y="372.107827" style="fill: #ff0000; stroke: #ff0000"/>
     <use xlink:href="#mcbe3c1b4e3" x="492.366451" y="373.911985" style="fill: #ff0000; stroke: #ff0000"/>
     <use xlink:href="#mcbe3c1b4e3" x="500.052402" y="377.992818" style="fill: #ff0000; stroke: #ff0000"/>
     <use xlink:href="#mcbe3c1b4e3" x="507.738352" y="378.851941" style="fill: #ff0000; stroke: #ff0000"/>
     <use xlink:href="#mcbe3c1b4e3" x="515.424303" y="380.183581" style="fill: #ff0000; stroke: #ff0000"/>
     <use xlink:href="#mcbe3c1b4e3" x="523.110253" y="382.803906" style="fill: #ff0000; stroke: #ff0000"/>
     <use xlink:href="#mcbe3c1b4e3" x="530.796204" y="382.846862" style="fill: #ff0000; stroke: #ff0000"/>
     <use xlink:href="#mcbe3c1b4e3" x="538.482154" y="384.135546" style="fill: #ff0000; stroke: #ff0000"/>
     <use xlink:href="#mcbe3c1b4e3" x="546.168104" y="384.865801" style="fill: #ff0000; stroke: #ff0000"/>
     <use xlink:href="#mcbe3c1b4e3" x="553.854055" y="388.774809" style="fill: #ff0000; stroke: #ff0000"/>
     <use xlink:href="#mcbe3c1b4e3" x="561.540005" y="392.211301" style="fill: #ff0000; stroke: #ff0000"/>
     <use xlink:href="#mcbe3c1b4e3" x="569.225956" y="392.898599" style="fill: #ff0000; stroke: #ff0000"/>
     <use xlink:href="#mcbe3c1b4e3" x="576.911906" y="393.11338" style="fill: #ff0000; stroke: #ff0000"/>
     <use xlink:href="#mcbe3c1b4e3" x="584.597856" y="391.481046" style="fill: #ff0000; stroke: #ff0000"/>
     <use xlink:href="#mcbe3c1b4e3" x="592.283807" y="390.192362" style="fill: #ff0000; stroke: #ff0000"/>
     <use xlink:href="#mcbe3c1b4e3" x="599.969757" y="390.020538" style="fill: #ff0000; stroke: #ff0000"/>
     <use xlink:href="#mcbe3c1b4e3" x="607.655708" y="389.505064" style="fill: #ff0000; stroke: #ff0000"/>
     <use xlink:href="#mcbe3c1b4e3" x="615.341658" y="391.008529" style="fill: #ff0000; stroke: #ff0000"/>
     <use xlink:href="#mcbe3c1b4e3" x="623.027608" y="391.867652" style="fill: #ff0000; stroke: #ff0000"/>
     <use xlink:href="#mcbe3c1b4e3" x="630.713559" y="395.00345" style="fill: #ff0000; stroke: #ff0000"/>
     <use xlink:href="#mcbe3c1b4e3" x="638.399509" y="396.33509" style="fill: #ff0000; stroke: #ff0000"/>
     <use xlink:href="#mcbe3c1b4e3" x="646.08546" y="397.967423" style="fill: #ff0000; stroke: #ff0000"/>
     <use xlink:href="#mcbe3c1b4e3" x="653.77141" y="397.323081" style="fill: #ff0000; stroke: #ff0000"/>
     <use xlink:href="#mcbe3c1b4e3" x="661.457361" y="398.354029" style="fill: #ff0000; stroke: #ff0000"/>
     <use xlink:href="#mcbe3c1b4e3" x="669.143311" y="397.580818" style="fill: #ff0000; stroke: #ff0000"/>
     <use xlink:href="#mcbe3c1b4e3" x="676.829261" y="400.630704" style="fill: #ff0000; stroke: #ff0000"/>
     <use xlink:href="#mcbe3c1b4e3" x="684.515212" y="398.611766" style="fill: #ff0000; stroke: #ff0000"/>
     <use xlink:href="#mcbe3c1b4e3" x="692.201162" y="402.305994" style="fill: #ff0000; stroke: #ff0000"/>
     <use xlink:href="#mcbe3c1b4e3" x="699.887113" y="400.974353" style="fill: #ff0000; stroke: #ff0000"/>
     <use xlink:href="#mcbe3c1b4e3" x="707.573063" y="404.926318" style="fill: #ff0000; stroke: #ff0000"/>
     <use xlink:href="#mcbe3c1b4e3" x="715.259013" y="406.429783" style="fill: #ff0000; stroke: #ff0000"/>
     <use xlink:href="#mcbe3c1b4e3" x="722.944964" y="411.197915" style="fill: #ff0000; stroke: #ff0000"/>
     <use xlink:href="#mcbe3c1b4e3" x="730.630914" y="411.756344" style="fill: #ff0000; stroke: #ff0000"/>
     <use xlink:href="#mcbe3c1b4e3" x="738.316865" y="411.197915" style="fill: #ff0000; stroke: #ff0000"/>
     <use xlink:href="#mcbe3c1b4e3" x="746.002815" y="413.087985" style="fill: #ff0000; stroke: #ff0000"/>
     <use xlink:href="#mcbe3c1b4e3" x="753.688765" y="414.376669" style="fill: #ff0000; stroke: #ff0000"/>
     <use xlink:href="#mcbe3c1b4e3" x="761.374716" y="415.063967" style="fill: #ff0000; stroke: #ff0000"/>
     <use xlink:href="#mcbe3c1b4e3" x="769.060666" y="414.376669" style="fill: #ff0000; stroke: #ff0000"/>
     <use xlink:href="#mcbe3c1b4e3" x="776.746617" y="417.125862" style="fill: #ff0000; stroke: #ff0000"/>
     <use xlink:href="#mcbe3c1b4e3" x="784.432567" y="417.25473" style="fill: #ff0000; stroke: #ff0000"/>
     <use xlink:href="#mcbe3c1b4e3" x="792.118518" y="418.027941" style="fill: #ff0000; stroke: #ff0000"/>
     <use xlink:href="#mcbe3c1b4e3" x="799.804468" y="417.59838" style="fill: #ff0000; stroke: #ff0000"/>
     <use xlink:href="#mcbe3c1b4e3" x="807.490418" y="419.058888" style="fill: #ff0000; stroke: #ff0000"/>
     <use xlink:href="#mcbe3c1b4e3" x="815.176369" y="417.383599" style="fill: #ff0000; stroke: #ff0000"/>
     <use xlink:href="#mcbe3c1b4e3" x="822.862319" y="417.727248" style="fill: #ff0000; stroke: #ff0000"/>
     <use xlink:href="#mcbe3c1b4e3" x="830.54827" y="419.660274" style="fill: #ff0000; stroke: #ff0000"/>
     <use xlink:href="#mcbe3c1b4e3" x="838.23422" y="419.875055" style="fill: #ff0000; stroke: #ff0000"/>
     <use xlink:href="#mcbe3c1b4e3" x="845.92017" y="420.991915" style="fill: #ff0000; stroke: #ff0000"/>
    </g>
   </g>
   <g id="line2d_47">
    <path d="M 845.92017 465.838125 
L 845.92017 22.318125 
" clip-path="url(#p63846e6c61)" style="fill: none; stroke-dasharray: 5.55,2.4; stroke-dashoffset: 0; stroke: #008000; stroke-width: 1.5"/>
   </g>
   <g id="line2d_48">
    <path d="M 85.01108 105.221328 
L 92.69703 46.32846 
L 100.38298 73.47674 
L 108.068931 94.439337 
L 115.754881 133.013951 
L 123.440832 145.81488 
L 131.126782 152.773775 
L 138.812732 158.830591 
L 146.498683 197.448161 
L 154.184633 209.819529 
L 161.870584 224.16688 
L 169.556534 235.507301 
L 177.242485 243.024626 
L 184.928435 249.940564 
L 192.614385 263.686529 
L 200.300336 272.707319 
L 207.986286 273.566441 
L 215.672237 276.487459 
L 223.358187 288.772915 
L 231.044137 290.877766 
L 238.730088 297.879617 
L 246.416038 303.721652 
L 254.101989 314.589555 
L 261.787939 324.55538 
L 269.473889 331.686099 
L 277.15984 333.747994 
L 284.84579 336.626055 
L 292.531741 336.626055 
L 300.217691 345.904581 
L 307.903642 345.303196 
L 315.589592 349.25516 
L 323.275542 349.25516 
L 330.961493 355.354932 
L 338.647443 357.71752 
L 346.333394 366.222836 
L 354.019344 369.143853 
L 361.705294 374.814064 
L 369.391245 377.133695 
L 377.077195 377.649169 
L 384.763146 379.75402 
L 392.449096 379.066722 
L 400.135046 379.668108 
L 407.820997 382.073652 
L 415.506947 382.717994 
L 423.192898 381.128616 
L 430.878848 382.546169 
L 438.564799 387.013608 
L 446.250749 392.855643 
L 453.936699 395.261187 
L 461.62265 397.580818 
L 469.3086 401.532783 
L 476.994551 403.208073 
L 484.680501 404.711537 
L 492.366451 405.269967 
L 500.052402 403.938327 
L 507.738352 402.391906 
L 515.424303 406.172046 
L 523.110253 407.24595 
L 530.796204 409.995143 
L 538.482154 413.302766 
L 546.168104 414.290757 
L 553.854055 414.376669 
L 561.540005 412.314774 
L 569.225956 415.36466 
L 576.911906 413.947108 
L 584.597856 414.548494 
L 592.283807 416.137871 
L 599.969757 416.524476 
L 607.655708 420.562353 
L 615.341658 422.280599 
L 623.027608 422.967897 
L 630.713559 425.760046 
L 638.399509 427.564204 
L 646.08546 428.122634 
L 653.77141 430.571134 
L 661.457361 429.797923 
L 669.143311 431.859818 
L 676.829261 432.804853 
L 684.515212 432.804853 
L 692.201162 433.792844 
L 699.887113 434.909704 
L 707.573063 435.124485 
L 715.259013 435.339265 
L 722.944964 436.456125 
L 730.630914 435.124485 
L 738.316865 434.866748 
L 746.002815 436.06952 
L 753.688765 439.119406 
L 761.374716 437.916634 
L 769.060666 439.506011 
L 776.746617 439.677836 
L 784.432567 439.634879 
L 792.118518 439.248274 
L 799.804468 437.186379 
L 807.490418 437.315248 
L 815.176369 439.463055 
L 822.862319 438.646888 
L 830.54827 438.775757 
L 838.23422 437.830722 
L 845.92017 440.279222 
" clip-path="url(#p63846e6c61)" style="fill: none; stroke: #008000; stroke-width: 1.5; stroke-linecap: square"/>
    <defs>
     <path id="m039dea7dbd" d="M 0 3 
C 0.795609 3 1.55874 2.683901 2.12132 2.12132 
C 2.683901 1.55874 3 0.795609 3 0 
C 3 -0.795609 2.683901 -1.55874 2.12132 -2.12132 
C 1.55874 -2.683901 0.795609 -3 0 -3 
C -0.795609 -3 -1.55874 -2.683901 -2.12132 -2.12132 
C -2.683901 -1.55874 -3 -0.795609 -3 0 
C -3 0.795609 -2.683901 1.55874 -2.12132 2.12132 
C -1.55874 2.683901 -0.795609 3 0 3 
z
" style="stroke: #008000"/>
    </defs>
    <g clip-path="url(#p63846e6c61)">
     <use xlink:href="#m039dea7dbd" x="85.01108" y="105.221328" style="fill: #008000; stroke: #008000"/>
     <use xlink:href="#m039dea7dbd" x="92.69703" y="46.32846" style="fill: #008000; stroke: #008000"/>
     <use xlink:href="#m039dea7dbd" x="100.38298" y="73.47674" style="fill: #008000; stroke: #008000"/>
     <use xlink:href="#m039dea7dbd" x="108.068931" y="94.439337" style="fill: #008000; stroke: #008000"/>
     <use xlink:href="#m039dea7dbd" x="115.754881" y="133.013951" style="fill: #008000; stroke: #008000"/>
     <use xlink:href="#m039dea7dbd" x="123.440832" y="145.81488" style="fill: #008000; stroke: #008000"/>
     <use xlink:href="#m039dea7dbd" x="131.126782" y="152.773775" style="fill: #008000; stroke: #008000"/>
     <use xlink:href="#m039dea7dbd" x="138.812732" y="158.830591" style="fill: #008000; stroke: #008000"/>
     <use xlink:href="#m039dea7dbd" x="146.498683" y="197.448161" style="fill: #008000; stroke: #008000"/>
     <use xlink:href="#m039dea7dbd" x="154.184633" y="209.819529" style="fill: #008000; stroke: #008000"/>
     <use xlink:href="#m039dea7dbd" x="161.870584" y="224.16688" style="fill: #008000; stroke: #008000"/>
     <use xlink:href="#m039dea7dbd" x="169.556534" y="235.507301" style="fill: #008000; stroke: #008000"/>
     <use xlink:href="#m039dea7dbd" x="177.242485" y="243.024626" style="fill: #008000; stroke: #008000"/>
     <use xlink:href="#m039dea7dbd" x="184.928435" y="249.940564" style="fill: #008000; stroke: #008000"/>
     <use xlink:href="#m039dea7dbd" x="192.614385" y="263.686529" style="fill: #008000; stroke: #008000"/>
     <use xlink:href="#m039dea7dbd" x="200.300336" y="272.707319" style="fill: #008000; stroke: #008000"/>
     <use xlink:href="#m039dea7dbd" x="207.986286" y="273.566441" style="fill: #008000; stroke: #008000"/>
     <use xlink:href="#m039dea7dbd" x="215.672237" y="276.487459" style="fill: #008000; stroke: #008000"/>
     <use xlink:href="#m039dea7dbd" x="223.358187" y="288.772915" style="fill: #008000; stroke: #008000"/>
     <use xlink:href="#m039dea7dbd" x="231.044137" y="290.877766" style="fill: #008000; stroke: #008000"/>
     <use xlink:href="#m039dea7dbd" x="238.730088" y="297.879617" style="fill: #008000; stroke: #008000"/>
     <use xlink:href="#m039dea7dbd" x="246.416038" y="303.721652" style="fill: #008000; stroke: #008000"/>
     <use xlink:href="#m039dea7dbd" x="254.101989" y="314.589555" style="fill: #008000; stroke: #008000"/>
     <use xlink:href="#m039dea7dbd" x="261.787939" y="324.55538" style="fill: #008000; stroke: #008000"/>
     <use xlink:href="#m039dea7dbd" x="269.473889" y="331.686099" style="fill: #008000; stroke: #008000"/>
     <use xlink:href="#m039dea7dbd" x="277.15984" y="333.747994" style="fill: #008000; stroke: #008000"/>
     <use xlink:href="#m039dea7dbd" x="284.84579" y="336.626055" style="fill: #008000; stroke: #008000"/>
     <use xlink:href="#m039dea7dbd" x="292.531741" y="336.626055" style="fill: #008000; stroke: #008000"/>
     <use xlink:href="#m039dea7dbd" x="300.217691" y="345.904581" style="fill: #008000; stroke: #008000"/>
     <use xlink:href="#m039dea7dbd" x="307.903642" y="345.303196" style="fill: #008000; stroke: #008000"/>
     <use xlink:href="#m039dea7dbd" x="315.589592" y="349.25516" style="fill: #008000; stroke: #008000"/>
     <use xlink:href="#m039dea7dbd" x="323.275542" y="349.25516" style="fill: #008000; stroke: #008000"/>
     <use xlink:href="#m039dea7dbd" x="330.961493" y="355.354932" style="fill: #008000; stroke: #008000"/>
     <use xlink:href="#m039dea7dbd" x="338.647443" y="357.71752" style="fill: #008000; stroke: #008000"/>
     <use xlink:href="#m039dea7dbd" x="346.333394" y="366.222836" style="fill: #008000; stroke: #008000"/>
     <use xlink:href="#m039dea7dbd" x="354.019344" y="369.143853" style="fill: #008000; stroke: #008000"/>
     <use xlink:href="#m039dea7dbd" x="361.705294" y="374.814064" style="fill: #008000; stroke: #008000"/>
     <use xlink:href="#m039dea7dbd" x="369.391245" y="377.133695" style="fill: #008000; stroke: #008000"/>
     <use xlink:href="#m039dea7dbd" x="377.077195" y="377.649169" style="fill: #008000; stroke: #008000"/>
     <use xlink:href="#m039dea7dbd" x="384.763146" y="379.75402" style="fill: #008000; stroke: #008000"/>
     <use xlink:href="#m039dea7dbd" x="392.449096" y="379.066722" style="fill: #008000; stroke: #008000"/>
     <use xlink:href="#m039dea7dbd" x="400.135046" y="379.668108" style="fill: #008000; stroke: #008000"/>
     <use xlink:href="#m039dea7dbd" x="407.820997" y="382.073652" style="fill: #008000; stroke: #008000"/>
     <use xlink:href="#m039dea7dbd" x="415.506947" y="382.717994" style="fill: #008000; stroke: #008000"/>
     <use xlink:href="#m039dea7dbd" x="423.192898" y="381.128616" style="fill: #008000; stroke: #008000"/>
     <use xlink:href="#m039dea7dbd" x="430.878848" y="382.546169" style="fill: #008000; stroke: #008000"/>
     <use xlink:href="#m039dea7dbd" x="438.564799" y="387.013608" style="fill: #008000; stroke: #008000"/>
     <use xlink:href="#m039dea7dbd" x="446.250749" y="392.855643" style="fill: #008000; stroke: #008000"/>
     <use xlink:href="#m039dea7dbd" x="453.936699" y="395.261187" style="fill: #008000; stroke: #008000"/>
     <use xlink:href="#m039dea7dbd" x="461.62265" y="397.580818" style="fill: #008000; stroke: #008000"/>
     <use xlink:href="#m039dea7dbd" x="469.3086" y="401.532783" style="fill: #008000; stroke: #008000"/>
     <use xlink:href="#m039dea7dbd" x="476.994551" y="403.208073" style="fill: #008000; stroke: #008000"/>
     <use xlink:href="#m039dea7dbd" x="484.680501" y="404.711537" style="fill: #008000; stroke: #008000"/>
     <use xlink:href="#m039dea7dbd" x="492.366451" y="405.269967" style="fill: #008000; stroke: #008000"/>
     <use xlink:href="#m039dea7dbd" x="500.052402" y="403.938327" style="fill: #008000; stroke: #008000"/>
     <use xlink:href="#m039dea7dbd" x="507.738352" y="402.391906" style="fill: #008000; stroke: #008000"/>
     <use xlink:href="#m039dea7dbd" x="515.424303" y="406.172046" style="fill: #008000; stroke: #008000"/>
     <use xlink:href="#m039dea7dbd" x="523.110253" y="407.24595" style="fill: #008000; stroke: #008000"/>
     <use xlink:href="#m039dea7dbd" x="530.796204" y="409.995143" style="fill: #008000; stroke: #008000"/>
     <use xlink:href="#m039dea7dbd" x="538.482154" y="413.302766" style="fill: #008000; stroke: #008000"/>
     <use xlink:href="#m039dea7dbd" x="546.168104" y="414.290757" style="fill: #008000; stroke: #008000"/>
     <use xlink:href="#m039dea7dbd" x="553.854055" y="414.376669" style="fill: #008000; stroke: #008000"/>
     <use xlink:href="#m039dea7dbd" x="561.540005" y="412.314774" style="fill: #008000; stroke: #008000"/>
     <use xlink:href="#m039dea7dbd" x="569.225956" y="415.36466" style="fill: #008000; stroke: #008000"/>
     <use xlink:href="#m039dea7dbd" x="576.911906" y="413.947108" style="fill: #008000; stroke: #008000"/>
     <use xlink:href="#m039dea7dbd" x="584.597856" y="414.548494" style="fill: #008000; stroke: #008000"/>
     <use xlink:href="#m039dea7dbd" x="592.283807" y="416.137871" style="fill: #008000; stroke: #008000"/>
     <use xlink:href="#m039dea7dbd" x="599.969757" y="416.524476" style="fill: #008000; stroke: #008000"/>
     <use xlink:href="#m039dea7dbd" x="607.655708" y="420.562353" style="fill: #008000; stroke: #008000"/>
     <use xlink:href="#m039dea7dbd" x="615.341658" y="422.280599" style="fill: #008000; stroke: #008000"/>
     <use xlink:href="#m039dea7dbd" x="623.027608" y="422.967897" style="fill: #008000; stroke: #008000"/>
     <use xlink:href="#m039dea7dbd" x="630.713559" y="425.760046" style="fill: #008000; stroke: #008000"/>
     <use xlink:href="#m039dea7dbd" x="638.399509" y="427.564204" style="fill: #008000; stroke: #008000"/>
     <use xlink:href="#m039dea7dbd" x="646.08546" y="428.122634" style="fill: #008000; stroke: #008000"/>
     <use xlink:href="#m039dea7dbd" x="653.77141" y="430.571134" style="fill: #008000; stroke: #008000"/>
     <use xlink:href="#m039dea7dbd" x="661.457361" y="429.797923" style="fill: #008000; stroke: #008000"/>
     <use xlink:href="#m039dea7dbd" x="669.143311" y="431.859818" style="fill: #008000; stroke: #008000"/>
     <use xlink:href="#m039dea7dbd" x="676.829261" y="432.804853" style="fill: #008000; stroke: #008000"/>
     <use xlink:href="#m039dea7dbd" x="684.515212" y="432.804853" style="fill: #008000; stroke: #008000"/>
     <use xlink:href="#m039dea7dbd" x="692.201162" y="433.792844" style="fill: #008000; stroke: #008000"/>
     <use xlink:href="#m039dea7dbd" x="699.887113" y="434.909704" style="fill: #008000; stroke: #008000"/>
     <use xlink:href="#m039dea7dbd" x="707.573063" y="435.124485" style="fill: #008000; stroke: #008000"/>
     <use xlink:href="#m039dea7dbd" x="715.259013" y="435.339265" style="fill: #008000; stroke: #008000"/>
     <use xlink:href="#m039dea7dbd" x="722.944964" y="436.456125" style="fill: #008000; stroke: #008000"/>
     <use xlink:href="#m039dea7dbd" x="730.630914" y="435.124485" style="fill: #008000; stroke: #008000"/>
     <use xlink:href="#m039dea7dbd" x="738.316865" y="434.866748" style="fill: #008000; stroke: #008000"/>
     <use xlink:href="#m039dea7dbd" x="746.002815" y="436.06952" style="fill: #008000; stroke: #008000"/>
     <use xlink:href="#m039dea7dbd" x="753.688765" y="439.119406" style="fill: #008000; stroke: #008000"/>
     <use xlink:href="#m039dea7dbd" x="761.374716" y="437.916634" style="fill: #008000; stroke: #008000"/>
     <use xlink:href="#m039dea7dbd" x="769.060666" y="439.506011" style="fill: #008000; stroke: #008000"/>
     <use xlink:href="#m039dea7dbd" x="776.746617" y="439.677836" style="fill: #008000; stroke: #008000"/>
     <use xlink:href="#m039dea7dbd" x="784.432567" y="439.634879" style="fill: #008000; stroke: #008000"/>
     <use xlink:href="#m039dea7dbd" x="792.118518" y="439.248274" style="fill: #008000; stroke: #008000"/>
     <use xlink:href="#m039dea7dbd" x="799.804468" y="437.186379" style="fill: #008000; stroke: #008000"/>
     <use xlink:href="#m039dea7dbd" x="807.490418" y="437.315248" style="fill: #008000; stroke: #008000"/>
     <use xlink:href="#m039dea7dbd" x="815.176369" y="439.463055" style="fill: #008000; stroke: #008000"/>
     <use xlink:href="#m039dea7dbd" x="822.862319" y="438.646888" style="fill: #008000; stroke: #008000"/>
     <use xlink:href="#m039dea7dbd" x="830.54827" y="438.775757" style="fill: #008000; stroke: #008000"/>
     <use xlink:href="#m039dea7dbd" x="838.23422" y="437.830722" style="fill: #008000; stroke: #008000"/>
     <use xlink:href="#m039dea7dbd" x="845.92017" y="440.279222" style="fill: #008000; stroke: #008000"/>
    </g>
   </g>
   <g id="line2d_49">
    <path d="M 845.92017 465.838125 
L 845.92017 22.318125 
" clip-path="url(#p63846e6c61)" style="fill: none; stroke-dasharray: 5.55,2.4; stroke-dashoffset: 0; stroke: #0000ff; stroke-width: 1.5"/>
   </g>
   <g id="line2d_50">
    <path d="M 85.01108 48.003749 
L 92.69703 65.014381 
L 100.38298 63.253179 
L 108.068931 68.107223 
L 115.754881 84.043951 
L 123.440832 90.873977 
L 131.126782 121.931266 
L 138.812732 124.938196 
L 146.498683 130.780231 
L 154.184633 141.819959 
L 161.870584 148.82181 
L 169.556534 171.373784 
L 177.242485 179.277714 
L 184.928435 185.978871 
L 192.614385 197.405205 
L 200.300336 210.377959 
L 207.986286 221.331775 
L 215.672237 241.735941 
L 223.358187 243.626012 
L 231.044137 247.406152 
L 238.730088 251.143336 
L 246.416038 257.414933 
L 254.101989 270.68838 
L 261.787939 269.442652 
L 269.473889 270.430643 
L 277.15984 288.429266 
L 284.84579 289.71795 
L 292.531741 291.60802 
L 300.217691 292.209406 
L 307.903642 295.602941 
L 315.589592 290.405248 
L 323.275542 293.369222 
L 330.961493 292.209406 
L 338.647443 300.414029 
L 346.333394 298.652827 
L 354.019344 299.855599 
L 361.705294 303.979389 
L 369.391245 316.09302 
L 377.077195 322.66531 
L 384.763146 325.11381 
L 392.449096 331.428362 
L 400.135046 342.897652 
L 407.820997 342.897652 
L 415.506947 350.500889 
L 423.192898 356.342924 
L 430.878848 359.263941 
L 438.564799 361.755397 
L 446.250749 367.167871 
L 453.936699 368.327687 
L 461.62265 372.96695 
L 469.3086 375.97388 
L 476.994551 379.539239 
L 484.680501 383.104599 
L 492.366451 383.061643 
L 500.052402 381.515222 
L 507.738352 380.827923 
L 515.424303 384.479195 
L 523.110253 388.259336 
L 530.796204 383.663029 
L 538.482154 386.498134 
L 546.168104 385.553099 
L 553.854055 387.829774 
L 561.540005 390.063494 
L 569.225956 391.953564 
L 576.911906 397.623774 
L 584.597856 397.194213 
L 592.283807 399.127239 
L 599.969757 402.90738 
L 607.655708 404.754494 
L 615.341658 405.871353 
L 623.027608 406.730476 
L 630.713559 408.362809 
L 638.399509 413.216853 
L 646.08546 414.204844 
L 653.77141 415.665353 
L 661.457361 416.996994 
L 669.143311 418.457502 
L 676.829261 419.015932 
L 684.515212 423.26859 
L 692.201162 422.796072 
L 699.887113 423.225634 
L 707.573063 425.416397 
L 715.259013 426.533257 
L 722.944964 427.778985 
L 730.630914 428.251502 
L 738.316865 429.712011 
L 746.002815 431.086608 
L 753.688765 430.442265 
L 761.374716 432.160511 
L 769.060666 433.019634 
L 776.746617 433.320327 
L 784.432567 433.749888 
L 792.118518 434.566055 
L 799.804468 436.971599 
L 807.490418 436.198388 
L 815.176369 437.143423 
L 822.862319 437.916634 
L 830.54827 438.775757 
L 838.23422 439.420099 
L 845.92017 441.73973 
" clip-path="url(#p63846e6c61)" style="fill: none; stroke: #0000ff; stroke-width: 1.5; stroke-linecap: square"/>
    <defs>
     <path id="m2e940584ab" d="M 0 3 
C 0.795609 3 1.55874 2.683901 2.12132 2.12132 
C 2.683901 1.55874 3 0.795609 3 0 
C 3 -0.795609 2.683901 -1.55874 2.12132 -2.12132 
C 1.55874 -2.683901 0.795609 -3 0 -3 
C -0.795609 -3 -1.55874 -2.683901 -2.12132 -2.12132 
C -2.683901 -1.55874 -3 -0.795609 -3 0 
C -3 0.795609 -2.683901 1.55874 -2.12132 2.12132 
C -1.55874 2.683901 -0.795609 3 0 3 
z
" style="stroke: #0000ff"/>
    </defs>
    <g clip-path="url(#p63846e6c61)">
     <use xlink:href="#m2e940584ab" x="85.01108" y="48.003749" style="fill: #0000ff; stroke: #0000ff"/>
     <use xlink:href="#m2e940584ab" x="92.69703" y="65.014381" style="fill: #0000ff; stroke: #0000ff"/>
     <use xlink:href="#m2e940584ab" x="100.38298" y="63.253179" style="fill: #0000ff; stroke: #0000ff"/>
     <use xlink:href="#m2e940584ab" x="108.068931" y="68.107223" style="fill: #0000ff; stroke: #0000ff"/>
     <use xlink:href="#m2e940584ab" x="115.754881" y="84.043951" style="fill: #0000ff; stroke: #0000ff"/>
     <use xlink:href="#m2e940584ab" x="123.440832" y="90.873977" style="fill: #0000ff; stroke: #0000ff"/>
     <use xlink:href="#m2e940584ab" x="131.126782" y="121.931266" style="fill: #0000ff; stroke: #0000ff"/>
     <use xlink:href="#m2e940584ab" x="138.812732" y="124.938196" style="fill: #0000ff; stroke: #0000ff"/>
     <use xlink:href="#m2e940584ab" x="146.498683" y="130.780231" style="fill: #0000ff; stroke: #0000ff"/>
     <use xlink:href="#m2e940584ab" x="154.184633" y="141.819959" style="fill: #0000ff; stroke: #0000ff"/>
     <use xlink:href="#m2e940584ab" x="161.870584" y="148.82181" style="fill: #0000ff; stroke: #0000ff"/>
     <use xlink:href="#m2e940584ab" x="169.556534" y="171.373784" style="fill: #0000ff; stroke: #0000ff"/>
     <use xlink:href="#m2e940584ab" x="177.242485" y="179.277714" style="fill: #0000ff; stroke: #0000ff"/>
     <use xlink:href="#m2e940584ab" x="184.928435" y="185.978871" style="fill: #0000ff; stroke: #0000ff"/>
     <use xlink:href="#m2e940584ab" x="192.614385" y="197.405205" style="fill: #0000ff; stroke: #0000ff"/>
     <use xlink:href="#m2e940584ab" x="200.300336" y="210.377959" style="fill: #0000ff; stroke: #0000ff"/>
     <use xlink:href="#m2e940584ab" x="207.986286" y="221.331775" style="fill: #0000ff; stroke: #0000ff"/>
     <use xlink:href="#m2e940584ab" x="215.672237" y="241.735941" style="fill: #0000ff; stroke: #0000ff"/>
     <use xlink:href="#m2e940584ab" x="223.358187" y="243.626012" style="fill: #0000ff; stroke: #0000ff"/>
     <use xlink:href="#m2e940584ab" x="231.044137" y="247.406152" style="fill: #0000ff; stroke: #0000ff"/>
     <use xlink:href="#m2e940584ab" x="238.730088" y="251.143336" style="fill: #0000ff; stroke: #0000ff"/>
     <use xlink:href="#m2e940584ab" x="246.416038" y="257.414933" style="fill: #0000ff; stroke: #0000ff"/>
     <use xlink:href="#m2e940584ab" x="254.101989" y="270.68838" style="fill: #0000ff; stroke: #0000ff"/>
     <use xlink:href="#m2e940584ab" x="261.787939" y="269.442652" style="fill: #0000ff; stroke: #0000ff"/>
     <use xlink:href="#m2e940584ab" x="269.473889" y="270.430643" style="fill: #0000ff; stroke: #0000ff"/>
     <use xlink:href="#m2e940584ab" x="277.15984" y="288.429266" style="fill: #0000ff; stroke: #0000ff"/>
     <use xlink:href="#m2e940584ab" x="284.84579" y="289.71795" style="fill: #0000ff; stroke: #0000ff"/>
     <use xlink:href="#m2e940584ab" x="292.531741" y="291.60802" style="fill: #0000ff; stroke: #0000ff"/>
     <use xlink:href="#m2e940584ab" x="300.217691" y="292.209406" style="fill: #0000ff; stroke: #0000ff"/>
     <use xlink:href="#m2e940584ab" x="307.903642" y="295.602941" style="fill: #0000ff; stroke: #0000ff"/>
     <use xlink:href="#m2e940584ab" x="315.589592" y="290.405248" style="fill: #0000ff; stroke: #0000ff"/>
     <use xlink:href="#m2e940584ab" x="323.275542" y="293.369222" style="fill: #0000ff; stroke: #0000ff"/>
     <use xlink:href="#m2e940584ab" x="330.961493" y="292.209406" style="fill: #0000ff; stroke: #0000ff"/>
     <use xlink:href="#m2e940584ab" x="338.647443" y="300.414029" style="fill: #0000ff; stroke: #0000ff"/>
     <use xlink:href="#m2e940584ab" x="346.333394" y="298.652827" style="fill: #0000ff; stroke: #0000ff"/>
     <use xlink:href="#m2e940584ab" x="354.019344" y="299.855599" style="fill: #0000ff; stroke: #0000ff"/>
     <use xlink:href="#m2e940584ab" x="361.705294" y="303.979389" style="fill: #0000ff; stroke: #0000ff"/>
     <use xlink:href="#m2e940584ab" x="369.391245" y="316.09302" style="fill: #0000ff; stroke: #0000ff"/>
     <use xlink:href="#m2e940584ab" x="377.077195" y="322.66531" style="fill: #0000ff; stroke: #0000ff"/>
     <use xlink:href="#m2e940584ab" x="384.763146" y="325.11381" style="fill: #0000ff; stroke: #0000ff"/>
     <use xlink:href="#m2e940584ab" x="392.449096" y="331.428362" style="fill: #0000ff; stroke: #0000ff"/>
     <use xlink:href="#m2e940584ab" x="400.135046" y="342.897652" style="fill: #0000ff; stroke: #0000ff"/>
     <use xlink:href="#m2e940584ab" x="407.820997" y="342.897652" style="fill: #0000ff; stroke: #0000ff"/>
     <use xlink:href="#m2e940584ab" x="415.506947" y="350.500889" style="fill: #0000ff; stroke: #0000ff"/>
     <use xlink:href="#m2e940584ab" x="423.192898" y="356.342924" style="fill: #0000ff; stroke: #0000ff"/>
     <use xlink:href="#m2e940584ab" x="430.878848" y="359.263941" style="fill: #0000ff; stroke: #0000ff"/>
     <use xlink:href="#m2e940584ab" x="438.564799" y="361.755397" style="fill: #0000ff; stroke: #0000ff"/>
     <use xlink:href="#m2e940584ab" x="446.250749" y="367.167871" style="fill: #0000ff; stroke: #0000ff"/>
     <use xlink:href="#m2e940584ab" x="453.936699" y="368.327687" style="fill: #0000ff; stroke: #0000ff"/>
     <use xlink:href="#m2e940584ab" x="461.62265" y="372.96695" style="fill: #0000ff; stroke: #0000ff"/>
     <use xlink:href="#m2e940584ab" x="469.3086" y="375.97388" style="fill: #0000ff; stroke: #0000ff"/>
     <use xlink:href="#m2e940584ab" x="476.994551" y="379.539239" style="fill: #0000ff; stroke: #0000ff"/>
     <use xlink:href="#m2e940584ab" x="484.680501" y="383.104599" style="fill: #0000ff; stroke: #0000ff"/>
     <use xlink:href="#m2e940584ab" x="492.366451" y="383.061643" style="fill: #0000ff; stroke: #0000ff"/>
     <use xlink:href="#m2e940584ab" x="500.052402" y="381.515222" style="fill: #0000ff; stroke: #0000ff"/>
     <use xlink:href="#m2e940584ab" x="507.738352" y="380.827923" style="fill: #0000ff; stroke: #0000ff"/>
     <use xlink:href="#m2e940584ab" x="515.424303" y="384.479195" style="fill: #0000ff; stroke: #0000ff"/>
     <use xlink:href="#m2e940584ab" x="523.110253" y="388.259336" style="fill: #0000ff; stroke: #0000ff"/>
     <use xlink:href="#m2e940584ab" x="530.796204" y="383.663029" style="fill: #0000ff; stroke: #0000ff"/>
     <use xlink:href="#m2e940584ab" x="538.482154" y="386.498134" style="fill: #0000ff; stroke: #0000ff"/>
     <use xlink:href="#m2e940584ab" x="546.168104" y="385.553099" style="fill: #0000ff; stroke: #0000ff"/>
     <use xlink:href="#m2e940584ab" x="553.854055" y="387.829774" style="fill: #0000ff; stroke: #0000ff"/>
     <use xlink:href="#m2e940584ab" x="561.540005" y="390.063494" style="fill: #0000ff; stroke: #0000ff"/>
     <use xlink:href="#m2e940584ab" x="569.225956" y="391.953564" style="fill: #0000ff; stroke: #0000ff"/>
     <use xlink:href="#m2e940584ab" x="576.911906" y="397.623774" style="fill: #0000ff; stroke: #0000ff"/>
     <use xlink:href="#m2e940584ab" x="584.597856" y="397.194213" style="fill: #0000ff; stroke: #0000ff"/>
     <use xlink:href="#m2e940584ab" x="592.283807" y="399.127239" style="fill: #0000ff; stroke: #0000ff"/>
     <use xlink:href="#m2e940584ab" x="599.969757" y="402.90738" style="fill: #0000ff; stroke: #0000ff"/>
     <use xlink:href="#m2e940584ab" x="607.655708" y="404.754494" style="fill: #0000ff; stroke: #0000ff"/>
     <use xlink:href="#m2e940584ab" x="615.341658" y="405.871353" style="fill: #0000ff; stroke: #0000ff"/>
     <use xlink:href="#m2e940584ab" x="623.027608" y="406.730476" style="fill: #0000ff; stroke: #0000ff"/>
     <use xlink:href="#m2e940584ab" x="630.713559" y="408.362809" style="fill: #0000ff; stroke: #0000ff"/>
     <use xlink:href="#m2e940584ab" x="638.399509" y="413.216853" style="fill: #0000ff; stroke: #0000ff"/>
     <use xlink:href="#m2e940584ab" x="646.08546" y="414.204844" style="fill: #0000ff; stroke: #0000ff"/>
     <use xlink:href="#m2e940584ab" x="653.77141" y="415.665353" style="fill: #0000ff; stroke: #0000ff"/>
     <use xlink:href="#m2e940584ab" x="661.457361" y="416.996994" style="fill: #0000ff; stroke: #0000ff"/>
     <use xlink:href="#m2e940584ab" x="669.143311" y="418.457502" style="fill: #0000ff; stroke: #0000ff"/>
     <use xlink:href="#m2e940584ab" x="676.829261" y="419.015932" style="fill: #0000ff; stroke: #0000ff"/>
     <use xlink:href="#m2e940584ab" x="684.515212" y="423.26859" style="fill: #0000ff; stroke: #0000ff"/>
     <use xlink:href="#m2e940584ab" x="692.201162" y="422.796072" style="fill: #0000ff; stroke: #0000ff"/>
     <use xlink:href="#m2e940584ab" x="699.887113" y="423.225634" style="fill: #0000ff; stroke: #0000ff"/>
     <use xlink:href="#m2e940584ab" x="707.573063" y="425.416397" style="fill: #0000ff; stroke: #0000ff"/>
     <use xlink:href="#m2e940584ab" x="715.259013" y="426.533257" style="fill: #0000ff; stroke: #0000ff"/>
     <use xlink:href="#m2e940584ab" x="722.944964" y="427.778985" style="fill: #0000ff; stroke: #0000ff"/>
     <use xlink:href="#m2e940584ab" x="730.630914" y="428.251502" style="fill: #0000ff; stroke: #0000ff"/>
     <use xlink:href="#m2e940584ab" x="738.316865" y="429.712011" style="fill: #0000ff; stroke: #0000ff"/>
     <use xlink:href="#m2e940584ab" x="746.002815" y="431.086608" style="fill: #0000ff; stroke: #0000ff"/>
     <use xlink:href="#m2e940584ab" x="753.688765" y="430.442265" style="fill: #0000ff; stroke: #0000ff"/>
     <use xlink:href="#m2e940584ab" x="761.374716" y="432.160511" style="fill: #0000ff; stroke: #0000ff"/>
     <use xlink:href="#m2e940584ab" x="769.060666" y="433.019634" style="fill: #0000ff; stroke: #0000ff"/>
     <use xlink:href="#m2e940584ab" x="776.746617" y="433.320327" style="fill: #0000ff; stroke: #0000ff"/>
     <use xlink:href="#m2e940584ab" x="784.432567" y="433.749888" style="fill: #0000ff; stroke: #0000ff"/>
     <use xlink:href="#m2e940584ab" x="792.118518" y="434.566055" style="fill: #0000ff; stroke: #0000ff"/>
     <use xlink:href="#m2e940584ab" x="799.804468" y="436.971599" style="fill: #0000ff; stroke: #0000ff"/>
     <use xlink:href="#m2e940584ab" x="807.490418" y="436.198388" style="fill: #0000ff; stroke: #0000ff"/>
     <use xlink:href="#m2e940584ab" x="815.176369" y="437.143423" style="fill: #0000ff; stroke: #0000ff"/>
     <use xlink:href="#m2e940584ab" x="822.862319" y="437.916634" style="fill: #0000ff; stroke: #0000ff"/>
     <use xlink:href="#m2e940584ab" x="830.54827" y="438.775757" style="fill: #0000ff; stroke: #0000ff"/>
     <use xlink:href="#m2e940584ab" x="838.23422" y="439.420099" style="fill: #0000ff; stroke: #0000ff"/>
     <use xlink:href="#m2e940584ab" x="845.92017" y="441.73973" style="fill: #0000ff; stroke: #0000ff"/>
    </g>
   </g>
   <g id="patch_3">
    <path d="M 46.965625 465.838125 
L 46.965625 22.318125 
" style="fill: none; stroke: #000000; stroke-width: 0.8; stroke-linejoin: miter; stroke-linecap: square"/>
   </g>
   <g id="patch_4">
    <path d="M 883.965625 465.838125 
L 883.965625 22.318125 
" style="fill: none; stroke: #000000; stroke-width: 0.8; stroke-linejoin: miter; stroke-linecap: square"/>
   </g>
   <g id="patch_5">
    <path d="M 46.965625 465.838125 
L 883.965625 465.838125 
" style="fill: none; stroke: #000000; stroke-width: 0.8; stroke-linejoin: miter; stroke-linecap: square"/>
   </g>
   <g id="patch_6">
    <path d="M 46.965625 22.318125 
L 883.965625 22.318125 
" style="fill: none; stroke: #000000; stroke-width: 0.8; stroke-linejoin: miter; stroke-linecap: square"/>
   </g>
   <g id="text_25">
    <!-- Guessing Entropy -->
    <g transform="translate(412.576563 16.318125) scale(0.12 -0.12)">
     <defs>
      <path id="DejaVuSans-69" d="M 603 3500 
L 1178 3500 
L 1178 0 
L 603 0 
L 603 3500 
z
M 603 4863 
L 1178 4863 
L 1178 4134 
L 603 4134 
L 603 4863 
z
" transform="scale(0.015625)"/>
      <path id="DejaVuSans-6e" d="M 3513 2113 
L 3513 0 
L 2938 0 
L 2938 2094 
Q 2938 2591 2744 2837 
Q 2550 3084 2163 3084 
Q 1697 3084 1428 2787 
Q 1159 2491 1159 1978 
L 1159 0 
L 581 0 
L 581 3500 
L 1159 3500 
L 1159 2956 
Q 1366 3272 1645 3428 
Q 1925 3584 2291 3584 
Q 2894 3584 3203 3211 
Q 3513 2838 3513 2113 
z
" transform="scale(0.015625)"/>
      <path id="DejaVuSans-67" d="M 2906 1791 
Q 2906 2416 2648 2759 
Q 2391 3103 1925 3103 
Q 1463 3103 1205 2759 
Q 947 2416 947 1791 
Q 947 1169 1205 825 
Q 1463 481 1925 481 
Q 2391 481 2648 825 
Q 2906 1169 2906 1791 
z
M 3481 434 
Q 3481 -459 3084 -895 
Q 2688 -1331 1869 -1331 
Q 1566 -1331 1297 -1286 
Q 1028 -1241 775 -1147 
L 775 -588 
Q 1028 -725 1275 -790 
Q 1522 -856 1778 -856 
Q 2344 -856 2625 -561 
Q 2906 -266 2906 331 
L 2906 616 
Q 2728 306 2450 153 
Q 2172 0 1784 0 
Q 1141 0 747 490 
Q 353 981 353 1791 
Q 353 2603 747 3093 
Q 1141 3584 1784 3584 
Q 2172 3584 2450 3431 
Q 2728 3278 2906 2969 
L 2906 3500 
L 3481 3500 
L 3481 434 
z
" transform="scale(0.015625)"/>
      <path id="DejaVuSans-70" d="M 1159 525 
L 1159 -1331 
L 581 -1331 
L 581 3500 
L 1159 3500 
L 1159 2969 
Q 1341 3281 1617 3432 
Q 1894 3584 2278 3584 
Q 2916 3584 3314 3078 
Q 3713 2572 3713 1747 
Q 3713 922 3314 415 
Q 2916 -91 2278 -91 
Q 1894 -91 1617 61 
Q 1341 213 1159 525 
z
M 3116 1747 
Q 3116 2381 2855 2742 
Q 2594 3103 2138 3103 
Q 1681 3103 1420 2742 
Q 1159 2381 1159 1747 
Q 1159 1113 1420 752 
Q 1681 391 2138 391 
Q 2594 391 2855 752 
Q 3116 1113 3116 1747 
z
" transform="scale(0.015625)"/>
      <path id="DejaVuSans-79" d="M 2059 -325 
Q 1816 -950 1584 -1140 
Q 1353 -1331 966 -1331 
L 506 -1331 
L 506 -850 
L 844 -850 
Q 1081 -850 1212 -737 
Q 1344 -625 1503 -206 
L 1606 56 
L 191 3500 
L 800 3500 
L 1894 763 
L 2988 3500 
L 3597 3500 
L 2059 -325 
z
" transform="scale(0.015625)"/>
     </defs>
     <use xlink:href="#DejaVuSans-47"/>
     <use xlink:href="#DejaVuSans-75" x="77.490234"/>
     <use xlink:href="#DejaVuSans-65" x="140.869141"/>
     <use xlink:href="#DejaVuSans-73" x="202.392578"/>
     <use xlink:href="#DejaVuSans-73" x="254.492188"/>
     <use xlink:href="#DejaVuSans-69" x="306.591797"/>
     <use xlink:href="#DejaVuSans-6e" x="334.375"/>
     <use xlink:href="#DejaVuSans-67" x="397.753906"/>
     <use xlink:href="#DejaVuSans-20" x="461.230469"/>
     <use xlink:href="#DejaVuSans-45" x="493.017578"/>
     <use xlink:href="#DejaVuSans-6e" x="556.201172"/>
     <use xlink:href="#DejaVuSans-74" x="619.580078"/>
     <use xlink:href="#DejaVuSans-72" x="658.789062"/>
     <use xlink:href="#DejaVuSans-6f" x="697.652344"/>
     <use xlink:href="#DejaVuSans-70" x="758.833984"/>
     <use xlink:href="#DejaVuSans-79" x="822.310547"/>
    </g>
   </g>
   <g id="legend_1">
    <g id="patch_7">
     <path d="M 53.965625 460.838125 
L 226.757813 460.838125 
Q 228.757813 460.838125 228.757813 458.838125 
L 228.757813 414.969375 
Q 228.757813 412.969375 226.757813 412.969375 
L 53.965625 412.969375 
Q 51.965625 412.969375 51.965625 414.969375 
L 51.965625 458.838125 
Q 51.965625 460.838125 53.965625 460.838125 
z
" style="fill: #ffffff; opacity: 0.8; stroke: #cccccc; stroke-linejoin: miter"/>
    </g>
    <g id="line2d_51">
     <path d="M 55.965625 421.067812 
L 65.965625 421.067812 
L 75.965625 421.067812 
" style="fill: none; stroke-dasharray: 5.55,2.4; stroke-dashoffset: 0; stroke: #ff0000; stroke-width: 1.5"/>
    </g>
    <g id="text_26">
     <!-- diff_devs_key_1 GE = 100 -->
     <g transform="translate(83.965625 424.567812) scale(0.1 -0.1)">
      <defs>
       <path id="DejaVuSans-64" d="M 2906 2969 
L 2906 4863 
L 3481 4863 
L 3481 0 
L 2906 0 
L 2906 525 
Q 2725 213 2448 61 
Q 2172 -91 1784 -91 
Q 1150 -91 751 415 
Q 353 922 353 1747 
Q 353 2572 751 3078 
Q 1150 3584 1784 3584 
Q 2172 3584 2448 3432 
Q 2725 3281 2906 2969 
z
M 947 1747 
Q 947 1113 1208 752 
Q 1469 391 1925 391 
Q 2381 391 2643 752 
Q 2906 1113 2906 1747 
Q 2906 2381 2643 2742 
Q 2381 3103 1925 3103 
Q 1469 3103 1208 2742 
Q 947 2381 947 1747 
z
" transform="scale(0.015625)"/>
       <path id="DejaVuSans-5f" d="M 3263 -1063 
L 3263 -1509 
L -63 -1509 
L -63 -1063 
L 3263 -1063 
z
" transform="scale(0.015625)"/>
       <path id="DejaVuSans-76" d="M 191 3500 
L 800 3500 
L 1894 563 
L 2988 3500 
L 3597 3500 
L 2284 0 
L 1503 0 
L 191 3500 
z
" transform="scale(0.015625)"/>
       <path id="DejaVuSans-6b" d="M 581 4863 
L 1159 4863 
L 1159 1991 
L 2875 3500 
L 3609 3500 
L 1753 1863 
L 3688 0 
L 2938 0 
L 1159 1709 
L 1159 0 
L 581 0 
L 581 4863 
z
" transform="scale(0.015625)"/>
       <path id="DejaVuSans-3d" d="M 678 2906 
L 4684 2906 
L 4684 2381 
L 678 2381 
L 678 2906 
z
M 678 1631 
L 4684 1631 
L 4684 1100 
L 678 1100 
L 678 1631 
z
" transform="scale(0.015625)"/>
      </defs>
      <use xlink:href="#DejaVuSans-64"/>
      <use xlink:href="#DejaVuSans-69" x="63.476562"/>
      <use xlink:href="#DejaVuSans-66" x="91.259766"/>
      <use xlink:href="#DejaVuSans-66" x="126.464844"/>
      <use xlink:href="#DejaVuSans-5f" x="161.669922"/>
      <use xlink:href="#DejaVuSans-64" x="211.669922"/>
      <use xlink:href="#DejaVuSans-65" x="275.146484"/>
      <use xlink:href="#DejaVuSans-76" x="336.669922"/>
      <use xlink:href="#DejaVuSans-73" x="395.849609"/>
      <use xlink:href="#DejaVuSans-5f" x="447.949219"/>
      <use xlink:href="#DejaVuSans-6b" x="497.949219"/>
      <use xlink:href="#DejaVuSans-65" x="552.234375"/>
      <use xlink:href="#DejaVuSans-79" x="613.757812"/>
      <use xlink:href="#DejaVuSans-5f" x="672.9375"/>
      <use xlink:href="#DejaVuSans-31" x="722.9375"/>
      <use xlink:href="#DejaVuSans-20" x="786.560547"/>
      <use xlink:href="#DejaVuSans-47" x="818.347656"/>
      <use xlink:href="#DejaVuSans-45" x="895.837891"/>
      <use xlink:href="#DejaVuSans-20" x="959.021484"/>
      <use xlink:href="#DejaVuSans-3d" x="990.808594"/>
      <use xlink:href="#DejaVuSans-20" x="1074.597656"/>
      <use xlink:href="#DejaVuSans-31" x="1106.384766"/>
      <use xlink:href="#DejaVuSans-30" x="1170.007812"/>
      <use xlink:href="#DejaVuSans-30" x="1233.630859"/>
     </g>
    </g>
    <g id="line2d_52">
     <path d="M 55.965625 436.024062 
L 65.965625 436.024062 
L 75.965625 436.024062 
" style="fill: none; stroke-dasharray: 5.55,2.4; stroke-dashoffset: 0; stroke: #008000; stroke-width: 1.5"/>
    </g>
    <g id="text_27">
     <!-- same_devs_key_1 GE = 100 -->
     <g transform="translate(83.965625 439.524062) scale(0.1 -0.1)">
      <use xlink:href="#DejaVuSans-73"/>
      <use xlink:href="#DejaVuSans-61" x="52.099609"/>
      <use xlink:href="#DejaVuSans-6d" x="113.378906"/>
      <use xlink:href="#DejaVuSans-65" x="210.791016"/>
      <use xlink:href="#DejaVuSans-5f" x="272.314453"/>
      <use xlink:href="#DejaVuSans-64" x="322.314453"/>
      <use xlink:href="#DejaVuSans-65" x="385.791016"/>
      <use xlink:href="#DejaVuSans-76" x="447.314453"/>
      <use xlink:href="#DejaVuSans-73" x="506.494141"/>
      <use xlink:href="#DejaVuSans-5f" x="558.59375"/>
      <use xlink:href="#DejaVuSans-6b" x="608.59375"/>
      <use xlink:href="#DejaVuSans-65" x="662.878906"/>
      <use xlink:href="#DejaVuSans-79" x="724.402344"/>
      <use xlink:href="#DejaVuSans-5f" x="783.582031"/>
      <use xlink:href="#DejaVuSans-31" x="833.582031"/>
      <use xlink:href="#DejaVuSans-20" x="897.205078"/>
      <use xlink:href="#DejaVuSans-47" x="928.992188"/>
      <use xlink:href="#DejaVuSans-45" x="1006.482422"/>
      <use xlink:href="#DejaVuSans-20" x="1069.666016"/>
      <use xlink:href="#DejaVuSans-3d" x="1101.453125"/>
      <use xlink:href="#DejaVuSans-20" x="1185.242188"/>
      <use xlink:href="#DejaVuSans-31" x="1217.029297"/>
      <use xlink:href="#DejaVuSans-30" x="1280.652344"/>
      <use xlink:href="#DejaVuSans-30" x="1344.275391"/>
     </g>
    </g>
    <g id="line2d_53">
     <path d="M 55.965625 450.980312 
L 65.965625 450.980312 
L 75.965625 450.980312 
" style="fill: none; stroke-dasharray: 5.55,2.4; stroke-dashoffset: 0; stroke: #0000ff; stroke-width: 1.5"/>
    </g>
    <g id="text_28">
     <!-- diff_devs_key_0 GE = 100 -->
     <g transform="translate(83.965625 454.480312) scale(0.1 -0.1)">
      <use xlink:href="#DejaVuSans-64"/>
      <use xlink:href="#DejaVuSans-69" x="63.476562"/>
      <use xlink:href="#DejaVuSans-66" x="91.259766"/>
      <use xlink:href="#DejaVuSans-66" x="126.464844"/>
      <use xlink:href="#DejaVuSans-5f" x="161.669922"/>
      <use xlink:href="#DejaVuSans-64" x="211.669922"/>
      <use xlink:href="#DejaVuSans-65" x="275.146484"/>
      <use xlink:href="#DejaVuSans-76" x="336.669922"/>
      <use xlink:href="#DejaVuSans-73" x="395.849609"/>
      <use xlink:href="#DejaVuSans-5f" x="447.949219"/>
      <use xlink:href="#DejaVuSans-6b" x="497.949219"/>
      <use xlink:href="#DejaVuSans-65" x="552.234375"/>
      <use xlink:href="#DejaVuSans-79" x="613.757812"/>
      <use xlink:href="#DejaVuSans-5f" x="672.9375"/>
      <use xlink:href="#DejaVuSans-30" x="722.9375"/>
      <use xlink:href="#DejaVuSans-20" x="786.560547"/>
      <use xlink:href="#DejaVuSans-47" x="818.347656"/>
      <use xlink:href="#DejaVuSans-45" x="895.837891"/>
      <use xlink:href="#DejaVuSans-20" x="959.021484"/>
      <use xlink:href="#DejaVuSans-3d" x="990.808594"/>
      <use xlink:href="#DejaVuSans-20" x="1074.597656"/>
      <use xlink:href="#DejaVuSans-31" x="1106.384766"/>
      <use xlink:href="#DejaVuSans-30" x="1170.007812"/>
      <use xlink:href="#DejaVuSans-30" x="1233.630859"/>
     </g>
    </g>
   </g>
  </g>
 </g>
 <defs>
  <clipPath id="p63846e6c61">
   <rect x="46.965625" y="22.318125" width="837" height="443.52"/>
  </clipPath>
 </defs>
</svg>
