<?xml version="1.0" encoding="utf-8" standalone="no"?>
<!DOCTYPE svg PUBLIC "-//W3C//DTD SVG 1.1//EN"
  "http://www.w3.org/Graphics/SVG/1.1/DTD/svg11.dtd">
<svg xmlns:xlink="http://www.w3.org/1999/xlink" width="891.165625pt" height="503.394375pt" viewBox="0 0 891.165625 503.394375" xmlns="http://www.w3.org/2000/svg" version="1.1">
 <metadata>
  <rdf:RDF xmlns:dc="http://purl.org/dc/elements/1.1/" xmlns:cc="http://creativecommons.org/ns#" xmlns:rdf="http://www.w3.org/1999/02/22-rdf-syntax-ns#">
   <cc:Work>
    <dc:type rdf:resource="http://purl.org/dc/dcmitype/StillImage"/>
    <dc:date>2024-08-06T23:17:56.607023</dc:date>
    <dc:format>image/svg+xml</dc:format>
    <dc:creator>
     <cc:Agent>
      <dc:title>Matplotlib v3.8.0, https://matplotlib.org/</dc:title>
     </cc:Agent>
    </dc:creator>
   </cc:Work>
  </rdf:RDF>
 </metadata>
 <defs>
  <style type="text/css">*{stroke-linejoin: round; stroke-linecap: butt}</style>
 </defs>
 <g id="figure_1">
  <g id="patch_1">
   <path d="M 0 503.394375 
L 891.165625 503.394375 
L 891.165625 0 
L 0 0 
z
" style="fill: #ffffff"/>
  </g>
  <g id="axes_1">
   <g id="patch_2">
    <path d="M 46.965625 465.838125 
L 883.965625 465.838125 
L 883.965625 22.318125 
L 46.965625 22.318125 
z
" style="fill: #ffffff"/>
   </g>
   <g id="matplotlib.axis_1">
    <g id="xtick_1">
     <g id="line2d_1">
      <path d="M 85.01108 465.838125 
L 85.01108 22.318125 
" clip-path="url(#p5c426983a0)" style="fill: none; stroke: #b0b0b0; stroke-width: 0.8; stroke-linecap: square"/>
     </g>
     <g id="line2d_2">
      <defs>
       <path id="m8a5634acfb" d="M 0 0 
L 0 3.5 
" style="stroke: #000000; stroke-width: 0.8"/>
      </defs>
      <g>
       <use xlink:href="#m8a5634acfb" x="85.01108" y="465.838125" style="stroke: #000000; stroke-width: 0.8"/>
      </g>
     </g>
     <g id="text_1">
      <!-- 0 -->
      <g transform="translate(81.82983 480.436562) scale(0.1 -0.1)">
       <defs>
        <path id="DejaVuSans-30" d="M 2034 4250 
Q 1547 4250 1301 3770 
Q 1056 3291 1056 2328 
Q 1056 1369 1301 889 
Q 1547 409 2034 409 
Q 2525 409 2770 889 
Q 3016 1369 3016 2328 
Q 3016 3291 2770 3770 
Q 2525 4250 2034 4250 
z
M 2034 4750 
Q 2819 4750 3233 4129 
Q 3647 3509 3647 2328 
Q 3647 1150 3233 529 
Q 2819 -91 2034 -91 
Q 1250 -91 836 529 
Q 422 1150 422 2328 
Q 422 3509 836 4129 
Q 1250 4750 2034 4750 
z
" transform="scale(0.015625)"/>
       </defs>
       <use xlink:href="#DejaVuSans-30"/>
      </g>
     </g>
    </g>
    <g id="xtick_2">
     <g id="line2d_3">
      <path d="M 161.870584 465.838125 
L 161.870584 22.318125 
" clip-path="url(#p5c426983a0)" style="fill: none; stroke: #b0b0b0; stroke-width: 0.8; stroke-linecap: square"/>
     </g>
     <g id="line2d_4">
      <g>
       <use xlink:href="#m8a5634acfb" x="161.870584" y="465.838125" style="stroke: #000000; stroke-width: 0.8"/>
      </g>
     </g>
     <g id="text_2">
      <!-- 10 -->
      <g transform="translate(155.508084 480.436562) scale(0.1 -0.1)">
       <defs>
        <path id="DejaVuSans-31" d="M 794 531 
L 1825 531 
L 1825 4091 
L 703 3866 
L 703 4441 
L 1819 4666 
L 2450 4666 
L 2450 531 
L 3481 531 
L 3481 0 
L 794 0 
L 794 531 
z
" transform="scale(0.015625)"/>
       </defs>
       <use xlink:href="#DejaVuSans-31"/>
       <use xlink:href="#DejaVuSans-30" x="63.623047"/>
      </g>
     </g>
    </g>
    <g id="xtick_3">
     <g id="line2d_5">
      <path d="M 238.730088 465.838125 
L 238.730088 22.318125 
" clip-path="url(#p5c426983a0)" style="fill: none; stroke: #b0b0b0; stroke-width: 0.8; stroke-linecap: square"/>
     </g>
     <g id="line2d_6">
      <g>
       <use xlink:href="#m8a5634acfb" x="238.730088" y="465.838125" style="stroke: #000000; stroke-width: 0.8"/>
      </g>
     </g>
     <g id="text_3">
      <!-- 20 -->
      <g transform="translate(232.367588 480.436562) scale(0.1 -0.1)">
       <defs>
        <path id="DejaVuSans-32" d="M 1228 531 
L 3431 531 
L 3431 0 
L 469 0 
L 469 531 
Q 828 903 1448 1529 
Q 2069 2156 2228 2338 
Q 2531 2678 2651 2914 
Q 2772 3150 2772 3378 
Q 2772 3750 2511 3984 
Q 2250 4219 1831 4219 
Q 1534 4219 1204 4116 
Q 875 4013 500 3803 
L 500 4441 
Q 881 4594 1212 4672 
Q 1544 4750 1819 4750 
Q 2544 4750 2975 4387 
Q 3406 4025 3406 3419 
Q 3406 3131 3298 2873 
Q 3191 2616 2906 2266 
Q 2828 2175 2409 1742 
Q 1991 1309 1228 531 
z
" transform="scale(0.015625)"/>
       </defs>
       <use xlink:href="#DejaVuSans-32"/>
       <use xlink:href="#DejaVuSans-30" x="63.623047"/>
      </g>
     </g>
    </g>
    <g id="xtick_4">
     <g id="line2d_7">
      <path d="M 315.589592 465.838125 
L 315.589592 22.318125 
" clip-path="url(#p5c426983a0)" style="fill: none; stroke: #b0b0b0; stroke-width: 0.8; stroke-linecap: square"/>
     </g>
     <g id="line2d_8">
      <g>
       <use xlink:href="#m8a5634acfb" x="315.589592" y="465.838125" style="stroke: #000000; stroke-width: 0.8"/>
      </g>
     </g>
     <g id="text_4">
      <!-- 30 -->
      <g transform="translate(309.227092 480.436562) scale(0.1 -0.1)">
       <defs>
        <path id="DejaVuSans-33" d="M 2597 2516 
Q 3050 2419 3304 2112 
Q 3559 1806 3559 1356 
Q 3559 666 3084 287 
Q 2609 -91 1734 -91 
Q 1441 -91 1130 -33 
Q 819 25 488 141 
L 488 750 
Q 750 597 1062 519 
Q 1375 441 1716 441 
Q 2309 441 2620 675 
Q 2931 909 2931 1356 
Q 2931 1769 2642 2001 
Q 2353 2234 1838 2234 
L 1294 2234 
L 1294 2753 
L 1863 2753 
Q 2328 2753 2575 2939 
Q 2822 3125 2822 3475 
Q 2822 3834 2567 4026 
Q 2313 4219 1838 4219 
Q 1578 4219 1281 4162 
Q 984 4106 628 3988 
L 628 4550 
Q 988 4650 1302 4700 
Q 1616 4750 1894 4750 
Q 2613 4750 3031 4423 
Q 3450 4097 3450 3541 
Q 3450 3153 3228 2886 
Q 3006 2619 2597 2516 
z
" transform="scale(0.015625)"/>
       </defs>
       <use xlink:href="#DejaVuSans-33"/>
       <use xlink:href="#DejaVuSans-30" x="63.623047"/>
      </g>
     </g>
    </g>
    <g id="xtick_5">
     <g id="line2d_9">
      <path d="M 392.449096 465.838125 
L 392.449096 22.318125 
" clip-path="url(#p5c426983a0)" style="fill: none; stroke: #b0b0b0; stroke-width: 0.8; stroke-linecap: square"/>
     </g>
     <g id="line2d_10">
      <g>
       <use xlink:href="#m8a5634acfb" x="392.449096" y="465.838125" style="stroke: #000000; stroke-width: 0.8"/>
      </g>
     </g>
     <g id="text_5">
      <!-- 40 -->
      <g transform="translate(386.086596 480.436562) scale(0.1 -0.1)">
       <defs>
        <path id="DejaVuSans-34" d="M 2419 4116 
L 825 1625 
L 2419 1625 
L 2419 4116 
z
M 2253 4666 
L 3047 4666 
L 3047 1625 
L 3713 1625 
L 3713 1100 
L 3047 1100 
L 3047 0 
L 2419 0 
L 2419 1100 
L 313 1100 
L 313 1709 
L 2253 4666 
z
" transform="scale(0.015625)"/>
       </defs>
       <use xlink:href="#DejaVuSans-34"/>
       <use xlink:href="#DejaVuSans-30" x="63.623047"/>
      </g>
     </g>
    </g>
    <g id="xtick_6">
     <g id="line2d_11">
      <path d="M 469.3086 465.838125 
L 469.3086 22.318125 
" clip-path="url(#p5c426983a0)" style="fill: none; stroke: #b0b0b0; stroke-width: 0.8; stroke-linecap: square"/>
     </g>
     <g id="line2d_12">
      <g>
       <use xlink:href="#m8a5634acfb" x="469.3086" y="465.838125" style="stroke: #000000; stroke-width: 0.8"/>
      </g>
     </g>
     <g id="text_6">
      <!-- 50 -->
      <g transform="translate(462.9461 480.436562) scale(0.1 -0.1)">
       <defs>
        <path id="DejaVuSans-35" d="M 691 4666 
L 3169 4666 
L 3169 4134 
L 1269 4134 
L 1269 2991 
Q 1406 3038 1543 3061 
Q 1681 3084 1819 3084 
Q 2600 3084 3056 2656 
Q 3513 2228 3513 1497 
Q 3513 744 3044 326 
Q 2575 -91 1722 -91 
Q 1428 -91 1123 -41 
Q 819 9 494 109 
L 494 744 
Q 775 591 1075 516 
Q 1375 441 1709 441 
Q 2250 441 2565 725 
Q 2881 1009 2881 1497 
Q 2881 1984 2565 2268 
Q 2250 2553 1709 2553 
Q 1456 2553 1204 2497 
Q 953 2441 691 2322 
L 691 4666 
z
" transform="scale(0.015625)"/>
       </defs>
       <use xlink:href="#DejaVuSans-35"/>
       <use xlink:href="#DejaVuSans-30" x="63.623047"/>
      </g>
     </g>
    </g>
    <g id="xtick_7">
     <g id="line2d_13">
      <path d="M 546.168104 465.838125 
L 546.168104 22.318125 
" clip-path="url(#p5c426983a0)" style="fill: none; stroke: #b0b0b0; stroke-width: 0.8; stroke-linecap: square"/>
     </g>
     <g id="line2d_14">
      <g>
       <use xlink:href="#m8a5634acfb" x="546.168104" y="465.838125" style="stroke: #000000; stroke-width: 0.8"/>
      </g>
     </g>
     <g id="text_7">
      <!-- 60 -->
      <g transform="translate(539.805604 480.436562) scale(0.1 -0.1)">
       <defs>
        <path id="DejaVuSans-36" d="M 2113 2584 
Q 1688 2584 1439 2293 
Q 1191 2003 1191 1497 
Q 1191 994 1439 701 
Q 1688 409 2113 409 
Q 2538 409 2786 701 
Q 3034 994 3034 1497 
Q 3034 2003 2786 2293 
Q 2538 2584 2113 2584 
z
M 3366 4563 
L 3366 3988 
Q 3128 4100 2886 4159 
Q 2644 4219 2406 4219 
Q 1781 4219 1451 3797 
Q 1122 3375 1075 2522 
Q 1259 2794 1537 2939 
Q 1816 3084 2150 3084 
Q 2853 3084 3261 2657 
Q 3669 2231 3669 1497 
Q 3669 778 3244 343 
Q 2819 -91 2113 -91 
Q 1303 -91 875 529 
Q 447 1150 447 2328 
Q 447 3434 972 4092 
Q 1497 4750 2381 4750 
Q 2619 4750 2861 4703 
Q 3103 4656 3366 4563 
z
" transform="scale(0.015625)"/>
       </defs>
       <use xlink:href="#DejaVuSans-36"/>
       <use xlink:href="#DejaVuSans-30" x="63.623047"/>
      </g>
     </g>
    </g>
    <g id="xtick_8">
     <g id="line2d_15">
      <path d="M 623.027608 465.838125 
L 623.027608 22.318125 
" clip-path="url(#p5c426983a0)" style="fill: none; stroke: #b0b0b0; stroke-width: 0.8; stroke-linecap: square"/>
     </g>
     <g id="line2d_16">
      <g>
       <use xlink:href="#m8a5634acfb" x="623.027608" y="465.838125" style="stroke: #000000; stroke-width: 0.8"/>
      </g>
     </g>
     <g id="text_8">
      <!-- 70 -->
      <g transform="translate(616.665108 480.436562) scale(0.1 -0.1)">
       <defs>
        <path id="DejaVuSans-37" d="M 525 4666 
L 3525 4666 
L 3525 4397 
L 1831 0 
L 1172 0 
L 2766 4134 
L 525 4134 
L 525 4666 
z
" transform="scale(0.015625)"/>
       </defs>
       <use xlink:href="#DejaVuSans-37"/>
       <use xlink:href="#DejaVuSans-30" x="63.623047"/>
      </g>
     </g>
    </g>
    <g id="xtick_9">
     <g id="line2d_17">
      <path d="M 699.887113 465.838125 
L 699.887113 22.318125 
" clip-path="url(#p5c426983a0)" style="fill: none; stroke: #b0b0b0; stroke-width: 0.8; stroke-linecap: square"/>
     </g>
     <g id="line2d_18">
      <g>
       <use xlink:href="#m8a5634acfb" x="699.887113" y="465.838125" style="stroke: #000000; stroke-width: 0.8"/>
      </g>
     </g>
     <g id="text_9">
      <!-- 80 -->
      <g transform="translate(693.524613 480.436562) scale(0.1 -0.1)">
       <defs>
        <path id="DejaVuSans-38" d="M 2034 2216 
Q 1584 2216 1326 1975 
Q 1069 1734 1069 1313 
Q 1069 891 1326 650 
Q 1584 409 2034 409 
Q 2484 409 2743 651 
Q 3003 894 3003 1313 
Q 3003 1734 2745 1975 
Q 2488 2216 2034 2216 
z
M 1403 2484 
Q 997 2584 770 2862 
Q 544 3141 544 3541 
Q 544 4100 942 4425 
Q 1341 4750 2034 4750 
Q 2731 4750 3128 4425 
Q 3525 4100 3525 3541 
Q 3525 3141 3298 2862 
Q 3072 2584 2669 2484 
Q 3125 2378 3379 2068 
Q 3634 1759 3634 1313 
Q 3634 634 3220 271 
Q 2806 -91 2034 -91 
Q 1263 -91 848 271 
Q 434 634 434 1313 
Q 434 1759 690 2068 
Q 947 2378 1403 2484 
z
M 1172 3481 
Q 1172 3119 1398 2916 
Q 1625 2713 2034 2713 
Q 2441 2713 2670 2916 
Q 2900 3119 2900 3481 
Q 2900 3844 2670 4047 
Q 2441 4250 2034 4250 
Q 1625 4250 1398 4047 
Q 1172 3844 1172 3481 
z
" transform="scale(0.015625)"/>
       </defs>
       <use xlink:href="#DejaVuSans-38"/>
       <use xlink:href="#DejaVuSans-30" x="63.623047"/>
      </g>
     </g>
    </g>
    <g id="xtick_10">
     <g id="line2d_19">
      <path d="M 776.746617 465.838125 
L 776.746617 22.318125 
" clip-path="url(#p5c426983a0)" style="fill: none; stroke: #b0b0b0; stroke-width: 0.8; stroke-linecap: square"/>
     </g>
     <g id="line2d_20">
      <g>
       <use xlink:href="#m8a5634acfb" x="776.746617" y="465.838125" style="stroke: #000000; stroke-width: 0.8"/>
      </g>
     </g>
     <g id="text_10">
      <!-- 90 -->
      <g transform="translate(770.384117 480.436562) scale(0.1 -0.1)">
       <defs>
        <path id="DejaVuSans-39" d="M 703 97 
L 703 672 
Q 941 559 1184 500 
Q 1428 441 1663 441 
Q 2288 441 2617 861 
Q 2947 1281 2994 2138 
Q 2813 1869 2534 1725 
Q 2256 1581 1919 1581 
Q 1219 1581 811 2004 
Q 403 2428 403 3163 
Q 403 3881 828 4315 
Q 1253 4750 1959 4750 
Q 2769 4750 3195 4129 
Q 3622 3509 3622 2328 
Q 3622 1225 3098 567 
Q 2575 -91 1691 -91 
Q 1453 -91 1209 -44 
Q 966 3 703 97 
z
M 1959 2075 
Q 2384 2075 2632 2365 
Q 2881 2656 2881 3163 
Q 2881 3666 2632 3958 
Q 2384 4250 1959 4250 
Q 1534 4250 1286 3958 
Q 1038 3666 1038 3163 
Q 1038 2656 1286 2365 
Q 1534 2075 1959 2075 
z
" transform="scale(0.015625)"/>
       </defs>
       <use xlink:href="#DejaVuSans-39"/>
       <use xlink:href="#DejaVuSans-30" x="63.623047"/>
      </g>
     </g>
    </g>
    <g id="xtick_11">
     <g id="line2d_21">
      <path d="M 853.606121 465.838125 
L 853.606121 22.318125 
" clip-path="url(#p5c426983a0)" style="fill: none; stroke: #b0b0b0; stroke-width: 0.8; stroke-linecap: square"/>
     </g>
     <g id="line2d_22">
      <g>
       <use xlink:href="#m8a5634acfb" x="853.606121" y="465.838125" style="stroke: #000000; stroke-width: 0.8"/>
      </g>
     </g>
     <g id="text_11">
      <!-- 100 -->
      <g transform="translate(844.062371 480.436562) scale(0.1 -0.1)">
       <use xlink:href="#DejaVuSans-31"/>
       <use xlink:href="#DejaVuSans-30" x="63.623047"/>
       <use xlink:href="#DejaVuSans-30" x="127.246094"/>
      </g>
     </g>
    </g>
    <g id="text_12">
     <!-- Number of traces -->
     <g transform="translate(421.871875 494.114687) scale(0.1 -0.1)">
      <defs>
       <path id="DejaVuSans-4e" d="M 628 4666 
L 1478 4666 
L 3547 763 
L 3547 4666 
L 4159 4666 
L 4159 0 
L 3309 0 
L 1241 3903 
L 1241 0 
L 628 0 
L 628 4666 
z
" transform="scale(0.015625)"/>
       <path id="DejaVuSans-75" d="M 544 1381 
L 544 3500 
L 1119 3500 
L 1119 1403 
Q 1119 906 1312 657 
Q 1506 409 1894 409 
Q 2359 409 2629 706 
Q 2900 1003 2900 1516 
L 2900 3500 
L 3475 3500 
L 3475 0 
L 2900 0 
L 2900 538 
Q 2691 219 2414 64 
Q 2138 -91 1772 -91 
Q 1169 -91 856 284 
Q 544 659 544 1381 
z
M 1991 3584 
L 1991 3584 
z
" transform="scale(0.015625)"/>
       <path id="DejaVuSans-6d" d="M 3328 2828 
Q 3544 3216 3844 3400 
Q 4144 3584 4550 3584 
Q 5097 3584 5394 3201 
Q 5691 2819 5691 2113 
L 5691 0 
L 5113 0 
L 5113 2094 
Q 5113 2597 4934 2840 
Q 4756 3084 4391 3084 
Q 3944 3084 3684 2787 
Q 3425 2491 3425 1978 
L 3425 0 
L 2847 0 
L 2847 2094 
Q 2847 2600 2669 2842 
Q 2491 3084 2119 3084 
Q 1678 3084 1418 2786 
Q 1159 2488 1159 1978 
L 1159 0 
L 581 0 
L 581 3500 
L 1159 3500 
L 1159 2956 
Q 1356 3278 1631 3431 
Q 1906 3584 2284 3584 
Q 2666 3584 2933 3390 
Q 3200 3197 3328 2828 
z
" transform="scale(0.015625)"/>
       <path id="DejaVuSans-62" d="M 3116 1747 
Q 3116 2381 2855 2742 
Q 2594 3103 2138 3103 
Q 1681 3103 1420 2742 
Q 1159 2381 1159 1747 
Q 1159 1113 1420 752 
Q 1681 391 2138 391 
Q 2594 391 2855 752 
Q 3116 1113 3116 1747 
z
M 1159 2969 
Q 1341 3281 1617 3432 
Q 1894 3584 2278 3584 
Q 2916 3584 3314 3078 
Q 3713 2572 3713 1747 
Q 3713 922 3314 415 
Q 2916 -91 2278 -91 
Q 1894 -91 1617 61 
Q 1341 213 1159 525 
L 1159 0 
L 581 0 
L 581 4863 
L 1159 4863 
L 1159 2969 
z
" transform="scale(0.015625)"/>
       <path id="DejaVuSans-65" d="M 3597 1894 
L 3597 1613 
L 953 1613 
Q 991 1019 1311 708 
Q 1631 397 2203 397 
Q 2534 397 2845 478 
Q 3156 559 3463 722 
L 3463 178 
Q 3153 47 2828 -22 
Q 2503 -91 2169 -91 
Q 1331 -91 842 396 
Q 353 884 353 1716 
Q 353 2575 817 3079 
Q 1281 3584 2069 3584 
Q 2775 3584 3186 3129 
Q 3597 2675 3597 1894 
z
M 3022 2063 
Q 3016 2534 2758 2815 
Q 2500 3097 2075 3097 
Q 1594 3097 1305 2825 
Q 1016 2553 972 2059 
L 3022 2063 
z
" transform="scale(0.015625)"/>
       <path id="DejaVuSans-72" d="M 2631 2963 
Q 2534 3019 2420 3045 
Q 2306 3072 2169 3072 
Q 1681 3072 1420 2755 
Q 1159 2438 1159 1844 
L 1159 0 
L 581 0 
L 581 3500 
L 1159 3500 
L 1159 2956 
Q 1341 3275 1631 3429 
Q 1922 3584 2338 3584 
Q 2397 3584 2469 3576 
Q 2541 3569 2628 3553 
L 2631 2963 
z
" transform="scale(0.015625)"/>
       <path id="DejaVuSans-20" transform="scale(0.015625)"/>
       <path id="DejaVuSans-6f" d="M 1959 3097 
Q 1497 3097 1228 2736 
Q 959 2375 959 1747 
Q 959 1119 1226 758 
Q 1494 397 1959 397 
Q 2419 397 2687 759 
Q 2956 1122 2956 1747 
Q 2956 2369 2687 2733 
Q 2419 3097 1959 3097 
z
M 1959 3584 
Q 2709 3584 3137 3096 
Q 3566 2609 3566 1747 
Q 3566 888 3137 398 
Q 2709 -91 1959 -91 
Q 1206 -91 779 398 
Q 353 888 353 1747 
Q 353 2609 779 3096 
Q 1206 3584 1959 3584 
z
" transform="scale(0.015625)"/>
       <path id="DejaVuSans-66" d="M 2375 4863 
L 2375 4384 
L 1825 4384 
Q 1516 4384 1395 4259 
Q 1275 4134 1275 3809 
L 1275 3500 
L 2222 3500 
L 2222 3053 
L 1275 3053 
L 1275 0 
L 697 0 
L 697 3053 
L 147 3053 
L 147 3500 
L 697 3500 
L 697 3744 
Q 697 4328 969 4595 
Q 1241 4863 1831 4863 
L 2375 4863 
z
" transform="scale(0.015625)"/>
       <path id="DejaVuSans-74" d="M 1172 4494 
L 1172 3500 
L 2356 3500 
L 2356 3053 
L 1172 3053 
L 1172 1153 
Q 1172 725 1289 603 
Q 1406 481 1766 481 
L 2356 481 
L 2356 0 
L 1766 0 
Q 1100 0 847 248 
Q 594 497 594 1153 
L 594 3053 
L 172 3053 
L 172 3500 
L 594 3500 
L 594 4494 
L 1172 4494 
z
" transform="scale(0.015625)"/>
       <path id="DejaVuSans-61" d="M 2194 1759 
Q 1497 1759 1228 1600 
Q 959 1441 959 1056 
Q 959 750 1161 570 
Q 1363 391 1709 391 
Q 2188 391 2477 730 
Q 2766 1069 2766 1631 
L 2766 1759 
L 2194 1759 
z
M 3341 1997 
L 3341 0 
L 2766 0 
L 2766 531 
Q 2569 213 2275 61 
Q 1981 -91 1556 -91 
Q 1019 -91 701 211 
Q 384 513 384 1019 
Q 384 1609 779 1909 
Q 1175 2209 1959 2209 
L 2766 2209 
L 2766 2266 
Q 2766 2663 2505 2880 
Q 2244 3097 1772 3097 
Q 1472 3097 1187 3025 
Q 903 2953 641 2809 
L 641 3341 
Q 956 3463 1253 3523 
Q 1550 3584 1831 3584 
Q 2591 3584 2966 3190 
Q 3341 2797 3341 1997 
z
" transform="scale(0.015625)"/>
       <path id="DejaVuSans-63" d="M 3122 3366 
L 3122 2828 
Q 2878 2963 2633 3030 
Q 2388 3097 2138 3097 
Q 1578 3097 1268 2742 
Q 959 2388 959 1747 
Q 959 1106 1268 751 
Q 1578 397 2138 397 
Q 2388 397 2633 464 
Q 2878 531 3122 666 
L 3122 134 
Q 2881 22 2623 -34 
Q 2366 -91 2075 -91 
Q 1284 -91 818 406 
Q 353 903 353 1747 
Q 353 2603 823 3093 
Q 1294 3584 2113 3584 
Q 2378 3584 2631 3529 
Q 2884 3475 3122 3366 
z
" transform="scale(0.015625)"/>
       <path id="DejaVuSans-73" d="M 2834 3397 
L 2834 2853 
Q 2591 2978 2328 3040 
Q 2066 3103 1784 3103 
Q 1356 3103 1142 2972 
Q 928 2841 928 2578 
Q 928 2378 1081 2264 
Q 1234 2150 1697 2047 
L 1894 2003 
Q 2506 1872 2764 1633 
Q 3022 1394 3022 966 
Q 3022 478 2636 193 
Q 2250 -91 1575 -91 
Q 1294 -91 989 -36 
Q 684 19 347 128 
L 347 722 
Q 666 556 975 473 
Q 1284 391 1588 391 
Q 1994 391 2212 530 
Q 2431 669 2431 922 
Q 2431 1156 2273 1281 
Q 2116 1406 1581 1522 
L 1381 1569 
Q 847 1681 609 1914 
Q 372 2147 372 2553 
Q 372 3047 722 3315 
Q 1072 3584 1716 3584 
Q 2034 3584 2315 3537 
Q 2597 3491 2834 3397 
z
" transform="scale(0.015625)"/>
      </defs>
      <use xlink:href="#DejaVuSans-4e"/>
      <use xlink:href="#DejaVuSans-75" x="74.804688"/>
      <use xlink:href="#DejaVuSans-6d" x="138.183594"/>
      <use xlink:href="#DejaVuSans-62" x="235.595703"/>
      <use xlink:href="#DejaVuSans-65" x="299.072266"/>
      <use xlink:href="#DejaVuSans-72" x="360.595703"/>
      <use xlink:href="#DejaVuSans-20" x="401.708984"/>
      <use xlink:href="#DejaVuSans-6f" x="433.496094"/>
      <use xlink:href="#DejaVuSans-66" x="494.677734"/>
      <use xlink:href="#DejaVuSans-20" x="529.882812"/>
      <use xlink:href="#DejaVuSans-74" x="561.669922"/>
      <use xlink:href="#DejaVuSans-72" x="600.878906"/>
      <use xlink:href="#DejaVuSans-61" x="641.992188"/>
      <use xlink:href="#DejaVuSans-63" x="703.271484"/>
      <use xlink:href="#DejaVuSans-65" x="758.251953"/>
      <use xlink:href="#DejaVuSans-73" x="819.775391"/>
     </g>
    </g>
   </g>
   <g id="matplotlib.axis_2">
    <g id="ytick_1">
     <g id="line2d_23">
      <path d="M 46.965625 446.601698 
L 883.965625 446.601698 
" clip-path="url(#p5c426983a0)" style="fill: none; stroke: #b0b0b0; stroke-width: 0.8; stroke-linecap: square"/>
     </g>
     <g id="line2d_24">
      <defs>
       <path id="m92854f31cd" d="M 0 0 
L -3.5 0 
" style="stroke: #000000; stroke-width: 0.8"/>
      </defs>
      <g>
       <use xlink:href="#m92854f31cd" x="46.965625" y="446.601698" style="stroke: #000000; stroke-width: 0.8"/>
      </g>
     </g>
     <g id="text_13">
      <!-- 0 -->
      <g transform="translate(33.603125 450.400917) scale(0.1 -0.1)">
       <use xlink:href="#DejaVuSans-30"/>
      </g>
     </g>
    </g>
    <g id="ytick_2">
     <g id="line2d_25">
      <path d="M 46.965625 406.446335 
L 883.965625 406.446335 
" clip-path="url(#p5c426983a0)" style="fill: none; stroke: #b0b0b0; stroke-width: 0.8; stroke-linecap: square"/>
     </g>
     <g id="line2d_26">
      <g>
       <use xlink:href="#m92854f31cd" x="46.965625" y="406.446335" style="stroke: #000000; stroke-width: 0.8"/>
      </g>
     </g>
     <g id="text_14">
      <!-- 10 -->
      <g transform="translate(27.240625 410.245554) scale(0.1 -0.1)">
       <use xlink:href="#DejaVuSans-31"/>
       <use xlink:href="#DejaVuSans-30" x="63.623047"/>
      </g>
     </g>
    </g>
    <g id="ytick_3">
     <g id="line2d_27">
      <path d="M 46.965625 366.290972 
L 883.965625 366.290972 
" clip-path="url(#p5c426983a0)" style="fill: none; stroke: #b0b0b0; stroke-width: 0.8; stroke-linecap: square"/>
     </g>
     <g id="line2d_28">
      <g>
       <use xlink:href="#m92854f31cd" x="46.965625" y="366.290972" style="stroke: #000000; stroke-width: 0.8"/>
      </g>
     </g>
     <g id="text_15">
      <!-- 20 -->
      <g transform="translate(27.240625 370.090191) scale(0.1 -0.1)">
       <use xlink:href="#DejaVuSans-32"/>
       <use xlink:href="#DejaVuSans-30" x="63.623047"/>
      </g>
     </g>
    </g>
    <g id="ytick_4">
     <g id="line2d_29">
      <path d="M 46.965625 326.135609 
L 883.965625 326.135609 
" clip-path="url(#p5c426983a0)" style="fill: none; stroke: #b0b0b0; stroke-width: 0.8; stroke-linecap: square"/>
     </g>
     <g id="line2d_30">
      <g>
       <use xlink:href="#m92854f31cd" x="46.965625" y="326.135609" style="stroke: #000000; stroke-width: 0.8"/>
      </g>
     </g>
     <g id="text_16">
      <!-- 30 -->
      <g transform="translate(27.240625 329.934828) scale(0.1 -0.1)">
       <use xlink:href="#DejaVuSans-33"/>
       <use xlink:href="#DejaVuSans-30" x="63.623047"/>
      </g>
     </g>
    </g>
    <g id="ytick_5">
     <g id="line2d_31">
      <path d="M 46.965625 285.980246 
L 883.965625 285.980246 
" clip-path="url(#p5c426983a0)" style="fill: none; stroke: #b0b0b0; stroke-width: 0.8; stroke-linecap: square"/>
     </g>
     <g id="line2d_32">
      <g>
       <use xlink:href="#m92854f31cd" x="46.965625" y="285.980246" style="stroke: #000000; stroke-width: 0.8"/>
      </g>
     </g>
     <g id="text_17">
      <!-- 40 -->
      <g transform="translate(27.240625 289.779465) scale(0.1 -0.1)">
       <use xlink:href="#DejaVuSans-34"/>
       <use xlink:href="#DejaVuSans-30" x="63.623047"/>
      </g>
     </g>
    </g>
    <g id="ytick_6">
     <g id="line2d_33">
      <path d="M 46.965625 245.824883 
L 883.965625 245.824883 
" clip-path="url(#p5c426983a0)" style="fill: none; stroke: #b0b0b0; stroke-width: 0.8; stroke-linecap: square"/>
     </g>
     <g id="line2d_34">
      <g>
       <use xlink:href="#m92854f31cd" x="46.965625" y="245.824883" style="stroke: #000000; stroke-width: 0.8"/>
      </g>
     </g>
     <g id="text_18">
      <!-- 50 -->
      <g transform="translate(27.240625 249.624102) scale(0.1 -0.1)">
       <use xlink:href="#DejaVuSans-35"/>
       <use xlink:href="#DejaVuSans-30" x="63.623047"/>
      </g>
     </g>
    </g>
    <g id="ytick_7">
     <g id="line2d_35">
      <path d="M 46.965625 205.66952 
L 883.965625 205.66952 
" clip-path="url(#p5c426983a0)" style="fill: none; stroke: #b0b0b0; stroke-width: 0.8; stroke-linecap: square"/>
     </g>
     <g id="line2d_36">
      <g>
       <use xlink:href="#m92854f31cd" x="46.965625" y="205.66952" style="stroke: #000000; stroke-width: 0.8"/>
      </g>
     </g>
     <g id="text_19">
      <!-- 60 -->
      <g transform="translate(27.240625 209.468739) scale(0.1 -0.1)">
       <use xlink:href="#DejaVuSans-36"/>
       <use xlink:href="#DejaVuSans-30" x="63.623047"/>
      </g>
     </g>
    </g>
    <g id="ytick_8">
     <g id="line2d_37">
      <path d="M 46.965625 165.514157 
L 883.965625 165.514157 
" clip-path="url(#p5c426983a0)" style="fill: none; stroke: #b0b0b0; stroke-width: 0.8; stroke-linecap: square"/>
     </g>
     <g id="line2d_38">
      <g>
       <use xlink:href="#m92854f31cd" x="46.965625" y="165.514157" style="stroke: #000000; stroke-width: 0.8"/>
      </g>
     </g>
     <g id="text_20">
      <!-- 70 -->
      <g transform="translate(27.240625 169.313376) scale(0.1 -0.1)">
       <use xlink:href="#DejaVuSans-37"/>
       <use xlink:href="#DejaVuSans-30" x="63.623047"/>
      </g>
     </g>
    </g>
    <g id="ytick_9">
     <g id="line2d_39">
      <path d="M 46.965625 125.358794 
L 883.965625 125.358794 
" clip-path="url(#p5c426983a0)" style="fill: none; stroke: #b0b0b0; stroke-width: 0.8; stroke-linecap: square"/>
     </g>
     <g id="line2d_40">
      <g>
       <use xlink:href="#m92854f31cd" x="46.965625" y="125.358794" style="stroke: #000000; stroke-width: 0.8"/>
      </g>
     </g>
     <g id="text_21">
      <!-- 80 -->
      <g transform="translate(27.240625 129.158013) scale(0.1 -0.1)">
       <use xlink:href="#DejaVuSans-38"/>
       <use xlink:href="#DejaVuSans-30" x="63.623047"/>
      </g>
     </g>
    </g>
    <g id="ytick_10">
     <g id="line2d_41">
      <path d="M 46.965625 85.203431 
L 883.965625 85.203431 
" clip-path="url(#p5c426983a0)" style="fill: none; stroke: #b0b0b0; stroke-width: 0.8; stroke-linecap: square"/>
     </g>
     <g id="line2d_42">
      <g>
       <use xlink:href="#m92854f31cd" x="46.965625" y="85.203431" style="stroke: #000000; stroke-width: 0.8"/>
      </g>
     </g>
     <g id="text_22">
      <!-- 90 -->
      <g transform="translate(27.240625 89.00265) scale(0.1 -0.1)">
       <use xlink:href="#DejaVuSans-39"/>
       <use xlink:href="#DejaVuSans-30" x="63.623047"/>
      </g>
     </g>
    </g>
    <g id="ytick_11">
     <g id="line2d_43">
      <path d="M 46.965625 45.048068 
L 883.965625 45.048068 
" clip-path="url(#p5c426983a0)" style="fill: none; stroke: #b0b0b0; stroke-width: 0.8; stroke-linecap: square"/>
     </g>
     <g id="line2d_44">
      <g>
       <use xlink:href="#m92854f31cd" x="46.965625" y="45.048068" style="stroke: #000000; stroke-width: 0.8"/>
      </g>
     </g>
     <g id="text_23">
      <!-- 100 -->
      <g transform="translate(20.878125 48.847287) scale(0.1 -0.1)">
       <use xlink:href="#DejaVuSans-31"/>
       <use xlink:href="#DejaVuSans-30" x="63.623047"/>
       <use xlink:href="#DejaVuSans-30" x="127.246094"/>
      </g>
     </g>
    </g>
    <g id="text_24">
     <!-- GE -->
     <g transform="translate(14.798438 251.111719) rotate(-90) scale(0.1 -0.1)">
      <defs>
       <path id="DejaVuSans-47" d="M 3809 666 
L 3809 1919 
L 2778 1919 
L 2778 2438 
L 4434 2438 
L 4434 434 
Q 4069 175 3628 42 
Q 3188 -91 2688 -91 
Q 1594 -91 976 548 
Q 359 1188 359 2328 
Q 359 3472 976 4111 
Q 1594 4750 2688 4750 
Q 3144 4750 3555 4637 
Q 3966 4525 4313 4306 
L 4313 3634 
Q 3963 3931 3569 4081 
Q 3175 4231 2741 4231 
Q 1884 4231 1454 3753 
Q 1025 3275 1025 2328 
Q 1025 1384 1454 906 
Q 1884 428 2741 428 
Q 3075 428 3337 486 
Q 3600 544 3809 666 
z
" transform="scale(0.015625)"/>
       <path id="DejaVuSans-45" d="M 628 4666 
L 3578 4666 
L 3578 4134 
L 1259 4134 
L 1259 2753 
L 3481 2753 
L 3481 2222 
L 1259 2222 
L 1259 531 
L 3634 531 
L 3634 0 
L 628 0 
L 628 4666 
z
" transform="scale(0.015625)"/>
      </defs>
      <use xlink:href="#DejaVuSans-47"/>
      <use xlink:href="#DejaVuSans-45" x="77.490234"/>
     </g>
    </g>
   </g>
   <g id="line2d_45">
    <path d="M 845.92017 465.838125 
L 845.92017 22.318125 
" clip-path="url(#p5c426983a0)" style="fill: none; stroke-dasharray: 5.55,2.4; stroke-dashoffset: 0; stroke: #ff0000; stroke-width: 1.5"/>
   </g>
   <g id="line2d_46">
    <path d="M 85.01108 165.8354 
L 92.69703 141.782338 
L 100.38298 156.479201 
L 108.068931 175.111289 
L 115.754881 197.397515 
L 123.440832 215.02572 
L 131.126782 235.344334 
L 138.812732 235.866353 
L 146.498683 257.269162 
L 154.184633 260.240659 
L 161.870584 258.393512 
L 169.556534 272.969909 
L 177.242485 277.105911 
L 184.928435 289.513918 
L 192.614385 302.684877 
L 200.300336 309.952998 
L 207.986286 303.287208 
L 215.672237 301.88177 
L 223.358187 303.166742 
L 231.044137 319.389508 
L 238.730088 324.328618 
L 246.416038 334.046216 
L 254.101989 340.912783 
L 261.787939 348.221059 
L 269.473889 353.802654 
L 277.15984 352.71846 
L 284.84579 357.416637 
L 292.531741 366.692526 
L 300.217691 365.086311 
L 307.903642 368.338896 
L 315.589592 371.029305 
L 323.275542 370.226198 
L 330.961493 375.205463 
L 338.647443 376.53059 
L 346.333394 379.100533 
L 354.019344 383.838866 
L 361.705294 379.30131 
L 369.391245 381.148457 
L 377.077195 382.955448 
L 384.763146 382.714516 
L 392.449096 381.108301 
L 400.135046 383.798711 
L 407.820997 388.577199 
L 415.506947 394.319416 
L 423.192898 397.692466 
L 430.878848 397.692466 
L 438.564799 400.985206 
L 446.250749 401.266294 
L 453.936699 404.15748 
L 461.62265 406.285714 
L 469.3086 405.763694 
L 476.994551 405.321985 
L 484.680501 409.578454 
L 492.366451 411.746843 
L 500.052402 413.634145 
L 507.738352 415.84269 
L 515.424303 419.175585 
L 523.110253 421.464441 
L 530.796204 422.42817 
L 538.482154 425.520133 
L 546.168104 427.046037 
L 553.854055 426.283085 
L 561.540005 425.761065 
L 569.225956 427.005881 
L 576.911906 428.772717 
L 584.597856 429.214426 
L 592.283807 430.338776 
L 599.969757 431.704059 
L 607.655708 430.619864 
L 615.341658 431.985146 
L 623.027608 432.025302 
L 630.713559 431.944991 
L 638.399509 431.944991 
L 646.08546 432.145768 
L 653.77141 433.470895 
L 661.457361 433.390584 
L 669.143311 433.51105 
L 676.829261 432.748098 
L 684.515212 433.631516 
L 692.201162 434.073225 
L 699.887113 434.11338 
L 707.573063 433.470895 
L 715.259013 434.434623 
L 722.944964 435.840061 
L 730.630914 437.084877 
L 738.316865 437.40612 
L 746.002815 437.566742 
L 753.688765 437.526586 
L 761.374716 437.165188 
L 769.060666 438.289538 
L 776.746617 438.490315 
L 784.432567 439.132801 
L 792.118518 438.650936 
L 799.804468 439.333578 
L 807.490418 439.454044 
L 815.176369 440.377617 
L 822.862319 439.935908 
L 830.54827 440.498083 
L 838.23422 440.739015 
L 845.92017 440.979948 
" clip-path="url(#p5c426983a0)" style="fill: none; stroke: #ff0000; stroke-width: 1.5; stroke-linecap: square"/>
    <defs>
     <path id="m5f0407dc6b" d="M 0 3 
C 0.795609 3 1.55874 2.683901 2.12132 2.12132 
C 2.683901 1.55874 3 0.795609 3 0 
C 3 -0.795609 2.683901 -1.55874 2.12132 -2.12132 
C 1.55874 -2.683901 0.795609 -3 0 -3 
C -0.795609 -3 -1.55874 -2.683901 -2.12132 -2.12132 
C -2.683901 -1.55874 -3 -0.795609 -3 0 
C -3 0.795609 -2.683901 1.55874 -2.12132 2.12132 
C -1.55874 2.683901 -0.795609 3 0 3 
z
" style="stroke: #ff0000"/>
    </defs>
    <g clip-path="url(#p5c426983a0)">
     <use xlink:href="#m5f0407dc6b" x="85.01108" y="165.8354" style="fill: #ff0000; stroke: #ff0000"/>
     <use xlink:href="#m5f0407dc6b" x="92.69703" y="141.782338" style="fill: #ff0000; stroke: #ff0000"/>
     <use xlink:href="#m5f0407dc6b" x="100.38298" y="156.479201" style="fill: #ff0000; stroke: #ff0000"/>
     <use xlink:href="#m5f0407dc6b" x="108.068931" y="175.111289" style="fill: #ff0000; stroke: #ff0000"/>
     <use xlink:href="#m5f0407dc6b" x="115.754881" y="197.397515" style="fill: #ff0000; stroke: #ff0000"/>
     <use xlink:href="#m5f0407dc6b" x="123.440832" y="215.02572" style="fill: #ff0000; stroke: #ff0000"/>
     <use xlink:href="#m5f0407dc6b" x="131.126782" y="235.344334" style="fill: #ff0000; stroke: #ff0000"/>
     <use xlink:href="#m5f0407dc6b" x="138.812732" y="235.866353" style="fill: #ff0000; stroke: #ff0000"/>
     <use xlink:href="#m5f0407dc6b" x="146.498683" y="257.269162" style="fill: #ff0000; stroke: #ff0000"/>
     <use xlink:href="#m5f0407dc6b" x="154.184633" y="260.240659" style="fill: #ff0000; stroke: #ff0000"/>
     <use xlink:href="#m5f0407dc6b" x="161.870584" y="258.393512" style="fill: #ff0000; stroke: #ff0000"/>
     <use xlink:href="#m5f0407dc6b" x="169.556534" y="272.969909" style="fill: #ff0000; stroke: #ff0000"/>
     <use xlink:href="#m5f0407dc6b" x="177.242485" y="277.105911" style="fill: #ff0000; stroke: #ff0000"/>
     <use xlink:href="#m5f0407dc6b" x="184.928435" y="289.513918" style="fill: #ff0000; stroke: #ff0000"/>
     <use xlink:href="#m5f0407dc6b" x="192.614385" y="302.684877" style="fill: #ff0000; stroke: #ff0000"/>
     <use xlink:href="#m5f0407dc6b" x="200.300336" y="309.952998" style="fill: #ff0000; stroke: #ff0000"/>
     <use xlink:href="#m5f0407dc6b" x="207.986286" y="303.287208" style="fill: #ff0000; stroke: #ff0000"/>
     <use xlink:href="#m5f0407dc6b" x="215.672237" y="301.88177" style="fill: #ff0000; stroke: #ff0000"/>
     <use xlink:href="#m5f0407dc6b" x="223.358187" y="303.166742" style="fill: #ff0000; stroke: #ff0000"/>
     <use xlink:href="#m5f0407dc6b" x="231.044137" y="319.389508" style="fill: #ff0000; stroke: #ff0000"/>
     <use xlink:href="#m5f0407dc6b" x="238.730088" y="324.328618" style="fill: #ff0000; stroke: #ff0000"/>
     <use xlink:href="#m5f0407dc6b" x="246.416038" y="334.046216" style="fill: #ff0000; stroke: #ff0000"/>
     <use xlink:href="#m5f0407dc6b" x="254.101989" y="340.912783" style="fill: #ff0000; stroke: #ff0000"/>
     <use xlink:href="#m5f0407dc6b" x="261.787939" y="348.221059" style="fill: #ff0000; stroke: #ff0000"/>
     <use xlink:href="#m5f0407dc6b" x="269.473889" y="353.802654" style="fill: #ff0000; stroke: #ff0000"/>
     <use xlink:href="#m5f0407dc6b" x="277.15984" y="352.71846" style="fill: #ff0000; stroke: #ff0000"/>
     <use xlink:href="#m5f0407dc6b" x="284.84579" y="357.416637" style="fill: #ff0000; stroke: #ff0000"/>
     <use xlink:href="#m5f0407dc6b" x="292.531741" y="366.692526" style="fill: #ff0000; stroke: #ff0000"/>
     <use xlink:href="#m5f0407dc6b" x="300.217691" y="365.086311" style="fill: #ff0000; stroke: #ff0000"/>
     <use xlink:href="#m5f0407dc6b" x="307.903642" y="368.338896" style="fill: #ff0000; stroke: #ff0000"/>
     <use xlink:href="#m5f0407dc6b" x="315.589592" y="371.029305" style="fill: #ff0000; stroke: #ff0000"/>
     <use xlink:href="#m5f0407dc6b" x="323.275542" y="370.226198" style="fill: #ff0000; stroke: #ff0000"/>
     <use xlink:href="#m5f0407dc6b" x="330.961493" y="375.205463" style="fill: #ff0000; stroke: #ff0000"/>
     <use xlink:href="#m5f0407dc6b" x="338.647443" y="376.53059" style="fill: #ff0000; stroke: #ff0000"/>
     <use xlink:href="#m5f0407dc6b" x="346.333394" y="379.100533" style="fill: #ff0000; stroke: #ff0000"/>
     <use xlink:href="#m5f0407dc6b" x="354.019344" y="383.838866" style="fill: #ff0000; stroke: #ff0000"/>
     <use xlink:href="#m5f0407dc6b" x="361.705294" y="379.30131" style="fill: #ff0000; stroke: #ff0000"/>
     <use xlink:href="#m5f0407dc6b" x="369.391245" y="381.148457" style="fill: #ff0000; stroke: #ff0000"/>
     <use xlink:href="#m5f0407dc6b" x="377.077195" y="382.955448" style="fill: #ff0000; stroke: #ff0000"/>
     <use xlink:href="#m5f0407dc6b" x="384.763146" y="382.714516" style="fill: #ff0000; stroke: #ff0000"/>
     <use xlink:href="#m5f0407dc6b" x="392.449096" y="381.108301" style="fill: #ff0000; stroke: #ff0000"/>
     <use xlink:href="#m5f0407dc6b" x="400.135046" y="383.798711" style="fill: #ff0000; stroke: #ff0000"/>
     <use xlink:href="#m5f0407dc6b" x="407.820997" y="388.577199" style="fill: #ff0000; stroke: #ff0000"/>
     <use xlink:href="#m5f0407dc6b" x="415.506947" y="394.319416" style="fill: #ff0000; stroke: #ff0000"/>
     <use xlink:href="#m5f0407dc6b" x="423.192898" y="397.692466" style="fill: #ff0000; stroke: #ff0000"/>
     <use xlink:href="#m5f0407dc6b" x="430.878848" y="397.692466" style="fill: #ff0000; stroke: #ff0000"/>
     <use xlink:href="#m5f0407dc6b" x="438.564799" y="400.985206" style="fill: #ff0000; stroke: #ff0000"/>
     <use xlink:href="#m5f0407dc6b" x="446.250749" y="401.266294" style="fill: #ff0000; stroke: #ff0000"/>
     <use xlink:href="#m5f0407dc6b" x="453.936699" y="404.15748" style="fill: #ff0000; stroke: #ff0000"/>
     <use xlink:href="#m5f0407dc6b" x="461.62265" y="406.285714" style="fill: #ff0000; stroke: #ff0000"/>
     <use xlink:href="#m5f0407dc6b" x="469.3086" y="405.763694" style="fill: #ff0000; stroke: #ff0000"/>
     <use xlink:href="#m5f0407dc6b" x="476.994551" y="405.321985" style="fill: #ff0000; stroke: #ff0000"/>
     <use xlink:href="#m5f0407dc6b" x="484.680501" y="409.578454" style="fill: #ff0000; stroke: #ff0000"/>
     <use xlink:href="#m5f0407dc6b" x="492.366451" y="411.746843" style="fill: #ff0000; stroke: #ff0000"/>
     <use xlink:href="#m5f0407dc6b" x="500.052402" y="413.634145" style="fill: #ff0000; stroke: #ff0000"/>
     <use xlink:href="#m5f0407dc6b" x="507.738352" y="415.84269" style="fill: #ff0000; stroke: #ff0000"/>
     <use xlink:href="#m5f0407dc6b" x="515.424303" y="419.175585" style="fill: #ff0000; stroke: #ff0000"/>
     <use xlink:href="#m5f0407dc6b" x="523.110253" y="421.464441" style="fill: #ff0000; stroke: #ff0000"/>
     <use xlink:href="#m5f0407dc6b" x="530.796204" y="422.42817" style="fill: #ff0000; stroke: #ff0000"/>
     <use xlink:href="#m5f0407dc6b" x="538.482154" y="425.520133" style="fill: #ff0000; stroke: #ff0000"/>
     <use xlink:href="#m5f0407dc6b" x="546.168104" y="427.046037" style="fill: #ff0000; stroke: #ff0000"/>
     <use xlink:href="#m5f0407dc6b" x="553.854055" y="426.283085" style="fill: #ff0000; stroke: #ff0000"/>
     <use xlink:href="#m5f0407dc6b" x="561.540005" y="425.761065" style="fill: #ff0000; stroke: #ff0000"/>
     <use xlink:href="#m5f0407dc6b" x="569.225956" y="427.005881" style="fill: #ff0000; stroke: #ff0000"/>
     <use xlink:href="#m5f0407dc6b" x="576.911906" y="428.772717" style="fill: #ff0000; stroke: #ff0000"/>
     <use xlink:href="#m5f0407dc6b" x="584.597856" y="429.214426" style="fill: #ff0000; stroke: #ff0000"/>
     <use xlink:href="#m5f0407dc6b" x="592.283807" y="430.338776" style="fill: #ff0000; stroke: #ff0000"/>
     <use xlink:href="#m5f0407dc6b" x="599.969757" y="431.704059" style="fill: #ff0000; stroke: #ff0000"/>
     <use xlink:href="#m5f0407dc6b" x="607.655708" y="430.619864" style="fill: #ff0000; stroke: #ff0000"/>
     <use xlink:href="#m5f0407dc6b" x="615.341658" y="431.985146" style="fill: #ff0000; stroke: #ff0000"/>
     <use xlink:href="#m5f0407dc6b" x="623.027608" y="432.025302" style="fill: #ff0000; stroke: #ff0000"/>
     <use xlink:href="#m5f0407dc6b" x="630.713559" y="431.944991" style="fill: #ff0000; stroke: #ff0000"/>
     <use xlink:href="#m5f0407dc6b" x="638.399509" y="431.944991" style="fill: #ff0000; stroke: #ff0000"/>
     <use xlink:href="#m5f0407dc6b" x="646.08546" y="432.145768" style="fill: #ff0000; stroke: #ff0000"/>
     <use xlink:href="#m5f0407dc6b" x="653.77141" y="433.470895" style="fill: #ff0000; stroke: #ff0000"/>
     <use xlink:href="#m5f0407dc6b" x="661.457361" y="433.390584" style="fill: #ff0000; stroke: #ff0000"/>
     <use xlink:href="#m5f0407dc6b" x="669.143311" y="433.51105" style="fill: #ff0000; stroke: #ff0000"/>
     <use xlink:href="#m5f0407dc6b" x="676.829261" y="432.748098" style="fill: #ff0000; stroke: #ff0000"/>
     <use xlink:href="#m5f0407dc6b" x="684.515212" y="433.631516" style="fill: #ff0000; stroke: #ff0000"/>
     <use xlink:href="#m5f0407dc6b" x="692.201162" y="434.073225" style="fill: #ff0000; stroke: #ff0000"/>
     <use xlink:href="#m5f0407dc6b" x="699.887113" y="434.11338" style="fill: #ff0000; stroke: #ff0000"/>
     <use xlink:href="#m5f0407dc6b" x="707.573063" y="433.470895" style="fill: #ff0000; stroke: #ff0000"/>
     <use xlink:href="#m5f0407dc6b" x="715.259013" y="434.434623" style="fill: #ff0000; stroke: #ff0000"/>
     <use xlink:href="#m5f0407dc6b" x="722.944964" y="435.840061" style="fill: #ff0000; stroke: #ff0000"/>
     <use xlink:href="#m5f0407dc6b" x="730.630914" y="437.084877" style="fill: #ff0000; stroke: #ff0000"/>
     <use xlink:href="#m5f0407dc6b" x="738.316865" y="437.40612" style="fill: #ff0000; stroke: #ff0000"/>
     <use xlink:href="#m5f0407dc6b" x="746.002815" y="437.566742" style="fill: #ff0000; stroke: #ff0000"/>
     <use xlink:href="#m5f0407dc6b" x="753.688765" y="437.526586" style="fill: #ff0000; stroke: #ff0000"/>
     <use xlink:href="#m5f0407dc6b" x="761.374716" y="437.165188" style="fill: #ff0000; stroke: #ff0000"/>
     <use xlink:href="#m5f0407dc6b" x="769.060666" y="438.289538" style="fill: #ff0000; stroke: #ff0000"/>
     <use xlink:href="#m5f0407dc6b" x="776.746617" y="438.490315" style="fill: #ff0000; stroke: #ff0000"/>
     <use xlink:href="#m5f0407dc6b" x="784.432567" y="439.132801" style="fill: #ff0000; stroke: #ff0000"/>
     <use xlink:href="#m5f0407dc6b" x="792.118518" y="438.650936" style="fill: #ff0000; stroke: #ff0000"/>
     <use xlink:href="#m5f0407dc6b" x="799.804468" y="439.333578" style="fill: #ff0000; stroke: #ff0000"/>
     <use xlink:href="#m5f0407dc6b" x="807.490418" y="439.454044" style="fill: #ff0000; stroke: #ff0000"/>
     <use xlink:href="#m5f0407dc6b" x="815.176369" y="440.377617" style="fill: #ff0000; stroke: #ff0000"/>
     <use xlink:href="#m5f0407dc6b" x="822.862319" y="439.935908" style="fill: #ff0000; stroke: #ff0000"/>
     <use xlink:href="#m5f0407dc6b" x="830.54827" y="440.498083" style="fill: #ff0000; stroke: #ff0000"/>
     <use xlink:href="#m5f0407dc6b" x="838.23422" y="440.739015" style="fill: #ff0000; stroke: #ff0000"/>
     <use xlink:href="#m5f0407dc6b" x="845.92017" y="440.979948" style="fill: #ff0000; stroke: #ff0000"/>
    </g>
   </g>
   <g id="line2d_47">
    <path d="M 845.92017 465.838125 
L 845.92017 22.318125 
" clip-path="url(#p5c426983a0)" style="fill: none; stroke-dasharray: 5.55,2.4; stroke-dashoffset: 0; stroke: #008000; stroke-width: 1.5"/>
   </g>
   <g id="line2d_48">
    <path d="M 85.01108 136.281053 
L 92.69703 103.634743 
L 100.38298 141.822493 
L 108.068931 135.477946 
L 115.754881 162.54266 
L 123.440832 187.117743 
L 131.126782 219.362499 
L 138.812732 224.783473 
L 146.498683 245.021776 
L 154.184633 266.223808 
L 161.870584 286.542421 
L 169.556534 290.27687 
L 177.242485 305.054044 
L 184.928435 321.357121 
L 192.614385 331.114874 
L 200.300336 338.744393 
L 207.986286 344.48661 
L 215.672237 349.305254 
L 223.358187 357.416637 
L 231.044137 367.17439 
L 238.730088 375.847949 
L 246.416038 379.140688 
L 254.101989 381.509855 
L 261.787939 386.167877 
L 269.473889 388.015024 
L 277.15984 392.191181 
L 284.84579 390.625122 
L 292.531741 389.982637 
L 300.217691 391.066831 
L 307.903642 396.206718 
L 315.589592 401.46707 
L 323.275542 401.507226 
L 330.961493 405.763694 
L 338.647443 410.502027 
L 346.333394 410.702804 
L 354.019344 410.220939 
L 361.705294 410.863425 
L 369.391245 413.433369 
L 377.077195 416.404865 
L 384.763146 418.091391 
L 392.449096 420.219625 
L 400.135046 420.902266 
L 407.820997 423.472209 
L 415.506947 423.231277 
L 423.192898 426.082308 
L 430.878848 428.170387 
L 438.564799 427.929455 
L 446.250749 428.531785 
L 453.936699 432.426855 
L 461.62265 434.474779 
L 469.3086 434.193691 
L 476.994551 436.241615 
L 484.680501 437.606897 
L 492.366451 437.325809 
L 500.052402 438.410004 
L 507.738352 439.132801 
L 515.424303 439.05249 
L 523.110253 440.216996 
L 530.796204 440.257151 
L 538.482154 440.216996 
L 546.168104 440.69886 
L 553.854055 440.417772 
L 561.540005 440.056374 
L 569.225956 440.739015 
L 576.911906 441.30119 
L 584.597856 441.341346 
L 592.283807 441.943676 
L 599.969757 441.261035 
L 607.655708 441.501967 
L 615.341658 441.100414 
L 623.027608 441.983832 
L 630.713559 441.742899 
L 638.399509 441.863366 
L 646.08546 441.742899 
L 653.77141 442.505851 
L 661.457361 442.907405 
L 669.143311 442.465696 
L 676.829261 441.662589 
L 684.515212 441.582278 
L 692.201162 441.662589 
L 699.887113 441.983832 
L 707.573063 441.943676 
L 715.259013 442.626317 
L 722.944964 442.546007 
L 730.630914 442.586162 
L 738.316865 442.505851 
L 746.002815 442.505851 
L 753.688765 442.264919 
L 761.374716 442.34523 
L 769.060666 442.666473 
L 776.746617 443.068026 
L 784.432567 443.228648 
L 792.118518 443.228648 
L 799.804468 442.94756 
L 807.490418 443.108182 
L 815.176369 443.228648 
L 822.862319 443.308959 
L 830.54827 443.549891 
L 838.23422 443.871134 
L 845.92017 444.07191 
" clip-path="url(#p5c426983a0)" style="fill: none; stroke: #008000; stroke-width: 1.5; stroke-linecap: square"/>
    <defs>
     <path id="m65e9b7f450" d="M 0 3 
C 0.795609 3 1.55874 2.683901 2.12132 2.12132 
C 2.683901 1.55874 3 0.795609 3 0 
C 3 -0.795609 2.683901 -1.55874 2.12132 -2.12132 
C 1.55874 -2.683901 0.795609 -3 0 -3 
C -0.795609 -3 -1.55874 -2.683901 -2.12132 -2.12132 
C -2.683901 -1.55874 -3 -0.795609 -3 0 
C -3 0.795609 -2.683901 1.55874 -2.12132 2.12132 
C -1.55874 2.683901 -0.795609 3 0 3 
z
" style="stroke: #008000"/>
    </defs>
    <g clip-path="url(#p5c426983a0)">
     <use xlink:href="#m65e9b7f450" x="85.01108" y="136.281053" style="fill: #008000; stroke: #008000"/>
     <use xlink:href="#m65e9b7f450" x="92.69703" y="103.634743" style="fill: #008000; stroke: #008000"/>
     <use xlink:href="#m65e9b7f450" x="100.38298" y="141.822493" style="fill: #008000; stroke: #008000"/>
     <use xlink:href="#m65e9b7f450" x="108.068931" y="135.477946" style="fill: #008000; stroke: #008000"/>
     <use xlink:href="#m65e9b7f450" x="115.754881" y="162.54266" style="fill: #008000; stroke: #008000"/>
     <use xlink:href="#m65e9b7f450" x="123.440832" y="187.117743" style="fill: #008000; stroke: #008000"/>
     <use xlink:href="#m65e9b7f450" x="131.126782" y="219.362499" style="fill: #008000; stroke: #008000"/>
     <use xlink:href="#m65e9b7f450" x="138.812732" y="224.783473" style="fill: #008000; stroke: #008000"/>
     <use xlink:href="#m65e9b7f450" x="146.498683" y="245.021776" style="fill: #008000; stroke: #008000"/>
     <use xlink:href="#m65e9b7f450" x="154.184633" y="266.223808" style="fill: #008000; stroke: #008000"/>
     <use xlink:href="#m65e9b7f450" x="161.870584" y="286.542421" style="fill: #008000; stroke: #008000"/>
     <use xlink:href="#m65e9b7f450" x="169.556534" y="290.27687" style="fill: #008000; stroke: #008000"/>
     <use xlink:href="#m65e9b7f450" x="177.242485" y="305.054044" style="fill: #008000; stroke: #008000"/>
     <use xlink:href="#m65e9b7f450" x="184.928435" y="321.357121" style="fill: #008000; stroke: #008000"/>
     <use xlink:href="#m65e9b7f450" x="192.614385" y="331.114874" style="fill: #008000; stroke: #008000"/>
     <use xlink:href="#m65e9b7f450" x="200.300336" y="338.744393" style="fill: #008000; stroke: #008000"/>
     <use xlink:href="#m65e9b7f450" x="207.986286" y="344.48661" style="fill: #008000; stroke: #008000"/>
     <use xlink:href="#m65e9b7f450" x="215.672237" y="349.305254" style="fill: #008000; stroke: #008000"/>
     <use xlink:href="#m65e9b7f450" x="223.358187" y="357.416637" style="fill: #008000; stroke: #008000"/>
     <use xlink:href="#m65e9b7f450" x="231.044137" y="367.17439" style="fill: #008000; stroke: #008000"/>
     <use xlink:href="#m65e9b7f450" x="238.730088" y="375.847949" style="fill: #008000; stroke: #008000"/>
     <use xlink:href="#m65e9b7f450" x="246.416038" y="379.140688" style="fill: #008000; stroke: #008000"/>
     <use xlink:href="#m65e9b7f450" x="254.101989" y="381.509855" style="fill: #008000; stroke: #008000"/>
     <use xlink:href="#m65e9b7f450" x="261.787939" y="386.167877" style="fill: #008000; stroke: #008000"/>
     <use xlink:href="#m65e9b7f450" x="269.473889" y="388.015024" style="fill: #008000; stroke: #008000"/>
     <use xlink:href="#m65e9b7f450" x="277.15984" y="392.191181" style="fill: #008000; stroke: #008000"/>
     <use xlink:href="#m65e9b7f450" x="284.84579" y="390.625122" style="fill: #008000; stroke: #008000"/>
     <use xlink:href="#m65e9b7f450" x="292.531741" y="389.982637" style="fill: #008000; stroke: #008000"/>
     <use xlink:href="#m65e9b7f450" x="300.217691" y="391.066831" style="fill: #008000; stroke: #008000"/>
     <use xlink:href="#m65e9b7f450" x="307.903642" y="396.206718" style="fill: #008000; stroke: #008000"/>
     <use xlink:href="#m65e9b7f450" x="315.589592" y="401.46707" style="fill: #008000; stroke: #008000"/>
     <use xlink:href="#m65e9b7f450" x="323.275542" y="401.507226" style="fill: #008000; stroke: #008000"/>
     <use xlink:href="#m65e9b7f450" x="330.961493" y="405.763694" style="fill: #008000; stroke: #008000"/>
     <use xlink:href="#m65e9b7f450" x="338.647443" y="410.502027" style="fill: #008000; stroke: #008000"/>
     <use xlink:href="#m65e9b7f450" x="346.333394" y="410.702804" style="fill: #008000; stroke: #008000"/>
     <use xlink:href="#m65e9b7f450" x="354.019344" y="410.220939" style="fill: #008000; stroke: #008000"/>
     <use xlink:href="#m65e9b7f450" x="361.705294" y="410.863425" style="fill: #008000; stroke: #008000"/>
     <use xlink:href="#m65e9b7f450" x="369.391245" y="413.433369" style="fill: #008000; stroke: #008000"/>
     <use xlink:href="#m65e9b7f450" x="377.077195" y="416.404865" style="fill: #008000; stroke: #008000"/>
     <use xlink:href="#m65e9b7f450" x="384.763146" y="418.091391" style="fill: #008000; stroke: #008000"/>
     <use xlink:href="#m65e9b7f450" x="392.449096" y="420.219625" style="fill: #008000; stroke: #008000"/>
     <use xlink:href="#m65e9b7f450" x="400.135046" y="420.902266" style="fill: #008000; stroke: #008000"/>
     <use xlink:href="#m65e9b7f450" x="407.820997" y="423.472209" style="fill: #008000; stroke: #008000"/>
     <use xlink:href="#m65e9b7f450" x="415.506947" y="423.231277" style="fill: #008000; stroke: #008000"/>
     <use xlink:href="#m65e9b7f450" x="423.192898" y="426.082308" style="fill: #008000; stroke: #008000"/>
     <use xlink:href="#m65e9b7f450" x="430.878848" y="428.170387" style="fill: #008000; stroke: #008000"/>
     <use xlink:href="#m65e9b7f450" x="438.564799" y="427.929455" style="fill: #008000; stroke: #008000"/>
     <use xlink:href="#m65e9b7f450" x="446.250749" y="428.531785" style="fill: #008000; stroke: #008000"/>
     <use xlink:href="#m65e9b7f450" x="453.936699" y="432.426855" style="fill: #008000; stroke: #008000"/>
     <use xlink:href="#m65e9b7f450" x="461.62265" y="434.474779" style="fill: #008000; stroke: #008000"/>
     <use xlink:href="#m65e9b7f450" x="469.3086" y="434.193691" style="fill: #008000; stroke: #008000"/>
     <use xlink:href="#m65e9b7f450" x="476.994551" y="436.241615" style="fill: #008000; stroke: #008000"/>
     <use xlink:href="#m65e9b7f450" x="484.680501" y="437.606897" style="fill: #008000; stroke: #008000"/>
     <use xlink:href="#m65e9b7f450" x="492.366451" y="437.325809" style="fill: #008000; stroke: #008000"/>
     <use xlink:href="#m65e9b7f450" x="500.052402" y="438.410004" style="fill: #008000; stroke: #008000"/>
     <use xlink:href="#m65e9b7f450" x="507.738352" y="439.132801" style="fill: #008000; stroke: #008000"/>
     <use xlink:href="#m65e9b7f450" x="515.424303" y="439.05249" style="fill: #008000; stroke: #008000"/>
     <use xlink:href="#m65e9b7f450" x="523.110253" y="440.216996" style="fill: #008000; stroke: #008000"/>
     <use xlink:href="#m65e9b7f450" x="530.796204" y="440.257151" style="fill: #008000; stroke: #008000"/>
     <use xlink:href="#m65e9b7f450" x="538.482154" y="440.216996" style="fill: #008000; stroke: #008000"/>
     <use xlink:href="#m65e9b7f450" x="546.168104" y="440.69886" style="fill: #008000; stroke: #008000"/>
     <use xlink:href="#m65e9b7f450" x="553.854055" y="440.417772" style="fill: #008000; stroke: #008000"/>
     <use xlink:href="#m65e9b7f450" x="561.540005" y="440.056374" style="fill: #008000; stroke: #008000"/>
     <use xlink:href="#m65e9b7f450" x="569.225956" y="440.739015" style="fill: #008000; stroke: #008000"/>
     <use xlink:href="#m65e9b7f450" x="576.911906" y="441.30119" style="fill: #008000; stroke: #008000"/>
     <use xlink:href="#m65e9b7f450" x="584.597856" y="441.341346" style="fill: #008000; stroke: #008000"/>
     <use xlink:href="#m65e9b7f450" x="592.283807" y="441.943676" style="fill: #008000; stroke: #008000"/>
     <use xlink:href="#m65e9b7f450" x="599.969757" y="441.261035" style="fill: #008000; stroke: #008000"/>
     <use xlink:href="#m65e9b7f450" x="607.655708" y="441.501967" style="fill: #008000; stroke: #008000"/>
     <use xlink:href="#m65e9b7f450" x="615.341658" y="441.100414" style="fill: #008000; stroke: #008000"/>
     <use xlink:href="#m65e9b7f450" x="623.027608" y="441.983832" style="fill: #008000; stroke: #008000"/>
     <use xlink:href="#m65e9b7f450" x="630.713559" y="441.742899" style="fill: #008000; stroke: #008000"/>
     <use xlink:href="#m65e9b7f450" x="638.399509" y="441.863366" style="fill: #008000; stroke: #008000"/>
     <use xlink:href="#m65e9b7f450" x="646.08546" y="441.742899" style="fill: #008000; stroke: #008000"/>
     <use xlink:href="#m65e9b7f450" x="653.77141" y="442.505851" style="fill: #008000; stroke: #008000"/>
     <use xlink:href="#m65e9b7f450" x="661.457361" y="442.907405" style="fill: #008000; stroke: #008000"/>
     <use xlink:href="#m65e9b7f450" x="669.143311" y="442.465696" style="fill: #008000; stroke: #008000"/>
     <use xlink:href="#m65e9b7f450" x="676.829261" y="441.662589" style="fill: #008000; stroke: #008000"/>
     <use xlink:href="#m65e9b7f450" x="684.515212" y="441.582278" style="fill: #008000; stroke: #008000"/>
     <use xlink:href="#m65e9b7f450" x="692.201162" y="441.662589" style="fill: #008000; stroke: #008000"/>
     <use xlink:href="#m65e9b7f450" x="699.887113" y="441.983832" style="fill: #008000; stroke: #008000"/>
     <use xlink:href="#m65e9b7f450" x="707.573063" y="441.943676" style="fill: #008000; stroke: #008000"/>
     <use xlink:href="#m65e9b7f450" x="715.259013" y="442.626317" style="fill: #008000; stroke: #008000"/>
     <use xlink:href="#m65e9b7f450" x="722.944964" y="442.546007" style="fill: #008000; stroke: #008000"/>
     <use xlink:href="#m65e9b7f450" x="730.630914" y="442.586162" style="fill: #008000; stroke: #008000"/>
     <use xlink:href="#m65e9b7f450" x="738.316865" y="442.505851" style="fill: #008000; stroke: #008000"/>
     <use xlink:href="#m65e9b7f450" x="746.002815" y="442.505851" style="fill: #008000; stroke: #008000"/>
     <use xlink:href="#m65e9b7f450" x="753.688765" y="442.264919" style="fill: #008000; stroke: #008000"/>
     <use xlink:href="#m65e9b7f450" x="761.374716" y="442.34523" style="fill: #008000; stroke: #008000"/>
     <use xlink:href="#m65e9b7f450" x="769.060666" y="442.666473" style="fill: #008000; stroke: #008000"/>
     <use xlink:href="#m65e9b7f450" x="776.746617" y="443.068026" style="fill: #008000; stroke: #008000"/>
     <use xlink:href="#m65e9b7f450" x="784.432567" y="443.228648" style="fill: #008000; stroke: #008000"/>
     <use xlink:href="#m65e9b7f450" x="792.118518" y="443.228648" style="fill: #008000; stroke: #008000"/>
     <use xlink:href="#m65e9b7f450" x="799.804468" y="442.94756" style="fill: #008000; stroke: #008000"/>
     <use xlink:href="#m65e9b7f450" x="807.490418" y="443.108182" style="fill: #008000; stroke: #008000"/>
     <use xlink:href="#m65e9b7f450" x="815.176369" y="443.228648" style="fill: #008000; stroke: #008000"/>
     <use xlink:href="#m65e9b7f450" x="822.862319" y="443.308959" style="fill: #008000; stroke: #008000"/>
     <use xlink:href="#m65e9b7f450" x="830.54827" y="443.549891" style="fill: #008000; stroke: #008000"/>
     <use xlink:href="#m65e9b7f450" x="838.23422" y="443.871134" style="fill: #008000; stroke: #008000"/>
     <use xlink:href="#m65e9b7f450" x="845.92017" y="444.07191" style="fill: #008000; stroke: #008000"/>
    </g>
   </g>
   <g id="line2d_49">
    <path d="M 730.630914 465.838125 
L 730.630914 22.318125 
" clip-path="url(#p5c426983a0)" style="fill: none; stroke-dasharray: 5.55,2.4; stroke-dashoffset: 0; stroke: #0000ff; stroke-width: 1.5"/>
   </g>
   <g id="line2d_50">
    <path d="M 85.01108 42.478125 
L 92.69703 93.836834 
L 100.38298 123.712424 
L 108.068931 143.990883 
L 115.754881 171.537462 
L 123.440832 192.619027 
L 131.126782 217.79644 
L 138.812732 223.257569 
L 146.498683 241.568415 
L 154.184633 250.201818 
L 161.870584 260.963455 
L 169.556534 284.293721 
L 177.242485 294.493183 
L 184.928435 306.138239 
L 192.614385 308.346784 
L 200.300336 311.920611 
L 207.986286 318.465935 
L 215.672237 315.333817 
L 223.358187 320.313082 
L 231.044137 331.717205 
L 238.730088 333.684818 
L 246.416038 334.688702 
L 254.101989 340.310452 
L 261.787939 354.96716 
L 269.473889 367.616099 
L 277.15984 372.675675 
L 284.84579 376.129036 
L 292.531741 380.024106 
L 300.217691 385.123838 
L 307.903642 387.974868 
L 315.589592 386.649741 
L 323.275542 388.215801 
L 330.961493 386.649741 
L 338.647443 384.682129 
L 346.333394 387.854402 
L 354.019344 393.837551 
L 361.705294 395.042212 
L 369.391245 399.378991 
L 377.077195 405.000742 
L 384.763146 410.30125 
L 392.449096 414.276631 
L 400.135046 417.288283 
L 407.820997 420.540868 
L 415.506947 420.862111 
L 423.192898 421.625063 
L 430.878848 425.680754 
L 438.564799 425.921686 
L 446.250749 426.32324 
L 453.936699 427.688522 
L 461.62265 428.290853 
L 469.3086 428.812873 
L 476.994551 430.941107 
L 484.680501 433.189807 
L 492.366451 433.350429 
L 500.052402 431.985146 
L 507.738352 433.751982 
L 515.424303 434.474779 
L 523.110253 434.836177 
L 530.796204 434.595245 
L 538.482154 436.80379 
L 546.168104 437.084877 
L 553.854055 437.486431 
L 561.540005 438.008451 
L 569.225956 439.253267 
L 576.911906 439.935908 
L 584.597856 440.417772 
L 592.283807 440.297306 
L 599.969757 440.819326 
L 607.655708 440.69886 
L 615.341658 441.30119 
L 623.027608 441.662589 
L 630.713559 441.662589 
L 638.399509 442.224764 
L 646.08546 442.465696 
L 653.77141 442.586162 
L 661.457361 441.943676 
L 669.143311 442.626317 
L 676.829261 442.907405 
L 684.515212 443.027871 
L 692.201162 443.188492 
L 699.887113 443.389269 
L 707.573063 443.46958 
L 715.259013 444.031755 
L 722.944964 444.192377 
L 730.630914 444.634086 
L 738.316865 444.553775 
L 746.002815 444.714396 
L 753.688765 444.875018 
L 761.374716 444.834862 
L 769.060666 444.794707 
L 776.746617 444.995484 
L 784.432567 444.834862 
L 792.118518 444.834862 
L 799.804468 445.035639 
L 807.490418 445.075795 
L 815.176369 445.437193 
L 822.862319 445.356882 
L 830.54827 445.437193 
L 838.23422 445.597814 
L 845.92017 445.678125 
" clip-path="url(#p5c426983a0)" style="fill: none; stroke: #0000ff; stroke-width: 1.5; stroke-linecap: square"/>
    <defs>
     <path id="mc1821e3179" d="M 0 3 
C 0.795609 3 1.55874 2.683901 2.12132 2.12132 
C 2.683901 1.55874 3 0.795609 3 0 
C 3 -0.795609 2.683901 -1.55874 2.12132 -2.12132 
C 1.55874 -2.683901 0.795609 -3 0 -3 
C -0.795609 -3 -1.55874 -2.683901 -2.12132 -2.12132 
C -2.683901 -1.55874 -3 -0.795609 -3 0 
C -3 0.795609 -2.683901 1.55874 -2.12132 2.12132 
C -1.55874 2.683901 -0.795609 3 0 3 
z
" style="stroke: #0000ff"/>
    </defs>
    <g clip-path="url(#p5c426983a0)">
     <use xlink:href="#mc1821e3179" x="85.01108" y="42.478125" style="fill: #0000ff; stroke: #0000ff"/>
     <use xlink:href="#mc1821e3179" x="92.69703" y="93.836834" style="fill: #0000ff; stroke: #0000ff"/>
     <use xlink:href="#mc1821e3179" x="100.38298" y="123.712424" style="fill: #0000ff; stroke: #0000ff"/>
     <use xlink:href="#mc1821e3179" x="108.068931" y="143.990883" style="fill: #0000ff; stroke: #0000ff"/>
     <use xlink:href="#mc1821e3179" x="115.754881" y="171.537462" style="fill: #0000ff; stroke: #0000ff"/>
     <use xlink:href="#mc1821e3179" x="123.440832" y="192.619027" style="fill: #0000ff; stroke: #0000ff"/>
     <use xlink:href="#mc1821e3179" x="131.126782" y="217.79644" style="fill: #0000ff; stroke: #0000ff"/>
     <use xlink:href="#mc1821e3179" x="138.812732" y="223.257569" style="fill: #0000ff; stroke: #0000ff"/>
     <use xlink:href="#mc1821e3179" x="146.498683" y="241.568415" style="fill: #0000ff; stroke: #0000ff"/>
     <use xlink:href="#mc1821e3179" x="154.184633" y="250.201818" style="fill: #0000ff; stroke: #0000ff"/>
     <use xlink:href="#mc1821e3179" x="161.870584" y="260.963455" style="fill: #0000ff; stroke: #0000ff"/>
     <use xlink:href="#mc1821e3179" x="169.556534" y="284.293721" style="fill: #0000ff; stroke: #0000ff"/>
     <use xlink:href="#mc1821e3179" x="177.242485" y="294.493183" style="fill: #0000ff; stroke: #0000ff"/>
     <use xlink:href="#mc1821e3179" x="184.928435" y="306.138239" style="fill: #0000ff; stroke: #0000ff"/>
     <use xlink:href="#mc1821e3179" x="192.614385" y="308.346784" style="fill: #0000ff; stroke: #0000ff"/>
     <use xlink:href="#mc1821e3179" x="200.300336" y="311.920611" style="fill: #0000ff; stroke: #0000ff"/>
     <use xlink:href="#mc1821e3179" x="207.986286" y="318.465935" style="fill: #0000ff; stroke: #0000ff"/>
     <use xlink:href="#mc1821e3179" x="215.672237" y="315.333817" style="fill: #0000ff; stroke: #0000ff"/>
     <use xlink:href="#mc1821e3179" x="223.358187" y="320.313082" style="fill: #0000ff; stroke: #0000ff"/>
     <use xlink:href="#mc1821e3179" x="231.044137" y="331.717205" style="fill: #0000ff; stroke: #0000ff"/>
     <use xlink:href="#mc1821e3179" x="238.730088" y="333.684818" style="fill: #0000ff; stroke: #0000ff"/>
     <use xlink:href="#mc1821e3179" x="246.416038" y="334.688702" style="fill: #0000ff; stroke: #0000ff"/>
     <use xlink:href="#mc1821e3179" x="254.101989" y="340.310452" style="fill: #0000ff; stroke: #0000ff"/>
     <use xlink:href="#mc1821e3179" x="261.787939" y="354.96716" style="fill: #0000ff; stroke: #0000ff"/>
     <use xlink:href="#mc1821e3179" x="269.473889" y="367.616099" style="fill: #0000ff; stroke: #0000ff"/>
     <use xlink:href="#mc1821e3179" x="277.15984" y="372.675675" style="fill: #0000ff; stroke: #0000ff"/>
     <use xlink:href="#mc1821e3179" x="284.84579" y="376.129036" style="fill: #0000ff; stroke: #0000ff"/>
     <use xlink:href="#mc1821e3179" x="292.531741" y="380.024106" style="fill: #0000ff; stroke: #0000ff"/>
     <use xlink:href="#mc1821e3179" x="300.217691" y="385.123838" style="fill: #0000ff; stroke: #0000ff"/>
     <use xlink:href="#mc1821e3179" x="307.903642" y="387.974868" style="fill: #0000ff; stroke: #0000ff"/>
     <use xlink:href="#mc1821e3179" x="315.589592" y="386.649741" style="fill: #0000ff; stroke: #0000ff"/>
     <use xlink:href="#mc1821e3179" x="323.275542" y="388.215801" style="fill: #0000ff; stroke: #0000ff"/>
     <use xlink:href="#mc1821e3179" x="330.961493" y="386.649741" style="fill: #0000ff; stroke: #0000ff"/>
     <use xlink:href="#mc1821e3179" x="338.647443" y="384.682129" style="fill: #0000ff; stroke: #0000ff"/>
     <use xlink:href="#mc1821e3179" x="346.333394" y="387.854402" style="fill: #0000ff; stroke: #0000ff"/>
     <use xlink:href="#mc1821e3179" x="354.019344" y="393.837551" style="fill: #0000ff; stroke: #0000ff"/>
     <use xlink:href="#mc1821e3179" x="361.705294" y="395.042212" style="fill: #0000ff; stroke: #0000ff"/>
     <use xlink:href="#mc1821e3179" x="369.391245" y="399.378991" style="fill: #0000ff; stroke: #0000ff"/>
     <use xlink:href="#mc1821e3179" x="377.077195" y="405.000742" style="fill: #0000ff; stroke: #0000ff"/>
     <use xlink:href="#mc1821e3179" x="384.763146" y="410.30125" style="fill: #0000ff; stroke: #0000ff"/>
     <use xlink:href="#mc1821e3179" x="392.449096" y="414.276631" style="fill: #0000ff; stroke: #0000ff"/>
     <use xlink:href="#mc1821e3179" x="400.135046" y="417.288283" style="fill: #0000ff; stroke: #0000ff"/>
     <use xlink:href="#mc1821e3179" x="407.820997" y="420.540868" style="fill: #0000ff; stroke: #0000ff"/>
     <use xlink:href="#mc1821e3179" x="415.506947" y="420.862111" style="fill: #0000ff; stroke: #0000ff"/>
     <use xlink:href="#mc1821e3179" x="423.192898" y="421.625063" style="fill: #0000ff; stroke: #0000ff"/>
     <use xlink:href="#mc1821e3179" x="430.878848" y="425.680754" style="fill: #0000ff; stroke: #0000ff"/>
     <use xlink:href="#mc1821e3179" x="438.564799" y="425.921686" style="fill: #0000ff; stroke: #0000ff"/>
     <use xlink:href="#mc1821e3179" x="446.250749" y="426.32324" style="fill: #0000ff; stroke: #0000ff"/>
     <use xlink:href="#mc1821e3179" x="453.936699" y="427.688522" style="fill: #0000ff; stroke: #0000ff"/>
     <use xlink:href="#mc1821e3179" x="461.62265" y="428.290853" style="fill: #0000ff; stroke: #0000ff"/>
     <use xlink:href="#mc1821e3179" x="469.3086" y="428.812873" style="fill: #0000ff; stroke: #0000ff"/>
     <use xlink:href="#mc1821e3179" x="476.994551" y="430.941107" style="fill: #0000ff; stroke: #0000ff"/>
     <use xlink:href="#mc1821e3179" x="484.680501" y="433.189807" style="fill: #0000ff; stroke: #0000ff"/>
     <use xlink:href="#mc1821e3179" x="492.366451" y="433.350429" style="fill: #0000ff; stroke: #0000ff"/>
     <use xlink:href="#mc1821e3179" x="500.052402" y="431.985146" style="fill: #0000ff; stroke: #0000ff"/>
     <use xlink:href="#mc1821e3179" x="507.738352" y="433.751982" style="fill: #0000ff; stroke: #0000ff"/>
     <use xlink:href="#mc1821e3179" x="515.424303" y="434.474779" style="fill: #0000ff; stroke: #0000ff"/>
     <use xlink:href="#mc1821e3179" x="523.110253" y="434.836177" style="fill: #0000ff; stroke: #0000ff"/>
     <use xlink:href="#mc1821e3179" x="530.796204" y="434.595245" style="fill: #0000ff; stroke: #0000ff"/>
     <use xlink:href="#mc1821e3179" x="538.482154" y="436.80379" style="fill: #0000ff; stroke: #0000ff"/>
     <use xlink:href="#mc1821e3179" x="546.168104" y="437.084877" style="fill: #0000ff; stroke: #0000ff"/>
     <use xlink:href="#mc1821e3179" x="553.854055" y="437.486431" style="fill: #0000ff; stroke: #0000ff"/>
     <use xlink:href="#mc1821e3179" x="561.540005" y="438.008451" style="fill: #0000ff; stroke: #0000ff"/>
     <use xlink:href="#mc1821e3179" x="569.225956" y="439.253267" style="fill: #0000ff; stroke: #0000ff"/>
     <use xlink:href="#mc1821e3179" x="576.911906" y="439.935908" style="fill: #0000ff; stroke: #0000ff"/>
     <use xlink:href="#mc1821e3179" x="584.597856" y="440.417772" style="fill: #0000ff; stroke: #0000ff"/>
     <use xlink:href="#mc1821e3179" x="592.283807" y="440.297306" style="fill: #0000ff; stroke: #0000ff"/>
     <use xlink:href="#mc1821e3179" x="599.969757" y="440.819326" style="fill: #0000ff; stroke: #0000ff"/>
     <use xlink:href="#mc1821e3179" x="607.655708" y="440.69886" style="fill: #0000ff; stroke: #0000ff"/>
     <use xlink:href="#mc1821e3179" x="615.341658" y="441.30119" style="fill: #0000ff; stroke: #0000ff"/>
     <use xlink:href="#mc1821e3179" x="623.027608" y="441.662589" style="fill: #0000ff; stroke: #0000ff"/>
     <use xlink:href="#mc1821e3179" x="630.713559" y="441.662589" style="fill: #0000ff; stroke: #0000ff"/>
     <use xlink:href="#mc1821e3179" x="638.399509" y="442.224764" style="fill: #0000ff; stroke: #0000ff"/>
     <use xlink:href="#mc1821e3179" x="646.08546" y="442.465696" style="fill: #0000ff; stroke: #0000ff"/>
     <use xlink:href="#mc1821e3179" x="653.77141" y="442.586162" style="fill: #0000ff; stroke: #0000ff"/>
     <use xlink:href="#mc1821e3179" x="661.457361" y="441.943676" style="fill: #0000ff; stroke: #0000ff"/>
     <use xlink:href="#mc1821e3179" x="669.143311" y="442.626317" style="fill: #0000ff; stroke: #0000ff"/>
     <use xlink:href="#mc1821e3179" x="676.829261" y="442.907405" style="fill: #0000ff; stroke: #0000ff"/>
     <use xlink:href="#mc1821e3179" x="684.515212" y="443.027871" style="fill: #0000ff; stroke: #0000ff"/>
     <use xlink:href="#mc1821e3179" x="692.201162" y="443.188492" style="fill: #0000ff; stroke: #0000ff"/>
     <use xlink:href="#mc1821e3179" x="699.887113" y="443.389269" style="fill: #0000ff; stroke: #0000ff"/>
     <use xlink:href="#mc1821e3179" x="707.573063" y="443.46958" style="fill: #0000ff; stroke: #0000ff"/>
     <use xlink:href="#mc1821e3179" x="715.259013" y="444.031755" style="fill: #0000ff; stroke: #0000ff"/>
     <use xlink:href="#mc1821e3179" x="722.944964" y="444.192377" style="fill: #0000ff; stroke: #0000ff"/>
     <use xlink:href="#mc1821e3179" x="730.630914" y="444.634086" style="fill: #0000ff; stroke: #0000ff"/>
     <use xlink:href="#mc1821e3179" x="738.316865" y="444.553775" style="fill: #0000ff; stroke: #0000ff"/>
     <use xlink:href="#mc1821e3179" x="746.002815" y="444.714396" style="fill: #0000ff; stroke: #0000ff"/>
     <use xlink:href="#mc1821e3179" x="753.688765" y="444.875018" style="fill: #0000ff; stroke: #0000ff"/>
     <use xlink:href="#mc1821e3179" x="761.374716" y="444.834862" style="fill: #0000ff; stroke: #0000ff"/>
     <use xlink:href="#mc1821e3179" x="769.060666" y="444.794707" style="fill: #0000ff; stroke: #0000ff"/>
     <use xlink:href="#mc1821e3179" x="776.746617" y="444.995484" style="fill: #0000ff; stroke: #0000ff"/>
     <use xlink:href="#mc1821e3179" x="784.432567" y="444.834862" style="fill: #0000ff; stroke: #0000ff"/>
     <use xlink:href="#mc1821e3179" x="792.118518" y="444.834862" style="fill: #0000ff; stroke: #0000ff"/>
     <use xlink:href="#mc1821e3179" x="799.804468" y="445.035639" style="fill: #0000ff; stroke: #0000ff"/>
     <use xlink:href="#mc1821e3179" x="807.490418" y="445.075795" style="fill: #0000ff; stroke: #0000ff"/>
     <use xlink:href="#mc1821e3179" x="815.176369" y="445.437193" style="fill: #0000ff; stroke: #0000ff"/>
     <use xlink:href="#mc1821e3179" x="822.862319" y="445.356882" style="fill: #0000ff; stroke: #0000ff"/>
     <use xlink:href="#mc1821e3179" x="830.54827" y="445.437193" style="fill: #0000ff; stroke: #0000ff"/>
     <use xlink:href="#mc1821e3179" x="838.23422" y="445.597814" style="fill: #0000ff; stroke: #0000ff"/>
     <use xlink:href="#mc1821e3179" x="845.92017" y="445.678125" style="fill: #0000ff; stroke: #0000ff"/>
    </g>
   </g>
   <g id="patch_3">
    <path d="M 46.965625 465.838125 
L 46.965625 22.318125 
" style="fill: none; stroke: #000000; stroke-width: 0.8; stroke-linejoin: miter; stroke-linecap: square"/>
   </g>
   <g id="patch_4">
    <path d="M 883.965625 465.838125 
L 883.965625 22.318125 
" style="fill: none; stroke: #000000; stroke-width: 0.8; stroke-linejoin: miter; stroke-linecap: square"/>
   </g>
   <g id="patch_5">
    <path d="M 46.965625 465.838125 
L 883.965625 465.838125 
" style="fill: none; stroke: #000000; stroke-width: 0.8; stroke-linejoin: miter; stroke-linecap: square"/>
   </g>
   <g id="patch_6">
    <path d="M 46.965625 22.318125 
L 883.965625 22.318125 
" style="fill: none; stroke: #000000; stroke-width: 0.8; stroke-linejoin: miter; stroke-linecap: square"/>
   </g>
   <g id="text_25">
    <!-- Guessing Entropy -->
    <g transform="translate(412.576563 16.318125) scale(0.12 -0.12)">
     <defs>
      <path id="DejaVuSans-69" d="M 603 3500 
L 1178 3500 
L 1178 0 
L 603 0 
L 603 3500 
z
M 603 4863 
L 1178 4863 
L 1178 4134 
L 603 4134 
L 603 4863 
z
" transform="scale(0.015625)"/>
      <path id="DejaVuSans-6e" d="M 3513 2113 
L 3513 0 
L 2938 0 
L 2938 2094 
Q 2938 2591 2744 2837 
Q 2550 3084 2163 3084 
Q 1697 3084 1428 2787 
Q 1159 2491 1159 1978 
L 1159 0 
L 581 0 
L 581 3500 
L 1159 3500 
L 1159 2956 
Q 1366 3272 1645 3428 
Q 1925 3584 2291 3584 
Q 2894 3584 3203 3211 
Q 3513 2838 3513 2113 
z
" transform="scale(0.015625)"/>
      <path id="DejaVuSans-67" d="M 2906 1791 
Q 2906 2416 2648 2759 
Q 2391 3103 1925 3103 
Q 1463 3103 1205 2759 
Q 947 2416 947 1791 
Q 947 1169 1205 825 
Q 1463 481 1925 481 
Q 2391 481 2648 825 
Q 2906 1169 2906 1791 
z
M 3481 434 
Q 3481 -459 3084 -895 
Q 2688 -1331 1869 -1331 
Q 1566 -1331 1297 -1286 
Q 1028 -1241 775 -1147 
L 775 -588 
Q 1028 -725 1275 -790 
Q 1522 -856 1778 -856 
Q 2344 -856 2625 -561 
Q 2906 -266 2906 331 
L 2906 616 
Q 2728 306 2450 153 
Q 2172 0 1784 0 
Q 1141 0 747 490 
Q 353 981 353 1791 
Q 353 2603 747 3093 
Q 1141 3584 1784 3584 
Q 2172 3584 2450 3431 
Q 2728 3278 2906 2969 
L 2906 3500 
L 3481 3500 
L 3481 434 
z
" transform="scale(0.015625)"/>
      <path id="DejaVuSans-70" d="M 1159 525 
L 1159 -1331 
L 581 -1331 
L 581 3500 
L 1159 3500 
L 1159 2969 
Q 1341 3281 1617 3432 
Q 1894 3584 2278 3584 
Q 2916 3584 3314 3078 
Q 3713 2572 3713 1747 
Q 3713 922 3314 415 
Q 2916 -91 2278 -91 
Q 1894 -91 1617 61 
Q 1341 213 1159 525 
z
M 3116 1747 
Q 3116 2381 2855 2742 
Q 2594 3103 2138 3103 
Q 1681 3103 1420 2742 
Q 1159 2381 1159 1747 
Q 1159 1113 1420 752 
Q 1681 391 2138 391 
Q 2594 391 2855 752 
Q 3116 1113 3116 1747 
z
" transform="scale(0.015625)"/>
      <path id="DejaVuSans-79" d="M 2059 -325 
Q 1816 -950 1584 -1140 
Q 1353 -1331 966 -1331 
L 506 -1331 
L 506 -850 
L 844 -850 
Q 1081 -850 1212 -737 
Q 1344 -625 1503 -206 
L 1606 56 
L 191 3500 
L 800 3500 
L 1894 763 
L 2988 3500 
L 3597 3500 
L 2059 -325 
z
" transform="scale(0.015625)"/>
     </defs>
     <use xlink:href="#DejaVuSans-47"/>
     <use xlink:href="#DejaVuSans-75" x="77.490234"/>
     <use xlink:href="#DejaVuSans-65" x="140.869141"/>
     <use xlink:href="#DejaVuSans-73" x="202.392578"/>
     <use xlink:href="#DejaVuSans-73" x="254.492188"/>
     <use xlink:href="#DejaVuSans-69" x="306.591797"/>
     <use xlink:href="#DejaVuSans-6e" x="334.375"/>
     <use xlink:href="#DejaVuSans-67" x="397.753906"/>
     <use xlink:href="#DejaVuSans-20" x="461.230469"/>
     <use xlink:href="#DejaVuSans-45" x="493.017578"/>
     <use xlink:href="#DejaVuSans-6e" x="556.201172"/>
     <use xlink:href="#DejaVuSans-74" x="619.580078"/>
     <use xlink:href="#DejaVuSans-72" x="658.789062"/>
     <use xlink:href="#DejaVuSans-6f" x="697.652344"/>
     <use xlink:href="#DejaVuSans-70" x="758.833984"/>
     <use xlink:href="#DejaVuSans-79" x="822.310547"/>
    </g>
   </g>
   <g id="legend_1">
    <g id="patch_7">
     <path d="M 53.965625 460.838125 
L 226.757813 460.838125 
Q 228.757813 460.838125 228.757813 458.838125 
L 228.757813 414.969375 
Q 228.757813 412.969375 226.757813 412.969375 
L 53.965625 412.969375 
Q 51.965625 412.969375 51.965625 414.969375 
L 51.965625 458.838125 
Q 51.965625 460.838125 53.965625 460.838125 
z
" style="fill: #ffffff; opacity: 0.8; stroke: #cccccc; stroke-linejoin: miter"/>
    </g>
    <g id="line2d_51">
     <path d="M 55.965625 421.067812 
L 65.965625 421.067812 
L 75.965625 421.067812 
" style="fill: none; stroke-dasharray: 5.55,2.4; stroke-dashoffset: 0; stroke: #ff0000; stroke-width: 1.5"/>
    </g>
    <g id="text_26">
     <!-- diff_devs_key_1 GE = 100 -->
     <g transform="translate(83.965625 424.567812) scale(0.1 -0.1)">
      <defs>
       <path id="DejaVuSans-64" d="M 2906 2969 
L 2906 4863 
L 3481 4863 
L 3481 0 
L 2906 0 
L 2906 525 
Q 2725 213 2448 61 
Q 2172 -91 1784 -91 
Q 1150 -91 751 415 
Q 353 922 353 1747 
Q 353 2572 751 3078 
Q 1150 3584 1784 3584 
Q 2172 3584 2448 3432 
Q 2725 3281 2906 2969 
z
M 947 1747 
Q 947 1113 1208 752 
Q 1469 391 1925 391 
Q 2381 391 2643 752 
Q 2906 1113 2906 1747 
Q 2906 2381 2643 2742 
Q 2381 3103 1925 3103 
Q 1469 3103 1208 2742 
Q 947 2381 947 1747 
z
" transform="scale(0.015625)"/>
       <path id="DejaVuSans-5f" d="M 3263 -1063 
L 3263 -1509 
L -63 -1509 
L -63 -1063 
L 3263 -1063 
z
" transform="scale(0.015625)"/>
       <path id="DejaVuSans-76" d="M 191 3500 
L 800 3500 
L 1894 563 
L 2988 3500 
L 3597 3500 
L 2284 0 
L 1503 0 
L 191 3500 
z
" transform="scale(0.015625)"/>
       <path id="DejaVuSans-6b" d="M 581 4863 
L 1159 4863 
L 1159 1991 
L 2875 3500 
L 3609 3500 
L 1753 1863 
L 3688 0 
L 2938 0 
L 1159 1709 
L 1159 0 
L 581 0 
L 581 4863 
z
" transform="scale(0.015625)"/>
       <path id="DejaVuSans-3d" d="M 678 2906 
L 4684 2906 
L 4684 2381 
L 678 2381 
L 678 2906 
z
M 678 1631 
L 4684 1631 
L 4684 1100 
L 678 1100 
L 678 1631 
z
" transform="scale(0.015625)"/>
      </defs>
      <use xlink:href="#DejaVuSans-64"/>
      <use xlink:href="#DejaVuSans-69" x="63.476562"/>
      <use xlink:href="#DejaVuSans-66" x="91.259766"/>
      <use xlink:href="#DejaVuSans-66" x="126.464844"/>
      <use xlink:href="#DejaVuSans-5f" x="161.669922"/>
      <use xlink:href="#DejaVuSans-64" x="211.669922"/>
      <use xlink:href="#DejaVuSans-65" x="275.146484"/>
      <use xlink:href="#DejaVuSans-76" x="336.669922"/>
      <use xlink:href="#DejaVuSans-73" x="395.849609"/>
      <use xlink:href="#DejaVuSans-5f" x="447.949219"/>
      <use xlink:href="#DejaVuSans-6b" x="497.949219"/>
      <use xlink:href="#DejaVuSans-65" x="552.234375"/>
      <use xlink:href="#DejaVuSans-79" x="613.757812"/>
      <use xlink:href="#DejaVuSans-5f" x="672.9375"/>
      <use xlink:href="#DejaVuSans-31" x="722.9375"/>
      <use xlink:href="#DejaVuSans-20" x="786.560547"/>
      <use xlink:href="#DejaVuSans-47" x="818.347656"/>
      <use xlink:href="#DejaVuSans-45" x="895.837891"/>
      <use xlink:href="#DejaVuSans-20" x="959.021484"/>
      <use xlink:href="#DejaVuSans-3d" x="990.808594"/>
      <use xlink:href="#DejaVuSans-20" x="1074.597656"/>
      <use xlink:href="#DejaVuSans-31" x="1106.384766"/>
      <use xlink:href="#DejaVuSans-30" x="1170.007812"/>
      <use xlink:href="#DejaVuSans-30" x="1233.630859"/>
     </g>
    </g>
    <g id="line2d_52">
     <path d="M 55.965625 436.024062 
L 65.965625 436.024062 
L 75.965625 436.024062 
" style="fill: none; stroke-dasharray: 5.55,2.4; stroke-dashoffset: 0; stroke: #008000; stroke-width: 1.5"/>
    </g>
    <g id="text_27">
     <!-- same_devs_key_1 GE = 100 -->
     <g transform="translate(83.965625 439.524062) scale(0.1 -0.1)">
      <use xlink:href="#DejaVuSans-73"/>
      <use xlink:href="#DejaVuSans-61" x="52.099609"/>
      <use xlink:href="#DejaVuSans-6d" x="113.378906"/>
      <use xlink:href="#DejaVuSans-65" x="210.791016"/>
      <use xlink:href="#DejaVuSans-5f" x="272.314453"/>
      <use xlink:href="#DejaVuSans-64" x="322.314453"/>
      <use xlink:href="#DejaVuSans-65" x="385.791016"/>
      <use xlink:href="#DejaVuSans-76" x="447.314453"/>
      <use xlink:href="#DejaVuSans-73" x="506.494141"/>
      <use xlink:href="#DejaVuSans-5f" x="558.59375"/>
      <use xlink:href="#DejaVuSans-6b" x="608.59375"/>
      <use xlink:href="#DejaVuSans-65" x="662.878906"/>
      <use xlink:href="#DejaVuSans-79" x="724.402344"/>
      <use xlink:href="#DejaVuSans-5f" x="783.582031"/>
      <use xlink:href="#DejaVuSans-31" x="833.582031"/>
      <use xlink:href="#DejaVuSans-20" x="897.205078"/>
      <use xlink:href="#DejaVuSans-47" x="928.992188"/>
      <use xlink:href="#DejaVuSans-45" x="1006.482422"/>
      <use xlink:href="#DejaVuSans-20" x="1069.666016"/>
      <use xlink:href="#DejaVuSans-3d" x="1101.453125"/>
      <use xlink:href="#DejaVuSans-20" x="1185.242188"/>
      <use xlink:href="#DejaVuSans-31" x="1217.029297"/>
      <use xlink:href="#DejaVuSans-30" x="1280.652344"/>
      <use xlink:href="#DejaVuSans-30" x="1344.275391"/>
     </g>
    </g>
    <g id="line2d_53">
     <path d="M 55.965625 450.980312 
L 65.965625 450.980312 
L 75.965625 450.980312 
" style="fill: none; stroke-dasharray: 5.55,2.4; stroke-dashoffset: 0; stroke: #0000ff; stroke-width: 1.5"/>
    </g>
    <g id="text_28">
     <!-- diff_devs_key_0 GE = 85 -->
     <g transform="translate(83.965625 454.480312) scale(0.1 -0.1)">
      <use xlink:href="#DejaVuSans-64"/>
      <use xlink:href="#DejaVuSans-69" x="63.476562"/>
      <use xlink:href="#DejaVuSans-66" x="91.259766"/>
      <use xlink:href="#DejaVuSans-66" x="126.464844"/>
      <use xlink:href="#DejaVuSans-5f" x="161.669922"/>
      <use xlink:href="#DejaVuSans-64" x="211.669922"/>
      <use xlink:href="#DejaVuSans-65" x="275.146484"/>
      <use xlink:href="#DejaVuSans-76" x="336.669922"/>
      <use xlink:href="#DejaVuSans-73" x="395.849609"/>
      <use xlink:href="#DejaVuSans-5f" x="447.949219"/>
      <use xlink:href="#DejaVuSans-6b" x="497.949219"/>
      <use xlink:href="#DejaVuSans-65" x="552.234375"/>
      <use xlink:href="#DejaVuSans-79" x="613.757812"/>
      <use xlink:href="#DejaVuSans-5f" x="672.9375"/>
      <use xlink:href="#DejaVuSans-30" x="722.9375"/>
      <use xlink:href="#DejaVuSans-20" x="786.560547"/>
      <use xlink:href="#DejaVuSans-47" x="818.347656"/>
      <use xlink:href="#DejaVuSans-45" x="895.837891"/>
      <use xlink:href="#DejaVuSans-20" x="959.021484"/>
      <use xlink:href="#DejaVuSans-3d" x="990.808594"/>
      <use xlink:href="#DejaVuSans-20" x="1074.597656"/>
      <use xlink:href="#DejaVuSans-38" x="1106.384766"/>
      <use xlink:href="#DejaVuSans-35" x="1170.007812"/>
     </g>
    </g>
   </g>
  </g>
 </g>
 <defs>
  <clipPath id="p5c426983a0">
   <rect x="46.965625" y="22.318125" width="837" height="443.52"/>
  </clipPath>
 </defs>
</svg>
