<?xml version="1.0" encoding="utf-8" standalone="no"?>
<!DOCTYPE svg PUBLIC "-//W3C//DTD SVG 1.1//EN"
  "http://www.w3.org/Graphics/SVG/1.1/DTD/svg11.dtd">
<svg xmlns:xlink="http://www.w3.org/1999/xlink" width="608.98125pt" height="614.274375pt" viewBox="0 0 608.98125 614.274375" xmlns="http://www.w3.org/2000/svg" version="1.1">
 <metadata>
  <rdf:RDF xmlns:dc="http://purl.org/dc/elements/1.1/" xmlns:cc="http://creativecommons.org/ns#" xmlns:rdf="http://www.w3.org/1999/02/22-rdf-syntax-ns#">
   <cc:Work>
    <dc:type rdf:resource="http://purl.org/dc/dcmitype/StillImage"/>
    <dc:date>2024-08-07T10:59:06.456898</dc:date>
    <dc:format>image/svg+xml</dc:format>
    <dc:creator>
     <cc:Agent>
      <dc:title>Matplotlib v3.8.0, https://matplotlib.org/</dc:title>
     </cc:Agent>
    </dc:creator>
   </cc:Work>
  </rdf:RDF>
 </metadata>
 <defs>
  <style type="text/css">*{stroke-linejoin: round; stroke-linecap: butt}</style>
 </defs>
 <g id="figure_1">
  <g id="patch_1">
   <path d="M 0 614.274375 
L 608.98125 614.274375 
L 608.98125 0 
L 0 0 
z
" style="fill: #ffffff"/>
  </g>
  <g id="axes_1">
   <g id="patch_2">
    <path d="M 43.78125 576.718125 
L 601.78125 576.718125 
L 601.78125 22.318125 
L 43.78125 22.318125 
z
" style="fill: #ffffff"/>
   </g>
   <g id="matplotlib.axis_1">
    <g id="xtick_1">
     <g id="line2d_1">
      <path d="M 69.144886 576.718125 
L 69.144886 22.318125 
" clip-path="url(#p17bce0bf6d)" style="fill: none; stroke: #b0b0b0; stroke-width: 0.8; stroke-linecap: square"/>
     </g>
     <g id="line2d_2">
      <defs>
       <path id="m72357aa5cb" d="M 0 0 
L 0 3.5 
" style="stroke: #000000; stroke-width: 0.8"/>
      </defs>
      <g>
       <use xlink:href="#m72357aa5cb" x="69.144886" y="576.718125" style="stroke: #000000; stroke-width: 0.8"/>
      </g>
     </g>
     <g id="text_1">
      <!-- 0 -->
      <g transform="translate(65.963636 591.316563) scale(0.1 -0.1)">
       <defs>
        <path id="DejaVuSans-30" d="M 2034 4250 
Q 1547 4250 1301 3770 
Q 1056 3291 1056 2328 
Q 1056 1369 1301 889 
Q 1547 409 2034 409 
Q 2525 409 2770 889 
Q 3016 1369 3016 2328 
Q 3016 3291 2770 3770 
Q 2525 4250 2034 4250 
z
M 2034 4750 
Q 2819 4750 3233 4129 
Q 3647 3509 3647 2328 
Q 3647 1150 3233 529 
Q 2819 -91 2034 -91 
Q 1250 -91 836 529 
Q 422 1150 422 2328 
Q 422 3509 836 4129 
Q 1250 4750 2034 4750 
z
" transform="scale(0.015625)"/>
       </defs>
       <use xlink:href="#DejaVuSans-30"/>
      </g>
     </g>
    </g>
    <g id="xtick_2">
     <g id="line2d_3">
      <path d="M 132.872616 576.718125 
L 132.872616 22.318125 
" clip-path="url(#p17bce0bf6d)" style="fill: none; stroke: #b0b0b0; stroke-width: 0.8; stroke-linecap: square"/>
     </g>
     <g id="line2d_4">
      <g>
       <use xlink:href="#m72357aa5cb" x="132.872616" y="576.718125" style="stroke: #000000; stroke-width: 0.8"/>
      </g>
     </g>
     <g id="text_2">
      <!-- 25 -->
      <g transform="translate(126.510116 591.316563) scale(0.1 -0.1)">
       <defs>
        <path id="DejaVuSans-32" d="M 1228 531 
L 3431 531 
L 3431 0 
L 469 0 
L 469 531 
Q 828 903 1448 1529 
Q 2069 2156 2228 2338 
Q 2531 2678 2651 2914 
Q 2772 3150 2772 3378 
Q 2772 3750 2511 3984 
Q 2250 4219 1831 4219 
Q 1534 4219 1204 4116 
Q 875 4013 500 3803 
L 500 4441 
Q 881 4594 1212 4672 
Q 1544 4750 1819 4750 
Q 2544 4750 2975 4387 
Q 3406 4025 3406 3419 
Q 3406 3131 3298 2873 
Q 3191 2616 2906 2266 
Q 2828 2175 2409 1742 
Q 1991 1309 1228 531 
z
" transform="scale(0.015625)"/>
        <path id="DejaVuSans-35" d="M 691 4666 
L 3169 4666 
L 3169 4134 
L 1269 4134 
L 1269 2991 
Q 1406 3038 1543 3061 
Q 1681 3084 1819 3084 
Q 2600 3084 3056 2656 
Q 3513 2228 3513 1497 
Q 3513 744 3044 326 
Q 2575 -91 1722 -91 
Q 1428 -91 1123 -41 
Q 819 9 494 109 
L 494 744 
Q 775 591 1075 516 
Q 1375 441 1709 441 
Q 2250 441 2565 725 
Q 2881 1009 2881 1497 
Q 2881 1984 2565 2268 
Q 2250 2553 1709 2553 
Q 1456 2553 1204 2497 
Q 953 2441 691 2322 
L 691 4666 
z
" transform="scale(0.015625)"/>
       </defs>
       <use xlink:href="#DejaVuSans-32"/>
       <use xlink:href="#DejaVuSans-35" x="63.623047"/>
      </g>
     </g>
    </g>
    <g id="xtick_3">
     <g id="line2d_5">
      <path d="M 196.600345 576.718125 
L 196.600345 22.318125 
" clip-path="url(#p17bce0bf6d)" style="fill: none; stroke: #b0b0b0; stroke-width: 0.8; stroke-linecap: square"/>
     </g>
     <g id="line2d_6">
      <g>
       <use xlink:href="#m72357aa5cb" x="196.600345" y="576.718125" style="stroke: #000000; stroke-width: 0.8"/>
      </g>
     </g>
     <g id="text_3">
      <!-- 50 -->
      <g transform="translate(190.237845 591.316563) scale(0.1 -0.1)">
       <use xlink:href="#DejaVuSans-35"/>
       <use xlink:href="#DejaVuSans-30" x="63.623047"/>
      </g>
     </g>
    </g>
    <g id="xtick_4">
     <g id="line2d_7">
      <path d="M 260.328075 576.718125 
L 260.328075 22.318125 
" clip-path="url(#p17bce0bf6d)" style="fill: none; stroke: #b0b0b0; stroke-width: 0.8; stroke-linecap: square"/>
     </g>
     <g id="line2d_8">
      <g>
       <use xlink:href="#m72357aa5cb" x="260.328075" y="576.718125" style="stroke: #000000; stroke-width: 0.8"/>
      </g>
     </g>
     <g id="text_4">
      <!-- 75 -->
      <g transform="translate(253.965575 591.316563) scale(0.1 -0.1)">
       <defs>
        <path id="DejaVuSans-37" d="M 525 4666 
L 3525 4666 
L 3525 4397 
L 1831 0 
L 1172 0 
L 2766 4134 
L 525 4134 
L 525 4666 
z
" transform="scale(0.015625)"/>
       </defs>
       <use xlink:href="#DejaVuSans-37"/>
       <use xlink:href="#DejaVuSans-35" x="63.623047"/>
      </g>
     </g>
    </g>
    <g id="xtick_5">
     <g id="line2d_9">
      <path d="M 324.055805 576.718125 
L 324.055805 22.318125 
" clip-path="url(#p17bce0bf6d)" style="fill: none; stroke: #b0b0b0; stroke-width: 0.8; stroke-linecap: square"/>
     </g>
     <g id="line2d_10">
      <g>
       <use xlink:href="#m72357aa5cb" x="324.055805" y="576.718125" style="stroke: #000000; stroke-width: 0.8"/>
      </g>
     </g>
     <g id="text_5">
      <!-- 100 -->
      <g transform="translate(314.512055 591.316563) scale(0.1 -0.1)">
       <defs>
        <path id="DejaVuSans-31" d="M 794 531 
L 1825 531 
L 1825 4091 
L 703 3866 
L 703 4441 
L 1819 4666 
L 2450 4666 
L 2450 531 
L 3481 531 
L 3481 0 
L 794 0 
L 794 531 
z
" transform="scale(0.015625)"/>
       </defs>
       <use xlink:href="#DejaVuSans-31"/>
       <use xlink:href="#DejaVuSans-30" x="63.623047"/>
       <use xlink:href="#DejaVuSans-30" x="127.246094"/>
      </g>
     </g>
    </g>
    <g id="xtick_6">
     <g id="line2d_11">
      <path d="M 387.783534 576.718125 
L 387.783534 22.318125 
" clip-path="url(#p17bce0bf6d)" style="fill: none; stroke: #b0b0b0; stroke-width: 0.8; stroke-linecap: square"/>
     </g>
     <g id="line2d_12">
      <g>
       <use xlink:href="#m72357aa5cb" x="387.783534" y="576.718125" style="stroke: #000000; stroke-width: 0.8"/>
      </g>
     </g>
     <g id="text_6">
      <!-- 125 -->
      <g transform="translate(378.239784 591.316563) scale(0.1 -0.1)">
       <use xlink:href="#DejaVuSans-31"/>
       <use xlink:href="#DejaVuSans-32" x="63.623047"/>
       <use xlink:href="#DejaVuSans-35" x="127.246094"/>
      </g>
     </g>
    </g>
    <g id="xtick_7">
     <g id="line2d_13">
      <path d="M 451.511264 576.718125 
L 451.511264 22.318125 
" clip-path="url(#p17bce0bf6d)" style="fill: none; stroke: #b0b0b0; stroke-width: 0.8; stroke-linecap: square"/>
     </g>
     <g id="line2d_14">
      <g>
       <use xlink:href="#m72357aa5cb" x="451.511264" y="576.718125" style="stroke: #000000; stroke-width: 0.8"/>
      </g>
     </g>
     <g id="text_7">
      <!-- 150 -->
      <g transform="translate(441.967514 591.316563) scale(0.1 -0.1)">
       <use xlink:href="#DejaVuSans-31"/>
       <use xlink:href="#DejaVuSans-35" x="63.623047"/>
       <use xlink:href="#DejaVuSans-30" x="127.246094"/>
      </g>
     </g>
    </g>
    <g id="xtick_8">
     <g id="line2d_15">
      <path d="M 515.238993 576.718125 
L 515.238993 22.318125 
" clip-path="url(#p17bce0bf6d)" style="fill: none; stroke: #b0b0b0; stroke-width: 0.8; stroke-linecap: square"/>
     </g>
     <g id="line2d_16">
      <g>
       <use xlink:href="#m72357aa5cb" x="515.238993" y="576.718125" style="stroke: #000000; stroke-width: 0.8"/>
      </g>
     </g>
     <g id="text_8">
      <!-- 175 -->
      <g transform="translate(505.695243 591.316563) scale(0.1 -0.1)">
       <use xlink:href="#DejaVuSans-31"/>
       <use xlink:href="#DejaVuSans-37" x="63.623047"/>
       <use xlink:href="#DejaVuSans-35" x="127.246094"/>
      </g>
     </g>
    </g>
    <g id="xtick_9">
     <g id="line2d_17">
      <path d="M 578.966723 576.718125 
L 578.966723 22.318125 
" clip-path="url(#p17bce0bf6d)" style="fill: none; stroke: #b0b0b0; stroke-width: 0.8; stroke-linecap: square"/>
     </g>
     <g id="line2d_18">
      <g>
       <use xlink:href="#m72357aa5cb" x="578.966723" y="576.718125" style="stroke: #000000; stroke-width: 0.8"/>
      </g>
     </g>
     <g id="text_9">
      <!-- 200 -->
      <g transform="translate(569.422973 591.316563) scale(0.1 -0.1)">
       <use xlink:href="#DejaVuSans-32"/>
       <use xlink:href="#DejaVuSans-30" x="63.623047"/>
       <use xlink:href="#DejaVuSans-30" x="127.246094"/>
      </g>
     </g>
    </g>
    <g id="text_10">
     <!-- Epochs -->
     <g transform="translate(304.865625 604.994688) scale(0.1 -0.1)">
      <defs>
       <path id="DejaVuSans-45" d="M 628 4666 
L 3578 4666 
L 3578 4134 
L 1259 4134 
L 1259 2753 
L 3481 2753 
L 3481 2222 
L 1259 2222 
L 1259 531 
L 3634 531 
L 3634 0 
L 628 0 
L 628 4666 
z
" transform="scale(0.015625)"/>
       <path id="DejaVuSans-70" d="M 1159 525 
L 1159 -1331 
L 581 -1331 
L 581 3500 
L 1159 3500 
L 1159 2969 
Q 1341 3281 1617 3432 
Q 1894 3584 2278 3584 
Q 2916 3584 3314 3078 
Q 3713 2572 3713 1747 
Q 3713 922 3314 415 
Q 2916 -91 2278 -91 
Q 1894 -91 1617 61 
Q 1341 213 1159 525 
z
M 3116 1747 
Q 3116 2381 2855 2742 
Q 2594 3103 2138 3103 
Q 1681 3103 1420 2742 
Q 1159 2381 1159 1747 
Q 1159 1113 1420 752 
Q 1681 391 2138 391 
Q 2594 391 2855 752 
Q 3116 1113 3116 1747 
z
" transform="scale(0.015625)"/>
       <path id="DejaVuSans-6f" d="M 1959 3097 
Q 1497 3097 1228 2736 
Q 959 2375 959 1747 
Q 959 1119 1226 758 
Q 1494 397 1959 397 
Q 2419 397 2687 759 
Q 2956 1122 2956 1747 
Q 2956 2369 2687 2733 
Q 2419 3097 1959 3097 
z
M 1959 3584 
Q 2709 3584 3137 3096 
Q 3566 2609 3566 1747 
Q 3566 888 3137 398 
Q 2709 -91 1959 -91 
Q 1206 -91 779 398 
Q 353 888 353 1747 
Q 353 2609 779 3096 
Q 1206 3584 1959 3584 
z
" transform="scale(0.015625)"/>
       <path id="DejaVuSans-63" d="M 3122 3366 
L 3122 2828 
Q 2878 2963 2633 3030 
Q 2388 3097 2138 3097 
Q 1578 3097 1268 2742 
Q 959 2388 959 1747 
Q 959 1106 1268 751 
Q 1578 397 2138 397 
Q 2388 397 2633 464 
Q 2878 531 3122 666 
L 3122 134 
Q 2881 22 2623 -34 
Q 2366 -91 2075 -91 
Q 1284 -91 818 406 
Q 353 903 353 1747 
Q 353 2603 823 3093 
Q 1294 3584 2113 3584 
Q 2378 3584 2631 3529 
Q 2884 3475 3122 3366 
z
" transform="scale(0.015625)"/>
       <path id="DejaVuSans-68" d="M 3513 2113 
L 3513 0 
L 2938 0 
L 2938 2094 
Q 2938 2591 2744 2837 
Q 2550 3084 2163 3084 
Q 1697 3084 1428 2787 
Q 1159 2491 1159 1978 
L 1159 0 
L 581 0 
L 581 4863 
L 1159 4863 
L 1159 2956 
Q 1366 3272 1645 3428 
Q 1925 3584 2291 3584 
Q 2894 3584 3203 3211 
Q 3513 2838 3513 2113 
z
" transform="scale(0.015625)"/>
       <path id="DejaVuSans-73" d="M 2834 3397 
L 2834 2853 
Q 2591 2978 2328 3040 
Q 2066 3103 1784 3103 
Q 1356 3103 1142 2972 
Q 928 2841 928 2578 
Q 928 2378 1081 2264 
Q 1234 2150 1697 2047 
L 1894 2003 
Q 2506 1872 2764 1633 
Q 3022 1394 3022 966 
Q 3022 478 2636 193 
Q 2250 -91 1575 -91 
Q 1294 -91 989 -36 
Q 684 19 347 128 
L 347 722 
Q 666 556 975 473 
Q 1284 391 1588 391 
Q 1994 391 2212 530 
Q 2431 669 2431 922 
Q 2431 1156 2273 1281 
Q 2116 1406 1581 1522 
L 1381 1569 
Q 847 1681 609 1914 
Q 372 2147 372 2553 
Q 372 3047 722 3315 
Q 1072 3584 1716 3584 
Q 2034 3584 2315 3537 
Q 2597 3491 2834 3397 
z
" transform="scale(0.015625)"/>
      </defs>
      <use xlink:href="#DejaVuSans-45"/>
      <use xlink:href="#DejaVuSans-70" x="63.183594"/>
      <use xlink:href="#DejaVuSans-6f" x="126.660156"/>
      <use xlink:href="#DejaVuSans-63" x="187.841797"/>
      <use xlink:href="#DejaVuSans-68" x="242.822266"/>
      <use xlink:href="#DejaVuSans-73" x="306.201172"/>
     </g>
    </g>
   </g>
   <g id="matplotlib.axis_2">
    <g id="ytick_1">
     <g id="line2d_19">
      <path d="M 43.78125 512.069841 
L 601.78125 512.069841 
" clip-path="url(#p17bce0bf6d)" style="fill: none; stroke: #b0b0b0; stroke-width: 0.8; stroke-linecap: square"/>
     </g>
     <g id="line2d_20">
      <defs>
       <path id="md6335bd963" d="M 0 0 
L -3.5 0 
" style="stroke: #000000; stroke-width: 0.8"/>
      </defs>
      <g>
       <use xlink:href="#md6335bd963" x="43.78125" y="512.069841" style="stroke: #000000; stroke-width: 0.8"/>
      </g>
     </g>
     <g id="text_11">
      <!-- 3.5 -->
      <g transform="translate(20.878125 515.86906) scale(0.1 -0.1)">
       <defs>
        <path id="DejaVuSans-33" d="M 2597 2516 
Q 3050 2419 3304 2112 
Q 3559 1806 3559 1356 
Q 3559 666 3084 287 
Q 2609 -91 1734 -91 
Q 1441 -91 1130 -33 
Q 819 25 488 141 
L 488 750 
Q 750 597 1062 519 
Q 1375 441 1716 441 
Q 2309 441 2620 675 
Q 2931 909 2931 1356 
Q 2931 1769 2642 2001 
Q 2353 2234 1838 2234 
L 1294 2234 
L 1294 2753 
L 1863 2753 
Q 2328 2753 2575 2939 
Q 2822 3125 2822 3475 
Q 2822 3834 2567 4026 
Q 2313 4219 1838 4219 
Q 1578 4219 1281 4162 
Q 984 4106 628 3988 
L 628 4550 
Q 988 4650 1302 4700 
Q 1616 4750 1894 4750 
Q 2613 4750 3031 4423 
Q 3450 4097 3450 3541 
Q 3450 3153 3228 2886 
Q 3006 2619 2597 2516 
z
" transform="scale(0.015625)"/>
        <path id="DejaVuSans-2e" d="M 684 794 
L 1344 794 
L 1344 0 
L 684 0 
L 684 794 
z
" transform="scale(0.015625)"/>
       </defs>
       <use xlink:href="#DejaVuSans-33"/>
       <use xlink:href="#DejaVuSans-2e" x="63.623047"/>
       <use xlink:href="#DejaVuSans-35" x="95.410156"/>
      </g>
     </g>
    </g>
    <g id="ytick_2">
     <g id="line2d_21">
      <path d="M 43.78125 417.181955 
L 601.78125 417.181955 
" clip-path="url(#p17bce0bf6d)" style="fill: none; stroke: #b0b0b0; stroke-width: 0.8; stroke-linecap: square"/>
     </g>
     <g id="line2d_22">
      <g>
       <use xlink:href="#md6335bd963" x="43.78125" y="417.181955" style="stroke: #000000; stroke-width: 0.8"/>
      </g>
     </g>
     <g id="text_12">
      <!-- 4.0 -->
      <g transform="translate(20.878125 420.981174) scale(0.1 -0.1)">
       <defs>
        <path id="DejaVuSans-34" d="M 2419 4116 
L 825 1625 
L 2419 1625 
L 2419 4116 
z
M 2253 4666 
L 3047 4666 
L 3047 1625 
L 3713 1625 
L 3713 1100 
L 3047 1100 
L 3047 0 
L 2419 0 
L 2419 1100 
L 313 1100 
L 313 1709 
L 2253 4666 
z
" transform="scale(0.015625)"/>
       </defs>
       <use xlink:href="#DejaVuSans-34"/>
       <use xlink:href="#DejaVuSans-2e" x="63.623047"/>
       <use xlink:href="#DejaVuSans-30" x="95.410156"/>
      </g>
     </g>
    </g>
    <g id="ytick_3">
     <g id="line2d_23">
      <path d="M 43.78125 322.294069 
L 601.78125 322.294069 
" clip-path="url(#p17bce0bf6d)" style="fill: none; stroke: #b0b0b0; stroke-width: 0.8; stroke-linecap: square"/>
     </g>
     <g id="line2d_24">
      <g>
       <use xlink:href="#md6335bd963" x="43.78125" y="322.294069" style="stroke: #000000; stroke-width: 0.8"/>
      </g>
     </g>
     <g id="text_13">
      <!-- 4.5 -->
      <g transform="translate(20.878125 326.093288) scale(0.1 -0.1)">
       <use xlink:href="#DejaVuSans-34"/>
       <use xlink:href="#DejaVuSans-2e" x="63.623047"/>
       <use xlink:href="#DejaVuSans-35" x="95.410156"/>
      </g>
     </g>
    </g>
    <g id="ytick_4">
     <g id="line2d_25">
      <path d="M 43.78125 227.406183 
L 601.78125 227.406183 
" clip-path="url(#p17bce0bf6d)" style="fill: none; stroke: #b0b0b0; stroke-width: 0.8; stroke-linecap: square"/>
     </g>
     <g id="line2d_26">
      <g>
       <use xlink:href="#md6335bd963" x="43.78125" y="227.406183" style="stroke: #000000; stroke-width: 0.8"/>
      </g>
     </g>
     <g id="text_14">
      <!-- 5.0 -->
      <g transform="translate(20.878125 231.205402) scale(0.1 -0.1)">
       <use xlink:href="#DejaVuSans-35"/>
       <use xlink:href="#DejaVuSans-2e" x="63.623047"/>
       <use xlink:href="#DejaVuSans-30" x="95.410156"/>
      </g>
     </g>
    </g>
    <g id="ytick_5">
     <g id="line2d_27">
      <path d="M 43.78125 132.518297 
L 601.78125 132.518297 
" clip-path="url(#p17bce0bf6d)" style="fill: none; stroke: #b0b0b0; stroke-width: 0.8; stroke-linecap: square"/>
     </g>
     <g id="line2d_28">
      <g>
       <use xlink:href="#md6335bd963" x="43.78125" y="132.518297" style="stroke: #000000; stroke-width: 0.8"/>
      </g>
     </g>
     <g id="text_15">
      <!-- 5.5 -->
      <g transform="translate(20.878125 136.317516) scale(0.1 -0.1)">
       <use xlink:href="#DejaVuSans-35"/>
       <use xlink:href="#DejaVuSans-2e" x="63.623047"/>
       <use xlink:href="#DejaVuSans-35" x="95.410156"/>
      </g>
     </g>
    </g>
    <g id="ytick_6">
     <g id="line2d_29">
      <path d="M 43.78125 37.630411 
L 601.78125 37.630411 
" clip-path="url(#p17bce0bf6d)" style="fill: none; stroke: #b0b0b0; stroke-width: 0.8; stroke-linecap: square"/>
     </g>
     <g id="line2d_30">
      <g>
       <use xlink:href="#md6335bd963" x="43.78125" y="37.630411" style="stroke: #000000; stroke-width: 0.8"/>
      </g>
     </g>
     <g id="text_16">
      <!-- 6.0 -->
      <g transform="translate(20.878125 41.42963) scale(0.1 -0.1)">
       <defs>
        <path id="DejaVuSans-36" d="M 2113 2584 
Q 1688 2584 1439 2293 
Q 1191 2003 1191 1497 
Q 1191 994 1439 701 
Q 1688 409 2113 409 
Q 2538 409 2786 701 
Q 3034 994 3034 1497 
Q 3034 2003 2786 2293 
Q 2538 2584 2113 2584 
z
M 3366 4563 
L 3366 3988 
Q 3128 4100 2886 4159 
Q 2644 4219 2406 4219 
Q 1781 4219 1451 3797 
Q 1122 3375 1075 2522 
Q 1259 2794 1537 2939 
Q 1816 3084 2150 3084 
Q 2853 3084 3261 2657 
Q 3669 2231 3669 1497 
Q 3669 778 3244 343 
Q 2819 -91 2113 -91 
Q 1303 -91 875 529 
Q 447 1150 447 2328 
Q 447 3434 972 4092 
Q 1497 4750 2381 4750 
Q 2619 4750 2861 4703 
Q 3103 4656 3366 4563 
z
" transform="scale(0.015625)"/>
       </defs>
       <use xlink:href="#DejaVuSans-36"/>
       <use xlink:href="#DejaVuSans-2e" x="63.623047"/>
       <use xlink:href="#DejaVuSans-30" x="95.410156"/>
      </g>
     </g>
    </g>
    <g id="text_17">
     <!-- Loss -->
     <g transform="translate(14.798438 310.485313) rotate(-90) scale(0.1 -0.1)">
      <defs>
       <path id="DejaVuSans-4c" d="M 628 4666 
L 1259 4666 
L 1259 531 
L 3531 531 
L 3531 0 
L 628 0 
L 628 4666 
z
" transform="scale(0.015625)"/>
      </defs>
      <use xlink:href="#DejaVuSans-4c"/>
      <use xlink:href="#DejaVuSans-6f" x="53.962891"/>
      <use xlink:href="#DejaVuSans-73" x="115.144531"/>
      <use xlink:href="#DejaVuSans-73" x="167.244141"/>
     </g>
    </g>
   </g>
   <g id="line2d_31">
    <path d="M 69.144886 238.169047 
L 71.693996 287.998091 
L 74.243105 312.674302 
L 76.792214 331.396221 
L 79.341323 345.833427 
L 81.890432 357.693237 
L 84.439541 368.986656 
L 86.988651 378.029083 
L 89.53776 386.633257 
L 92.086869 392.146943 
L 94.635978 399.506578 
L 97.185087 404.937645 
L 102.283306 414.669169 
L 104.832415 418.111264 
L 107.381524 421.799498 
L 109.930633 426.462331 
L 115.028852 431.712459 
L 117.577961 434.765347 
L 120.12707 437.620329 
L 122.676179 440.031809 
L 125.225288 442.212126 
L 127.774398 444.71817 
L 130.323507 446.937219 
L 132.872616 448.52255 
L 135.421725 450.930139 
L 137.970834 452.766948 
L 140.519943 453.769556 
L 143.069053 455.956842 
L 145.618162 456.194836 
L 148.167271 458.961226 
L 150.71638 461.032365 
L 153.265489 461.240316 
L 155.814599 463.249377 
L 158.363708 478.916462 
L 160.912817 483.399714 
L 163.461926 484.842114 
L 166.011035 487.010486 
L 168.560144 487.269158 
L 171.109254 487.929027 
L 173.658363 489.15705 
L 176.207472 489.01077 
L 178.756581 490.609314 
L 181.30569 490.279424 
L 186.403909 492.415582 
L 188.953018 492.826371 
L 191.502127 492.800173 
L 194.051236 493.026042 
L 196.600345 493.718804 
L 199.149455 495.027728 
L 201.698564 494.689197 
L 204.247673 494.529614 
L 206.796782 495.519417 
L 209.345891 495.782659 
L 211.895001 495.696329 
L 214.44411 496.208334 
L 216.993219 497.171577 
L 219.542328 497.020274 
L 222.091437 498.20269 
L 224.640546 497.671999 
L 227.189656 497.790453 
L 229.738765 497.628246 
L 232.287874 498.480863 
L 234.836983 498.94278 
L 237.386092 499.274524 
L 242.484311 498.999383 
L 245.03342 501.485564 
L 247.582529 500.351516 
L 252.680747 502.387001 
L 255.229857 501.383353 
L 257.778966 501.331772 
L 260.328075 502.379626 
L 262.877184 502.328362 
L 265.426293 502.642144 
L 267.975403 503.179893 
L 270.524512 502.436998 
L 273.073621 504.185533 
L 275.62273 503.666605 
L 278.171839 504.50601 
L 280.720948 504.09124 
L 283.270058 504.166122 
L 285.819167 503.79524 
L 288.368276 504.506734 
L 290.917385 504.043369 
L 293.466494 505.699919 
L 298.564713 505.943297 
L 301.113822 505.83724 
L 303.662931 506.557241 
L 306.21204 510.393836 
L 308.761149 510.399221 
L 311.310259 511.602268 
L 313.859368 511.107276 
L 316.408477 511.543494 
L 318.957586 511.549738 
L 321.506695 512.082736 
L 324.055805 511.976318 
L 326.604914 512.933317 
L 331.703132 512.117893 
L 336.801351 512.362357 
L 339.35046 512.654149 
L 341.899569 513.219815 
L 344.448678 512.671116 
L 346.997787 512.52832 
L 349.546896 513.92036 
L 352.096006 513.482876 
L 354.645115 513.816113 
L 357.194224 513.622505 
L 359.743333 513.060549 
L 362.292442 513.817968 
L 364.841552 513.703224 
L 367.390661 513.312886 
L 369.93977 514.344135 
L 372.488879 513.584046 
L 375.037988 514.002934 
L 377.587097 513.205789 
L 380.136207 514.500008 
L 382.685316 514.330018 
L 385.234425 513.814982 
L 387.783534 514.085418 
L 390.332643 513.674719 
L 392.881753 514.79456 
L 395.430862 514.850122 
L 397.979971 515.461939 
L 400.52908 515.090967 
L 403.078189 514.041846 
L 405.627298 515.530396 
L 408.176408 513.47161 
L 410.725517 515.04097 
L 413.274626 514.799763 
L 420.921954 516.082896 
L 423.471063 515.844404 
L 426.020172 515.044182 
L 428.569281 514.523536 
L 431.11839 516.137961 
L 433.667499 515.516642 
L 436.216609 516.111084 
L 438.765718 516.215965 
L 441.314827 515.904174 
L 443.863936 516.254514 
L 446.413045 516.242751 
L 448.962155 516.71254 
L 451.511264 516.76489 
L 454.060373 516.074299 
L 456.609482 517.115638 
L 459.158591 516.198183 
L 461.7077 515.973174 
L 464.25681 516.989265 
L 466.805919 516.148367 
L 469.355028 517.039579 
L 471.904137 516.263745 
L 477.002356 516.806245 
L 479.551465 516.825701 
L 484.649683 516.666978 
L 487.198792 517.095413 
L 489.747901 517.189615 
L 492.297011 516.678696 
L 497.395229 517.400688 
L 499.944338 517.648772 
L 502.493447 516.389348 
L 505.042557 516.729372 
L 507.591666 516.808779 
L 510.140775 517.142785 
L 512.689884 517.119076 
L 515.238993 516.584177 
L 517.788102 516.893841 
L 520.337212 516.799594 
L 522.886321 517.653523 
L 525.43543 516.330573 
L 527.984539 517.363134 
L 530.533648 516.724214 
L 533.082758 517.363858 
L 538.180976 516.250171 
L 540.730085 516.670959 
L 543.279194 516.893887 
L 545.828303 517.699538 
L 548.377413 516.691863 
L 550.926522 516.427626 
L 553.475631 518.752776 
L 556.02474 516.585263 
L 558.573849 517.342773 
L 561.122959 517.596422 
L 563.672068 515.979283 
L 566.221177 516.87787 
L 568.770286 517.990516 
L 573.868504 517.745915 
L 576.417614 517.297301 
L 576.417614 517.297301 
" clip-path="url(#p17bce0bf6d)" style="fill: none; stroke: #1f77b4; stroke-width: 1.5; stroke-linecap: square"/>
   </g>
   <g id="line2d_32">
    <path d="M 69.144886 163.069439 
L 71.693996 136.222683 
L 74.243105 47.518125 
L 76.792214 209.408654 
L 79.341323 253.356433 
L 81.890432 134.174484 
L 84.439541 220.287076 
L 86.988651 334.558921 
L 89.53776 321.035504 
L 92.086869 264.256483 
L 94.635978 285.253917 
L 97.185087 385.02123 
L 99.734197 273.826388 
L 102.283306 296.554485 
L 104.832415 330.399541 
L 107.381524 382.632056 
L 109.930633 408.919118 
L 112.479742 359.767045 
L 115.028852 365.221368 
L 117.577961 451.28342 
L 120.12707 338.13146 
L 122.676179 450.590477 
L 125.225288 435.814151 
L 127.774398 373.023691 
L 130.323507 473.884511 
L 132.872616 455.736765 
L 135.421725 448.088641 
L 137.970834 428.879784 
L 140.519943 434.641644 
L 143.069053 388.308809 
L 145.618162 338.092639 
L 148.167271 411.933954 
L 150.71638 441.490316 
L 153.265489 411.550901 
L 155.814599 469.399359 
L 158.363708 522.61109 
L 160.912817 519.879041 
L 163.461926 521.857516 
L 166.011035 512.145809 
L 168.560144 525.391008 
L 171.109254 529.317326 
L 173.658363 525.319157 
L 176.207472 527.050996 
L 178.756581 525.631039 
L 181.30569 523.551348 
L 183.8548 527.102531 
L 186.403909 516.459298 
L 188.953018 520.548593 
L 191.502127 523.163997 
L 194.051236 532.162263 
L 196.600345 527.342109 
L 199.149455 522.032619 
L 201.698564 524.616395 
L 204.247673 531.482577 
L 206.796782 526.09644 
L 209.345891 532.41166 
L 211.895001 528.467153 
L 214.44411 528.10627 
L 216.993219 530.141981 
L 219.542328 534.175216 
L 222.091437 530.415539 
L 224.640546 529.305019 
L 227.189656 527.667836 
L 229.738765 534.902004 
L 232.287874 525.527832 
L 234.836983 533.096414 
L 237.386092 524.90597 
L 239.935202 532.026163 
L 242.484311 528.202689 
L 245.03342 532.992936 
L 247.582529 536.970563 
L 250.131638 531.815724 
L 252.680747 527.328038 
L 255.229857 530.822799 
L 257.778966 537.525959 
L 260.328075 535.845837 
L 262.877184 531.077534 
L 265.426293 524.641824 
L 267.975403 536.531993 
L 270.524512 517.243232 
L 273.073621 531.357969 
L 275.62273 528.322953 
L 278.171839 539.963455 
L 280.720948 530.545169 
L 283.270058 517.612394 
L 285.819167 531.493753 
L 288.368276 531.269423 
L 290.917385 532.980765 
L 293.466494 537.352576 
L 296.015604 523.824227 
L 298.564713 530.084654 
L 301.113822 534.289417 
L 303.662931 536.328838 
L 306.21204 547.284088 
L 311.310259 547.465932 
L 313.859368 547.770438 
L 316.408477 547.717817 
L 318.957586 547.088354 
L 324.055805 548.341398 
L 326.604914 548.599301 
L 329.154023 548.328141 
L 331.703132 547.655468 
L 334.252241 548.449265 
L 336.801351 548.795171 
L 339.35046 548.67907 
L 341.899569 548.027662 
L 344.448678 548.548671 
L 349.546896 548.357416 
L 352.096006 547.922691 
L 357.194224 549.282562 
L 359.743333 548.974617 
L 362.292442 548.85476 
L 364.841552 548.352755 
L 367.390661 549.111396 
L 369.93977 548.105893 
L 372.488879 548.868108 
L 375.037988 549.278037 
L 377.587097 548.926204 
L 380.136207 549.044975 
L 382.685316 549.805471 
L 385.234425 549.177003 
L 387.783534 549.234963 
L 392.881753 549.80253 
L 395.430862 548.275294 
L 397.979971 549.166099 
L 400.52908 549.926414 
L 403.078189 550.01772 
L 405.627298 548.606133 
L 408.176408 549.398663 
L 410.725517 549.594126 
L 413.274626 549.328306 
L 415.823735 550.002246 
L 418.372844 549.475084 
L 420.921954 549.307312 
L 423.471063 549.258536 
L 426.020172 548.578759 
L 428.569281 549.274282 
L 431.11839 550.37806 
L 433.667499 550.819073 
L 436.216609 550.660079 
L 438.765718 550.876038 
L 441.314827 550.898706 
L 443.863936 551.087518 
L 446.413045 551.109101 
L 448.962155 550.931102 
L 451.511264 550.919927 
L 454.060373 551.053493 
L 456.609482 551.004492 
L 464.25681 551.248685 
L 469.355028 551.031639 
L 471.904137 551.19353 
L 479.551465 551.146383 
L 482.100574 551.234296 
L 484.649683 551.180273 
L 489.747901 551.289904 
L 499.944338 551.239635 
L 502.493447 551.429624 
L 505.042557 551.402793 
L 507.591666 551.189096 
L 510.140775 551.219048 
L 512.689884 551.133171 
L 522.886321 551.421389 
L 525.43543 551.466544 
L 530.533648 551.248775 
L 533.082758 551.454464 
L 535.631867 551.290583 
L 543.279194 551.464418 
L 545.828303 551.192037 
L 548.377413 551.465051 
L 550.926522 551.244613 
L 556.02474 551.408268 
L 558.573849 551.489213 
L 568.770286 551.288637 
L 573.868504 551.518125 
L 576.417614 551.496814 
L 576.417614 551.496814 
" clip-path="url(#p17bce0bf6d)" style="fill: none; stroke: #ff7f0e; stroke-width: 1.5; stroke-linecap: square"/>
   </g>
   <g id="patch_3">
    <path d="M 43.78125 576.718125 
L 43.78125 22.318125 
" style="fill: none; stroke: #000000; stroke-width: 0.8; stroke-linejoin: miter; stroke-linecap: square"/>
   </g>
   <g id="patch_4">
    <path d="M 601.78125 576.718125 
L 601.78125 22.318125 
" style="fill: none; stroke: #000000; stroke-width: 0.8; stroke-linejoin: miter; stroke-linecap: square"/>
   </g>
   <g id="patch_5">
    <path d="M 43.78125 576.718125 
L 601.78125 576.718125 
" style="fill: none; stroke: #000000; stroke-width: 0.8; stroke-linejoin: miter; stroke-linecap: square"/>
   </g>
   <g id="patch_6">
    <path d="M 43.78125 22.318125 
L 601.78125 22.318125 
" style="fill: none; stroke: #000000; stroke-width: 0.8; stroke-linejoin: miter; stroke-linecap: square"/>
   </g>
   <g id="text_18">
    <!-- Train and Val Loss -->
    <g transform="translate(269.235937 16.318125) scale(0.12 -0.12)">
     <defs>
      <path id="DejaVuSans-54" d="M -19 4666 
L 3928 4666 
L 3928 4134 
L 2272 4134 
L 2272 0 
L 1638 0 
L 1638 4134 
L -19 4134 
L -19 4666 
z
" transform="scale(0.015625)"/>
      <path id="DejaVuSans-72" d="M 2631 2963 
Q 2534 3019 2420 3045 
Q 2306 3072 2169 3072 
Q 1681 3072 1420 2755 
Q 1159 2438 1159 1844 
L 1159 0 
L 581 0 
L 581 3500 
L 1159 3500 
L 1159 2956 
Q 1341 3275 1631 3429 
Q 1922 3584 2338 3584 
Q 2397 3584 2469 3576 
Q 2541 3569 2628 3553 
L 2631 2963 
z
" transform="scale(0.015625)"/>
      <path id="DejaVuSans-61" d="M 2194 1759 
Q 1497 1759 1228 1600 
Q 959 1441 959 1056 
Q 959 750 1161 570 
Q 1363 391 1709 391 
Q 2188 391 2477 730 
Q 2766 1069 2766 1631 
L 2766 1759 
L 2194 1759 
z
M 3341 1997 
L 3341 0 
L 2766 0 
L 2766 531 
Q 2569 213 2275 61 
Q 1981 -91 1556 -91 
Q 1019 -91 701 211 
Q 384 513 384 1019 
Q 384 1609 779 1909 
Q 1175 2209 1959 2209 
L 2766 2209 
L 2766 2266 
Q 2766 2663 2505 2880 
Q 2244 3097 1772 3097 
Q 1472 3097 1187 3025 
Q 903 2953 641 2809 
L 641 3341 
Q 956 3463 1253 3523 
Q 1550 3584 1831 3584 
Q 2591 3584 2966 3190 
Q 3341 2797 3341 1997 
z
" transform="scale(0.015625)"/>
      <path id="DejaVuSans-69" d="M 603 3500 
L 1178 3500 
L 1178 0 
L 603 0 
L 603 3500 
z
M 603 4863 
L 1178 4863 
L 1178 4134 
L 603 4134 
L 603 4863 
z
" transform="scale(0.015625)"/>
      <path id="DejaVuSans-6e" d="M 3513 2113 
L 3513 0 
L 2938 0 
L 2938 2094 
Q 2938 2591 2744 2837 
Q 2550 3084 2163 3084 
Q 1697 3084 1428 2787 
Q 1159 2491 1159 1978 
L 1159 0 
L 581 0 
L 581 3500 
L 1159 3500 
L 1159 2956 
Q 1366 3272 1645 3428 
Q 1925 3584 2291 3584 
Q 2894 3584 3203 3211 
Q 3513 2838 3513 2113 
z
" transform="scale(0.015625)"/>
      <path id="DejaVuSans-20" transform="scale(0.015625)"/>
      <path id="DejaVuSans-64" d="M 2906 2969 
L 2906 4863 
L 3481 4863 
L 3481 0 
L 2906 0 
L 2906 525 
Q 2725 213 2448 61 
Q 2172 -91 1784 -91 
Q 1150 -91 751 415 
Q 353 922 353 1747 
Q 353 2572 751 3078 
Q 1150 3584 1784 3584 
Q 2172 3584 2448 3432 
Q 2725 3281 2906 2969 
z
M 947 1747 
Q 947 1113 1208 752 
Q 1469 391 1925 391 
Q 2381 391 2643 752 
Q 2906 1113 2906 1747 
Q 2906 2381 2643 2742 
Q 2381 3103 1925 3103 
Q 1469 3103 1208 2742 
Q 947 2381 947 1747 
z
" transform="scale(0.015625)"/>
      <path id="DejaVuSans-56" d="M 1831 0 
L 50 4666 
L 709 4666 
L 2188 738 
L 3669 4666 
L 4325 4666 
L 2547 0 
L 1831 0 
z
" transform="scale(0.015625)"/>
      <path id="DejaVuSans-6c" d="M 603 4863 
L 1178 4863 
L 1178 0 
L 603 0 
L 603 4863 
z
" transform="scale(0.015625)"/>
     </defs>
     <use xlink:href="#DejaVuSans-54"/>
     <use xlink:href="#DejaVuSans-72" x="46.333984"/>
     <use xlink:href="#DejaVuSans-61" x="87.447266"/>
     <use xlink:href="#DejaVuSans-69" x="148.726562"/>
     <use xlink:href="#DejaVuSans-6e" x="176.509766"/>
     <use xlink:href="#DejaVuSans-20" x="239.888672"/>
     <use xlink:href="#DejaVuSans-61" x="271.675781"/>
     <use xlink:href="#DejaVuSans-6e" x="332.955078"/>
     <use xlink:href="#DejaVuSans-64" x="396.333984"/>
     <use xlink:href="#DejaVuSans-20" x="459.810547"/>
     <use xlink:href="#DejaVuSans-56" x="491.597656"/>
     <use xlink:href="#DejaVuSans-61" x="552.255859"/>
     <use xlink:href="#DejaVuSans-6c" x="613.535156"/>
     <use xlink:href="#DejaVuSans-20" x="641.318359"/>
     <use xlink:href="#DejaVuSans-4c" x="673.105469"/>
     <use xlink:href="#DejaVuSans-6f" x="727.068359"/>
     <use xlink:href="#DejaVuSans-73" x="788.25"/>
     <use xlink:href="#DejaVuSans-73" x="840.349609"/>
    </g>
   </g>
   <g id="legend_1">
    <g id="patch_7">
     <path d="M 515.190625 60.230625 
L 594.78125 60.230625 
Q 596.78125 60.230625 596.78125 58.230625 
L 596.78125 29.318125 
Q 596.78125 27.318125 594.78125 27.318125 
L 515.190625 27.318125 
Q 513.190625 27.318125 513.190625 29.318125 
L 513.190625 58.230625 
Q 513.190625 60.230625 515.190625 60.230625 
z
" style="fill: #ffffff; opacity: 0.8; stroke: #cccccc; stroke-linejoin: miter"/>
    </g>
    <g id="line2d_33">
     <path d="M 517.190625 35.416563 
L 527.190625 35.416563 
L 537.190625 35.416563 
" style="fill: none; stroke: #1f77b4; stroke-width: 1.5; stroke-linecap: square"/>
    </g>
    <g id="text_19">
     <!-- train_loss -->
     <g transform="translate(545.190625 38.916563) scale(0.1 -0.1)">
      <defs>
       <path id="DejaVuSans-74" d="M 1172 4494 
L 1172 3500 
L 2356 3500 
L 2356 3053 
L 1172 3053 
L 1172 1153 
Q 1172 725 1289 603 
Q 1406 481 1766 481 
L 2356 481 
L 2356 0 
L 1766 0 
Q 1100 0 847 248 
Q 594 497 594 1153 
L 594 3053 
L 172 3053 
L 172 3500 
L 594 3500 
L 594 4494 
L 1172 4494 
z
" transform="scale(0.015625)"/>
       <path id="DejaVuSans-5f" d="M 3263 -1063 
L 3263 -1509 
L -63 -1509 
L -63 -1063 
L 3263 -1063 
z
" transform="scale(0.015625)"/>
      </defs>
      <use xlink:href="#DejaVuSans-74"/>
      <use xlink:href="#DejaVuSans-72" x="39.208984"/>
      <use xlink:href="#DejaVuSans-61" x="80.322266"/>
      <use xlink:href="#DejaVuSans-69" x="141.601562"/>
      <use xlink:href="#DejaVuSans-6e" x="169.384766"/>
      <use xlink:href="#DejaVuSans-5f" x="232.763672"/>
      <use xlink:href="#DejaVuSans-6c" x="282.763672"/>
      <use xlink:href="#DejaVuSans-6f" x="310.546875"/>
      <use xlink:href="#DejaVuSans-73" x="371.728516"/>
      <use xlink:href="#DejaVuSans-73" x="423.828125"/>
     </g>
    </g>
    <g id="line2d_34">
     <path d="M 517.190625 50.372813 
L 527.190625 50.372813 
L 537.190625 50.372813 
" style="fill: none; stroke: #ff7f0e; stroke-width: 1.5; stroke-linecap: square"/>
    </g>
    <g id="text_20">
     <!-- val_loss -->
     <g transform="translate(545.190625 53.872813) scale(0.1 -0.1)">
      <defs>
       <path id="DejaVuSans-76" d="M 191 3500 
L 800 3500 
L 1894 563 
L 2988 3500 
L 3597 3500 
L 2284 0 
L 1503 0 
L 191 3500 
z
" transform="scale(0.015625)"/>
      </defs>
      <use xlink:href="#DejaVuSans-76"/>
      <use xlink:href="#DejaVuSans-61" x="59.179688"/>
      <use xlink:href="#DejaVuSans-6c" x="120.458984"/>
      <use xlink:href="#DejaVuSans-5f" x="148.242188"/>
      <use xlink:href="#DejaVuSans-6c" x="198.242188"/>
      <use xlink:href="#DejaVuSans-6f" x="226.025391"/>
      <use xlink:href="#DejaVuSans-73" x="287.207031"/>
      <use xlink:href="#DejaVuSans-73" x="339.306641"/>
     </g>
    </g>
   </g>
  </g>
 </g>
 <defs>
  <clipPath id="p17bce0bf6d">
   <rect x="43.78125" y="22.318125" width="558" height="554.4"/>
  </clipPath>
 </defs>
</svg>
