<?xml version="1.0" encoding="utf-8" standalone="no"?>
<!DOCTYPE svg PUBLIC "-//W3C//DTD SVG 1.1//EN"
  "http://www.w3.org/Graphics/SVG/1.1/DTD/svg11.dtd">
<svg xmlns:xlink="http://www.w3.org/1999/xlink" width="615.34375pt" height="614.274375pt" viewBox="0 0 615.34375 614.274375" xmlns="http://www.w3.org/2000/svg" version="1.1">
 <metadata>
  <rdf:RDF xmlns:dc="http://purl.org/dc/elements/1.1/" xmlns:cc="http://creativecommons.org/ns#" xmlns:rdf="http://www.w3.org/1999/02/22-rdf-syntax-ns#">
   <cc:Work>
    <dc:type rdf:resource="http://purl.org/dc/dcmitype/StillImage"/>
    <dc:date>2024-08-06T16:17:12.307291</dc:date>
    <dc:format>image/svg+xml</dc:format>
    <dc:creator>
     <cc:Agent>
      <dc:title>Matplotlib v3.8.0, https://matplotlib.org/</dc:title>
     </cc:Agent>
    </dc:creator>
   </cc:Work>
  </rdf:RDF>
 </metadata>
 <defs>
  <style type="text/css">*{stroke-linejoin: round; stroke-linecap: butt}</style>
 </defs>
 <g id="figure_1">
  <g id="patch_1">
   <path d="M 0 614.274375 
L 615.34375 614.274375 
L 615.34375 0 
L 0 0 
z
" style="fill: #ffffff"/>
  </g>
  <g id="axes_1">
   <g id="patch_2">
    <path d="M 50.14375 576.718125 
L 608.14375 576.718125 
L 608.14375 22.318125 
L 50.14375 22.318125 
z
" style="fill: #ffffff"/>
   </g>
   <g id="matplotlib.axis_1">
    <g id="xtick_1">
     <g id="line2d_1">
      <path d="M 75.507386 576.718125 
L 75.507386 22.318125 
" clip-path="url(#pe8e2ac9e95)" style="fill: none; stroke: #b0b0b0; stroke-width: 0.8; stroke-linecap: square"/>
     </g>
     <g id="line2d_2">
      <defs>
       <path id="m05dc2fdd75" d="M 0 0 
L 0 3.5 
" style="stroke: #000000; stroke-width: 0.8"/>
      </defs>
      <g>
       <use xlink:href="#m05dc2fdd75" x="75.507386" y="576.718125" style="stroke: #000000; stroke-width: 0.8"/>
      </g>
     </g>
     <g id="text_1">
      <!-- 0 -->
      <g transform="translate(72.326136 591.316563) scale(0.1 -0.1)">
       <defs>
        <path id="DejaVuSans-30" d="M 2034 4250 
Q 1547 4250 1301 3770 
Q 1056 3291 1056 2328 
Q 1056 1369 1301 889 
Q 1547 409 2034 409 
Q 2525 409 2770 889 
Q 3016 1369 3016 2328 
Q 3016 3291 2770 3770 
Q 2525 4250 2034 4250 
z
M 2034 4750 
Q 2819 4750 3233 4129 
Q 3647 3509 3647 2328 
Q 3647 1150 3233 529 
Q 2819 -91 2034 -91 
Q 1250 -91 836 529 
Q 422 1150 422 2328 
Q 422 3509 836 4129 
Q 1250 4750 2034 4750 
z
" transform="scale(0.015625)"/>
       </defs>
       <use xlink:href="#DejaVuSans-30"/>
      </g>
     </g>
    </g>
    <g id="xtick_2">
     <g id="line2d_3">
      <path d="M 139.235116 576.718125 
L 139.235116 22.318125 
" clip-path="url(#pe8e2ac9e95)" style="fill: none; stroke: #b0b0b0; stroke-width: 0.8; stroke-linecap: square"/>
     </g>
     <g id="line2d_4">
      <g>
       <use xlink:href="#m05dc2fdd75" x="139.235116" y="576.718125" style="stroke: #000000; stroke-width: 0.8"/>
      </g>
     </g>
     <g id="text_2">
      <!-- 25 -->
      <g transform="translate(132.872616 591.316563) scale(0.1 -0.1)">
       <defs>
        <path id="DejaVuSans-32" d="M 1228 531 
L 3431 531 
L 3431 0 
L 469 0 
L 469 531 
Q 828 903 1448 1529 
Q 2069 2156 2228 2338 
Q 2531 2678 2651 2914 
Q 2772 3150 2772 3378 
Q 2772 3750 2511 3984 
Q 2250 4219 1831 4219 
Q 1534 4219 1204 4116 
Q 875 4013 500 3803 
L 500 4441 
Q 881 4594 1212 4672 
Q 1544 4750 1819 4750 
Q 2544 4750 2975 4387 
Q 3406 4025 3406 3419 
Q 3406 3131 3298 2873 
Q 3191 2616 2906 2266 
Q 2828 2175 2409 1742 
Q 1991 1309 1228 531 
z
" transform="scale(0.015625)"/>
        <path id="DejaVuSans-35" d="M 691 4666 
L 3169 4666 
L 3169 4134 
L 1269 4134 
L 1269 2991 
Q 1406 3038 1543 3061 
Q 1681 3084 1819 3084 
Q 2600 3084 3056 2656 
Q 3513 2228 3513 1497 
Q 3513 744 3044 326 
Q 2575 -91 1722 -91 
Q 1428 -91 1123 -41 
Q 819 9 494 109 
L 494 744 
Q 775 591 1075 516 
Q 1375 441 1709 441 
Q 2250 441 2565 725 
Q 2881 1009 2881 1497 
Q 2881 1984 2565 2268 
Q 2250 2553 1709 2553 
Q 1456 2553 1204 2497 
Q 953 2441 691 2322 
L 691 4666 
z
" transform="scale(0.015625)"/>
       </defs>
       <use xlink:href="#DejaVuSans-32"/>
       <use xlink:href="#DejaVuSans-35" x="63.623047"/>
      </g>
     </g>
    </g>
    <g id="xtick_3">
     <g id="line2d_5">
      <path d="M 202.962845 576.718125 
L 202.962845 22.318125 
" clip-path="url(#pe8e2ac9e95)" style="fill: none; stroke: #b0b0b0; stroke-width: 0.8; stroke-linecap: square"/>
     </g>
     <g id="line2d_6">
      <g>
       <use xlink:href="#m05dc2fdd75" x="202.962845" y="576.718125" style="stroke: #000000; stroke-width: 0.8"/>
      </g>
     </g>
     <g id="text_3">
      <!-- 50 -->
      <g transform="translate(196.600345 591.316563) scale(0.1 -0.1)">
       <use xlink:href="#DejaVuSans-35"/>
       <use xlink:href="#DejaVuSans-30" x="63.623047"/>
      </g>
     </g>
    </g>
    <g id="xtick_4">
     <g id="line2d_7">
      <path d="M 266.690575 576.718125 
L 266.690575 22.318125 
" clip-path="url(#pe8e2ac9e95)" style="fill: none; stroke: #b0b0b0; stroke-width: 0.8; stroke-linecap: square"/>
     </g>
     <g id="line2d_8">
      <g>
       <use xlink:href="#m05dc2fdd75" x="266.690575" y="576.718125" style="stroke: #000000; stroke-width: 0.8"/>
      </g>
     </g>
     <g id="text_4">
      <!-- 75 -->
      <g transform="translate(260.328075 591.316563) scale(0.1 -0.1)">
       <defs>
        <path id="DejaVuSans-37" d="M 525 4666 
L 3525 4666 
L 3525 4397 
L 1831 0 
L 1172 0 
L 2766 4134 
L 525 4134 
L 525 4666 
z
" transform="scale(0.015625)"/>
       </defs>
       <use xlink:href="#DejaVuSans-37"/>
       <use xlink:href="#DejaVuSans-35" x="63.623047"/>
      </g>
     </g>
    </g>
    <g id="xtick_5">
     <g id="line2d_9">
      <path d="M 330.418305 576.718125 
L 330.418305 22.318125 
" clip-path="url(#pe8e2ac9e95)" style="fill: none; stroke: #b0b0b0; stroke-width: 0.8; stroke-linecap: square"/>
     </g>
     <g id="line2d_10">
      <g>
       <use xlink:href="#m05dc2fdd75" x="330.418305" y="576.718125" style="stroke: #000000; stroke-width: 0.8"/>
      </g>
     </g>
     <g id="text_5">
      <!-- 100 -->
      <g transform="translate(320.874555 591.316563) scale(0.1 -0.1)">
       <defs>
        <path id="DejaVuSans-31" d="M 794 531 
L 1825 531 
L 1825 4091 
L 703 3866 
L 703 4441 
L 1819 4666 
L 2450 4666 
L 2450 531 
L 3481 531 
L 3481 0 
L 794 0 
L 794 531 
z
" transform="scale(0.015625)"/>
       </defs>
       <use xlink:href="#DejaVuSans-31"/>
       <use xlink:href="#DejaVuSans-30" x="63.623047"/>
       <use xlink:href="#DejaVuSans-30" x="127.246094"/>
      </g>
     </g>
    </g>
    <g id="xtick_6">
     <g id="line2d_11">
      <path d="M 394.146034 576.718125 
L 394.146034 22.318125 
" clip-path="url(#pe8e2ac9e95)" style="fill: none; stroke: #b0b0b0; stroke-width: 0.8; stroke-linecap: square"/>
     </g>
     <g id="line2d_12">
      <g>
       <use xlink:href="#m05dc2fdd75" x="394.146034" y="576.718125" style="stroke: #000000; stroke-width: 0.8"/>
      </g>
     </g>
     <g id="text_6">
      <!-- 125 -->
      <g transform="translate(384.602284 591.316563) scale(0.1 -0.1)">
       <use xlink:href="#DejaVuSans-31"/>
       <use xlink:href="#DejaVuSans-32" x="63.623047"/>
       <use xlink:href="#DejaVuSans-35" x="127.246094"/>
      </g>
     </g>
    </g>
    <g id="xtick_7">
     <g id="line2d_13">
      <path d="M 457.873764 576.718125 
L 457.873764 22.318125 
" clip-path="url(#pe8e2ac9e95)" style="fill: none; stroke: #b0b0b0; stroke-width: 0.8; stroke-linecap: square"/>
     </g>
     <g id="line2d_14">
      <g>
       <use xlink:href="#m05dc2fdd75" x="457.873764" y="576.718125" style="stroke: #000000; stroke-width: 0.8"/>
      </g>
     </g>
     <g id="text_7">
      <!-- 150 -->
      <g transform="translate(448.330014 591.316563) scale(0.1 -0.1)">
       <use xlink:href="#DejaVuSans-31"/>
       <use xlink:href="#DejaVuSans-35" x="63.623047"/>
       <use xlink:href="#DejaVuSans-30" x="127.246094"/>
      </g>
     </g>
    </g>
    <g id="xtick_8">
     <g id="line2d_15">
      <path d="M 521.601493 576.718125 
L 521.601493 22.318125 
" clip-path="url(#pe8e2ac9e95)" style="fill: none; stroke: #b0b0b0; stroke-width: 0.8; stroke-linecap: square"/>
     </g>
     <g id="line2d_16">
      <g>
       <use xlink:href="#m05dc2fdd75" x="521.601493" y="576.718125" style="stroke: #000000; stroke-width: 0.8"/>
      </g>
     </g>
     <g id="text_8">
      <!-- 175 -->
      <g transform="translate(512.057743 591.316563) scale(0.1 -0.1)">
       <use xlink:href="#DejaVuSans-31"/>
       <use xlink:href="#DejaVuSans-37" x="63.623047"/>
       <use xlink:href="#DejaVuSans-35" x="127.246094"/>
      </g>
     </g>
    </g>
    <g id="xtick_9">
     <g id="line2d_17">
      <path d="M 585.329223 576.718125 
L 585.329223 22.318125 
" clip-path="url(#pe8e2ac9e95)" style="fill: none; stroke: #b0b0b0; stroke-width: 0.8; stroke-linecap: square"/>
     </g>
     <g id="line2d_18">
      <g>
       <use xlink:href="#m05dc2fdd75" x="585.329223" y="576.718125" style="stroke: #000000; stroke-width: 0.8"/>
      </g>
     </g>
     <g id="text_9">
      <!-- 200 -->
      <g transform="translate(575.785473 591.316563) scale(0.1 -0.1)">
       <use xlink:href="#DejaVuSans-32"/>
       <use xlink:href="#DejaVuSans-30" x="63.623047"/>
       <use xlink:href="#DejaVuSans-30" x="127.246094"/>
      </g>
     </g>
    </g>
    <g id="text_10">
     <!-- Epochs -->
     <g transform="translate(311.228125 604.994688) scale(0.1 -0.1)">
      <defs>
       <path id="DejaVuSans-45" d="M 628 4666 
L 3578 4666 
L 3578 4134 
L 1259 4134 
L 1259 2753 
L 3481 2753 
L 3481 2222 
L 1259 2222 
L 1259 531 
L 3634 531 
L 3634 0 
L 628 0 
L 628 4666 
z
" transform="scale(0.015625)"/>
       <path id="DejaVuSans-70" d="M 1159 525 
L 1159 -1331 
L 581 -1331 
L 581 3500 
L 1159 3500 
L 1159 2969 
Q 1341 3281 1617 3432 
Q 1894 3584 2278 3584 
Q 2916 3584 3314 3078 
Q 3713 2572 3713 1747 
Q 3713 922 3314 415 
Q 2916 -91 2278 -91 
Q 1894 -91 1617 61 
Q 1341 213 1159 525 
z
M 3116 1747 
Q 3116 2381 2855 2742 
Q 2594 3103 2138 3103 
Q 1681 3103 1420 2742 
Q 1159 2381 1159 1747 
Q 1159 1113 1420 752 
Q 1681 391 2138 391 
Q 2594 391 2855 752 
Q 3116 1113 3116 1747 
z
" transform="scale(0.015625)"/>
       <path id="DejaVuSans-6f" d="M 1959 3097 
Q 1497 3097 1228 2736 
Q 959 2375 959 1747 
Q 959 1119 1226 758 
Q 1494 397 1959 397 
Q 2419 397 2687 759 
Q 2956 1122 2956 1747 
Q 2956 2369 2687 2733 
Q 2419 3097 1959 3097 
z
M 1959 3584 
Q 2709 3584 3137 3096 
Q 3566 2609 3566 1747 
Q 3566 888 3137 398 
Q 2709 -91 1959 -91 
Q 1206 -91 779 398 
Q 353 888 353 1747 
Q 353 2609 779 3096 
Q 1206 3584 1959 3584 
z
" transform="scale(0.015625)"/>
       <path id="DejaVuSans-63" d="M 3122 3366 
L 3122 2828 
Q 2878 2963 2633 3030 
Q 2388 3097 2138 3097 
Q 1578 3097 1268 2742 
Q 959 2388 959 1747 
Q 959 1106 1268 751 
Q 1578 397 2138 397 
Q 2388 397 2633 464 
Q 2878 531 3122 666 
L 3122 134 
Q 2881 22 2623 -34 
Q 2366 -91 2075 -91 
Q 1284 -91 818 406 
Q 353 903 353 1747 
Q 353 2603 823 3093 
Q 1294 3584 2113 3584 
Q 2378 3584 2631 3529 
Q 2884 3475 3122 3366 
z
" transform="scale(0.015625)"/>
       <path id="DejaVuSans-68" d="M 3513 2113 
L 3513 0 
L 2938 0 
L 2938 2094 
Q 2938 2591 2744 2837 
Q 2550 3084 2163 3084 
Q 1697 3084 1428 2787 
Q 1159 2491 1159 1978 
L 1159 0 
L 581 0 
L 581 4863 
L 1159 4863 
L 1159 2956 
Q 1366 3272 1645 3428 
Q 1925 3584 2291 3584 
Q 2894 3584 3203 3211 
Q 3513 2838 3513 2113 
z
" transform="scale(0.015625)"/>
       <path id="DejaVuSans-73" d="M 2834 3397 
L 2834 2853 
Q 2591 2978 2328 3040 
Q 2066 3103 1784 3103 
Q 1356 3103 1142 2972 
Q 928 2841 928 2578 
Q 928 2378 1081 2264 
Q 1234 2150 1697 2047 
L 1894 2003 
Q 2506 1872 2764 1633 
Q 3022 1394 3022 966 
Q 3022 478 2636 193 
Q 2250 -91 1575 -91 
Q 1294 -91 989 -36 
Q 684 19 347 128 
L 347 722 
Q 666 556 975 473 
Q 1284 391 1588 391 
Q 1994 391 2212 530 
Q 2431 669 2431 922 
Q 2431 1156 2273 1281 
Q 2116 1406 1581 1522 
L 1381 1569 
Q 847 1681 609 1914 
Q 372 2147 372 2553 
Q 372 3047 722 3315 
Q 1072 3584 1716 3584 
Q 2034 3584 2315 3537 
Q 2597 3491 2834 3397 
z
" transform="scale(0.015625)"/>
      </defs>
      <use xlink:href="#DejaVuSans-45"/>
      <use xlink:href="#DejaVuSans-70" x="63.183594"/>
      <use xlink:href="#DejaVuSans-6f" x="126.660156"/>
      <use xlink:href="#DejaVuSans-63" x="187.841797"/>
      <use xlink:href="#DejaVuSans-68" x="242.822266"/>
      <use xlink:href="#DejaVuSans-73" x="306.201172"/>
     </g>
    </g>
   </g>
   <g id="matplotlib.axis_2">
    <g id="ytick_1">
     <g id="line2d_19">
      <path d="M 50.14375 543.458123 
L 608.14375 543.458123 
" clip-path="url(#pe8e2ac9e95)" style="fill: none; stroke: #b0b0b0; stroke-width: 0.8; stroke-linecap: square"/>
     </g>
     <g id="line2d_20">
      <defs>
       <path id="m9fddfa2473" d="M 0 0 
L -3.5 0 
" style="stroke: #000000; stroke-width: 0.8"/>
      </defs>
      <g>
       <use xlink:href="#m9fddfa2473" x="50.14375" y="543.458123" style="stroke: #000000; stroke-width: 0.8"/>
      </g>
     </g>
     <g id="text_11">
      <!-- 0.75 -->
      <g transform="translate(20.878125 547.257342) scale(0.1 -0.1)">
       <defs>
        <path id="DejaVuSans-2e" d="M 684 794 
L 1344 794 
L 1344 0 
L 684 0 
L 684 794 
z
" transform="scale(0.015625)"/>
       </defs>
       <use xlink:href="#DejaVuSans-30"/>
       <use xlink:href="#DejaVuSans-2e" x="63.623047"/>
       <use xlink:href="#DejaVuSans-37" x="95.410156"/>
       <use xlink:href="#DejaVuSans-35" x="159.033203"/>
      </g>
     </g>
    </g>
    <g id="ytick_2">
     <g id="line2d_21">
      <path d="M 50.14375 480.412451 
L 608.14375 480.412451 
" clip-path="url(#pe8e2ac9e95)" style="fill: none; stroke: #b0b0b0; stroke-width: 0.8; stroke-linecap: square"/>
     </g>
     <g id="line2d_22">
      <g>
       <use xlink:href="#m9fddfa2473" x="50.14375" y="480.412451" style="stroke: #000000; stroke-width: 0.8"/>
      </g>
     </g>
     <g id="text_12">
      <!-- 1.00 -->
      <g transform="translate(20.878125 484.211669) scale(0.1 -0.1)">
       <use xlink:href="#DejaVuSans-31"/>
       <use xlink:href="#DejaVuSans-2e" x="63.623047"/>
       <use xlink:href="#DejaVuSans-30" x="95.410156"/>
       <use xlink:href="#DejaVuSans-30" x="159.033203"/>
      </g>
     </g>
    </g>
    <g id="ytick_3">
     <g id="line2d_23">
      <path d="M 50.14375 417.366778 
L 608.14375 417.366778 
" clip-path="url(#pe8e2ac9e95)" style="fill: none; stroke: #b0b0b0; stroke-width: 0.8; stroke-linecap: square"/>
     </g>
     <g id="line2d_24">
      <g>
       <use xlink:href="#m9fddfa2473" x="50.14375" y="417.366778" style="stroke: #000000; stroke-width: 0.8"/>
      </g>
     </g>
     <g id="text_13">
      <!-- 1.25 -->
      <g transform="translate(20.878125 421.165997) scale(0.1 -0.1)">
       <use xlink:href="#DejaVuSans-31"/>
       <use xlink:href="#DejaVuSans-2e" x="63.623047"/>
       <use xlink:href="#DejaVuSans-32" x="95.410156"/>
       <use xlink:href="#DejaVuSans-35" x="159.033203"/>
      </g>
     </g>
    </g>
    <g id="ytick_4">
     <g id="line2d_25">
      <path d="M 50.14375 354.321106 
L 608.14375 354.321106 
" clip-path="url(#pe8e2ac9e95)" style="fill: none; stroke: #b0b0b0; stroke-width: 0.8; stroke-linecap: square"/>
     </g>
     <g id="line2d_26">
      <g>
       <use xlink:href="#m9fddfa2473" x="50.14375" y="354.321106" style="stroke: #000000; stroke-width: 0.8"/>
      </g>
     </g>
     <g id="text_14">
      <!-- 1.50 -->
      <g transform="translate(20.878125 358.120324) scale(0.1 -0.1)">
       <use xlink:href="#DejaVuSans-31"/>
       <use xlink:href="#DejaVuSans-2e" x="63.623047"/>
       <use xlink:href="#DejaVuSans-35" x="95.410156"/>
       <use xlink:href="#DejaVuSans-30" x="159.033203"/>
      </g>
     </g>
    </g>
    <g id="ytick_5">
     <g id="line2d_27">
      <path d="M 50.14375 291.275433 
L 608.14375 291.275433 
" clip-path="url(#pe8e2ac9e95)" style="fill: none; stroke: #b0b0b0; stroke-width: 0.8; stroke-linecap: square"/>
     </g>
     <g id="line2d_28">
      <g>
       <use xlink:href="#m9fddfa2473" x="50.14375" y="291.275433" style="stroke: #000000; stroke-width: 0.8"/>
      </g>
     </g>
     <g id="text_15">
      <!-- 1.75 -->
      <g transform="translate(20.878125 295.074652) scale(0.1 -0.1)">
       <use xlink:href="#DejaVuSans-31"/>
       <use xlink:href="#DejaVuSans-2e" x="63.623047"/>
       <use xlink:href="#DejaVuSans-37" x="95.410156"/>
       <use xlink:href="#DejaVuSans-35" x="159.033203"/>
      </g>
     </g>
    </g>
    <g id="ytick_6">
     <g id="line2d_29">
      <path d="M 50.14375 228.229761 
L 608.14375 228.229761 
" clip-path="url(#pe8e2ac9e95)" style="fill: none; stroke: #b0b0b0; stroke-width: 0.8; stroke-linecap: square"/>
     </g>
     <g id="line2d_30">
      <g>
       <use xlink:href="#m9fddfa2473" x="50.14375" y="228.229761" style="stroke: #000000; stroke-width: 0.8"/>
      </g>
     </g>
     <g id="text_16">
      <!-- 2.00 -->
      <g transform="translate(20.878125 232.028979) scale(0.1 -0.1)">
       <use xlink:href="#DejaVuSans-32"/>
       <use xlink:href="#DejaVuSans-2e" x="63.623047"/>
       <use xlink:href="#DejaVuSans-30" x="95.410156"/>
       <use xlink:href="#DejaVuSans-30" x="159.033203"/>
      </g>
     </g>
    </g>
    <g id="ytick_7">
     <g id="line2d_31">
      <path d="M 50.14375 165.184088 
L 608.14375 165.184088 
" clip-path="url(#pe8e2ac9e95)" style="fill: none; stroke: #b0b0b0; stroke-width: 0.8; stroke-linecap: square"/>
     </g>
     <g id="line2d_32">
      <g>
       <use xlink:href="#m9fddfa2473" x="50.14375" y="165.184088" style="stroke: #000000; stroke-width: 0.8"/>
      </g>
     </g>
     <g id="text_17">
      <!-- 2.25 -->
      <g transform="translate(20.878125 168.983307) scale(0.1 -0.1)">
       <use xlink:href="#DejaVuSans-32"/>
       <use xlink:href="#DejaVuSans-2e" x="63.623047"/>
       <use xlink:href="#DejaVuSans-32" x="95.410156"/>
       <use xlink:href="#DejaVuSans-35" x="159.033203"/>
      </g>
     </g>
    </g>
    <g id="ytick_8">
     <g id="line2d_33">
      <path d="M 50.14375 102.138416 
L 608.14375 102.138416 
" clip-path="url(#pe8e2ac9e95)" style="fill: none; stroke: #b0b0b0; stroke-width: 0.8; stroke-linecap: square"/>
     </g>
     <g id="line2d_34">
      <g>
       <use xlink:href="#m9fddfa2473" x="50.14375" y="102.138416" style="stroke: #000000; stroke-width: 0.8"/>
      </g>
     </g>
     <g id="text_18">
      <!-- 2.50 -->
      <g transform="translate(20.878125 105.937634) scale(0.1 -0.1)">
       <use xlink:href="#DejaVuSans-32"/>
       <use xlink:href="#DejaVuSans-2e" x="63.623047"/>
       <use xlink:href="#DejaVuSans-35" x="95.410156"/>
       <use xlink:href="#DejaVuSans-30" x="159.033203"/>
      </g>
     </g>
    </g>
    <g id="ytick_9">
     <g id="line2d_35">
      <path d="M 50.14375 39.092743 
L 608.14375 39.092743 
" clip-path="url(#pe8e2ac9e95)" style="fill: none; stroke: #b0b0b0; stroke-width: 0.8; stroke-linecap: square"/>
     </g>
     <g id="line2d_36">
      <g>
       <use xlink:href="#m9fddfa2473" x="50.14375" y="39.092743" style="stroke: #000000; stroke-width: 0.8"/>
      </g>
     </g>
     <g id="text_19">
      <!-- 2.75 -->
      <g transform="translate(20.878125 42.891962) scale(0.1 -0.1)">
       <use xlink:href="#DejaVuSans-32"/>
       <use xlink:href="#DejaVuSans-2e" x="63.623047"/>
       <use xlink:href="#DejaVuSans-37" x="95.410156"/>
       <use xlink:href="#DejaVuSans-35" x="159.033203"/>
      </g>
     </g>
    </g>
    <g id="text_20">
     <!-- Loss -->
     <g transform="translate(14.798437 310.485313) rotate(-90) scale(0.1 -0.1)">
      <defs>
       <path id="DejaVuSans-4c" d="M 628 4666 
L 1259 4666 
L 1259 531 
L 3531 531 
L 3531 0 
L 628 0 
L 628 4666 
z
" transform="scale(0.015625)"/>
      </defs>
      <use xlink:href="#DejaVuSans-4c"/>
      <use xlink:href="#DejaVuSans-6f" x="53.962891"/>
      <use xlink:href="#DejaVuSans-73" x="115.144531"/>
      <use xlink:href="#DejaVuSans-73" x="167.244141"/>
     </g>
    </g>
   </g>
   <g id="line2d_37">
    <path d="M 75.507386 88.885234 
L 78.056496 312.357256 
L 80.605605 377.832491 
L 83.154714 393.274104 
L 85.703823 400.273049 
L 88.252932 406.836298 
L 90.802041 411.20324 
L 93.351151 413.945212 
L 95.90026 416.202517 
L 100.998478 420.243551 
L 103.547587 421.479211 
L 106.096697 422.530346 
L 113.744024 426.036207 
L 116.293133 426.310317 
L 118.842242 427.218236 
L 121.391352 428.569005 
L 123.940461 429.372275 
L 126.48957 429.665114 
L 129.038679 430.846271 
L 139.235116 433.324955 
L 141.784225 433.703473 
L 144.333334 435.479656 
L 146.882443 436.253375 
L 149.431553 435.535122 
L 151.980662 436.320625 
L 154.529771 438.383335 
L 157.07888 438.51546 
L 159.627989 438.961738 
L 162.177099 439.93405 
L 164.726208 439.62134 
L 167.275317 439.876901 
L 169.824426 440.992191 
L 174.922644 441.870076 
L 177.471754 442.726768 
L 180.020863 442.911201 
L 182.569972 443.616889 
L 185.119081 444.115776 
L 187.66819 444.167935 
L 190.2173 445.254665 
L 192.766409 445.300661 
L 195.315518 444.915169 
L 197.864627 446.216605 
L 200.413736 445.470905 
L 202.962845 446.785779 
L 205.511955 446.049849 
L 208.061064 461.733916 
L 210.610173 468.522634 
L 213.159282 471.186053 
L 215.708391 472.99269 
L 218.257501 475.592737 
L 220.80661 476.248461 
L 223.355719 477.486796 
L 225.904828 478.321242 
L 228.453937 479.447925 
L 231.003046 480.077975 
L 233.552156 480.454794 
L 236.101265 481.41971 
L 238.650374 481.595651 
L 241.199483 482.680127 
L 243.748592 482.658842 
L 246.297702 483.090901 
L 248.846811 484.332618 
L 251.39592 484.612064 
L 253.945029 484.421844 
L 256.494138 484.501645 
L 259.043247 486.196299 
L 261.592357 485.564791 
L 264.141466 486.076274 
L 266.690575 486.845905 
L 269.239684 486.477489 
L 271.788793 487.080648 
L 274.337903 487.284292 
L 276.887012 486.82656 
L 279.436121 487.371954 
L 281.98523 488.094176 
L 284.534339 487.414643 
L 287.083448 488.201198 
L 289.632558 488.057935 
L 292.181667 488.213614 
L 294.730776 489.169452 
L 299.828994 488.89453 
L 302.378104 489.941022 
L 304.927213 489.87287 
L 307.476322 489.441818 
L 310.025431 490.121547 
L 312.57454 489.758557 
L 315.123649 489.715974 
L 317.672759 489.849496 
L 320.221868 490.689744 
L 322.770977 489.99067 
L 325.320086 490.704414 
L 327.869195 491.126913 
L 330.418305 490.439428 
L 335.516523 491.759143 
L 338.065632 491.363009 
L 340.614741 491.520161 
L 343.163851 490.708713 
L 345.71296 491.283313 
L 348.262069 491.580241 
L 350.811178 492.309978 
L 353.360287 491.984161 
L 355.909396 490.813541 
L 358.458506 490.901624 
L 361.007615 490.875891 
L 366.105833 491.37329 
L 368.654942 491.443907 
L 371.204052 496.523721 
L 373.753161 497.67934 
L 376.30227 499.086265 
L 378.851379 499.300521 
L 381.400488 500.763664 
L 383.949597 500.618627 
L 386.498707 500.670215 
L 389.047816 501.734322 
L 391.596925 501.11045 
L 394.146034 502.516128 
L 396.695143 502.049092 
L 401.793362 502.379464 
L 404.342471 503.342201 
L 409.440689 503.152807 
L 411.989798 504.054488 
L 414.538908 503.772246 
L 417.088017 503.770938 
L 419.637126 504.438221 
L 427.284454 504.857623 
L 429.833563 504.076989 
L 434.931781 505.036224 
L 437.48089 504.958392 
L 440.029999 504.491131 
L 442.579109 504.645081 
L 445.128218 505.396448 
L 447.677327 505.568391 
L 450.226436 506.225708 
L 452.775545 505.977692 
L 455.324655 507.139308 
L 457.873764 505.735794 
L 462.971982 506.634197 
L 465.521091 507.49878 
L 468.0702 507.182568 
L 470.61931 506.401829 
L 473.168419 507.286584 
L 475.717528 506.692444 
L 478.266637 506.770516 
L 480.815746 507.306711 
L 483.364856 508.13307 
L 485.913965 508.759828 
L 488.463074 508.7561 
L 491.012183 508.266728 
L 493.561292 508.67436 
L 496.110401 508.598332 
L 501.20862 509.000223 
L 503.757729 509.658246 
L 506.306838 508.701672 
L 508.855947 509.573771 
L 511.405057 509.051194 
L 513.954166 509.455114 
L 516.503275 510.240993 
L 519.052384 510.241519 
L 521.601493 509.07586 
L 524.150602 509.413507 
L 531.79793 509.487807 
L 534.347039 509.799345 
L 539.445258 509.740512 
L 541.994367 508.836247 
L 544.543476 509.680237 
L 547.092585 508.863559 
L 549.641694 510.050397 
L 552.190803 509.820043 
L 554.739913 510.177095 
L 557.289022 509.494616 
L 559.838131 510.478217 
L 562.38724 509.909028 
L 564.936349 509.474279 
L 567.485459 510.349188 
L 572.583677 509.980607 
L 575.132786 510.037696 
L 577.681895 510.412049 
L 580.231004 511.052501 
L 582.780114 510.955294 
L 582.780114 510.955294 
" clip-path="url(#pe8e2ac9e95)" style="fill: none; stroke: #1f77b4; stroke-width: 1.5; stroke-linecap: square"/>
   </g>
   <g id="line2d_38">
    <path d="M 75.507386 47.518125 
L 78.056496 333.418907 
L 80.605605 378.893818 
L 83.154714 403.595529 
L 85.703823 402.512076 
L 88.252932 417.023224 
L 90.802041 387.218611 
L 93.351151 429.40817 
L 95.90026 420.774725 
L 98.449369 428.102134 
L 100.998478 436.201818 
L 103.547587 429.7158 
L 106.096697 409.164791 
L 108.645806 408.764839 
L 111.194915 427.675487 
L 113.744024 431.088514 
L 116.293133 443.719102 
L 118.842242 448.148212 
L 121.391352 431.366232 
L 123.940461 444.145508 
L 126.48957 431.311188 
L 129.038679 444.454431 
L 131.587788 441.096538 
L 134.136898 434.339716 
L 136.686007 439.455755 
L 139.235116 455.710349 
L 144.333334 455.140063 
L 146.882443 460.485179 
L 149.431553 452.918774 
L 151.980662 450.825611 
L 154.529771 458.104348 
L 157.07888 431.404231 
L 159.627989 461.277928 
L 162.177099 462.925775 
L 164.726208 451.369201 
L 167.275317 465.941767 
L 169.824426 450.75316 
L 172.373535 436.841068 
L 174.922644 462.708152 
L 177.471754 465.579874 
L 180.020863 478.198376 
L 182.569972 469.858101 
L 185.119081 470.542715 
L 187.66819 475.604552 
L 190.2173 473.036912 
L 192.766409 472.960072 
L 195.315518 470.524708 
L 197.864627 461.915494 
L 200.413736 474.057384 
L 202.962845 476.648503 
L 205.511955 467.248013 
L 208.061064 500.956545 
L 210.610173 504.936477 
L 213.159282 508.427096 
L 215.708391 509.09035 
L 218.257501 515.139981 
L 220.80661 513.084442 
L 225.904828 516.102478 
L 228.453937 518.495289 
L 231.003046 519.210221 
L 233.552156 520.801746 
L 236.101265 519.672718 
L 241.199483 520.894834 
L 243.748592 521.928835 
L 246.297702 522.556585 
L 248.846811 519.260952 
L 251.39592 524.317137 
L 253.945029 519.959995 
L 256.494138 522.467675 
L 259.043247 523.774087 
L 261.592357 526.034608 
L 264.141466 521.363329 
L 266.690575 525.62651 
L 269.239684 523.841593 
L 271.788793 526.726392 
L 274.337903 523.816866 
L 276.887012 527.888384 
L 279.436121 525.471101 
L 281.98523 524.305172 
L 284.534339 527.037073 
L 287.083448 525.981668 
L 289.632558 525.579477 
L 292.181667 526.548061 
L 294.730776 527.981487 
L 297.279885 527.892833 
L 299.828994 527.623593 
L 302.378104 528.628778 
L 304.927213 528.431478 
L 307.476322 525.519247 
L 310.025431 530.34601 
L 312.57454 529.809709 
L 315.123649 527.202372 
L 317.672759 529.453453 
L 320.221868 530.693187 
L 322.770977 529.148304 
L 325.320086 528.797504 
L 327.869195 531.089892 
L 330.418305 531.126703 
L 332.967414 528.816128 
L 335.516523 529.855404 
L 338.065632 526.457889 
L 340.614741 531.447981 
L 343.163851 532.707105 
L 345.71296 529.037614 
L 348.262069 527.880642 
L 350.811178 532.451423 
L 353.360287 527.082002 
L 355.909396 531.003432 
L 358.458506 531.302253 
L 361.007615 531.766704 
L 363.556724 528.313122 
L 366.105833 525.075464 
L 368.654942 528.203033 
L 371.204052 538.635058 
L 373.753161 539.937396 
L 376.30227 540.919434 
L 378.851379 540.739134 
L 381.400488 541.907108 
L 383.949597 542.746994 
L 386.498707 542.676979 
L 389.047816 543.176678 
L 391.596925 542.212092 
L 394.146034 544.104873 
L 396.695143 543.349146 
L 399.244253 544.086565 
L 401.793362 543.907212 
L 404.342471 544.98094 
L 406.89158 544.526906 
L 409.440689 544.204485 
L 411.989798 545.283369 
L 414.538908 544.509515 
L 417.088017 545.025914 
L 419.637126 546.318226 
L 422.186235 544.298476 
L 424.735344 546.159616 
L 427.284454 546.139655 
L 429.833563 546.391428 
L 432.382672 545.216916 
L 434.931781 546.883762 
L 437.48089 545.459641 
L 440.029999 546.508296 
L 442.579109 546.435485 
L 445.128218 547.013241 
L 447.677327 546.933275 
L 450.226436 547.162246 
L 452.775545 547.126216 
L 455.324655 548.340141 
L 457.873764 546.515271 
L 460.422873 546.706153 
L 462.971982 547.336053 
L 465.521091 547.034751 
L 468.0702 547.765827 
L 470.61931 548.088412 
L 473.168419 548.203552 
L 475.717528 547.79141 
L 478.266637 548.034285 
L 480.815746 548.088893 
L 483.364856 548.930223 
L 493.561292 549.871826 
L 496.110401 549.708452 
L 498.659511 550.030857 
L 501.20862 549.859636 
L 503.757729 550.357411 
L 506.306838 550.149484 
L 508.855947 550.535306 
L 511.405057 550.094289 
L 513.954166 550.415462 
L 519.052384 550.613529 
L 521.601493 550.268561 
L 524.150602 550.892659 
L 529.248821 550.394644 
L 531.79793 550.937482 
L 536.896148 550.944667 
L 539.445258 550.526077 
L 541.994367 550.542356 
L 544.543476 550.893456 
L 547.092585 550.670212 
L 552.190803 551.01067 
L 554.739913 550.813309 
L 557.289022 551.024153 
L 559.838131 550.967064 
L 562.38724 551.15521 
L 564.936349 551.22258 
L 567.485459 550.787756 
L 570.034568 551.443871 
L 575.132786 551.250854 
L 580.231004 551.518125 
L 582.780114 551.335736 
L 582.780114 551.335736 
" clip-path="url(#pe8e2ac9e95)" style="fill: none; stroke: #ff7f0e; stroke-width: 1.5; stroke-linecap: square"/>
   </g>
   <g id="patch_3">
    <path d="M 50.14375 576.718125 
L 50.14375 22.318125 
" style="fill: none; stroke: #000000; stroke-width: 0.8; stroke-linejoin: miter; stroke-linecap: square"/>
   </g>
   <g id="patch_4">
    <path d="M 608.14375 576.718125 
L 608.14375 22.318125 
" style="fill: none; stroke: #000000; stroke-width: 0.8; stroke-linejoin: miter; stroke-linecap: square"/>
   </g>
   <g id="patch_5">
    <path d="M 50.14375 576.718125 
L 608.14375 576.718125 
" style="fill: none; stroke: #000000; stroke-width: 0.8; stroke-linejoin: miter; stroke-linecap: square"/>
   </g>
   <g id="patch_6">
    <path d="M 50.14375 22.318125 
L 608.14375 22.318125 
" style="fill: none; stroke: #000000; stroke-width: 0.8; stroke-linejoin: miter; stroke-linecap: square"/>
   </g>
   <g id="text_21">
    <!-- Train and Val Loss -->
    <g transform="translate(275.598437 16.318125) scale(0.12 -0.12)">
     <defs>
      <path id="DejaVuSans-54" d="M -19 4666 
L 3928 4666 
L 3928 4134 
L 2272 4134 
L 2272 0 
L 1638 0 
L 1638 4134 
L -19 4134 
L -19 4666 
z
" transform="scale(0.015625)"/>
      <path id="DejaVuSans-72" d="M 2631 2963 
Q 2534 3019 2420 3045 
Q 2306 3072 2169 3072 
Q 1681 3072 1420 2755 
Q 1159 2438 1159 1844 
L 1159 0 
L 581 0 
L 581 3500 
L 1159 3500 
L 1159 2956 
Q 1341 3275 1631 3429 
Q 1922 3584 2338 3584 
Q 2397 3584 2469 3576 
Q 2541 3569 2628 3553 
L 2631 2963 
z
" transform="scale(0.015625)"/>
      <path id="DejaVuSans-61" d="M 2194 1759 
Q 1497 1759 1228 1600 
Q 959 1441 959 1056 
Q 959 750 1161 570 
Q 1363 391 1709 391 
Q 2188 391 2477 730 
Q 2766 1069 2766 1631 
L 2766 1759 
L 2194 1759 
z
M 3341 1997 
L 3341 0 
L 2766 0 
L 2766 531 
Q 2569 213 2275 61 
Q 1981 -91 1556 -91 
Q 1019 -91 701 211 
Q 384 513 384 1019 
Q 384 1609 779 1909 
Q 1175 2209 1959 2209 
L 2766 2209 
L 2766 2266 
Q 2766 2663 2505 2880 
Q 2244 3097 1772 3097 
Q 1472 3097 1187 3025 
Q 903 2953 641 2809 
L 641 3341 
Q 956 3463 1253 3523 
Q 1550 3584 1831 3584 
Q 2591 3584 2966 3190 
Q 3341 2797 3341 1997 
z
" transform="scale(0.015625)"/>
      <path id="DejaVuSans-69" d="M 603 3500 
L 1178 3500 
L 1178 0 
L 603 0 
L 603 3500 
z
M 603 4863 
L 1178 4863 
L 1178 4134 
L 603 4134 
L 603 4863 
z
" transform="scale(0.015625)"/>
      <path id="DejaVuSans-6e" d="M 3513 2113 
L 3513 0 
L 2938 0 
L 2938 2094 
Q 2938 2591 2744 2837 
Q 2550 3084 2163 3084 
Q 1697 3084 1428 2787 
Q 1159 2491 1159 1978 
L 1159 0 
L 581 0 
L 581 3500 
L 1159 3500 
L 1159 2956 
Q 1366 3272 1645 3428 
Q 1925 3584 2291 3584 
Q 2894 3584 3203 3211 
Q 3513 2838 3513 2113 
z
" transform="scale(0.015625)"/>
      <path id="DejaVuSans-20" transform="scale(0.015625)"/>
      <path id="DejaVuSans-64" d="M 2906 2969 
L 2906 4863 
L 3481 4863 
L 3481 0 
L 2906 0 
L 2906 525 
Q 2725 213 2448 61 
Q 2172 -91 1784 -91 
Q 1150 -91 751 415 
Q 353 922 353 1747 
Q 353 2572 751 3078 
Q 1150 3584 1784 3584 
Q 2172 3584 2448 3432 
Q 2725 3281 2906 2969 
z
M 947 1747 
Q 947 1113 1208 752 
Q 1469 391 1925 391 
Q 2381 391 2643 752 
Q 2906 1113 2906 1747 
Q 2906 2381 2643 2742 
Q 2381 3103 1925 3103 
Q 1469 3103 1208 2742 
Q 947 2381 947 1747 
z
" transform="scale(0.015625)"/>
      <path id="DejaVuSans-56" d="M 1831 0 
L 50 4666 
L 709 4666 
L 2188 738 
L 3669 4666 
L 4325 4666 
L 2547 0 
L 1831 0 
z
" transform="scale(0.015625)"/>
      <path id="DejaVuSans-6c" d="M 603 4863 
L 1178 4863 
L 1178 0 
L 603 0 
L 603 4863 
z
" transform="scale(0.015625)"/>
     </defs>
     <use xlink:href="#DejaVuSans-54"/>
     <use xlink:href="#DejaVuSans-72" x="46.333984"/>
     <use xlink:href="#DejaVuSans-61" x="87.447266"/>
     <use xlink:href="#DejaVuSans-69" x="148.726562"/>
     <use xlink:href="#DejaVuSans-6e" x="176.509766"/>
     <use xlink:href="#DejaVuSans-20" x="239.888672"/>
     <use xlink:href="#DejaVuSans-61" x="271.675781"/>
     <use xlink:href="#DejaVuSans-6e" x="332.955078"/>
     <use xlink:href="#DejaVuSans-64" x="396.333984"/>
     <use xlink:href="#DejaVuSans-20" x="459.810547"/>
     <use xlink:href="#DejaVuSans-56" x="491.597656"/>
     <use xlink:href="#DejaVuSans-61" x="552.255859"/>
     <use xlink:href="#DejaVuSans-6c" x="613.535156"/>
     <use xlink:href="#DejaVuSans-20" x="641.318359"/>
     <use xlink:href="#DejaVuSans-4c" x="673.105469"/>
     <use xlink:href="#DejaVuSans-6f" x="727.068359"/>
     <use xlink:href="#DejaVuSans-73" x="788.25"/>
     <use xlink:href="#DejaVuSans-73" x="840.349609"/>
    </g>
   </g>
   <g id="legend_1">
    <g id="patch_7">
     <path d="M 521.553125 60.230625 
L 601.14375 60.230625 
Q 603.14375 60.230625 603.14375 58.230625 
L 603.14375 29.318125 
Q 603.14375 27.318125 601.14375 27.318125 
L 521.553125 27.318125 
Q 519.553125 27.318125 519.553125 29.318125 
L 519.553125 58.230625 
Q 519.553125 60.230625 521.553125 60.230625 
z
" style="fill: #ffffff; opacity: 0.8; stroke: #cccccc; stroke-linejoin: miter"/>
    </g>
    <g id="line2d_39">
     <path d="M 523.553125 35.416563 
L 533.553125 35.416563 
L 543.553125 35.416563 
" style="fill: none; stroke: #1f77b4; stroke-width: 1.5; stroke-linecap: square"/>
    </g>
    <g id="text_22">
     <!-- train_loss -->
     <g transform="translate(551.553125 38.916563) scale(0.1 -0.1)">
      <defs>
       <path id="DejaVuSans-74" d="M 1172 4494 
L 1172 3500 
L 2356 3500 
L 2356 3053 
L 1172 3053 
L 1172 1153 
Q 1172 725 1289 603 
Q 1406 481 1766 481 
L 2356 481 
L 2356 0 
L 1766 0 
Q 1100 0 847 248 
Q 594 497 594 1153 
L 594 3053 
L 172 3053 
L 172 3500 
L 594 3500 
L 594 4494 
L 1172 4494 
z
" transform="scale(0.015625)"/>
       <path id="DejaVuSans-5f" d="M 3263 -1063 
L 3263 -1509 
L -63 -1509 
L -63 -1063 
L 3263 -1063 
z
" transform="scale(0.015625)"/>
      </defs>
      <use xlink:href="#DejaVuSans-74"/>
      <use xlink:href="#DejaVuSans-72" x="39.208984"/>
      <use xlink:href="#DejaVuSans-61" x="80.322266"/>
      <use xlink:href="#DejaVuSans-69" x="141.601562"/>
      <use xlink:href="#DejaVuSans-6e" x="169.384766"/>
      <use xlink:href="#DejaVuSans-5f" x="232.763672"/>
      <use xlink:href="#DejaVuSans-6c" x="282.763672"/>
      <use xlink:href="#DejaVuSans-6f" x="310.546875"/>
      <use xlink:href="#DejaVuSans-73" x="371.728516"/>
      <use xlink:href="#DejaVuSans-73" x="423.828125"/>
     </g>
    </g>
    <g id="line2d_40">
     <path d="M 523.553125 50.372813 
L 533.553125 50.372813 
L 543.553125 50.372813 
" style="fill: none; stroke: #ff7f0e; stroke-width: 1.5; stroke-linecap: square"/>
    </g>
    <g id="text_23">
     <!-- val_loss -->
     <g transform="translate(551.553125 53.872813) scale(0.1 -0.1)">
      <defs>
       <path id="DejaVuSans-76" d="M 191 3500 
L 800 3500 
L 1894 563 
L 2988 3500 
L 3597 3500 
L 2284 0 
L 1503 0 
L 191 3500 
z
" transform="scale(0.015625)"/>
      </defs>
      <use xlink:href="#DejaVuSans-76"/>
      <use xlink:href="#DejaVuSans-61" x="59.179688"/>
      <use xlink:href="#DejaVuSans-6c" x="120.458984"/>
      <use xlink:href="#DejaVuSans-5f" x="148.242188"/>
      <use xlink:href="#DejaVuSans-6c" x="198.242188"/>
      <use xlink:href="#DejaVuSans-6f" x="226.025391"/>
      <use xlink:href="#DejaVuSans-73" x="287.207031"/>
      <use xlink:href="#DejaVuSans-73" x="339.306641"/>
     </g>
    </g>
   </g>
  </g>
 </g>
 <defs>
  <clipPath id="pe8e2ac9e95">
   <rect x="50.14375" y="22.318125" width="558" height="554.4"/>
  </clipPath>
 </defs>
</svg>
